<svg width="1043" height="938" viewBox="0 0 1043 938" fill="none" xmlns="http://www.w3.org/2000/svg">
<g filter="url(#filter0_f_92_192)">
<path d="M95.0171 394.585L94.7657 395.862C-0.758736 881.19 467.343 858.307 584.447 854.81C701.552 851.314 934.174 758.825 959.246 568.445C984.317 378.064 737.096 100.915 447.984 83.1166C159.806 65.3756 120.914 262.997 95.0171 394.585Z" fill="#E7F7FE"/>
</g>
<path d="M562.399 795.36C562.399 799.043 538.96 802.013 509.983 802.013C481.006 802.013 457.567 799.043 457.567 795.36C457.567 791.677 481.006 788.64 509.983 788.64C538.96 788.64 562.399 791.677 562.399 795.36Z" fill="#E0E0E0"/>
<path d="M364.589 315.203C368.92 312.589 373.58 310.564 378.446 309.181L381.295 295.459L404.479 295.056L407.812 308.657C412.725 309.865 417.454 311.727 421.87 314.195L433.59 306.52L450.269 322.648L442.998 334.623C445.617 338.952 447.642 343.612 449.019 348.48L462.701 351.249L463.104 374.433L449.503 377.766C448.294 382.678 446.432 387.407 443.966 391.824L451.64 403.544L435.512 420.209L423.537 412.952C419.201 415.566 414.537 417.59 409.667 418.973L406.818 432.695L383.647 433.098L380.3 419.497C375.392 418.276 370.665 416.414 366.242 413.96L354.536 421.634L337.857 405.506L345.115 393.531C342.501 389.2 340.476 384.54 339.093 379.674L325.371 376.825L324.968 353.641L338.583 350.308C339.793 345.398 341.65 340.67 344.107 336.25L336.432 324.53L352.56 307.864L364.535 315.122L364.589 315.203ZM376.94 346.115C373.525 349.653 371.235 354.124 370.361 358.963C369.487 363.802 370.067 368.792 372.029 373.301C373.99 377.811 377.245 381.637 381.381 384.297C385.517 386.957 390.349 388.33 395.266 388.244C400.183 388.157 404.964 386.615 409.004 383.811C413.044 381.008 416.162 377.069 417.964 372.494C419.766 367.918 420.17 362.911 419.126 358.106C418.083 353.3 415.637 348.912 412.099 345.496C407.361 340.915 400.997 338.402 394.407 338.51C387.817 338.618 381.539 341.339 376.954 346.074L376.94 346.115Z" fill="white"/>
<path d="M543.274 404.269C546.919 403.009 550.715 402.24 554.564 401.985L558.878 392.214L576.215 395.601L576.538 406.272C580.011 407.957 583.243 410.1 586.148 412.643L596.093 408.772L605.972 423.435L598.647 431.203C599.906 434.848 600.674 438.645 600.932 442.493L610.702 446.807L607.329 464.145L596.644 464.467C594.962 467.939 592.824 471.171 590.287 474.077L594.144 484.036L579.495 493.968L571.713 486.657C568.069 487.919 564.272 488.683 560.423 488.928L556.123 498.712L538.772 495.312L538.449 484.56C534.979 482.883 531.751 480.744 528.853 478.203L518.894 482.06L509.096 467.424L516.407 459.656C515.148 456.011 514.38 452.214 514.123 448.366L504.352 444.052L507.671 426.768L518.343 426.445C520.028 422.98 522.166 419.753 524.7 416.849L520.843 406.89L535.506 397.025L543.274 404.337V404.269ZM547.575 429.254C544.463 431.349 542.042 434.319 540.619 437.79C539.195 441.261 538.833 445.075 539.578 448.752C540.323 452.428 542.141 455.801 544.803 458.444C547.465 461.087 550.851 462.881 554.533 463.599C558.214 464.318 562.026 463.928 565.487 462.479C568.947 461.031 571.9 458.589 573.972 455.462C576.044 452.335 577.142 448.664 577.128 444.913C577.113 441.162 575.987 437.499 573.89 434.388C571.081 430.219 566.73 427.336 561.795 426.373C556.861 425.411 551.746 426.447 547.575 429.254Z" fill="white"/>
<path d="M604.036 217.198C604.036 217.198 604.157 217.198 604.359 217.427C604.56 217.655 604.856 217.843 605.259 218.139C606.433 219.047 607.668 219.873 608.955 220.612C610.981 221.777 613.131 222.71 615.366 223.394C618.327 224.287 621.414 224.691 624.505 224.59C628.256 224.367 631.99 223.918 635.687 223.246C639.966 222.508 644.326 222.368 648.644 222.829C653.423 223.4 658.074 224.762 662.406 226.861C671.808 231.411 679.023 239.501 682.472 249.36C684.077 253.898 684.789 258.704 684.569 263.512C684.407 268.095 683.762 272.383 683.655 276.428C683.458 280.176 683.945 283.929 685.093 287.503C686.061 290.444 687.485 293.215 689.313 295.715C690.678 297.614 692.266 299.342 694.044 300.862C694.756 301.507 695.388 301.991 696.046 302.448C696.705 302.905 697.162 303.228 697.592 303.496L698.587 304.088C698.802 304.236 698.923 304.303 698.923 304.316C698.796 304.265 698.674 304.202 698.56 304.128L697.552 303.577C697.108 303.322 696.584 302.959 695.966 302.556C695.348 302.152 694.622 301.642 693.923 300.997C689.701 297.44 686.54 292.79 684.784 287.557C683.6 283.953 683.09 280.163 683.278 276.374C683.372 272.342 684.004 267.988 684.152 263.445C684.352 258.69 683.641 253.941 682.055 249.454C678.648 239.71 671.513 231.715 662.218 227.224C657.938 225.139 653.342 223.776 648.617 223.192C644.332 222.725 640.004 222.852 635.755 223.569C632.045 224.245 628.297 224.694 624.532 224.913C621.401 224.976 618.282 224.522 615.299 223.569C611.634 222.419 608.216 220.595 605.219 218.193C604.816 217.87 604.533 217.601 604.345 217.44L604.036 217.198Z" fill="#ADE4FC"/>
<path d="M627.032 187.536C628.551 188.896 629.983 190.35 631.319 191.891C632.917 193.673 634.377 195.573 635.687 197.576C637.472 200.217 638.777 203.151 639.545 206.244C639.747 207.129 639.886 208.028 639.961 208.932C639.961 209.873 639.961 210.814 639.961 211.768C639.961 213.69 639.881 215.679 639.84 217.749C639.76 221.875 639.625 226.297 639.692 230.934C639.773 235.774 640.683 240.566 642.38 245.1C644.207 249.972 647.026 254.411 650.659 258.136C654.324 261.835 658.782 264.653 663.696 266.375C668.261 268.011 673.151 268.527 677.956 267.88C682.539 267.262 686.773 265.905 690.859 265.192C692.83 264.812 694.832 264.619 696.839 264.614C698.691 264.639 700.537 264.842 702.35 265.219C705.459 265.903 708.44 267.078 711.18 268.7C713.246 269.922 715.143 271.409 716.825 273.122C717.894 274.193 718.866 275.358 719.728 276.603L720.359 277.584L720.574 277.933C720.488 277.83 720.407 277.723 720.332 277.611C720.158 277.382 719.943 277.06 719.647 276.657C717.335 273.519 714.408 270.885 711.045 268.915C708.355 267.323 705.429 266.166 702.377 265.488C700.585 265.124 698.762 264.935 696.933 264.924C694.949 264.935 692.969 265.129 691.02 265.501C686.988 266.227 682.741 267.612 678.117 268.189C673.257 268.889 668.301 268.424 663.656 266.832C658.674 265.092 654.155 262.238 650.444 258.486C646.766 254.716 643.914 250.221 642.071 245.288C640.355 240.708 639.445 235.865 639.383 230.974C639.316 226.31 639.464 221.902 639.571 217.763C639.571 215.706 639.666 213.731 639.706 211.795C639.706 210.828 639.706 209.9 639.706 208.986C639.635 208.083 639.505 207.185 639.316 206.298C638.569 203.235 637.296 200.324 635.553 197.697C634.268 195.693 632.835 193.788 631.266 191.998C629.922 190.506 628.927 189.404 628.201 188.665L627.381 187.818L627.032 187.536Z" fill="#ADE4FC"/>
<path d="M639.84 210.223C639.934 210.303 637.246 213.677 633.833 217.763C630.419 221.848 627.57 225.087 627.476 225.007C627.381 224.926 630.069 221.553 633.483 217.467C636.897 213.381 639.746 210.142 639.84 210.223Z" fill="#ADE4FC"/>
<path d="M637.529 201.661C637.623 201.755 632.932 206.648 627.059 212.615C621.186 218.582 616.307 223.367 616.307 223.233C616.307 223.098 620.903 218.246 626.777 212.292C632.65 206.339 637.435 201.567 637.529 201.661Z" fill="#ADE4FC"/>
<path d="M632.744 193.718C632.838 193.799 627.14 199.645 620.03 206.755C612.92 213.865 607.087 219.564 606.993 219.469C606.899 219.375 612.597 213.542 619.707 206.433C626.817 199.323 632.65 193.624 632.744 193.718Z" fill="#ADE4FC"/>
<path d="M683.816 255.22C683.897 255.314 680.577 258.298 676.397 261.94C672.217 265.582 668.777 268.364 668.683 268.27C668.589 268.176 671.922 265.192 676.102 261.55C680.281 257.908 683.682 255.112 683.816 255.22Z" fill="#ADE4FC"/>
<path d="M679.341 243.446C679.111 243.763 678.85 244.056 678.561 244.32C678.05 244.858 677.284 245.664 676.33 246.538C674.408 248.392 671.72 250.906 668.669 253.594C665.618 256.282 662.769 258.62 660.686 260.314C659.637 261.133 658.791 261.792 658.186 262.236C657.898 262.496 657.577 262.717 657.232 262.894C657.486 262.602 657.77 262.336 658.078 262.101L660.484 260.058C662.514 258.338 665.309 256.026 668.36 253.338C671.411 250.65 674.139 248.191 676.101 246.403L678.44 244.186C678.714 243.909 679.016 243.661 679.341 243.446Z" fill="#ADE4FC"/>
<path d="M672.54 234.415C672.243 234.726 671.92 235.009 671.572 235.262L668.884 237.493C666.573 239.374 663.414 241.995 660 244.992C656.587 247.989 653.589 250.798 651.426 252.841L648.872 255.26C648.577 255.582 648.248 255.87 647.891 256.12C648.138 255.765 648.422 255.436 648.738 255.139C649.302 254.534 650.149 253.661 651.197 252.613C653.307 250.502 656.291 247.653 659.705 244.643C663.118 241.632 666.317 239.052 668.683 237.237C669.865 236.337 670.833 235.611 671.518 235.127C671.837 234.859 672.178 234.621 672.54 234.415Z" fill="#ADE4FC"/>
<path d="M661.291 228.286C661.086 228.554 660.851 228.797 660.592 229.012L658.589 230.853C656.896 232.412 654.557 234.563 652.03 236.982C649.504 239.401 647.246 241.632 645.62 243.258L643.684 245.18C643.465 245.433 643.211 245.655 642.932 245.839C643.112 245.555 643.319 245.29 643.55 245.046C643.98 244.562 644.598 243.877 645.391 243.03C646.95 241.35 649.181 239.078 651.708 236.646C654.235 234.213 656.627 232.103 658.428 230.611C659.301 229.872 660.014 229.267 660.525 228.877C660.759 228.655 661.016 228.457 661.291 228.286Z" fill="#ADE4FC"/>
<path d="M652.568 223.475C650.638 225.585 648.597 227.59 646.453 229.482C644.412 231.489 642.263 233.383 640.015 235.154C641.967 233.064 644.026 231.076 646.184 229.2C648.211 227.182 650.342 225.271 652.568 223.475Z" fill="#ADE4FC"/>
<path d="M700.549 264.803C700.376 265.055 700.173 265.285 699.944 265.488L698.143 267.155C696.544 268.646 694.487 270.541 692.203 272.638C689.918 274.735 687.902 276.67 686.316 278.175L684.515 279.842C684.304 280.056 684.069 280.245 683.816 280.406C683.816 280.406 683.991 280.138 684.394 279.708C684.797 279.277 685.362 278.673 686.087 277.933C687.539 276.455 689.582 274.453 691.893 272.302C694.205 270.152 696.356 268.27 697.928 266.926C698.721 266.254 699.366 265.73 699.823 265.367C700.035 265.144 700.28 264.953 700.549 264.803Z" fill="#ADE4FC"/>
<path d="M711.516 268.942C711.596 269.023 706.14 274.318 699.245 280.689C692.35 287.059 686.759 292.193 686.665 292.099C686.571 292.005 692.041 286.723 698.936 280.353C705.831 273.982 711.422 268.848 711.516 268.942Z" fill="#ADE4FC"/>
<path d="M719.056 273.162C719.15 273.243 713.236 279.237 705.858 286.602C698.479 293.967 692.418 299.747 692.323 299.653C692.229 299.558 698.143 293.578 705.535 286.213C712.927 278.847 718.975 273.068 719.056 273.162Z" fill="#ADE4FC"/>
<path d="M729.512 668.809L729.767 668.271L729.915 667.976C729.915 667.855 729.996 667.72 730.05 667.586C730.171 667.264 730.261 666.931 730.318 666.591C730.318 666.403 730.399 666.202 730.426 665.987V665.315C730.446 665.064 730.446 664.812 730.426 664.562C730.426 664.293 730.426 664.024 730.426 663.742C730.274 662.444 729.958 661.17 729.485 659.952C728.143 656.615 726.293 653.505 724.002 650.732C721.025 647.027 717.718 643.6 714.123 640.491C709.783 636.694 705.179 633.209 700.347 630.061C694.815 626.431 689.035 623.193 683.05 620.371C679.891 618.893 676.585 617.508 673.145 616.259C669.634 614.971 666.042 613.916 662.393 613.1C658.633 612.209 654.778 611.789 650.915 611.85C648.944 611.889 646.99 612.229 645.122 612.858C644.191 613.184 643.309 613.636 642.501 614.202C641.704 614.791 641.024 615.525 640.499 616.366C640.021 617.239 639.702 618.19 639.558 619.175C639.457 620.155 639.484 621.145 639.639 622.118C639.999 624.056 640.651 625.928 641.574 627.669C643.383 631.071 645.614 634.232 648.213 637.077C650.7 639.86 653.362 642.482 656.183 644.926C658.871 647.332 661.748 649.549 664.583 651.646C669.949 655.519 675.581 659.009 681.437 662.089C686.538 664.793 691.824 667.133 697.256 669.091C701.73 670.711 706.341 671.925 711.032 672.72C714.578 673.378 718.204 673.491 721.784 673.056C723.081 672.878 724.351 672.535 725.561 672.035C725.829 671.94 726.058 671.793 726.3 671.685C726.525 671.579 726.741 671.453 726.945 671.309L727.523 670.932L727.993 670.543C728.262 670.329 728.509 670.091 728.732 669.83C728.827 669.723 728.921 669.629 729.001 669.521L729.189 669.252L729.552 668.755L729.216 669.266L729.028 669.548L728.759 669.857C728.538 670.119 728.295 670.362 728.034 670.583L727.55 670.973L726.985 671.363C726.774 671.502 726.554 671.627 726.327 671.739C726.085 671.846 725.856 671.994 725.587 672.102C724.375 672.611 723.101 672.959 721.797 673.137C718.22 673.598 714.592 673.499 711.045 672.841C706.349 672.063 701.733 670.858 697.256 669.239C691.819 667.289 686.528 664.953 681.424 662.25C675.556 659.18 669.914 655.695 664.543 651.821C661.707 649.764 658.885 647.547 656.116 645.101C653.287 642.656 650.621 640.029 648.133 637.238C645.504 634.37 643.246 631.182 641.413 627.75C640.486 625.985 639.829 624.091 639.464 622.132C639.303 621.132 639.275 620.115 639.383 619.108C639.521 618.096 639.849 617.121 640.351 616.232C640.89 615.362 641.588 614.6 642.407 613.987C643.241 613.425 644.145 612.973 645.095 612.643C646.987 612.016 648.962 611.677 650.955 611.635C654.836 611.572 658.71 611.992 662.487 612.885C666.137 613.71 669.729 614.774 673.239 616.07C676.679 617.32 679.959 618.758 683.157 620.196C689.151 623.026 694.936 626.278 700.468 629.927C705.304 633.079 709.908 636.573 714.244 640.383C717.841 643.505 721.147 646.947 724.123 650.665C726.407 653.455 728.252 656.578 729.593 659.925C730.057 661.154 730.364 662.436 730.507 663.742C730.507 664.024 730.507 664.307 730.507 664.575C730.527 664.826 730.527 665.078 730.507 665.328C730.507 665.57 730.507 665.798 730.507 666.013C730.507 666.228 730.426 666.43 730.386 666.618C730.325 666.958 730.23 667.291 730.103 667.613C730.103 667.747 730.023 667.882 729.969 667.989L729.808 668.298L729.512 668.809Z" fill="#ADE4FC"/>
<path d="M736.797 632.293C736.797 632.293 736.729 632.104 736.622 631.715C736.622 631.621 736.622 631.513 736.528 631.392L736.38 631.016C736.255 630.698 736.102 630.392 735.923 630.102C735.815 629.941 735.721 629.752 735.6 629.578L735.184 629.04C735.037 628.836 734.87 628.647 734.686 628.476C734.507 628.27 734.314 628.077 734.109 627.898C733.124 627.022 732.031 626.276 730.856 625.68C727.637 624.088 724.192 623 720.642 622.454C715.948 621.676 711.193 621.321 706.436 621.393C700.672 621.434 694.919 621.883 689.219 622.737C682.675 623.705 676.208 625.133 669.865 627.011C666.519 628.019 663.145 629.174 659.732 630.532C656.264 631.904 652.888 633.498 649.625 635.303C646.223 637.145 643.063 639.403 640.217 642.023C638.777 643.366 637.545 644.915 636.561 646.62C636.094 647.489 635.742 648.415 635.513 649.375C635.294 650.346 635.28 651.352 635.472 652.328C635.664 653.305 636.058 654.231 636.628 655.046C637.208 655.848 637.891 656.571 638.658 657.197C640.214 658.406 641.945 659.371 643.792 660.06C647.419 661.394 651.197 662.275 655.041 662.68C658.748 663.102 662.479 663.286 666.21 663.231C669.865 663.231 673.44 662.976 676.962 662.613C683.537 661.961 690.058 660.847 696.477 659.28C702.08 657.877 707.577 656.081 712.927 653.904C717.351 652.158 721.607 650.012 725.641 647.493C728.716 645.635 731.486 643.314 733.853 640.612C734.708 639.623 735.426 638.525 735.99 637.346C736.112 637.097 736.22 636.841 736.313 636.58C736.409 636.353 736.49 636.119 736.555 635.881L736.729 635.209C736.729 635.007 736.797 634.792 736.823 634.604C736.883 634.267 736.906 633.925 736.891 633.583C736.897 633.448 736.897 633.314 736.891 633.18V632.844C736.891 632.454 736.823 632.239 736.823 632.239L736.904 632.844V633.18V633.583C736.942 633.922 736.942 634.265 736.904 634.604C736.904 634.806 736.904 635.007 736.823 635.222C736.743 635.438 736.702 635.653 736.649 635.894C736.584 636.137 736.503 636.375 736.407 636.607C736.319 636.868 736.216 637.124 736.098 637.373C735.53 638.555 734.817 639.661 733.974 640.666C731.608 643.389 728.833 645.729 725.749 647.601C721.716 650.134 717.46 652.293 713.035 654.052C707.679 656.227 702.178 658.023 696.571 659.428C690.141 661.036 683.607 662.19 677.015 662.882C673.534 663.245 669.959 663.46 666.263 663.5C662.523 663.569 658.783 663.385 655.068 662.949C651.202 662.533 647.404 661.63 643.765 660.261C641.895 659.561 640.141 658.582 638.564 657.358C637.777 656.721 637.08 655.979 636.494 655.154C635.921 654.306 635.515 653.358 635.298 652.358C635.109 651.355 635.109 650.325 635.298 649.321C635.531 648.337 635.893 647.388 636.373 646.499C637.364 644.767 638.61 643.195 640.069 641.835C642.914 639.213 646.074 636.956 649.477 635.115C652.752 633.318 656.142 631.737 659.624 630.384C663.024 629.04 666.425 627.857 669.771 626.863C676.135 624.983 682.625 623.559 689.192 622.602C694.9 621.741 700.663 621.292 706.436 621.258C711.199 621.191 715.959 621.56 720.655 622.36C724.216 622.918 727.67 624.019 730.896 625.626C732.067 626.233 733.156 626.988 734.135 627.871C734.35 628.046 734.525 628.274 734.713 628.449C734.886 628.631 735.048 628.824 735.197 629.027C735.345 629.215 735.493 629.403 735.614 629.578C735.735 629.752 735.829 629.941 735.936 630.115C736.117 630.403 736.266 630.709 736.38 631.029C736.436 631.156 736.486 631.286 736.528 631.419L736.622 631.742C736.743 632.104 736.797 632.293 736.797 632.293Z" fill="#ADE4FC"/>
<path d="M709.943 593.975L709.379 593.747L709.07 593.626L708.68 593.518C708.352 593.416 708.014 593.349 707.672 593.317L707.054 593.249H706.368C706.122 593.23 705.875 593.23 705.629 593.249C705.354 593.261 705.08 593.293 704.809 593.343C703.525 593.593 702.275 593.994 701.086 594.54C697.858 596.118 694.889 598.18 692.283 600.655C688.786 603.877 685.592 607.413 682.741 611.219C679.267 615.811 676.123 620.643 673.333 625.68C670.087 631.445 667.253 637.431 664.852 643.596C663.602 646.848 662.433 650.248 661.425 653.756C660.39 657.34 659.582 660.985 659.006 664.669C658.379 668.484 658.23 672.363 658.562 676.214C658.722 678.171 659.175 680.092 659.906 681.913C660.301 682.82 660.817 683.67 661.438 684.44C662.089 685.191 662.873 685.815 663.75 686.281C664.644 686.707 665.611 686.958 666.599 687.02C667.589 687.061 668.579 686.966 669.543 686.738C671.44 686.247 673.253 685.472 674.919 684.44C678.199 682.394 681.21 679.947 683.883 677.155C686.504 674.493 688.95 671.664 691.208 668.688C693.412 665.772 695.428 662.801 697.283 659.845C700.772 654.222 703.862 648.361 706.53 642.305C708.874 637.038 710.846 631.613 712.43 626.07C713.745 621.501 714.645 616.823 715.118 612.092C715.535 608.509 715.399 604.882 714.715 601.34C714.45 600.058 714.021 598.816 713.438 597.644C713.317 597.399 713.183 597.161 713.035 596.932C712.915 596.709 712.775 596.498 712.618 596.3L712.201 595.763C712.067 595.588 711.919 595.453 711.785 595.306C711.554 595.055 711.297 594.829 711.019 594.634C710.898 594.54 710.803 594.445 710.696 594.378L710.414 594.204L709.903 593.894L710.427 594.19L710.709 594.351C710.817 594.419 710.924 594.513 711.045 594.607C711.324 594.802 711.581 595.028 711.811 595.279C711.946 595.413 712.107 595.561 712.242 595.722L712.672 596.273C712.827 596.467 712.967 596.674 713.088 596.892C713.238 597.12 713.373 597.358 713.491 597.604C714.102 598.775 714.554 600.023 714.835 601.313C715.531 604.854 715.681 608.48 715.279 612.065C714.807 616.809 713.907 621.501 712.591 626.083C711.016 631.637 709.049 637.071 706.704 642.346C704.045 648.414 700.955 654.284 697.458 659.912C695.616 662.882 693.6 665.852 691.383 668.769C689.142 671.768 686.704 674.614 684.085 677.29C681.401 680.098 678.376 682.559 675.08 684.614C673.384 685.661 671.54 686.445 669.61 686.94C668.624 687.173 667.612 687.272 666.599 687.235C665.564 687.195 664.548 686.935 663.621 686.472C662.694 686.008 661.877 685.352 661.223 684.547C660.58 683.765 660.051 682.897 659.651 681.967C658.89 680.123 658.414 678.174 658.24 676.188C657.905 672.322 658.059 668.43 658.697 664.602C659.262 660.905 660.074 657.25 661.129 653.662C662.137 650.141 663.293 646.74 664.556 643.475C666.972 637.351 669.815 631.405 673.064 625.68C675.886 620.64 679.056 615.803 682.553 611.205C685.424 607.404 688.631 603.869 692.135 600.641C694.764 598.171 697.755 596.118 701.006 594.553C702.196 594.001 703.451 593.604 704.742 593.37C705.024 593.37 705.307 593.37 705.562 593.276C705.812 593.257 706.064 593.257 706.315 593.276H707.013L707.618 593.343C707.959 593.391 708.296 593.463 708.626 593.558L709.016 593.679L709.339 593.8L709.943 593.975Z" fill="#ADE4FC"/>
<path d="M638.994 673.446C639.306 673.66 639.549 673.962 639.69 674.313C639.832 674.664 639.867 675.05 639.79 675.421C639.713 675.792 639.528 676.132 639.259 676.398C638.99 676.665 638.647 676.845 638.276 676.918C637.904 676.99 637.519 676.951 637.169 676.806C636.819 676.66 636.52 676.414 636.31 676.099C636.099 675.784 635.987 675.414 635.986 675.035C635.985 674.656 636.096 674.286 636.306 673.97C636.445 673.756 636.626 673.572 636.838 673.43C637.05 673.287 637.288 673.188 637.539 673.14C637.789 673.091 638.047 673.093 638.297 673.145C638.547 673.198 638.784 673.3 638.994 673.446Z" fill="#E0E0E0"/>
<path d="M733.652 594.029C733.727 594.402 733.69 594.789 733.545 595.14C733.4 595.492 733.154 595.793 732.838 596.005C732.522 596.217 732.151 596.33 731.77 596.331C731.39 596.331 731.018 596.219 730.701 596.008C730.385 595.797 730.138 595.497 729.992 595.145C729.847 594.794 729.808 594.407 729.882 594.034C729.957 593.661 730.14 593.319 730.409 593.05C730.678 592.781 731.021 592.598 731.394 592.524C731.893 592.425 732.41 592.527 732.834 592.81C733.257 593.092 733.551 593.53 733.652 594.029Z" fill="#E0E0E0"/>
<path d="M652.111 677.276C652.123 677.339 652.123 677.403 652.111 677.466C652.098 677.529 652.073 677.588 652.038 677.641C652.002 677.694 651.957 677.74 651.903 677.775C651.85 677.811 651.791 677.835 651.728 677.847C651.665 677.86 651.601 677.86 651.538 677.847C651.476 677.835 651.416 677.81 651.363 677.774C651.31 677.739 651.265 677.693 651.229 677.64C651.194 677.587 651.169 677.527 651.157 677.464C651.132 677.338 651.158 677.207 651.23 677.099C651.302 676.992 651.413 676.918 651.54 676.893C651.666 676.868 651.798 676.895 651.905 676.966C652.012 677.038 652.086 677.15 652.111 677.276Z" fill="#E0E0E0"/>
<path d="M651.856 622.495C651.881 622.621 651.854 622.752 651.782 622.86C651.711 622.967 651.599 623.041 651.473 623.066C651.346 623.091 651.215 623.065 651.108 622.993C651.001 622.921 650.926 622.809 650.901 622.683C650.888 622.619 650.887 622.553 650.9 622.49C650.912 622.426 650.937 622.365 650.973 622.311C651.01 622.257 651.057 622.211 651.111 622.176C651.166 622.14 651.227 622.116 651.291 622.105C651.354 622.093 651.418 622.094 651.481 622.107C651.543 622.121 651.602 622.146 651.654 622.182C651.707 622.219 651.752 622.265 651.786 622.318C651.821 622.372 651.844 622.432 651.856 622.495Z" fill="#E0E0E0"/>
<path d="M731.622 633.327C731.634 633.39 731.633 633.454 731.62 633.517C731.606 633.579 731.581 633.638 731.545 633.691C731.508 633.743 731.462 633.788 731.409 633.822C731.355 633.857 731.295 633.88 731.232 633.892C731.17 633.905 731.106 633.907 731.044 633.895C730.982 633.883 730.923 633.859 730.87 633.824C730.817 633.789 730.772 633.743 730.737 633.69C730.703 633.637 730.679 633.578 730.668 633.516C730.654 633.453 730.653 633.388 730.664 633.325C730.676 633.262 730.7 633.202 730.735 633.148C730.77 633.094 730.815 633.048 730.868 633.012C730.922 632.976 730.981 632.95 731.044 632.938C731.108 632.924 731.174 632.923 731.237 632.936C731.301 632.948 731.362 632.973 731.416 633.01C731.47 633.046 731.516 633.093 731.551 633.147C731.587 633.202 731.611 633.263 731.622 633.327Z" fill="#ADE4FC"/>
<path d="M733.84 609.7C733.853 609.762 733.854 609.826 733.843 609.888C733.831 609.95 733.807 610.01 733.772 610.062C733.737 610.115 733.691 610.16 733.638 610.195C733.585 610.23 733.526 610.253 733.463 610.264C733.401 610.278 733.336 610.279 733.273 610.268C733.21 610.256 733.149 610.232 733.096 610.197C733.042 610.162 732.996 610.117 732.959 610.064C732.923 610.011 732.898 609.951 732.885 609.888C732.872 609.824 732.871 609.759 732.884 609.695C732.896 609.631 732.921 609.57 732.957 609.516C732.994 609.462 733.041 609.416 733.095 609.381C733.15 609.345 733.211 609.321 733.275 609.31C733.338 609.298 733.402 609.299 733.465 609.313C733.527 609.326 733.586 609.351 733.638 609.388C733.691 609.424 733.736 609.47 733.77 609.524C733.805 609.577 733.828 609.637 733.84 609.7Z" fill="#ADE4FC"/>
<path d="M694.311 646.56C696.675 641.975 694.875 636.342 690.29 633.977C685.705 631.613 680.071 633.413 677.707 637.998C675.342 642.583 677.142 648.216 681.727 650.581C686.312 652.945 691.946 651.145 694.311 646.56Z" fill="#D4F1FE"/>
<path d="M625.54 343.185C621.467 332.493 615.225 322.76 607.208 314.598C593.351 300.432 577.559 287.919 559.698 279.13C541.836 270.34 512.658 262.545 491.463 262.666C480.496 262.236 474.958 262.921 464.986 266.778C458.763 269.184 453.535 274.735 453.105 281.307C452.702 287.395 456.465 294.881 461.491 298.43C483.103 313.67 499.473 314.463 520.439 321.17C541.406 327.877 562.963 337.809 574.267 356.463C580.409 366.57 583.903 379.526 594.547 384.889C604.869 390.104 618.471 385.05 624.801 375.481C631.131 365.912 629.626 353.869 625.54 343.185Z" fill="white"/>
<path d="M338.193 534.409C338.193 534.409 337.669 534.718 336.62 535.283C335.572 535.847 334.027 536.627 332.037 537.836C326.186 541.163 320.54 544.838 315.13 548.844C306.545 555.142 298.559 562.219 291.274 569.985C286.731 574.837 282.469 579.943 278.506 585.279C274.023 591.226 270.138 597.601 266.907 604.31C265.215 607.935 263.773 611.671 262.593 615.493C261.406 619.492 260.605 623.597 260.201 627.75C259.827 632.079 260.058 636.44 260.886 640.706C261.318 642.907 261.915 645.073 262.674 647.184C263.47 649.308 264.431 651.366 265.55 653.34C270.421 661.513 277.379 668.244 285.71 672.841C294.579 677.652 304.23 680.856 314.216 682.303C319.323 683.149 324.524 683.727 329.82 684.131C332.508 684.359 335.196 684.44 337.803 684.561L345.867 684.91C348.555 685.085 351.243 685.018 354.039 685.018H362.291C365.06 685.018 367.842 684.829 370.624 684.735L379.037 684.346C402.258 682.817 425.311 679.355 447.957 673.997C494.594 663.164 537.212 646.284 574.737 628.771C593.553 620.076 611.119 610.99 625.93 600.023C633.099 594.774 639.706 588.797 645.646 582.188L647.743 579.796C648.428 579.003 649.087 578.143 649.705 577.336L651.627 574.877L653.388 572.337C655.739 569.102 657.752 565.634 659.395 561.988C662.589 555.274 664.198 547.917 664.099 540.484C663.97 533.814 661.308 527.442 656.654 522.662C652.434 518.693 647.129 516.069 641.413 515.123C636.63 514.273 631.734 514.273 626.951 515.123C623.129 515.794 619.37 516.788 615.715 518.093C612.53 519.195 609.896 520.284 607.759 521.184L602.934 523.254L601.294 523.953L602.907 523.187C603.982 522.703 605.595 521.964 607.705 521.05C609.815 520.136 612.463 519.02 615.648 517.891C619.305 516.56 623.068 515.544 626.898 514.854C631.716 513.967 636.654 513.944 641.48 514.787C647.265 515.705 652.646 518.325 656.936 522.313C661.685 527.154 664.41 533.623 664.556 540.403C664.687 547.926 663.077 555.378 659.852 562.176C658.212 565.856 656.194 569.355 653.831 572.619L652.071 575.173L650.216 577.646C649.557 578.465 648.939 579.325 648.24 580.132L646.144 582.538C640.19 589.181 633.565 595.189 626.373 600.467C611.522 611.501 593.902 620.627 575.113 629.336C537.575 646.902 494.917 663.809 448.213 674.669C401.509 685.528 355.356 688.62 314.189 682.934C304.137 681.455 294.427 678.206 285.508 673.338C277.076 668.684 270.034 661.87 265.106 653.595C263.966 651.594 262.991 649.504 262.19 647.345C261.427 645.216 260.825 643.033 260.389 640.813C259.559 636.498 259.332 632.088 259.717 627.709C260.132 623.52 260.946 619.379 262.149 615.345C263.345 611.499 264.805 607.74 266.517 604.095C269.772 597.361 273.689 590.968 278.21 585.011C288.576 571.093 300.987 558.822 315.022 548.615C320.457 544.632 326.136 540.991 332.024 537.715C336.002 535.457 338.193 534.409 338.193 534.409Z" fill="#ADE4FC"/>
<path d="M728.491 415.438L711.677 477.262L660.605 491.374C659.776 491.652 659.079 492.228 658.649 492.99C658.22 493.752 658.088 494.647 658.28 495.5L714.163 481.133L716.072 480.528L782.318 462.787L789.723 433.488L799.279 399.082C799.471 398.633 799.537 398.14 799.47 397.656C799.403 397.172 799.206 396.716 798.899 396.336C798.592 395.956 798.188 395.667 797.729 395.499C797.27 395.332 796.775 395.292 796.295 395.386L730.265 413.516C729.826 413.652 729.431 413.901 729.119 414.239C728.808 414.576 728.591 414.99 728.491 415.438Z" fill="white"/>
<path d="M731.931 417.441L716.636 473.781L776.659 457.304L790.086 401.77L731.931 417.441Z" fill="#FAFAFA"/>
<path d="M796.295 395.386C796.313 395.492 796.313 395.601 796.295 395.708C796.228 395.964 796.161 396.273 796.08 396.662C795.865 397.536 795.57 398.759 795.207 400.305C794.4 403.517 793.258 408.1 791.847 413.745C788.93 425.222 784.885 441.135 780.302 459.105V459.306H780.1L770.491 461.9L718.76 475.703L703.062 479.802L698.788 480.891L697.673 481.146L697.283 481.213C697.399 481.156 697.52 481.111 697.646 481.079L698.748 480.757L702.995 479.547L718.626 475.219L770.302 461.215L779.925 458.634L779.67 458.89C784.334 440.934 788.46 425.034 791.443 413.583C792.935 407.912 794.132 403.356 795.005 400.143C795.422 398.611 795.758 397.455 796 396.528C796.107 396.152 796.188 395.843 796.268 395.601C796.349 395.359 796.295 395.386 796.295 395.386Z" fill="#E0E0E0"/>
<path d="M341.073 654.862C353.161 647.773 357.214 632.226 350.125 620.137C343.035 608.049 327.488 603.996 315.4 611.085C303.311 618.175 299.258 633.722 306.348 645.81C313.437 657.899 328.984 661.952 341.073 654.862Z" fill="white"/>
<g opacity="0.3">
<path d="M319.673 633.838C318.951 634.226 318.13 634.391 317.315 634.313C316.499 634.234 315.725 633.915 315.091 633.396C314.457 632.877 313.991 632.182 313.752 631.398C313.513 630.614 313.513 629.777 313.75 628.992C313.988 628.208 314.453 627.512 315.086 626.992C315.72 626.472 316.493 626.152 317.309 626.072C318.124 625.993 318.945 626.157 319.668 626.544C320.39 626.931 320.981 627.524 321.366 628.247C321.881 629.213 321.991 630.344 321.674 631.392C321.356 632.44 320.637 633.32 319.673 633.838Z" fill="white"/>
</g>
<g opacity="0.3">
<path d="M327.428 622.992C327.008 623.214 326.531 623.307 326.059 623.259C325.586 623.21 325.138 623.023 324.772 622.721C324.405 622.418 324.137 622.014 324 621.559C323.863 621.104 323.863 620.619 324.002 620.164C324.14 619.71 324.41 619.307 324.777 619.005C325.145 618.704 325.593 618.518 326.066 618.471C326.539 618.424 327.015 618.519 327.434 618.742C327.853 618.965 328.197 619.308 328.422 619.726C328.718 620.292 328.78 620.952 328.594 621.563C328.408 622.174 327.989 622.687 327.428 622.992Z" fill="white"/>
</g>
<path d="M311.152 614.229C310.816 614.538 282.041 605.184 280.764 612.24C279.487 619.296 300.763 634.779 324.659 644.872C348.555 654.966 374.709 661.86 376.94 654.939C379.172 648.017 353.595 633.112 353.595 633.112L353.326 636.687C353.326 636.687 369.145 645.504 368.11 651.552C367.076 657.6 347.467 652.479 325.815 642.063C304.163 631.647 286.543 619.807 288.599 615.412C290.656 611.017 308.544 617.011 308.544 617.011L311.152 614.229Z" fill="#E0E0E0"/>
<g opacity="0.3">
<path d="M337.373 612.24C337.252 612.536 335.156 611.716 331.648 611.38C327.128 610.881 322.561 611.714 318.508 613.777C314.456 615.84 311.095 619.043 308.84 622.992C307.052 626.029 306.488 628.207 306.152 628.126C305.816 628.045 306.004 625.747 307.577 622.347C308.51 620.36 309.738 618.525 311.219 616.904C313.036 614.896 315.198 613.229 317.603 611.985C320.024 610.773 322.64 610 325.331 609.7C327.513 609.455 329.72 609.541 331.876 609.955C335.518 610.735 337.467 612.052 337.373 612.24Z" fill="white"/>
</g>
<path d="M300.883 231.713L302.227 237.734C302.479 238.903 302.426 240.116 302.073 241.257C301.72 242.399 301.079 243.431 300.211 244.253L259.784 282.516C258.636 283.598 257.756 284.932 257.215 286.414C256.674 287.895 256.487 289.483 256.668 291.05C256.85 292.616 257.395 294.119 258.26 295.438C259.125 296.756 260.287 297.854 261.652 298.644L287.188 313.428C288.64 314.262 290.267 314.745 291.939 314.84C293.61 314.934 295.281 314.636 296.817 313.97C298.354 313.304 299.713 312.289 300.788 311.005C301.863 309.721 302.622 308.204 303.007 306.574L315.466 252.572C315.745 251.356 316.347 250.237 317.208 249.334C318.069 248.431 319.157 247.776 320.358 247.438L325.506 245.987L300.883 231.713Z" fill="white"/>
<path d="M308.491 274.237C305.63 273.35 303.034 271.766 300.937 269.627C298.935 267.558 297.443 265.044 295.561 262.907C293.68 260.771 291.126 258.875 288.25 258.755L263.023 283.417C262.075 284.342 261.355 285.475 260.917 286.725C260.48 287.975 260.337 289.31 260.501 290.624C260.665 291.939 261.131 293.198 261.862 294.302C262.594 295.407 263.57 296.327 264.716 296.991L287.564 310.297C288.706 310.962 289.986 311.354 291.305 311.444C292.623 311.535 293.944 311.32 295.166 310.817C296.388 310.314 297.477 309.536 298.35 308.544C299.223 307.552 299.855 306.372 300.198 305.096L308.491 274.237Z" fill="#E0E0E0"/>
<g opacity="0.3">
<path d="M269.326 295.862C269.326 295.943 268.681 295.715 267.982 294.868C267.025 293.59 266.519 292.03 266.544 290.433C266.539 289.332 266.73 288.24 267.109 287.207C267.537 286.049 268.12 284.955 268.843 283.955C270.516 281.808 272.34 279.782 274.299 277.893C282.269 269.735 289.003 263.405 289.365 263.754C289.728 264.104 283.546 270.985 275.576 279.143C273.682 280.972 271.887 282.901 270.2 284.922C269.524 285.796 268.955 286.748 268.507 287.758C268.142 288.613 267.915 289.52 267.835 290.446C267.704 291.834 267.964 293.231 268.587 294.478C269.004 295.338 269.42 295.755 269.326 295.862Z" fill="white"/>
</g>
<path d="M305.225 278.041C304.896 278.05 304.567 278.023 304.244 277.96C303.612 277.96 302.711 277.759 301.556 277.53C300.238 277.252 298.964 276.8 297.765 276.186C297.058 275.814 296.396 275.363 295.79 274.842C295.157 274.292 294.577 273.685 294.056 273.028C293.008 271.684 292.188 270.205 291.368 268.996C290.629 267.921 289.722 266.972 288.68 266.187C287.971 265.661 287.161 265.286 286.301 265.085C285.696 264.95 285.347 264.95 285.347 264.91C285.347 264.87 285.428 264.91 285.602 264.91C285.844 264.895 286.086 264.895 286.328 264.91C287.227 265.075 288.08 265.433 288.828 265.958C289.928 266.73 290.887 267.684 291.664 268.781C292.564 269.977 293.397 271.469 294.432 272.813C294.924 273.477 295.482 274.09 296.099 274.641C296.675 275.163 297.311 275.614 297.994 275.985C299.162 276.581 300.399 277.032 301.676 277.329C302.779 277.584 303.679 277.745 304.297 277.866C304.61 277.906 304.919 277.964 305.225 278.041Z" fill="#FAFAFA"/>
<path d="M353.918 225.034C353.32 222.364 351.855 219.968 349.751 218.22C346.383 214.863 342.051 212.64 337.36 211.862C334.866 211.518 332.328 211.686 329.902 212.356C327.475 213.027 325.211 214.185 323.248 215.76C321.354 217.27 319.802 219.166 318.694 221.32C317.587 223.475 316.949 225.84 316.823 228.259C316.366 231.431 319.673 234.106 322.858 234.267C326.043 234.428 329.054 232.923 331.916 231.485C334.779 230.047 337.938 228.716 341.083 229.308C344.228 229.899 347.265 232.453 350.37 231.525C352.963 230.813 354.334 227.708 353.918 225.034Z" fill="white"/>
<path d="M375.005 219.792C374.817 217.306 372.895 213.368 368.285 213.946C366.404 213.946 364.374 216.271 363.89 218.099C363.672 219.019 363.712 219.981 364.006 220.88C364.3 221.779 364.837 222.579 365.557 223.192C366.298 223.797 367.168 224.225 368.1 224.441C369.032 224.658 370.001 224.658 370.933 224.442C373.124 223.972 375.18 222.036 375.005 219.792Z" fill="white"/>
<path d="M200.178 420.693L199.479 422.561C199.265 423.14 199.175 423.757 199.215 424.373C199.254 424.989 199.422 425.589 199.707 426.136L237.729 498.914C238.005 499.443 238.386 499.912 238.848 500.29C239.31 500.669 239.844 500.951 240.417 501.118L242.567 501.696C243.052 501.832 243.557 501.882 244.059 501.844L288.411 498.349C289.47 498.263 290.462 497.797 291.203 497.036C291.944 496.275 292.385 495.271 292.443 494.21C292.485 493.407 292.308 492.609 291.932 491.898L251.612 416.715C251.208 415.964 250.594 415.346 249.844 414.938C249.095 414.53 248.243 414.349 247.392 414.417L204.008 417.844C203.163 417.899 202.352 418.198 201.672 418.703C200.993 419.209 200.474 419.9 200.178 420.693Z" fill="#E0E0E0"/>
<path d="M202.96 419.658L243.307 495.083L289.016 491.482L248.978 416.043L202.96 419.658Z" fill="#FAFAFA"/>
<path d="M247.957 476.886C249.182 476.387 250.527 476.26 251.823 476.522C253.12 476.784 254.31 477.422 255.245 478.358C256.181 479.293 256.819 480.484 257.08 481.78C257.342 483.077 257.215 484.422 256.715 485.647C256.216 486.871 255.366 487.921 254.272 488.665C253.179 489.409 251.89 489.814 250.567 489.828C249.244 489.843 247.947 489.467 246.837 488.747C245.727 488.028 244.854 486.997 244.328 485.783C243.972 484.962 243.783 484.078 243.773 483.183C243.764 482.288 243.933 481.4 244.271 480.571C244.609 479.742 245.109 478.989 245.742 478.356C246.375 477.724 247.128 477.224 247.957 476.886Z" fill="#E0E0E0"/>
<path d="M250.685 479.95L250.51 481.173C250.497 481.246 250.509 481.321 250.546 481.385C250.583 481.449 250.642 481.498 250.712 481.523L250.94 481.617C250.94 481.617 251.357 481.738 251.223 482.114C251.088 482.49 250.443 484.063 250.443 484.063C250.443 484.063 250.268 484.52 249.932 484.359L249.596 484.224C249.537 484.204 249.474 484.202 249.414 484.219C249.354 484.236 249.3 484.27 249.26 484.318L248.414 485.38C248.369 485.435 248.345 485.504 248.345 485.575C248.345 485.646 248.369 485.715 248.414 485.77L248.736 486.065C248.789 486.129 248.859 486.176 248.938 486.2C249.148 486.262 249.372 486.262 249.583 486.2C250.17 485.858 250.681 485.401 251.085 484.856C251.49 484.311 251.779 483.689 251.935 483.028C252.661 480.918 251.935 480.125 251.814 479.923C251.665 479.765 251.465 479.665 251.25 479.641H251.048C251.004 479.637 250.959 479.642 250.917 479.656C250.875 479.67 250.836 479.691 250.802 479.72C250.769 479.749 250.741 479.784 250.721 479.823C250.701 479.863 250.689 479.906 250.685 479.95Z" fill="white"/>
<path d="M265.698 485.514C264.7 484.645 263.982 483.5 263.632 482.224C263.283 480.947 263.318 479.596 263.733 478.34C264.148 477.083 264.925 475.977 265.967 475.161C267.008 474.344 268.267 473.853 269.587 473.749C270.906 473.646 272.226 473.934 273.382 474.577C274.539 475.221 275.479 476.192 276.086 477.368C276.692 478.544 276.938 479.873 276.793 481.188C276.647 482.504 276.116 483.747 275.267 484.762C274.693 485.447 273.989 486.011 273.194 486.421C272.4 486.831 271.531 487.078 270.64 487.148C269.749 487.218 268.853 487.11 268.004 486.829C267.156 486.549 266.371 486.102 265.698 485.514Z" fill="#E0E0E0"/>
<path d="M267.176 481.711L268.359 481.321C268.43 481.3 268.491 481.255 268.533 481.193C268.574 481.132 268.593 481.059 268.587 480.985V480.743C268.575 480.691 268.574 480.637 268.583 480.584C268.592 480.532 268.612 480.481 268.641 480.436C268.669 480.391 268.707 480.353 268.751 480.322C268.795 480.292 268.844 480.27 268.896 480.259C269.179 480.259 270.993 480.098 270.993 480.098C270.993 480.098 271.477 480.098 271.49 480.434V480.783C271.495 480.845 271.52 480.904 271.561 480.95C271.603 480.996 271.658 481.027 271.719 481.039L273.063 481.334C273.132 481.348 273.204 481.337 273.266 481.303C273.327 481.268 273.374 481.213 273.399 481.146L273.533 480.73C273.553 480.65 273.553 480.567 273.533 480.488C273.491 480.276 273.399 480.078 273.264 479.91C272.698 479.531 272.06 479.272 271.389 479.15C270.719 479.027 270.031 479.044 269.367 479.197C267.163 479.48 266.679 480.461 266.679 480.689C266.612 480.895 266.612 481.116 266.679 481.321L266.8 481.536C266.834 481.603 266.889 481.657 266.958 481.688C267.026 481.72 267.103 481.728 267.176 481.711Z" fill="white"/>
<path d="M246.183 447.829C247.89 446.632 248.4 444.227 247.231 441.646C245.712 438.273 241.855 435.907 238.71 436.351C235.565 436.794 234.208 439.912 235.74 443.272C236.334 444.547 237.206 445.672 238.292 446.565C239.378 447.459 240.651 448.097 242.016 448.433C233.804 451.121 238.616 460.529 238.616 460.529L261.115 458.769C261.115 458.769 255.524 447.855 246.183 447.829Z" fill="white"/>
<path d="M272.727 466.443C272.727 466.806 264.663 467.72 254.65 468.513C244.637 469.306 236.492 469.655 236.466 469.306C236.439 468.956 244.53 467.962 254.542 467.236C264.555 466.51 272.7 466.093 272.727 466.443Z" fill="white"/>
<path d="M283.465 724.303L284.93 726.749C286.572 729.522 288.981 731.762 291.865 733.2L294.432 734.463L291.986 735.888C289.234 737.536 287.017 739.944 285.602 742.823L284.325 745.377L282.86 742.931C281.205 740.185 278.799 737.97 275.925 736.547L273.358 735.283L275.818 733.805C278.56 732.15 280.774 729.75 282.202 726.883L283.465 724.303Z" fill="white"/>
<path d="M757.534 243.46L758.999 245.906C760.655 248.652 763.061 250.867 765.934 252.29L768.488 253.553L766.042 255.018C763.296 256.674 761.081 259.08 759.658 261.953L758.395 264.52L756.93 262.074C755.282 259.322 752.873 257.105 749.995 255.69L747.427 254.427L749.874 252.948C752.626 251.3 754.843 248.892 756.258 246.013L757.534 243.46Z" fill="white"/>
<path d="M774.375 281.428L775.651 283.551C777.089 285.937 779.178 287.863 781.673 289.102L783.904 290.204L781.78 291.548C779.39 292.987 777.464 295.081 776.229 297.583L775.127 299.8L773.864 297.61C772.425 295.22 770.331 293.293 767.829 292.059L765.598 291.024L767.722 289.68C770.108 288.243 772.034 286.154 773.273 283.659L774.375 281.428Z" fill="white"/>
<path d="M255.08 696.657L256.115 698.39C257.285 700.334 258.987 701.901 261.02 702.906L262.835 703.807L261.101 704.842C259.158 706.012 257.591 707.714 256.585 709.747L255.685 711.562L254.65 709.828C253.465 707.882 251.749 706.315 249.704 705.312L247.89 704.411L249.623 703.377C251.566 702.207 253.134 700.504 254.139 698.471L255.08 696.657Z" fill="white"/>
<path d="M699.662 715.634L700.71 717.368C701.872 719.317 703.577 720.886 705.616 721.884L707.417 722.784L705.683 723.832C703.744 725.001 702.177 726.698 701.167 728.724L700.28 730.539L699.232 728.805C698.062 726.862 696.359 725.295 694.326 724.289L692.512 723.402L694.245 722.354C696.195 721.192 697.764 719.487 698.761 717.448L699.662 715.634Z" fill="white"/>
<path d="M242.084 220.101L243.118 221.835C244.288 223.778 245.991 225.345 248.024 226.351L249.838 227.251L248.105 228.286C246.156 229.467 244.588 231.184 243.589 233.232L242.688 235.046L241.64 233.232C240.466 231.292 238.765 229.725 236.734 228.716L234.92 227.856L236.654 226.808C238.594 225.634 240.16 223.933 241.17 221.902L242.084 220.101Z" fill="white"/>
<path d="M758.69 536.465L759.739 538.199C760.905 540.145 762.608 541.713 764.644 542.715L766.459 543.615L764.725 544.65C762.778 545.816 761.21 547.52 760.209 549.556L759.308 551.37L758.26 549.637C757.091 547.697 755.394 546.131 753.368 545.121L751.554 544.234L753.287 543.185C755.228 542.012 756.794 540.31 757.803 538.28L758.69 536.465Z" fill="white"/>
<path d="M237.608 344.999L238.656 346.719C239.819 348.669 241.523 350.238 243.562 351.235L245.363 352.136L243.643 353.184C241.693 354.346 240.124 356.051 239.127 358.09L238.226 359.891L237.218 358.224C236.048 356.281 234.346 354.714 232.313 353.708L230.512 352.821L232.232 351.773C234.182 350.607 235.755 348.904 236.761 346.867L237.608 344.999Z" fill="white"/>
<path d="M776.391 784.272C776.391 784.46 657.124 784.622 510.05 784.622C362.976 784.622 243.683 784.42 243.683 784.272C243.683 784.124 362.909 783.923 510.05 783.923C657.191 783.923 776.391 784.03 776.391 784.272Z" fill="#313131"/>
<path d="M308.544 367.081L309.512 368.694C310.596 370.5 312.178 371.956 314.068 372.887L315.762 373.72L314.149 374.702C312.339 375.786 310.879 377.367 309.942 379.258L309.109 380.938L308.141 379.338C307.052 377.527 305.466 376.067 303.572 375.132L301.892 374.298L303.504 373.331C305.311 372.241 306.767 370.655 307.698 368.761L308.544 367.081Z" fill="#3ABFF8"/>
<path d="M657.406 544.072L658.374 545.685C659.462 547.492 661.042 548.952 662.93 549.892L664.624 550.725L663.011 551.693C661.2 552.782 659.74 554.368 658.804 556.262L657.971 557.942L657.003 556.33C655.911 554.526 654.332 553.068 652.447 552.123L650.754 551.29L652.366 550.322C654.176 549.238 655.636 547.656 656.573 545.766L657.406 544.072Z" fill="#3ABFF8"/>
<path d="M467.916 211.728L468.884 213.341C469.968 215.151 471.549 216.611 473.44 217.548L475.133 218.381L473.52 219.349C471.725 220.414 470.266 221.966 469.314 223.824L468.48 225.517L467.513 223.905C466.424 222.094 464.838 220.634 462.943 219.698L461.263 218.865L462.876 217.897C464.679 216.809 466.134 215.228 467.069 213.341L467.916 211.728Z" fill="#3ABFF8"/>
<path d="M694.756 363.6L695.724 365.213C696.813 367.024 698.399 368.484 700.293 369.42L701.973 370.253L700.361 371.221C698.557 372.309 697.102 373.889 696.167 375.777L695.334 377.47L694.366 375.857C693.277 374.047 691.691 372.586 689.797 371.651L688.117 370.817L689.716 369.85C691.523 368.762 692.983 367.181 693.923 365.294L694.756 363.6Z" fill="#3ABFF8"/>
<path d="M345.289 429.187L345.988 430.357C346.784 431.675 347.94 432.739 349.321 433.421L350.558 434.026L349.375 434.738C348.056 435.534 346.993 436.69 346.311 438.071L345.706 439.294L344.994 438.125C344.198 436.806 343.041 435.743 341.66 435.061L340.437 434.456L341.607 433.743C342.929 432.952 343.993 431.794 344.671 430.41L345.289 429.187Z" fill="#3ABFF8"/>
<path d="M377.384 579.796L378.096 580.979C378.892 582.286 380.044 583.339 381.416 584.016L382.652 584.621L381.47 585.333C380.151 586.129 379.088 587.285 378.405 588.666L377.801 589.889L377.088 588.72C376.296 587.403 375.145 586.34 373.769 585.656L372.532 585.038L373.715 584.339C375.034 583.543 376.097 582.386 376.779 581.006L377.384 579.796Z" fill="#3ABFF8"/>
<path d="M684.219 317.904L684.918 319.073C685.71 320.396 686.867 321.46 688.251 322.138L689.488 322.756L688.305 323.455C686.986 324.25 685.923 325.407 685.241 326.788L684.636 328.024L683.924 326.842C683.128 325.523 681.971 324.46 680.59 323.777L679.367 323.173L680.537 322.46C681.859 321.669 682.923 320.511 683.601 319.127L684.219 317.904Z" fill="#3ABFF8"/>
<path d="M282.363 397.415L283.062 398.584C283.856 399.908 285.013 400.976 286.395 401.662L287.632 402.267L286.449 402.966C285.136 403.768 284.074 404.923 283.385 406.299L282.78 407.535L282.068 406.353C281.272 405.034 280.115 403.97 278.734 403.288L277.511 402.684L278.681 401.971C280.003 401.18 281.067 400.022 281.745 398.638L282.363 397.415Z" fill="#3ABFF8"/>
<path d="M718.196 325.188L718.599 325.86C719.055 326.613 719.717 327.219 720.507 327.608L721.22 327.957L720.548 328.36C719.778 328.808 719.157 329.472 718.76 330.269L718.411 330.981L718.007 330.309C717.555 329.55 716.892 328.938 716.099 328.548L715.4 328.199L716.072 327.796C716.825 327.34 717.431 326.677 717.819 325.887L718.196 325.188Z" fill="#3ABFF8"/>
<path d="M693.076 518.671L693.479 519.356C693.936 520.109 694.598 520.715 695.388 521.103L696.087 521.453L695.415 521.856C694.658 522.312 694.047 522.974 693.654 523.765L693.305 524.477L692.901 523.791C692.445 523.039 691.783 522.432 690.993 522.044L690.294 521.695L690.966 521.292C691.723 520.836 692.334 520.174 692.727 519.383L693.076 518.671Z" fill="#3ABFF8"/>
<path d="M519.27 196.581L519.673 197.253C520.13 198.006 520.792 198.612 521.582 199L522.294 199.35L521.622 199.766C520.858 200.211 520.241 200.87 519.848 201.661L519.499 202.374L519.095 201.702C518.633 200.941 517.961 200.33 517.16 199.941L516.488 199.632L517.173 199.229C517.926 198.773 518.532 198.11 518.921 197.32L519.27 196.581Z" fill="#3ABFF8"/>
<path d="M442.299 230.894L442.702 231.566C443.151 232.318 443.803 232.929 444.584 233.326L445.283 233.676L444.611 234.079C443.858 234.535 443.252 235.197 442.864 235.987L442.514 236.686L442.098 236.014C441.647 235.258 440.99 234.647 440.203 234.254L439.49 233.904L440.162 233.501C440.912 233.045 441.514 232.382 441.896 231.592L442.299 230.894Z" fill="#3ABFF8"/>
<path d="M386.039 597.456L386.443 598.128C386.898 598.885 387.56 599.496 388.351 599.889L389.05 600.238L388.378 600.641C387.625 601.098 387.019 601.76 386.631 602.55L386.281 603.249L385.878 602.577C385.419 601.823 384.758 601.213 383.97 600.816L383.257 600.467L383.929 600.063C384.689 599.611 385.301 598.948 385.69 598.155L386.039 597.456Z" fill="#3ABFF8"/>
<path d="M583.796 696.683L417.14 696.294C410.231 696.294 404.64 691.415 404.654 685.434C404.654 679.467 410.285 674.682 417.193 674.682L583.849 675.072C590.757 675.072 596.335 679.937 596.322 685.918C596.308 691.858 590.704 696.697 583.796 696.683Z" fill="#676767"/>
<path d="M583.796 670.395L417.14 670.018C410.231 670.018 404.64 665.14 404.654 659.159C404.654 653.178 410.285 648.407 417.193 648.407L583.849 648.783C590.757 648.783 596.335 653.662 596.322 659.643C596.308 665.583 590.704 670.408 583.796 670.395Z" fill="#676767"/>
<path d="M577.102 700.608L424.532 700.259C421.637 700.457 418.926 701.747 416.946 703.868C414.966 705.988 413.865 708.781 413.865 711.683C413.865 714.584 414.966 717.377 416.946 719.497C418.926 721.618 421.637 722.908 424.532 723.107H441.278L463.4 765.537C464.647 767.908 466.515 769.896 468.804 771.288C471.093 772.68 473.717 773.423 476.397 773.439L530.923 773.56C533.631 773.569 536.289 772.829 538.604 771.423C540.918 770.016 542.8 767.998 544.04 765.59L565.732 723.483H577.116C580.01 723.284 582.721 721.994 584.701 719.874C586.681 717.753 587.783 714.96 587.783 712.059C587.783 709.158 586.681 706.365 584.701 704.244C582.721 702.123 580.01 700.834 577.116 700.635L577.102 700.608Z" fill="#676767"/>
<path d="M629.505 523.092C629.505 523.092 629.088 523.738 628.269 524.934L624.64 530.31L621.992 534.288C621.024 535.753 620.07 537.433 618.968 539.207L615.474 544.986C614.197 547.029 613.095 549.354 611.778 551.706C611.133 552.916 610.434 554.152 609.789 555.416C609.453 556.061 609.117 556.76 608.767 557.351C608.418 557.942 608.135 558.695 607.813 559.38C606.469 562.136 605.125 565.012 603.781 568.036L599.829 577.699C598.58 581.099 597.343 584.674 596.066 588.37C593.478 596.343 591.364 604.461 589.736 612.683C587.899 621.955 586.999 631.388 587.048 640.84V641.069H586.833L408.955 641.163H408.672V640.881C406.804 620.062 401.376 599.719 392.625 580.737C388.043 570.669 382.757 560.937 376.806 551.612C373.796 546.868 370.597 542.204 367.196 537.621C363.796 533.038 360.087 528.67 356.444 524.181L356.001 523.643H356.713L356.458 524.181C339.796 502.757 328.427 477.702 323.275 451.054C322.549 447.64 322.105 444.173 321.568 440.705C321.353 438.958 321.191 437.211 321.003 435.464L320.734 432.776L320.56 430.088C320.466 428.327 320.304 426.566 320.251 424.792C320.197 423.018 320.251 421.244 320.143 419.416C320.036 417.588 320.143 415.868 320.143 414.04C320.143 412.212 320.143 410.465 320.304 408.664C321.118 394.244 323.691 379.977 327.965 366.18C340.373 327.272 366.118 293.992 400.662 272.208C408.891 267.022 417.536 262.527 426.507 258.768C435.317 255.104 444.421 252.195 453.723 250.072C471.751 245.919 490.326 244.671 508.747 246.376C517.608 247.215 526.395 248.711 535.035 250.852C543.429 253.014 551.662 255.762 559.671 259.077C567.401 262.405 574.903 266.24 582.129 270.555C589.073 274.825 595.731 279.543 602.061 284.68C614.024 294.514 624.623 305.9 633.577 318.536C641.852 330.183 648.626 342.826 653.737 356.168C655.081 359.313 656.009 362.538 657.111 365.683C658.213 368.828 658.939 372.027 659.799 375.091C660.511 378.263 661.291 381.368 661.909 384.499C662.178 386.058 662.46 387.59 662.729 389.123C662.997 390.655 663.293 392.173 663.454 393.706C665.112 405.135 665.63 416.701 665 428.233C663.904 446.755 659.82 464.977 652.904 482.195C650.372 488.448 647.492 494.555 644.276 500.486C641.426 505.62 638.819 509.894 636.588 513.174L633.618 517.542L631.333 520.593L629.465 523.092L631.266 520.593L633.524 517.488L636.48 513.093C638.685 509.76 641.265 505.526 644.087 500.392C647.277 494.453 650.135 488.342 652.649 482.087C663.745 454.037 667.326 423.577 663.038 393.719C662.877 392.187 662.581 390.682 662.312 389.149C662.043 387.617 661.761 386.085 661.479 384.539C660.874 381.448 660.135 378.357 659.369 375.131C658.603 371.906 657.648 368.855 656.681 365.723C655.713 362.592 654.638 359.366 653.307 356.235C648.196 342.944 641.422 330.353 633.147 318.764C624.204 306.196 613.628 294.874 601.698 285.097C595.378 279.993 588.738 275.297 581.82 271.039C574.619 266.74 567.138 262.928 559.429 259.628C551.45 256.329 543.249 253.594 534.887 251.443C526.275 249.305 517.515 247.818 508.679 246.995C490.329 245.301 471.826 246.553 453.871 250.704C444.605 252.818 435.536 255.718 426.763 259.373C417.827 263.134 409.218 267.629 401.025 272.813C366.576 294.586 340.935 327.838 328.637 366.691C324.378 380.435 321.815 394.648 321.003 409.014C320.909 410.788 320.896 412.562 320.842 414.39C320.788 416.218 320.694 417.924 320.775 419.699C320.855 421.473 320.842 423.233 320.882 424.994C320.923 426.755 321.084 428.515 321.191 430.262L321.353 432.95L321.621 435.638C321.81 437.372 321.984 439.119 322.199 440.853C322.724 444.307 323.167 447.761 323.879 451.162C329.007 477.704 340.325 502.662 356.915 524.006L357.345 524.557H356.646L356.915 524.006C360.584 528.455 364.361 532.81 367.667 537.446C370.973 542.083 374.279 546.733 377.29 551.491C383.263 560.835 388.558 570.595 393.136 580.696C401.928 599.744 407.383 620.161 409.264 641.055L408.968 640.773L586.846 640.867L586.631 641.096C586.607 631.619 587.535 622.163 589.4 612.872C591.02 604.629 593.12 596.489 595.69 588.491C597.034 584.795 598.23 581.22 599.493 577.82C600.757 574.42 602.181 571.234 603.525 568.143C604.869 565.052 606.308 562.243 607.557 559.501L608.512 557.472L609.547 555.537C610.232 554.273 610.891 553.037 611.549 551.827C612.893 549.448 613.995 547.123 615.272 545.107L618.793 539.341C619.895 537.567 620.863 535.887 621.844 534.436C622.825 532.984 623.739 531.667 624.532 530.498L628.215 525.122L629.559 523.307L629.505 523.092Z" fill="#313131"/>
<path d="M344.765 475.958C344.697 475.841 344.647 475.714 344.617 475.582C344.51 475.286 344.389 474.91 344.228 474.44C343.878 473.391 343.408 471.926 342.803 470.058L341.781 466.886C341.445 465.717 341.15 464.427 340.8 463.056C340.128 460.287 339.228 457.169 338.65 453.648C338.327 451.887 337.991 450.046 337.628 448.124C337.266 446.202 337.104 444.173 336.822 442.076C336.19 437.91 335.989 433.421 335.68 428.636C335.279 418.366 335.728 408.081 337.024 397.885C338.478 387.711 340.766 377.673 343.865 367.874C345.424 363.398 346.821 359.124 348.542 355.267C349.375 353.332 350.087 351.423 350.934 349.663L353.394 344.609C354.885 341.357 356.592 338.588 357.963 336.102C358.676 334.879 359.307 333.709 359.939 332.675L361.767 329.879L364.307 326.035L364.979 325.054C365.14 324.826 365.221 324.718 365.234 324.731C365.248 324.745 365.234 324.852 365.046 325.094L364.428 326.116L361.995 330.027L360.221 332.836C359.603 333.884 358.998 335.067 358.313 336.303C356.969 338.803 355.289 341.572 353.837 344.838L351.418 349.891C350.598 351.652 349.899 353.56 349.079 355.496C347.386 359.339 346.015 363.56 344.483 368.075C341.446 377.847 339.199 387.848 337.763 397.979C336.464 408.134 335.983 418.377 336.325 428.609C336.62 433.313 336.795 437.802 337.4 441.955C337.669 444.038 337.83 446.068 338.166 447.99C338.502 449.912 338.825 451.739 339.147 453.5C339.671 457.035 340.491 460.22 341.177 462.908C341.513 464.252 341.795 465.596 342.104 466.752C342.413 467.908 342.776 468.97 343.058 469.937C343.609 471.819 344.053 473.297 344.402 474.346L344.725 475.501C344.762 475.651 344.775 475.805 344.765 475.958Z" fill="#313131"/>
<path d="M396.106 295.056C393.18 298.036 390.094 300.854 386.859 303.496C383.775 306.32 380.531 308.963 377.142 311.412C380.07 308.43 383.162 305.612 386.402 302.972C389.484 300.152 392.724 297.509 396.106 295.056Z" fill="#313131"/>
<path d="M631.4 495.46C631.4 495.46 631.4 495.352 631.521 495.151L631.924 494.277L633.524 490.971L634.693 488.592C635.109 487.718 635.513 486.737 636.037 485.702C636.924 483.619 638.039 481.294 639.021 478.619L640.633 474.44C641.184 472.988 641.655 471.443 642.192 469.857C643.321 466.698 644.249 463.244 645.284 459.615C647.353 451.714 648.906 443.687 649.934 435.585C650.864 427.466 651.272 419.295 651.157 411.124C651.009 407.361 650.942 403.772 650.592 400.372C650.445 398.705 650.35 397.092 650.162 395.547C649.974 394.001 649.773 392.523 649.598 391.112C649.289 388.276 648.764 385.736 648.402 383.518C648.2 382.403 648.039 381.354 647.851 380.4C647.662 379.446 647.447 378.599 647.273 377.819L646.507 374.218C646.439 373.841 646.372 373.532 646.332 373.277C646.314 373.17 646.314 373.061 646.332 372.954C646.377 373.054 646.413 373.157 646.439 373.263C646.507 373.519 646.587 373.814 646.681 374.191C646.91 375.064 647.205 376.247 647.582 377.752L648.213 380.333C648.429 381.287 648.603 382.322 648.818 383.437C649.221 385.668 649.786 388.209 650.162 391.044L650.781 395.48C650.982 397.039 651.09 398.651 651.251 400.331C651.627 403.665 651.721 407.267 651.883 411.083C652.296 427.51 650.313 443.909 645.996 459.763C644.934 463.392 643.98 466.859 642.824 470.018C642.26 471.604 641.789 473.149 641.211 474.601L639.558 478.767C638.55 481.455 637.408 483.767 636.48 485.837C635.997 486.872 635.58 487.839 635.136 488.713L633.9 491.065L632.18 494.317L631.723 495.151C631.636 495.274 631.526 495.378 631.4 495.46Z" fill="#313131"/>
<path d="M320.089 566.356L320.183 584.997C320.183 584.997 351.095 567.525 342.037 550.792L320.089 566.356Z" fill="#3ABFF8"/>
<path d="M323.1 523.294C323.1 523.294 300.776 515.136 283.895 530.256L301.26 540.054L323.1 523.294Z" fill="#3ABFF8"/>
<path d="M301.26 540.108C301.959 541.021 320.076 566.356 320.076 566.356L367.412 532.756C369.361 531.375 371.003 529.606 372.234 527.559C373.465 525.511 374.259 523.231 374.564 520.862C374.87 518.493 374.681 516.086 374.01 513.794C373.339 511.501 372.199 509.373 370.664 507.542C367.791 504.147 363.721 501.989 359.299 501.516C354.876 501.043 350.441 502.291 346.916 505.002L301.26 540.108Z" fill="white"/>
<path d="M301.26 540.108C301.375 539.989 301.501 539.881 301.636 539.785L302.819 538.831L307.442 535.215L324.592 521.856L336.486 512.636L343.125 507.502L346.606 504.814C347.818 503.886 349.141 503.114 350.544 502.516C351.256 502.204 351.988 501.939 352.735 501.723C353.495 501.523 354.267 501.37 355.047 501.266C356.633 501.037 358.245 501.037 359.831 501.266C363.127 501.71 366.228 503.086 368.769 505.231C370.068 506.327 371.204 507.603 372.142 509.021C373.087 510.466 373.824 512.035 374.333 513.685C375.324 517.097 375.277 520.728 374.199 524.114C373.162 527.349 371.206 530.212 368.567 532.353C365.879 534.369 363.285 536.129 360.705 537.997L345.76 548.561L320.224 566.571L320.009 566.719L319.861 566.517C314.095 558.373 309.418 551.733 306.152 547.164L302.483 541.922L301.542 540.578C301.43 540.435 301.331 540.282 301.246 540.121C301.377 540.27 301.498 540.427 301.609 540.591C301.865 540.914 302.201 541.371 302.631 541.935L306.434 547.137L320.277 566.208H319.928L345.37 548.077C350.141 544.704 355.127 541.156 360.288 537.487C362.855 535.632 365.557 533.831 368.11 531.869C370.631 529.806 372.498 527.056 373.486 523.953C374.52 520.701 374.562 517.216 373.607 513.94C373.124 512.352 372.418 510.841 371.511 509.451C370.183 507.437 368.441 505.729 366.402 504.441C364.363 503.152 362.072 502.313 359.684 501.978C358.159 501.757 356.611 501.757 355.087 501.978C354.335 502.074 353.59 502.217 352.856 502.408C352.136 502.609 351.43 502.86 350.746 503.161C347.964 504.277 345.787 506.333 343.475 508.026L336.862 513.08L324.968 522.111L307.657 535.269L302.913 538.858L301.65 539.785L301.26 540.108Z" fill="#313131"/>
<path d="M323.947 538.656L294.379 559.931C294.379 559.931 295.723 563.17 296.462 562.848C297.201 562.525 319.431 547.392 326.648 542.473C326.925 542.283 327.158 542.035 327.331 541.747C327.504 541.458 327.613 541.136 327.65 540.802C327.687 540.467 327.651 540.129 327.546 539.81C327.44 539.491 327.267 539.198 327.038 538.952C326.65 538.53 326.119 538.267 325.549 538.212C324.978 538.158 324.408 538.316 323.947 538.656Z" fill="#3ABFF8"/>
<path d="M354.63 525.297C354.756 527.25 354.301 529.196 353.321 530.89C352.34 532.584 350.88 533.949 349.124 534.812C347.367 535.676 345.395 535.999 343.455 535.741C341.515 535.483 339.695 534.655 338.226 533.363C336.756 532.07 335.703 530.371 335.2 528.48C334.697 526.588 334.765 524.591 335.398 522.739C336.03 520.887 337.198 519.264 338.753 518.076C340.308 516.887 342.18 516.187 344.133 516.063C346.749 515.898 349.324 516.777 351.292 518.508C353.26 520.239 354.461 522.681 354.63 525.297Z" fill="white"/>
<path d="M354.63 525.297C354.63 525.297 354.536 524.423 354.039 522.958C353.326 520.882 351.94 519.103 350.101 517.905C348.756 517.026 347.213 516.498 345.612 516.369C344.011 516.24 342.403 516.514 340.935 517.165C339.136 517.963 337.625 519.292 336.603 520.974C335.582 522.656 335.1 524.61 335.223 526.573C335.369 528.601 336.145 530.531 337.44 532.097C338.594 533.487 340.118 534.522 341.835 535.083C343.551 535.644 345.392 535.709 347.144 535.269C348.599 534.916 349.949 534.22 351.082 533.24C352.76 531.823 353.911 529.882 354.348 527.729C354.482 526.933 354.577 526.13 354.63 525.324C354.691 525.528 354.718 525.742 354.711 525.955C354.753 526.567 354.717 527.181 354.603 527.783C354.299 529.694 353.444 531.475 352.143 532.907C350.842 534.34 349.151 535.361 347.278 535.847C345.422 536.337 343.465 536.289 341.634 535.708C339.804 535.128 338.177 534.038 336.943 532.568C335.543 530.904 334.71 528.837 334.564 526.668C334.434 524.575 334.951 522.492 336.045 520.703C337.139 518.915 338.757 517.506 340.679 516.668C342.351 515.953 344.183 515.693 345.988 515.916C347.902 516.165 349.703 516.961 351.176 518.207C352.649 519.454 353.732 521.099 354.294 522.945C354.481 523.524 354.594 524.125 354.63 524.732C354.658 524.919 354.658 525.11 354.63 525.297Z" fill="#313131"/>
<path d="M369.629 530.941C385.529 516.077 382.693 498.86 382.693 498.86C361.31 493.242 346.875 505.002 346.875 505.002C361.108 507.005 368.729 515.62 369.629 530.941Z" fill="#3ABFF8"/>
<path d="M420.14 462.027C403.184 452.309 385.434 443.459 366.37 439.244C363.724 438.52 360.968 438.285 358.238 438.55C356.876 438.707 355.571 439.184 354.429 439.942C353.287 440.701 352.341 441.719 351.669 442.913C350.033 446.31 351.669 450.35 353.677 453.499C358.263 460.44 365.13 465.473 372.047 470.059C391.011 482.628 411.365 492.866 431.544 503.08C429.065 488.602 423.909 476.182 420.017 462.027" fill="#3ABFF8"/>
<path d="M550.142 499.386C555.696 518.128 562.364 536.771 573.223 553.008C574.639 555.367 576.48 557.443 578.652 559.132C579.738 559.97 581.01 560.535 582.361 560.776C583.712 561.018 585.102 560.93 586.411 560.52C589.931 559.206 591.617 555.19 592.262 551.496C593.749 543.315 592.262 534.911 590.452 526.83C585.494 504.518 577.809 483.173 570.198 461.754C562.042 473.976 557.109 486.545 550.142 499.386Z" fill="#3ABFF8"/>
<path d="M419.892 461.63C419.892 461.63 421.206 591.409 494.041 593.963C566.876 596.516 569.925 462.572 569.925 461.63C569.925 461.63 561.323 442.294 494.909 443.037C428.495 443.781 419.892 461.63 419.892 461.63Z" fill="#3ABFF8"/>
<path d="M516.626 513.17C516.264 518.124 514.441 522.86 511.388 526.778C508.335 530.697 504.188 533.621 499.472 535.183C494.756 536.744 489.683 536.871 484.895 535.549C480.107 534.227 475.818 531.514 472.572 527.755C469.325 523.995 467.267 519.357 466.656 514.427C466.046 509.497 466.912 504.497 469.144 500.059C471.376 495.621 474.874 491.945 479.195 489.495C483.516 487.046 488.467 485.933 493.421 486.297C500.061 486.785 506.236 489.89 510.587 494.93C514.938 499.969 517.11 506.53 516.626 513.17Z" fill="#2490BE"/>
<path d="M509.833 512.674C509.568 516.283 508.239 519.732 506.014 522.586C503.789 525.439 500.768 527.569 497.332 528.706C493.897 529.842 490.202 529.934 486.714 528.971C483.226 528.007 480.102 526.031 477.738 523.291C475.373 520.552 473.874 517.174 473.429 513.582C472.985 509.991 473.616 506.349 475.241 503.116C476.867 499.883 479.415 497.205 482.563 495.421C485.711 493.636 489.317 492.825 492.926 493.089C497.762 493.451 502.258 495.716 505.427 499.387C508.597 503.058 510.181 507.837 509.833 512.674Z" fill="white"/>
<path d="M501.007 516.021C500.868 515.019 500.81 514.008 500.834 512.996C500.834 511.087 500.834 508.41 500.834 505.113L501.032 505.46L491.537 499.981H492.058L482.563 505.311C482.315 505.757 482.91 504.741 482.861 504.84V507.642C482.861 508.559 482.861 509.501 482.861 510.418C482.861 512.228 482.861 513.988 482.861 515.698L482.613 515.227L491.909 520.905H491.488C494.388 519.343 496.793 518.103 498.479 517.236C499.351 516.739 500.263 516.316 501.206 515.971C500.425 516.562 499.596 517.084 498.727 517.533C497.14 518.5 494.76 520.012 491.785 521.623L491.587 521.747L491.389 521.623L481.968 516.145L481.695 515.996V515.674C481.695 513.963 481.695 512.203 481.695 510.393C481.695 509.476 481.695 508.559 481.695 507.617V504.939C481.695 504.939 482.241 504.022 481.968 504.444L491.513 499.163L491.785 499.014L492.033 499.163L501.33 504.865H501.553V505.088C501.553 508.509 501.355 511.261 501.255 513.145C501.262 514.109 501.179 515.072 501.007 516.021Z" fill="#3ABFF8"/>
<path d="M419.892 461.63C419.892 461.63 428.495 443.806 494.909 443.037C561.323 442.269 569.925 461.63 569.925 461.63C569.925 461.63 502.941 494.676 419.892 461.63Z" fill="#2FA7DB"/>
<path d="M442.725 554C442.674 553.94 442.633 553.873 442.601 553.802L442.278 553.232L441.064 550.951L440.221 549.315L439.279 547.307C438.609 545.869 437.866 544.233 437.122 542.349L435.932 539.448L434.767 536.275C433.899 534.093 433.18 531.689 432.288 529.185C430.726 524.227 429.214 518.55 427.875 512.6C426.536 506.65 425.569 500.948 424.776 495.717C423.983 490.487 423.462 485.801 423.165 481.81C422.966 479.827 422.842 478.042 422.743 476.455C422.644 474.868 422.57 473.505 422.52 472.389V469.91V468.993C422.52 468.993 422.52 468.993 422.52 469.241V469.886C422.52 470.53 422.52 471.373 422.719 472.365C422.917 473.356 422.867 474.844 423.016 476.405C423.165 477.967 423.289 479.777 423.487 481.76C423.859 485.727 424.479 490.412 425.222 495.643C425.966 500.874 427.057 506.526 428.346 512.476C429.635 518.426 431.197 523.979 432.709 529.011C433.552 531.49 434.246 533.969 435.188 536.101L436.329 539.299L437.494 542.2C438.188 544.059 438.932 545.695 439.576 547.158L440.469 549.191L441.287 550.852L442.402 553.157L442.675 553.752L442.725 554Z" fill="white"/>
<path d="M477.828 585.211C477.436 585.198 477.046 585.148 476.663 585.063C475.612 584.896 474.576 584.647 473.564 584.319C472.054 583.867 470.579 583.303 469.151 582.633C467.425 581.789 465.767 580.811 464.193 579.708C462.617 578.589 461.133 577.345 459.756 575.989C458.632 574.873 457.596 573.671 456.657 572.395C456.013 571.555 455.433 570.669 454.922 569.742C454.704 569.415 454.521 569.066 454.376 568.701C454.376 568.701 455.293 570.089 456.855 572.172C457.822 573.394 458.865 574.553 459.979 575.642C461.36 576.962 462.835 578.18 464.392 579.287C465.967 580.38 467.625 581.349 469.35 582.187C470.748 582.873 472.189 583.469 473.663 583.972C476.192 584.815 477.828 585.112 477.828 585.211Z" fill="white"/>
<path d="M493 539.423H492.306C491.86 539.423 491.166 539.423 490.298 539.423C487.842 539.381 485.404 538.989 483.059 538.258C479.55 537.194 476.277 535.469 473.415 533.176C469.848 530.419 467.035 526.806 465.236 522.671C463.438 518.537 462.712 514.015 463.127 509.526C463.291 507.572 463.64 505.638 464.169 503.749C464.656 502.126 465.269 500.542 466.003 499.014C467.081 496.79 468.466 494.729 470.118 492.891C470.556 492.396 471.02 491.925 471.507 491.478C471.854 491.156 472.027 491.007 472.052 491.032C472.077 491.056 471.383 491.726 470.267 493.04C468.686 494.891 467.368 496.952 466.35 499.163C465.632 500.681 465.043 502.256 464.59 503.873C464.089 505.731 463.766 507.632 463.623 509.55C463.226 513.961 463.942 518.401 465.704 522.463C467.467 526.526 470.221 530.081 473.713 532.804C475.218 534.003 476.828 535.065 478.522 535.977C480.019 536.732 481.569 537.378 483.158 537.911C485.481 538.653 487.888 539.094 490.323 539.225C492.033 539.423 493 539.373 493 539.423Z" fill="white"/>
<path d="M552.002 469.563H551.779L551.06 469.836L548.308 470.827C547.118 471.249 545.655 471.744 543.92 472.265C542.185 472.786 540.226 473.43 538.045 473.976L534.599 474.893L530.831 475.761C528.351 476.38 525.426 476.876 522.476 477.446C516.048 478.533 509.57 479.294 503.065 479.727C496.566 480.06 490.054 480.06 483.555 479.727C480.555 479.529 477.704 479.38 475.052 479.083L471.209 478.686L467.664 478.19C465.408 477.917 463.4 477.521 461.615 477.223C459.83 476.926 458.318 476.603 457.078 476.331L454.228 475.686L453.484 475.513H453.236C453.236 475.513 453.236 475.513 453.509 475.513L454.252 475.637L457.128 476.182C458.368 476.43 459.88 476.727 461.665 476.975C463.45 477.223 465.458 477.645 467.714 477.893L471.259 478.339C472.473 478.488 473.738 478.587 475.076 478.711C477.729 478.983 480.58 479.132 483.555 479.306C489.554 479.554 496.148 479.554 503.04 479.157C509.932 478.76 516.477 477.893 522.377 476.926C525.327 476.38 528.128 475.909 530.731 475.29C532.02 474.992 533.21 474.744 534.5 474.447L537.945 473.579C540.152 473.058 542.11 472.439 543.821 471.943C545.531 471.447 547.044 470.976 548.258 470.579L551.035 469.687L551.754 469.464L552.002 469.563Z" fill="white"/>
<path d="M537.297 350.262C522.553 348.506 507.786 347.64 492.996 347.64C478.206 347.64 463.439 348.506 448.695 350.262C443.78 350.832 440.094 355.141 440.094 360.134V405.712C440.094 411.047 444.69 415.174 449.833 414.604L450.401 414.535C478.73 411.115 507.263 411.115 535.523 414.535L536.16 414.604C541.302 415.174 545.898 411.047 545.898 405.712V360.134C545.898 355.141 542.167 350.832 537.297 350.262ZM472.677 385.875C468.331 385.875 464.804 381.589 464.804 376.322C464.804 371.055 468.331 366.746 472.677 366.746C477.023 366.746 480.55 371.033 480.55 376.322C480.55 381.612 477.023 385.875 472.677 385.875ZM513.315 385.875C508.969 385.875 505.442 381.589 505.442 376.322C505.442 371.055 508.969 366.746 513.315 366.746C517.661 366.746 521.188 371.033 521.188 376.322C521.188 381.612 517.661 385.875 513.315 385.875Z" fill="white"/>
<path d="M480.55 376.322C480.55 381.589 477.023 385.875 472.677 385.875C468.331 385.875 464.804 381.589 464.804 376.322C464.804 371.055 468.331 366.746 472.677 366.746C477.023 366.746 480.55 371.033 480.55 376.322Z" fill="white"/>
<path d="M521.188 376.322C521.188 381.589 517.661 385.875 513.315 385.875C508.969 385.875 505.442 381.589 505.442 376.322C505.442 371.055 508.969 366.746 513.315 366.746C517.661 366.746 521.188 371.033 521.188 376.322Z" fill="white"/>
<path d="M521.188 376.322C521.188 381.589 517.661 385.875 513.315 385.875C508.969 385.875 505.442 381.589 505.442 376.322C505.442 371.055 508.969 366.746 513.315 366.746C517.661 366.746 521.188 371.033 521.188 376.322Z" fill="#3ABFF8"/>
<path d="M480.55 376.322C480.55 381.589 477.023 385.875 472.677 385.875C468.331 385.875 464.804 381.589 464.804 376.322C464.804 371.055 468.331 366.746 472.677 366.746C477.023 366.746 480.55 371.033 480.55 376.322Z" fill="#3ABFF8"/>
<path d="M565.33 364.763H559.778V350.421C559.778 349.669 559.71 348.985 559.55 348.278C559.368 347.343 559.05 346.545 558.64 345.725C557.048 342.077 553.771 339.272 549.63 338.816L534.521 337.015C521.779 335.442 508.969 334.644 496.113 334.575V329.924C499.799 328.602 502.393 324.999 502.393 320.758C502.393 315.355 498.138 311 492.882 311C487.626 311 483.371 315.355 483.371 320.758C483.371 325.045 486.079 328.716 489.879 329.992V334.575C477.023 334.644 464.213 335.442 451.471 337.015L436.294 338.816C432.221 339.272 428.945 342.077 427.352 345.725C426.942 346.545 426.601 347.343 426.442 348.278C426.282 348.985 426.214 349.669 426.214 350.421V364.763H420.662C417.272 364.763 414.496 367.567 414.496 371.101V395.429C414.496 398.985 417.272 401.767 420.662 401.767H426.214V416.04C426.214 416.792 426.282 417.499 426.442 418.252C426.601 419.118 426.942 419.939 427.284 420.76C427.352 420.874 427.397 420.988 427.466 421.102C427.579 421.261 427.693 421.444 427.739 421.626C429.445 424.864 432.562 427.258 436.294 427.714L451.471 429.515C479.071 432.821 506.921 432.821 534.521 429.515L549.63 427.714C553.316 427.258 556.319 425.046 558.026 421.9C558.071 421.854 558.14 421.74 558.253 421.626C558.367 421.444 558.481 421.261 558.527 421.102C558.595 420.988 558.64 420.874 558.709 420.76C559.05 419.939 559.368 419.118 559.55 418.252C559.71 417.499 559.778 416.792 559.778 416.04V401.767H565.33C568.72 401.767 571.496 398.985 571.496 395.429V371.101C571.496 367.567 568.72 364.763 565.33 364.763ZM545.898 405.712C545.898 411.047 541.302 415.174 536.16 414.604L535.523 414.535C507.263 411.115 478.73 411.115 450.401 414.535L449.832 414.604C444.69 415.174 440.094 411.047 440.094 405.712V360.134C440.094 355.141 443.78 350.832 448.695 350.262C463.439 348.506 478.161 347.64 492.996 347.64C507.831 347.64 522.553 348.506 537.297 350.262C542.167 350.832 545.898 355.141 545.898 360.134V405.712Z" fill="#3ABFF8"/>
<path d="M429.806 349.13C429.626 349.13 429.476 358.405 429.476 369.838C429.476 381.271 429.476 390.565 429.806 390.565C430.135 390.565 430.105 381.29 430.105 369.838C430.105 358.386 429.956 349.13 429.806 349.13Z" fill="white"/>
<path d="M430.862 423.289C430.495 422.74 430.216 422.137 430.036 421.502C429.517 420.051 429.128 418.556 428.875 417.036C428.64 415.477 428.542 413.901 428.584 412.324C428.572 411.67 428.647 411.016 428.808 410.382C428.964 410.382 428.808 413.374 429.344 417.081C429.88 420.788 430.996 423.244 430.862 423.289Z" fill="white"/>
<defs>
<filter id="filter0_f_92_192" x="0" y="0" width="1043" height="938" filterUnits="userSpaceOnUse" color-interpolation-filters="sRGB">
<feFlood flood-opacity="0" result="BackgroundImageFix"/>
<feBlend mode="normal" in="SourceGraphic" in2="BackgroundImageFix" result="shape"/>
<feGaussianBlur stdDeviation="41" result="effect1_foregroundBlur_92_192"/>
</filter>
</defs>
</svg>
