<svg width="40" height="40" viewBox="0 0 40 40" fill="none" xmlns="http://www.w3.org/2000/svg">
<circle cx="20" cy="20" r="20" fill="#3ABFF8"/>
<path d="M17.886 19.9646C17.886 20.8352 17.287 21.5437 16.5488 21.5437C15.8106 21.5437 15.2116 20.8352 15.2116 19.9646C15.2116 19.094 15.8106 18.3817 16.5488 18.3817C17.287 18.3817 17.886 19.0902 17.886 19.9646Z" fill="white"/>
<path d="M24.7883 19.9646C24.7883 20.8352 24.1893 21.5437 23.4512 21.5437C22.713 21.5437 22.114 20.8352 22.114 19.9646C22.114 19.094 22.713 18.3817 23.4512 18.3817C24.1893 18.3817 24.7883 19.0902 24.7883 19.9646Z" fill="white"/>
<path d="M24.7883 19.9645C24.7883 20.8351 24.1893 21.5436 23.4512 21.5436C22.713 21.5436 22.114 20.8351 22.114 19.9645C22.114 19.0939 22.713 18.3816 23.4512 18.3816C24.1893 18.3816 24.7883 19.0901 24.7883 19.9645Z" fill="white"/>
<path d="M17.886 19.9648C17.886 20.8354 17.287 21.544 16.5488 21.544C15.8106 21.544 15.2116 20.8354 15.2116 19.9648C15.2116 19.0943 15.8106 18.382 16.5488 18.382C17.287 18.382 17.886 19.0905 17.886 19.9648Z" fill="white"/>
<path d="M32.286 18.0534H31.343V15.6829C31.343 15.5585 31.3314 15.4454 31.3044 15.3286C31.2734 15.1741 31.2193 15.0422 31.1498 14.9065C30.8792 14.3035 30.3227 13.8399 29.6193 13.7645L27.0532 13.4668C24.8889 13.2068 22.7131 13.0749 20.5295 13.0635V12.2947C21.1556 12.0761 21.5962 11.4807 21.5962 10.7797C21.5962 9.88646 20.8735 9.16663 19.9807 9.16663C19.0879 9.16663 18.3652 9.88646 18.3652 10.7797C18.3652 11.4882 18.8251 12.095 19.4706 12.306V13.0635C17.287 13.0749 15.1111 13.2068 12.9469 13.4668L10.3691 13.7645C9.67732 13.8399 9.12079 14.3035 8.85026 14.9065C8.7807 15.0422 8.72273 15.1741 8.69567 15.3286C8.66862 15.4454 8.65703 15.5585 8.65703 15.6829V18.0534H7.71403C7.13818 18.0534 6.66669 18.517 6.66669 19.1011V23.1224C6.66669 23.7104 7.13818 24.1702 7.71403 24.1702H8.65703V26.5294C8.65703 26.6538 8.66862 26.7706 8.69567 26.895C8.72273 27.0382 8.7807 27.1739 8.83867 27.3096C8.85026 27.3284 8.85799 27.3472 8.86959 27.3661C8.88891 27.3925 8.90823 27.4226 8.91596 27.4528C9.20582 27.9879 9.73529 28.3837 10.3691 28.459L12.9469 28.7568C17.6348 29.3032 22.3652 29.3032 27.0532 28.7568L29.6193 28.459C30.2454 28.3837 30.7556 28.0181 31.0454 27.498C31.0532 27.4905 31.0648 27.4716 31.0841 27.4528C31.1034 27.4226 31.1227 27.3925 31.1305 27.3661C31.142 27.3472 31.1498 27.3284 31.1614 27.3096C31.2193 27.1739 31.2734 27.0382 31.3044 26.895C31.3314 26.7706 31.343 26.6538 31.343 26.5294V24.1702H32.286C32.8619 24.1702 33.3334 23.7104 33.3334 23.1224V19.1011C33.3334 18.517 32.8619 18.0534 32.286 18.0534ZM28.9855 24.8222C28.9855 25.7041 28.2049 26.3862 27.3314 26.292L27.2232 26.2807C22.4232 25.7154 17.5768 25.7154 12.7652 26.2807L12.6686 26.292C11.7952 26.3862 11.0145 25.7041 11.0145 24.8222V17.2884C11.0145 16.463 11.6406 15.7507 12.4754 15.6565C14.9797 15.3663 17.4802 15.2231 20 15.2231C22.5198 15.2231 25.0203 15.3663 27.5247 15.6565C28.3517 15.7507 28.9855 16.463 28.9855 17.2884V24.8222Z" fill="white"/>
</svg>
