<svg width="156" height="156" viewBox="0 0 156 156" fill="none" xmlns="http://www.w3.org/2000/svg">
<rect width="156" height="156" rx="78" fill="#313131"/>
<path d="M41.9182 58.5091C41.836 58.2294 41.867 57.9606 42.0115 57.7065C45.5252 51.5237 50.5874 46.3463 56.6715 42.6992C62.5837 39.1489 69.4503 37.0447 76.7775 36.8637C77.3479 36.8472 77.7976 36.3865 77.7976 35.8216V32.2458C77.7976 31.8162 78.0408 31.4469 78.4412 31.2823C78.8415 31.1178 79.2748 31.2037 79.5819 31.5108L87.3132 39.2421C87.7227 39.6516 87.7227 40.3153 87.3132 40.7193L79.5819 48.4506C79.2766 48.7559 78.8415 48.8436 78.4412 48.6791C78.0426 48.5127 77.7976 48.1453 77.7976 47.7156V44.169C77.7976 43.8728 77.688 43.6242 77.4814 43.4176C77.2693 43.2147 77.0152 43.1178 76.719 43.127C70.5618 43.3079 64.8104 45.0867 59.8726 48.0502C54.7373 51.1288 50.4612 55.4926 47.4813 60.6901C47.2016 61.1818 46.5855 61.3592 46.0864 61.0941L42.4228 59.1398C42.1723 59.0063 41.995 58.7924 41.9182 58.5091ZM60.4905 108.314C55.293 105.334 50.9292 101.058 47.8506 95.9223C44.8817 90.9845 43.1084 85.2313 42.9219 79.0758C42.9164 78.7797 43.0151 78.5274 43.2181 78.3135C43.4246 78.1069 43.6733 77.9972 43.9694 77.9972H47.5142C47.9438 77.9972 48.3131 77.7541 48.4777 77.3537C48.6422 76.9534 48.5563 76.5201 48.2491 76.213L40.5179 68.4817C40.1084 68.0722 39.4447 68.0722 39.0407 68.4817L31.3058 76.2166C31.006 76.5219 30.9164 76.957 31.0827 77.3574C31.2491 77.7559 31.6166 78.0009 32.0462 78.0009H35.6166C36.187 78.0009 36.6477 78.4561 36.6641 79.021C36.8396 86.3537 38.9493 93.2203 42.4941 99.1326C46.1431 105.211 51.3241 110.273 57.5014 113.787C57.761 113.931 58.0298 113.963 58.3095 113.88C58.5892 113.804 58.8013 113.626 58.942 113.372L60.8963 109.708C61.1596 109.211 60.9786 108.593 60.4905 108.314ZM113.169 96.8565L109.511 94.9077C109.013 94.6389 108.392 94.8199 108.112 95.3062C105.138 100.509 100.862 104.867 95.7264 107.952C90.7831 110.915 85.0353 112.688 78.8744 112.875C78.5838 112.88 78.3296 112.782 78.1176 112.579C77.9055 112.376 77.8013 112.123 77.8013 111.827V108.282C77.8013 107.853 77.5527 107.484 77.1578 107.319C76.7593 107.153 76.3242 107.24 76.017 107.548L68.2857 115.279C67.8762 115.688 67.8762 116.352 68.2857 116.756L76.017 124.493C76.3223 124.798 76.7574 124.882 77.1578 124.716C77.5508 124.555 77.8013 124.187 77.8013 123.752V120.182C77.8013 119.617 78.2529 119.151 78.8178 119.134C86.1505 118.959 93.0171 116.849 98.9293 113.304C105.013 109.655 110.076 104.474 113.589 98.2971C113.734 98.043 113.765 97.7687 113.683 97.489C113.6 97.2093 113.427 96.9954 113.169 96.8565ZM124.516 78.6462C124.35 78.2477 123.982 77.9991 123.553 77.9991H119.977C119.412 77.9991 118.951 77.5475 118.935 76.9826C118.759 69.6499 116.65 62.7833 113.105 56.871C109.452 50.7869 104.275 45.7248 98.092 42.2111C97.8379 42.0703 97.5692 42.0356 97.2895 42.1178C97.0098 42.2001 96.7977 42.3719 96.6569 42.6315L94.7026 46.2897C94.4375 46.7869 94.6149 47.4085 95.1067 47.6882C100.304 50.6626 104.668 54.9387 107.747 60.074C110.71 65.0173 112.489 70.765 112.67 76.9259C112.681 77.2166 112.582 77.4707 112.379 77.6828C112.172 77.8949 111.924 77.9991 111.628 77.9991H108.083C107.653 77.9991 107.284 78.2477 107.119 78.6462C106.953 79.0393 107.041 79.4762 107.348 79.7815L115.079 87.5183C115.489 87.9223 116.152 87.9223 116.556 87.5183L124.288 79.7815C124.595 79.4762 124.683 79.0393 124.516 78.6462ZM83.1121 84.4086C82.3552 83.798 81.3918 83.4287 80.3388 83.4287H75.2602C74.209 83.4287 73.2437 83.7961 72.4869 84.4086C71.922 84.8693 71.4704 85.4598 71.187 86.1344C72.9896 87.6005 75.2912 88.4817 77.7995 88.4817C80.3077 88.4817 82.6039 87.6005 84.4064 86.1344C84.1213 85.4616 83.677 84.8693 83.1121 84.4086ZM68.0316 94.7687C67.6697 94.5567 67.2602 94.5457 66.8909 94.7377L64.0828 96.1673C63.6166 96.4013 63.0718 96.3172 62.7044 95.9443L59.8543 93.0996C59.4813 92.7267 59.3991 92.1819 59.6367 91.7157L61.0664 88.9077C61.2528 88.5402 61.2419 88.1307 61.0298 87.7669C60.1596 86.2751 59.4795 84.6572 59.0298 82.9479C58.9256 82.5439 58.6459 82.2477 58.2528 82.1179L55.2583 81.1435C54.7556 80.9826 54.4338 80.5365 54.4338 80.0137V75.9826C54.4338 75.4598 54.7556 75.0192 55.2583 74.8528L58.2528 73.8784C58.6459 73.7541 58.9274 73.4543 59.0353 73.0539C59.4813 71.3391 60.1596 69.7212 61.0298 68.2294C61.2419 67.8711 61.2528 67.4616 61.0664 67.0886L59.6367 64.2806C59.3991 63.8144 59.4813 63.2696 59.8543 62.9021L62.7044 60.052C63.0718 59.6846 63.6166 59.5968 64.0828 59.8345L66.8909 61.2641C67.2583 61.4506 67.6678 61.4396 68.0316 61.233C69.5234 60.3628 71.1413 59.6828 72.8507 59.233C73.2547 59.1233 73.5508 58.8436 73.6806 58.4506L74.655 55.4561C74.8159 54.9588 75.262 54.6316 75.7848 54.6316H79.8159C80.3388 54.6316 80.7849 54.9588 80.9457 55.4561L81.9202 58.4506C82.0499 58.8436 82.3443 59.1252 82.7501 59.233C84.4595 59.6846 86.0774 60.3628 87.5692 61.233C87.9311 61.4396 88.337 61.4506 88.7099 61.2641L91.518 59.8345C91.9842 59.5968 92.5289 59.6846 92.8964 60.052L95.7465 62.9021C96.1194 63.2696 96.2017 63.8144 95.9641 64.2806L94.5344 67.0886C94.348 67.4616 94.3589 67.8711 94.5655 68.2294C95.4412 69.7212 96.1158 71.3391 96.5655 73.0539C96.6752 73.4524 96.9549 73.7541 97.348 73.8784L100.342 74.8528C100.84 75.0192 101.167 75.4598 101.167 75.9826V80.0137C101.167 80.5365 100.84 80.9826 100.342 81.1435L97.348 82.1179C96.9549 82.2477 96.6734 82.542 96.5655 82.9479C96.114 84.6572 95.4412 86.2751 94.5655 87.7669C94.3589 88.1289 94.348 88.5384 94.5344 88.9077L95.9641 91.7157C96.2017 92.1819 96.1194 92.7267 95.7465 93.0996L92.8964 95.9443C92.5289 96.3172 91.9842 96.3995 91.518 96.1673L88.7099 94.7377C88.337 94.5457 87.933 94.5567 87.5692 94.7687C86.0774 95.639 84.4595 96.319 82.7501 96.7688C82.3461 96.873 82.0499 97.1527 81.9202 97.5512L80.9457 100.546C80.7849 101.043 80.3388 101.365 79.8159 101.365H75.7848C75.262 101.365 74.8159 101.043 74.655 100.546L73.6806 97.5512C73.5508 97.1527 73.2565 96.873 72.8507 96.7688C71.1413 96.3172 69.5234 95.639 68.0316 94.7687ZM68.2547 87.5494C70.6953 89.9899 74.07 91.5037 77.7995 91.5037C81.5253 91.5037 84.9037 89.9899 87.3443 87.5494C89.7904 85.1033 91.2986 81.7303 91.2986 77.9991C91.2986 74.2733 89.7904 70.8948 87.3443 68.4543C84.9037 66.0082 81.5253 64.4999 77.7995 64.4999C74.0682 64.4999 70.6953 66.0082 68.2547 68.4543C65.8086 70.8948 64.2949 74.2733 64.2949 77.9991C64.2949 81.7303 65.8086 85.1033 68.2547 87.5494ZM77.7995 78.8016C78.5362 78.8016 79.2035 78.5018 79.6861 78.0192C80.1688 77.5365 80.4686 76.8693 80.4686 76.1325C80.4686 75.3976 80.1688 74.7285 79.6861 74.2459C79.2035 73.7632 78.5362 73.4634 77.7995 73.4634C77.0646 73.4634 76.3955 73.7632 75.9128 74.2459C75.4302 74.7285 75.1304 75.3958 75.1304 76.1325C75.1304 76.8693 75.4302 77.5365 75.9128 78.0192C76.3955 78.5018 77.0646 78.8016 77.7995 78.8016ZM70.5911 82.0722C71.5965 81.2587 72.8141 80.6938 74.1468 80.4908C74.017 80.3811 73.8982 80.2733 73.7794 80.1545C72.7483 79.1234 72.1103 77.7029 72.1103 76.1325C72.1103 74.5621 72.7483 73.138 73.7794 72.1106C74.805 71.0795 76.2309 70.4415 77.8013 70.4415C79.3717 70.4415 80.7922 71.0795 81.8233 72.1106C82.8543 73.1362 83.4924 74.5621 83.4924 76.1325C83.4924 77.7029 82.8543 79.1234 81.8233 80.1545C81.7044 80.2733 81.5856 80.383 81.4558 80.4908C82.7885 80.6938 84.0061 81.2587 85.0116 82.0722C85.6075 82.5585 86.1304 83.1343 86.5509 83.7779C87.6496 82.1197 88.2876 80.1343 88.2876 77.9991C88.2876 75.1069 87.1121 72.4853 85.2145 70.5877C83.3169 68.6901 80.7008 67.5146 77.8031 67.5146C74.9055 67.5146 72.2894 68.6901 70.3881 70.5877C68.4923 72.4853 67.3205 75.1069 67.3205 77.9991C67.3205 80.1343 67.9585 82.1197 69.0572 83.7779C69.4722 83.1343 69.9951 82.5585 70.5911 82.0722Z" fill="white"/>
</svg>
