<svg width="1440" height="886" viewBox="0 0 1440 886" fill="none" xmlns="http://www.w3.org/2000/svg">
<line y1="28.5" x2="1440" y2="28.5" stroke="#EAECEE"/>
<line y1="128.5" x2="1440" y2="128.5" stroke="#EAECEE"/>
<line y1="228.5" x2="1440" y2="228.5" stroke="#EAECEE"/>
<line y1="328.5" x2="1440" y2="328.5" stroke="#EAECEE"/>
<line y1="428.5" x2="1440" y2="428.5" stroke="#EAECEE"/>
<line y1="528.5" x2="1440" y2="528.5" stroke="#EAECEE"/>
<line y1="628.5" x2="1440" y2="628.5" stroke="#EAECEE"/>
<line y1="728.5" x2="1440" y2="728.5" stroke="#EAECEE"/>
<line y1="828.5" x2="1440" y2="828.5" stroke="#EAECEE"/>
<line x1="69.5" y1="886" x2="69.5" y2="29.0001" stroke="#EAECEE"/>
<line x1="169.5" y1="886" x2="169.5" y2="29.0001" stroke="#EAECEE"/>
<line x1="269.5" y1="886" x2="269.5" y2="29.0001" stroke="#EAECEE"/>
<line x1="369.5" y1="886" x2="369.5" y2="29.0001" stroke="#EAECEE"/>
<line x1="469.5" y1="886" x2="469.5" y2="29.0001" stroke="#EAECEE"/>
<line x1="569.5" y1="886" x2="569.5" y2="29.0001" stroke="#EAECEE"/>
<line x1="669.5" y1="886" x2="669.5" y2="29.0001" stroke="#EAECEE"/>
<line x1="769.5" y1="886" x2="769.5" y2="29" stroke="#EAECEE"/>
<line x1="869.5" y1="886" x2="869.5" y2="29" stroke="#EAECEE"/>
<line x1="969.5" y1="886" x2="969.5" y2="29" stroke="#EAECEE"/>
<line x1="1069.5" y1="886" x2="1069.5" y2="29" stroke="#EAECEE"/>
<line x1="1169.5" y1="886" x2="1169.5" y2="29" stroke="#EAECEE"/>
<line x1="1269.5" y1="886" x2="1269.5" y2="29" stroke="#EAECEE"/>
<line x1="1369.5" y1="886" x2="1369.5" y2="29" stroke="#EAECEE"/>
<rect opacity="0.7" x="270" y="72" width="100" height="57" fill="#E7F7FE"/>
<rect opacity="0.7" x="970" y="72" width="100" height="57" fill="#E7F7FE"/>
<rect opacity="0.7" x="570" y="129" width="100" height="100" fill="#E7F7FE"/>
<rect opacity="0.7" x="770" y="329" width="100" height="100" fill="#E7F7FE"/>
<rect opacity="0.7" x="570" y="529" width="100" height="100" fill="#E7F7FE"/>
<rect opacity="0.7" x="870" y="629" width="100" height="100" fill="#E7F7FE"/>
<rect opacity="0.7" x="970" y="529" width="100" height="100" fill="#E7F7FE"/>
<rect opacity="0.7" x="370" y="729" width="100" height="100" fill="#E7F7FE"/>
<rect opacity="0.7" x="270" y="429" width="100" height="100" fill="#E7F7FE"/>
<rect width="1440" height="886" fill="url(#paint0_radial_99_197)"/>
<rect y="729" width="1440" height="157" fill="url(#paint1_linear_99_197)"/>
<defs>
<radialGradient id="paint0_radial_99_197" cx="0" cy="0" r="1" gradientUnits="userSpaceOnUse" gradientTransform="translate(720 443) rotate(90) scale(443 720)">
<stop offset="0.238125" stop-color="#D3ECFF" stop-opacity="0.1"/>
<stop offset="1" stop-color="#F5FCFF" stop-opacity="0.8"/>
</radialGradient>
<linearGradient id="paint1_linear_99_197" x1="720" y1="729" x2="720" y2="886" gradientUnits="userSpaceOnUse">
<stop stop-color="white" stop-opacity="0"/>
<stop offset="0.918269" stop-color="white"/>
</linearGradient>
</defs>
</svg>
