<svg width="541" height="332" viewBox="0 0 541 332" fill="none" xmlns="http://www.w3.org/2000/svg">
<path d="M309.239 53.0667L355.639 45.9609C359.528 71.4716 341.784 95.6713 316.329 99.5687C290.875 103.467 266.729 85.6825 262.841 60.1718C258.951 34.661 276.696 10.4614 302.15 6.56394C306.203 5.94344 310.319 5.8578 314.394 6.30858L309.239 53.0667Z" fill="#FFDA90"/>
<path d="M324.294 6.45807L318.661 42.5057L353.966 35.8608C353.966 35.8608 348.775 15.6582 324.294 6.45807Z" fill="#FFEAC0"/>
<path d="M57.1035 71.6C56.8797 57.562 68.0411 45.957 81.9835 45.732C95.9258 45.5062 107.452 56.7445 107.676 70.7826C107.9 84.8206 96.7384 96.4257 82.796 96.6507C68.8529 96.8757 57.328 85.6381 57.1035 71.6ZM94.4802 70.9951C94.373 64.2832 88.8622 58.9097 82.1955 59.0179C75.5289 59.1261 70.1921 64.6741 70.2993 71.3867C70.4065 78.0986 75.9173 83.4721 82.584 83.3647C89.2506 83.2557 94.5874 77.707 94.4802 70.9951Z" fill="#FFDA90"/>
<path d="M57.1042 71.6C56.8797 57.5612 68.0411 45.9569 81.9834 45.7319L82.1955 59.0179C75.5288 59.1261 70.1921 64.6748 70.2993 71.3867C70.4065 78.0986 75.9173 83.4714 82.5839 83.3639L82.796 96.6499C68.8529 96.8756 57.3279 85.6381 57.1042 71.6Z" fill="#FFEAC0"/>
<path d="M79.7136 43.6882C96.0253 43.4243 109.038 56.1123 109.3 72.5359L93.8626 72.785C93.7376 64.9325 87.7755 59.988 79.9762 60.1141L79.7136 43.6882Z" fill="#FFCA60"/>
<path d="M428.261 285.846C428.038 271.808 439.199 260.203 453.142 259.978C467.084 259.752 478.61 270.991 478.834 285.029C479.058 299.067 467.896 310.672 453.954 310.897C440.011 311.122 428.485 299.885 428.261 285.846ZM465.637 285.242C465.53 278.53 460.019 273.156 453.353 273.265C446.686 273.372 441.349 278.921 441.457 285.634C441.564 292.345 447.075 297.719 453.741 297.611C460.408 297.502 465.745 291.954 465.637 285.242Z" fill="#FFDA90"/>
<path d="M428.261 285.847C428.038 271.809 439.198 260.204 453.142 259.979L453.354 273.265C446.687 273.373 441.35 278.922 441.457 285.634C441.565 292.345 447.075 297.719 453.742 297.611L453.954 310.897C440.011 311.122 428.486 299.885 428.261 285.847Z" fill="#FFEAC0"/>
<path d="M450.871 257.935C467.183 257.671 480.195 270.359 480.458 286.783L465.02 287.032C464.895 279.179 458.933 274.235 451.133 274.361L450.871 257.935Z" fill="#FFCA60"/>
<path d="M511.937 35.519H406.711V155.877H511.937V35.519Z" fill="white"/>
<path d="M511.937 155.877C511.937 155.877 511.931 155.681 511.927 155.305C511.924 154.924 511.921 154.366 511.917 153.633C511.912 152.156 511.905 149.976 511.896 147.137C511.885 141.454 511.871 133.139 511.851 122.58C511.83 101.477 511.799 71.4093 511.764 35.5198L511.937 35.6934C480.95 35.7004 444.947 35.7082 406.722 35.7159H406.711L406.907 35.5198C406.896 79.894 406.885 121.273 406.876 155.877L406.711 155.711C438.367 155.747 464.653 155.776 483.033 155.797C492.23 155.816 499.447 155.831 504.372 155.84C506.832 155.849 508.718 155.855 509.996 155.859C511.27 155.865 511.937 155.877 511.937 155.877C511.937 155.877 511.295 155.89 510.032 155.896C508.761 155.901 506.886 155.907 504.44 155.915C499.523 155.925 492.319 155.939 483.138 155.957C464.733 155.979 438.411 156.007 406.712 156.043H406.546V155.877C406.538 121.272 406.527 79.8924 406.516 35.519V35.3228H406.712H406.723C444.948 35.3313 480.95 35.3391 511.938 35.3454H512.111V35.519C512.075 71.4545 512.045 101.561 512.024 122.691C512.004 133.234 511.989 141.536 511.978 147.209C511.969 150.034 511.962 152.202 511.958 153.671C511.954 154.396 511.95 154.948 511.948 155.325C511.943 155.694 511.937 155.877 511.937 155.877Z" fill="#263238"/>
<path d="M502.891 96.9754C502.856 97.047 501.725 96.3907 499.508 95.6869C497.307 95.0033 493.911 94.3423 489.804 94.9652C487.767 95.2921 485.559 95.9103 483.403 97.0267C481.233 98.1167 479.165 99.7338 477.11 101.563C475.047 103.388 472.999 105.46 470.635 107.375C468.272 109.26 465.561 111.044 462.372 111.858C460.789 112.267 459.131 112.373 457.547 112.149C455.959 111.932 454.46 111.412 453.076 110.766C450.305 109.457 447.934 107.736 445.587 106.302C443.256 104.839 440.913 103.679 438.543 103.138C436.187 102.564 433.9 102.447 431.843 102.623C427.701 102.985 424.568 104.455 422.594 105.641C420.609 106.856 419.673 107.771 419.62 107.707C419.603 107.689 419.835 107.462 420.292 107.044C420.742 106.62 421.46 106.048 422.445 105.402C424.401 104.128 427.562 102.552 431.795 102.115C433.899 101.902 436.249 101.989 438.682 102.556C441.129 103.086 443.576 104.275 445.933 105.735C448.311 107.17 450.682 108.867 453.372 110.124C456.034 111.41 459.167 111.981 462.196 111.159C465.226 110.388 467.871 108.668 470.195 106.824C472.52 104.952 474.578 102.892 476.672 101.064C478.758 99.2308 480.885 97.5935 483.135 96.4927C485.366 95.3669 487.641 94.762 489.731 94.4607C493.946 93.8884 497.391 94.6452 499.595 95.4198C500.708 95.8052 501.536 96.1999 502.08 96.4919C502.624 96.7877 502.902 96.9536 502.891 96.9754Z" fill="#3ABFF8"/>
<path d="M444.62 113.14H435.674V137.388H444.62V113.14Z" fill="#3ABFF8"/>
<path d="M482.58 113.14H473.634V137.388H482.58V113.14Z" fill="#3ABFF8"/>
<path d="M495.234 98.9007H486.288V137.389H495.234V98.9007Z" fill="#3ABFF8"/>
<path d="M433.044 129.755H424.098V137.916H433.044V129.755Z" fill="#3ABFF8"/>
<path d="M457.273 124.09H448.328V137.388H457.273V124.09Z" fill="#3ABFF8"/>
<path d="M469.927 121.037H460.981V137.388H469.927V121.037Z" fill="#3ABFF8"/>
<path d="M444.98 140.246C444.98 140.445 442.816 140.607 440.148 140.607C437.478 140.607 435.314 140.446 435.314 140.246C435.314 140.047 437.478 139.886 440.148 139.886C442.816 139.887 444.98 140.047 444.98 140.246Z" fill="#263238"/>
<path d="M433.848 140.246C433.848 140.445 431.684 140.607 429.015 140.607C426.345 140.607 424.182 140.446 424.182 140.246C424.182 140.047 426.345 139.886 429.015 139.886C431.684 139.887 433.848 140.047 433.848 140.246Z" fill="#263238"/>
<path d="M496.997 140.246C496.997 140.445 494.551 140.607 491.534 140.607C488.516 140.607 486.07 140.446 486.07 140.246C486.07 140.047 488.516 139.886 491.534 139.886C494.55 139.887 496.997 140.047 496.997 140.246Z" fill="#263238"/>
<path d="M483.707 140.246C483.707 140.445 481.261 140.607 478.244 140.607C475.226 140.607 472.78 140.446 472.78 140.246C472.78 140.047 475.226 139.886 478.244 139.886C481.261 139.887 483.707 140.047 483.707 140.246Z" fill="#263238"/>
<path d="M469.927 140.246C469.927 140.446 467.763 140.608 465.094 140.608C462.424 140.608 460.26 140.446 460.26 140.246C460.26 140.048 462.424 139.886 465.094 139.886C467.762 139.886 469.927 140.048 469.927 140.246Z" fill="#263238"/>
<path d="M456.853 140.246C456.853 140.446 454.689 140.608 452.02 140.608C449.351 140.608 447.186 140.446 447.186 140.246C447.186 140.048 449.351 139.886 452.02 139.886C454.689 139.886 456.853 140.048 456.853 140.246Z" fill="#263238"/>
<path d="M496.996 53.0652H423.886V83.4948H496.996V53.0652Z" fill="#E0E0E0"/>
<path d="M439.076 62.6826C439.076 64.569 437.55 66.0989 435.668 66.0989C433.786 66.0989 432.26 64.5698 432.26 62.6826C432.26 60.7962 433.786 59.2671 435.668 59.2671C437.55 59.2671 439.076 60.7962 439.076 62.6826Z" fill="#263238"/>
<path d="M466.232 60.3236H442.484V61.6448H466.232V60.3236Z" fill="#263238"/>
<path d="M488.681 63.3264H442.484V64.6476H488.681V63.3264Z" fill="white"/>
<path d="M439.076 73.1844C439.076 75.0709 437.55 76.5999 435.668 76.5999C433.786 76.5999 432.26 75.0709 432.26 73.1844C432.26 71.298 433.786 69.7689 435.668 69.7689C437.55 69.7689 439.076 71.2972 439.076 73.1844Z" fill="#3ABFF8"/>
<path d="M454.611 70.8246H442.484V72.1458H454.611V70.8246Z" fill="#3ABFF8"/>
<path d="M488.681 73.8275H442.484V75.1487H488.681V73.8275Z" fill="white"/>
<path d="M463.747 186.405L462.986 275.035L526.142 275.58L526.902 186.95L463.747 186.405Z" fill="white"/>
<path d="M462.973 275.051C462.973 275.051 462.967 274.916 462.966 274.641C462.966 274.356 462.966 273.947 462.966 273.412C462.971 272.313 462.977 270.702 462.985 268.609C463.01 264.388 463.046 258.232 463.092 250.443C463.204 234.811 463.362 212.637 463.549 186.421L463.551 186.237L463.735 186.238C482.813 186.397 504.27 186.576 526.881 186.764H526.888L527.09 186.765L527.089 186.968C526.79 220.153 526.514 250.847 526.291 275.594L526.289 275.759L526.125 275.758C506.932 275.557 491.13 275.391 480.115 275.276C474.632 275.21 470.343 275.159 467.415 275.124C465.966 275.104 464.856 275.087 464.097 275.077C463.348 275.065 462.973 275.051 462.973 275.051C462.973 275.051 463.372 275.042 464.131 275.043C464.897 275.045 466.018 275.049 467.48 275.053C470.418 275.069 474.719 275.091 480.218 275.121C491.209 275.195 506.977 275.301 526.128 275.43L525.962 275.593C526.163 250.846 526.414 220.15 526.684 186.966L526.884 187.17H526.877C504.266 186.969 482.809 186.778 463.731 186.608L463.916 186.426C463.654 212.592 463.434 234.724 463.277 250.325C463.19 258.132 463.12 264.302 463.072 268.532C463.044 270.641 463.023 272.264 463.009 273.371C462.999 273.916 462.992 274.331 462.987 274.621C462.982 274.902 462.973 275.051 462.973 275.051Z" fill="#263238"/>
<path d="M471.79 208.016C471.791 207.812 482.25 207.737 495.146 207.848C508.046 207.959 518.499 208.214 518.498 208.418C518.496 208.622 508.04 208.696 495.139 208.586C482.243 208.475 471.788 208.22 471.79 208.016Z" fill="#263238"/>
<path d="M471.736 214.274C471.738 214.07 482.196 213.994 495.092 214.106C507.993 214.217 518.446 214.472 518.444 214.676C518.443 214.88 507.987 214.956 495.086 214.845C482.19 214.733 471.735 214.478 471.736 214.274Z" fill="#263238"/>
<path d="M471.683 220.533C471.684 220.329 482.143 220.253 495.039 220.365C507.939 220.475 518.392 220.73 518.391 220.934C518.389 221.138 507.933 221.214 495.032 221.103C482.136 220.991 471.681 220.736 471.683 220.533Z" fill="#263238"/>
<path d="M471.629 226.791C471.631 226.587 482.089 226.511 494.985 226.623C507.886 226.734 518.338 226.989 518.337 227.192C518.335 227.396 507.879 227.472 494.979 227.361C482.083 227.25 471.627 226.995 471.629 226.791Z" fill="#263238"/>
<path d="M471.575 233.049C471.577 232.845 482.035 232.769 494.931 232.881C507.832 232.992 518.285 233.246 518.283 233.451C518.282 233.655 507.826 233.73 494.925 233.619C482.029 233.508 471.574 233.253 471.575 233.049Z" fill="#263238"/>
<path d="M488.297 240.314H480.782V263.841H488.297V240.314Z" fill="#455A64"/>
<path d="M499.52 245.688H492.004V263.841H499.52V245.688Z" fill="#455A64"/>
<path d="M509.909 253.061H502.394V263.84H509.909V253.061Z" fill="#455A64"/>
<path d="M407.497 171.278C407.497 171.271 407.589 171.264 407.768 171.257C407.976 171.251 408.238 171.245 408.564 171.237C409.302 171.227 410.326 171.215 411.626 171.198C414.324 171.183 418.16 171.161 422.886 171.134C432.427 171.118 445.545 171.098 460.035 171.075C472.689 171.092 484.296 171.108 493.232 171.121H493.429L493.428 171.277C493.392 176.022 493.363 179.898 493.343 182.62C493.32 183.942 493.303 184.984 493.29 185.726C493.278 186.062 493.269 186.329 493.262 186.536C493.253 186.719 493.243 186.812 493.233 186.812C493.223 186.812 493.214 186.719 493.204 186.536C493.197 186.329 493.188 186.061 493.176 185.726C493.164 184.984 493.146 183.943 493.124 182.62C493.103 179.898 493.074 176.022 493.038 171.277L493.233 171.433C484.297 171.446 472.69 171.462 460.036 171.479C445.546 171.456 432.428 171.435 422.887 171.42C418.161 171.393 414.325 171.371 411.627 171.356C410.326 171.339 409.302 171.327 408.565 171.318C408.239 171.309 407.977 171.303 407.769 171.297C407.589 171.292 407.497 171.285 407.497 171.278Z" fill="#263238"/>
<path d="M406.515 55.7831C406.515 55.7955 406.348 55.8088 406.027 55.8204C405.669 55.8298 405.204 55.8407 404.623 55.8555C403.357 55.8703 401.592 55.8905 399.414 55.9162C394.949 55.9333 388.796 55.9567 381.836 55.9839L382.036 55.7815C382.048 57.0973 382.061 58.48 382.073 59.8852C382.139 67.8506 382.15 75.0615 382.111 80.2809C382.088 82.8906 382.054 85.0028 382.004 86.4626C381.978 87.1929 381.949 87.7589 381.918 88.1427C381.878 88.5273 381.849 88.7266 381.836 88.7251C381.836 88.7251 381.865 85.5003 381.825 80.2809C381.784 75.0241 381.73 67.8335 381.669 59.8884C381.658 58.4831 381.647 57.1011 381.636 55.7846L381.634 55.5814L381.836 55.5822C388.797 55.6087 394.95 55.6328 399.414 55.6499C401.593 55.6756 403.357 55.6959 404.624 55.7107C405.205 55.7254 405.67 55.7371 406.028 55.7457C406.348 55.7574 406.515 55.7698 406.515 55.7831Z" fill="#263238"/>
<path d="M408.509 55.7831C408.509 56.8863 407.617 57.7816 406.515 57.7816C405.414 57.7816 404.521 56.8871 404.521 55.7831C404.521 54.6791 405.414 53.7845 406.515 53.7845C407.617 53.7845 408.509 54.6791 408.509 55.7831Z" fill="#263238"/>
<path d="M495.265 186.813C495.265 187.917 494.373 188.812 493.271 188.812C492.17 188.812 491.277 187.917 491.277 186.813C491.277 185.709 492.17 184.814 493.271 184.814C494.373 184.814 495.265 185.71 495.265 186.813Z" fill="#263238"/>
<path d="M404.002 86.8036H134.253C129.602 86.8036 125.833 90.5819 125.833 95.2423V286.196C125.833 290.858 129.602 294.636 134.253 294.636H237.782C237.782 294.636 244.368 315.046 223.952 325.606H320.757C320.757 325.606 297.708 317.686 303.635 294.636H404.003C408.653 294.636 412.423 290.858 412.423 286.197V95.2423C412.423 90.5811 408.653 86.8036 404.002 86.8036Z" fill="#455A64"/>
<path d="M272.73 274.553C276.399 279.809 270.656 285.565 265.41 281.889C265.238 281.767 265.08 281.609 264.96 281.436C261.3 276.18 267.036 270.432 272.278 274.102C272.452 274.222 272.608 274.38 272.73 274.553Z" fill="#263238"/>
<path d="M407.778 259.702H130.477V97.852C130.477 93.6821 133.85 90.3024 138.01 90.3024H400.245C404.406 90.3024 407.778 93.6829 407.778 97.852V259.702Z" fill="white"/>
<path d="M407.778 104.378H130.477V97.4285C130.477 93.4929 133.661 90.3016 137.588 90.3016H401.941C405.165 90.3016 407.779 92.9215 407.779 96.1532L407.778 104.378Z" fill="#EBEBEB"/>
<path d="M141.256 97.6348C141.256 98.7131 140.384 99.5874 139.308 99.5874C138.232 99.5874 137.359 98.7131 137.359 97.6348C137.359 96.5565 138.232 95.6822 139.308 95.6822C140.384 95.6822 141.256 96.5565 141.256 97.6348Z" fill="#E0E0E0"/>
<path d="M147.063 97.6348C147.063 98.7131 146.191 99.5874 145.115 99.5874C144.039 99.5874 143.167 98.7131 143.167 97.6348C143.167 96.5565 144.039 95.6822 145.115 95.6822C146.191 95.6822 147.063 96.5565 147.063 97.6348Z" fill="#E0E0E0"/>
<path d="M152.585 97.6348C152.585 98.7131 151.713 99.5874 150.637 99.5874C149.561 99.5874 148.689 98.7131 148.689 97.6348C148.689 96.5565 149.561 95.6822 150.637 95.6822C151.713 95.683 152.585 96.5565 152.585 97.6348Z" fill="#E0E0E0"/>
<path d="M355.776 294.662C355.776 294.752 317.39 294.824 270.05 294.824C222.693 294.824 184.316 294.752 184.316 294.662C184.316 294.573 222.693 294.5 270.05 294.5C317.39 294.5 355.776 294.573 355.776 294.662Z" fill="#263238"/>
<path d="M219.816 200.333L142.486 200.556L142.639 253.767L206.746 253.583L215.439 253.557L219.969 253.545L219.816 200.333Z" fill="#F5F5F5"/>
<path d="M148.437 248.061C148.344 248.061 148.242 239.034 148.21 227.902C148.178 216.765 148.228 207.74 148.321 207.74C148.414 207.74 148.516 216.764 148.548 227.9C148.58 239.033 148.53 248.061 148.437 248.061Z" fill="#263238"/>
<path d="M215.529 242.314C215.529 242.408 200.448 242.527 181.848 242.581C163.241 242.634 148.163 242.602 148.163 242.508C148.163 242.415 163.241 242.296 181.847 242.242C200.447 242.188 215.528 242.221 215.529 242.314Z" fill="#EBEBEB"/>
<path d="M215.512 236.399C215.512 236.492 200.431 236.611 181.831 236.665C163.224 236.719 148.146 236.686 148.146 236.593C148.146 236.499 163.224 236.38 181.83 236.326C200.429 236.273 215.511 236.305 215.512 236.399Z" fill="#EBEBEB"/>
<path d="M215.495 230.483C215.495 230.576 200.414 230.696 181.814 230.75C163.207 230.803 148.128 230.771 148.128 230.677C148.128 230.584 163.207 230.465 181.813 230.411C200.413 230.357 215.494 230.389 215.495 230.483Z" fill="#EBEBEB"/>
<path d="M215.478 224.567C215.478 224.661 200.397 224.781 181.797 224.833C163.19 224.887 148.111 224.855 148.111 224.761C148.111 224.668 163.189 224.549 181.796 224.495C200.396 224.442 215.478 224.474 215.478 224.567Z" fill="#EBEBEB"/>
<path d="M215.461 218.652C215.461 218.745 200.38 218.864 181.78 218.919C163.173 218.973 148.094 218.94 148.094 218.846C148.094 218.753 163.172 218.634 181.779 218.58C200.379 218.526 215.461 218.558 215.461 218.652Z" fill="#EBEBEB"/>
<path d="M215.444 212.736C215.444 212.83 200.363 212.949 181.762 213.003C163.156 213.056 148.077 213.024 148.077 212.93C148.077 212.837 163.155 212.718 181.762 212.664C200.362 212.611 215.444 212.643 215.444 212.736Z" fill="#EBEBEB"/>
<path d="M215.427 206.821C215.427 206.914 200.346 207.034 181.745 207.087C163.139 207.141 148.06 207.108 148.06 207.015C148.06 206.921 163.138 206.802 181.745 206.749C200.345 206.696 215.427 206.728 215.427 206.821Z" fill="#EBEBEB"/>
<path d="M157.546 238.813L152.716 238.827L152.743 248.045L157.573 248.031L157.546 238.813Z" fill="#3ABFF8"/>
<path d="M192.634 238.707L187.804 238.721L187.831 247.94L192.661 247.926L192.634 238.707Z" fill="#3ABFF8"/>
<path d="M166.997 232.009L162.166 232.023L162.213 248.021L167.043 248.007L166.997 232.009Z" fill="#3ABFF8"/>
<path d="M184.689 227.792L179.859 227.806L179.918 247.967L184.748 247.953L184.689 227.792Z" fill="#3ABFF8"/>
<path d="M175.912 215.572L171.081 215.586L171.176 247.995L176.006 247.981L175.912 215.572Z" fill="#3ABFF8"/>
<path d="M201.941 221.487L197.111 221.501L197.188 247.916L202.018 247.902L201.941 221.487Z" fill="#3ABFF8"/>
<path d="M207.768 247.889C207.768 247.983 194.512 248.097 178.163 248.144C161.808 248.192 148.554 248.153 148.554 248.06C148.554 247.967 161.807 247.852 178.162 247.805C194.511 247.759 207.768 247.796 207.768 247.889Z" fill="#263238"/>
<path d="M141.782 116.991V195.136H266.952H277.932H310.447V116.991H141.782Z" fill="#F5F5F5"/>
<path d="M153.648 170.97V173.437H153.394V171.195H152.813V170.97H153.648Z" fill="#263238"/>
<path d="M154.238 172.204C154.238 171.418 154.65 170.948 155.219 170.948C155.789 170.948 156.204 171.418 156.204 172.204C156.204 172.99 155.789 173.458 155.219 173.458C154.65 173.458 154.238 172.989 154.238 172.204ZM155.943 172.204C155.943 171.544 155.648 171.181 155.218 171.181C154.79 171.181 154.494 171.544 154.494 172.204C154.494 172.862 154.79 173.225 155.218 173.225C155.648 173.225 155.943 172.862 155.943 172.204Z" fill="#263238"/>
<path d="M154.647 157.871V158.097H152.92V157.917L153.943 156.912C154.221 156.637 154.274 156.471 154.274 156.302C154.274 156.017 154.073 155.841 153.697 155.841C153.408 155.841 153.187 155.929 153.026 156.116L152.847 155.961C153.036 155.735 153.342 155.608 153.718 155.608C154.218 155.608 154.535 155.862 154.535 156.274C154.535 156.51 154.461 156.722 154.13 157.046L153.293 157.87L154.647 157.871Z" fill="#263238"/>
<path d="M154.953 156.863C154.953 156.077 155.364 155.608 155.934 155.608C156.503 155.608 156.919 156.077 156.919 156.863C156.919 157.649 156.503 158.117 155.934 158.117C155.364 158.118 154.953 157.649 154.953 156.863ZM156.658 156.863C156.658 156.204 156.363 155.841 155.933 155.841C155.504 155.841 155.208 156.204 155.208 156.863C155.208 157.522 155.504 157.885 155.933 157.885C156.363 157.885 156.658 157.522 156.658 156.863Z" fill="#263238"/>
<path d="M154.594 142.047C154.594 142.46 154.294 142.776 153.701 142.776C153.346 142.776 153.004 142.653 152.813 142.459L152.937 142.258C153.095 142.424 153.38 142.543 153.7 142.543C154.108 142.543 154.333 142.353 154.333 142.046C154.333 141.75 154.125 141.556 153.667 141.556H153.492V141.37L154.174 140.513H152.914V140.287H154.497V140.467L153.8 141.345C154.33 141.373 154.594 141.652 154.594 142.047Z" fill="#263238"/>
<path d="M154.953 141.522C154.953 140.737 155.364 140.267 155.934 140.267C156.503 140.267 156.919 140.737 156.919 141.522C156.919 142.309 156.503 142.777 155.934 142.777C155.364 142.777 154.953 142.308 154.953 141.522ZM156.658 141.522C156.658 140.863 156.363 140.5 155.933 140.5C155.504 140.5 155.208 140.863 155.208 141.522C155.208 142.181 155.504 142.545 155.933 142.545C156.363 142.544 156.658 142.181 156.658 141.522Z" fill="#263238"/>
<path d="M164.515 180.298C164.515 179.513 164.927 179.043 165.497 179.043C166.066 179.043 166.482 179.513 166.482 180.298C166.482 181.084 166.066 181.552 165.497 181.552C164.926 181.552 164.515 181.084 164.515 180.298ZM166.221 180.298C166.221 179.639 165.925 179.276 165.496 179.276C165.067 179.276 164.771 179.639 164.771 180.298C164.771 180.957 165.067 181.32 165.496 181.32C165.925 181.32 166.221 180.957 166.221 180.298Z" fill="#263238"/>
<path d="M182.737 179.064V181.531H182.483V179.29H181.902V179.064H182.737Z" fill="#263238"/>
<path d="M201.943 181.306V181.532H200.216V181.352L201.239 180.347C201.517 180.072 201.57 179.906 201.57 179.738C201.57 179.452 201.369 179.276 200.993 179.276C200.705 179.276 200.483 179.364 200.321 179.551L200.142 179.396C200.331 179.17 200.638 179.043 201.014 179.043C201.513 179.043 201.83 179.297 201.83 179.709C201.83 179.945 201.756 180.157 201.425 180.482L200.589 181.306H201.943Z" fill="#263238"/>
<path d="M220.096 180.823C220.096 181.235 219.797 181.552 219.203 181.552C218.847 181.552 218.506 181.429 218.316 181.235L218.439 181.035C218.597 181.2 218.882 181.32 219.202 181.32C219.61 181.32 219.835 181.13 219.835 180.824C219.835 180.528 219.627 180.334 219.17 180.334H218.995V180.147L219.677 179.291H218.419V179.065H220.001V179.245L219.305 180.122C219.833 180.149 220.096 180.428 220.096 180.823Z" fill="#263238"/>
<path d="M238.767 180.884H238.275V181.532H238.021V180.884H236.632V180.701L237.937 179.065H238.219L236.959 180.659H238.028V180.087H238.274V180.659H238.766L238.767 180.884Z" fill="#263238"/>
<path d="M256.552 180.806C256.552 181.225 256.26 181.553 255.659 181.553C255.304 181.553 254.966 181.43 254.776 181.236L254.899 181.035C255.057 181.201 255.339 181.321 255.655 181.321C256.073 181.321 256.295 181.116 256.295 180.817C256.295 180.501 256.098 180.303 255.472 180.303H254.947L255.075 179.065H256.422V179.291H255.296L255.212 180.077H255.528C256.271 180.076 256.552 180.369 256.552 180.806Z" fill="#263238"/>
<path d="M274.939 180.795C274.939 181.256 274.577 181.552 274.098 181.552C273.444 181.552 273.089 181.098 273.089 180.319C273.089 179.48 273.546 179.043 274.214 179.043C274.436 179.043 274.643 179.082 274.798 179.177L274.696 179.382C274.569 179.297 274.401 179.266 274.218 179.266C273.687 179.266 273.346 179.608 273.346 180.278C273.346 180.334 273.35 180.405 273.357 180.479C273.479 180.207 273.768 180.055 274.108 180.055C274.597 180.054 274.939 180.344 274.939 180.795ZM274.689 180.802C274.689 180.478 274.45 180.269 274.07 180.269C273.694 180.269 273.437 180.502 273.437 180.809C273.437 181.081 273.663 181.337 274.088 181.337C274.443 181.338 274.689 181.13 274.689 180.802Z" fill="#263238"/>
<path d="M293.033 179.064V179.244L292.003 181.532H291.729L292.742 179.291H291.476V179.752H291.226V179.065H293.033V179.064Z" fill="#263238"/>
<path d="M293.165 172.323C293.165 172.455 264.671 172.562 229.53 172.562C194.376 172.562 165.889 172.455 165.889 172.323C165.889 172.19 194.376 172.083 229.53 172.083C264.671 172.083 293.165 172.19 293.165 172.323Z" fill="#263238"/>
<path d="M293.165 156.903C293.165 157.035 264.671 157.142 229.53 157.142C194.376 157.142 165.889 157.035 165.889 156.903C165.889 156.77 194.376 156.663 229.53 156.663C264.671 156.663 293.165 156.77 293.165 156.903Z" fill="#263238"/>
<path d="M293.165 141.483C293.165 141.615 264.671 141.723 229.53 141.723C194.376 141.723 165.889 141.615 165.889 141.483C165.889 141.35 194.376 141.243 229.53 141.243C264.671 141.244 293.165 141.35 293.165 141.483Z" fill="#263238"/>
<path d="M165.889 172.097C165.889 172.549 165.523 172.916 165.072 172.916C164.62 172.916 164.254 172.549 164.254 172.097C164.254 171.645 164.62 171.278 165.072 171.278C165.523 171.278 165.889 171.645 165.889 172.097Z" fill="#3ABFF8"/>
<path d="M184.188 172.097C184.188 172.549 183.822 172.916 183.37 172.916C182.919 172.916 182.553 172.549 182.553 172.097C182.553 171.645 182.919 171.278 183.37 171.278C183.822 171.278 184.188 171.645 184.188 172.097Z" fill="#3ABFF8"/>
<path d="M202.487 172.097C202.487 172.549 202.121 172.916 201.67 172.916C201.219 172.916 200.853 172.549 200.853 172.097C200.853 171.645 201.219 171.278 201.67 171.278C202.121 171.278 202.487 171.645 202.487 172.097Z" fill="#3ABFF8"/>
<path d="M220.786 172.097C220.786 172.549 220.42 172.916 219.969 172.916C219.517 172.916 219.152 172.549 219.152 172.097C219.152 171.645 219.517 171.278 219.969 171.278C220.42 171.278 220.786 171.645 220.786 172.097Z" fill="#3ABFF8"/>
<path d="M239.086 172.097C239.086 172.549 238.72 172.916 238.268 172.916C237.817 172.916 237.451 172.549 237.451 172.097C237.451 171.645 237.817 171.278 238.268 171.278C238.719 171.278 239.086 171.645 239.086 172.097Z" fill="#3ABFF8"/>
<path d="M275.683 172.097C275.683 172.549 275.317 172.916 274.866 172.916C274.415 172.916 274.049 172.549 274.049 172.097C274.049 171.645 274.415 171.278 274.866 171.278C275.317 171.278 275.683 171.645 275.683 172.097Z" fill="#3ABFF8"/>
<path d="M257.384 172.097C257.384 172.549 257.018 172.916 256.567 172.916C256.116 172.916 255.75 172.549 255.75 172.097C255.75 171.645 256.116 171.278 256.567 171.278C257.018 171.278 257.384 171.645 257.384 172.097Z" fill="#3ABFF8"/>
<path d="M293.982 172.097C293.982 172.549 293.616 172.916 293.165 172.916C292.713 172.916 292.348 172.549 292.348 172.097C292.348 171.645 292.713 171.278 293.165 171.278C293.617 171.278 293.982 171.645 293.982 172.097Z" fill="#3ABFF8"/>
<path d="M174.228 172.323C174.228 172.62 173.987 172.861 173.691 172.861C173.395 172.861 173.154 172.62 173.154 172.323C173.154 172.025 173.395 171.785 173.691 171.785C173.987 171.785 174.228 172.025 174.228 172.323Z" fill="#E0E0E0"/>
<path d="M192.596 172.323C192.596 172.62 192.356 172.861 192.059 172.861C191.762 172.861 191.522 172.62 191.522 172.323C191.522 172.025 191.762 171.785 192.059 171.785C192.356 171.785 192.596 172.025 192.596 172.323Z" fill="#E0E0E0"/>
<path d="M210.964 172.323C210.964 172.62 210.724 172.861 210.427 172.861C210.13 172.861 209.89 172.62 209.89 172.323C209.89 172.025 210.13 171.785 210.427 171.785C210.724 171.785 210.964 172.025 210.964 172.323Z" fill="#E0E0E0"/>
<path d="M229.332 172.323C229.332 172.62 229.092 172.861 228.795 172.861C228.498 172.861 228.258 172.62 228.258 172.323C228.258 172.025 228.498 171.785 228.795 171.785C229.092 171.785 229.332 172.025 229.332 172.323Z" fill="#E0E0E0"/>
<path d="M247.7 172.323C247.7 172.62 247.46 172.861 247.163 172.861C246.866 172.861 246.626 172.62 246.626 172.323C246.626 172.025 246.866 171.785 247.163 171.785C247.46 171.785 247.7 172.025 247.7 172.323Z" fill="#E0E0E0"/>
<path d="M266.068 172.323C266.068 172.62 265.828 172.861 265.531 172.861C265.234 172.861 264.994 172.62 264.994 172.323C264.994 172.025 265.234 171.785 265.531 171.785C265.828 171.785 266.068 172.025 266.068 172.323Z" fill="#E0E0E0"/>
<path d="M284.436 172.323C284.436 172.62 284.196 172.861 283.899 172.861C283.602 172.861 283.362 172.62 283.362 172.323C283.362 172.025 283.602 171.785 283.899 171.785C284.196 171.785 284.436 172.025 284.436 172.323Z" fill="#E0E0E0"/>
<path d="M185.375 165.506C185.375 166.616 184.478 167.516 183.37 167.516C182.263 167.516 181.366 166.617 181.366 165.506C181.366 164.396 182.263 163.498 183.37 163.498C184.477 163.497 185.375 164.396 185.375 165.506Z" fill="#3ABFF8"/>
<path d="M201.341 156.064C201.341 157.174 200.443 158.073 199.336 158.073C198.229 158.073 197.331 157.174 197.331 156.064C197.331 154.955 198.229 154.055 199.336 154.055C200.443 154.055 201.341 154.954 201.341 156.064Z" fill="#3ABFF8"/>
<path d="M221.156 156.903C221.156 158.012 220.259 158.912 219.151 158.912C218.044 158.912 217.147 158.013 217.147 156.903C217.147 155.793 218.044 154.894 219.151 154.894C220.259 154.894 221.156 155.793 221.156 156.903Z" fill="#3ABFF8"/>
<path d="M240.502 139.739C240.502 140.848 239.604 141.748 238.497 141.748C237.39 141.748 236.493 140.849 236.493 139.739C236.493 138.629 237.39 137.73 238.497 137.73C239.604 137.729 240.502 138.629 240.502 139.739Z" fill="#3ABFF8"/>
<path d="M258.571 150.655C258.571 151.764 257.674 152.664 256.566 152.664C255.459 152.664 254.562 151.765 254.562 150.655C254.562 149.545 255.459 148.646 256.566 148.646C257.674 148.646 258.571 149.545 258.571 150.655Z" fill="#3ABFF8"/>
<path d="M276.87 153.561C276.87 154.671 275.973 155.57 274.865 155.57C273.757 155.57 272.86 154.671 272.86 153.561C272.86 152.452 273.757 151.552 274.865 151.552C275.973 151.552 276.87 152.452 276.87 153.561Z" fill="#3ABFF8"/>
<path d="M293.983 165.506C293.983 165.506 293.823 165.525 293.513 165.506C293.203 165.485 292.74 165.446 292.145 165.323C290.973 165.081 289.166 164.574 287.386 163.056C286.5 162.306 285.69 161.264 285.048 160.008C284.401 158.774 283.623 157.465 282.598 156.208C281.566 154.989 280.234 153.741 278.462 153.316C277.588 153.104 276.639 153.142 275.726 153.414C274.812 153.699 273.956 154.203 273.186 154.855C271.627 156.161 270.48 158.016 268.966 159.7C268.209 160.536 267.328 161.351 266.218 161.842C265.114 162.321 263.831 162.469 262.605 162.139C261.353 161.803 260.4 160.752 259.856 159.608C259.288 158.454 258.974 157.2 258.67 155.947C258.362 154.697 258.111 153.402 257.579 152.231C257.314 151.653 256.943 151.111 256.409 150.824C255.862 150.526 255.21 150.459 254.559 150.464C253.239 150.533 251.912 150.914 250.536 151.176C249.845 151.299 249.141 151.422 248.414 151.418C247.693 151.42 246.935 151.334 246.256 150.997C245.547 150.712 245.006 150.143 244.542 149.559C244.128 148.944 243.771 148.29 243.494 147.608C242.914 146.25 242.528 144.827 242.002 143.459C241.728 142.784 241.44 142.108 241.034 141.517C240.626 140.932 240.096 140.441 239.446 140.192C239.279 140.144 239.116 140.082 238.946 140.041L238.417 139.992C238.069 139.972 237.746 140.039 237.439 140.193C236.827 140.505 236.362 141.104 235.974 141.726C235.215 143.008 234.713 144.468 234.274 145.942C233.837 147.422 233.47 148.936 233.116 150.463C232.532 152.992 232.009 155.515 231.36 157.983C231.033 159.217 230.681 160.439 230.234 161.628C229.775 162.805 229.253 163.992 228.333 164.937C227.865 165.39 227.225 165.745 226.527 165.74C225.859 165.741 225.223 165.502 224.677 165.178C223.578 164.514 222.768 163.538 222.078 162.542C220.691 160.532 219.801 158.295 218.939 156.155C218.062 154.037 217.072 151.94 215.434 150.504C213.83 149.077 211.524 148.546 209.551 149.065C208.554 149.316 207.614 149.762 206.751 150.3C205.877 150.822 205.07 151.433 204.307 152.071C202.783 153.35 201.421 154.75 200.227 156.184L200.22 156.194L200.217 156.197C198.264 158.152 196.219 159.808 194.172 161.231C192.123 162.645 190.053 163.807 187.982 164.592C185.916 165.359 183.837 165.812 181.922 165.605C180.019 165.418 178.345 164.898 176.874 164.381C173.933 163.311 171.774 162.158 170.318 161.376C169.593 160.978 169.047 160.658 168.683 160.437C168.32 160.215 168.143 160.085 168.143 160.085C168.143 160.085 168.34 160.183 168.712 160.387C169.104 160.598 169.657 160.894 170.371 161.277C171.841 162.026 174.011 163.145 176.945 164.177C178.412 164.677 180.079 165.176 181.943 165.343C183.804 165.532 185.844 165.075 187.874 164.307C189.91 163.52 191.953 162.36 193.976 160.946C195.995 159.53 198.027 157.867 199.943 155.933L199.932 155.946C201.144 154.478 202.507 153.069 204.051 151.762C204.823 151.11 205.643 150.486 206.539 149.946C207.423 149.392 208.394 148.924 209.45 148.655C211.568 148.095 213.996 148.655 215.722 150.171C217.46 151.693 218.468 153.852 219.357 155.981C220.227 158.131 221.107 160.321 222.46 162.277C223.129 163.244 223.917 164.174 224.915 164.773C225.41 165.067 225.965 165.271 226.534 165.269C227.084 165.268 227.59 164.996 228.007 164.597C228.825 163.76 229.35 162.609 229.792 161.46C230.229 160.296 230.577 159.087 230.901 157.863C231.545 155.411 232.066 152.891 232.652 150.357C233.007 148.824 233.375 147.302 233.818 145.807C234.264 144.315 234.769 142.833 235.57 141.478C235.985 140.819 236.48 140.155 237.228 139.768C237.597 139.579 238.037 139.494 238.438 139.518L239.036 139.576C239.231 139.622 239.423 139.692 239.615 139.75C240.375 140.042 240.982 140.615 241.422 141.251C241.863 141.894 242.159 142.597 242.44 143.291C242.974 144.689 243.358 146.11 243.921 147.428C244.476 148.728 245.192 150.046 246.447 150.582C247.672 151.176 249.12 150.966 250.453 150.734C251.806 150.482 253.143 150.095 254.544 150.023C255.243 150.02 255.974 150.09 256.619 150.442C257.276 150.8 257.689 151.435 257.97 152.048C258.532 153.301 258.773 154.602 259.079 155.85C259.378 157.099 259.686 158.33 260.223 159.427C260.744 160.52 261.595 161.452 262.718 161.759C263.827 162.063 265.043 161.934 266.065 161.491C267.1 161.04 267.949 160.268 268.694 159.452C270.187 157.81 271.351 155.942 272.97 154.597C273.769 153.926 274.675 153.398 275.634 153.106C276.597 152.824 277.61 152.79 278.534 153.021C280.409 153.487 281.764 154.791 282.806 156.039C283.838 157.327 284.612 158.655 285.251 159.906C285.874 161.152 286.649 162.169 287.509 162.918C289.236 164.427 291.01 164.961 292.166 165.23C292.754 165.367 293.211 165.422 293.518 165.459C293.823 165.492 293.983 165.496 293.983 165.506Z" fill="#3ABFF8"/>
<path d="M185.568 130.916C185.568 131.049 178.464 131.156 169.703 131.156C160.939 131.156 153.836 131.049 153.836 130.916C153.836 130.784 160.939 130.676 169.703 130.676C178.464 130.676 185.568 130.784 185.568 130.916Z" fill="#263238"/>
<path d="M317.178 117.492V193.898H326.402H339.1H398.298V117.492H317.178Z" fill="#F5F5F5"/>
<path d="M357.377 126.152C343.554 126.152 332.348 137.383 332.348 151.237C332.348 165.091 343.555 176.322 357.377 176.322C371.201 176.322 382.407 165.091 382.407 151.237C382.407 137.383 371.201 126.152 357.377 126.152ZM357.755 166.268C349.264 166.268 342.379 159.369 342.379 150.858C342.379 142.348 349.264 135.448 357.755 135.448C366.246 135.448 373.131 142.347 373.131 150.858C373.131 159.369 366.247 166.268 357.755 166.268Z" fill="#263238"/>
<path d="M357.761 126.162C357.762 128.831 357.76 132.43 357.759 135.449C366.249 135.451 373.131 142.349 373.131 150.859C373.131 152.488 372.877 154.057 372.409 155.531L381.48 157.997C382.08 155.845 382.407 153.58 382.407 151.237C382.407 137.511 371.408 126.368 357.761 126.162Z" fill="#3ABFF8"/>
<path d="M342.38 150.859C342.38 144.584 346.124 139.189 351.495 136.785L347.645 128.12C338.657 131.926 332.349 140.843 332.349 151.237C332.349 151.59 332.362 151.94 332.376 152.29H342.449C342.405 151.818 342.38 151.341 342.38 150.859Z" fill="#455A64"/>
<path d="M357.755 166.268C356.639 166.268 355.551 166.146 354.502 165.919C354.116 168.155 353.385 172.487 352.811 175.898C354.293 176.172 355.818 176.322 357.377 176.322C368.863 176.322 378.535 168.566 381.48 157.997L372.409 155.531C370.434 161.757 364.621 166.268 357.755 166.268Z" fill="#3ABFF8"/>
<g opacity="0.3">
<path d="M357.755 166.268C356.639 166.268 355.551 166.146 354.502 165.919C354.116 168.155 353.385 172.487 352.811 175.898C354.293 176.172 355.818 176.322 357.377 176.322C368.863 176.322 378.535 168.566 381.48 157.997L372.409 155.531C370.434 161.757 364.621 166.268 357.755 166.268Z" fill="black"/>
</g>
<path d="M354.434 152.106H353.507V153.303H352.224V152.106H349.16V151.218L351.842 147.602H353.224L350.737 151.031H352.265V149.964H353.508V151.031H354.435V152.106H354.434Z" fill="#263238"/>
<path d="M354.822 150.452C354.822 148.571 355.863 147.505 357.26 147.505C358.666 147.505 359.698 148.571 359.698 150.452C359.698 152.334 358.666 153.401 357.26 153.401C355.863 153.401 354.822 152.334 354.822 150.452ZM358.373 150.452C358.373 149.158 357.918 148.62 357.26 148.62C356.61 148.62 356.155 149.158 356.155 150.452C356.155 151.747 356.61 152.285 357.26 152.285C357.919 152.285 358.373 151.748 358.373 150.452Z" fill="#263238"/>
<path d="M360.241 149.109C360.241 148.148 360.826 147.537 361.655 147.537C362.484 147.537 363.061 148.139 363.061 149.109C363.061 150.078 362.485 150.681 361.655 150.681C360.826 150.681 360.241 150.07 360.241 149.109ZM362.249 149.109C362.249 148.497 362.013 148.205 361.655 148.205C361.306 148.205 361.063 148.506 361.063 149.109C361.063 149.711 361.306 150.013 361.655 150.013C362.013 150.013 362.249 149.72 362.249 149.109ZM365.044 147.602H366.01L362.126 153.303H361.159L365.044 147.602ZM364.109 151.796C364.109 150.835 364.694 150.224 365.515 150.224C366.344 150.224 366.929 150.835 366.929 151.796C366.929 152.757 366.344 153.368 365.515 153.368C364.694 153.368 364.109 152.758 364.109 151.796ZM366.108 151.796C366.108 151.194 365.873 150.892 365.515 150.892C365.165 150.892 364.921 151.186 364.921 151.796C364.921 152.407 365.165 152.7 365.515 152.7C365.873 152.701 366.108 152.399 366.108 151.796Z" fill="#263238"/>
<path d="M378.089 182.652C378.089 182.783 368.815 182.89 357.379 182.89C345.938 182.89 336.667 182.783 336.667 182.652C336.667 182.52 345.938 182.413 357.379 182.413C368.815 182.413 378.089 182.52 378.089 182.652Z" fill="#263238"/>
<path d="M368.865 186.463C368.865 186.595 363.722 186.702 357.378 186.702C351.033 186.702 345.891 186.595 345.891 186.463C345.891 186.332 351.033 186.225 357.378 186.225C363.722 186.225 368.865 186.332 368.865 186.463Z" fill="#263238"/>
<path d="M388.93 198.98H226.114V252.59H388.93V198.98Z" fill="#FAFAFA"/>
<path d="M375.198 211.661C375.198 211.757 347.528 211.834 313.404 211.834C279.268 211.834 251.604 211.757 251.604 211.661C251.604 211.565 279.267 211.488 313.404 211.488C347.528 211.488 375.198 211.565 375.198 211.661Z" fill="#EBEBEB"/>
<path d="M375.198 218.005C375.198 218.101 347.528 218.178 313.404 218.178C279.268 218.178 251.604 218.101 251.604 218.005C251.604 217.909 279.267 217.832 313.404 217.832C347.528 217.831 375.198 217.909 375.198 218.005Z" fill="#EBEBEB"/>
<path d="M375.198 224.348C375.198 224.443 347.528 224.52 313.404 224.52C279.268 224.52 251.604 224.443 251.604 224.348C251.604 224.253 279.267 224.175 313.404 224.175C347.528 224.175 375.198 224.253 375.198 224.348Z" fill="#EBEBEB"/>
<path d="M375.198 230.691C375.198 230.787 347.528 230.864 313.404 230.864C279.268 230.864 251.604 230.787 251.604 230.691C251.604 230.596 279.267 230.518 313.404 230.518C347.528 230.518 375.198 230.596 375.198 230.691Z" fill="#EBEBEB"/>
<path d="M375.198 237.035C375.198 237.131 347.528 237.208 313.404 237.208C279.268 237.208 251.604 237.131 251.604 237.035C251.604 236.939 279.267 236.862 313.404 236.862C347.528 236.862 375.198 236.939 375.198 237.035Z" fill="#EBEBEB"/>
<path d="M364.435 229.646C364.435 229.646 364.349 229.745 364.166 229.926C363.959 230.083 363.642 230.33 363.127 230.499C362.133 230.839 360.319 230.858 358.616 229.779C357.793 229.223 357.081 228.414 356.493 227.453C355.901 226.491 355.432 225.381 354.876 224.219C354.312 223.07 353.616 221.837 352.457 220.844C351.877 220.356 351.168 219.954 350.358 219.731C349.548 219.519 348.656 219.468 347.774 219.606C345.997 219.865 344.29 220.717 342.842 221.877C341.37 223.032 340.076 224.454 338.492 225.743C336.932 227.029 334.894 228.135 332.522 228.293C331.348 228.357 330.114 228.1 329.105 227.501C328.094 226.901 327.332 226.036 326.725 225.117C325.496 223.274 324.874 221.131 323.277 219.448C322.503 218.618 321.498 217.888 320.284 217.649C319.076 217.393 317.767 217.697 316.77 218.382C315.759 219.059 314.995 220.017 314.46 221.054C313.924 222.093 313.653 223.244 313.366 224.394C313.083 225.546 312.807 226.728 312.282 227.86C312.027 228.429 311.683 228.968 311.284 229.481C310.853 229.971 310.386 230.447 309.824 230.831C308.731 231.634 307.42 232.178 306.054 232.467C304.69 232.768 303.253 232.785 301.895 232.52C300.52 232.278 299.298 231.643 298.223 230.945C297.137 230.243 296.154 229.464 295.125 228.765C294.094 228.082 293.007 227.436 291.786 227.186C290.576 226.901 289.281 227.073 288.21 227.589C287.133 228.107 286.256 228.891 285.543 229.745C284.829 230.603 284.288 231.558 283.74 232.493C283.193 233.429 282.646 234.365 281.954 235.215C281.272 236.069 280.401 236.807 279.39 237.328C278.387 237.849 277.2 238.148 276.044 238.009C274.885 237.879 273.869 237.31 273.138 236.6C272.398 235.886 271.884 235.043 271.535 234.179C271.189 233.313 270.99 232.437 270.804 231.584C270.447 229.882 270.098 228.226 269.085 226.909C268.141 225.592 266.714 224.551 265.112 224.342C264.321 224.241 263.524 224.343 262.824 224.59C262.121 224.836 261.512 225.219 260.987 225.642C258.901 227.378 257.897 229.474 256.35 230.689C254.885 231.949 253.302 232.532 252.201 232.501C251.657 232.495 251.249 232.402 250.992 232.315C250.736 232.22 250.61 232.164 250.61 232.164C250.621 232.12 251.125 232.437 252.2 232.431C253.274 232.439 254.81 231.852 256.24 230.593C257.748 229.388 258.717 227.295 260.835 225.501C261.37 225.064 261.996 224.662 262.734 224.399C263.467 224.136 264.307 224.023 265.149 224.126C266.853 224.341 268.341 225.428 269.321 226.779C269.826 227.456 270.213 228.223 270.475 229.033C270.739 229.842 270.915 230.684 271.104 231.534C271.293 232.383 271.495 233.248 271.834 234.087C272.175 234.92 272.675 235.732 273.381 236.407C274.079 237.079 275.021 237.599 276.087 237.715C277.15 237.842 278.257 237.565 279.21 237.067C280.17 236.568 281.001 235.862 281.66 235.035C282.329 234.209 282.868 233.287 283.411 232.349C283.958 231.413 284.501 230.447 285.238 229.555C285.972 228.673 286.881 227.853 288.027 227.298C289.166 226.746 290.581 226.555 291.877 226.86C293.19 227.131 294.314 227.804 295.363 228.497C296.409 229.206 297.392 229.984 298.456 230.67C299.518 231.356 300.673 231.955 301.982 232.185C303.275 232.437 304.651 232.422 305.959 232.132C307.269 231.854 308.526 231.332 309.569 230.566C310.106 230.198 310.548 229.746 310.959 229.281C311.335 228.795 311.666 228.281 311.912 227.732C312.42 226.639 312.694 225.477 312.978 224.323C313.266 223.171 313.538 222.003 314.099 220.914C314.658 219.837 315.45 218.837 316.531 218.114C317.594 217.38 319.048 217.039 320.369 217.324C321.702 217.589 322.768 218.378 323.571 219.241C325.226 220.999 325.848 223.171 327.042 224.959C327.632 225.857 328.362 226.68 329.306 227.243C330.25 227.804 331.39 228.047 332.501 227.989C334.749 227.846 336.735 226.791 338.267 225.533C339.831 224.27 341.134 222.848 342.636 221.68C344.118 220.501 345.877 219.627 347.727 219.365C348.646 219.225 349.585 219.281 350.438 219.509C351.292 219.748 352.034 220.175 352.633 220.686C353.828 221.723 354.52 222.982 355.08 224.144C355.63 225.317 356.086 226.423 356.66 227.375C357.228 228.327 357.92 229.126 358.71 229.671C360.349 230.736 362.122 230.745 363.1 230.433C364.109 230.097 364.409 229.612 364.435 229.646Z" fill="#455A64"/>
<path d="M372.254 228.166C372.254 228.166 372.111 228.181 371.825 228.192C371.683 228.187 371.509 228.156 371.299 228.13C371.102 228.067 370.855 228.028 370.609 227.913C369.581 227.53 368.302 226.597 366.93 225.22C366.587 224.875 366.236 224.502 365.877 224.102C365.511 223.708 365.183 223.256 364.736 222.879C363.84 222.123 362.556 221.555 361.098 221.439C360.37 221.377 359.608 221.455 358.878 221.682C358.15 221.917 357.489 222.336 356.9 222.842C355.71 223.86 354.816 225.216 353.646 226.499C353.058 227.138 352.393 227.768 351.561 228.258C350.736 228.75 349.748 229.074 348.712 229.184C346.623 229.397 344.474 228.898 342.438 228.164C340.388 227.424 338.428 226.404 336.222 225.751C335.127 225.417 333.972 225.188 332.79 225.153C331.611 225.136 330.414 225.34 329.326 225.811C327.118 226.73 325.393 228.405 323.314 229.773C322.284 230.472 321.101 231.046 319.833 231.431C318.564 231.816 317.209 232.002 315.845 232.031C313.113 232.073 310.327 231.41 307.927 230.125C305.524 228.845 303.482 227.027 301.92 224.926C300.308 222.831 299.427 220.451 298.264 218.28C297.675 217.197 297.008 216.146 296.138 215.257C295.262 214.372 294.201 213.627 293.005 213.154C291.817 212.676 290.466 212.518 289.23 212.809C287.989 213.085 286.918 213.768 286.095 214.599C285.264 215.432 284.652 216.412 284.218 217.427C283.785 218.448 283.504 219.506 283.249 220.555C282.991 221.604 282.759 222.652 282.428 223.669C282.106 224.687 281.651 225.667 281.084 226.57C279.95 228.383 278.365 229.903 276.548 231.02C274.741 232.153 272.678 232.853 270.63 233.1C268.571 233.331 266.553 233.076 264.778 232.512C261.195 231.393 258.668 228.972 257.723 226.498C257.235 225.265 256.99 224.076 256.638 223.017C256.288 221.964 255.869 221.005 255.23 220.298C253.934 218.878 252.218 218.389 251.15 218.481C250.046 218.571 249.62 219.016 249.601 218.969C249.603 219 250.011 218.529 251.143 218.411C252.239 218.295 254.003 218.772 255.352 220.216C256.023 220.942 256.455 221.91 256.82 222.972C257.185 224.037 257.443 225.224 257.934 226.434C258.879 228.85 261.362 231.201 264.875 232.283C266.614 232.828 268.587 233.068 270.589 232.836C272.584 232.587 274.595 231.9 276.357 230.786C278.129 229.691 279.675 228.198 280.777 226.425C281.922 224.66 282.401 222.595 282.89 220.488C283.145 219.435 283.426 218.363 283.868 217.314C284.314 216.267 284.942 215.254 285.808 214.382C286.666 213.514 287.8 212.782 289.135 212.484C290.464 212.17 291.917 212.342 293.167 212.845C294.427 213.343 295.529 214.118 296.438 215.035C297.346 215.963 298.024 217.035 298.623 218.133C299.804 220.339 300.674 222.684 302.255 224.738C303.788 226.802 305.79 228.581 308.135 229.831C310.475 231.085 313.182 231.73 315.839 231.693C317.165 231.665 318.48 231.486 319.709 231.114C320.938 230.741 322.072 230.195 323.086 229.509C325.131 228.173 326.87 226.48 329.17 225.523C330.303 225.034 331.571 224.819 332.8 224.841C334.032 224.879 335.222 225.12 336.336 225.463C338.579 226.134 340.553 227.168 342.566 227.899C344.571 228.63 346.672 229.117 348.675 228.919C349.668 228.816 350.607 228.512 351.397 228.044C352.193 227.579 352.845 226.971 353.426 226.345C354.586 225.087 355.492 223.726 356.723 222.683C357.332 222.165 358.026 221.729 358.796 221.486C359.567 221.251 360.364 221.177 361.119 221.245C362.632 221.376 363.949 221.971 364.869 222.76C365.334 223.16 365.656 223.617 366.014 224.01C366.366 224.41 366.711 224.784 367.048 225.131C368.394 226.514 369.644 227.452 370.643 227.849C371.638 228.29 372.265 228.121 372.254 228.166Z" fill="#3ABFF8"/>
<path d="M243.12 211.976C243.12 212.072 242.388 212.149 241.485 212.149C240.582 212.149 239.851 212.072 239.851 211.976C239.851 211.881 240.582 211.804 241.485 211.804C242.388 211.804 243.12 211.881 243.12 211.976Z" fill="#E0E0E0"/>
<path d="M243.12 218.005C243.12 218.101 242.388 218.178 241.485 218.178C240.582 218.178 239.851 218.101 239.851 218.005C239.851 217.909 240.582 217.832 241.485 217.832C242.388 217.831 243.12 217.909 243.12 218.005Z" fill="#E0E0E0"/>
<path d="M243.12 224.032C243.12 224.128 242.388 224.205 241.485 224.205C240.582 224.205 239.851 224.128 239.851 224.032C239.851 223.937 240.582 223.859 241.485 223.859C242.388 223.859 243.12 223.937 243.12 224.032Z" fill="#E0E0E0"/>
<path d="M243.12 230.061C243.12 230.156 242.388 230.233 241.485 230.233C240.582 230.233 239.851 230.156 239.851 230.061C239.851 229.965 240.582 229.888 241.485 229.888C242.388 229.888 243.12 229.966 243.12 230.061Z" fill="#E0E0E0"/>
<path d="M243.12 236.089C243.12 236.185 242.388 236.262 241.485 236.262C240.582 236.262 239.851 236.185 239.851 236.089C239.851 235.993 240.582 235.916 241.485 235.916C242.388 235.916 243.12 235.993 243.12 236.089Z" fill="#E0E0E0"/>
<path d="M258.142 243.837C258.142 243.933 256.678 244.01 254.873 244.01C253.068 244.01 251.604 243.933 251.604 243.837C251.604 243.741 253.068 243.664 254.873 243.664C256.678 243.664 258.142 243.742 258.142 243.837Z" fill="#E0E0E0"/>
<path d="M286.959 243.837C286.959 243.933 285.496 244.01 283.691 244.01C281.886 244.01 280.422 243.933 280.422 243.837C280.422 243.741 281.886 243.664 283.691 243.664C285.496 243.664 286.959 243.742 286.959 243.837Z" fill="#E0E0E0"/>
<path d="M315.776 243.837C315.776 243.933 314.313 244.01 312.508 244.01C310.703 244.01 309.239 243.933 309.239 243.837C309.239 243.741 310.703 243.664 312.508 243.664C314.313 243.664 315.776 243.742 315.776 243.837Z" fill="#E0E0E0"/>
<path d="M344.594 243.837C344.594 243.933 343.131 244.01 341.325 244.01C339.52 244.01 338.056 243.933 338.056 243.837C338.056 243.741 339.52 243.664 341.325 243.664C343.131 243.664 344.594 243.742 344.594 243.837Z" fill="#E0E0E0"/>
<path d="M373.413 243.837C373.413 243.933 371.949 244.01 370.144 244.01C368.338 244.01 366.875 243.933 366.875 243.837C366.875 243.741 368.338 243.664 370.144 243.664C371.948 243.664 373.413 243.742 373.413 243.837Z" fill="#E0E0E0"/>
<path d="M103.51 259.552H18.5554V318.822H103.51V259.552Z" fill="#263238"/>
<path d="M94.2729 277.134H6.88214V298.864H94.2729V277.134Z" fill="#455A64"/>
<path d="M27.969 281.61H10.7624V284.263H27.969V281.61Z" fill="#263238"/>
<path d="M27.969 286.175H10.7624V288.828H27.969V286.175Z" fill="#263238"/>
<path d="M27.969 290.896H10.7624V293.549H27.969V290.896Z" fill="#263238"/>
<path d="M34.7739 283.213C34.7739 283.76 34.3319 284.203 33.7865 284.203C33.2412 284.203 32.7992 283.76 32.7992 283.213C32.7992 282.667 33.2412 282.224 33.7865 282.224C34.3319 282.224 34.7739 282.667 34.7739 283.213Z" fill="#263238"/>
<path d="M39.1295 283.213C39.1295 283.76 38.6875 284.203 38.1422 284.203C37.5969 284.203 37.1548 283.76 37.1548 283.213C37.1548 282.667 37.5969 282.224 38.1422 282.224C38.6883 282.224 39.1295 282.667 39.1295 283.213Z" fill="#263238"/>
<path d="M43.4859 283.213C43.4859 283.76 43.0439 284.203 42.4986 284.203C41.9532 284.203 41.5112 283.76 41.5112 283.213C41.5112 282.667 41.9532 282.224 42.4986 282.224C43.0439 282.224 43.4859 282.667 43.4859 283.213Z" fill="#263238"/>
<path d="M47.8416 283.213C47.8416 283.76 47.3995 284.203 46.8542 284.203C46.3089 284.203 45.8669 283.76 45.8669 283.213C45.8669 282.667 46.3089 282.224 46.8542 282.224C47.3995 282.224 47.8416 282.667 47.8416 283.213Z" fill="#263238"/>
<path d="M81.5959 283.213C81.5959 283.76 81.1539 284.203 80.6086 284.203C80.0633 284.203 79.6213 283.76 79.6213 283.213C79.6213 282.667 80.0633 282.224 80.6086 282.224C81.1539 282.224 81.5959 282.667 81.5959 283.213Z" fill="#263238"/>
<path d="M86.0378 283.213C86.0378 283.76 85.5958 284.203 85.0505 284.203C84.5051 284.203 84.0631 283.76 84.0631 283.213C84.0631 282.667 84.5051 282.224 85.0505 282.224C85.5958 282.224 86.0378 282.667 86.0378 283.213Z" fill="#263238"/>
<path d="M52.1979 283.213C52.1979 283.76 51.7559 284.203 51.2106 284.203C50.6653 284.203 50.2233 283.76 50.2233 283.213C50.2233 282.667 50.6653 282.224 51.2106 282.224C51.7559 282.224 52.1979 282.667 52.1979 283.213Z" fill="#263238"/>
<path d="M73.5892 283.213C73.5892 283.76 73.1472 284.203 72.6019 284.203C72.0566 284.203 71.6146 283.76 71.6146 283.213C71.6146 282.667 72.0566 282.224 72.6019 282.224C73.1472 282.224 73.5892 282.667 73.5892 283.213Z" fill="#263238"/>
<path d="M56.5536 283.213C56.5536 283.76 56.1116 284.203 55.5663 284.203C55.0209 284.203 54.5789 283.76 54.5789 283.213C54.5789 282.667 55.0209 282.224 55.5663 282.224C56.1116 282.224 56.5536 282.667 56.5536 283.213Z" fill="#F5F5F5"/>
<path d="M60.9092 283.213C60.9092 283.76 60.4672 284.203 59.9219 284.203C59.3766 284.203 58.9346 283.76 58.9346 283.213C58.9346 282.667 59.3766 282.224 59.9219 282.224C60.4672 282.224 60.9092 282.667 60.9092 283.213Z" fill="#F5F5F5"/>
<path d="M69.7471 283.213C69.7471 283.76 69.3051 284.203 68.7598 284.203C68.2145 284.203 67.7725 283.76 67.7725 283.213C67.7725 282.667 68.2145 282.224 68.7598 282.224C69.3051 282.224 69.7471 282.667 69.7471 283.213Z" fill="#F5F5F5"/>
<path d="M89.6516 283.213C89.6516 283.76 89.2095 284.203 88.6642 284.203C88.1189 284.203 87.6769 283.76 87.6769 283.213C87.6769 282.667 88.1189 282.224 88.6642 282.224C89.2095 282.224 89.6516 282.667 89.6516 283.213Z" fill="#F5F5F5"/>
<path d="M65.2648 283.213C65.2648 283.76 64.8228 284.203 64.2775 284.203C63.7322 284.203 63.2902 283.76 63.2902 283.213C63.2902 282.667 63.7322 282.224 64.2775 282.224C64.8228 282.224 65.2648 282.667 65.2648 283.213Z" fill="#3ABFF8"/>
<path d="M77.7367 283.213C77.7367 283.76 77.2947 284.203 76.7494 284.203C76.204 284.203 75.762 283.76 75.762 283.213C75.762 282.667 76.204 282.224 76.7494 282.224C77.2947 282.224 77.7367 282.667 77.7367 283.213Z" fill="#3ABFF8"/>
<path d="M87.6777 287.982C87.6777 287.435 88.1197 286.992 88.665 286.992C89.2103 286.992 89.6524 287.435 89.6524 287.982C89.6524 288.528 89.2103 288.971 88.665 288.971C88.1197 288.97 87.6777 288.527 87.6777 287.982Z" fill="#263238"/>
<path d="M83.3221 287.982C83.3221 287.435 83.7641 286.992 84.3094 286.992C84.8547 286.992 85.2968 287.435 85.2968 287.982C85.2968 288.528 84.8547 288.971 84.3094 288.971C83.7633 288.97 83.3221 288.527 83.3221 287.982Z" fill="#263238"/>
<path d="M78.9656 287.982C78.9656 287.435 79.4076 286.992 79.953 286.992C80.4983 286.992 80.9403 287.435 80.9403 287.982C80.9403 288.528 80.4983 288.971 79.953 288.971C79.4076 288.97 78.9656 288.527 78.9656 287.982Z" fill="#263238"/>
<path d="M74.61 287.982C74.61 287.435 75.0521 286.992 75.5974 286.992C76.1427 286.992 76.5847 287.435 76.5847 287.982C76.5847 288.528 76.1427 288.971 75.5974 288.971C75.0521 288.97 74.61 288.527 74.61 287.982Z" fill="#263238"/>
<path d="M40.8556 287.982C40.8556 287.435 41.2976 286.992 41.8429 286.992C42.3883 286.992 42.8303 287.435 42.8303 287.982C42.8303 288.528 42.3883 288.971 41.8429 288.971C41.2976 288.97 40.8556 288.527 40.8556 287.982Z" fill="#263238"/>
<path d="M36.4138 287.982C36.4138 287.435 36.8558 286.992 37.4011 286.992C37.9464 286.992 38.3884 287.435 38.3884 287.982C38.3884 288.528 37.9464 288.971 37.4011 288.971C36.8558 288.97 36.4138 288.527 36.4138 287.982Z" fill="#263238"/>
<path d="M70.2544 287.982C70.2544 287.435 70.6964 286.992 71.2417 286.992C71.7871 286.992 72.2291 287.435 72.2291 287.982C72.2291 288.528 71.7871 288.971 71.2417 288.971C70.6964 288.97 70.2544 288.527 70.2544 287.982Z" fill="#263238"/>
<path d="M48.8623 287.982C48.8623 287.435 49.3043 286.992 49.8496 286.992C50.395 286.992 50.837 287.435 50.837 287.982C50.837 288.528 50.395 288.971 49.8496 288.971C49.3043 288.97 48.8623 288.527 48.8623 287.982Z" fill="#263238"/>
<path d="M65.8979 287.982C65.8979 287.435 66.34 286.992 66.8853 286.992C67.4306 286.992 67.8726 287.435 67.8726 287.982C67.8726 288.528 67.4306 288.971 66.8853 288.971C66.34 288.97 65.8979 288.527 65.8979 287.982Z" fill="#F5F5F5"/>
<path d="M61.5424 287.982C61.5424 287.435 61.9844 286.992 62.5297 286.992C63.075 286.992 63.517 287.435 63.517 287.982C63.517 288.528 63.075 288.971 62.5297 288.971C61.9844 288.97 61.5424 288.527 61.5424 287.982Z" fill="#F5F5F5"/>
<path d="M52.7053 287.982C52.7053 287.435 53.1473 286.992 53.6926 286.992C54.2379 286.992 54.6799 287.435 54.6799 287.982C54.6799 288.528 54.2379 288.971 53.6926 288.971C53.1473 288.97 52.7053 288.527 52.7053 287.982Z" fill="#F5F5F5"/>
<path d="M32.8 287.982C32.8 287.435 33.242 286.992 33.7873 286.992C34.3327 286.992 34.7747 287.435 34.7747 287.982C34.7747 288.528 34.3327 288.971 33.7873 288.971C33.242 288.97 32.8 288.527 32.8 287.982Z" fill="#F5F5F5"/>
<path d="M57.1867 287.982C57.1867 287.435 57.6287 286.992 58.174 286.992C58.7194 286.992 59.1614 287.435 59.1614 287.982C59.1614 288.528 58.7194 288.971 58.174 288.971C57.6287 288.97 57.1867 288.527 57.1867 287.982Z" fill="#3ABFF8"/>
<path d="M44.7148 287.982C44.7148 287.435 45.1569 286.992 45.7022 286.992C46.2475 286.992 46.6895 287.435 46.6895 287.982C46.6895 288.528 46.2475 288.971 45.7022 288.971C45.1569 288.97 44.7148 288.527 44.7148 287.982Z" fill="#3ABFF8"/>
<path d="M34.7739 292.222C34.7739 292.769 34.3319 293.212 33.7865 293.212C33.2412 293.212 32.7992 292.769 32.7992 292.222C32.7992 291.676 33.2412 291.233 33.7865 291.233C34.3319 291.233 34.7739 291.676 34.7739 292.222Z" fill="#263238"/>
<path d="M38.1429 293.212C38.6882 293.212 39.1303 292.769 39.1303 292.222C39.1303 291.676 38.6882 291.233 38.1429 291.233C37.5976 291.233 37.1556 291.676 37.1556 292.222C37.1556 292.769 37.5976 293.212 38.1429 293.212Z" fill="#263238"/>
<path d="M42.4986 293.212C43.0439 293.212 43.4859 292.769 43.4859 292.222C43.4859 291.676 43.0439 291.233 42.4986 291.233C41.9533 291.233 41.5112 291.676 41.5112 292.222C41.5112 292.769 41.9533 293.212 42.4986 293.212Z" fill="#263238"/>
<path d="M46.855 293.212C47.4003 293.212 47.8424 292.769 47.8424 292.222C47.8424 291.676 47.4003 291.233 46.855 291.233C46.3097 291.233 45.8677 291.676 45.8677 292.222C45.8677 292.769 46.3097 293.212 46.855 293.212Z" fill="#263238"/>
<path d="M80.6086 293.212C81.1539 293.212 81.5959 292.769 81.5959 292.222C81.5959 291.676 81.1539 291.233 80.6086 291.233C80.0633 291.233 79.6213 291.676 79.6213 292.222C79.6213 292.769 80.0633 293.212 80.6086 293.212Z" fill="#263238"/>
<path d="M85.0505 293.212C85.5958 293.212 86.0378 292.769 86.0378 292.222C86.0378 291.676 85.5958 291.233 85.0505 291.233C84.5052 291.233 84.0631 291.676 84.0631 292.222C84.0631 292.769 84.5052 293.212 85.0505 293.212Z" fill="#263238"/>
<path d="M52.1979 292.222C52.1979 292.769 51.7559 293.212 51.2106 293.212C50.6653 293.212 50.2233 292.769 50.2233 292.222C50.2233 291.676 50.6653 291.233 51.2106 291.233C51.7559 291.233 52.1979 291.676 52.1979 292.222Z" fill="#263238"/>
<path d="M73.5892 292.222C73.5892 292.769 73.1472 293.212 72.6019 293.212C72.0566 293.212 71.6146 292.769 71.6146 292.222C71.6146 291.676 72.0566 291.233 72.6019 291.233C73.1472 291.233 73.5892 291.676 73.5892 292.222Z" fill="#263238"/>
<path d="M55.5663 293.212C56.1116 293.212 56.5536 292.769 56.5536 292.222C56.5536 291.676 56.1116 291.233 55.5663 291.233C55.021 291.233 54.5789 291.676 54.5789 292.222C54.5789 292.769 55.021 293.212 55.5663 293.212Z" fill="#F5F5F5"/>
<path d="M60.9092 292.222C60.9092 292.769 60.4672 293.212 59.9219 293.212C59.3766 293.212 58.9346 292.769 58.9346 292.222C58.9346 291.676 59.3766 291.233 59.9219 291.233C60.4672 291.233 60.9092 291.676 60.9092 292.222Z" fill="#F5F5F5"/>
<path d="M69.7471 292.222C69.7471 292.769 69.3051 293.212 68.7598 293.212C68.2145 293.212 67.7725 292.769 67.7725 292.222C67.7725 291.676 68.2145 291.233 68.7598 291.233C69.3051 291.233 69.7471 291.676 69.7471 292.222Z" fill="#F5F5F5"/>
<path d="M89.6516 292.222C89.6516 292.769 89.2095 293.212 88.6642 293.212C88.1189 293.212 87.6769 292.769 87.6769 292.222C87.6769 291.676 88.1189 291.233 88.6642 291.233C89.2095 291.233 89.6516 291.676 89.6516 292.222Z" fill="#F5F5F5"/>
<path d="M65.2648 292.222C65.2648 292.769 64.8228 293.212 64.2775 293.212C63.7322 293.212 63.2902 292.769 63.2902 292.222C63.2902 291.676 63.7322 291.233 64.2775 291.233C64.8228 291.233 65.2648 291.676 65.2648 292.222Z" fill="#3ABFF8"/>
<path d="M76.7494 293.212C77.2947 293.212 77.7367 292.769 77.7367 292.222C77.7367 291.676 77.2947 291.233 76.7494 291.233C76.2041 291.233 75.762 291.676 75.762 292.222C75.762 292.769 76.2041 293.212 76.7494 293.212Z" fill="#3ABFF8"/>
<path d="M94.2729 303.95H6.88214V325.68H94.2729V303.95Z" fill="#455A64"/>
<path d="M34.5579 309.812C34.5579 310.359 34.1159 310.802 33.5706 310.802C33.0253 310.802 32.5833 310.359 32.5833 309.812C32.5833 309.266 33.0253 308.823 33.5706 308.823C34.1159 308.823 34.5579 309.266 34.5579 309.812Z" fill="#263238"/>
<path d="M38.9136 309.812C38.9136 310.359 38.4716 310.802 37.9262 310.802C37.3809 310.802 36.9389 310.359 36.9389 309.812C36.9389 309.266 37.3809 308.823 37.9262 308.823C38.4716 308.823 38.9136 309.266 38.9136 309.812Z" fill="#263238"/>
<path d="M43.2692 309.812C43.2692 310.359 42.8272 310.802 42.2818 310.802C41.7365 310.802 41.2945 310.359 41.2945 309.812C41.2945 309.266 41.7365 308.823 42.2818 308.823C42.8272 308.823 43.2692 309.266 43.2692 309.812Z" fill="#263238"/>
<path d="M47.6256 309.812C47.6256 310.359 47.1836 310.802 46.6383 310.802C46.0929 310.802 45.6509 310.359 45.6509 309.812C45.6509 309.266 46.0929 308.823 46.6383 308.823C47.1836 308.823 47.6256 309.266 47.6256 309.812Z" fill="#263238"/>
<path d="M81.3792 309.812C81.3792 310.359 80.9372 310.802 80.3919 310.802C79.8465 310.802 79.4045 310.359 79.4045 309.812C79.4045 309.266 79.8465 308.823 80.3919 308.823C80.9372 308.823 81.3792 309.266 81.3792 309.812Z" fill="#263238"/>
<path d="M85.8211 309.812C85.8211 310.359 85.3791 310.802 84.8338 310.802C84.2884 310.802 83.8464 310.359 83.8464 309.812C83.8464 309.266 84.2884 308.823 84.8338 308.823C85.3791 308.823 85.8211 309.266 85.8211 309.812Z" fill="#263238"/>
<path d="M51.9812 309.812C51.9812 310.359 51.5392 310.802 50.9939 310.802C50.4485 310.802 50.0065 310.359 50.0065 309.812C50.0065 309.266 50.4485 308.823 50.9939 308.823C51.5392 308.823 51.9812 309.266 51.9812 309.812Z" fill="#263238"/>
<path d="M73.3726 309.812C73.3726 310.359 72.9306 310.802 72.3852 310.802C71.8399 310.802 71.3979 310.359 71.3979 309.812C71.3979 309.266 71.8399 308.823 72.3852 308.823C72.9313 308.823 73.3726 309.266 73.3726 309.812Z" fill="#263238"/>
<path d="M56.3369 309.812C56.3369 310.359 55.8948 310.802 55.3495 310.802C54.8042 310.802 54.3622 310.359 54.3622 309.812C54.3622 309.266 54.8042 308.823 55.3495 308.823C55.8948 308.823 56.3369 309.266 56.3369 309.812Z" fill="#F5F5F5"/>
<path d="M60.6925 309.812C60.6925 310.359 60.2505 310.802 59.7052 310.802C59.1598 310.802 58.7178 310.359 58.7178 309.812C58.7178 309.266 59.1598 308.823 59.7052 308.823C60.2505 308.823 60.6925 309.266 60.6925 309.812Z" fill="#F5F5F5"/>
<path d="M69.5304 309.812C69.5304 310.359 69.0884 310.802 68.5431 310.802C67.9977 310.802 67.5557 310.359 67.5557 309.812C67.5557 309.266 67.9977 308.823 68.5431 308.823C69.0884 308.823 69.5304 309.266 69.5304 309.812Z" fill="#F5F5F5"/>
<path d="M89.4356 309.812C89.4356 310.359 88.9936 310.802 88.4483 310.802C87.9029 310.802 87.4609 310.359 87.4609 309.812C87.4609 309.266 87.9029 308.823 88.4483 308.823C88.9936 308.823 89.4356 309.266 89.4356 309.812Z" fill="#F5F5F5"/>
<path d="M65.0489 309.812C65.0489 310.359 64.6069 310.802 64.0616 310.802C63.5162 310.802 63.0742 310.359 63.0742 309.812C63.0742 309.266 63.5162 308.823 64.0616 308.823C64.6069 308.823 65.0489 309.266 65.0489 309.812Z" fill="#3ABFF8"/>
<path d="M77.52 309.812C77.52 310.359 77.078 310.802 76.5326 310.802C75.9873 310.802 75.5453 310.359 75.5453 309.812C75.5453 309.266 75.9873 308.823 76.5326 308.823C77.0787 308.823 77.52 309.266 77.52 309.812Z" fill="#3ABFF8"/>
<path d="M87.4609 314.581C87.4609 314.034 87.9029 313.591 88.4483 313.591C88.9936 313.591 89.4356 314.034 89.4356 314.581C89.4356 315.127 88.9936 315.57 88.4483 315.57C87.9029 315.57 87.4609 315.127 87.4609 314.581Z" fill="#263238"/>
<path d="M84.0927 315.57C84.638 315.57 85.08 315.127 85.08 314.581C85.08 314.034 84.638 313.591 84.0927 313.591C83.5474 313.591 83.1053 314.034 83.1053 314.581C83.1053 315.127 83.5474 315.57 84.0927 315.57Z" fill="#263238"/>
<path d="M78.7497 314.581C78.7497 314.034 79.1917 313.591 79.737 313.591C80.2824 313.591 80.7244 314.034 80.7244 314.581C80.7244 315.127 80.2824 315.57 79.737 315.57C79.1917 315.57 78.7497 315.127 78.7497 314.581Z" fill="#263238"/>
<path d="M74.3933 314.581C74.3933 314.034 74.8353 313.591 75.3807 313.591C75.926 313.591 76.368 314.034 76.368 314.581C76.368 315.127 75.926 315.57 75.3807 315.57C74.8353 315.57 74.3933 315.127 74.3933 314.581Z" fill="#263238"/>
<path d="M40.6396 314.581C40.6396 314.034 41.0817 313.591 41.627 313.591C42.1723 313.591 42.6143 314.034 42.6143 314.581C42.6143 315.127 42.1723 315.57 41.627 315.57C41.0817 315.57 40.6396 315.127 40.6396 314.581Z" fill="#263238"/>
<path d="M36.1978 314.581C36.1978 314.034 36.6398 313.591 37.1852 313.591C37.7305 313.591 38.1725 314.034 38.1725 314.581C38.1725 315.127 37.7305 315.57 37.1852 315.57C36.6398 315.57 36.1978 315.127 36.1978 314.581Z" fill="#263238"/>
<path d="M71.025 315.57C71.5703 315.57 72.0123 315.127 72.0123 314.581C72.0123 314.034 71.5703 313.591 71.025 313.591C70.4797 313.591 70.0377 314.034 70.0377 314.581C70.0377 315.127 70.4797 315.57 71.025 315.57Z" fill="#263238"/>
<path d="M49.6329 315.57C50.1782 315.57 50.6202 315.127 50.6202 314.581C50.6202 314.034 50.1782 313.591 49.6329 313.591C49.0876 313.591 48.6456 314.034 48.6456 314.581C48.6456 315.127 49.0876 315.57 49.6329 315.57Z" fill="#263238"/>
<path d="M65.682 314.581C65.682 314.034 66.124 313.591 66.6693 313.591C67.2147 313.591 67.6567 314.034 67.6567 314.581C67.6567 315.127 67.2147 315.57 66.6693 315.57C66.124 315.57 65.682 315.127 65.682 314.581Z" fill="#F5F5F5"/>
<path d="M61.3264 314.581C61.3264 314.034 61.7684 313.591 62.3138 313.591C62.8591 313.591 63.3011 314.034 63.3011 314.581C63.3011 315.127 62.8591 315.57 62.3138 315.57C61.7677 315.57 61.3264 315.127 61.3264 314.581Z" fill="#F5F5F5"/>
<path d="M53.4759 315.57C54.0212 315.57 54.4632 315.127 54.4632 314.581C54.4632 314.034 54.0212 313.591 53.4759 313.591C52.9306 313.591 52.4885 314.034 52.4885 314.581C52.4885 315.127 52.9306 315.57 53.4759 315.57Z" fill="#F5F5F5"/>
<path d="M32.5833 314.581C32.5833 314.034 33.0253 313.591 33.5706 313.591C34.1159 313.591 34.5579 314.034 34.5579 314.581C34.5579 315.127 34.1159 315.57 33.5706 315.57C33.0253 315.57 32.5833 315.127 32.5833 314.581Z" fill="#F5F5F5"/>
<path d="M56.97 314.581C56.97 314.034 57.412 313.591 57.9573 313.591C58.5026 313.591 58.9446 314.034 58.9446 314.581C58.9446 315.127 58.5026 315.57 57.9573 315.57C57.412 315.57 56.97 315.127 56.97 314.581Z" fill="#3ABFF8"/>
<path d="M44.4981 314.581C44.4981 314.034 44.9401 313.591 45.4854 313.591C46.0308 313.591 46.4728 314.034 46.4728 314.581C46.4728 315.127 46.0308 315.57 45.4854 315.57C44.9401 315.57 44.4981 315.127 44.4981 314.581Z" fill="#3ABFF8"/>
<path d="M34.5579 318.822C34.5579 319.368 34.1159 319.811 33.5706 319.811C33.0253 319.811 32.5833 319.368 32.5833 318.822C32.5833 318.275 33.0253 317.832 33.5706 317.832C34.1159 317.832 34.5579 318.275 34.5579 318.822Z" fill="#263238"/>
<path d="M38.9136 318.822C38.9136 319.368 38.4716 319.811 37.9262 319.811C37.3809 319.811 36.9389 319.368 36.9389 318.822C36.9389 318.275 37.3809 317.832 37.9262 317.832C38.4716 317.832 38.9136 318.275 38.9136 318.822Z" fill="#263238"/>
<path d="M43.2692 318.822C43.2692 319.368 42.8272 319.811 42.2818 319.811C41.7365 319.811 41.2945 319.368 41.2945 318.822C41.2945 318.275 41.7365 317.832 42.2818 317.832C42.8272 317.832 43.2692 318.275 43.2692 318.822Z" fill="#263238"/>
<path d="M47.6256 318.822C47.6256 319.368 47.1836 319.811 46.6383 319.811C46.0929 319.811 45.6509 319.368 45.6509 318.822C45.6509 318.275 46.0929 317.832 46.6383 317.832C47.1836 317.832 47.6256 318.275 47.6256 318.822Z" fill="#263238"/>
<path d="M81.3792 318.822C81.3792 319.368 80.9372 319.811 80.3919 319.811C79.8465 319.811 79.4045 319.368 79.4045 318.822C79.4045 318.275 79.8465 317.832 80.3919 317.832C80.9372 317.832 81.3792 318.275 81.3792 318.822Z" fill="#263238"/>
<path d="M85.8211 318.822C85.8211 319.368 85.3791 319.811 84.8338 319.811C84.2884 319.811 83.8464 319.368 83.8464 318.822C83.8464 318.275 84.2884 317.832 84.8338 317.832C85.3791 317.832 85.8211 318.275 85.8211 318.822Z" fill="#263238"/>
<path d="M51.9812 318.822C51.9812 319.368 51.5392 319.811 50.9939 319.811C50.4485 319.811 50.0065 319.368 50.0065 318.822C50.0065 318.275 50.4485 317.832 50.9939 317.832C51.5392 317.832 51.9812 318.275 51.9812 318.822Z" fill="#263238"/>
<path d="M73.3726 318.822C73.3726 319.368 72.9306 319.811 72.3852 319.811C71.8399 319.811 71.3979 319.368 71.3979 318.822C71.3979 318.275 71.8399 317.832 72.3852 317.832C72.9313 317.832 73.3726 318.275 73.3726 318.822Z" fill="#263238"/>
<path d="M56.3369 318.822C56.3369 319.368 55.8948 319.811 55.3495 319.811C54.8042 319.811 54.3622 319.368 54.3622 318.822C54.3622 318.275 54.8042 317.832 55.3495 317.832C55.8948 317.832 56.3369 318.275 56.3369 318.822Z" fill="#F5F5F5"/>
<path d="M60.6925 318.822C60.6925 319.368 60.2505 319.811 59.7052 319.811C59.1598 319.811 58.7178 319.368 58.7178 318.822C58.7178 318.275 59.1598 317.832 59.7052 317.832C60.2505 317.832 60.6925 318.275 60.6925 318.822Z" fill="#F5F5F5"/>
<path d="M69.5304 318.822C69.5304 319.368 69.0884 319.811 68.5431 319.811C67.9977 319.811 67.5557 319.368 67.5557 318.822C67.5557 318.275 67.9977 317.832 68.5431 317.832C69.0884 317.832 69.5304 318.275 69.5304 318.822Z" fill="#F5F5F5"/>
<path d="M89.4356 318.822C89.4356 319.368 88.9936 319.811 88.4483 319.811C87.9029 319.811 87.4609 319.368 87.4609 318.822C87.4609 318.275 87.9029 317.832 88.4483 317.832C88.9936 317.832 89.4356 318.275 89.4356 318.822Z" fill="#F5F5F5"/>
<path d="M65.0489 318.822C65.0489 319.368 64.6069 319.811 64.0616 319.811C63.5162 319.811 63.0742 319.368 63.0742 318.822C63.0742 318.275 63.5162 317.832 64.0616 317.832C64.6069 317.832 65.0489 318.275 65.0489 318.822Z" fill="#3ABFF8"/>
<path d="M77.52 318.822C77.52 319.368 77.078 319.811 76.5326 319.811C75.9873 319.811 75.5453 319.368 75.5453 318.822C75.5453 318.275 75.9873 317.832 76.5326 317.832C77.0787 317.832 77.52 318.275 77.52 318.822Z" fill="#3ABFF8"/>
<path d="M27.969 308.426H10.7624V311.079H27.969V308.426Z" fill="#263238"/>
<path d="M27.969 312.99H10.7624V315.644H27.969V312.99Z" fill="#263238"/>
<path d="M27.969 317.711H10.7624V320.365H27.969V317.711Z" fill="#263238"/>
<path d="M112.746 298.828L94.2729 298.864V277.134L112.746 277.099V298.828Z" fill="#263238"/>
<path d="M112.746 325.475L94.2729 325.51V303.78L112.746 303.745V325.475Z" fill="#263238"/>
<path d="M28.602 264.273H11.3954V266.927H28.602V264.273Z" fill="#263238"/>
<path d="M112.746 272.407L94.2729 272.443V250.547L112.746 250.512V272.407Z" fill="#263238"/>
<path d="M94.906 250.512H7.51526V272.242H94.906V250.512Z" fill="#455A64"/>
<path d="M28.602 254.987H11.3954V257.641H28.602V254.987Z" fill="#263238"/>
<path d="M28.602 259.552H11.3954V262.205H28.602V259.552Z" fill="#263238"/>
<path d="M35.407 256.59C35.407 257.137 34.965 257.58 34.4197 257.58C33.8743 257.58 33.4323 257.137 33.4323 256.59C33.4323 256.044 33.8743 255.601 34.4197 255.601C34.965 255.601 35.407 256.044 35.407 256.59Z" fill="#263238"/>
<path d="M39.7626 256.59C39.7626 257.137 39.3206 257.58 38.7753 257.58C38.23 257.58 37.788 257.137 37.788 256.59C37.788 256.044 38.23 255.601 38.7753 255.601C39.3206 255.601 39.7626 256.044 39.7626 256.59Z" fill="#263238"/>
<path d="M44.1182 256.59C44.1182 257.137 43.6762 257.58 43.1309 257.58C42.5856 257.58 42.1436 257.137 42.1436 256.59C42.1436 256.044 42.5856 255.601 43.1309 255.601C43.6762 255.601 44.1182 256.044 44.1182 256.59Z" fill="#263238"/>
<path d="M48.4747 256.59C48.4747 257.137 48.0327 257.58 47.4873 257.58C46.942 257.58 46.5 257.137 46.5 256.59C46.5 256.044 46.942 255.601 47.4873 255.601C48.0327 255.601 48.4747 256.044 48.4747 256.59Z" fill="#263238"/>
<path d="M82.2283 256.59C82.2283 257.137 81.7863 257.58 81.2409 257.58C80.6956 257.58 80.2536 257.137 80.2536 256.59C80.2536 256.044 80.6956 255.601 81.2409 255.601C81.7863 255.601 82.2283 256.044 82.2283 256.59Z" fill="#263238"/>
<path d="M86.6709 256.59C86.6709 257.137 86.2289 257.58 85.6836 257.58C85.1382 257.58 84.6962 257.137 84.6962 256.59C84.6962 256.044 85.1382 255.601 85.6836 255.601C86.2289 255.601 86.6709 256.044 86.6709 256.59Z" fill="#263238"/>
<path d="M52.8303 256.59C52.8303 257.137 52.3883 257.58 51.8429 257.58C51.2976 257.58 50.8556 257.137 50.8556 256.59C50.8556 256.044 51.2976 255.601 51.8429 255.601C52.3883 255.601 52.8303 256.044 52.8303 256.59Z" fill="#263238"/>
<path d="M74.2224 256.59C74.2224 257.137 73.7803 257.58 73.235 257.58C72.6897 257.58 72.2477 257.137 72.2477 256.59C72.2477 256.044 72.6897 255.601 73.235 255.601C73.7803 255.601 74.2224 256.044 74.2224 256.59Z" fill="#263238"/>
<path d="M57.1859 256.59C57.1859 257.137 56.7439 257.58 56.1986 257.58C55.6533 257.58 55.2112 257.137 55.2112 256.59C55.2112 256.044 55.6533 255.601 56.1986 255.601C56.7439 255.601 57.1859 256.044 57.1859 256.59Z" fill="#F5F5F5"/>
<path d="M61.5424 256.59C61.5424 257.137 61.1004 257.58 60.555 257.58C60.0097 257.58 59.5677 257.137 59.5677 256.59C59.5677 256.044 60.0097 255.601 60.555 255.601C61.1004 255.601 61.5424 256.044 61.5424 256.59Z" fill="#F5F5F5"/>
<path d="M70.3795 256.59C70.3795 257.137 69.9375 257.58 69.3921 257.58C68.8468 257.58 68.4048 257.137 68.4048 256.59C68.4048 256.044 68.8468 255.601 69.3921 255.601C69.9375 255.601 70.3795 256.044 70.3795 256.59Z" fill="#F5F5F5"/>
<path d="M90.2847 256.59C90.2847 257.137 89.8427 257.58 89.2973 257.58C88.752 257.58 88.31 257.137 88.31 256.59C88.31 256.044 88.752 255.601 89.2973 255.601C89.8427 255.601 90.2847 256.044 90.2847 256.59Z" fill="#F5F5F5"/>
<path d="M65.898 256.59C65.898 257.137 65.4559 257.58 64.9106 257.58C64.3653 257.58 63.9233 257.137 63.9233 256.59C63.9233 256.044 64.3653 255.601 64.9106 255.601C65.4559 255.601 65.898 256.044 65.898 256.59Z" fill="#3ABFF8"/>
<path d="M78.3698 256.59C78.3698 257.137 77.9278 257.58 77.3825 257.58C76.8371 257.58 76.3951 257.137 76.3951 256.59C76.3951 256.044 76.8371 255.601 77.3825 255.601C77.9278 255.601 78.3698 256.044 78.3698 256.59Z" fill="#3ABFF8"/>
<path d="M88.31 261.359C88.31 260.813 88.752 260.37 89.2973 260.37C89.8427 260.37 90.2847 260.813 90.2847 261.359C90.2847 261.906 89.8427 262.349 89.2973 262.349C88.752 262.348 88.31 261.906 88.31 261.359Z" fill="#263238"/>
<path d="M84.9418 262.349C85.487 262.349 85.9291 261.906 85.9291 261.359C85.9291 260.813 85.487 260.37 84.9418 260.37C84.3965 260.37 83.9544 260.813 83.9544 261.359C83.9544 261.906 84.3965 262.349 84.9418 262.349Z" fill="#263238"/>
<path d="M79.5988 261.359C79.5988 260.813 80.0408 260.37 80.5861 260.37C81.1314 260.37 81.5734 260.813 81.5734 261.359C81.5734 261.906 81.1314 262.349 80.5861 262.349C80.0408 262.348 79.5988 261.906 79.5988 261.359Z" fill="#263238"/>
<path d="M75.2431 261.359C75.2431 260.813 75.6851 260.37 76.2304 260.37C76.7758 260.37 77.2178 260.813 77.2178 261.359C77.2178 261.906 76.7758 262.349 76.2304 262.349C75.6843 262.348 75.2431 261.906 75.2431 261.359Z" fill="#263238"/>
<path d="M41.4887 261.359C41.4887 260.813 41.9307 260.37 42.476 260.37C43.0214 260.37 43.4634 260.813 43.4634 261.359C43.4634 261.906 43.0214 262.349 42.476 262.349C41.9307 262.348 41.4887 261.906 41.4887 261.359Z" fill="#263238"/>
<path d="M37.0469 261.359C37.0469 260.813 37.4889 260.37 38.0342 260.37C38.5795 260.37 39.0216 260.813 39.0216 261.359C39.0216 261.906 38.5795 262.349 38.0342 262.349C37.4889 262.348 37.0469 261.906 37.0469 261.359Z" fill="#263238"/>
<path d="M70.8867 261.359C70.8867 260.813 71.3287 260.37 71.8741 260.37C72.4194 260.37 72.8614 260.813 72.8614 261.359C72.8614 261.906 72.4194 262.349 71.8741 262.349C71.3287 262.348 70.8867 261.906 70.8867 261.359Z" fill="#263238"/>
<path d="M50.482 262.349C51.0273 262.349 51.4693 261.906 51.4693 261.359C51.4693 260.813 51.0273 260.37 50.482 260.37C49.9367 260.37 49.4946 260.813 49.4946 261.359C49.4946 261.906 49.9367 262.349 50.482 262.349Z" fill="#263238"/>
<path d="M66.5311 261.359C66.5311 260.813 66.9731 260.37 67.5184 260.37C68.0637 260.37 68.5057 260.813 68.5057 261.359C68.5057 261.906 68.0637 262.349 67.5184 262.349C66.9731 262.348 66.5311 261.906 66.5311 261.359Z" fill="#F5F5F5"/>
<path d="M63.162 262.349C63.7073 262.349 64.1494 261.906 64.1494 261.359C64.1494 260.813 63.7073 260.37 63.162 260.37C62.6167 260.37 62.1747 260.813 62.1747 261.359C62.1747 261.906 62.6167 262.349 63.162 262.349Z" fill="#F5F5F5"/>
<path d="M53.3376 261.359C53.3376 260.813 53.7796 260.37 54.3249 260.37C54.8702 260.37 55.3123 260.813 55.3123 261.359C55.3123 261.906 54.8702 262.349 54.3249 262.349C53.7796 262.348 53.3376 261.906 53.3376 261.359Z" fill="#F5F5F5"/>
<path d="M34.4197 262.349C34.9649 262.349 35.407 261.906 35.407 261.359C35.407 260.813 34.9649 260.37 34.4197 260.37C33.8744 260.37 33.4323 260.813 33.4323 261.359C33.4323 261.906 33.8744 262.349 34.4197 262.349Z" fill="#F5F5F5"/>
<path d="M57.819 261.359C57.819 260.813 58.261 260.37 58.8064 260.37C59.3517 260.37 59.7937 260.813 59.7937 261.359C59.7937 261.906 59.3517 262.349 58.8064 262.349C58.261 262.348 57.819 261.906 57.819 261.359Z" fill="#3ABFF8"/>
<path d="M45.348 261.359C45.348 260.813 45.79 260.37 46.3353 260.37C46.8806 260.37 47.3226 260.813 47.3226 261.359C47.3226 261.906 46.8806 262.349 46.3353 262.349C45.79 262.348 45.348 261.906 45.348 261.359Z" fill="#3ABFF8"/>
<path d="M35.407 265.6C35.407 266.146 34.965 266.589 34.4197 266.589C33.8743 266.589 33.4323 266.146 33.4323 265.6C33.4323 265.053 33.8743 264.61 34.4197 264.61C34.965 264.61 35.407 265.053 35.407 265.6Z" fill="#263238"/>
<path d="M39.7626 265.6C39.7626 266.146 39.3206 266.589 38.7753 266.589C38.23 266.589 37.788 266.146 37.788 265.6C37.788 265.053 38.23 264.61 38.7753 264.61C39.3206 264.61 39.7626 265.053 39.7626 265.6Z" fill="#263238"/>
<path d="M44.1182 265.6C44.1182 266.146 43.6762 266.589 43.1309 266.589C42.5856 266.589 42.1436 266.146 42.1436 265.6C42.1436 265.053 42.5856 264.61 43.1309 264.61C43.6762 264.61 44.1182 265.053 44.1182 265.6Z" fill="#263238"/>
<path d="M48.4747 265.6C48.4747 266.146 48.0327 266.589 47.4873 266.589C46.942 266.589 46.5 266.146 46.5 265.6C46.5 265.053 46.942 264.61 47.4873 264.61C48.0327 264.61 48.4747 265.053 48.4747 265.6Z" fill="#263238"/>
<path d="M82.2283 265.6C82.2283 266.146 81.7863 266.589 81.2409 266.589C80.6956 266.589 80.2536 266.146 80.2536 265.6C80.2536 265.053 80.6956 264.61 81.2409 264.61C81.7863 264.61 82.2283 265.053 82.2283 265.6Z" fill="#263238"/>
<path d="M86.6709 265.6C86.6709 266.146 86.2289 266.589 85.6836 266.589C85.1382 266.589 84.6962 266.146 84.6962 265.6C84.6962 265.053 85.1382 264.61 85.6836 264.61C86.2289 264.61 86.6709 265.053 86.6709 265.6Z" fill="#263238"/>
<path d="M52.8303 265.6C52.8303 266.146 52.3883 266.589 51.8429 266.589C51.2976 266.589 50.8556 266.146 50.8556 265.6C50.8556 265.053 51.2976 264.61 51.8429 264.61C52.3883 264.61 52.8303 265.053 52.8303 265.6Z" fill="#263238"/>
<path d="M74.2224 265.6C74.2224 266.146 73.7803 266.589 73.235 266.589C72.6897 266.589 72.2477 266.146 72.2477 265.6C72.2477 265.053 72.6897 264.61 73.235 264.61C73.7803 264.61 74.2224 265.053 74.2224 265.6Z" fill="#263238"/>
<path d="M57.1859 265.6C57.1859 266.146 56.7439 266.589 56.1986 266.589C55.6533 266.589 55.2112 266.146 55.2112 265.6C55.2112 265.053 55.6533 264.61 56.1986 264.61C56.7439 264.61 57.1859 265.053 57.1859 265.6Z" fill="#F5F5F5"/>
<path d="M61.5424 265.6C61.5424 266.146 61.1004 266.589 60.555 266.589C60.0097 266.589 59.5677 266.146 59.5677 265.6C59.5677 265.053 60.0097 264.61 60.555 264.61C61.1004 264.61 61.5424 265.053 61.5424 265.6Z" fill="#F5F5F5"/>
<path d="M70.3795 265.6C70.3795 266.146 69.9375 266.589 69.3921 266.589C68.8468 266.589 68.4048 266.146 68.4048 265.6C68.4048 265.053 68.8468 264.61 69.3921 264.61C69.9375 264.61 70.3795 265.053 70.3795 265.6Z" fill="#F5F5F5"/>
<path d="M90.2847 265.6C90.2847 266.146 89.8427 266.589 89.2973 266.589C88.752 266.589 88.31 266.146 88.31 265.6C88.31 265.053 88.752 264.61 89.2973 264.61C89.8427 264.61 90.2847 265.053 90.2847 265.6Z" fill="#F5F5F5"/>
<path d="M65.898 265.6C65.898 266.146 65.4559 266.589 64.9106 266.589C64.3653 266.589 63.9233 266.146 63.9233 265.6C63.9233 265.053 64.3653 264.61 64.9106 264.61C65.4559 264.61 65.898 265.053 65.898 265.6Z" fill="#3ABFF8"/>
<path d="M78.3698 265.6C78.3698 266.146 77.9278 266.589 77.3825 266.589C76.8371 266.589 76.3951 266.146 76.3951 265.6C76.3951 265.053 76.8371 264.61 77.3825 264.61C77.9278 264.61 78.3698 265.053 78.3698 265.6Z" fill="#3ABFF8"/>
<path d="M126.298 158.003C126.298 158.003 126.173 158.017 125.929 158.024C125.672 158.029 125.312 158.036 124.845 158.045C123.878 158.055 122.475 158.069 120.672 158.088C117.035 158.107 111.789 158.136 105.301 158.171C92.2974 158.202 74.3195 158.246 54.3645 158.295L54.5331 158.09C54.5331 158.819 54.5331 159.607 54.5331 160.398C54.5137 185.109 54.4966 207.476 54.4834 223.684C54.4608 231.77 54.4422 238.318 54.4298 242.862C54.4158 245.114 54.4057 246.868 54.3979 248.076C54.3909 248.66 54.3855 249.11 54.3808 249.432C54.3754 249.737 54.3637 249.893 54.3637 249.893C54.3637 249.893 54.3521 249.737 54.3467 249.432C54.3428 249.111 54.3373 248.661 54.3296 248.076C54.3226 246.868 54.3117 245.113 54.2977 242.862C54.2853 238.318 54.2666 231.77 54.2441 223.684C54.2317 207.476 54.2138 185.109 54.1944 160.398C54.1944 159.607 54.1944 158.819 54.1944 158.09V157.885H54.363C74.3179 157.885 92.2959 157.885 105.3 157.885C111.787 157.905 117.033 157.92 120.671 157.931C122.473 157.945 123.877 157.956 124.843 157.964C125.311 157.972 125.67 157.978 125.928 157.983C126.173 157.989 126.298 158.003 126.298 158.003Z" fill="#263238"/>
<path d="M128.7 158.795C128.7 160.383 127.416 161.669 125.833 161.669C124.249 161.669 122.966 160.382 122.966 158.795C122.966 157.208 124.25 155.922 125.833 155.922C127.417 155.922 128.7 157.208 128.7 158.795Z" fill="#263238"/>
<path d="M117.369 213.664L132.266 177.642C132.946 175.999 132.093 174.666 130.361 174.666H127.364C126.142 174.666 125.308 173.991 125.229 172.937L125.129 171.612C125.05 170.558 124.215 169.883 122.991 169.883H108.749C107.639 169.883 106.385 170.439 105.452 171.345L104.296 172.468C103.363 173.374 102.11 173.93 101 173.93H82.861C81.1286 173.93 79.1897 175.263 78.5286 176.906L63.7605 213.665H117.369V213.664Z" fill="#3ABFF8"/>
<g opacity="0.3">
<path d="M117.369 213.664L132.266 177.642C132.946 175.999 132.093 174.666 130.361 174.666H127.364C126.142 174.666 125.308 173.991 125.229 172.937L125.129 171.612C125.05 170.558 124.215 169.883 122.991 169.883H108.749C107.639 169.883 106.385 170.439 105.452 171.345L104.296 172.468C103.363 173.374 102.11 173.93 101 173.93H82.861C81.1286 173.93 79.1897 175.263 78.5286 176.906L63.7605 213.665H117.369V213.664Z" fill="black"/>
</g>
<path d="M119.831 201.431L125.449 179.659C125.819 178.226 124.882 176.788 123.579 176.788H79.5393C78.6685 176.788 77.9033 177.45 77.664 178.41L69.4857 211.179C69.1268 212.618 69.7001 213.481 71.0059 213.465L115.316 213.479C116.174 213.468 116.925 212.815 117.167 211.87L119.831 201.431Z" fill="#E0E0E0"/>
<path d="M116.788 212.679L119.181 178.393C119.266 177.177 118.305 176.144 117.088 176.144H71.458V212.679H116.788Z" fill="#EBEBEB"/>
<path d="M117.298 213.464L111.87 178.119C111.62 176.967 110.586 176.144 109.389 176.144H63.2284C61.4052 176.144 60.177 177.98 60.8979 179.628L70.8653 211.975L117.298 213.464Z" fill="#FAFAFA"/>
<path d="M117.369 213.648L106.174 180.545C105.708 179.166 104.46 178.244 103.061 178.244H55.4734C53.9399 178.244 52.8586 179.817 53.348 181.336L63.7605 213.665L117.369 213.648Z" fill="#3ABFF8"/>
<path d="M521.159 325.51C521.159 325.622 405.676 325.712 263.253 325.712C120.781 325.712 5.32312 325.621 5.32312 325.51C5.32312 325.399 120.781 325.308 263.253 325.308C405.676 325.308 521.159 325.398 521.159 325.51Z" fill="#263238"/>
<path d="M383.632 229.448C376.417 225.304 368.865 221.53 360.754 219.733C359.628 219.424 358.456 219.324 357.294 219.437C356.715 219.504 356.16 219.707 355.674 220.03C355.188 220.354 354.785 220.788 354.499 221.297C353.803 222.746 354.499 224.469 355.354 225.811C357.305 228.771 360.227 230.917 363.169 232.873C371.238 238.232 379.898 242.598 388.483 246.953C387.429 240.78 385.235 235.484 383.579 229.448" fill="#3ABFF8"/>
<path d="M443.219 231.256C450.273 226.848 457.653 222.788 465.69 220.681C466.806 220.33 467.977 220.188 469.145 220.264C469.727 220.304 470.291 220.485 470.79 220.79C471.288 221.095 471.705 221.517 472.007 222.018C472.757 223.434 472.161 225.193 471.324 226.554C469.491 229.585 466.647 231.846 463.792 233.912C455.921 239.627 447.455 244.262 438.991 248.941C439.842 242.733 441.816 237.326 443.219 231.256Z" fill="#3ABFF8"/>
<path d="M382.664 225.862C382.664 225.862 383.223 281.202 414.212 282.291C445.201 283.379 446.498 226.264 446.498 225.862C446.498 225.862 442.838 217.617 414.581 217.934C386.324 218.251 382.664 225.862 382.664 225.862Z" fill="#3ABFF8"/>
<path d="M423.821 247.839C423.667 249.952 422.892 251.971 421.592 253.642C420.293 255.313 418.529 256.56 416.523 257.226C414.516 257.892 412.358 257.946 410.321 257.382C408.283 256.818 406.459 255.662 405.077 254.059C403.696 252.455 402.82 250.478 402.561 248.375C402.301 246.273 402.669 244.141 403.619 242.249C404.569 240.356 406.057 238.789 407.895 237.744C409.734 236.7 411.841 236.225 413.948 236.38C416.773 236.589 419.4 237.913 421.252 240.062C423.103 242.21 424.027 245.008 423.821 247.839Z" fill="#2490BE"/>
<path d="M420.931 247.628C420.818 249.167 420.253 250.638 419.306 251.854C418.359 253.071 417.074 253.979 415.612 254.464C414.151 254.949 412.578 254.988 411.094 254.577C409.61 254.166 408.281 253.323 407.275 252.155C406.269 250.987 405.631 249.547 405.442 248.015C405.253 246.484 405.522 244.931 406.213 243.552C406.905 242.174 407.989 241.032 409.328 240.271C410.668 239.51 412.202 239.164 413.737 239.277C415.795 239.431 417.708 240.397 419.056 241.962C420.405 243.528 421.079 245.565 420.931 247.628Z" fill="white"/>
<path d="M417.176 249.055C417.117 248.628 417.092 248.197 417.102 247.765C417.102 246.951 417.102 245.81 417.102 244.404L417.186 244.552L413.147 242.216H413.368L409.329 244.488C409.223 244.679 409.476 244.245 409.455 244.288V245.482C409.455 245.873 409.455 246.275 409.455 246.666C409.455 247.438 409.455 248.188 409.455 248.918L409.35 248.717L413.305 251.138H413.126C414.36 250.472 415.383 249.943 416.1 249.573C416.471 249.361 416.859 249.181 417.26 249.034C416.928 249.286 416.575 249.508 416.206 249.7C415.531 250.112 414.518 250.757 413.252 251.444L413.168 251.497L413.083 251.444L409.075 249.108L408.959 249.045V248.907C408.959 248.178 408.959 247.427 408.959 246.655C408.959 246.264 408.959 245.873 408.959 245.471V244.33C408.959 244.33 409.191 243.939 409.075 244.118L413.136 241.867L413.252 241.803L413.358 241.867L417.313 244.298H417.408V244.393C417.408 245.852 417.324 247.025 417.281 247.829C417.284 248.24 417.249 248.65 417.176 249.055Z" fill="#3ABFF8"/>
<path d="M382.664 225.862C382.664 225.862 386.324 218.262 414.581 217.934C442.838 217.606 446.498 225.862 446.498 225.862C446.498 225.862 417.999 239.953 382.664 225.862Z" fill="#2FA7DB"/>
<path d="M392.378 265.25C392.357 265.224 392.339 265.196 392.326 265.165L392.189 264.922L391.672 263.95L391.313 263.252L390.912 262.396C390.628 261.783 390.311 261.085 389.995 260.282L389.488 259.045L388.993 257.692C388.624 256.761 388.318 255.736 387.938 254.668C387.273 252.554 386.63 250.133 386.061 247.596C385.491 245.059 385.08 242.628 384.742 240.397C384.405 238.167 384.183 236.169 384.056 234.467C383.972 233.621 383.919 232.86 383.877 232.184C383.835 231.507 383.803 230.926 383.782 230.45V229.393V229.002C383.782 229.002 383.782 229.002 383.782 229.108V229.382C383.782 229.657 383.782 230.017 383.867 230.439C383.951 230.862 383.93 231.497 383.993 232.163C384.056 232.829 384.109 233.6 384.194 234.446C384.352 236.137 384.615 238.135 384.932 240.366C385.248 242.596 385.712 245.006 386.261 247.543C386.809 250.08 387.474 252.448 388.117 254.594C388.476 255.651 388.771 256.709 389.172 257.618L389.657 258.981L390.153 260.218C390.448 261.011 390.765 261.709 391.039 262.332L391.419 263.199L391.767 263.907L392.241 264.89L392.357 265.144L392.378 265.25Z" fill="white"/>
<path d="M407.314 278.559C407.147 278.553 406.981 278.532 406.818 278.496C406.371 278.424 405.93 278.318 405.5 278.178C404.857 277.986 404.23 277.745 403.622 277.46C402.888 277.1 402.182 276.683 401.513 276.212C400.842 275.735 400.211 275.205 399.625 274.627C399.147 274.15 398.706 273.638 398.306 273.094C398.032 272.736 397.785 272.358 397.568 271.963C397.475 271.823 397.398 271.674 397.336 271.519C397.336 271.519 397.726 272.111 398.391 272.999C398.802 273.52 399.246 274.014 399.72 274.479C400.307 275.041 400.935 275.56 401.597 276.032C402.267 276.499 402.973 276.912 403.707 277.269C404.302 277.562 404.915 277.816 405.542 278.03C406.618 278.39 407.314 278.517 407.314 278.559Z" fill="white"/>
<path d="M413.769 259.034H413.474C413.284 259.034 412.989 259.034 412.619 259.034C411.574 259.016 410.537 258.849 409.54 258.537C408.046 258.084 406.654 257.348 405.436 256.37C403.919 255.195 402.722 253.654 401.956 251.891C401.191 250.128 400.883 248.2 401.059 246.285C401.129 245.452 401.277 244.628 401.502 243.822C401.71 243.13 401.971 242.455 402.283 241.803C402.741 240.855 403.331 239.976 404.034 239.192C404.22 238.981 404.417 238.78 404.624 238.59C404.772 238.452 404.846 238.389 404.856 238.399C404.867 238.41 404.572 238.695 404.097 239.256C403.424 240.045 402.864 240.924 402.43 241.867C402.125 242.514 401.874 243.186 401.682 243.875C401.468 244.667 401.331 245.478 401.27 246.296C401.101 248.177 401.406 250.07 402.156 251.802C402.906 253.534 404.077 255.05 405.563 256.212C406.203 256.723 406.888 257.176 407.609 257.565C408.246 257.887 408.905 258.162 409.582 258.389C410.57 258.706 411.594 258.894 412.63 258.949C413.358 259.034 413.769 259.013 413.769 259.034Z" fill="white"/>
<path d="M438.872 229.245H438.777L438.471 229.361L437.301 229.784C436.794 229.964 436.172 230.175 435.434 230.397C434.695 230.619 433.862 230.894 432.934 231.126L431.468 231.518L429.865 231.888C428.81 232.152 427.565 232.363 426.31 232.606C423.575 233.07 420.819 233.394 418.051 233.579C415.286 233.721 412.516 233.721 409.75 233.579C408.474 233.494 407.261 233.431 406.133 233.304L404.498 233.135L402.989 232.924C402.03 232.807 401.175 232.638 400.416 232.511C399.656 232.384 399.013 232.247 398.486 232.131L397.273 231.856L396.956 231.782H396.851C396.851 231.782 396.851 231.782 396.967 231.782L397.283 231.835L398.507 232.067C399.034 232.173 399.677 232.3 400.437 232.406C401.196 232.511 402.051 232.691 403.01 232.797L404.519 232.987C405.036 233.05 405.574 233.093 406.143 233.146C407.272 233.262 408.485 233.325 409.75 233.399C412.303 233.505 415.109 233.505 418.041 233.336C420.973 233.167 423.758 232.797 426.268 232.384C427.523 232.152 428.715 231.951 429.822 231.687C430.371 231.56 430.877 231.454 431.426 231.327L432.892 230.957C433.83 230.735 434.664 230.471 435.391 230.26C436.119 230.048 436.763 229.847 437.279 229.678L438.461 229.298L438.767 229.203L438.872 229.245Z" fill="white"/>
<g clip-path="url(#clip0_96_662)">
<path d="M432.616 178.373C426.343 177.625 420.06 177.255 413.767 177.255C407.475 177.255 401.192 177.625 394.919 178.373C392.827 178.616 391.259 180.454 391.259 182.583V202.018C391.259 204.293 393.215 206.052 395.403 205.809L395.645 205.78C407.697 204.322 419.837 204.322 431.861 205.78L432.132 205.809C434.32 206.052 436.275 204.293 436.275 202.018V182.583C436.275 180.454 434.688 178.616 432.616 178.373ZM405.122 193.559C403.273 193.559 401.773 191.732 401.773 189.486C401.773 187.24 403.273 185.402 405.122 185.402C406.971 185.402 408.472 187.23 408.472 189.486C408.472 191.741 406.971 193.559 405.122 193.559ZM422.412 193.559C420.563 193.559 419.063 191.732 419.063 189.486C419.063 187.24 420.563 185.402 422.412 185.402C424.261 185.402 425.762 187.23 425.762 189.486C425.762 191.741 424.261 193.559 422.412 193.559Z" fill="white"/>
<path d="M408.472 189.486C408.472 191.732 406.971 193.559 405.122 193.559C403.273 193.559 401.773 191.732 401.773 189.486C401.773 187.24 403.273 185.402 405.122 185.402C406.971 185.402 408.472 187.23 408.472 189.486Z" fill="white"/>
<path d="M425.762 189.486C425.762 191.732 424.261 193.559 422.412 193.559C420.563 193.559 419.063 191.732 419.063 189.486C419.063 187.24 420.563 185.402 422.412 185.402C424.261 185.402 425.762 187.23 425.762 189.486Z" fill="white"/>
<path d="M425.762 189.486C425.762 191.732 424.261 193.559 422.412 193.559C420.563 193.559 419.063 191.732 419.063 189.486C419.063 187.24 420.563 185.402 422.412 185.402C424.261 185.402 425.762 187.23 425.762 189.486Z" fill="#3ABFF8"/>
<path d="M408.472 189.486C408.472 191.732 406.971 193.559 405.122 193.559C403.273 193.559 401.773 191.732 401.773 189.486C401.773 187.24 403.273 185.402 405.122 185.402C406.971 185.402 408.472 187.23 408.472 189.486Z" fill="#3ABFF8"/>
<path d="M444.543 184.557H442.181V178.441C442.181 178.121 442.152 177.829 442.084 177.527C442.006 177.129 441.871 176.789 441.697 176.439C441.019 174.883 439.625 173.687 437.863 173.493L431.435 172.725C426.014 172.054 420.563 171.714 415.093 171.684V169.701C416.662 169.137 417.765 167.601 417.765 165.793C417.765 163.489 415.955 161.632 413.719 161.632C411.483 161.632 409.672 163.489 409.672 165.793C409.672 167.62 410.824 169.186 412.441 169.73V171.684C406.971 171.714 401.521 172.054 396.1 172.725L389.642 173.493C387.91 173.687 386.516 174.883 385.838 176.439C385.664 176.789 385.518 177.129 385.451 177.527C385.383 177.829 385.354 178.121 385.354 178.441V184.557H382.992C381.549 184.557 380.368 185.752 380.368 187.259V197.633C380.368 199.15 381.549 200.336 382.992 200.336H385.354V206.422C385.354 206.743 385.383 207.044 385.451 207.365C385.518 207.734 385.664 208.084 385.809 208.434C385.838 208.483 385.857 208.532 385.886 208.58C385.935 208.648 385.983 208.726 386.002 208.804C386.729 210.184 388.055 211.205 389.642 211.4L396.1 212.168C407.843 213.578 419.692 213.578 431.435 212.168L437.863 211.4C439.431 211.205 440.709 210.262 441.435 208.921C441.455 208.901 441.484 208.853 441.532 208.804C441.58 208.726 441.629 208.648 441.648 208.58C441.677 208.532 441.697 208.483 441.726 208.434C441.871 208.084 442.006 207.734 442.084 207.365C442.152 207.044 442.181 206.743 442.181 206.422V200.336H444.543C445.985 200.336 447.166 199.15 447.166 197.633V187.259C447.166 185.752 445.985 184.557 444.543 184.557ZM436.275 202.018C436.275 204.293 434.32 206.053 432.132 205.809L431.861 205.78C419.837 204.322 407.697 204.322 395.645 205.78L395.403 205.809C393.215 206.053 391.259 204.293 391.259 202.018V182.583C391.259 180.454 392.827 178.616 394.919 178.373C401.192 177.625 407.455 177.255 413.767 177.255C420.079 177.255 426.343 177.625 432.616 178.373C434.688 178.616 436.275 180.454 436.275 182.583V202.018Z" fill="#3ABFF8"/>
</g>
<path d="M386.882 177.891C386.805 177.891 386.741 181.846 386.741 186.721C386.741 191.596 386.741 195.559 386.882 195.559C387.022 195.559 387.009 191.604 387.009 186.721C387.009 181.838 386.946 177.891 386.882 177.891Z" fill="white"/>
<path d="M387.332 209.513C387.175 209.279 387.057 209.022 386.98 208.751C386.759 208.132 386.594 207.495 386.486 206.847C386.386 206.182 386.345 205.51 386.362 204.838C386.357 204.558 386.389 204.28 386.457 204.009C386.524 204.009 386.457 205.285 386.686 206.866C386.914 208.446 387.389 209.494 387.332 209.513Z" fill="white"/>
<defs>
<clipPath id="clip0_96_662">
<rect width="66.7981" height="51.5959" fill="white" transform="translate(380.368 161.632)"/>
</clipPath>
</defs>
</svg>
