<svg width="115" height="100" viewBox="0 0 115 100" fill="none" xmlns="http://www.w3.org/2000/svg">
<path d="M43.0207 65.5505C44.5446 64.6668 46.0685 63.7921 47.5924 62.9084C48.0794 62.6289 47.6375 61.8715 47.1506 62.151C45.6267 63.0347 44.1028 63.9094 42.5789 64.793C42.0919 65.0726 42.5338 65.83 43.0207 65.5505Z" fill="#93BBE1"/>
<path d="M42.9577 38.6067C44.4816 37.723 46.0055 36.8483 47.5294 35.9646C48.0163 35.6851 47.5745 34.9276 47.0875 35.2072C45.5636 36.0908 44.0397 36.9655 42.5158 37.8492C42.0289 38.1287 42.4707 38.8862 42.9577 38.6067Z" fill="#93BBE1"/>
<path d="M65.7982 35.0452C67.3311 35.9289 68.8641 36.8216 70.406 37.7053C70.8929 37.9848 71.3348 37.2364 70.8479 36.9478C69.3149 36.0642 67.782 35.1715 66.2401 34.2878C65.7531 34.0082 65.3113 34.7567 65.7982 35.0452Z" fill="#93BBE1"/>
<path d="M89.1708 48.535C90.7037 49.4186 92.2366 50.3114 93.7786 51.195C94.2655 51.4746 94.7074 50.7261 94.2204 50.4376C92.6875 49.5539 91.1546 48.6612 89.6126 47.7775C89.1257 47.498 88.6838 48.2464 89.1708 48.535Z" fill="#93BBE1"/>
<path d="M91.2628 64.6845C92.7867 63.8008 94.3106 62.9262 95.8345 62.0425C96.3214 61.763 95.8796 61.0055 95.3927 61.285C93.8687 62.1687 92.3448 63.0434 90.8209 63.9271C90.334 64.2066 90.7758 64.9641 91.2628 64.6845Z" fill="#93BBE1"/>
<path d="M67.9532 78.1474C69.4771 77.2637 71.001 76.3891 72.5249 75.5054C73.0119 75.2258 72.57 74.4684 72.0831 74.7479C70.5592 75.6316 69.0353 76.5063 67.5113 77.39C67.0244 77.6695 67.4663 78.427 67.9532 78.1474Z" fill="#93BBE1"/>
<path d="M19.6481 52.0603C21.172 51.1766 22.6959 50.3019 24.2198 49.4182C24.7067 49.1387 24.2649 48.3812 23.778 48.6608C22.2541 49.5445 20.7301 50.4191 19.2062 51.3028C18.7193 51.5824 19.1611 52.3398 19.6481 52.0603Z" fill="#93BBE1"/>
<path d="M34.1838 49.0574L23.9763 43.1601V39.1384L34.1838 45.0267V49.0574Z" fill="#93BBE1"/>
<path d="M34.1837 49.0572L44.3371 43.196V39.1743L34.1837 45.0265V49.0572Z" fill="#6BA2D6"/>
<path d="M34.1837 49.0572L44.3371 43.196V39.1743L34.1837 45.0265V49.0572Z" fill="#6BA2D6"/>
<path d="M34.1838 45.0268L23.9763 39.1385L34.1207 33.2773L44.3372 39.1746L34.1838 45.0268Z" fill="#5493D2"/>
<path d="M10.8743 62.5115L0.666748 56.6232V52.5925L10.8743 58.4898V62.5115Z" fill="#93BBE1"/>
<path d="M10.8743 62.5113L21.0277 56.6591V52.6284L10.8743 58.4896V62.5113Z" fill="#6BA2D6"/>
<path d="M10.8742 58.4899L0.666748 52.5926L10.8111 46.7314L21.0276 52.6287L10.8742 58.4899Z" fill="#5493D2"/>
<path d="M80.866 49.0938L91.0103 43.2326V39.2109L80.866 45.0631V49.0938Z" fill="#6BA2D6"/>
<path d="M80.8659 45.0628V49.0935L70.6584 43.1962V39.1746L80.8659 45.0628Z" fill="#93BBE1"/>
<path d="M91.0103 39.2105L80.8659 45.0627L70.6584 39.1744L80.8028 33.3132L91.0103 39.2105Z" fill="#5493D2"/>
<path d="M80.9291 76.0465L91.0735 70.1853V66.1636L80.9291 72.0158V76.0465Z" fill="#6BA2D6"/>
<path d="M80.9291 72.0154V76.0461L70.7216 70.1489V66.1182L80.9291 72.0154Z" fill="#93BBE1"/>
<path d="M91.0735 66.1634L80.9291 72.0156L70.7216 66.1183L80.866 60.2661L91.0735 66.1634Z" fill="#5493D2"/>
<path d="M34.2471 76.0098L44.4005 70.1486V66.1179L34.2471 71.9791V76.0098Z" fill="#6BA2D6"/>
<path d="M34.2471 76.0098L44.4005 70.1486V66.1179L34.2471 71.9791V76.0098Z" fill="#6BA2D6"/>
<path d="M34.2469 71.9793V76.01L24.0394 70.1127V66.082L34.2469 71.9793Z" fill="#93BBE1"/>
<path d="M44.4003 66.118L34.2469 71.9792L24.0394 66.0819L34.1837 60.2297L44.4003 66.118Z" fill="#5493D2"/>
<path d="M34.1838 44.3958L23.9763 38.5075V34.4768L34.1838 40.3741V44.3958Z" fill="#93BBE1"/>
<path d="M34.1837 44.3956L44.3371 38.5434V34.5127L34.1837 40.3739V44.3956Z" fill="#6BA2D6"/>
<path d="M34.1837 44.3956L44.3371 38.5434V34.5127L34.1837 40.3739V44.3956Z" fill="#6BA2D6"/>
<path d="M34.1838 40.3742L23.9763 34.4769L34.1207 28.6157L44.3372 34.513L34.1838 40.3742Z" fill="#CEE0F2"/>
<path d="M10.8743 57.8579L0.666748 51.9606V47.9299L10.8743 53.8272V57.8579Z" fill="#93BBE1"/>
<path d="M10.8743 57.8589L21.0277 51.9977V47.967L10.8743 53.8282V57.8589Z" fill="#6BA2D6"/>
<path d="M10.8742 53.8281L0.666748 47.9308L10.8111 42.0786L21.0276 47.9669L10.8742 53.8281Z" fill="#CEE0F2"/>
<path d="M10.8742 52.6102L2.78577 47.9393L10.8201 43.3044L18.9086 47.9663L10.8742 52.6102Z" fill="#5493D2"/>
<path d="M80.866 44.4402L91.0103 38.579V34.5483L80.866 40.4095V44.4402Z" fill="#6BA2D6"/>
<path d="M80.8659 40.4097V44.4404L70.6584 38.5432V34.5125L80.8659 40.4097Z" fill="#93BBE1"/>
<path d="M91.0103 34.5489L80.8659 40.4101L70.6584 34.5128L80.8028 28.6516L91.0103 34.5489Z" fill="#CEE0F2"/>
<path d="M80.9291 71.3846L91.0735 65.5324V61.5017L80.9291 67.3629V71.3846Z" fill="#6BA2D6"/>
<path d="M80.9291 67.3626V71.3843L70.7216 65.496V61.4653L80.9291 67.3626Z" fill="#93BBE1"/>
<path d="M91.0735 61.5013L80.9291 67.3625L70.7216 61.4652L80.866 55.604L91.0735 61.5013Z" fill="#CEE0F2"/>
<path d="M104.239 62.5937L94.0222 56.6965V52.6658L104.239 58.563V62.5937Z" fill="#93BBE1"/>
<path d="M104.239 62.5928L114.383 56.7316V52.7009L104.239 58.5621V62.5928Z" fill="#6BA2D6"/>
<path d="M104.239 58.5619L94.0222 52.6647L104.176 46.8035L114.383 52.7007L104.239 58.5619Z" fill="#5493D2"/>
<path d="M104.239 57.9304L94.0222 52.0331V48.0024L104.239 53.8997V57.9304Z" fill="#93BBE1"/>
<path d="M104.239 57.931L114.383 52.0698V48.0481L104.239 53.9003V57.931Z" fill="#6BA2D6"/>
<path d="M104.239 53.9006L94.0222 48.0033L104.176 42.1511L114.383 48.0484L104.239 53.9006Z" fill="#CEE0F2"/>
<path d="M104.23 52.6827L96.1411 48.0118L104.184 43.377L112.264 48.0479L104.23 52.6827Z" fill="#5493D2"/>
<path d="M104.23 50.8257L96.1411 46.1547V42.1331L104.23 46.804V50.8257Z" fill="#93BBE1"/>
<path d="M104.23 50.8257L112.264 46.1909V42.1602L104.23 46.804V50.8257Z" fill="#6BA2D6"/>
<path d="M104.23 46.8041L96.1411 42.1331L104.184 37.4893L112.264 42.1602L104.23 46.8041Z" fill="#CEE0F2"/>
<path d="M107.512 42.1692L104.212 44.0718L100.902 42.1512L104.194 40.2485L107.512 42.1692Z" fill="#EBF2F9"/>
<path d="M57.6194 89.5005L47.4119 83.6032V79.5815L57.6194 85.4788V89.5005Z" fill="#93BBE1"/>
<path d="M57.6194 89.5003L67.7728 83.6481V79.6174L57.6194 85.4786V89.5003Z" fill="#6BA2D6"/>
<path d="M57.6195 85.4787L47.412 79.5814L57.5564 73.7202L67.7729 79.6175L57.6195 85.4787Z" fill="#5493D2"/>
<path d="M57.6194 84.8474L47.4119 78.9501V74.9194L57.6194 80.8167V84.8474Z" fill="#93BBE1"/>
<path d="M57.6194 84.8472L67.7728 78.986V74.9553L57.6194 80.8165V84.8472Z" fill="#6BA2D6"/>
<path d="M57.6195 80.8166L47.412 74.9193L57.5564 69.0581L67.7729 74.9554L57.6195 80.8166Z" fill="#CEE0F2"/>
<path d="M57.6104 79.5995L49.5309 74.9285L57.5653 70.2847L65.6537 74.9556L57.6104 79.5995Z" fill="#5493D2"/>
<path d="M57.6104 77.7419L49.5309 73.071V69.0403L57.6104 73.7112V77.7419Z" fill="#93BBE1"/>
<path d="M57.6104 77.7417L65.6537 73.0979V69.0762L57.6104 73.711V77.7417Z" fill="#6BA2D6"/>
<path d="M57.6104 73.7111L49.531 69.0401L57.5654 64.4053L65.6538 69.0762L57.6104 73.7111Z" fill="#CEE0F2"/>
<path d="M60.8929 69.0757L57.6016 70.9783L54.2833 69.0667L57.5836 67.1641L60.8929 69.0757Z" fill="#EBF2F9"/>
<path d="M34.2471 71.3482L44.4005 65.496V61.4653L34.2471 67.3265V71.3482Z" fill="#6BA2D6"/>
<path d="M34.2471 71.3482L44.4005 65.496V61.4653L34.2471 67.3265V71.3482Z" fill="#6BA2D6"/>
<path d="M34.2469 67.3267V71.3484L24.0394 65.4511V61.4294L34.2469 67.3267Z" fill="#93BBE1"/>
<path d="M44.4003 61.4656L34.2469 67.3268L24.0394 61.4296L34.1837 55.5684L44.4003 61.4656Z" fill="#CEE0F2"/>
<path d="M57.4934 35.6037L47.2859 29.7065V25.6758L57.4934 31.573V35.6037Z" fill="#93BBE1"/>
<path d="M57.4934 35.6036L67.6378 29.7424V25.7117L57.4934 31.5729V35.6036Z" fill="#6BA2D6"/>
<path d="M57.4934 31.5729L47.2859 25.6757L57.4303 19.8235L67.6378 25.7117L57.4934 31.5729Z" fill="#5493D2"/>
<path d="M57.4934 30.9421L47.2859 25.0449V21.0232L57.4934 26.9114V30.9421Z" fill="#93BBE1"/>
<path d="M57.4934 30.942L67.6378 25.0808V21.0591L57.4934 26.9113V30.942Z" fill="#6BA2D6"/>
<path d="M57.4934 26.9116L47.2859 21.0233L57.4303 15.1621L67.6378 21.0594L57.4934 26.9116Z" fill="#CEE0F2"/>
<path d="M57.4844 25.694L49.3959 21.023L57.4393 16.3882L65.5278 21.0591L57.4844 25.694Z" fill="#5493D2"/>
<path d="M57.4844 23.8366L49.396 19.1747V15.144L57.4844 19.815V23.8366Z" fill="#93BBE1"/>
<path d="M57.4844 23.8369L65.5277 19.2021V15.1714L57.4844 19.8153V23.8369Z" fill="#6BA2D6"/>
<path d="M57.4844 19.8148L49.3959 15.1439L57.4393 10.5L65.5278 15.1709L57.4844 19.8148Z" fill="#CEE0F2"/>
<path d="M60.7666 15.1795L57.4753 17.0821L54.157 15.1614L57.4483 13.2588L60.7666 15.1795Z" fill="#EBF2F9"/>
<path d="M10.8742 50.7532L2.78577 46.0822V42.0605L10.8742 46.7225V50.7532Z" fill="#93BBE1"/>
<path d="M10.8743 50.7537L18.9086 46.1098V42.0881L10.8743 46.723V50.7537Z" fill="#6BA2D6"/>
<path d="M10.8742 46.7225L2.78577 42.0606L10.8201 37.4167L18.9086 42.0877L10.8742 46.7225Z" fill="#CEE0F2"/>
<path d="M85.005 34.5399L80.848 36.9385L76.655 34.5219L80.821 32.1233L85.005 34.5399Z" fill="#EBF2F9"/>
<path d="M38.3318 34.5035L34.1658 36.9021L29.9818 34.4855L34.1388 32.0869L38.3318 34.5035Z" fill="#EBF2F9"/>
<path d="M85.1041 61.7987L80.9381 64.1973L76.7542 61.7806L80.9201 59.373L85.1041 61.7987Z" fill="#EBF2F9"/>
<path d="M38.3949 61.4564L34.229 63.855L30.045 61.4384L34.2019 59.0308L38.3949 61.4564Z" fill="#EBF2F9"/>
<path d="M14.1205 42.0779L10.8292 43.9806L7.51086 42.0689L10.8022 40.1663L14.1205 42.0779Z" fill="#EBF2F9"/>
<path d="M39.8375 41.9703C42.7681 43.6655 45.6987 45.3517 48.6293 47.047C49.1162 47.3265 49.558 46.5781 49.0711 46.2895C46.1405 44.5943 43.2099 42.9081 40.2793 41.2128C39.7924 40.9333 39.3505 41.6817 39.8375 41.9703Z" fill="#93BBE1"/>
<path d="M19.1791 61.9522C20.712 62.8359 22.2449 63.7286 23.7869 64.6123C24.2738 64.8918 24.7157 64.1434 24.2287 63.8548C22.6958 62.9711 21.1629 62.0784 19.6209 61.1947C19.134 60.9152 18.6921 61.6636 19.1791 61.9522Z" fill="#93BBE1"/>
<path d="M66.3302 52.0966C67.8541 51.213 69.378 50.3383 70.9019 49.4546C71.3889 49.1751 70.947 48.4176 70.4601 48.6971C68.9362 49.5808 67.4123 50.4555 65.8884 51.3392C65.4014 51.6187 65.8433 52.3762 66.3302 52.0966Z" fill="#93BBE1"/>
<path d="M65.8613 61.9886C67.3943 62.8723 68.9272 63.765 70.4691 64.6487C70.9561 64.9282 71.3979 64.1798 70.911 63.8912C69.378 63.0075 67.8451 62.1148 66.3032 61.2311C65.8162 60.9516 65.3744 61.7 65.8613 61.9886Z" fill="#93BBE1"/>
<path d="M42.5518 75.4515C44.0847 76.3351 45.6177 77.2278 47.1596 78.1115C47.6466 78.3911 48.0884 77.6426 47.6015 77.3541C46.0685 76.4704 44.5356 75.5777 42.9937 74.694C42.5067 74.4145 42.0649 75.1629 42.5518 75.4515Z" fill="#93BBE1"/>
<path d="M63.4671 66.0243C63.0404 66.0243 62.654 65.9321 62.3484 65.7533L45.2673 55.8922C44.8348 55.6442 44.5927 55.2463 44.5927 54.8023C44.5927 54.3179 44.881 53.8739 45.3885 53.5798L46.6744 52.8358C47.055 52.6167 47.5337 52.4956 48.0181 52.4956C48.4448 52.4956 48.8312 52.5879 49.1368 52.7666L66.2178 62.6277C66.6503 62.8757 66.8925 63.2736 66.8925 63.7176C66.8925 64.202 66.6042 64.6461 66.0967 64.9344L64.8108 65.6783C64.4302 65.8975 63.9515 66.0186 63.4671 66.0186V66.0243Z" fill="url(#paint0_linear_188_6625)"/>
<path d="M46.7493 48.1763C46.7205 48.5857 46.4149 49.047 46.0689 49.2027L43.5546 50.333C43.4046 50.4022 43.272 50.3965 43.174 50.3388L62.256 61.457C62.3541 61.5147 62.4867 61.5147 62.6366 61.4513L65.1509 60.321C65.4969 60.1653 65.7968 59.7097 65.8314 59.2945L46.7493 48.1763Z" fill="url(#paint1_linear_188_6625)"/>
<path d="M44.6617 47.698L43.7217 48.119C43.2257 48.3381 42.7875 49.0013 42.7471 49.5952L42.7183 49.9874C42.6952 50.3219 42.799 50.5641 42.9835 50.6679L62.0656 61.7861C61.8811 61.6765 61.7773 61.4343 61.8003 61.1056L61.8292 60.7135C61.8753 60.1195 62.3136 59.4621 62.8037 59.2372L63.7437 58.8162L44.6617 47.698Z" fill="url(#paint2_linear_188_6625)"/>
<path d="M70.5774 25.5019L51.4954 14.3836L51.5242 14.0549L70.6063 25.1732L70.5774 25.5019Z" fill="#B1B1B1"/>
<path d="M71.3271 22.0474L52.245 10.9292C52.4065 11.0215 52.4987 11.2348 52.4757 11.5289L52.3834 12.7572C52.343 13.2763 51.9567 13.8587 51.5242 14.0548L70.6062 25.173C71.0387 24.9769 71.4251 24.3945 71.4655 23.8755L71.5577 22.6472C71.5808 22.3531 71.4885 22.1397 71.3271 22.0474Z" fill="url(#paint3_linear_188_6625)"/>
<path d="M65.8313 59.3L46.7493 48.176L49.4481 12.8894L68.5302 24.0076L65.8313 59.3Z" fill="url(#paint4_linear_188_6625)"/>
<path d="M70.8656 21.7304C71.448 21.4709 71.8805 21.8284 71.8286 22.5262L71.7364 23.7545C71.6845 24.458 71.1655 25.2423 70.5773 25.5018L70.6003 25.1731C71.0328 24.977 71.4192 24.3946 71.4596 23.8756L71.5518 22.6473C71.5922 22.1283 71.2692 21.863 70.8367 22.0533L69.6546 22.5839C69.2221 22.7799 68.8357 23.3624 68.7953 23.8814L66.0965 59.1737C66.0504 59.7677 65.6121 60.4251 65.1219 60.65L62.6076 61.7802C62.1117 61.9994 61.7484 61.6995 61.7945 61.1055L61.8234 60.7134C61.8695 60.1194 62.3078 59.4562 62.798 59.2371L63.7379 58.8161L63.7149 59.1448L62.7749 59.5658C62.4289 59.7215 62.129 60.1771 62.0944 60.5923L62.0656 60.9844C62.0367 61.3939 62.2905 61.6072 62.6307 61.4515L65.145 60.3213C65.491 60.1656 65.7909 59.71 65.8255 59.2948L68.5243 24.0025C68.5762 23.2989 69.0952 22.5204 69.6834 22.2552L70.8656 21.7246V21.7304Z" fill="#E4E7ED"/>
<path d="M52.4353 10.6009C52.2681 10.5028 52.0374 10.4971 51.7837 10.6124L50.6015 11.1429C50.019 11.4024 49.5 12.1867 49.4424 12.8903L68.5245 24.0085C68.5764 23.3049 69.0953 22.5264 69.6835 22.2612L70.8657 21.7306C71.1195 21.6153 71.3444 21.6211 71.5174 21.7191L52.4353 10.6009Z" fill="url(#paint5_linear_188_6625)"/>
<path d="M63.1037 30.5066L53.7674 25.0629C53.5021 24.9072 53.3118 24.492 53.3407 24.1344C53.3695 23.7769 53.6117 23.6154 53.877 23.7653L63.2133 29.2091C63.4785 29.3648 63.6689 29.78 63.64 30.1376C63.6112 30.4951 63.369 30.6566 63.1037 30.5066Z" fill="#CFD8DB"/>
<path d="M64.58 36.9486L51.4031 29.2616C51.1378 29.1059 50.9475 28.6907 50.9763 28.3331C51.0052 27.9756 51.2474 27.8141 51.5126 27.9641L64.6896 35.6511C64.9549 35.8068 65.1452 36.222 65.1163 36.5795C65.0875 36.9371 64.8453 37.0986 64.58 36.9486Z" fill="#CFD8DB"/>
<path d="M64.3263 39.9987L51.1493 32.3116C50.8841 32.1559 50.6938 31.7407 50.7226 31.3832C50.7514 31.0257 50.9936 30.8642 51.2589 31.0141L64.4359 38.7012C64.7011 38.8569 64.8914 39.2721 64.8626 39.6296C64.8338 39.9871 64.5916 40.1486 64.3263 39.9987Z" fill="#CFD8DB"/>
<path d="M61.3161 41.4407L50.8898 35.3568C50.6246 35.2011 50.4343 34.7859 50.4631 34.4284C50.4919 34.0708 50.7341 33.9094 50.9994 34.0593L61.4256 40.1432C61.6909 40.2989 61.8812 40.7141 61.8524 41.0716C61.8235 41.4292 61.5813 41.5906 61.3161 41.4407Z" fill="#CFD8DB"/>
<path d="M63.8131 46.1005L50.6361 38.4134C50.3708 38.2577 50.1805 37.8425 50.2094 37.485C50.2382 37.1275 50.4804 36.966 50.7457 37.1159L63.9226 44.803C64.1879 44.9587 64.3782 45.3739 64.3494 45.7314C64.3205 46.0889 64.0783 46.2504 63.8131 46.1005Z" fill="#CFD8DB"/>
<path d="M54.4075 43.8109L50.3765 41.4581C50.1113 41.3024 49.921 40.8872 49.9498 40.5297C49.9786 40.1721 50.2208 40.0107 50.4861 40.1606L54.517 42.5134C54.7823 42.6691 54.9726 43.0843 54.9438 43.4419C54.9149 43.7994 54.6727 43.9609 54.4075 43.8109Z" fill="#CFD8DB"/>
<path d="M63.5477 55.5527C62.7115 55.4085 62.4058 54.8722 62.2501 54.4627C62.1463 54.4627 62.0598 54.4627 62.0252 54.4512C61.3851 54.3647 60.8892 54.0821 60.5432 53.6208C60.2491 53.2229 60.0992 52.7789 60.1453 52.4329C60.0992 52.3867 60.0588 52.3406 60.0127 52.3002C59.9723 52.5251 59.8281 52.6981 59.5801 52.8019C59.0554 53.0268 58.3864 52.8827 57.8328 52.4271C57.5618 52.2022 57.3138 51.8966 57.112 51.5448C56.9102 51.1872 56.8813 50.7605 57.0313 50.4895C57.1581 50.2588 57.4061 50.2473 57.5849 50.2415C58.15 50.253 58.669 50.6509 59.1476 51.0777C59.3725 51.2795 59.534 51.4871 59.7012 51.712C59.7531 51.7812 59.8108 51.8562 59.8685 51.9254C59.8108 51.6717 59.6609 51.3718 59.4245 51.02L59.3437 50.9047C59.09 50.5356 58.8305 50.1492 58.7613 49.734C58.7094 49.4457 58.7613 49.1862 58.9055 48.9901C59.0266 48.8287 59.1995 48.7306 59.3956 48.7076C59.6147 48.6845 59.7877 48.7537 59.9896 48.8633C60.1568 48.9555 60.3529 49.0766 60.5144 49.2669C60.6585 49.4399 60.7969 49.734 60.7566 49.9589L60.6297 49.9359C60.6585 49.7802 60.572 49.538 60.4163 49.3534C60.2664 49.1747 60.0876 49.0709 59.9262 48.9786C59.7128 48.8575 59.5744 48.8229 59.4129 48.8402C59.2572 48.8575 59.113 48.9382 59.015 49.0709C58.8939 49.2323 58.8478 49.463 58.8939 49.711C58.9631 50.1031 59.2169 50.4722 59.4591 50.8355L59.5398 50.9508C59.8512 51.4179 60.0184 51.81 60.03 52.1215C60.0761 52.1734 60.128 52.231 60.1799 52.2887C60.226 52.1503 60.3068 52.0407 60.4221 51.96C60.5317 51.885 60.647 51.8158 60.7854 51.7812C61.0449 51.7178 61.4197 51.8216 61.7023 52.035C62.0714 52.3118 62.204 52.7616 61.9906 53.0614C61.9214 53.1595 61.8119 53.2229 61.6792 53.2402C61.3736 53.2863 60.9469 53.1018 60.4798 52.7327C60.4048 52.6751 60.3356 52.6116 60.2722 52.554C60.2722 52.8538 60.4106 53.2171 60.6528 53.5458C60.9757 53.9841 61.4313 54.2378 62.0425 54.3243C62.0714 54.3243 62.1348 54.3359 62.204 54.3359C62.0887 53.9668 62.0944 53.5862 62.2271 53.3094C62.302 53.1479 62.5327 52.825 62.798 52.825H62.8037C62.9594 52.825 63.0863 52.9403 63.1728 53.1595C63.2824 53.4305 63.2536 53.7707 63.1555 53.9495C62.9652 54.3013 62.6423 54.4224 62.3828 54.457C62.5327 54.8318 62.821 55.3047 63.565 55.4258L63.5419 55.5584L63.5477 55.5527ZM62.798 52.9519C62.625 52.9519 62.4231 53.1941 62.3482 53.3613C62.2328 53.615 62.2328 53.9783 62.3482 54.3243C62.5788 54.2955 62.8787 54.1975 63.046 53.8803C63.1267 53.7361 63.1497 53.4363 63.0575 53.2056C62.9883 53.0384 62.9018 52.9576 62.8037 52.9519H62.798ZM60.2895 52.3867C60.3702 52.4675 60.4625 52.5424 60.5605 52.6232C61.1487 53.096 61.5005 53.1306 61.6562 53.1018C61.7542 53.0903 61.8292 53.0441 61.8811 52.9749C62.0483 52.7327 61.933 52.3637 61.6216 52.1272C61.3678 51.9427 61.0334 51.8447 60.8142 51.8966C60.6989 51.9254 60.5893 51.9888 60.4971 52.058C60.3875 52.133 60.3183 52.2426 60.2895 52.381V52.3867ZM57.5618 50.3741C57.3427 50.3741 57.2158 50.4318 57.1466 50.5529C57.0197 50.7836 57.0543 51.1642 57.2273 51.4756C57.4119 51.8101 57.6598 52.1099 57.9136 52.3175C58.4326 52.7443 59.0496 52.8827 59.5283 52.6751C59.7416 52.5828 59.857 52.4444 59.8858 52.2541C59.8858 52.2253 59.8916 52.1964 59.8916 52.1618C59.782 52.035 59.6897 51.9081 59.5917 51.787C59.4244 51.5679 59.2687 51.366 59.0554 51.1699C58.5998 50.7605 58.1039 50.3741 57.5791 50.3684C57.5733 50.3684 57.5676 50.3684 57.556 50.3684L57.5618 50.3741Z" fill="#818489"/>
<path d="M44.7713 16.6157C44.9039 17.7806 45.3364 19.0781 46.0515 20.3295C46.7724 21.5808 47.672 22.6016 48.6062 23.2936L49.8864 25.5195L51.23 24.741C53.0004 23.703 53.0004 20.3698 51.23 17.2846C49.4596 14.2052 46.5878 12.5444 44.8117 13.5824L43.468 14.3609L44.7655 16.6157H44.7713Z" fill="url(#paint6_linear_188_6625)"/>
<path d="M49.8921 18.0632C51.6625 21.1426 51.6625 24.4816 49.8921 25.5196C48.1218 26.5576 45.2499 24.8968 43.4738 21.8173C41.7034 18.7379 41.7034 15.399 43.4738 14.361C45.2442 13.323 48.116 14.9838 49.8921 18.0632Z" fill="#EFF4F9"/>
<path d="M49.2867 18.4206C50.7226 20.9233 50.7226 23.6279 49.2867 24.4698C47.8507 25.3118 45.521 23.9624 44.0793 21.4654C42.6434 18.9626 42.6434 16.258 44.0793 15.4161C45.5152 14.5742 47.845 15.9236 49.2867 18.4206Z" fill="#3385FF"/>
<path d="M46.7436 22.4349L46.2938 22.6944C46.2938 22.6944 46.3341 22.6713 46.3514 22.654L46.8012 22.3945C46.8012 22.3945 46.7609 22.4234 46.7436 22.4349Z" fill="#C6C0D0"/>
<path d="M43.6411 18.5022L44.0909 18.2427C44.2466 18.1504 44.4484 18.1792 44.656 18.3003C44.8463 18.4099 45.0309 18.5944 45.1866 18.8366L44.7368 19.0961C44.5869 18.8539 44.3965 18.6694 44.2062 18.5598C43.9986 18.4445 43.7968 18.4157 43.6411 18.5022Z" fill="#D3E1FC"/>
<path d="M44.731 19.0956L45.1808 18.8303L46.0169 20.1797L45.5671 20.4392L44.731 19.0956Z" fill="#D3E1FC"/>
<path d="M48.6465 20.7858L49.0963 20.5205L46.8011 22.3947L46.3513 22.6542L48.6465 20.7858Z" fill="#D3E1FC"/>
<path d="M47.4758 18.8879L47.9256 18.6284C48.0813 18.5361 48.2832 18.565 48.4908 18.6861L48.041 18.9456C47.8334 18.8245 47.6315 18.8014 47.4758 18.8879Z" fill="#D3E1FC"/>
<path d="M48.041 18.946L48.4908 18.6865C48.6696 18.7903 48.8484 18.9576 48.9925 19.1825C49.3328 19.6957 49.3789 20.3012 49.0963 20.5261L48.6465 20.7856C48.9291 20.5607 48.8772 19.961 48.5427 19.442C48.3986 19.2171 48.2198 19.0498 48.041 18.946Z" fill="#D3E1FC"/>
<path d="M48.0411 18.9458C48.2199 19.0496 48.3986 19.2168 48.5428 19.4417C48.883 19.955 48.9292 20.5605 48.6466 20.7854L46.3514 22.6538C46.1669 22.8037 45.8959 22.7806 45.6306 22.6307C45.4115 22.5038 45.1866 22.2847 45.0078 21.9964L43.6699 19.8396C43.347 19.3148 43.3182 18.7266 43.6123 18.519C43.768 18.4095 43.9871 18.4325 44.2005 18.5594C44.3908 18.669 44.5753 18.8535 44.731 19.0957L45.5614 20.4394L47.4241 18.9227C47.5798 18.7958 47.8104 18.8131 48.0353 18.9458H48.0411Z" fill="white"/>
<defs>
<linearGradient id="paint0_linear_188_6625" x1="44.5927" y1="59.26" x2="66.8983" y2="59.26" gradientUnits="userSpaceOnUse">
<stop offset="0.21" stop-color="#F3F4F5"/>
<stop offset="0.79" stop-color="#E8E9EC"/>
<stop offset="1" stop-color="#E4E5E9"/>
</linearGradient>
<linearGradient id="paint1_linear_188_6625" x1="53.6117" y1="56.4688" x2="55.4859" y2="53.2221" gradientUnits="userSpaceOnUse">
<stop offset="0.28" stop-color="#B1B1B1"/>
<stop offset="0.88" stop-color="#F1F1F2"/>
</linearGradient>
<linearGradient id="paint2_linear_188_6625" x1="52.1065" y1="56.0424" x2="53.8538" y2="53.0091" gradientUnits="userSpaceOnUse">
<stop offset="0.14" stop-color="#D5D5D5"/>
<stop offset="0.67" stop-color="#F2F2F2"/>
</linearGradient>
<linearGradient id="paint3_linear_188_6625" x1="60.7394" y1="19.4755" x2="62.3137" y2="16.7478" gradientUnits="userSpaceOnUse">
<stop offset="0.28" stop-color="#B1B1B1"/>
<stop offset="0.81" stop-color="#9D9D9D"/>
</linearGradient>
<linearGradient id="paint4_linear_188_6625" x1="46.7493" y1="36.0947" x2="68.5302" y2="36.0947" gradientUnits="userSpaceOnUse">
<stop stop-color="#EAECEF"/>
<stop offset="0.67" stop-color="#F2F2F2"/>
</linearGradient>
<linearGradient id="paint5_linear_188_6625" x1="59.5053" y1="18.7954" x2="61.2872" y2="15.7102" gradientUnits="userSpaceOnUse">
<stop offset="0.15" stop-color="#F2F2F2"/>
<stop offset="0.54" stop-color="#F9F9F9"/>
</linearGradient>
<linearGradient id="paint6_linear_188_6625" x1="51.8644" y1="24.3835" x2="45.4287" y2="13.2306" gradientUnits="userSpaceOnUse">
<stop offset="0.11" stop-color="#A7D1FF"/>
<stop offset="0.64" stop-color="#E3ECF5"/>
<stop offset="0.81" stop-color="#E0EBF5"/>
<stop offset="0.89" stop-color="#D9E7F6"/>
<stop offset="0.95" stop-color="#CDE2F8"/>
<stop offset="0.99" stop-color="#BBDAFB"/>
<stop offset="1" stop-color="#B8D9FC"/>
</linearGradient>
</defs>
</svg>
