<svg width="122" height="100" viewBox="0 0 122 100" fill="none" xmlns="http://www.w3.org/2000/svg">
<g clip-path="url(#clip0_188_7120)">
<path d="M59.1422 89.6084L58.8769 94.0511L1.05878 60.7987V55.9314L59.1422 89.6084Z" fill="#A0CFFF"/>
<path d="M123.068 57.0869L58.8769 94.0511L59.1422 89.6084L59.2748 89.6843L123.005 52.3801L123.068 57.0869Z" fill="#C0DFFF"/>
<path d="M123.079 52.3466L123.005 52.3904L97.2245 67.4825L95.7713 68.3316L91.1041 71.0644L89.6494 71.9164L59.3506 89.6508L59.3404 89.6464L59.2179 89.5749L35.6721 75.936L34.2174 75.0942L29.3986 72.3031L27.9483 71.4627L1.05878 55.9314L31.862 37.6937L33.3254 36.8577L38.9881 33.6275L40.4559 32.79L65.1285 18.7148L91.1537 33.8171L92.5967 34.6561L97.6705 37.6004L99.1106 38.4364L121.278 51.3005L123.079 52.3466Z" fill="#E3F0FF"/>
<path d="M91.4378 40.8512C91.4335 40.8658 91.4306 40.879 91.4262 40.8935C91.3854 41.0132 91.3227 41.1299 91.2469 41.2452C91.2338 41.2656 91.2207 41.286 91.2061 41.3064C91.123 41.4202 91.0239 41.5311 90.9073 41.6376C90.83 41.7062 90.7338 41.769 90.642 41.8346C90.5633 41.8901 90.4977 41.9499 90.4088 42.0009L73.1597 52.0346L73.1306 62.4009L90.3796 52.3672C90.3957 52.3585 90.4102 52.3497 90.4263 52.3395C90.4977 52.2958 90.5487 52.2462 90.6129 52.2009C90.7047 52.1353 90.8023 52.0725 90.8781 52.004C90.8854 51.9967 90.8956 51.9923 90.9029 51.985C90.9904 51.9033 91.0691 51.8187 91.1376 51.7326C91.1522 51.7136 91.1638 51.6932 91.1784 51.6728C91.193 51.6523 91.2061 51.6319 91.2207 51.61C91.244 51.575 91.2702 51.5414 91.2906 51.5064C91.33 51.4364 91.3635 51.3634 91.3912 51.292C91.3956 51.2803 91.397 51.2701 91.4014 51.2584C91.4058 51.2453 91.4087 51.2307 91.4131 51.2175C91.4276 51.1709 91.4437 51.1256 91.4524 51.0789C91.467 51.0074 91.4757 50.9345 91.4772 50.863C91.4772 50.8513 91.4772 50.8411 91.4772 50.8294L91.5064 40.4631C91.5064 40.593 91.4816 40.7228 91.4422 40.8512H91.4378Z" fill="#DAECFF"/>
<path d="M50.4636 42.0009C49.7188 41.5705 49.3486 41.0073 49.35 40.4441L49.3209 50.8104C49.3194 51.3736 49.6896 51.9382 50.4345 52.3672L67.7929 62.3994L67.822 52.0331L50.4636 42.0009Z" fill="#DAECFF"/>
<path d="M73.1291 62.3993L73.1582 52.033C72.995 52.1278 72.8157 52.2095 72.632 52.2825C72.5839 52.3014 72.5358 52.3204 72.4863 52.3379C72.3726 52.3787 72.2516 52.4123 72.1321 52.4459C72.0082 52.4809 71.8828 52.513 71.7546 52.5407C71.6044 52.5713 71.4529 52.5991 71.2969 52.6195C71.259 52.6239 71.2226 52.6312 71.1847 52.6355C70.9748 52.6574 70.7634 52.6691 70.5506 52.6706C70.5171 52.6706 70.4836 52.6706 70.45 52.6706C70.2401 52.6691 70.0302 52.6574 69.8233 52.6355C69.7912 52.6326 69.7606 52.6282 69.73 52.6253C69.5245 52.6005 69.3219 52.5655 69.1236 52.5217C69.0872 52.513 69.0522 52.5042 69.0158 52.4955C68.8365 52.4517 68.6616 52.3977 68.4925 52.3364C68.4619 52.3248 68.4298 52.316 68.3992 52.3058C68.1966 52.227 68.0027 52.138 67.8235 52.0344L67.7943 62.4007C67.9648 62.4985 68.147 62.586 68.338 62.6619C68.3482 62.6663 68.3584 62.6692 68.3686 62.6721C68.3992 62.6838 68.4313 62.6925 68.4633 62.7042C68.5727 62.7436 68.682 62.7845 68.7971 62.8165C68.8598 62.8341 68.9239 62.8472 68.9866 62.8632C69.0231 62.872 69.058 62.8807 69.0945 62.8895C69.1265 62.8968 69.1586 62.907 69.1907 62.9128C69.3131 62.9391 69.4385 62.9595 69.5653 62.9785C69.6105 62.9843 69.6556 62.9887 69.7008 62.9931C69.7329 62.9975 69.7635 63.0004 69.7956 63.0033C69.8408 63.0077 69.8859 63.015 69.9311 63.0179C70.055 63.0281 70.1789 63.0339 70.3028 63.0383C70.3422 63.0383 70.3815 63.0383 70.4209 63.0383C70.4544 63.0383 70.4879 63.0383 70.5229 63.0383C70.5783 63.0383 70.6337 63.0383 70.6905 63.0383C70.8305 63.0339 70.9704 63.0237 71.1089 63.0106C71.1249 63.0091 71.1409 63.0062 71.157 63.0033C71.1949 62.9989 71.2328 62.9931 71.2707 62.9873C71.3771 62.9741 71.4849 62.961 71.5899 62.9435C71.6365 62.9347 71.6802 62.9187 71.7254 62.9099C71.8551 62.8837 71.979 62.8501 72.1044 62.8151C72.17 62.7961 72.24 62.7859 72.3041 62.7655C72.3566 62.748 72.4061 62.7261 72.4571 62.7071C72.5067 62.6896 72.5562 62.6707 72.6043 62.6517C72.788 62.5773 72.9658 62.497 73.1305 62.4022L73.1291 62.3993Z" fill="#C0DFFF"/>
<path d="M90.39 38.9048C91.8709 39.7598 91.8739 41.1459 90.4075 41.9979L73.1585 52.0316C71.6921 52.8851 69.3031 52.8866 67.8222 52.0316L50.4638 42.0009C48.9829 41.1459 48.98 39.7598 50.4463 38.9077L67.6954 28.8741C69.1617 28.0206 71.5507 28.0191 73.0316 28.8741L90.39 38.9048Z" fill="#E3F0FF"/>
<path d="M79.1897 52.6064L76.3022 54.3062C76.1419 54.401 76.0093 54.347 76.0093 54.1851C76.0093 54.0246 76.1405 53.8145 76.3022 53.7196L79.1897 52.0199C79.3501 51.9251 79.4827 51.979 79.4827 52.141C79.4827 52.3015 79.3515 52.5116 79.1897 52.6064Z" fill="#0160C0"/>
<path d="M83.7593 49.9145L80.8718 51.6143C80.7114 51.7091 80.5788 51.6551 80.5788 51.4932C80.5788 51.3327 80.71 51.1226 80.8718 51.0277L83.7593 49.328C83.9196 49.2332 84.0522 49.2871 84.0522 49.4491C84.0522 49.6096 83.921 49.8197 83.7593 49.9145Z" fill="#0160C0"/>
<path d="M88.3302 47.2241L85.4428 48.9238C85.2824 49.0187 85.1498 48.9647 85.1498 48.8027C85.1498 48.6423 85.281 48.4322 85.4428 48.3373L88.3302 46.6376C88.4906 46.5427 88.6232 46.5967 88.6232 46.7587C88.6232 46.9192 88.492 47.1293 88.3302 47.2241Z" fill="#0160C0"/>
<path d="M79.1897 54.0305L76.3022 55.7302C76.1419 55.8251 76.0093 55.7711 76.0093 55.6091C76.0093 55.4486 76.1405 55.2385 76.3022 55.1437L79.1897 53.444C79.3501 53.3491 79.4827 53.4031 79.4827 53.5651C79.4827 53.727 79.3515 53.9356 79.1897 54.0305Z" fill="#0160C0"/>
<path d="M83.7593 51.3401L80.8718 53.0398C80.7114 53.1346 80.5788 53.0807 80.5788 52.9187C80.5788 52.7582 80.71 52.5481 80.8718 52.4533L83.7593 50.7535C83.9196 50.6587 84.0522 50.7127 84.0522 50.8746C84.0522 51.0351 83.921 51.2452 83.7593 51.3401Z" fill="#0160C0"/>
<path d="M88.3302 48.6496L85.4428 50.3494C85.2824 50.4442 85.1498 50.3902 85.1498 50.2283C85.1498 50.0678 85.281 49.8577 85.4428 49.7629L88.3302 48.0631C88.4906 47.9683 88.6232 48.0222 88.6232 48.1842C88.6232 48.3447 88.492 48.5548 88.3302 48.6496Z" fill="#0160C0"/>
<path d="M79.1897 55.4558L76.3022 57.1555C76.1419 57.2504 76.0093 57.1964 76.0093 57.0344C76.0093 56.8739 76.1405 56.6638 76.3022 56.569L79.1897 54.8693C79.3501 54.7744 79.4827 54.8284 79.4827 54.9904C79.4827 55.1508 79.3515 55.3609 79.1897 55.4558Z" fill="#0160C0"/>
<path d="M83.7593 52.7639L80.8718 54.4636C80.7114 54.5585 80.5788 54.5045 80.5788 54.3425C80.5788 54.182 80.71 53.9719 80.8718 53.8771L83.7593 52.1774C83.9196 52.0825 84.0522 52.1365 84.0522 52.2985C84.0522 52.4589 83.921 52.669 83.7593 52.7639Z" fill="#0160C0"/>
<path d="M88.3302 50.0735L85.4428 51.7732C85.2824 51.868 85.1498 51.8141 85.1498 51.6521C85.1498 51.4916 85.281 51.2815 85.4428 51.1867L88.3302 49.4869C88.4906 49.3921 88.6232 49.4461 88.6232 49.608C88.6232 49.7685 88.492 49.9786 88.3302 50.0735Z" fill="#0160C0"/>
<path d="M64.0104 51.9529C64.0104 51.9456 64.0104 51.9383 64.0104 51.9296C64.0104 51.9208 64.0104 51.915 64.0089 51.9062C64.0075 51.8975 64.0075 51.8902 64.006 51.8829C64.006 51.8756 64.0031 51.8668 64.0031 51.8595V51.8581C64.0031 51.8508 64.0002 51.8435 63.9987 51.8362C63.9973 51.8274 63.9958 51.8201 63.9944 51.8114C63.9929 51.8026 63.99 51.7953 63.9885 51.7866C63.9871 51.7778 63.9842 51.7705 63.9827 51.7618C63.9813 51.7545 63.9783 51.7472 63.9769 51.7414C63.9769 51.7399 63.9769 51.7384 63.9769 51.7384C63.974 51.7297 63.9725 51.7224 63.9696 51.7136C63.9667 51.7063 63.9638 51.6976 63.9608 51.6888C63.9579 51.6815 63.955 51.6728 63.9521 51.6655C63.9492 51.6582 63.9463 51.6494 63.9434 51.6421C63.9404 51.6363 63.9375 51.6305 63.9361 51.6232C63.9361 51.6232 63.9361 51.6217 63.9361 51.6203C63.9332 51.613 63.9288 51.6042 63.9259 51.5969C63.9215 51.5882 63.9186 51.5809 63.9142 51.5721C63.9098 51.5619 63.904 51.5531 63.8996 51.5429C63.8938 51.5327 63.888 51.5225 63.8821 51.5123C63.8821 51.5108 63.8807 51.5094 63.8792 51.5065C63.8792 51.505 63.8763 51.5021 63.8763 51.5006C63.8646 51.4816 63.853 51.4627 63.8413 51.4437C63.8311 51.4291 63.8209 51.4145 63.8107 51.4014C63.8034 51.3927 63.7961 51.3824 63.7888 51.3737C63.783 51.3664 63.7772 51.3591 63.7699 51.3518C63.7641 51.3445 63.7582 51.3372 63.7509 51.3299C63.7451 51.3226 63.7393 51.3153 63.732 51.3095L63.7291 51.3066C63.7291 51.3066 63.7291 51.3066 63.7276 51.3051C63.7233 51.2993 63.7174 51.2949 63.7131 51.2891C63.7072 51.2818 63.6999 51.2759 63.6926 51.2686C63.6854 51.2613 63.6795 51.2555 63.6722 51.2497C63.665 51.2438 63.6577 51.238 63.6504 51.2307C63.6475 51.2278 63.6431 51.2249 63.6402 51.2219C63.6402 51.2219 63.6387 51.2219 63.6373 51.2205C63.6343 51.2176 63.6314 51.2161 63.6285 51.2132C63.6212 51.2074 63.6154 51.203 63.6081 51.1971C63.6008 51.1928 63.595 51.1869 63.5877 51.1826C63.5819 51.1782 63.5746 51.1738 63.5673 51.1694C63.5615 51.165 63.5542 51.1607 63.5469 51.1577C63.5454 51.1577 63.544 51.1563 63.5425 51.1548L54.0988 45.7258C54.0988 45.7258 54.0886 45.72 54.0842 45.7171C54.0784 45.7142 54.0711 45.7098 54.0653 45.7069C54.0595 45.7039 54.0522 45.701 54.0463 45.6981C54.0405 45.6952 54.0332 45.6923 54.0274 45.6908C54.0216 45.6879 54.0143 45.6864 54.0084 45.6835C54.007 45.6835 54.0055 45.6835 54.0041 45.6835H54.0026C54.0026 45.6835 53.9939 45.6806 53.9895 45.6791C53.9822 45.6777 53.9764 45.6748 53.9705 45.6733C53.9633 45.6718 53.9574 45.6704 53.9516 45.6689C53.9443 45.6689 53.937 45.666 53.9312 45.666C53.9268 45.666 53.921 45.666 53.9166 45.6646C53.9152 45.6646 53.9137 45.6646 53.9137 45.6646C53.905 45.6646 53.8977 45.6646 53.8904 45.6646C53.8816 45.6646 53.8743 45.6646 53.8656 45.6646C53.8569 45.6646 53.8467 45.6675 53.8379 45.6689H53.8364C53.8262 45.6718 53.816 45.6748 53.8058 45.6777C53.7927 45.6821 53.7796 45.6879 53.7679 45.6952L53.252 46.0045C53.2738 45.9928 53.2971 45.9841 53.3219 45.9782C53.3467 45.9724 53.3729 45.9709 53.4021 45.9739C53.4312 45.9768 53.4604 45.9826 53.4895 45.9928C53.4895 45.9928 53.4895 45.9928 53.491 45.9928C53.5216 46.003 53.5537 46.0176 53.5857 46.0366L63.0294 51.4656C63.0615 51.4846 63.0936 51.5065 63.1242 51.5313C63.1242 51.5313 63.1256 51.5327 63.1271 51.5327C63.1577 51.5575 63.1869 51.5852 63.2131 51.6144C63.2131 51.6144 63.2131 51.6144 63.2146 51.6159C63.2423 51.6465 63.2699 51.6786 63.2947 51.7122C63.3195 51.7457 63.3428 51.7807 63.3632 51.8172C63.3632 51.8187 63.3647 51.8201 63.3661 51.8231C63.3866 51.8595 63.4055 51.896 63.4215 51.9339C63.4376 51.9719 63.4521 52.0113 63.4653 52.0507C63.4769 52.0901 63.4857 52.1295 63.493 52.1674C63.4988 52.2068 63.5032 52.2462 63.5017 52.2827C63.5017 52.3191 63.4988 52.3541 63.4915 52.3848C63.4915 52.3848 63.4915 52.3862 63.4915 52.3877C63.4857 52.4183 63.4769 52.4461 63.4653 52.4723C63.4551 52.4927 63.4434 52.5103 63.4303 52.5278C63.4259 52.5336 63.4215 52.5394 63.4172 52.5438C63.4011 52.5599 63.3851 52.5759 63.3647 52.5861L63.8807 52.2768C63.8996 52.2651 63.9171 52.2506 63.9331 52.2345C63.9375 52.2287 63.9419 52.2243 63.9463 52.2185C63.9521 52.2112 63.9579 52.2053 63.9638 52.1966C63.9696 52.1864 63.9769 52.1761 63.9813 52.1645C63.9856 52.1572 63.9885 52.1484 63.9915 52.1397C63.9944 52.1324 63.9973 52.1236 64.0002 52.1149C64.0031 52.1076 64.0046 52.0988 64.006 52.0901C64.006 52.0871 64.006 52.0828 64.0075 52.0798C64.0075 52.0798 64.0075 52.0784 64.0075 52.0769C64.0075 52.074 64.0089 52.0696 64.0089 52.0667C64.0089 52.0594 64.0119 52.0521 64.0119 52.0448C64.0119 52.0375 64.0133 52.0302 64.0148 52.0215C64.0148 52.0142 64.0148 52.0069 64.0162 51.9996C64.0162 51.9923 64.0162 51.985 64.0162 51.9763C64.0162 51.969 64.0162 51.9617 64.0162 51.9544L64.0104 51.9529Z" fill="#0160C0"/>
<path d="M63.0222 51.4642C63.2831 51.6159 63.4959 51.9836 63.4959 52.2827C63.4959 52.5833 63.2816 52.7058 63.0192 52.5541L53.5755 47.1251C53.3146 46.9748 53.1018 46.6057 53.1033 46.3051C53.1033 46.006 53.3175 45.8835 53.5785 46.0337L63.0222 51.4642Z" fill="white"/>
<path d="M63.0221 51.4643L53.5784 46.0353C53.4502 45.9609 53.3321 45.9536 53.2476 46.0002C53.3277 45.9769 53.4254 45.993 53.5318 46.0542L62.9755 51.4832C63.2364 51.635 63.4492 52.0026 63.4492 52.3032C63.4492 52.4549 63.3938 52.5614 63.3049 52.6096C63.4201 52.576 63.4958 52.4622 63.4958 52.2842C63.4958 51.9837 63.2845 51.616 63.0236 51.4643H63.0221Z" fill="white"/>
<path d="M64.0104 54.5076C64.0104 54.5003 64.0104 54.493 64.0104 54.4857C64.0104 54.4784 64.0104 54.4697 64.009 54.4624C64.009 54.4551 64.0075 54.4463 64.006 54.439C64.006 54.4317 64.0031 54.423 64.0031 54.4157C64.0031 54.4157 64.0031 54.4157 64.0031 54.4142C64.0031 54.4069 64.0002 54.3996 63.9987 54.3923C63.9973 54.3836 63.9958 54.3763 63.9944 54.3675C63.9929 54.3588 63.99 54.3515 63.9885 54.3427C63.9871 54.334 63.9842 54.3267 63.9827 54.3179C63.9813 54.3106 63.9783 54.3033 63.9769 54.2975C63.9769 54.2975 63.9769 54.296 63.9769 54.2946C63.974 54.2858 63.9725 54.2785 63.9696 54.2698C63.9667 54.261 63.9638 54.2537 63.9608 54.245C63.9579 54.2377 63.955 54.2289 63.9521 54.2216C63.9492 54.2143 63.9463 54.2056 63.9434 54.1983C63.9404 54.1925 63.9375 54.1866 63.9361 54.1793C63.9361 54.1793 63.9361 54.1779 63.9361 54.1764C63.9332 54.1691 63.9288 54.1604 63.9259 54.1531C63.9215 54.1443 63.9186 54.137 63.9142 54.1283C63.9098 54.118 63.904 54.1093 63.8996 54.0991C63.8938 54.0889 63.888 54.0786 63.8821 54.0684C63.8821 54.067 63.8807 54.0655 63.8792 54.0626C63.8792 54.0611 63.8763 54.0582 63.8763 54.0568C63.8646 54.0378 63.853 54.0188 63.8413 53.9999C63.8311 53.9853 63.8209 53.9707 63.8107 53.9575C63.8034 53.9473 63.7961 53.9386 63.7889 53.9284C63.783 53.9211 63.7772 53.9138 63.7714 53.9065C63.7655 53.8992 63.7597 53.8919 63.7524 53.8846C63.7451 53.8773 63.7408 53.87 63.7335 53.8642L63.7306 53.8613C63.7306 53.8613 63.7306 53.8613 63.7291 53.8598C63.7247 53.854 63.7189 53.8496 63.7145 53.8437C63.7087 53.8365 63.7014 53.8306 63.6941 53.8233C63.6868 53.816 63.681 53.8102 63.6737 53.8044C63.6664 53.7985 63.6591 53.7927 63.6518 53.7854C63.6489 53.7825 63.6446 53.7795 63.6416 53.7766C63.6416 53.7766 63.6402 53.7766 63.6387 53.7752C63.6358 53.7723 63.6329 53.7708 63.63 53.7679C63.6227 53.762 63.6169 53.7577 63.6096 53.7518C63.6023 53.746 63.5965 53.7416 63.5892 53.7372C63.5819 53.7329 63.576 53.7285 63.5688 53.7241C63.5615 53.7197 63.5556 53.7154 63.5484 53.7124C63.5469 53.7124 63.5454 53.711 63.544 53.7095L54.1003 48.2805C54.1003 48.2805 54.0901 48.2747 54.0857 48.2718C54.0799 48.2688 54.0726 48.2645 54.0668 48.2616C54.0609 48.2586 54.0536 48.2557 54.0478 48.2528C54.042 48.2499 54.0347 48.247 54.0289 48.2455C54.023 48.2426 54.0157 48.2411 54.0099 48.2382C54.0084 48.2382 54.007 48.2382 54.0055 48.2382C54.0055 48.2382 54.0055 48.2382 54.0041 48.2382C53.9997 48.2367 53.9953 48.2353 53.991 48.2338C53.9837 48.2324 53.9778 48.2295 53.972 48.228C53.9647 48.2265 53.9589 48.2251 53.9531 48.2236C53.9458 48.2236 53.9385 48.2207 53.9327 48.2207C53.9283 48.2207 53.9224 48.2207 53.9181 48.2192H53.9166H53.9137C53.905 48.2192 53.8977 48.2192 53.8904 48.2192C53.8816 48.2192 53.8744 48.2192 53.8656 48.2192C53.8569 48.2192 53.8467 48.2222 53.8379 48.2236C53.8277 48.2265 53.8175 48.228 53.8073 48.2324C53.7942 48.2367 53.7811 48.2426 53.7694 48.2499L53.2534 48.5592C53.2753 48.5475 53.2986 48.5388 53.3234 48.5329C53.3482 48.5271 53.3759 48.5256 53.4035 48.5285H53.405C53.4327 48.5315 53.4619 48.5373 53.4925 48.5475C53.4925 48.5475 53.4925 48.5475 53.4939 48.5475C53.5245 48.5577 53.5566 48.5723 53.5887 48.5913L63.0324 54.0203C63.0644 54.0393 63.0965 54.0611 63.1271 54.0859C63.1271 54.0859 63.1286 54.0859 63.13 54.0874C63.1606 54.1122 63.1898 54.1399 63.216 54.1691C63.216 54.1691 63.216 54.1691 63.2175 54.1706C63.2452 54.2012 63.2729 54.2333 63.2976 54.2669C63.3224 54.3004 63.3457 54.3354 63.3662 54.3719C63.3662 54.3734 63.3676 54.3748 63.3691 54.3777C63.3895 54.4142 63.4084 54.4507 63.4245 54.4886C63.4405 54.5266 63.4565 54.566 63.4682 54.6054C63.4798 54.6447 63.49 54.6841 63.4959 54.7221C63.5017 54.7615 63.5061 54.8009 63.5046 54.8373C63.5046 54.8738 63.5017 54.9088 63.4944 54.9395V54.9409C63.4886 54.973 63.4784 55.0007 63.4667 55.0255C63.4565 55.046 63.4449 55.0635 63.4317 55.081C63.4274 55.0868 63.423 55.0927 63.4186 55.097C63.4026 55.1131 63.3866 55.1291 63.3662 55.1394L63.8821 54.83C63.9011 54.8184 63.9186 54.8038 63.9346 54.7877C63.939 54.7819 63.9434 54.7775 63.9477 54.7717C63.9536 54.7644 63.9594 54.7586 63.9652 54.7498C63.9711 54.7396 63.9783 54.7294 63.9827 54.7177C63.9871 54.7104 63.99 54.7016 63.9929 54.6929C63.9958 54.6856 63.9987 54.6768 64.0017 54.6681C64.0046 54.6608 64.006 54.652 64.0075 54.6433C64.0075 54.6404 64.0075 54.636 64.009 54.6331C64.009 54.6331 64.009 54.6316 64.009 54.6302C64.009 54.6272 64.0104 54.6229 64.0104 54.6199C64.0104 54.6126 64.0133 54.6054 64.0133 54.5981C64.0133 54.5908 64.0148 54.5835 64.0162 54.5747C64.0162 54.5674 64.0162 54.5601 64.0177 54.5528C64.0177 54.5455 64.0177 54.5382 64.0177 54.5295C64.0177 54.5207 64.0177 54.5149 64.0177 54.5076H64.0104Z" fill="#0160C0"/>
<path d="M63.0222 54.0189C63.2831 54.1706 63.4959 54.5383 63.4959 54.8374C63.4959 55.1379 63.2816 55.2605 63.0192 55.1088L53.5755 49.6798C53.3146 49.5295 53.1018 49.1604 53.1033 48.8598C53.1033 48.5607 53.3175 48.4381 53.5785 48.5884L63.0222 54.0189Z" fill="white"/>
<path d="M63.0221 54.0187L53.5784 48.5897C53.4502 48.5153 53.3321 48.508 53.2476 48.5547C53.3277 48.5313 53.4254 48.5474 53.5318 48.6087L62.9755 54.0377C63.2364 54.1894 63.4492 54.5571 63.4492 54.8576C63.4492 55.0094 63.3938 55.1159 63.3049 55.164C63.4201 55.1305 63.4958 55.0167 63.4958 54.8387C63.4958 54.5381 63.2845 54.1704 63.0221 54.0187Z" fill="white"/>
<path d="M64.0104 57.0638C64.0104 57.0565 64.0104 57.0492 64.0104 57.0404C64.0104 57.0331 64.0104 57.0258 64.0089 57.0171C64.0075 57.0083 64.0075 57.001 64.006 56.9937C64.006 56.9864 64.0031 56.9777 64.0031 56.9704C64.0031 56.9704 64.0031 56.9704 64.0031 56.9689C64.0031 56.9616 64.0002 56.9543 63.9987 56.947C63.9973 56.9383 63.9958 56.931 63.9944 56.9222C63.9929 56.9135 63.99 56.9062 63.9885 56.8974C63.9871 56.8887 63.9842 56.8814 63.9827 56.8726C63.9812 56.8653 63.9783 56.858 63.9769 56.8522C63.9769 56.8507 63.9769 56.8493 63.9769 56.8493C63.974 56.8405 63.9725 56.8332 63.9696 56.8245C63.9667 56.8157 63.9637 56.8084 63.9608 56.7997C63.9579 56.7924 63.955 56.7836 63.9521 56.7763C63.9492 56.769 63.9463 56.7603 63.9433 56.753C63.9404 56.7471 63.9375 56.7413 63.9361 56.734C63.9361 56.734 63.9361 56.7326 63.9361 56.7311C63.9331 56.7238 63.9288 56.715 63.9259 56.7078C63.9215 56.699 63.9186 56.6917 63.9142 56.683C63.9098 56.6727 63.904 56.664 63.8996 56.6538C63.8938 56.6436 63.888 56.6333 63.8821 56.6231C63.8821 56.6217 63.8807 56.6202 63.8792 56.6173C63.8792 56.6158 63.8763 56.6129 63.8763 56.6115C63.8646 56.5925 63.853 56.5735 63.8413 56.5546C63.8311 56.54 63.8209 56.5254 63.8107 56.5122C63.8034 56.5035 63.7961 56.4933 63.7888 56.4845C63.783 56.4772 63.7772 56.4699 63.7699 56.4626C63.7641 56.4553 63.7582 56.448 63.7509 56.4408C63.7451 56.4335 63.7393 56.4262 63.732 56.4203L63.7291 56.4174C63.7291 56.4174 63.7291 56.4174 63.7276 56.4159C63.7232 56.4101 63.7174 56.4057 63.713 56.3999C63.7072 56.3926 63.6999 56.3868 63.6926 56.3795C63.6853 56.3722 63.6795 56.3663 63.6722 56.3605C63.6649 56.3547 63.6577 56.3488 63.6504 56.3415C63.6475 56.3386 63.6431 56.3357 63.6402 56.3328C63.6402 56.3328 63.6387 56.3328 63.6372 56.3313C63.6343 56.3284 63.6314 56.3269 63.6285 56.324C63.6212 56.3182 63.6154 56.3138 63.6081 56.308C63.6008 56.3036 63.595 56.2978 63.5877 56.2934C63.5819 56.289 63.5746 56.2846 63.5673 56.2803C63.5615 56.2759 63.5542 56.2715 63.5469 56.2686C63.5454 56.2686 63.544 56.2671 63.5425 56.2657L54.0988 50.8367C54.0988 50.8367 54.0886 50.8308 54.0842 50.8279C54.0784 50.825 54.0711 50.8206 54.0653 50.8177C54.0594 50.8148 54.0522 50.8119 54.0463 50.8089C54.0405 50.806 54.0332 50.8031 54.0274 50.8017C54.0215 50.7987 54.0143 50.7973 54.0084 50.7944C54.007 50.7944 54.0055 50.7944 54.0041 50.7944C54.0041 50.7944 54.0041 50.7944 54.0026 50.7944C53.9982 50.7929 53.9939 50.7914 53.9895 50.79C53.9822 50.7885 53.9764 50.7856 53.9705 50.7841C53.9632 50.7827 53.9574 50.7812 53.9516 50.7798C53.9443 50.7798 53.937 50.7769 53.9312 50.7769C53.9268 50.7769 53.921 50.7768 53.9166 50.7754H53.9151C53.9151 50.7754 53.9122 50.7754 53.9108 50.7754C53.9035 50.7754 53.8962 50.7754 53.8889 50.7754C53.8802 50.7754 53.8729 50.7754 53.8641 50.7754C53.8554 50.7754 53.8452 50.7783 53.8364 50.7798C53.8248 50.7827 53.8146 50.7856 53.8044 50.7885C53.7913 50.7929 53.7781 50.7987 53.7665 50.806L53.2505 51.1153C53.2724 51.1037 53.2957 51.0949 53.3204 51.0891C53.3452 51.0832 53.3715 51.0818 53.4006 51.0847H53.4021C53.4298 51.0876 53.4589 51.0935 53.4895 51.1037H53.491C53.5216 51.1139 53.5537 51.1285 53.5857 51.1474L63.0294 56.5764C63.0615 56.5954 63.0936 56.6173 63.1242 56.6421C63.1242 56.6421 63.1256 56.6421 63.1271 56.6436C63.1577 56.6684 63.1869 56.6961 63.2131 56.7253C63.2131 56.7253 63.2131 56.7253 63.2145 56.7267C63.2422 56.7574 63.2699 56.7895 63.2947 56.823C63.3195 56.8566 63.3428 56.8916 63.3632 56.9281C63.3632 56.9295 63.3647 56.931 63.3661 56.9339C63.3865 56.9704 63.4055 57.0069 63.4215 57.0448C63.4376 57.0827 63.4521 57.1221 63.4653 57.1615C63.4769 57.2009 63.4857 57.2403 63.4929 57.2782C63.4988 57.3176 63.5031 57.357 63.5017 57.3935C63.5017 57.43 63.4988 57.465 63.4915 57.4956C63.4915 57.4956 63.4915 57.4971 63.4915 57.4985C63.4857 57.5292 63.4769 57.5569 63.4653 57.5832C63.4551 57.6036 63.4434 57.6211 63.4303 57.6386C63.4259 57.6444 63.4215 57.6503 63.4172 57.6547C63.4011 57.6707 63.3851 57.6868 63.3647 57.697L63.8807 57.3877C63.8996 57.376 63.9171 57.3614 63.9331 57.3453C63.9375 57.3395 63.9419 57.3351 63.9463 57.3293C63.9521 57.322 63.9579 57.3162 63.9637 57.3074C63.9696 57.2972 63.9769 57.287 63.9812 57.2753C63.9856 57.268 63.9885 57.2593 63.9914 57.2505C63.9944 57.2432 63.9973 57.2345 64.0002 57.2257C64.0031 57.2184 64.0046 57.2097 64.006 57.2009C64.006 57.198 64.006 57.1936 64.0075 57.1907C64.0075 57.1907 64.0075 57.1892 64.0075 57.1878C64.0075 57.1849 64.0089 57.1805 64.0089 57.1776C64.0089 57.1703 64.0118 57.163 64.0118 57.1557C64.0118 57.1484 64.0133 57.1411 64.0148 57.1323C64.0148 57.125 64.0148 57.1177 64.0162 57.1104C64.0162 57.1031 64.0162 57.0959 64.0162 57.0871C64.0162 57.0783 64.0162 57.071 64.0162 57.0652L64.0104 57.0638Z" fill="#0160C0"/>
<path d="M63.0222 56.5751C63.2831 56.7268 63.4959 57.0945 63.4959 57.3936C63.4959 57.6941 63.2816 57.8167 63.0192 57.6649L53.5755 52.2359C53.3146 52.0857 53.1018 51.7165 53.1033 51.416C53.1033 51.1154 53.3175 50.9943 53.5785 51.1446L63.0222 56.5736V56.5751Z" fill="white"/>
<path d="M63.0221 56.5751L53.5784 51.1461C53.4502 51.0717 53.3321 51.0644 53.2476 51.1111C53.3277 51.0877 53.4254 51.1038 53.5318 51.1651L62.9755 56.5941C63.2364 56.7458 63.4492 57.1135 63.4492 57.414C63.4492 57.5658 63.3938 57.6723 63.3049 57.7204C63.4201 57.6869 63.4958 57.5731 63.4958 57.3951C63.4958 57.0945 63.2845 56.7268 63.0236 56.5751H63.0221Z" fill="white"/>
<path d="M91.4378 29.2345C91.4335 29.2491 91.4306 29.2623 91.4262 29.2768C91.3854 29.3965 91.3227 29.5132 91.2469 29.6285C91.2338 29.6489 91.2207 29.6693 91.2061 29.6897C91.123 29.8036 91.0239 29.9144 90.9073 30.0209C90.83 30.0895 90.7338 30.1523 90.642 30.2179C90.5633 30.2734 90.4977 30.3332 90.4088 30.3842L73.1597 40.4179L73.1306 50.7842L90.3796 40.7506C90.3957 40.7418 90.4102 40.733 90.4263 40.7228C90.4977 40.6791 90.5487 40.6295 90.6129 40.5842C90.7047 40.5186 90.8023 40.4558 90.8781 40.3873C90.8854 40.38 90.8956 40.3756 90.9029 40.3683C90.9904 40.2866 91.0691 40.202 91.1376 40.1159C91.1522 40.0969 91.1638 40.0765 91.1784 40.0561C91.193 40.0356 91.2061 40.0152 91.2207 39.9933C91.244 39.9583 91.2702 39.9247 91.2906 39.8897C91.33 39.8197 91.3635 39.7467 91.3912 39.6753C91.3956 39.6636 91.397 39.6534 91.4014 39.6417C91.4058 39.6286 91.4087 39.614 91.4131 39.6008C91.4276 39.5542 91.4437 39.5089 91.4524 39.4622C91.467 39.3907 91.4757 39.3178 91.4772 39.2463C91.4772 39.2346 91.4772 39.2244 91.4772 39.2127L91.5064 28.8464C91.5064 28.9763 91.4816 29.1061 91.4422 29.2345H91.4378Z" fill="#DAECFF"/>
<path d="M50.4636 30.3856C49.7188 29.9552 49.3486 29.392 49.35 28.8289L49.3209 39.1952C49.3194 39.7583 49.6896 40.323 50.4345 40.7519L67.7929 50.7841L67.822 40.4178L50.4636 30.3856Z" fill="#DAECFF"/>
<path d="M73.1291 50.7826L73.1582 40.4163C72.995 40.5111 72.8157 40.5928 72.632 40.6658C72.5839 40.6847 72.5358 40.7037 72.4863 40.7212C72.3726 40.762 72.2516 40.7956 72.1321 40.8292C72.0082 40.8642 71.8828 40.8963 71.7546 40.924C71.6044 40.9546 71.4529 40.9824 71.2969 41.0028C71.259 41.0072 71.2226 41.0145 71.1847 41.0188C70.9748 41.0407 70.7634 41.0524 70.5506 41.0538C70.5171 41.0538 70.4836 41.0538 70.45 41.0538C70.2401 41.0524 70.0302 41.0407 69.8233 41.0188C69.7912 41.0159 69.7606 41.0115 69.73 41.0086C69.5245 40.9838 69.3219 40.9488 69.1236 40.905C69.0872 40.8963 69.0522 40.8875 69.0158 40.8788C68.8365 40.835 68.6616 40.781 68.4925 40.7197C68.4619 40.7081 68.4298 40.6993 68.3992 40.6891C68.1966 40.6103 68.0027 40.5213 67.8235 40.4177L67.7943 50.784C67.9648 50.8818 68.147 50.9693 68.338 51.0452C68.3482 51.0496 68.3584 51.0525 68.3686 51.0554C68.3992 51.0671 68.4313 51.0758 68.4633 51.0875C68.5727 51.1269 68.682 51.1677 68.7971 51.1998C68.8598 51.2174 68.9239 51.2305 68.9866 51.2465C69.0231 51.2553 69.058 51.264 69.0945 51.2728C69.1265 51.2801 69.1586 51.2903 69.1907 51.2961C69.3131 51.3224 69.4385 51.3428 69.5653 51.3618C69.6105 51.3676 69.6556 51.372 69.7008 51.3764C69.7329 51.3808 69.7635 51.3837 69.7956 51.3866C69.8408 51.391 69.8859 51.3983 69.9311 51.4012C70.055 51.4114 70.1789 51.4172 70.3028 51.4216C70.3422 51.4216 70.3815 51.4216 70.4209 51.4216C70.4544 51.4216 70.4879 51.4216 70.5229 51.4216C70.5783 51.4216 70.6337 51.4216 70.6905 51.4216C70.8305 51.4172 70.9704 51.407 71.1089 51.3939C71.1249 51.3924 71.1409 51.3895 71.157 51.3866C71.1949 51.3822 71.2328 51.3764 71.2707 51.3706C71.3771 51.3574 71.4849 51.3443 71.5899 51.3268C71.6365 51.318 71.6802 51.302 71.7254 51.2932C71.8551 51.267 71.979 51.2334 72.1044 51.1984C72.17 51.1794 72.24 51.1692 72.3041 51.1488C72.3566 51.1313 72.4061 51.1094 72.4571 51.0904C72.5067 51.0729 72.5562 51.0539 72.6043 51.035C72.788 50.9606 72.9658 50.8803 73.1305 50.7855L73.1291 50.7826Z" fill="#C0DFFF"/>
<path d="M90.39 27.2896C91.8709 28.1446 91.8739 29.5306 90.4075 30.3827L73.1585 40.4164C71.6921 41.2699 69.3031 41.2713 67.8222 40.4164L50.4638 30.3842C48.9829 29.5292 48.98 28.1431 50.4463 27.2896L67.6954 17.2559C69.1617 16.4024 71.5507 16.4009 73.0316 17.2559L90.39 27.2881V27.2896Z" fill="#E3F0FF"/>
<path d="M79.1897 40.9897L76.3022 42.6895C76.1419 42.7843 76.0093 42.7303 76.0093 42.5684C76.0093 42.4079 76.1405 42.1978 76.3022 42.1029L79.1897 40.4032C79.3501 40.3084 79.4827 40.3623 79.4827 40.5243C79.4827 40.6848 79.3515 40.8949 79.1897 40.9897Z" fill="#0160C0"/>
<path d="M83.7593 38.2993L80.8718 39.999C80.7114 40.0939 80.5788 40.0399 80.5788 39.8779C80.5788 39.7174 80.71 39.5073 80.8718 39.4125L83.7593 37.7128C83.9196 37.6179 84.0522 37.6719 84.0522 37.8339C84.0522 37.9943 83.921 38.2044 83.7593 38.2993Z" fill="#0160C0"/>
<path d="M88.3302 35.6074L85.4428 37.3071C85.2824 37.402 85.1498 37.348 85.1498 37.186C85.1498 37.0256 85.281 36.8155 85.4428 36.7206L88.3302 35.0209C88.4906 34.926 88.6232 34.98 88.6232 35.142C88.6232 35.3025 88.492 35.5126 88.3302 35.6059V35.6074Z" fill="#0160C0"/>
<path d="M79.1897 42.4138L76.3022 44.1135C76.1419 44.2084 76.0093 44.1544 76.0093 43.9924C76.0093 43.8319 76.1405 43.6218 76.3022 43.527L79.1897 41.8273C79.3501 41.7324 79.4827 41.7864 79.4827 41.9484C79.4827 42.1089 79.3515 42.3189 79.1897 42.4138Z" fill="#0160C0"/>
<path d="M83.7593 39.7234L80.8718 41.4231C80.7114 41.5179 80.5788 41.464 80.5788 41.302C80.5788 41.1415 80.71 40.9314 80.8718 40.8366L83.7593 39.1368C83.9196 39.042 84.0522 39.096 84.0522 39.2579C84.0522 39.4184 83.921 39.6285 83.7593 39.7234Z" fill="#0160C0"/>
<path d="M88.3302 37.0329L85.4428 38.7327C85.2824 38.8275 85.1498 38.7735 85.1498 38.6116C85.1498 38.4511 85.281 38.241 85.4428 38.1462L88.3302 36.4464C88.4906 36.3516 88.6232 36.4055 88.6232 36.5675C88.6232 36.728 88.492 36.9381 88.3302 37.0329Z" fill="#0160C0"/>
<path d="M79.1897 43.8391L76.3022 45.5388C76.1419 45.6337 76.0093 45.5797 76.0093 45.4177C76.0093 45.2572 76.1405 45.0471 76.3022 44.9523L79.1897 43.2526C79.3501 43.1577 79.4827 43.2117 79.4827 43.3737C79.4827 43.5341 79.3515 43.7442 79.1897 43.8391Z" fill="#0160C0"/>
<path d="M83.7593 41.1486L80.8718 42.8484C80.7114 42.9432 80.5788 42.8893 80.5788 42.7273C80.5788 42.5668 80.71 42.3567 80.8718 42.2619L83.7593 40.5621C83.9196 40.4673 84.0522 40.5213 84.0522 40.6832C84.0522 40.8452 83.921 41.0538 83.7593 41.1486Z" fill="#0160C0"/>
<path d="M88.3302 38.4568L85.4428 40.1565C85.2824 40.2513 85.1498 40.1974 85.1498 40.0354C85.1498 39.8749 85.281 39.6648 85.4428 39.57L88.3302 37.8702C88.4906 37.7754 88.6232 37.8294 88.6232 37.9913C88.6232 38.1518 88.492 38.3619 88.3302 38.4568Z" fill="#0160C0"/>
<path d="M64.0104 40.3362C64.0104 40.3289 64.0104 40.3216 64.0104 40.3129C64.0104 40.3056 64.0104 40.2983 64.0089 40.2895C64.0089 40.2822 64.0075 40.2735 64.006 40.2662C64.006 40.2589 64.0031 40.2501 64.0031 40.2428V40.2414C64.0031 40.2341 64.0002 40.2268 63.9987 40.2195C63.9973 40.2107 63.9958 40.2034 63.9944 40.1947C63.9929 40.1859 63.99 40.1786 63.9885 40.1699C63.9871 40.1611 63.9842 40.1538 63.9827 40.1451C63.9813 40.1378 63.9783 40.1305 63.9769 40.1247C63.9769 40.1247 63.9769 40.1232 63.9769 40.1217C63.974 40.113 63.9725 40.1057 63.9696 40.0969C63.9667 40.0896 63.9638 40.0809 63.9608 40.0721C63.9579 40.0648 63.955 40.0561 63.9521 40.0488C63.9492 40.0415 63.9463 40.0327 63.9434 40.0254C63.9404 40.0196 63.9375 40.0138 63.9361 40.0065C63.9361 40.0065 63.9361 40.005 63.9361 40.0036C63.9332 39.9963 63.9288 39.9875 63.9259 39.9802C63.9215 39.9715 63.9186 39.9642 63.9142 39.9554C63.9098 39.9452 63.904 39.9364 63.8996 39.9262C63.8938 39.916 63.888 39.9058 63.8821 39.8956C63.8821 39.8941 63.8807 39.8927 63.8792 39.8898C63.8792 39.8883 63.8763 39.8854 63.8763 39.8839C63.8646 39.865 63.853 39.846 63.8413 39.827C63.8311 39.8124 63.8209 39.7978 63.8107 39.7847C63.8034 39.7745 63.7961 39.7657 63.7888 39.757C63.783 39.7497 63.7772 39.7424 63.7699 39.7351C63.7641 39.7278 63.7582 39.7205 63.7509 39.7132C63.7451 39.7059 63.7393 39.6986 63.732 39.6928L63.7291 39.6899C63.7291 39.6899 63.7291 39.6899 63.7276 39.6884C63.7233 39.6826 63.7174 39.6782 63.7131 39.6724C63.7072 39.6651 63.6999 39.6592 63.6926 39.6519C63.6854 39.6446 63.6795 39.6388 63.6722 39.633C63.665 39.6271 63.6577 39.6213 63.6504 39.614C63.6475 39.6111 63.6431 39.6082 63.6402 39.6052C63.6402 39.6052 63.6387 39.6052 63.6373 39.6038C63.6343 39.6009 63.6314 39.5994 63.6285 39.5965C63.6212 39.5907 63.6154 39.5863 63.6081 39.5804C63.6008 39.5761 63.595 39.5702 63.5877 39.5659C63.5804 39.5615 63.5746 39.5571 63.5673 39.5527C63.56 39.5483 63.5542 39.544 63.5469 39.541C63.5454 39.541 63.544 39.5396 63.5425 39.5381L54.0988 34.1091C54.0988 34.1091 54.0886 34.1033 54.0842 34.1004C54.0784 34.0975 54.0711 34.0931 54.0653 34.0902C54.0595 34.0872 54.0522 34.0843 54.0463 34.0814C54.0405 34.0785 54.0332 34.0756 54.0274 34.0741C54.0216 34.0712 54.0143 34.0697 54.0084 34.0668C54.007 34.0668 54.0055 34.0668 54.0041 34.0668H54.0026C54.0026 34.0668 53.9939 34.0639 53.9895 34.0624C53.9822 34.061 53.9764 34.0581 53.9705 34.0566C53.9633 34.0551 53.9574 34.0537 53.9516 34.0522C53.9443 34.0522 53.937 34.0493 53.9312 34.0493C53.9268 34.0493 53.921 34.0493 53.9166 34.0479H53.9152H53.9122C53.9035 34.0479 53.8962 34.0479 53.8889 34.0479C53.8802 34.0479 53.8729 34.0479 53.8641 34.0479C53.8554 34.0479 53.8452 34.0508 53.8364 34.0522C53.8262 34.0551 53.816 34.0566 53.8058 34.061C53.7927 34.0654 53.7796 34.0712 53.7679 34.0785L53.252 34.3878C53.2738 34.3761 53.2971 34.3674 53.3219 34.3615C53.3467 34.3557 53.3744 34.3542 53.4021 34.3572H53.4035C53.4312 34.3601 53.4604 34.3659 53.491 34.3761C53.5216 34.3863 53.5537 34.4009 53.5872 34.4199L63.0309 39.8489C63.063 39.8679 63.095 39.8898 63.1256 39.9146C63.1256 39.9146 63.1271 39.916 63.1286 39.916C63.1592 39.9408 63.1883 39.9685 63.2146 39.9977C63.2146 39.9977 63.2146 39.9977 63.216 39.9992C63.2437 40.0298 63.2714 40.0619 63.2962 40.0955C63.321 40.129 63.3443 40.164 63.3647 40.2005C63.3647 40.202 63.3662 40.2034 63.3676 40.2064C63.388 40.2428 63.407 40.2793 63.423 40.3172C63.439 40.3552 63.4536 40.3946 63.4667 40.434C63.4784 40.4734 63.4871 40.5128 63.4944 40.5507C63.5002 40.5901 63.5046 40.6295 63.5032 40.666C63.5032 40.7024 63.5002 40.7374 63.493 40.7681C63.493 40.7681 63.493 40.7695 63.493 40.771C63.4871 40.8016 63.4784 40.8294 63.4667 40.8556C63.4565 40.8775 63.4434 40.895 63.4303 40.9111C63.4259 40.9169 63.4215 40.9227 63.4172 40.9271C63.4011 40.9432 63.3851 40.9592 63.3647 40.9694L63.8807 40.6601C63.8996 40.6484 63.9171 40.6339 63.9331 40.6178C63.9375 40.612 63.9419 40.6076 63.9463 40.6018C63.9521 40.5945 63.9579 40.5886 63.9638 40.5799C63.9696 40.5697 63.9769 40.5594 63.9813 40.5478C63.9856 40.5405 63.9885 40.5317 63.9915 40.523C63.9944 40.5157 63.9973 40.5069 64.0002 40.4982C64.0031 40.4909 64.0046 40.4821 64.006 40.4734C64.006 40.4704 64.006 40.4661 64.0075 40.4631C64.0075 40.4631 64.0075 40.4617 64.0075 40.4602C64.0075 40.4573 64.0089 40.4529 64.0089 40.45C64.0089 40.4427 64.0119 40.4354 64.0119 40.4281C64.0119 40.4208 64.0133 40.4135 64.0148 40.4048C64.0148 40.3975 64.0148 40.3902 64.0162 40.3829C64.0162 40.3756 64.0162 40.3683 64.0162 40.3596C64.0162 40.3508 64.0162 40.3435 64.0162 40.3377L64.0104 40.3362Z" fill="#0160C0"/>
<path d="M63.0222 39.8475C63.2831 39.9992 63.4959 40.3669 63.4959 40.6675C63.4959 40.968 63.2816 41.0906 63.0192 40.9388L53.5755 35.5098C53.3146 35.3596 53.1018 34.9904 53.1033 34.6899C53.1033 34.3908 53.3175 34.2682 53.5785 34.4185L63.0222 39.8475Z" fill="white"/>
<path d="M63.0221 39.8476L53.5784 34.4186C53.4502 34.3442 53.3321 34.3369 53.2476 34.3835C53.3277 34.3602 53.4254 34.3763 53.5318 34.4375L62.9755 39.8665C63.2364 40.0183 63.4492 40.3859 63.4492 40.685C63.4492 40.8368 63.3938 40.9433 63.3049 40.9914C63.4201 40.9579 63.4958 40.8441 63.4958 40.6661C63.4958 40.3655 63.2845 39.9978 63.0236 39.8461L63.0221 39.8476Z" fill="white"/>
<path d="M64.0104 42.8924C64.0104 42.8851 64.0104 42.8778 64.0104 42.869C64.0104 42.8603 64.0104 42.8544 64.0089 42.8457C64.0089 42.8384 64.0075 42.8296 64.006 42.8223C64.006 42.815 64.0031 42.8063 64.0031 42.799V42.7975C64.0031 42.7902 64.0002 42.7829 63.9987 42.7756C63.9973 42.7669 63.9958 42.7596 63.9944 42.7508C63.9929 42.7421 63.99 42.7348 63.9885 42.726C63.9871 42.7173 63.9842 42.71 63.9827 42.7012C63.9813 42.6939 63.9783 42.6866 63.9769 42.6808C63.9769 42.6808 63.9769 42.6779 63.9769 42.6764C63.974 42.6677 63.9725 42.6604 63.9696 42.6516C63.9667 42.6443 63.9638 42.6356 63.9608 42.6268C63.9579 42.6195 63.955 42.6108 63.9521 42.6035C63.9492 42.5962 63.9463 42.5874 63.9434 42.5801C63.9404 42.5743 63.9375 42.5685 63.9361 42.5612C63.9361 42.5612 63.9361 42.5597 63.9361 42.5582C63.9332 42.5509 63.9288 42.5422 63.9259 42.5349C63.9215 42.5261 63.9186 42.5188 63.9142 42.5101C63.9098 42.4999 63.904 42.4911 63.8996 42.4809C63.8938 42.4707 63.888 42.4605 63.8821 42.4503C63.8821 42.4488 63.8807 42.4474 63.8792 42.4444C63.8792 42.443 63.8763 42.4401 63.8763 42.4386C63.8646 42.4196 63.853 42.4007 63.8413 42.3817C63.8311 42.3671 63.8209 42.3525 63.8107 42.3394C63.8034 42.3292 63.7961 42.3204 63.7888 42.3102C63.783 42.3029 63.7772 42.2956 63.7699 42.2883C63.7641 42.281 63.7582 42.2737 63.7509 42.2664C63.7451 42.2591 63.7393 42.2518 63.732 42.246L63.7291 42.2431C63.7291 42.2431 63.7291 42.2431 63.7276 42.2416C63.7233 42.2358 63.7174 42.2314 63.7131 42.2256C63.7072 42.2183 63.6999 42.2125 63.6926 42.2052C63.6854 42.1979 63.6795 42.192 63.6722 42.1862C63.665 42.1804 63.6577 42.1745 63.6504 42.1672C63.6475 42.1643 63.6431 42.1614 63.6402 42.1585C63.6402 42.1585 63.6387 42.1585 63.6373 42.157C63.6343 42.1541 63.6314 42.1526 63.6285 42.1497C63.6212 42.1439 63.6154 42.1395 63.6081 42.1337C63.6008 42.1293 63.595 42.1235 63.5877 42.1191C63.5804 42.1147 63.5746 42.1103 63.5673 42.1059C63.56 42.1016 63.5542 42.0972 63.5469 42.0943C63.5454 42.0943 63.544 42.0928 63.5425 42.0914L54.0988 36.6624C54.0988 36.6624 54.0886 36.6565 54.0842 36.6536C54.0784 36.6507 54.0711 36.6463 54.0653 36.6434C54.0595 36.6405 54.0522 36.6376 54.0463 36.6346C54.0405 36.6317 54.0332 36.6288 54.0274 36.6273C54.0216 36.6244 54.0143 36.623 54.0084 36.62C54.007 36.62 54.0055 36.62 54.0041 36.62H54.0026C54.0026 36.62 53.9939 36.6171 53.9895 36.6157C53.9822 36.6142 53.9764 36.6113 53.9705 36.6098C53.9633 36.6084 53.9574 36.6069 53.9516 36.6055C53.9443 36.6055 53.937 36.6025 53.9312 36.6025C53.9268 36.6025 53.921 36.6025 53.9166 36.6011H53.9152H53.9122C53.9035 36.6011 53.8962 36.6011 53.8889 36.6011C53.8802 36.6011 53.8729 36.6011 53.8641 36.6011C53.8554 36.6011 53.8452 36.604 53.8364 36.6055C53.8262 36.6084 53.816 36.6098 53.8058 36.6142C53.7927 36.6186 53.7796 36.6244 53.7679 36.6317L53.252 36.941C53.2738 36.9294 53.2971 36.9206 53.3219 36.9148C53.3467 36.9089 53.3729 36.9075 53.4021 36.9104H53.4035C53.4312 36.9133 53.4604 36.9191 53.491 36.9294C53.491 36.9294 53.491 36.9294 53.4925 36.9294C53.5231 36.9396 53.5551 36.9542 53.5872 36.9731L63.0309 42.4021C63.063 42.4211 63.095 42.443 63.1256 42.4678C63.1256 42.4678 63.1271 42.4692 63.1286 42.4692C63.1592 42.494 63.1883 42.5218 63.2146 42.5509C63.2146 42.5509 63.2146 42.5509 63.216 42.5524C63.2437 42.583 63.2714 42.6151 63.2962 42.6487C63.321 42.6823 63.3443 42.7173 63.3647 42.7537C63.3647 42.7552 63.3662 42.7567 63.3676 42.7596C63.388 42.7961 63.407 42.8325 63.423 42.8705C63.439 42.9084 63.4536 42.9478 63.4667 42.9872C63.4784 43.0266 63.4886 43.066 63.4944 43.1039C63.5002 43.1433 63.5046 43.1827 63.5032 43.2192C63.5032 43.2557 63.5002 43.2907 63.493 43.3213C63.493 43.3213 63.493 43.3228 63.493 43.3242C63.4871 43.3549 63.4784 43.3826 63.4667 43.4088C63.4565 43.4293 63.4449 43.4468 63.4317 43.4643C63.4274 43.4701 63.423 43.476 63.4186 43.4803C63.4026 43.4964 63.3866 43.5124 63.3661 43.5226L63.8821 43.2133C63.9011 43.2017 63.9186 43.1871 63.9346 43.171C63.939 43.1652 63.9434 43.1608 63.9477 43.155C63.9536 43.1477 63.9594 43.1418 63.9652 43.1331C63.971 43.1229 63.9783 43.1127 63.9827 43.101C63.9871 43.0922 63.99 43.0849 63.9929 43.0762C63.9958 43.0689 63.9987 43.0601 64.0017 43.0514C64.0046 43.0441 64.006 43.0353 64.0075 43.0266C64.0075 43.0237 64.0075 43.0193 64.0089 43.0164C64.0089 43.0164 64.0089 43.0149 64.0089 43.0135C64.0089 43.0105 64.0104 43.0062 64.0104 43.0032C64.0104 42.9959 64.0133 42.9886 64.0133 42.9814C64.0133 42.9741 64.0148 42.9668 64.0162 42.958C64.0162 42.9507 64.0162 42.9434 64.0162 42.9361C64.0162 42.9288 64.0162 42.9215 64.0162 42.9128C64.0162 42.9055 64.0162 42.8982 64.0162 42.8909L64.0104 42.8924Z" fill="#0160C0"/>
<path d="M63.0222 42.4037C63.2831 42.5554 63.4959 42.9231 63.4959 43.2236C63.4959 43.5242 63.2816 43.6467 63.0192 43.495L53.5755 38.066C53.3146 37.9157 53.1018 37.5466 53.1033 37.246C53.1033 36.9469 53.3175 36.8244 53.5785 36.9747L63.0222 42.4037Z" fill="white"/>
<path d="M63.0221 42.4035L53.5784 36.9745C53.4502 36.9001 53.3321 36.8928 53.2476 36.9395C53.3277 36.9161 53.4254 36.9322 53.5318 36.9934L62.9755 42.4224C63.2364 42.5742 63.4492 42.9418 63.4492 43.2409C63.4492 43.3927 63.3938 43.4992 63.3049 43.5473C63.4201 43.5138 63.4958 43.4 63.4958 43.222C63.4958 42.9214 63.2845 42.5538 63.0221 42.402V42.4035Z" fill="white"/>
<path d="M64.0104 45.4471C64.0104 45.4398 64.0104 45.4325 64.0104 45.4237C64.0104 45.415 64.0104 45.4077 64.0089 45.4004C64.0075 45.3931 64.0075 45.3843 64.006 45.377C64.006 45.3697 64.0031 45.361 64.0031 45.3537C64.0031 45.3537 64.0031 45.3537 64.0031 45.3522C64.0031 45.3449 64.0002 45.3376 63.9987 45.3303C63.9973 45.3216 63.9958 45.3143 63.9944 45.3055C63.9929 45.2968 63.99 45.2895 63.9885 45.2807C63.9871 45.272 63.9842 45.2647 63.9827 45.2559C63.9813 45.2486 63.9783 45.2413 63.9769 45.2355C63.9769 45.234 63.9769 45.2326 63.9769 45.2326C63.974 45.2238 63.9725 45.2165 63.9696 45.2078C63.9667 45.2005 63.9638 45.1917 63.9608 45.183C63.9579 45.1757 63.955 45.1669 63.9521 45.1596C63.9492 45.1523 63.9463 45.1436 63.9434 45.1363C63.9404 45.1304 63.9375 45.1246 63.9361 45.1173C63.9361 45.1173 63.9361 45.1159 63.9361 45.1144C63.9332 45.1071 63.9288 45.0983 63.9259 45.0911C63.9215 45.0823 63.9186 45.075 63.9142 45.0662C63.9098 45.056 63.904 45.0473 63.8996 45.0371C63.8938 45.0269 63.888 45.0166 63.8821 45.0064C63.8821 45.005 63.8807 45.0035 63.8792 45.0006C63.8792 44.9991 63.8763 44.9962 63.8763 44.9948C63.8646 44.9758 63.853 44.9568 63.8413 44.9379C63.8311 44.9233 63.8209 44.9087 63.8107 44.8955C63.8034 44.8868 63.7961 44.8766 63.7888 44.8678C63.783 44.8605 63.7772 44.8532 63.7714 44.8459C63.7655 44.8386 63.7597 44.8313 63.7524 44.8241C63.7451 44.8168 63.7407 44.8095 63.7335 44.8036L63.7305 44.8007C63.7305 44.8007 63.7305 44.8007 63.7291 44.7992C63.7247 44.7934 63.7189 44.789 63.7145 44.7832C63.7087 44.7759 63.7014 44.7701 63.6941 44.7628C63.6868 44.7555 63.681 44.7496 63.6737 44.7438C63.6664 44.738 63.6591 44.7321 63.6518 44.7248C63.6489 44.7219 63.6445 44.719 63.6416 44.7161C63.6416 44.7161 63.6402 44.7161 63.6387 44.7146C63.6358 44.7117 63.6329 44.7102 63.63 44.7073C63.6227 44.7015 63.6169 44.6971 63.6096 44.6913C63.6023 44.6869 63.5964 44.6811 63.5892 44.6767C63.5833 44.6723 63.576 44.6679 63.5688 44.6636C63.5615 44.6592 63.5556 44.6548 63.5483 44.6519C63.5469 44.6519 63.5454 44.6504 63.544 44.649L54.1003 39.22C54.1003 39.22 54.0901 39.2141 54.0857 39.2112C54.0799 39.2083 54.0726 39.2039 54.0667 39.201C54.0609 39.1981 54.0536 39.1952 54.0478 39.1923C54.042 39.1893 54.0347 39.1864 54.0288 39.185C54.023 39.182 54.0157 39.1806 54.0099 39.1777C54.0084 39.1777 54.007 39.1777 54.0055 39.1777C54.0055 39.1777 54.0055 39.1777 54.0041 39.1777C53.9997 39.1762 53.9953 39.1747 53.991 39.1733C53.9837 39.1718 53.9778 39.1689 53.972 39.1674C53.9647 39.166 53.9589 39.1645 53.9531 39.1631C53.9458 39.1631 53.9385 39.1602 53.9326 39.1602C53.9283 39.1602 53.9224 39.1602 53.9181 39.1587C53.9181 39.1587 53.9181 39.1587 53.9166 39.1587C53.9152 39.1587 53.9137 39.1587 53.9122 39.1587C53.905 39.1587 53.8977 39.1587 53.8904 39.1587C53.8816 39.1587 53.8743 39.1587 53.8656 39.1587C53.8569 39.1587 53.8467 39.1616 53.8379 39.1631C53.8262 39.166 53.816 39.1689 53.8058 39.1718C53.7927 39.1762 53.7796 39.182 53.7679 39.1893L53.252 39.4986C53.2738 39.487 53.2971 39.4782 53.3219 39.4724C53.3467 39.4665 53.3729 39.4651 53.4021 39.468H53.4035C53.4312 39.4709 53.4604 39.4768 53.491 39.487C53.491 39.487 53.491 39.487 53.4925 39.487C53.5231 39.4972 53.5551 39.5118 53.5872 39.5307L63.0309 44.9597C63.063 44.9787 63.095 45.0006 63.1256 45.0254C63.1256 45.0254 63.1271 45.0269 63.1286 45.0269C63.1592 45.0517 63.1883 45.0794 63.2146 45.1086C63.2146 45.1086 63.2146 45.1086 63.216 45.11C63.2437 45.1407 63.2714 45.1728 63.2962 45.2063C63.321 45.2399 63.3443 45.2749 63.3647 45.3114C63.3647 45.3128 63.3662 45.3143 63.3676 45.3172C63.388 45.3537 63.407 45.3902 63.423 45.4281C63.439 45.466 63.4551 45.5054 63.4667 45.5448C63.4784 45.5842 63.4886 45.6236 63.4944 45.6615C63.5002 45.7009 63.5046 45.7403 63.5032 45.7768C63.5032 45.8133 63.5002 45.8483 63.493 45.8789C63.493 45.8789 63.493 45.8804 63.493 45.8818C63.4871 45.9125 63.4784 45.9402 63.4667 45.9665C63.4565 45.9869 63.4449 46.0044 63.4317 46.0219C63.4274 46.0277 63.423 46.0336 63.4186 46.038C63.4026 46.054 63.3866 46.0701 63.3661 46.0803L63.8821 45.771C63.9011 45.7593 63.9186 45.7447 63.9346 45.7286C63.939 45.7228 63.9434 45.7184 63.9477 45.7126C63.9536 45.7053 63.9594 45.6995 63.9652 45.6907C63.971 45.6805 63.9783 45.6703 63.9827 45.6586C63.9871 45.6513 63.99 45.6426 63.9929 45.6338C63.9958 45.6265 63.9987 45.6178 64.0017 45.609C64.0046 45.6017 64.006 45.593 64.0075 45.5842C64.0075 45.5813 64.0075 45.5769 64.0089 45.574C64.0089 45.574 64.0089 45.5725 64.0089 45.5711C64.0089 45.5682 64.0104 45.5638 64.0104 45.5609C64.0104 45.5536 64.0133 45.5463 64.0133 45.539C64.0133 45.5317 64.0148 45.5244 64.0162 45.5156C64.0162 45.5083 64.0162 45.501 64.0177 45.4937C64.0177 45.4864 64.0177 45.4792 64.0177 45.4704C64.0177 45.4631 64.0177 45.4558 64.0177 45.4485L64.0104 45.4471Z" fill="#0160C0"/>
<path d="M63.0222 44.9583C63.2831 45.1101 63.4959 45.4777 63.4959 45.7768C63.4959 46.0774 63.2816 46.2 63.0192 46.0482L53.5755 40.6192C53.3146 40.4689 53.1018 40.0998 53.1033 39.7993C53.1033 39.5002 53.3175 39.3776 53.5785 39.5279L63.0222 44.9583Z" fill="white"/>
<path d="M63.0221 44.9584L53.5784 39.5294C53.4502 39.455 53.3321 39.4477 53.2476 39.4944C53.3277 39.471 53.4254 39.4871 53.5318 39.5484L62.9755 44.9774C63.2364 45.1291 63.4492 45.4968 63.4492 45.7959C63.4492 45.9476 63.3938 46.0541 63.3049 46.1023C63.4201 46.0687 63.4958 45.9549 63.4958 45.7769C63.4958 45.4764 63.2845 45.1087 63.0236 44.9569L63.0221 44.9584Z" fill="white"/>
<path d="M91.4378 17.6178C91.4335 17.6324 91.4306 17.6455 91.4262 17.6601C91.3854 17.7798 91.3227 17.8965 91.2469 18.0118C91.2338 18.0322 91.2207 18.0526 91.2061 18.073C91.123 18.1868 91.0239 18.2977 90.9073 18.4028C90.8315 18.4713 90.7338 18.5341 90.642 18.5997C90.5633 18.6552 90.4977 18.715 90.4088 18.7661L73.1597 28.7997L73.1306 39.166L90.3796 29.1324C90.3957 29.1236 90.4102 29.1149 90.4263 29.1047C90.4977 29.0609 90.5487 29.0113 90.6129 28.9661C90.7047 28.9004 90.8023 28.8377 90.8781 28.7691C90.8854 28.7633 90.8956 28.7574 90.9029 28.7501C90.9904 28.6684 91.0691 28.5838 91.1376 28.4977C91.1536 28.4787 91.1638 28.4583 91.1784 28.4379C91.193 28.4175 91.2061 28.397 91.2207 28.3752C91.244 28.3401 91.2702 28.3066 91.2906 28.2716C91.3314 28.2015 91.3635 28.1286 91.3912 28.0571C91.3956 28.0454 91.397 28.0352 91.4014 28.0235C91.4058 28.0104 91.4087 27.9958 91.4131 27.9827C91.4276 27.936 91.4437 27.8908 91.4524 27.8441C91.467 27.7726 91.4757 27.6996 91.4772 27.6267C91.4772 27.615 91.4772 27.6048 91.4772 27.5931L91.5064 17.2268C91.5064 17.3567 91.4816 17.4865 91.4408 17.6149L91.4378 17.6178Z" fill="#DAECFF"/>
<path d="M50.4636 18.7689C49.7188 18.3385 49.3486 17.7739 49.35 17.2122L49.3209 27.5785C49.3194 28.1417 49.6896 28.7063 50.4345 29.1352L67.7929 39.1674L67.822 28.8011L50.4636 18.7689Z" fill="#DAECFF"/>
<path d="M73.1276 39.1659L73.1568 28.7996C72.9935 28.8944 72.8142 28.9761 72.6306 29.0491C72.5825 29.068 72.5344 29.087 72.4848 29.1045C72.3711 29.1453 72.2501 29.1789 72.1306 29.2125C72.0067 29.2475 71.8814 29.2796 71.7531 29.3073C71.603 29.3379 71.4514 29.3657 71.2954 29.3861C71.2575 29.3905 71.2211 29.3978 71.1832 29.4021C70.9733 29.424 70.762 29.4357 70.5491 29.4372C70.5156 29.4372 70.4821 29.4372 70.4486 29.4372C70.2387 29.4357 70.0288 29.424 69.8218 29.4021C69.7897 29.3992 69.7591 29.3948 69.7285 29.3919C69.523 29.3671 69.3204 29.3321 69.1222 29.2883C69.0857 29.2796 69.0507 29.2708 69.0143 29.2621C68.835 29.2183 68.6601 29.1643 68.491 29.103C68.4604 29.0914 68.4284 29.0826 68.3977 29.0724C68.1951 28.9936 68.0013 28.9046 67.822 28.801L67.7928 39.1673C67.9634 39.2651 68.1456 39.3526 68.338 39.4285C68.3482 39.4329 68.3584 39.4358 68.3686 39.4387C68.3992 39.4504 68.4313 39.4591 68.4633 39.4708C68.5727 39.5102 68.682 39.5511 68.7971 39.5832C68.8583 39.6007 68.9239 39.6138 68.9866 39.6298C69.0231 39.6386 69.058 39.6473 69.0945 39.6561C69.1265 39.6634 69.1586 39.6736 69.1907 39.6794C69.3131 39.7057 69.4385 39.7261 69.5653 39.7451C69.6105 39.7509 69.6556 39.7553 69.7008 39.7597C69.7329 39.7641 69.7635 39.767 69.7956 39.7699C69.8408 39.7743 69.8859 39.7816 69.9311 39.7845C70.055 39.7947 70.1789 39.8005 70.3028 39.8049C70.3422 39.8049 70.3815 39.8049 70.4209 39.8049C70.4544 39.8049 70.4879 39.8049 70.5229 39.8049C70.5783 39.8049 70.6337 39.8049 70.6905 39.8049C70.8305 39.8005 70.9704 39.7903 71.1089 39.7772C71.1249 39.7757 71.1409 39.7728 71.157 39.7699C71.1949 39.7655 71.2328 39.7597 71.2707 39.7539C71.3771 39.7407 71.4849 39.7276 71.5899 39.7101C71.6365 39.7013 71.6802 39.6853 71.7254 39.6765C71.8551 39.6503 71.979 39.6167 72.1044 39.5817C72.17 39.5627 72.2399 39.5525 72.3041 39.5321C72.3566 39.5146 72.4061 39.4927 72.4571 39.4737C72.5067 39.4562 72.5562 39.4372 72.6043 39.4183C72.788 39.3439 72.9658 39.2636 73.1305 39.1688L73.1276 39.1659Z" fill="#C0DFFF"/>
<path d="M90.39 15.6729C91.8709 16.5279 91.8739 17.9139 90.4075 18.7675L73.1585 28.8011C71.6921 29.6546 69.3031 29.6561 67.8222 28.8011L50.4638 18.7689C48.9829 17.9139 48.98 16.5279 50.4463 15.6743L67.6954 5.64069C69.1617 4.78717 71.5507 4.78571 73.0316 5.64069L90.39 15.6729Z" fill="#E3F0FF"/>
<path d="M79.1897 29.373L76.3022 31.0728C76.1419 31.1676 76.0093 31.1136 76.0093 30.9517C76.0093 30.7912 76.1405 30.5811 76.3022 30.4862L79.1897 28.7865C79.3501 28.6917 79.4827 28.7456 79.4827 28.9076C79.4827 29.0695 79.3515 29.2782 79.1897 29.373Z" fill="#0160C0"/>
<path d="M83.7593 26.6826L80.8718 28.3823C80.7114 28.4772 80.5788 28.4232 80.5788 28.2612C80.5788 28.1007 80.71 27.8907 80.8718 27.7958L83.7593 26.0961C83.9196 26.0012 84.0522 26.0552 84.0522 26.2172C84.0522 26.3776 83.921 26.5877 83.7593 26.6826Z" fill="#0160C0"/>
<path d="M88.3302 23.9922L85.4428 25.6919C85.2824 25.7867 85.1498 25.7328 85.1498 25.5708C85.1498 25.4103 85.281 25.2002 85.4428 25.1054L88.3302 23.4056C88.4906 23.3108 88.6232 23.3648 88.6232 23.5267C88.6232 23.6872 88.492 23.8973 88.3302 23.9922Z" fill="#0160C0"/>
<path d="M79.1897 30.7971L76.3022 32.4968C76.1419 32.5917 76.0093 32.5377 76.0093 32.3757C76.0093 32.2153 76.1405 32.0052 76.3022 31.9103L79.1897 30.2106C79.3501 30.1157 79.4827 30.1697 79.4827 30.3317C79.4827 30.4922 79.3515 30.7023 79.1897 30.7971Z" fill="#0160C0"/>
<path d="M83.7593 28.1067L80.8718 29.8064C80.7114 29.9012 80.5788 29.8473 80.5788 29.6853C80.5788 29.5248 80.71 29.3147 80.8718 29.2199L83.7593 27.5201C83.9196 27.4253 84.0522 27.4793 84.0522 27.6412C84.0522 27.8017 83.921 28.0118 83.7593 28.1067Z" fill="#0160C0"/>
<path d="M88.3302 25.4162L85.4428 27.116C85.2824 27.2108 85.1498 27.1568 85.1498 26.9949C85.1498 26.8344 85.281 26.6243 85.4428 26.5295L88.3302 24.8297C88.4906 24.7349 88.6232 24.7888 88.6232 24.9508C88.6232 25.1113 88.492 25.3214 88.3302 25.4162Z" fill="#0160C0"/>
<path d="M79.1897 32.2224L76.3022 33.9221C76.1419 34.017 76.0093 33.963 76.0093 33.801C76.0093 33.6405 76.1405 33.4304 76.3022 33.3356L79.1897 31.6359C79.3501 31.541 79.4827 31.595 79.4827 31.757C79.4827 31.9174 79.3515 32.1275 79.1897 32.2224Z" fill="#0160C0"/>
<path d="M83.7593 29.5319L80.8718 31.2317C80.7114 31.3265 80.5788 31.2726 80.5788 31.1106C80.5788 30.9501 80.71 30.74 80.8718 30.6452L83.7593 28.9454C83.9196 28.8506 84.0522 28.9046 84.0522 29.0665C84.0522 29.227 83.921 29.4371 83.7593 29.5319Z" fill="#0160C0"/>
<path d="M88.3302 26.8415L85.4428 28.5413C85.2824 28.6361 85.1498 28.5821 85.1498 28.4202C85.1498 28.2597 85.281 28.0496 85.4428 27.9547L88.3302 26.255C88.4906 26.1602 88.6232 26.2141 88.6232 26.3761C88.6232 26.5366 88.492 26.7467 88.3302 26.8415Z" fill="#0160C0"/>
<path d="M64.0104 28.7195C64.0104 28.7122 64.0104 28.7049 64.0104 28.6962C64.0104 28.6874 64.0104 28.6816 64.0089 28.6728C64.0075 28.6641 64.0075 28.6583 64.006 28.6495C64.006 28.6422 64.0031 28.6334 64.0031 28.6262V28.6247C64.0031 28.6174 64.0002 28.6101 63.9987 28.6028C63.9973 28.5941 63.9958 28.5868 63.9944 28.578C63.9929 28.5693 63.99 28.562 63.9885 28.5532C63.9871 28.5444 63.9842 28.5357 63.9827 28.5284C63.9812 28.5211 63.9783 28.5138 63.9769 28.508C63.9769 28.508 63.9769 28.5065 63.9769 28.5051C63.974 28.4963 63.9725 28.489 63.9696 28.4803C63.9667 28.473 63.9637 28.4642 63.9608 28.4554C63.9579 28.4482 63.955 28.4394 63.9521 28.4321C63.9492 28.4248 63.9463 28.4161 63.9433 28.4088C63.9404 28.4029 63.9375 28.3956 63.9361 28.3898C63.9361 28.3898 63.9361 28.3883 63.9361 28.3869C63.9331 28.3796 63.9288 28.3723 63.9259 28.3635C63.9215 28.3548 63.9186 28.346 63.9142 28.3387C63.9098 28.3285 63.904 28.3198 63.8996 28.3095C63.8938 28.2993 63.888 28.2891 63.8821 28.2789C63.8821 28.2774 63.8807 28.276 63.8792 28.2731C63.8792 28.2716 63.8763 28.2687 63.8763 28.2672C63.8646 28.2483 63.853 28.2293 63.8413 28.2103C63.8311 28.1957 63.8209 28.1812 63.8107 28.168C63.8034 28.1578 63.7961 28.1491 63.7888 28.1403C63.783 28.133 63.7772 28.1257 63.7699 28.1184C63.7641 28.1111 63.7582 28.1038 63.7509 28.0965C63.7451 28.0892 63.7393 28.0819 63.732 28.0761L63.7291 28.0732C63.7291 28.0732 63.7291 28.0732 63.7276 28.0732C63.7232 28.0674 63.7174 28.063 63.713 28.0586C63.7072 28.0513 63.6999 28.0455 63.6926 28.0382C63.6853 28.0323 63.6795 28.025 63.6722 28.0192C63.6649 28.0134 63.6577 28.0061 63.6504 28.0002C63.6475 27.9973 63.6431 27.9944 63.6402 27.9915C63.6402 27.9915 63.6387 27.9915 63.6372 27.99C63.6343 27.9886 63.6314 27.9856 63.6285 27.9827C63.6212 27.9769 63.6154 27.9725 63.6081 27.9667C63.6008 27.9608 63.595 27.9565 63.5877 27.9521C63.5804 27.9477 63.5746 27.9433 63.5673 27.939C63.56 27.9346 63.5542 27.9302 63.5469 27.9273C63.5454 27.9273 63.544 27.9258 63.5425 27.9244L54.0988 22.4954C54.0988 22.4954 54.0886 22.4895 54.0842 22.4866C54.0784 22.4837 54.0711 22.4793 54.0653 22.4764C54.0594 22.4735 54.0522 22.4706 54.0463 22.4676C54.0405 22.4647 54.0332 22.4618 54.0274 22.4603C54.0215 22.4574 54.0143 22.456 54.0084 22.4531C54.007 22.4531 54.0055 22.4531 54.0041 22.4531H54.0026C54.0026 22.4531 53.9939 22.4501 53.9895 22.4487C53.9822 22.4472 53.9764 22.4443 53.9705 22.4428C53.9632 22.4414 53.9574 22.4399 53.9516 22.4385C53.9443 22.4385 53.937 22.4355 53.9312 22.4355C53.9268 22.4355 53.921 22.4355 53.9166 22.4355H53.9151H53.9122C53.9035 22.4355 53.8962 22.4355 53.8889 22.4355C53.8802 22.4355 53.8729 22.4355 53.8641 22.4355C53.8554 22.4355 53.8452 22.437 53.8364 22.4399C53.8262 22.4414 53.816 22.4443 53.8058 22.4487C53.7927 22.4531 53.7796 22.4589 53.7665 22.4662L53.2505 22.7755C53.2724 22.7624 53.2957 22.7536 53.3204 22.7492C53.3452 22.7434 53.3729 22.7419 53.4006 22.7449H53.4021C53.4298 22.7478 53.4589 22.7536 53.4895 22.7638C53.5201 22.774 53.5522 22.7886 53.5857 22.8076L63.0294 28.2366C63.0615 28.2556 63.0936 28.2775 63.1242 28.3023C63.1242 28.3023 63.1256 28.3023 63.1271 28.3037C63.1577 28.3285 63.1869 28.3548 63.2131 28.3854C63.2131 28.3854 63.2131 28.3854 63.2145 28.3869C63.2422 28.4175 63.2699 28.4496 63.2947 28.4832C63.3195 28.5167 63.3428 28.5517 63.3632 28.5882C63.3632 28.5897 63.3647 28.5911 63.3661 28.5941C63.3865 28.6305 63.4055 28.667 63.4215 28.7049C63.4376 28.7429 63.4536 28.7823 63.4653 28.8217C63.4769 28.8611 63.4871 28.9005 63.4929 28.9384C63.4988 28.9778 63.5032 29.0172 63.5017 29.0536C63.5017 29.0901 63.4988 29.1251 63.4915 29.1558C63.4915 29.1558 63.4915 29.1572 63.4915 29.1587C63.4857 29.1893 63.4769 29.2171 63.4653 29.2433C63.4551 29.2652 63.4419 29.2827 63.4288 29.2988C63.4244 29.3046 63.4201 29.3104 63.4157 29.3148C63.3997 29.3309 63.3836 29.3469 63.3632 29.3571L63.8792 29.0478C63.8982 29.0361 63.9157 29.0215 63.9317 29.0055C63.9361 28.9997 63.9404 28.9953 63.9448 28.9894C63.9506 28.9822 63.9565 28.9763 63.9623 28.9676C63.9681 28.9574 63.9754 28.9471 63.9798 28.9355C63.9842 28.9282 63.9871 28.9194 63.99 28.9107C63.9929 28.9034 63.9958 28.8946 63.9987 28.8859C64.0016 28.8786 64.0031 28.8698 64.0046 28.8611C64.0046 28.8581 64.0046 28.8538 64.006 28.8508C64.006 28.8508 64.006 28.8494 64.006 28.8479C64.006 28.845 64.0075 28.8406 64.0075 28.8377C64.0075 28.8304 64.0104 28.8231 64.0104 28.8158C64.0104 28.8085 64.0119 28.8012 64.0133 28.7925C64.0133 28.7852 64.0133 28.7779 64.0148 28.7706C64.0148 28.7633 64.0148 28.756 64.0148 28.7473C64.0148 28.74 64.0148 28.7327 64.0148 28.7254L64.0104 28.7195Z" fill="#0160C0"/>
<path d="M63.0222 28.2308C63.2831 28.3825 63.4959 28.7502 63.4959 29.0493C63.4959 29.3499 63.2816 29.4724 63.0192 29.3207L53.5755 23.8917C53.3146 23.7414 53.1018 23.3723 53.1033 23.0717C53.1033 22.7726 53.3175 22.6501 53.5785 22.8003L63.0222 28.2308Z" fill="white"/>
<path d="M63.0221 28.2309L53.5784 22.8019C53.4502 22.7275 53.3321 22.7202 53.2476 22.7668C53.3277 22.7435 53.4254 22.7596 53.5318 22.8208L62.9755 28.2498C63.2364 28.4016 63.4492 28.7692 63.4492 29.0698C63.4492 29.2215 63.3938 29.328 63.3049 29.3762C63.4201 29.3426 63.4958 29.2288 63.4958 29.0508C63.4958 28.7503 63.2845 28.3826 63.0236 28.2309H63.0221Z" fill="white"/>
<path d="M64.0104 31.2757C64.0104 31.2684 64.0104 31.2611 64.0104 31.2523C64.0104 31.2436 64.0104 31.2377 64.0089 31.229C64.0075 31.2202 64.0075 31.2129 64.006 31.2056C64.006 31.1983 64.0031 31.1896 64.0031 31.1823V31.1808C64.0031 31.1735 64.0002 31.1662 63.9987 31.1589C63.9973 31.1502 63.9958 31.1429 63.9944 31.1341C63.9929 31.1254 63.99 31.1181 63.9885 31.1093C63.9871 31.1006 63.9842 31.0933 63.9827 31.0845C63.9812 31.0772 63.9783 31.0714 63.9769 31.0641C63.9769 31.0627 63.9769 31.0612 63.9769 31.0612C63.974 31.0524 63.9725 31.0451 63.9696 31.0364C63.9667 31.0291 63.9637 31.0203 63.9608 31.0116C63.9579 31.0043 63.955 30.9955 63.9521 30.9882C63.9492 30.9809 63.9463 30.9722 63.9433 30.9649C63.9404 30.9591 63.9375 30.9532 63.9361 30.9459C63.9361 30.9445 63.9361 30.943 63.9346 30.943C63.9317 30.9357 63.9273 30.927 63.9244 30.9197C63.92 30.9109 63.9171 30.9036 63.9127 30.8949C63.9084 30.8847 63.9025 30.8759 63.8982 30.8657C63.8923 30.8555 63.8865 30.8453 63.8807 30.835C63.8807 30.8336 63.8792 30.8321 63.8778 30.8292C63.8778 30.8278 63.8748 30.8248 63.8748 30.8234C63.8632 30.8044 63.8515 30.7854 63.8399 30.7665C63.8297 30.7519 63.8194 30.7373 63.8092 30.7242C63.802 30.7154 63.7947 30.7052 63.7874 30.6964C63.7815 30.6891 63.7757 30.6819 63.7684 30.6746C63.7626 30.6673 63.7568 30.66 63.7495 30.6527C63.7437 30.6454 63.7378 30.6381 63.7305 30.6322L63.7276 30.6293C63.7276 30.6293 63.7276 30.6293 63.7262 30.6279C63.7218 30.622 63.716 30.6177 63.7116 30.6118C63.7058 30.6045 63.6985 30.5987 63.6912 30.5914C63.6839 30.5841 63.6781 30.5783 63.6708 30.5724C63.6635 30.5666 63.6562 30.5608 63.6489 30.5535C63.646 30.5505 63.6416 30.5476 63.6387 30.5447C63.6387 30.5447 63.6372 30.5447 63.6358 30.5432C63.6329 30.5403 63.63 30.5389 63.627 30.536C63.6198 30.5301 63.6139 30.5257 63.6066 30.5199C63.5994 30.5155 63.5935 30.5097 63.5862 30.5053C63.5789 30.5009 63.5731 30.4966 63.5658 30.4922C63.5585 30.4878 63.5527 30.4834 63.5454 30.4805C63.544 30.4805 63.5425 30.479 63.5411 30.4776L54.0973 25.0486C54.0973 25.0486 54.0871 25.0428 54.0828 25.0398C54.0769 25.0369 54.0696 25.0325 54.0638 25.0296C54.058 25.0267 54.0507 25.0238 54.0449 25.0209C54.039 25.018 54.0318 25.015 54.0259 25.0136C54.0201 25.0107 54.0128 25.0092 54.007 25.0063C54.0055 25.0063 54.0041 25.0063 54.0026 25.0063H54.0011C54.0011 25.0063 53.9924 25.0034 53.988 25.0019C53.9807 25.0004 53.9749 24.9975 53.9691 24.9961C53.9618 24.9946 53.956 24.9931 53.9501 24.9917C53.9428 24.9917 53.9356 24.9888 53.9297 24.9888C53.9254 24.9888 53.9195 24.9888 53.9151 24.9888C53.9137 24.9888 53.9122 24.9888 53.9122 24.9888C53.9035 24.9888 53.8962 24.9888 53.8889 24.9888C53.8802 24.9888 53.8729 24.9888 53.8641 24.9888C53.8554 24.9888 53.8452 24.9902 53.8364 24.9931H53.835C53.8248 24.9961 53.8146 24.999 53.8044 25.0019C53.7913 25.0063 53.7781 25.0121 53.7665 25.0194L53.2505 25.3287C53.2724 25.3156 53.2957 25.3068 53.3204 25.3025C53.3452 25.2966 53.3715 25.2966 53.4006 25.2981C53.4298 25.301 53.4589 25.3068 53.4895 25.317C53.4895 25.317 53.4895 25.317 53.491 25.317C53.5216 25.3273 53.5537 25.3419 53.5857 25.3608L63.0294 30.7913C63.0615 30.8102 63.0936 30.8321 63.1242 30.8569C63.1242 30.8569 63.1256 30.8584 63.1271 30.8584C63.1577 30.8832 63.1869 30.9109 63.2131 30.9401C63.2131 30.9401 63.2131 30.9401 63.2145 30.9416C63.2422 30.9722 63.2699 31.0043 63.2947 31.0379C63.3195 31.0714 63.3428 31.1064 63.3632 31.1429C63.3632 31.1444 63.3647 31.1458 63.3661 31.1487C63.3865 31.1852 63.4055 31.2217 63.4215 31.2596C63.4376 31.2976 63.4521 31.337 63.4653 31.3763C63.4769 31.4157 63.4871 31.4551 63.4929 31.4931C63.4988 31.5325 63.5031 31.5719 63.5017 31.6083C63.5017 31.6448 63.4988 31.6798 63.4915 31.7105C63.4915 31.7105 63.4915 31.7119 63.4915 31.7134C63.4857 31.744 63.4769 31.7717 63.4653 31.798C63.4551 31.8184 63.4419 31.8359 63.4303 31.8534C63.4259 31.8593 63.4215 31.8651 63.4172 31.8695C63.4011 31.8855 63.3851 31.9016 63.3647 31.9118L63.8807 31.6025C63.8996 31.5908 63.9171 31.5762 63.9331 31.5602C63.9375 31.5543 63.9419 31.55 63.9463 31.5441C63.9521 31.5368 63.9579 31.531 63.9637 31.5222C63.9696 31.512 63.9769 31.5018 63.9812 31.4901C63.9856 31.4829 63.9885 31.4741 63.9914 31.4653C63.9944 31.458 63.9973 31.4493 64.0002 31.4405C64.0031 31.4332 64.0046 31.4245 64.006 31.4157C64.006 31.4128 64.006 31.4084 64.0075 31.4055C64.0075 31.4055 64.0075 31.4041 64.0075 31.4026C64.0075 31.3997 64.0089 31.3953 64.0089 31.3924C64.0089 31.3851 64.0118 31.3778 64.0118 31.3705C64.0118 31.3632 64.0133 31.3559 64.0148 31.3472C64.0148 31.3399 64.0148 31.3326 64.0162 31.3253C64.0162 31.318 64.0162 31.3107 64.0162 31.3019C64.0162 31.2932 64.0162 31.2873 64.0162 31.28L64.0104 31.2757Z" fill="#0160C0"/>
<path d="M63.0222 30.787C63.2831 30.9387 63.4959 31.3064 63.4959 31.6055C63.4959 31.906 63.2816 32.0286 63.0192 31.8768L53.5755 26.4478C53.3146 26.2976 53.1018 25.9284 53.1033 25.6279C53.1033 25.3288 53.3175 25.2062 53.5785 25.3565L63.0222 30.787Z" fill="white"/>
<path d="M63.0221 30.787L53.5784 25.358C53.4502 25.2836 53.3321 25.2763 53.2476 25.323C53.3277 25.2997 53.4254 25.3157 53.5318 25.377L62.9755 30.8074C63.2364 30.9592 63.4492 31.3269 63.4492 31.626C63.4492 31.7777 63.3938 31.8842 63.3049 31.9323C63.4201 31.8988 63.4958 31.785 63.4958 31.607C63.4958 31.3079 63.2845 30.9388 63.0221 30.787Z" fill="white"/>
<path d="M64.0104 33.8304C64.0104 33.8231 64.0104 33.8158 64.0104 33.807C64.0104 33.7983 64.0104 33.7924 64.0089 33.7837C64.0075 33.7749 64.0075 33.7676 64.006 33.7603C64.006 33.753 64.0031 33.7443 64.0031 33.737C64.0031 33.737 64.0031 33.737 64.0031 33.7355C64.0031 33.7282 64.0002 33.7209 63.9987 33.7136C63.9973 33.7049 63.9958 33.6976 63.9944 33.6888C63.9929 33.6801 63.99 33.6728 63.9885 33.664C63.9871 33.6553 63.9842 33.648 63.9827 33.6392C63.9812 33.6319 63.9783 33.6246 63.9769 33.6188C63.9769 33.6188 63.9769 33.6173 63.9769 33.6159C63.974 33.6071 63.9725 33.5998 63.9696 33.5911C63.9667 33.5838 63.9637 33.575 63.9608 33.5663C63.9579 33.559 63.955 33.5502 63.9521 33.5429C63.9492 33.5356 63.9463 33.5269 63.9433 33.5196C63.9404 33.5138 63.9375 33.5079 63.9361 33.5006C63.9361 33.5006 63.9361 33.4992 63.9361 33.4977C63.9331 33.4904 63.9288 33.4817 63.9259 33.4744C63.9215 33.4656 63.9186 33.4583 63.9142 33.4496C63.9098 33.4393 63.904 33.4306 63.8996 33.4204C63.8938 33.4102 63.888 33.4 63.8821 33.3897C63.8821 33.3883 63.8807 33.3868 63.8792 33.3839C63.8792 33.3824 63.8763 33.3795 63.8763 33.3781C63.8646 33.3591 63.853 33.3401 63.8413 33.3212C63.8311 33.3066 63.8209 33.292 63.8107 33.2789C63.8034 33.2701 63.7961 33.2599 63.7888 33.2511C63.783 33.2438 63.7772 33.2365 63.7699 33.2292C63.7641 33.2219 63.7582 33.2147 63.7509 33.2074C63.7451 33.2001 63.7393 33.1928 63.732 33.1869L63.7291 33.184C63.7291 33.184 63.7291 33.184 63.7276 33.1826C63.7232 33.1767 63.7174 33.1723 63.713 33.1665C63.7072 33.1592 63.6999 33.1534 63.6926 33.1461C63.6853 33.1388 63.6795 33.1329 63.6722 33.1271C63.6649 33.1213 63.6577 33.1154 63.6504 33.1081C63.6475 33.1052 63.6431 33.1023 63.6402 33.0994C63.6402 33.0994 63.6387 33.0994 63.6372 33.0979C63.6343 33.095 63.6314 33.0936 63.6285 33.0906C63.6212 33.0848 63.6154 33.0804 63.6081 33.0746C63.6008 33.0702 63.595 33.0644 63.5877 33.06C63.5804 33.0556 63.5746 33.0512 63.5673 33.0469C63.56 33.0425 63.5542 33.0381 63.5469 33.0352C63.5454 33.0352 63.544 33.0337 63.5425 33.0323L54.0988 27.6033C54.0988 27.6033 54.0886 27.5974 54.0842 27.5945C54.0784 27.5916 54.0711 27.5872 54.0653 27.5843C54.0594 27.5814 54.0522 27.5785 54.0463 27.5756C54.0405 27.5726 54.0332 27.5697 54.0274 27.5683C54.0215 27.5653 54.0143 27.5639 54.0084 27.561C54.007 27.561 54.0055 27.561 54.0041 27.561C54.0041 27.561 54.0041 27.561 54.0026 27.561C53.9982 27.561 53.9939 27.558 53.9895 27.5566C53.9822 27.5551 53.9764 27.5522 53.9705 27.5508C53.9632 27.5493 53.9574 27.5478 53.9516 27.5464C53.9443 27.5464 53.937 27.5435 53.9312 27.5435C53.9268 27.5435 53.921 27.5435 53.9166 27.5435H53.9151H53.9122C53.9035 27.5435 53.8962 27.5435 53.8889 27.5435C53.8802 27.5435 53.8729 27.5435 53.8641 27.5435C53.8554 27.5435 53.8452 27.5449 53.8364 27.5478C53.8248 27.5508 53.8146 27.5537 53.8044 27.5566C53.7913 27.561 53.7781 27.5668 53.7665 27.5741L53.2505 27.8834C53.2724 27.8703 53.2957 27.8615 53.3204 27.8571C53.3452 27.8513 53.3715 27.8513 53.4006 27.8528H53.4021C53.4298 27.8557 53.4589 27.8615 53.4895 27.8717C53.4895 27.8717 53.4895 27.8717 53.491 27.8717C53.5216 27.8819 53.5537 27.8965 53.5857 27.9155L63.0294 33.3445C63.0615 33.3635 63.0936 33.3854 63.1242 33.4102C63.1242 33.4102 63.1256 33.4116 63.1271 33.4116C63.1577 33.4364 63.1869 33.4641 63.2131 33.4933C63.2131 33.4933 63.2131 33.4933 63.2145 33.4948C63.2422 33.5254 63.2699 33.5575 63.2947 33.5911C63.3195 33.6246 63.3428 33.6597 63.3632 33.6961C63.3632 33.6976 63.3647 33.699 63.3661 33.702C63.3865 33.7384 63.4055 33.7749 63.4215 33.8129C63.4376 33.8508 63.4521 33.8902 63.4653 33.9296C63.4769 33.969 63.4871 34.0084 63.4929 34.0463C63.4988 34.0857 63.5032 34.1251 63.5017 34.1616C63.5017 34.198 63.4988 34.233 63.4915 34.2637C63.4915 34.2637 63.4915 34.2651 63.4915 34.2666C63.4857 34.2972 63.4769 34.325 63.4653 34.3512C63.4551 34.3717 63.4434 34.3892 63.4303 34.4067C63.4259 34.4125 63.4215 34.4183 63.4172 34.4227C63.4011 34.4388 63.3851 34.4548 63.3647 34.465L63.8807 34.1557C63.8996 34.144 63.9171 34.1295 63.9331 34.1134C63.9375 34.109 63.9419 34.1032 63.9463 34.0974C63.9521 34.0901 63.9579 34.0842 63.9638 34.0755C63.9696 34.0653 63.9769 34.055 63.9812 34.0434C63.9856 34.0361 63.9885 34.0273 63.9914 34.0186C63.9944 34.0113 63.9973 34.0025 64.0002 33.9938C64.0031 33.9865 64.0046 33.9777 64.006 33.969C64.006 33.966 64.006 33.9617 64.0075 33.9588C64.0075 33.9588 64.0075 33.9573 64.0075 33.9558C64.0075 33.9529 64.0089 33.9485 64.0089 33.9456C64.0089 33.9383 64.0118 33.931 64.0118 33.9237C64.0118 33.9164 64.0133 33.9091 64.0148 33.9004C64.0148 33.8931 64.0148 33.8858 64.0148 33.8785C64.0148 33.8712 64.0148 33.8639 64.0148 33.8552C64.0148 33.8479 64.0148 33.8406 64.0148 33.8333L64.0104 33.8304Z" fill="#0160C0"/>
<path d="M63.0222 33.3431C63.2831 33.4948 63.4959 33.8625 63.4959 34.1616C63.4959 34.4622 63.2816 34.5847 63.0192 34.433L53.5755 29.004C53.3146 28.8537 53.1018 28.4846 53.1033 28.184C53.1033 27.8849 53.3175 27.7624 53.5785 27.9126L63.0222 33.3431Z" fill="white"/>
<path d="M63.0221 33.3432L53.5784 27.9142C53.4502 27.8398 53.3321 27.8325 53.2476 27.8792C53.3277 27.8558 53.4254 27.8719 53.5318 27.9331L62.9755 33.3636C63.2364 33.5153 63.4492 33.883 63.4492 34.1821C63.4492 34.3338 63.3938 34.4403 63.3049 34.4885C63.4201 34.4549 63.4958 34.3411 63.4958 34.1631C63.4958 33.8626 63.2845 33.4949 63.0236 33.3432H63.0221Z" fill="white"/>
<path d="M41.74 37.6572L41.3217 37.9082C41.4558 37.8177 41.5928 37.7302 41.74 37.6572Z" fill="url(#paint0_linear_188_7120)"/>
<path d="M53.3001 44.8371L53.1092 44.716L53.2302 44.6416C53.2768 44.7685 53.3001 44.8356 53.3001 44.8356V44.8371Z" fill="url(#paint1_linear_188_7120)"/>
<path d="M62.0748 73.7051C62.0748 76.346 61.4422 77.6109 60.6347 78.1435C59.1815 79.0991 57.1452 77.6912 57.1452 77.6912L28.9919 61.7923C28.9919 61.7923 24.297 58.775 24.8364 52.9725C25.0011 51.1925 25.6701 50.1435 26.5067 49.5468L27.0723 49.2156L27.0985 49.2024C28.8593 48.3985 30.9903 49.0682 30.9903 49.0682C30.9903 49.0682 30.9932 48.0454 31.2949 46.7381C31.6127 45.3579 32.27 43.6582 33.6096 42.5216L35.073 41.6462C35.2275 41.582 35.3878 41.5295 35.5525 41.4813L35.5657 41.474C36.1953 41.2931 36.9125 41.2129 37.7258 41.2522C38.115 41.2727 38.4852 41.3223 38.8438 41.4025C39.0814 41.4536 39.316 41.5192 39.5405 41.5937C43.6363 42.9505 45.6113 47.8587 45.9874 48.8975C46.034 49.0244 46.0544 49.0915 46.0544 49.0915C46.0544 49.0915 50.9199 50.0005 53.3205 54.3309C55.5681 58.3869 55.1396 62.3482 55.1396 62.3482L55.1425 62.3511C55.3364 62.4284 61.2367 64.9058 61.9902 72.0754C62.0267 72.4212 62.0544 72.7758 62.0646 73.142C62.0719 73.336 62.0719 73.5199 62.0748 73.7008V73.7051Z" fill="#C0EAFD"/>
<path d="M60.5283 76.5767C60.349 76.9604 60.1552 77.1442 60.0313 77.2245C59.8782 77.3266 59.6917 77.3777 59.4614 77.3777C58.7879 77.3777 58.0096 76.9502 57.7647 76.7838L57.7283 76.759L29.5648 60.8528C29.2179 60.6179 25.4763 57.9786 25.9296 53.0734C26.0433 51.8405 26.4412 50.9651 27.1102 50.4676L27.5898 50.186C27.8929 50.0503 28.2486 49.9627 28.6509 49.9263C28.0955 50.4384 27.7618 51.2656 27.6554 52.3789C27.202 57.2841 30.9437 59.9234 31.2906 60.1583L59.4541 76.0645L59.4949 76.0908C59.6596 76.2046 60.0735 76.4381 60.5298 76.5781L60.5283 76.5767Z" fill="#ADE4FC"/>
<path d="M60.9772 73.7242C60.9772 75.1993 60.7615 76.0674 60.5268 76.5766C60.0691 76.438 59.6566 76.2031 59.4919 76.0893L59.4511 76.0631L31.2876 60.1569C30.9407 59.922 27.1991 57.2826 27.6524 52.3774C27.7588 51.2642 28.0911 50.4369 28.6479 49.9248C28.7937 49.9102 28.9482 49.9029 29.1056 49.9029C29.9612 49.9029 30.6594 50.1115 30.6667 50.1144L32.0776 50.5463L32.0849 49.3412C32.0806 49.3383 32.2744 49.382 32.0849 49.3412L33.8034 49.8504L33.8151 48.3709C33.8151 48.3709 33.8224 47.4444 34.0891 46.2845C34.3413 45.1903 34.8748 43.6933 35.9796 42.7158L36.5204 42.3933C36.7725 42.3569 37.0436 42.3379 37.3206 42.3379C37.4343 42.3379 37.5509 42.3408 37.6675 42.3496C37.9896 42.3642 38.3045 42.4079 38.6003 42.4736C38.7942 42.5144 38.9837 42.5655 39.1965 42.6341C42.8317 43.8421 44.6275 48.3738 44.9525 49.2711C44.9817 49.3558 44.9962 49.4024 45.0035 49.4141L45.1974 50.0444L45.8489 50.1728C45.8897 50.1801 50.2479 51.0584 52.3585 54.8665C54.3962 58.5417 54.0478 62.1995 54.0449 62.236L53.9939 62.7189L54.4953 63.2748L54.7373 63.374C54.7883 63.3959 60.212 65.6661 60.8956 72.1923C60.9364 72.5395 60.9583 72.862 60.9656 73.1727C60.9699 73.2938 60.9728 73.4076 60.9728 73.5171L60.9772 73.7213V73.7242Z" fill="white"/>
<path d="M35.073 41.6462L33.6096 42.5217C34.0279 42.1627 34.5103 41.8651 35.073 41.6462Z" fill="url(#paint2_linear_188_7120)"/>
<path d="M53.3001 44.8372L46.053 49.0946C46.053 49.0946 46.0326 49.0275 45.9859 48.9005C45.6113 47.8617 43.6349 42.9536 39.539 41.5967C39.3146 41.5223 39.0799 41.4566 38.8423 41.4056C38.4837 41.3253 38.1121 41.2742 37.7243 41.2553C36.911 41.2144 36.1939 41.2961 35.5642 41.477L35.5511 41.4843C35.3878 41.531 35.226 41.585 35.0715 41.6492L41.294 37.9287L41.3202 37.9127L41.7385 37.6617C42.0607 37.4837 42.4119 37.3407 42.7938 37.2298L42.8099 37.2226C43.4395 37.0416 44.1523 36.9614 44.97 37.0008C45.6128 37.0343 46.2192 37.1554 46.7818 37.3422C50.8776 38.6991 52.8526 43.6072 53.2287 44.646L53.1077 44.7204L53.2987 44.8415L53.3001 44.8372Z" fill="#C0EAFD"/>
<path d="M62.3823 58.0952L55.1396 62.3527C55.1396 62.3527 55.5681 58.3914 53.3205 54.3354C50.9199 50.005 46.0544 49.096 46.0544 49.096L53.3016 44.8386C53.3016 44.8386 53.3249 44.8415 53.3715 44.8518C53.975 44.9831 58.3302 46.0525 60.5647 50.078C62.8123 54.134 62.3838 58.0952 62.3838 58.0952H62.3823Z" fill="#ADE4FC"/>
<path d="M53.3701 44.8502C53.3235 44.84 53.3001 44.8371 53.3001 44.8371L53.1092 44.716L53.2302 44.6416L53.3701 44.8488V44.8502Z" fill="url(#paint3_linear_188_7120)"/>
<path d="M69.3175 69.4478C69.3175 72.093 68.6879 73.3536 67.8774 73.8861L67.7229 73.9766L60.6332 78.1436C61.4407 77.611 62.0733 76.3475 62.0733 73.7052C62.0704 73.5243 62.0704 73.3405 62.0631 73.145C62.0529 72.7802 62.0267 72.4242 61.9888 72.0784C61.2352 64.9088 55.3349 62.4314 55.141 62.3541L55.1381 62.3512L62.3809 58.0938L62.3838 58.0967C62.5879 58.1769 69.0581 60.8951 69.3059 68.8905C69.3117 69.0816 69.3161 69.2698 69.3161 69.4478H69.3175Z" fill="#C0EAFD"/>
<path d="M31.2964 46.7383C30.9946 48.0456 30.9917 49.0683 30.9917 49.0683C30.9917 49.0683 28.8622 48.3972 27.1 49.2026L31.2964 46.7383Z" fill="#C0EAFD"/>
<path d="M32.0791 50.5492C32.0791 50.5492 32.0791 49.719 32.0864 49.3441L32.0893 49.0698C32.0893 49.0698 32.0966 48.1433 32.3633 46.9863C32.6155 45.8877 33.149 44.3907 34.2538 43.4132L35.5598 42.6326C35.6473 42.599 35.742 42.5669 35.8528 42.5378L35.9519 42.5086L35.9592 42.5057C36.1385 42.4575 36.3251 42.421 36.5218 42.3962L35.9811 42.7187C34.8762 43.6962 34.3427 45.1932 34.0906 46.2874C33.8238 47.4474 33.8165 48.3665 33.8165 48.3738L33.8049 49.8533L32.0791 50.5492Z" fill="#ADE4FC"/>
</g>
<defs>
<linearGradient id="paint0_linear_188_7120" x1="41.3217" y1="37.7827" x2="41.74" y2="37.7827" gradientUnits="userSpaceOnUse">
<stop stop-color="#E2E2E2"/>
<stop offset="1" stop-color="#FDFDFD"/>
</linearGradient>
<linearGradient id="paint1_linear_188_7120" x1="53.1092" y1="44.7394" x2="53.3001" y2="44.7394" gradientUnits="userSpaceOnUse">
<stop stop-color="#E2E2E2"/>
<stop offset="1" stop-color="#FDFDFD"/>
</linearGradient>
<linearGradient id="paint2_linear_188_7120" x1="33.6096" y1="42.0839" x2="35.073" y2="42.0839" gradientUnits="userSpaceOnUse">
<stop stop-color="#E2E2E2"/>
<stop offset="1" stop-color="#FDFDFD"/>
</linearGradient>
<linearGradient id="paint3_linear_188_7120" x1="53.1092" y1="44.7467" x2="53.3701" y2="44.7467" gradientUnits="userSpaceOnUse">
<stop stop-color="#E2E2E2"/>
<stop offset="1" stop-color="#FDFDFD"/>
</linearGradient>
<clipPath id="clip0_188_7120">
<rect width="122" height="100" fill="white"/>
</clipPath>
</defs>
</svg>
