<svg width="84" height="100" viewBox="0 0 84 100" fill="none" xmlns="http://www.w3.org/2000/svg">
<g opacity="0.2">
<path d="M1.25194 24.8725L44.2243 0.101349C44.6415 -0.136183 44.9762 0.0577205 44.9762 0.537632V73.8235C44.9762 74.3034 44.6415 74.8851 44.2243 75.1275L1.25194 99.8987C0.834736 100.136 0.5 99.9423 0.5 99.4624V26.1765C0.5 25.6966 0.834736 25.1149 1.25194 24.8725Z" fill="black"/>
</g>
<path d="M4.69154 99.1421C4.79342 99.1421 4.90014 99.1082 5.01172 99.0452L45.2043 75.8349C45.8495 75.4616 46.3977 74.5212 46.3977 73.7747V4.12938C46.3977 3.6834 46.2085 3.42163 45.898 3.42163C45.7574 3.42163 45.5924 3.47495 45.4275 3.57191L5.23003 26.7579C4.58481 27.1312 4.03662 28.0765 4.03662 28.823V98.1484C4.03662 98.4247 4.11424 98.6864 4.24522 98.8755C4.33255 98.9967 4.47808 99.1421 4.69154 99.1421Z" fill="#FAFAFA"/>
<path d="M2.70255 98.3373C2.84323 98.41 3.85714 98.9869 4.29861 99.2438C3.99783 99.0305 3.84259 98.6669 3.81834 98.1531V33.0742L2.14951 32.0999V97.2078C2.14951 97.712 2.36781 98.1628 2.6977 98.3373H2.70255Z" fill="#EBEBEB"/>
<path d="M45.898 3.63962C46.1406 3.63962 46.1794 3.94502 46.1794 4.12922V73.7745C46.1794 74.4532 45.6846 75.3064 45.0976 75.6457L4.90013 98.8559C4.82251 98.8996 4.75459 98.9238 4.69152 98.9238C4.45866 98.9238 4.25976 98.5602 4.25976 98.1482V28.818C4.25976 28.1393 4.75459 27.2813 5.34159 26.9468L45.5342 3.76081C45.704 3.66385 45.8253 3.64446 45.898 3.64446M45.898 3.20333C45.7234 3.20333 45.5245 3.26151 45.3159 3.38269L5.11843 26.5687C4.40045 26.9856 3.8183 27.9939 3.8183 28.8228V98.1482C3.8183 98.8026 4.18214 99.3601 4.69152 99.3601C4.82736 99.3601 4.9729 99.3213 5.12328 99.2341L45.3159 76.0238C46.0339 75.6118 46.6209 74.6035 46.6209 73.7745V4.12922C46.6209 3.54267 46.3298 3.19849 45.898 3.19849V3.20333Z" fill="#E0E0E0"/>
<path d="M46.616 4.10499V8.44358L3.81831 33.1227L2.15433 32.1531V27.8727C2.15433 27.4558 2.30957 26.9856 2.55213 26.5736C2.78499 26.1712 3.11002 25.827 3.45931 25.6234L43.6519 2.43257C44.0254 2.21928 44.3553 2.21443 44.6027 2.35501C44.8405 2.50044 45.9805 3.15002 46.2134 3.26636C46.2473 3.28575 46.2861 3.30514 46.3104 3.33422C46.3443 3.36331 46.3832 3.39724 46.4123 3.43602C46.4462 3.4748 46.4705 3.51843 46.4947 3.56691C46.5238 3.61538 46.5432 3.66386 46.5578 3.72688C46.5772 3.7802 46.5918 3.84322 46.5966 3.90624V3.91593C46.6063 3.97411 46.6112 4.03228 46.6112 4.10014L46.616 4.10499Z" fill="#0160C0"/>
<path opacity="0.15" d="M46.616 4.10499V8.44358L3.81831 33.1227L2.15433 32.1531V27.8727C2.15433 27.4558 2.30957 26.9856 2.55213 26.5736C2.78499 26.1712 3.11002 25.827 3.45931 25.6234L43.6519 2.43257C44.0254 2.21928 44.3553 2.21443 44.6027 2.35501C44.8405 2.50044 45.9805 3.15002 46.2134 3.26636C46.2473 3.28575 46.2861 3.30514 46.3104 3.33422C46.3443 3.36331 46.3832 3.39724 46.4123 3.43602C46.4462 3.4748 46.4705 3.51843 46.4947 3.56691C46.5238 3.61538 46.5432 3.66386 46.5578 3.72688C46.5772 3.7802 46.5918 3.84322 46.5966 3.90624V3.91593C46.6063 3.97411 46.6112 4.03228 46.6112 4.10014L46.616 4.10499Z" fill="black"/>
<path d="M46.616 4.10513V8.44372L3.8183 33.1228V28.8181C3.8183 28.5564 3.87166 28.2849 3.97839 28.0134C3.99294 27.9698 4.01235 27.9213 4.03175 27.8777C4.08512 27.7614 4.14333 27.6402 4.21125 27.5238C4.44896 27.1166 4.76914 26.7628 5.12328 26.564L45.3159 3.37799C45.7137 3.14531 46.0727 3.15016 46.3152 3.33921C46.3492 3.3683 46.388 3.40223 46.4171 3.44101C46.4511 3.47979 46.4753 3.52342 46.4996 3.5719C46.5287 3.62037 46.5481 3.66885 46.5626 3.73187C46.5821 3.78519 46.5966 3.84821 46.6015 3.91123V3.92092C46.6112 3.9791 46.616 4.03727 46.616 4.10513Z" fill="#0160C0"/>
<path d="M37.8789 9.32134C37.4277 9.57826 37.0639 10.349 37.0639 11.0422C37.0639 11.7354 37.4277 12.0845 37.8789 11.8227C38.3301 11.5658 38.6891 10.795 38.6891 10.1018C38.6891 9.4086 38.3252 9.05957 37.8789 9.32134Z" fill="#FAFAFA"/>
<path d="M40.8042 7.63457C40.353 7.8915 39.9892 8.66226 39.9892 9.35547C39.9892 10.0487 40.353 10.3977 40.8042 10.1359C41.2505 9.87901 41.6144 9.10824 41.6144 8.41504C41.6144 7.72183 41.2505 7.3728 40.8042 7.63457Z" fill="#FAFAFA"/>
<path d="M43.7295 5.94268C43.2783 6.1996 42.9145 6.97037 42.9145 7.66357C42.9145 8.35678 43.2783 8.70581 43.7295 8.44404C44.1807 8.18711 44.5445 7.41635 44.5445 6.72314C44.5445 6.02994 44.1807 5.68091 43.7295 5.94268Z" fill="#FAFAFA"/>
<path d="M45.3159 3.37781L5.12329 26.5687C4.76914 26.7771 4.43926 27.131 4.2064 27.5333L2.55212 26.5784C2.78498 26.176 3.10517 25.8318 3.45931 25.6282L43.6519 2.43738C44.0254 2.21924 44.3553 2.21439 44.5979 2.35982C44.8308 2.50525 45.9126 3.11604 46.1842 3.26632C45.9562 3.15482 45.6458 3.18876 45.311 3.38266L45.3159 3.37781Z" fill="#0160C0"/>
<g opacity="0.5">
<path d="M45.3159 3.37781L5.12329 26.5687C4.76914 26.7771 4.43926 27.131 4.2064 27.5333L2.55212 26.5784C2.78498 26.176 3.10517 25.8318 3.45931 25.6282L43.6519 2.43738C44.0254 2.21924 44.3553 2.21439 44.5979 2.35982C44.8308 2.50525 45.9126 3.11604 46.1842 3.26632C45.9562 3.15482 45.6458 3.18876 45.311 3.38266L45.3159 3.37781Z" fill="white"/>
</g>
<path d="M13.22 43.9285C13.1521 43.9285 13.0987 43.8752 13.0987 43.8073V38.6495C13.0987 38.5816 13.1521 38.5283 13.22 38.5283C13.2879 38.5283 13.3413 38.5816 13.3413 38.6495V43.8073C13.3413 43.8752 13.2879 43.9285 13.22 43.9285Z" fill="#455A64"/>
<path d="M12.8076 43.3274L13.22 43.7394L13.6323 43.3274V43.6764L13.22 44.0885L12.8076 43.6764V43.3274Z" fill="#455A64"/>
<path d="M17.6007 44.4954C17.557 44.4954 17.5182 44.4761 17.4939 44.4324C17.46 44.3743 17.4794 44.3015 17.5376 44.2676L20.9383 42.3092C20.9965 42.2752 21.0693 42.2946 21.1033 42.3528C21.1372 42.411 21.1178 42.4837 21.0596 42.5176L17.6589 44.476C17.6589 44.476 17.6201 44.4906 17.6007 44.4906V44.4954Z" fill="#455A64"/>
<path d="M20.7879 43.0073L20.9383 42.4498L20.3756 42.2995L20.6812 42.125L21.2391 42.2753L21.0887 42.8327L20.7879 43.0073Z" fill="#455A64"/>
<path d="M16.9748 71.5884C16.9312 71.5884 16.8924 71.569 16.8681 71.5254C16.8342 71.4672 16.8536 71.3945 16.9118 71.3606L20.3125 69.3973C20.3707 69.3634 20.4435 69.3828 20.4774 69.4409C20.5114 69.4991 20.492 69.5718 20.4338 69.6058L17.0331 71.569C17.0331 71.569 16.9943 71.5836 16.9748 71.5836V71.5884Z" fill="#455A64"/>
<path d="M20.1573 70.1049L20.3077 69.5426L19.7498 69.3923L20.0505 69.2178L20.6133 69.3681L20.4629 69.9304L20.1573 70.1049Z" fill="#455A64"/>
<path d="M29.3116 64.4722C29.2679 64.4722 29.2291 64.4528 29.2049 64.4092C29.1709 64.351 29.1903 64.2783 29.2485 64.2444L32.6492 62.2811C32.7075 62.2472 32.7802 62.2666 32.8142 62.3247C32.8481 62.3829 32.8287 62.4556 32.7705 62.4896L29.3698 64.448C29.3698 64.448 29.331 64.4625 29.3116 64.4625V64.4722Z" fill="#455A64"/>
<path d="M32.494 62.9887L32.6444 62.4264L32.0816 62.2761L32.3873 62.1016L32.95 62.2518L32.7996 62.8142L32.494 62.9887Z" fill="#455A64"/>
<path d="M30.1024 37.2818C30.0587 37.2818 30.0199 37.2624 29.9956 37.2188C29.9617 37.1606 29.9811 37.0879 30.0393 37.0539L33.44 35.0907C33.4982 35.0567 33.571 35.0761 33.605 35.1343C33.6389 35.1925 33.6195 35.2652 33.5613 35.2991L30.1606 37.2624C30.1606 37.2624 30.1218 37.2769 30.1024 37.2769V37.2818Z" fill="#455A64"/>
<path d="M33.2896 35.7987L33.44 35.2364L32.8773 35.0861L33.178 34.9116L33.7408 35.0619L33.5904 35.6242L33.2896 35.7987Z" fill="#455A64"/>
<path d="M29.8792 50.9136C29.8355 50.9136 29.7967 50.8942 29.7725 50.8506C29.7385 50.7924 29.7579 50.7197 29.8161 50.6858L33.2169 48.7225C33.2751 48.6886 33.3478 48.708 33.3818 48.7661C33.4158 48.8243 33.3964 48.897 33.3381 48.931L29.9374 50.8942C29.9374 50.8942 29.8986 50.9088 29.8792 50.9088V50.9136Z" fill="#455A64"/>
<path d="M30.0926 50.1912L29.9423 50.7535L30.505 50.9038L30.1994 51.0783L29.6366 50.928L29.787 50.3657L30.0926 50.1912Z" fill="#455A64"/>
<path d="M29.6609 76.2464C29.6172 76.2464 29.5784 76.227 29.5541 76.1833C29.5202 76.1252 29.5396 76.0525 29.5978 76.0185L32.7705 74.1861C32.8287 74.1522 32.9015 74.1716 32.9354 74.2298C32.9694 74.2879 32.95 74.3606 32.8918 74.3946L29.7191 76.227C29.7191 76.227 29.6803 76.2415 29.6609 76.2415V76.2464Z" fill="#455A64"/>
<path d="M29.8743 75.5293L29.7239 76.0916L30.2866 76.2419L29.9859 76.4164L29.4231 76.2661L29.5735 75.7038L29.8743 75.5293Z" fill="#455A64"/>
<path d="M17.6637 57.9571C17.6201 57.9571 17.5812 57.9377 17.557 57.8941C17.523 57.8359 17.5424 57.7632 17.6007 57.7292L21.0014 55.766C21.0596 55.732 21.1324 55.7514 21.1663 55.8096C21.2003 55.8678 21.1809 55.9405 21.1227 55.9744L17.7219 57.9377C17.7219 57.9377 17.6831 57.9522 17.6637 57.9522V57.9571Z" fill="#455A64"/>
<path d="M17.8723 57.2395L17.7219 57.8018L18.2847 57.9521L17.9839 58.1266L17.4211 57.9763L17.5715 57.414L17.8723 57.2395Z" fill="#455A64"/>
<path d="M36.9959 41.8872C36.928 41.8872 36.8747 41.8338 36.8747 41.766V37.8346C36.8747 37.7667 36.928 37.7134 36.9959 37.7134C37.0639 37.7134 37.1172 37.7667 37.1172 37.8346V41.766C37.1172 41.8338 37.0639 41.8872 36.9959 41.8872Z" fill="#455A64"/>
<path d="M36.5836 41.2812L36.9959 41.6933L37.4083 41.2812V41.6303L36.9959 42.0423L36.5836 41.6303V41.2812Z" fill="#455A64"/>
<path d="M13.22 67.0029C13.22 67.0029 13.1763 66.998 13.1618 66.9883C13.123 66.9689 13.1035 66.9253 13.1035 66.8817V63.9877C13.1035 63.9198 13.1569 63.8665 13.2248 63.8665C13.2927 63.8665 13.3461 63.9198 13.3461 63.9877V66.6684L36.8795 53.0903V51.2918C36.8795 51.224 36.9329 51.1707 37.0008 51.1707C37.0687 51.1707 37.1221 51.224 37.1221 51.2918V53.1582C37.1221 53.2018 37.0978 53.2406 37.0639 53.2648L13.2879 66.9835C13.2879 66.9835 13.2491 66.998 13.2297 66.998L13.22 67.0029Z" fill="#455A64"/>
<path d="M13.6323 64.4718L13.22 64.0646L12.8076 64.4718V64.1228L13.22 63.7156L13.6323 64.1228V64.4718Z" fill="#455A64"/>
<path d="M13.22 80.4208C13.22 80.4208 13.1763 80.4159 13.1618 80.4062C13.123 80.3868 13.1035 80.3432 13.1035 80.2996V78.4333C13.1035 78.3654 13.1569 78.3121 13.2248 78.3121C13.2927 78.3121 13.3461 78.3654 13.3461 78.4333V80.0911L36.8795 66.513V63.6917C36.8795 63.6239 36.9329 63.5706 37.0008 63.5706C37.0687 63.5706 37.1221 63.6239 37.1221 63.6917V66.5858C37.1221 66.6294 37.0978 66.6682 37.0639 66.6924L13.2879 80.4111C13.2879 80.4111 13.2491 80.4256 13.2297 80.4256L13.22 80.4208Z" fill="#455A64"/>
<path d="M37.4083 64.1717L36.9959 63.7645L36.5836 64.1717V63.8227L36.9959 63.4155L37.4083 63.8227V64.1717Z" fill="#455A64"/>
<path d="M7.78174 76.8964C7.78174 76.8964 7.73808 76.8916 7.72353 76.8819C7.68472 76.8625 7.66046 76.8188 7.66046 76.7752V63.5413C7.66046 63.4977 7.68472 63.4589 7.72353 63.4346L9.00911 62.693C9.06732 62.659 9.14009 62.6784 9.17405 62.7366C9.20801 62.7948 9.1886 62.8675 9.13039 62.9014L7.90302 63.6092V76.5619L9.25167 75.7815C9.30989 75.7475 9.38265 75.7669 9.41661 75.8251C9.45057 75.8833 9.43117 75.956 9.37295 75.9899L7.84481 76.8722C7.84481 76.8722 7.806 76.8867 7.78659 76.8867L7.78174 76.8964Z" fill="#455A64"/>
<path d="M9.09644 76.4887L9.24683 75.9264L8.68408 75.7761L8.98971 75.6016L9.55246 75.7518L9.39722 76.3142L9.09644 76.4887Z" fill="#455A64"/>
<path d="M41.6046 69.3584C41.561 69.3584 41.5222 69.339 41.4979 69.2953C41.464 69.2372 41.4834 69.1645 41.5416 69.1305L42.8223 68.3888V56.6916L41.7162 57.3266C41.658 57.3606 41.5852 57.3412 41.5513 57.283C41.5173 57.2248 41.5367 57.1521 41.5949 57.1182L42.8805 56.3765C42.9193 56.3523 42.963 56.3571 43.0018 56.3765C43.0406 56.3959 43.06 56.4395 43.06 56.4832V68.4616C43.06 68.5052 43.0358 68.544 43.0018 68.5682L41.658 69.3438C41.658 69.3438 41.6192 69.3584 41.5998 69.3584H41.6046Z" fill="#455A64"/>
<path d="M41.8181 68.6409L41.6677 69.2032L42.2304 69.3535L41.9297 69.528L41.3669 69.3777L41.5173 68.8154L41.8181 68.6409Z" fill="#455A64"/>
<path d="M16.8875 33.3365C16.8875 34.7083 15.243 36.7686 13.22 37.9417C11.1922 39.11 9.55246 38.9451 9.55246 37.5733C9.55246 36.2014 11.197 34.1412 13.22 32.9681C15.243 31.7949 16.8875 31.9646 16.8875 33.3365Z" fill="#0160C0"/>
<path d="M28.9332 76.5481C28.9332 77.92 27.2886 79.9802 25.2656 81.1533C23.2378 82.3216 21.5981 82.1568 21.5981 80.7849C21.5981 79.413 23.2427 77.3528 25.2656 76.1797C27.2934 75.0114 28.9332 75.1762 28.9332 76.5481Z" fill="#0160C0"/>
<path d="M16.5577 47.1763L9.87748 51.0301C9.67858 51.1465 9.51364 51.0253 9.51364 50.7586V47.3217C9.51364 47.0551 9.67373 46.7448 9.87748 46.6285L16.5577 42.7747C16.7566 42.6583 16.9215 42.7795 16.9215 43.0461V46.4831C16.9215 46.7497 16.7614 47.0599 16.5577 47.1763Z" fill="#0160C0"/>
<path opacity="0.6" d="M16.5577 47.1763L9.87748 51.0301C9.67858 51.1465 9.51364 51.0253 9.51364 50.7586V47.3217C9.51364 47.0551 9.67373 46.7448 9.87748 46.6285L16.5577 42.7747C16.7566 42.6583 16.9215 42.7795 16.9215 43.0461V46.4831C16.9215 46.7497 16.7614 47.0599 16.5577 47.1763Z" fill="white"/>
<path d="M28.6033 40.2297L21.9231 44.0836C21.7242 44.1999 21.5593 44.0787 21.5593 43.8121V40.3752C21.5593 40.1086 21.7194 39.7983 21.9231 39.682L28.6033 35.8281C28.8022 35.7118 28.9672 35.833 28.9672 36.0996V39.5365C28.9672 39.8032 28.8071 40.1134 28.6033 40.2249V40.2297Z" fill="#0160C0"/>
<path opacity="0.6" d="M28.6033 40.2297L21.9231 44.0836C21.7242 44.1999 21.5593 44.0787 21.5593 43.8121V40.3752C21.5593 40.1086 21.7194 39.7983 21.9231 39.682L28.6033 35.8281C28.8022 35.7118 28.9672 35.833 28.9672 36.0996V39.5365C28.9672 39.8032 28.8071 40.1134 28.6033 40.2249V40.2297Z" fill="white"/>
<path d="M28.6033 53.7258L21.9231 57.5797C21.7242 57.696 21.5593 57.5748 21.5593 57.3082V53.8713C21.5593 53.6046 21.7194 53.2944 21.9231 53.1781L28.6033 49.3242C28.8022 49.2079 28.9672 49.3291 28.9672 49.5957V53.0326C28.9672 53.2993 28.8071 53.6095 28.6033 53.7258Z" fill="#0160C0"/>
<path opacity="0.6" d="M28.6033 53.7258L21.9231 57.5797C21.7242 57.696 21.5593 57.5748 21.5593 57.3082V53.8713C21.5593 53.6046 21.7194 53.2944 21.9231 53.1781L28.6033 49.3242C28.8022 49.2079 28.9672 49.3291 28.9672 49.5957V53.0326C28.9672 53.2993 28.8071 53.6095 28.6033 53.7258Z" fill="white"/>
<path d="M28.6033 66.9592L21.9231 70.8131C21.7242 70.9294 21.5593 70.8082 21.5593 70.5416V67.1047C21.5593 66.838 21.7194 66.5278 21.9231 66.4115L28.6033 62.5576C28.8022 62.4413 28.9672 62.5625 28.9672 62.8291V66.266C28.9672 66.5326 28.8071 66.8429 28.6033 66.9592Z" fill="#0160C0"/>
<path opacity="0.6" d="M28.6033 66.9592L21.9231 70.8131C21.7242 70.9294 21.5593 70.8082 21.5593 70.5416V67.1047C21.5593 66.838 21.7194 66.5278 21.9231 66.4115L28.6033 62.5576C28.8022 62.4413 28.9672 62.5625 28.9672 62.8291V66.266C28.9672 66.5326 28.8071 66.8429 28.6033 66.9592Z" fill="white"/>
<path d="M40.3384 60.1921L33.6583 64.046C33.4594 64.1623 33.2944 64.0411 33.2944 63.7745V60.3376C33.2944 60.071 33.4545 59.7607 33.6583 59.6444L40.3384 55.7905C40.5373 55.6742 40.7023 55.7954 40.7023 56.062V59.4989C40.7023 59.7656 40.5422 60.0758 40.3384 60.1873V60.1921Z" fill="#0160C0"/>
<path opacity="0.6" d="M40.3384 60.1921L33.6583 64.046C33.4594 64.1623 33.2944 64.0411 33.2944 63.7745V60.3376C33.2944 60.071 33.4545 59.7607 33.6583 59.6444L40.3384 55.7905C40.5373 55.6742 40.7023 55.7954 40.7023 56.062V59.4989C40.7023 59.7656 40.5422 60.0758 40.3384 60.1873V60.1921Z" fill="white"/>
<path d="M40.3384 72.1707L33.6583 76.0245C33.4594 76.1409 33.2944 76.0197 33.2944 75.7531V72.3161C33.2944 72.0495 33.4545 71.7393 33.6583 71.6278L40.3384 67.7739C40.5373 67.6576 40.7023 67.7788 40.7023 68.0454V71.4823C40.7023 71.749 40.5422 72.0592 40.3384 72.1755V72.1707Z" fill="#0160C0"/>
<path opacity="0.6" d="M40.3384 72.1707L33.6583 76.0245C33.4594 76.1409 33.2944 76.0197 33.2944 75.7531V72.3161C33.2944 72.0495 33.4545 71.7393 33.6583 71.6278L40.3384 67.7739C40.5373 67.6576 40.7023 67.7788 40.7023 68.0454V71.4823C40.7023 71.749 40.5422 72.0592 40.3384 72.1755V72.1707Z" fill="white"/>
<path d="M16.5577 60.6766L9.87748 64.5304C9.67858 64.6467 9.51364 64.5255 9.51364 64.2589V60.822C9.51364 60.5554 9.67373 60.2451 9.87748 60.1336L16.5577 56.2798C16.7566 56.1635 16.9215 56.2846 16.9215 56.5513V59.9882C16.9215 60.2548 16.7614 60.5651 16.5577 60.6814V60.6766Z" fill="#0160C0"/>
<path opacity="0.6" d="M16.5577 60.6766L9.87748 64.5304C9.67858 64.6467 9.51364 64.5255 9.51364 64.2589V60.822C9.51364 60.5554 9.67373 60.2451 9.87748 60.1336L16.5577 56.2798C16.7566 56.1635 16.9215 56.2846 16.9215 56.5513V59.9882C16.9215 60.2548 16.7614 60.5651 16.5577 60.6814V60.6766Z" fill="white"/>
<path d="M36.6563 36.793L33.8329 32.8471C33.6146 32.5417 33.8135 31.7952 34.1725 31.5867L39.8242 28.3243C40.1832 28.1207 40.3821 28.6345 40.1638 29.192L37.3404 36.3955C37.1706 36.8318 36.8358 37.0257 36.666 36.7833L36.6563 36.793Z" fill="#455A64"/>
<path d="M39.8679 45.5523L37.2482 50.0605C37.0978 50.3223 36.8892 50.4435 36.7388 50.3562L34.1192 48.868C33.8911 48.7371 33.8911 48.2088 34.1192 47.8113L36.7388 43.303C36.8892 43.0412 37.0978 42.92 37.2482 43.0073L39.8679 44.4955C40.0959 44.6264 40.0959 45.1548 39.8679 45.5523Z" fill="#0160C0"/>
<g opacity="0.3">
<path d="M39.8679 45.5523L37.2482 50.0605C37.0978 50.3223 36.8892 50.4435 36.7388 50.3562L34.1192 48.868C33.8911 48.7371 33.8911 48.2088 34.1192 47.8113L36.7388 43.303C36.8892 43.0412 37.0978 42.92 37.2482 43.0073L39.8679 44.4955C40.0959 44.6264 40.0959 45.1548 39.8679 45.5523Z" fill="white"/>
</g>
<path d="M16.0919 72.5049L13.4722 77.0132C13.3219 77.2749 13.1132 77.3961 12.9629 77.3089L10.3432 75.8207C10.1152 75.6898 10.1152 75.1614 10.3432 74.7639L12.9629 70.2556C13.1132 69.9939 13.3219 69.8727 13.4722 69.9599L16.0919 71.4481C16.3199 71.579 16.3199 72.1074 16.0919 72.5049Z" fill="#0160C0"/>
<g opacity="0.3">
<path d="M16.0919 72.5047L13.4722 77.0129C13.3219 77.2747 13.1132 77.3959 12.9629 77.3086L10.3432 75.8204C10.1152 75.6895 10.1152 75.1611 10.3432 74.7636L12.9629 70.2554C13.1132 69.9936 13.3219 69.8724 13.4722 69.9597L16.0919 71.4479C16.3199 71.5788 16.3199 72.1072 16.0919 72.5047Z" fill="white"/>
</g>
<path d="M21.3167 46.0806C21.2731 46.0806 21.2343 46.0612 21.21 46.0176C21.176 45.9594 21.1955 45.8867 21.2537 45.8528L29.1418 41.3009C29.2 41.2669 29.2728 41.2863 29.3067 41.3445C29.3407 41.4027 29.3213 41.4754 29.2631 41.5093L21.375 46.0612C21.375 46.0612 21.3361 46.0758 21.3167 46.0758V46.0806Z" fill="#455A64"/>
<path d="M21.3168 47.2246C21.2731 47.2246 21.2343 47.2053 21.21 47.1616C21.1761 47.1035 21.1955 47.0307 21.2537 46.9968L29.1418 42.4449C29.2 42.411 29.2728 42.4304 29.3068 42.4885C29.3407 42.5467 29.3213 42.6194 29.2631 42.6534L21.375 47.2053C21.375 47.2053 21.3362 47.2198 21.3168 47.2198V47.2246Z" fill="#E0E0E0"/>
<path d="M21.3168 48.3687C21.2731 48.3687 21.2343 48.3493 21.21 48.3057C21.1761 48.2475 21.1955 48.1748 21.2537 48.1408L29.1418 43.589C29.2 43.555 29.2728 43.5744 29.3068 43.6326C29.3407 43.6908 29.3213 43.7635 29.2631 43.7974L21.375 48.3493C21.375 48.3493 21.3362 48.3638 21.3168 48.3638V48.3687Z" fill="#E0E0E0"/>
<path d="M21.3168 49.5127C21.2731 49.5127 21.2343 49.4933 21.21 49.4497C21.1761 49.3915 21.1955 49.3188 21.2537 49.2849L29.1418 44.733C29.2 44.6991 29.2728 44.7185 29.3068 44.7766C29.3407 44.8348 29.3213 44.9075 29.2631 44.9415L21.375 49.4933C21.375 49.4933 21.3362 49.5079 21.3168 49.5079V49.5127Z" fill="#E0E0E0"/>
<path d="M32.7317 26.5354C32.6881 26.5354 32.6492 26.516 32.625 26.4724C32.591 26.4142 32.6104 26.3415 32.6686 26.3076L40.5568 21.7557C40.615 21.7218 40.6878 21.7412 40.7217 21.7993C40.7557 21.8575 40.7363 21.9302 40.6781 21.9642L32.7899 26.516C32.7899 26.516 32.7511 26.5306 32.7317 26.5306V26.5354Z" fill="#455A64"/>
<path d="M32.7317 27.6792C32.6881 27.6792 32.6492 27.6598 32.625 27.6162C32.591 27.558 32.6104 27.4853 32.6686 27.4514L40.5568 22.8995C40.615 22.8656 40.6878 22.885 40.7217 22.9431C40.7557 23.0013 40.7363 23.074 40.6781 23.108L32.7899 27.6598C32.7899 27.6598 32.7511 27.6744 32.7317 27.6744V27.6792Z" fill="#E0E0E0"/>
<path d="M32.7317 28.8184C32.6881 28.8184 32.6492 28.799 32.625 28.7554C32.591 28.6972 32.6104 28.6245 32.6686 28.5906L40.5568 24.0387C40.615 24.0047 40.6878 24.0241 40.7217 24.0823C40.7557 24.1405 40.7363 24.2132 40.6781 24.2471L32.7899 28.799C32.7899 28.799 32.7511 28.8135 32.7317 28.8135V28.8184Z" fill="#E0E0E0"/>
<path d="M32.7317 29.9627C32.6881 29.9627 32.6492 29.9433 32.625 29.8997C32.591 29.8415 32.6104 29.7688 32.6686 29.7348L40.5568 25.183C40.615 25.149 40.6878 25.1684 40.7217 25.2266C40.7557 25.2848 40.7363 25.3575 40.6781 25.3914L32.7899 29.9433C32.7899 29.9433 32.7511 29.9578 32.7317 29.9578V29.9627Z" fill="#E0E0E0"/>
<g opacity="0.2">
<path d="M81.3072 58.0262L54.7563 42.7223C54.4992 42.5721 54.2906 42.6932 54.2906 42.9889V69.0496C54.2906 69.3453 54.4992 69.7089 54.7563 69.8543L81.3072 85.1581C81.5643 85.3084 81.7729 85.1872 81.7729 84.8915V58.8309C81.7729 58.5352 81.5643 58.1716 81.3072 58.0262Z" fill="black"/>
</g>
<path d="M55.4162 44.8508L80.0315 59.0348C80.3128 59.1997 80.5457 59.5972 80.5457 59.9219V85.0858C80.5457 85.4106 80.3128 85.8081 80.0315 85.968L79.0564 86.5207C78.7701 86.6806 78.3093 86.6806 78.0279 86.5158L53.4127 72.3318C53.1313 72.167 52.8984 71.7694 52.8984 71.4447V46.2808C52.8984 45.956 53.1313 45.5585 53.4127 45.3986L54.3878 44.8459C54.674 44.686 55.1349 44.686 55.4162 44.8508Z" fill="#0160C0"/>
<path opacity="0.2" d="M78.0229 86.5109C78.2946 86.6709 78.7943 86.6757 79.0514 86.5158L80.0265 85.9583C80.3127 85.7983 80.5407 85.4057 80.5407 85.076V59.9122C80.5407 59.7425 80.4777 59.5535 80.3758 59.3887L78.3819 60.5424C78.479 60.7024 78.5323 60.8817 78.5323 61.0465V86.2055C78.5323 86.5061 78.3237 86.6757 78.0181 86.5012L78.0229 86.5109Z" fill="black"/>
<g opacity="0.2">
<path d="M52.9032 46.1891C52.942 45.9322 53.1555 45.8401 53.4077 45.9855L78.023 60.1695C78.1636 60.2519 78.2946 60.3925 78.3868 60.5525L80.3855 59.3988C80.2934 59.2436 80.1721 59.1128 80.0314 59.0352L55.4162 44.8512C55.1348 44.6863 54.6739 44.6863 54.3877 44.8512L53.4126 45.4038C53.1555 45.5492 52.9372 45.8885 52.9032 46.1939V46.1891Z" fill="white"/>
</g>
<path d="M53.4077 45.9853L78.0229 60.1694C78.3043 60.3342 78.5372 60.7317 78.5372 61.0565V80.5826V86.2203C78.5372 86.5451 78.3091 86.6808 78.0229 86.516L53.4077 72.332C53.1263 72.1671 52.8935 71.7696 52.8935 71.4449V46.281C52.8935 45.9562 53.1215 45.8205 53.4077 45.9853Z" fill="white"/>
<path d="M53.3059 46.3974L77.8193 60.5232C77.9745 60.6105 78.1249 60.8771 78.1249 61.0565V80.5825V86.0991L53.6116 71.9732C53.4563 71.886 53.3059 71.6194 53.3059 71.44V46.3974ZM53.1798 45.9126C53.01 45.9126 52.8984 46.0483 52.8984 46.2762V71.44C52.8984 71.7648 53.1264 72.1623 53.4127 72.3271L78.0279 86.5111C78.1104 86.5596 78.188 86.579 78.2559 86.579C78.4257 86.579 78.5421 86.4433 78.5421 86.2154V80.5777V61.0516C78.5421 60.7268 78.3141 60.3293 78.0279 60.1645L53.4127 45.9805C53.3302 45.932 53.2526 45.9126 53.1847 45.9126H53.1798Z" fill="#0160C0"/>
<path d="M61.7761 57.3478C61.7761 55.845 60.8592 54.095 59.7289 53.4455C59.1661 53.1207 58.6519 53.1304 58.2832 53.4115C57.9145 53.6927 57.6865 54.2405 57.6865 54.9918C57.6865 56.4946 58.6034 58.2446 59.7337 58.8941C60.2965 59.2189 60.8107 59.2092 61.1794 58.9281C61.5481 58.6469 61.7761 58.0991 61.7761 57.3478ZM55.974 61.6573L63.4886 65.991L63.3673 64.5901C63.2121 62.8207 62.2758 61.0319 61.1745 60.392L58.2929 58.7293C57.7447 58.4094 57.2353 58.4288 56.8424 58.7245C56.4494 59.0202 56.1777 59.5971 56.1001 60.3969L55.9788 61.6573H55.974Z" fill="#0160C0"/>
<path d="M59.7289 70.2523C59.7289 68.7496 58.812 66.9996 57.6816 66.35C57.1189 66.0252 56.6047 66.0349 56.236 66.3161C55.8673 66.5972 55.6393 67.145 55.6393 67.8964C55.6393 69.3991 56.5561 71.1491 57.6865 71.7987C58.2492 72.1235 58.7634 72.1138 59.1321 71.8326C59.5008 71.5515 59.7289 71.0037 59.7289 70.2523Z" fill="#455A64"/>
<path d="M67.1707 74.3871C67.1707 72.8843 66.2538 71.1343 65.1235 70.4848C64.5607 70.16 64.0465 70.1697 63.6778 70.4508C63.3091 70.732 63.0811 71.2798 63.0811 72.0312C63.0811 73.5339 63.998 75.2839 65.1283 75.9335C65.6911 76.2582 66.2053 76.2485 66.574 75.9674C66.9427 75.6862 67.1707 75.1385 67.1707 74.3871Z" fill="#0160C0"/>
<path d="M74.6125 78.5221C74.6125 77.0193 73.6956 75.2694 72.5653 74.6198C72.0025 74.295 71.4883 74.3047 71.1196 74.5858C70.7509 74.867 70.5229 75.4148 70.5229 76.1662C70.5229 77.6689 71.4398 79.4189 72.5701 80.0685C73.1329 80.3933 73.6471 80.3836 74.0158 80.1024C74.3845 79.8212 74.6125 79.2735 74.6125 78.5221Z" fill="#0160C0"/>
<path opacity="0.5" d="M74.6125 78.5221C74.6125 77.0193 73.6956 75.2694 72.5653 74.6198C72.0025 74.295 71.4883 74.3047 71.1196 74.5858C70.7509 74.867 70.5229 75.4148 70.5229 76.1662C70.5229 77.6689 71.4398 79.4189 72.5701 80.0685C73.1329 80.3933 73.6471 80.3836 74.0158 80.1024C74.3845 79.8212 74.6125 79.2735 74.6125 78.5221Z" fill="white"/>
<path d="M75.02 64.3186C75.0976 64.3186 75.1752 64.2749 75.2189 64.2022C75.282 64.0907 75.2432 63.9502 75.1364 63.8871L66.4382 58.8941C66.3266 58.8311 66.1859 58.8699 66.1228 58.9765C66.0597 59.088 66.0986 59.2286 66.2053 59.2916L74.9036 64.2846C74.9375 64.304 74.9812 64.3137 75.02 64.3137V64.3186Z" fill="#455A64"/>
<path d="M75.02 66.2961C75.0976 66.2961 75.1752 66.2525 75.2189 66.1798C75.282 66.0683 75.2432 65.9277 75.1364 65.8647L66.4382 60.8717C66.3266 60.8086 66.1859 60.8474 66.1228 60.9541C66.0597 61.0656 66.0986 61.2061 66.2053 61.2692L74.9036 66.2622C74.9375 66.2816 74.9812 66.2913 75.02 66.2913V66.2961Z" fill="#455A64"/>
<path d="M75.02 69.9612C75.0976 69.9612 75.1752 69.9175 75.2189 69.8448C75.282 69.7333 75.2432 69.5927 75.1364 69.5297L66.4382 64.5367C66.3266 64.4737 66.1859 64.5125 66.1228 64.6191C66.0597 64.7306 66.0986 64.8712 66.2053 64.9342L74.9036 69.9272C74.9375 69.9466 74.9812 69.9563 75.02 69.9563V69.9612Z" fill="#E0E0E0"/>
<path d="M75.02 71.9392C75.0976 71.9392 75.1752 71.8955 75.2189 71.8228C75.282 71.7113 75.2432 71.5708 75.1364 71.5077L66.4382 66.5147C66.3266 66.4517 66.1859 66.4905 66.1228 66.5971C66.0597 66.7086 66.0986 66.8492 66.2053 66.9122L74.9036 71.9052C74.9375 71.9246 74.9812 71.9343 75.02 71.9343V71.9392Z" fill="#E0E0E0"/>
<path opacity="0.15" d="M57.7496 20.6175C57.7496 19.9534 58.2153 19.6868 58.7877 20.0164L67.4618 25.0289C68.0342 25.3585 68.4999 26.1632 68.4999 26.8273V39.9691C68.4999 40.6332 68.0342 40.8999 67.4618 40.5702L58.7877 35.5578C58.2153 35.2282 57.7496 34.4235 57.7496 33.7594V20.6175Z" fill="black"/>
<path d="M65.531 26.1918L56.8569 21.1794C56.2845 20.8497 55.353 20.8497 54.7806 21.1794L53.9365 21.669C53.364 21.9986 52.8983 22.8033 52.8983 23.4674V36.6092C52.8983 37.2733 53.364 38.078 53.9365 38.4077L62.6105 43.4201C63.183 43.7497 64.1144 43.7497 64.6868 43.4201L65.531 42.9305C66.1034 42.6008 66.5691 41.7961 66.5691 41.132V27.9902C66.5691 27.3261 66.1034 26.5214 65.531 26.1918Z" fill="#37474F"/>
<path d="M52.8935 23.463C52.8935 22.7989 53.3592 22.5323 53.9316 22.8619L62.6057 27.8743C63.1781 28.2039 63.6438 29.0086 63.6438 29.6728V42.8146C63.6438 43.4787 63.1781 43.7453 62.6057 43.4157L53.9316 38.4033C53.3592 38.0736 52.8935 37.2689 52.8935 36.6048V23.463Z" fill="#455A64"/>
<path d="M66.5691 41.1275C66.5691 41.7917 66.1034 42.5964 65.531 42.926L64.6868 43.4156C64.1678 43.7162 63.3625 43.7404 62.7852 43.498C63.2751 43.6822 63.6487 43.4059 63.6487 42.8145V29.6727C63.6487 29.3431 63.5322 28.9746 63.343 28.6498L66.2683 26.9629C66.4575 27.2877 66.574 27.6561 66.574 27.9857V41.1275H66.5691Z" fill="#263238"/>
<path d="M59.2583 36.6292L57.5749 35.6597C57.5021 35.6161 57.4488 35.6742 57.4488 35.7809C57.4488 35.8875 57.507 36.0039 57.5749 36.0475L59.2583 37.017C59.3311 37.0558 59.3844 37.0025 59.3844 36.8958C59.3844 36.7892 59.3262 36.668 59.2583 36.6292ZM57.8175 32.1355L57.8272 32.1646C57.8757 32.3488 57.9193 32.5475 57.963 32.7608C58.1425 33.7158 58.1328 34.5787 58.1231 35.3301V35.5967L58.7247 35.9408V35.7276C58.715 34.9616 58.7052 34.0939 58.8896 33.3425C58.9284 33.168 58.9721 33.0177 59.0254 32.8966L59.04 32.8626L59.006 32.8238C58.8653 32.6639 58.7344 32.4748 58.6034 32.2518C58.5355 32.1306 58.4724 32.0143 58.4142 31.8883V31.8737C58.356 31.927 58.2977 31.9707 58.225 32.0143C58.1037 32.087 57.963 32.1258 57.8175 32.1258V32.1355ZM59.2583 37.3515L57.5749 36.3868C57.5021 36.3432 57.4488 36.3965 57.4488 36.5032C57.4488 37.3224 57.8805 38.2435 58.4142 38.5489C58.943 38.8591 59.3747 38.4422 59.3747 37.6181C59.3747 37.5115 59.3165 37.3951 59.2534 37.3515H59.2583ZM58.5452 27.3121C57.8223 26.8419 57.1431 26.8419 56.6192 27.3024C56.105 27.7727 55.8139 28.6307 55.8139 29.7359C55.8139 31.1369 56.3087 32.7414 57.0946 33.9145C57.3129 34.2296 57.4439 34.6562 57.4439 35.0247C57.4439 35.1168 57.4924 35.2283 57.5555 35.2622L57.8951 35.4561V35.2767C57.8951 34.4963 57.9096 33.6673 57.7398 32.756C57.6913 32.5184 57.6428 32.3052 57.5895 32.1258L57.5701 32.0676C57.4924 32.0676 57.4197 32.0337 57.3517 31.9949C57.1917 31.9077 57.0558 31.7768 56.9685 31.6265C56.8715 31.4617 56.8327 31.2872 56.8715 31.1466C56.9006 31.0205 56.9734 30.943 57.0752 30.943C57.1189 30.943 57.1577 30.9575 57.2062 30.9818C57.3809 31.0836 57.5652 31.3696 57.7156 31.7768L57.7253 31.8059H57.769C57.8854 31.8059 58.0018 31.7768 58.1085 31.7137C58.1813 31.675 58.2395 31.6168 58.288 31.5586L58.2783 31.5247C58.1085 31.0545 58.0406 30.6036 58.1037 30.3564C58.1425 30.2158 58.2201 30.1383 58.3268 30.1383C58.3705 30.1383 58.4142 30.1528 58.4627 30.1819C58.6082 30.2643 58.7247 30.4582 58.7732 30.6909C58.8411 31.0205 58.7732 31.3938 58.5937 31.6653L58.584 31.6847C58.6422 31.8107 58.7247 31.9658 58.7877 32.0822C58.909 32.3003 59.04 32.4845 59.1758 32.6299C59.2971 32.4603 59.4184 32.3827 59.5445 32.3827C59.6027 32.3827 59.6561 32.3973 59.7095 32.4312C59.8501 32.5087 59.9569 32.6881 60.0005 32.9014C60.0345 33.0953 59.986 33.231 59.8744 33.2844C59.8404 33.2989 59.8016 33.3086 59.758 33.3086C59.6755 33.3086 59.5736 33.2795 59.4717 33.2213C59.4038 33.1777 59.3359 33.1341 59.2631 33.0711C59.2049 33.202 59.1661 33.3425 59.1225 33.5025C58.9527 34.2103 58.9624 35.0246 58.9672 35.81C58.9672 35.8778 58.9672 35.9796 58.9672 36.0717L59.2922 36.2608C59.3213 36.2802 59.3505 36.2753 59.3699 36.2608C59.3893 36.2414 59.4038 36.1978 59.4038 36.159C59.4038 35.7857 59.53 35.5143 59.7483 35.4464C60.5536 35.1798 61.0435 34.1182 61.029 32.6784C61.0047 30.594 59.8987 28.1895 58.5549 27.317L58.5452 27.3121ZM57.2062 31.2484C57.182 31.2338 57.1577 31.229 57.1383 31.229C57.0316 31.229 57.0364 31.3696 57.0607 31.4374C57.0946 31.5344 57.1626 31.6216 57.2402 31.6944C57.2838 31.7331 57.3323 31.7671 57.3857 31.7865C57.4197 31.7962 57.5167 31.8252 57.5118 31.7622C57.5118 31.7089 57.4827 31.6604 57.4585 31.6071C57.4391 31.5635 57.4148 31.5198 57.3906 31.4762C57.3469 31.3987 57.2887 31.2969 57.2062 31.2532V31.2484ZM58.4918 31.3211C58.584 31.1369 58.6228 30.9139 58.5888 30.7297C58.5646 30.6133 58.5161 30.5358 58.4384 30.4922C58.4093 30.4776 58.3899 30.4679 58.3657 30.4679C58.3365 30.4679 58.2783 30.4776 58.2541 30.5794C58.2201 30.7248 58.2541 30.9915 58.3511 31.2775C58.3608 31.3066 58.3754 31.3356 58.3899 31.3599C58.3948 31.3696 58.4045 31.3793 58.4142 31.3793C58.419 31.3793 58.4239 31.3793 58.4287 31.3793C58.4627 31.3744 58.4772 31.355 58.4918 31.3259V31.3211ZM59.4572 32.9887C59.5397 33.0371 59.6221 33.0662 59.6852 33.0662C59.7094 33.0662 59.7337 33.0662 59.7677 33.0468C59.7822 33.0323 59.8356 32.9984 59.8162 32.9063C59.8016 32.8045 59.7483 32.722 59.6755 32.6784C59.6464 32.6639 59.6124 32.6542 59.5785 32.6542C59.462 32.6542 59.3796 32.7463 59.3116 32.8238C59.3116 32.8238 59.3068 32.8335 59.302 32.8335C59.2971 32.8432 59.302 32.8578 59.302 32.8675C59.3165 32.916 59.3553 32.9305 59.3941 32.9547C59.4087 32.9693 59.4281 32.9741 59.4523 32.9887H59.4572Z" fill="#0160C0"/>
<path opacity="0.85" d="M59.2583 36.6292L57.5749 35.6597C57.5021 35.6161 57.4488 35.6742 57.4488 35.7809C57.4488 35.8875 57.507 36.0039 57.5749 36.0475L59.2583 37.017C59.3311 37.0558 59.3844 37.0025 59.3844 36.8958C59.3844 36.7892 59.3262 36.668 59.2583 36.6292ZM57.8175 32.1355L57.8272 32.1646C57.8757 32.3488 57.9193 32.5475 57.963 32.7608C58.1425 33.7158 58.1328 34.5787 58.1231 35.3301V35.5967L58.7247 35.9408V35.7276C58.715 34.9616 58.7052 34.0939 58.8896 33.3425C58.9284 33.168 58.9721 33.0177 59.0254 32.8966L59.04 32.8626L59.006 32.8238C58.8653 32.6639 58.7344 32.4748 58.6034 32.2518C58.5355 32.1306 58.4724 32.0143 58.4142 31.8883V31.8737C58.356 31.927 58.2977 31.9707 58.225 32.0143C58.1037 32.087 57.963 32.1258 57.8175 32.1258V32.1355ZM59.2583 37.3515L57.5749 36.3868C57.5021 36.3432 57.4488 36.3965 57.4488 36.5032C57.4488 37.3224 57.8805 38.2435 58.4142 38.5489C58.943 38.8591 59.3747 38.4422 59.3747 37.6181C59.3747 37.5115 59.3165 37.3951 59.2534 37.3515H59.2583ZM58.5452 27.3121C57.8223 26.8419 57.1431 26.8419 56.6192 27.3024C56.105 27.7727 55.8139 28.6307 55.8139 29.7359C55.8139 31.1369 56.3087 32.7414 57.0946 33.9145C57.3129 34.2296 57.4439 34.6562 57.4439 35.0247C57.4439 35.1168 57.4924 35.2283 57.5555 35.2622L57.8951 35.4561V35.2767C57.8951 34.4963 57.9096 33.6673 57.7398 32.756C57.6913 32.5184 57.6428 32.3052 57.5895 32.1258L57.5701 32.0676C57.4924 32.0676 57.4197 32.0337 57.3517 31.9949C57.1917 31.9077 57.0558 31.7768 56.9685 31.6265C56.8715 31.4617 56.8327 31.2872 56.8715 31.1466C56.9006 31.0205 56.9734 30.943 57.0752 30.943C57.1189 30.943 57.1577 30.9575 57.2062 30.9818C57.3809 31.0836 57.5652 31.3696 57.7156 31.7768L57.7253 31.8059H57.769C57.8854 31.8059 58.0018 31.7768 58.1085 31.7137C58.1813 31.675 58.2395 31.6168 58.288 31.5586L58.2783 31.5247C58.1085 31.0545 58.0406 30.6036 58.1037 30.3564C58.1425 30.2158 58.2201 30.1383 58.3268 30.1383C58.3705 30.1383 58.4142 30.1528 58.4627 30.1819C58.6082 30.2643 58.7247 30.4582 58.7732 30.6909C58.8411 31.0205 58.7732 31.3938 58.5937 31.6653L58.584 31.6847C58.6422 31.8107 58.7247 31.9658 58.7877 32.0822C58.909 32.3003 59.04 32.4845 59.1758 32.6299C59.2971 32.4603 59.4184 32.3827 59.5445 32.3827C59.6027 32.3827 59.6561 32.3973 59.7095 32.4312C59.8501 32.5087 59.9569 32.6881 60.0005 32.9014C60.0345 33.0953 59.986 33.231 59.8744 33.2844C59.8404 33.2989 59.8016 33.3086 59.758 33.3086C59.6755 33.3086 59.5736 33.2795 59.4717 33.2213C59.4038 33.1777 59.3359 33.1341 59.2631 33.0711C59.2049 33.202 59.1661 33.3425 59.1225 33.5025C58.9527 34.2103 58.9624 35.0246 58.9672 35.81C58.9672 35.8778 58.9672 35.9796 58.9672 36.0717L59.2922 36.2608C59.3213 36.2802 59.3505 36.2753 59.3699 36.2608C59.3893 36.2414 59.4038 36.1978 59.4038 36.159C59.4038 35.7857 59.53 35.5143 59.7483 35.4464C60.5536 35.1798 61.0435 34.1182 61.029 32.6784C61.0047 30.594 59.8987 28.1895 58.5549 27.317L58.5452 27.3121ZM57.2062 31.2484C57.182 31.2338 57.1577 31.229 57.1383 31.229C57.0316 31.229 57.0364 31.3696 57.0607 31.4374C57.0946 31.5344 57.1626 31.6216 57.2402 31.6944C57.2838 31.7331 57.3323 31.7671 57.3857 31.7865C57.4197 31.7962 57.5167 31.8252 57.5118 31.7622C57.5118 31.7089 57.4827 31.6604 57.4585 31.6071C57.4391 31.5635 57.4148 31.5198 57.3906 31.4762C57.3469 31.3987 57.2887 31.2969 57.2062 31.2532V31.2484ZM58.4918 31.3211C58.584 31.1369 58.6228 30.9139 58.5888 30.7297C58.5646 30.6133 58.5161 30.5358 58.4384 30.4922C58.4093 30.4776 58.3899 30.4679 58.3657 30.4679C58.3365 30.4679 58.2783 30.4776 58.2541 30.5794C58.2201 30.7248 58.2541 30.9915 58.3511 31.2775C58.3608 31.3066 58.3754 31.3356 58.3899 31.3599C58.3948 31.3696 58.4045 31.3793 58.4142 31.3793C58.419 31.3793 58.4239 31.3793 58.4287 31.3793C58.4627 31.3744 58.4772 31.355 58.4918 31.3259V31.3211ZM59.4572 32.9887C59.5397 33.0371 59.6221 33.0662 59.6852 33.0662C59.7094 33.0662 59.7337 33.0662 59.7677 33.0468C59.7822 33.0323 59.8356 32.9984 59.8162 32.9063C59.8016 32.8045 59.7483 32.722 59.6755 32.6784C59.6464 32.6639 59.6124 32.6542 59.5785 32.6542C59.462 32.6542 59.3796 32.7463 59.3116 32.8238C59.3116 32.8238 59.3068 32.8335 59.302 32.8335C59.2971 32.8432 59.302 32.8578 59.302 32.8675C59.3165 32.916 59.3553 32.9305 59.3941 32.9547C59.4087 32.9693 59.4281 32.9741 59.4523 32.9887H59.4572Z" fill="white"/>
<path opacity="0.15" d="M72.7496 29.2557C72.7496 28.5916 73.2153 28.325 73.7878 28.6546L82.4618 33.667C83.0343 33.9967 83.5 34.8014 83.5 35.4655V48.6073C83.5 49.2714 83.0343 49.538 82.4618 49.2084L73.7878 44.196C73.2153 43.8664 72.7496 43.0617 72.7496 42.3975V29.2557Z" fill="black"/>
<path d="M80.531 34.8302L71.857 29.8178C71.2846 29.4881 70.3531 29.4881 69.7807 29.8178L68.9366 30.3074C68.3641 30.637 67.8984 31.4417 67.8984 32.1058V45.2477C67.8984 45.9118 68.3641 46.7165 68.9366 47.0461L77.6106 52.0585C78.183 52.3882 79.1145 52.3882 79.6869 52.0585L80.531 51.5689C81.1035 51.2393 81.5692 50.4346 81.5692 49.7705V36.6286C81.5692 35.9645 81.1035 35.1598 80.531 34.8302Z" fill="#0160C0"/>
<path opacity="0.7" d="M80.531 34.8302L71.857 29.8178C71.2846 29.4881 70.3531 29.4881 69.7807 29.8178L68.9366 30.3074C68.3641 30.637 67.8984 31.4417 67.8984 32.1058V45.2477C67.8984 45.9118 68.3641 46.7165 68.9366 47.0461L77.6106 52.0585C78.183 52.3882 79.1145 52.3882 79.6869 52.0585L80.531 51.5689C81.1035 51.2393 81.5692 50.4346 81.5692 49.7705V36.6286C81.5692 35.9645 81.1035 35.1598 80.531 34.8302Z" fill="white"/>
<path d="M67.8935 32.1061C67.8935 31.4419 68.3592 31.1753 68.9317 31.505L77.6057 36.5174C78.1782 36.847 78.6439 37.6517 78.6439 38.3158V51.4576C78.6439 52.1218 78.1782 52.3884 77.6057 52.0587L68.9317 47.0463C68.3592 46.7167 67.8935 45.912 67.8935 45.2479V32.1061Z" fill="#0160C0"/>
<path opacity="0.4" d="M67.8935 32.1061C67.8935 31.4419 68.3592 31.1753 68.9317 31.505L77.6057 36.5174C78.1782 36.847 78.6439 37.6517 78.6439 38.3158V51.4576C78.6439 52.1218 78.1782 52.3884 77.6057 52.0587L68.9317 47.0463C68.3592 46.7167 67.8935 45.912 67.8935 45.2479V32.1061Z" fill="white"/>
<path d="M81.5692 49.7701C81.5692 50.4342 81.1035 51.2389 80.531 51.5686L79.6869 52.0582C79.1678 52.3587 78.3625 52.383 77.7852 52.1406C78.2752 52.3248 78.6488 52.0485 78.6488 51.4571V38.3153C78.6488 37.9856 78.5323 37.6172 78.3431 37.2924L81.2684 35.6055C81.4576 35.9303 81.5741 36.2987 81.5741 36.6283V49.7701H81.5692Z" fill="#0160C0"/>
<path opacity="0.2" d="M81.5692 49.7701C81.5692 50.4342 81.1035 51.2389 80.531 51.5686L79.6869 52.0582C79.1678 52.3587 78.3625 52.383 77.7852 52.1406C78.2752 52.3248 78.6488 52.0485 78.6488 51.4571V38.3153C78.6488 37.9856 78.5323 37.6172 78.3431 37.2924L81.2684 35.6055C81.4576 35.9303 81.5741 36.2987 81.5741 36.6283V49.7701H81.5692Z" fill="white"/>
<path d="M69.3052 39.5081C69.3052 39.8183 69.3246 40.1334 69.3635 40.4388C69.3732 40.5019 69.4071 40.56 69.4459 40.5891L70.1736 41.1175C70.3337 41.2338 70.4744 41.4665 70.5423 41.7137C70.5423 41.7137 70.5423 41.7234 70.5423 41.7283C70.6102 41.9804 70.5908 42.2034 70.4889 42.3148L70.0329 42.819C70.0087 42.8481 70.0087 42.9111 70.0329 42.9693C70.2949 43.614 70.6151 44.2248 70.9886 44.792C71.0226 44.8453 71.0711 44.8695 71.1002 44.855L71.6678 44.5738C71.7988 44.5108 71.9734 44.5835 72.1335 44.7677C72.1335 44.7677 72.1384 44.7726 72.1432 44.7774C72.3033 44.9568 72.41 45.204 72.4294 45.4318L72.5168 46.4498C72.5216 46.508 72.5556 46.571 72.5944 46.605C72.8127 46.7795 73.0407 46.9394 73.2736 47.0703C73.5064 47.2061 73.7344 47.3079 73.9479 47.3806C73.9915 47.3951 74.0206 47.366 74.0255 47.3127L74.108 46.3917C74.1274 46.1881 74.2341 46.062 74.3942 46.062C74.3942 46.062 74.3991 46.062 74.4039 46.062C74.564 46.062 74.7435 46.1978 74.8696 46.4014L75.4421 47.3369C75.476 47.3903 75.5197 47.4194 75.5537 47.4097C75.9272 47.2739 76.2474 47.0316 76.5093 46.6825C76.5336 46.6486 76.5287 46.5904 76.5045 46.5274L76.0485 45.5046C75.9466 45.2767 75.9223 45.0295 75.9903 44.855C75.9903 44.855 75.9903 44.8501 75.9903 44.8453C76.0582 44.6708 76.1989 44.6029 76.359 44.6708L77.0866 44.9762C77.1303 44.9956 77.1643 44.9762 77.1691 44.9229C77.2079 44.6562 77.2273 44.3654 77.2273 44.06C77.2273 43.7497 77.2079 43.4346 77.1691 43.1244C77.1643 43.0662 77.1255 43.0032 77.0866 42.9741L76.3541 42.4409C76.194 42.3245 76.0582 42.1064 75.9854 41.8543C75.9854 41.8495 75.9854 41.8398 75.9854 41.8349C75.9175 41.5829 75.9369 41.3599 76.0388 41.2484L76.4899 40.7491C76.5142 40.72 76.519 40.657 76.4899 40.5988C76.228 39.9492 75.9078 39.3384 75.5342 38.7761C75.5003 38.7276 75.4518 38.6985 75.4178 38.7179L74.8502 38.9943C74.7241 39.0573 74.5446 38.9846 74.3845 38.8052C74.3845 38.8003 74.3796 38.8003 74.3748 38.7955C74.2147 38.6161 74.1031 38.3641 74.0886 38.1411L74.0012 37.1231C73.9964 37.0649 73.9624 37.0019 73.9236 36.968C73.4919 36.6189 73.0019 36.3329 72.5701 36.1923C72.5313 36.1827 72.4974 36.2069 72.4925 36.2602L72.41 37.1813C72.3906 37.3849 72.2839 37.5109 72.1238 37.5109C72.1238 37.5109 72.119 37.5109 72.1141 37.5109C71.954 37.506 71.7745 37.3752 71.6484 37.1667L71.0759 36.236C71.042 36.1827 70.9983 36.1584 70.9644 36.1681C70.5908 36.299 70.2706 36.5462 70.0087 36.8904C69.9844 36.9195 69.9844 36.9873 70.0087 37.0455L70.4647 38.0684C70.5666 38.2962 70.5908 38.5434 70.5229 38.7179C70.5229 38.7228 70.5229 38.7276 70.5181 38.7373C70.455 38.907 70.3143 38.97 70.1494 38.9021L69.4217 38.5967C69.378 38.5774 69.3441 38.6016 69.3392 38.6549C69.3004 38.9361 69.281 39.2269 69.281 39.5275L69.3052 39.5081ZM71.2651 40.6327C71.2651 39.1591 72.1578 38.4756 73.2639 39.1057C74.3699 39.7408 75.2674 41.4568 75.2723 42.9305C75.2723 44.4042 74.3796 45.0828 73.2736 44.4526C72.1723 43.8176 71.27 42.1064 71.27 40.6327H71.2651Z" fill="white"/>
</svg>
