<svg width="867" height="595" viewBox="0 0 867 595" fill="none" xmlns="http://www.w3.org/2000/svg">
<path d="M695.51 93.6598C654.02 63.8328 598.12 54.4982 548.97 69.1752C472.34 92.063 417.2 167.34 337.88 178.084C285.61 185.172 233.77 162.274 181 162.116C101.87 161.88 25.1 221.287 11.88 298.191C-1.34002 375.095 55.66 458.702 133.85 470.717C160.38 474.798 188.07 471.466 213.76 479.145C250.23 490.037 276.21 520.81 306.11 544.092C380.3 601.864 490.77 612.696 572.03 565.068C597.44 550.174 620.32 530.016 648.65 521.727C675.8 513.782 704.98 517.636 733.05 513.881C800.84 504.822 858.47 446.173 865.5 379.097C871.95 317.442 837.98 268.66 790.58 233.175C760.49 210.652 766.86 204.097 752.83 168.07C741.37 138.617 721.4 112.27 695.51 93.65V93.6598Z" fill="#E7F7FE"/>
<path d="M147.94 34.666L0 26.1299L123.62 53.6406L147.94 34.666Z" fill="#FFC82E"/>
<path d="M123.62 53.6406L111.95 97.9081L0 26.1299L123.62 53.6406Z" fill="#EAB021"/>
<path d="M109.1 65.3018L111.95 97.9085L77.96 76.1148L109.1 65.3018Z" fill="#E89C23"/>
<path d="M109.1 65.3013L0 26.1299L66.34 97.1787L109.1 65.3013Z" fill="#FFC82E"/>
<path d="M116.09 104.227C116.45 104.779 116.81 105.331 117.18 105.883" stroke="#FFC82E" stroke-miterlimit="10"/>
<path d="M119.4 109.204C122.01 113.078 124.7 116.912 127.48 120.678" stroke="#FFC82E" stroke-miterlimit="10"/>
<path d="M128.67 122.284C139.66 136.991 152.03 150.652 166.61 161.85C187.03 177.532 212.2 188.138 238.08 187.853C244.38 187.784 250.88 187.005 256.33 183.89C270.78 175.62 271.15 153.087 259.86 140.943C248.57 128.8 229.98 125.793 213.47 128.346C208.96 129.046 204.44 130.12 200.5 132.397C186.95 140.214 184.92 158.913 188.19 174.053C194.42 202.865 213.7 227.477 236.16 246.915C258.62 266.353 284.49 281.503 308.78 298.654C330.82 314.218 351.59 331.438 372.33 348.639C384.43 358.673 396.61 368.796 406.49 380.96C415.61 392.187 422.57 404.932 429.48 417.598C435.5 428.628 441.53 439.668 447.55 450.698" stroke="#FFC82E" stroke-miterlimit="10"/>
<path d="M448.52 452.452C448.84 453.034 449.15 453.605 449.47 454.187" stroke="#FFC82E" stroke-miterlimit="10"/>
<path d="M623.1 242.647H273.98C266.381 242.647 260.22 248.72 260.22 256.211V520.455C260.22 527.946 266.381 534.018 273.98 534.018H623.1C630.699 534.018 636.86 527.946 636.86 520.455V256.211C636.86 248.72 630.699 242.647 623.1 242.647Z" fill="#B7E8FC"/>
<path d="M616.93 262.953H280.15V482.95H616.93V262.953Z" fill="white"/>
<path d="M484.27 586.625H412.82L413.63 579.124L413.95 576.206L418.05 538.208L418.5 534.019L420.43 516.197H476.67L478.59 534.019L479.04 538.208L483.15 576.206L483.46 579.124L484.27 586.625Z" fill="#B7E8FC"/>
<path d="M399.44 579.124H497.65C504.64 579.124 510.31 584.712 510.31 591.602V593.239H386.78V591.602C386.78 584.712 392.45 579.124 399.44 579.124Z" fill="#B7E8FC"/>
<g style="mix-blend-mode:soft-light" opacity="0.2">
<path d="M479.04 538.208H418.05L418.5 534.019H478.59L479.04 538.208Z" fill="black"/>
</g>
<g style="mix-blend-mode:soft-light" opacity="0.2">
<path d="M483.46 579.124H413.63L413.95 576.206H483.15L483.46 579.124Z" fill="black"/>
</g>
<g style="mix-blend-mode:soft-light" opacity="0.2">
<path d="M458.83 509.317C458.83 516.197 453.17 521.776 446.19 521.776C439.21 521.776 433.55 516.197 433.55 509.317C433.55 502.437 439.21 496.858 446.19 496.858C453.17 496.858 458.83 502.437 458.83 509.317Z" fill="black"/>
</g>
<path d="M305.201 579.729C305.201 581.98 303.408 584.128 300.203 586.048C291.508 591.258 272.381 594.875 250.168 594.875C219.773 594.875 195.135 588.092 195.135 579.722C195.135 575.357 201.834 571.421 212.561 568.663C222.395 566.12 235.638 564.568 250.168 564.568C262.174 564.568 273.287 565.628 282.341 567.423C290.685 569.079 297.279 571.372 301.194 574.026C303.774 575.793 305.201 577.705 305.201 579.722V579.729Z" fill="#3ABFF8"/>
<path d="M305.201 549.422H195.142V579.729H305.201V549.422Z" fill="#3ABFF8"/>
<g style="mix-blend-mode:soft-light" opacity="0.2">
<path d="M305.201 549.422V579.729C305.201 581.981 303.408 584.129 300.203 586.048C300.456 583.97 300.751 581.253 300.92 579.729C300.997 579.078 301.046 578.641 301.053 578.558C301.257 577.096 301.342 575.53 301.187 574.034C300.927 571.511 300.013 569.163 298.017 567.666C295.001 565.407 290.784 566.01 287.058 566.654C285.483 566.925 283.909 567.181 282.334 567.43C268.676 569.565 254.856 570.749 241.03 570.971C231.638 571.13 221.832 570.777 212.554 568.664C206.958 567.382 201.553 565.47 196.534 562.636C196.056 562.365 195.585 562.095 195.128 561.811V549.416H305.187L305.201 549.422Z" fill="black"/>
</g>
<path d="M250.175 564.576C280.565 564.576 305.201 557.791 305.201 549.422C305.201 541.053 280.565 534.269 250.175 534.269C219.785 534.269 195.149 541.053 195.149 549.422C195.149 557.791 219.785 564.576 250.175 564.576Z" fill="#09AFF6"/>
<path d="M250.175 560.578C272.548 560.578 290.685 555.583 290.685 549.423C290.685 543.262 272.548 538.267 250.175 538.267C227.802 538.267 209.665 543.262 209.665 549.423C209.665 555.583 227.802 560.578 250.175 560.578Z" fill="#B7E8FC"/>
<path d="M305.201 537.574C305.201 539.826 303.408 541.974 300.203 543.893C291.508 549.104 272.381 552.728 250.168 552.728C219.773 552.728 195.135 545.944 195.135 537.574C195.135 533.209 201.834 529.274 212.561 526.516C222.395 523.973 235.638 522.421 250.168 522.421C262.174 522.421 273.287 523.481 282.341 525.276C290.685 526.932 297.279 529.225 301.194 531.879C303.774 533.646 305.201 535.558 305.201 537.574Z" fill="#3ABFF8"/>
<path d="M305.201 507.267H195.142V537.574H305.201V507.267Z" fill="#3ABFF8"/>
<g style="mix-blend-mode:soft-light" opacity="0.2">
<path d="M305.201 507.268V537.574C305.201 539.826 303.408 541.974 300.203 543.893C300.456 541.815 300.751 539.099 300.92 537.574C300.997 536.923 301.046 536.486 301.053 536.403C301.257 534.941 301.342 533.375 301.187 531.879C300.927 529.357 300.013 527.008 298.017 525.511C295.001 523.252 290.784 523.855 287.058 524.5C285.483 524.77 283.909 525.026 282.334 525.276C268.676 527.41 254.856 528.595 241.03 528.816C231.638 528.976 221.832 528.622 212.554 526.509C206.958 525.227 201.553 523.315 196.534 520.481C196.056 520.211 195.585 519.94 195.128 519.656V507.261H305.187L305.201 507.268Z" fill="black"/>
</g>
<path d="M250.175 522.428C280.565 522.428 305.201 515.644 305.201 507.275C305.201 498.906 280.565 492.122 250.175 492.122C219.785 492.122 195.149 498.906 195.149 507.275C195.149 515.644 219.785 522.428 250.175 522.428Z" fill="#09AFF6"/>
<path d="M250.175 518.43C272.548 518.43 290.685 513.436 290.685 507.275C290.685 501.114 272.548 496.119 250.175 496.119C227.802 496.119 209.665 501.114 209.665 507.275C209.665 513.436 227.802 518.43 250.175 518.43Z" fill="#B7E8FC"/>
<path d="M305.201 496.416C305.201 498.668 303.408 500.816 300.203 502.736C291.508 507.946 272.381 511.57 250.168 511.57C219.773 511.57 195.135 504.787 195.135 496.416C195.135 492.051 201.834 488.116 212.561 485.358C222.395 482.815 235.638 481.263 250.168 481.263C262.174 481.263 273.287 482.323 282.341 484.118C290.685 485.774 297.279 488.067 301.194 490.721C303.774 492.488 305.201 494.4 305.201 496.416Z" fill="#3ABFF8"/>
<path d="M305.201 466.118H195.142V496.424H305.201V466.118Z" fill="#3ABFF8"/>
<g style="mix-blend-mode:soft-light" opacity="0.2">
<path d="M305.201 466.117V496.424C305.201 498.676 303.408 500.824 300.203 502.743C300.456 500.664 300.751 497.948 300.92 496.424C300.997 495.773 301.046 495.336 301.053 495.253C301.257 493.791 301.342 492.225 301.187 490.728C300.927 488.206 300.013 485.857 298.017 484.361C295.001 482.102 290.784 482.705 287.058 483.349C285.483 483.619 283.909 483.876 282.334 484.125C268.676 486.259 254.856 487.444 241.03 487.666C231.638 487.825 221.832 487.472 212.554 485.359C206.958 484.077 201.553 482.164 196.534 479.331C196.056 479.06 195.585 478.79 195.128 478.506V466.11H305.187L305.201 466.117Z" fill="black"/>
</g>
<path d="M250.175 481.27C280.565 481.27 305.201 474.486 305.201 466.117C305.201 457.748 280.565 450.964 250.175 450.964C219.785 450.964 195.149 457.748 195.149 466.117C195.149 474.486 219.785 481.27 250.175 481.27Z" fill="#09AFF6"/>
<path d="M250.175 477.273C272.548 477.273 290.685 472.278 290.685 466.117C290.685 459.956 272.548 454.962 250.175 454.962C227.802 454.962 209.665 459.956 209.665 466.117C209.665 472.278 227.802 477.273 250.175 477.273Z" fill="#B7E8FC"/>
<path d="M208.322 493.819C208.322 495.087 207.282 496.119 205.988 496.119C204.695 496.119 203.654 495.094 203.654 493.819C203.654 492.544 204.695 491.519 205.988 491.519C207.282 491.519 208.322 492.544 208.322 493.819Z" fill="#09AFF6"/>
<path d="M213.559 499.432C215.352 499.432 216.806 497.998 216.806 496.23C216.806 494.462 215.352 493.029 213.559 493.029C211.765 493.029 210.311 494.462 210.311 496.23C210.311 497.998 211.765 499.432 213.559 499.432Z" fill="#FFC82E"/>
<path d="M225.825 498.011C225.825 499.895 224.272 501.427 222.36 501.427C220.448 501.427 218.894 499.895 218.894 498.011C218.894 496.126 220.448 494.595 222.36 494.595C224.272 494.595 225.825 496.126 225.825 498.011Z" fill="#09AFF6"/>
<path d="M208.322 535.613C208.322 536.881 207.282 537.914 205.988 537.914C204.695 537.914 203.654 536.888 203.654 535.613C203.654 534.338 204.695 533.313 205.988 533.313C207.282 533.313 208.322 534.338 208.322 535.613Z" fill="#09AFF6"/>
<path d="M213.559 541.225C215.352 541.225 216.806 539.792 216.806 538.024C216.806 536.256 215.352 534.823 213.559 534.823C211.765 534.823 210.311 536.256 210.311 538.024C210.311 539.792 211.765 541.225 213.559 541.225Z" fill="#FFC82E"/>
<path d="M225.825 539.805C225.825 541.69 224.272 543.221 222.36 543.221C220.448 543.221 218.894 541.69 218.894 539.805C218.894 537.92 220.448 536.389 222.36 536.389C224.272 536.389 225.825 537.92 225.825 539.805Z" fill="#09AFF6"/>
<path d="M208.322 577.068C208.322 578.336 207.282 579.369 205.988 579.369C204.695 579.369 203.654 578.343 203.654 577.068C203.654 575.794 204.695 574.768 205.988 574.768C207.282 574.768 208.322 575.794 208.322 577.068Z" fill="#09AFF6"/>
<path d="M216.806 579.479C216.806 581.246 215.351 582.681 213.559 582.681C211.766 582.681 210.311 581.246 210.311 579.479C210.311 577.713 211.766 576.278 213.559 576.278C215.351 576.278 216.806 577.713 216.806 579.479Z" fill="#FFC82E"/>
<path d="M225.825 581.26C225.825 583.144 224.272 584.676 222.36 584.676C220.448 584.676 218.894 583.144 218.894 581.26C218.894 579.375 220.448 577.844 222.36 577.844C224.272 577.844 225.825 579.375 225.825 581.26Z" fill="#09AFF6"/>
<path d="M734.81 112.043C734.81 116.301 734.13 120.412 732.86 124.256C727.65 140.145 712.51 151.628 694.65 151.628C674.34 151.628 657.54 136.764 654.86 117.464C654.61 115.69 654.49 113.876 654.49 112.043C654.49 109.411 654.75 106.838 655.26 104.345C655.46 103.3 655.71 102.275 656 101.259C660.77 84.6308 676.27 72.4575 694.66 72.4575C715.66 72.4575 732.89 88.3469 734.67 108.583C734.78 109.727 734.82 110.87 734.82 112.043H734.81Z" fill="#B7E8FC"/>
<path d="M627.85 144.965H776.73C776.73 163.142 761.76 177.887 743.33 177.887H661.26C642.82 177.887 627.86 163.132 627.86 144.965H627.85Z" fill="#B7E8FC"/>
<g style="mix-blend-mode:soft-light" opacity="0.5">
<path d="M684.06 120.924L654.86 117.464C654.61 115.69 654.49 113.876 654.49 112.043C654.49 109.411 654.75 106.839 655.26 104.345C664.97 108.692 679.66 114.842 684.06 120.924Z" fill="black"/>
</g>
<g style="mix-blend-mode:soft-light" opacity="0.5">
<path d="M734.81 112.043C734.81 116.301 734.13 120.411 732.86 124.256L714.31 133.137C718.08 124.088 727.36 114.852 734.66 108.583C734.77 109.726 734.81 110.87 734.81 112.043Z" fill="black"/>
</g>
<path d="M775.833 150.968C779.909 133.945 769.213 116.888 751.943 112.87C734.673 108.852 717.368 119.395 713.292 136.418C709.215 153.442 719.911 170.499 737.182 174.517C754.452 178.535 771.757 167.992 775.833 150.968Z" fill="#B7E8FC"/>
<path d="M693.729 152.52C697.966 134.824 686.847 117.093 668.894 112.916C650.941 108.739 632.953 119.699 628.715 137.395C624.478 155.091 635.597 172.823 653.55 177C671.503 181.176 689.492 170.216 693.729 152.52Z" fill="#B7E8FC"/>
<path d="M739.32 166.394V224.777H804.61" stroke="#B7E8FC" stroke-width="3.17" stroke-miterlimit="10"/>
<path d="M817.03 224.777C817.03 228.394 814.05 231.331 810.38 231.331C806.71 231.331 803.73 228.394 803.73 224.777C803.73 221.159 806.71 218.222 810.38 218.222C814.05 218.222 817.03 221.159 817.03 224.777Z" stroke="#B7E8FC" stroke-width="3.17" stroke-miterlimit="10"/>
<path d="M816.64 224.777C816.64 228.177 813.84 230.937 810.39 230.937C806.94 230.937 804.14 228.177 804.14 224.777C804.14 221.376 806.94 218.616 810.39 218.616C813.84 218.616 816.64 221.376 816.64 224.777Z" fill="#3ABFF8"/>
<path d="M658.71 166.394V224.777H593.41" stroke="#B7E8FC" stroke-width="3.17" stroke-miterlimit="10"/>
<path d="M581 224.777C581 228.394 583.98 231.331 587.65 231.331C591.32 231.331 594.3 228.394 594.3 224.777C594.3 221.159 591.32 218.222 587.65 218.222C583.98 218.222 581 221.159 581 224.777Z" stroke="#B7E8FC" stroke-width="3.17" stroke-miterlimit="10"/>
<path d="M581.39 224.777C581.39 228.177 584.19 230.937 587.64 230.937C591.09 230.937 593.89 228.177 593.89 224.777C593.89 221.376 591.09 218.616 587.64 218.616C584.19 218.616 581.39 221.376 581.39 224.777Z" fill="#3ABFF8"/>
<path d="M699.3 160.224V249.301" stroke="#B7E8FC" stroke-width="3.17" stroke-miterlimit="10"/>
<path d="M699.3 255.856C702.973 255.856 705.95 252.921 705.95 249.301C705.95 245.681 702.973 242.746 699.3 242.746C695.627 242.746 692.65 245.681 692.65 249.301C692.65 252.921 695.627 255.856 699.3 255.856Z" stroke="#B7E8FC" stroke-width="3.17" stroke-miterlimit="10"/>
<path d="M705.55 249.301C705.55 252.702 702.75 255.462 699.3 255.462C695.85 255.462 693.05 252.702 693.05 249.301C693.05 245.901 695.85 243.141 699.3 243.141C702.75 243.141 705.55 245.901 705.55 249.301Z" fill="#3ABFF8"/>
<path d="M312.77 208.887C321.38 241.021 301.93 273.953 269.33 282.44C258.93 285.15 248.45 285.042 238.71 282.587C217.93 277.373 200.57 261.503 194.71 239.621C186.1 207.487 205.55 174.565 238.15 166.069C240.72 165.398 243.29 164.905 245.85 164.57C275.86 160.677 304.84 179.277 312.77 208.887Z" fill="#82D6FA"/>
<g style="mix-blend-mode:soft-light" opacity="0.6">
<path d="M238.69 168.07C270.95 159.672 304 178.36 313.03 209.893C312.95 209.558 312.86 209.222 312.78 208.887C304.17 176.754 270.76 157.582 238.16 166.069C205.56 174.556 186.11 207.488 194.72 239.621C194.81 239.956 194.91 240.282 195 240.617C187.06 208.799 206.43 176.468 238.69 168.07Z" fill="white"/>
</g>
<path d="M302.44 233.461C303.8 226.482 303.64 219.109 301.67 211.775C294.68 185.684 267.55 170.12 241.08 177.01C214.61 183.9 198.82 210.642 205.81 236.733C207.77 244.057 211.32 250.553 216 255.964L302.44 233.461Z" fill="white"/>
<path d="M217.73 251.321C190.18 213.323 230.3 165.251 273.7 183.624C287.6 189.686 297.32 202.027 300.68 216.586L294.18 218.281C290.55 198.843 274.04 184.639 253.86 184.324C219.39 184.008 199.33 222.618 219.08 250.365L219.56 251.036L218.23 251.992L217.73 251.331V251.321Z" fill="#FFC82E"/>
<g style="mix-blend-mode:soft-light" opacity="0.2">
<path d="M266.56 250.74C264.4 255.028 259.13 256.773 254.78 254.653C250.43 252.524 248.66 247.33 250.81 243.042C252.97 238.754 258.24 237.009 262.59 239.129C266.94 241.258 268.71 246.452 266.56 250.74Z" fill="black"/>
</g>
<g style="mix-blend-mode:soft-light" opacity="0.6">
<path d="M295.43 207.104L254.27 244.274L261.41 250.908L295.43 207.104Z" fill="black"/>
</g>
<path d="M265.99 248.621C263.83 252.909 258.56 254.653 254.21 252.534C249.86 250.405 248.09 245.21 250.24 240.923C252.4 236.635 257.67 234.89 262.02 237.01C266.37 239.139 268.14 244.333 265.99 248.621Z" fill="#B7E8FC"/>
<path d="M295.21 205.694L253.68 242.46L260.75 249.163L295.21 205.694Z" fill="#B7E8FC"/>
<path d="M259.65 250.494C258.25 250.858 256.75 250.71 255.45 250.07C254.01 249.37 252.94 248.157 252.43 246.659C251.92 245.161 252.03 243.554 252.74 242.135C253.51 240.607 254.91 239.473 256.59 239.04C257.99 238.675 259.49 238.823 260.79 239.464C262.23 240.163 263.3 241.376 263.81 242.874C264.32 244.372 264.21 245.979 263.5 247.398C262.73 248.926 261.33 250.06 259.65 250.494Z" fill="#82D6FA"/>
<g style="mix-blend-mode:soft-light" opacity="0.2">
<path d="M312.77 208.887C321.38 241.021 301.93 273.953 269.33 282.44C258.93 285.15 248.45 285.042 238.71 282.587C241.12 281.483 243.7 280.665 246.21 279.818C258.96 275.53 271.28 269.961 282.9 263.238C290.56 258.812 298.2 253.578 302.46 245.9C306.51 238.576 306.99 229.882 306.71 221.543C306.28 209.163 303.98 196.063 295.61 186.827C291.44 182.224 286.06 178.961 280.36 176.507C269.65 171.904 257.74 170.287 247.2 165.3C246.77 165.093 246.31 164.846 245.85 164.57C275.86 160.677 304.84 179.277 312.77 208.887Z" fill="black"/>
</g>
<path d="M573.3 324.726C571.12 326.698 564.17 327.989 561 327.989H346.08C342.89 327.989 335.95 326.698 333.76 324.726L453.53 218.686L573.3 324.726Z" fill="#3ABFF8"/>
<path d="M573.3 324.726V452.048C573.3 453.073 573.17 454.069 572.93 455.005C572.35 457.4 571.03 459.47 569.25 461.038C567.07 463.009 564.17 464.182 561 464.182H346.08C342.89 464.182 340 463.009 337.81 461.038C336.09 459.51 334.82 457.489 334.21 455.222C333.91 454.207 333.76 453.142 333.76 452.038V324.716H573.29L573.3 324.726Z" fill="#09AFF6"/>
<path d="M546.94 222.934H364.28V423.473H546.94V222.934Z" fill="white"/>
<path d="M573.3 324.726V452.048C573.3 453.073 573.17 454.069 572.93 455.005C572.54 456.533 571.87 457.952 570.95 459.185C570.8 459.392 570.65 459.589 570.48 459.776C570.29 459.993 570.11 460.219 569.88 460.436C569.67 460.643 569.47 460.84 569.25 461.047C568.97 461.284 568.69 461.53 568.39 461.747C568.11 461.964 567.81 462.171 567.49 462.368C567.49 462.368 567.477 462.375 567.45 462.388C567.19 462.536 566.93 462.703 566.65 462.832C566.39 462.96 566.13 463.088 565.87 463.196C565.61 463.305 565.37 463.403 565.1 463.492C564.86 463.581 564.6 463.679 564.34 463.729C564.06 463.817 563.76 463.896 563.46 463.936C563.05 464.024 562.62 464.103 562.17 464.143C561.78 464.182 561.39 464.202 560.99 464.202H346.07C345.68 464.202 345.27 464.182 344.89 464.143C344.5 464.103 344.11 464.054 343.73 463.975C343.38 463.916 343.04 463.827 342.7 463.738C342.63 463.719 342.57 463.719 342.53 463.679C342.23 463.61 341.97 463.512 341.69 463.423C341.58 463.364 341.45 463.334 341.34 463.275C341.13 463.206 340.93 463.108 340.72 462.999C340.61 462.94 340.5 462.891 340.38 462.832C340.14 462.723 339.89 462.575 339.67 462.447C339.61 462.408 339.58 462.388 339.52 462.358C339.22 462.171 338.92 461.974 338.64 461.747C338.34 461.53 338.06 461.284 337.78 461.047C337.24 460.564 336.74 460.013 336.27 459.431C336.12 459.224 335.97 459.027 335.82 458.81C335.67 458.603 335.54 458.386 335.39 458.15C334.87 457.253 334.46 456.277 334.18 455.242C333.88 454.227 333.73 453.162 333.73 452.058V324.736L422.09 393.33L423.55 394.474L438.22 405.858C447.2 412.808 459.81 412.808 468.79 405.858L483.46 394.474L484.97 393.301L573.27 324.746L573.3 324.726Z" fill="#3ABFF8"/>
<g style="mix-blend-mode:soft-light" opacity="0.2">
<path d="M572.93 455.015C572.54 456.543 571.87 457.963 570.95 459.195C570.8 459.402 570.65 459.599 570.48 459.786C570.29 460.003 570.11 460.23 569.88 460.447C569.67 460.654 569.47 460.851 569.25 461.058C568.97 461.294 568.69 461.541 568.39 461.758C568.11 461.974 567.81 462.181 567.49 462.379C567.49 462.379 567.477 462.385 567.45 462.398C567.19 462.546 566.93 462.714 566.65 462.842C566.39 462.97 566.13 463.098 565.87 463.207C565.61 463.315 565.37 463.414 565.1 463.502C564.86 463.591 564.6 463.69 564.34 463.739C564.06 463.828 563.76 463.906 563.46 463.946C563.05 464.035 562.62 464.113 562.17 464.153C561.78 464.192 561.39 464.212 560.99 464.212H346.07C345.68 464.212 345.27 464.192 344.89 464.153C344.5 464.113 344.11 464.064 343.73 463.985C343.38 463.926 343.04 463.837 342.7 463.749C342.63 463.729 342.57 463.729 342.53 463.69C342.23 463.621 341.97 463.522 341.69 463.433C341.58 463.374 341.45 463.345 341.34 463.285C341.13 463.216 340.93 463.118 340.72 463.009C340.61 462.95 340.5 462.901 340.38 462.842C340.14 462.733 339.89 462.586 339.67 462.457C339.61 462.418 339.58 462.398 339.52 462.369C339.22 462.181 338.92 461.984 338.64 461.758C338.34 461.541 338.06 461.294 337.78 461.058C337.24 460.575 336.74 460.023 336.27 459.441C336.12 459.234 335.97 459.037 335.82 458.82C335.67 458.613 335.54 458.396 335.39 458.16C334.87 457.263 334.46 456.287 334.18 455.252L422.09 393.341L423.55 394.484L438.22 405.869C447.2 412.818 459.81 412.818 468.79 405.869L483.46 394.484L484.97 393.311L572.9 455.045L572.93 455.015Z" fill="black"/>
</g>
<path d="M569.25 461.047C568.97 461.284 568.69 461.53 568.39 461.747C568.11 461.964 567.81 462.171 567.49 462.368C567.49 462.368 567.477 462.375 567.45 462.388C567.19 462.536 566.93 462.703 566.65 462.832C566.39 462.96 566.13 463.088 565.87 463.196C565.61 463.305 565.37 463.403 565.1 463.492C564.86 463.581 564.6 463.679 564.34 463.729C564.06 463.817 563.76 463.896 563.46 463.936C563.05 464.024 562.62 464.103 562.17 464.143C561.78 464.182 561.39 464.202 560.99 464.202H346.07C345.68 464.202 345.27 464.182 344.89 464.143C344.5 464.103 344.11 464.054 343.73 463.975C343.38 463.916 343.04 463.827 342.7 463.738C342.63 463.719 342.57 463.719 342.53 463.679C342.23 463.61 341.97 463.512 341.69 463.423C341.58 463.364 341.45 463.334 341.34 463.275C341.13 463.206 340.93 463.108 340.72 462.999C340.61 462.94 340.5 462.891 340.38 462.832C340.14 462.723 339.89 462.575 339.67 462.447C339.61 462.408 339.58 462.388 339.52 462.358C339.22 462.171 338.92 461.974 338.64 461.747C338.34 461.53 338.06 461.284 337.78 461.047L423.55 394.464L438.22 405.849C447.2 412.798 459.81 412.798 468.79 405.849L483.46 394.464L569.23 461.047H569.25Z" fill="#3ABFF8"/>
<path d="M173.45 253.541L44.6811 285.988C41.5669 286.773 39.6878 289.898 40.4839 292.967L72.4117 416.074C73.2078 419.144 76.3777 420.996 79.4919 420.211L208.261 387.763C211.375 386.979 213.254 383.854 212.458 380.785L180.53 257.678C179.734 254.608 176.564 252.756 173.45 253.541Z" fill="#B7E8FC"/>
<g opacity="0.2">
<path d="M92.021 302.409L70.0186 307.954L93.8871 399.985L115.89 394.441L92.021 302.409Z" fill="white"/>
</g>
<g opacity="0.2">
<path d="M141.725 289.884L116.874 296.146L140.742 388.178L165.593 381.916L141.725 289.884Z" fill="white"/>
</g>
<path d="M188.26 376.505L93.68 400.339L69.1 305.564L69.69 305.417L94.12 399.609L188.11 375.923L188.26 376.505Z" fill="#3ABFF8"/>
<path d="M67.9 299.739L66.53 308.206L73.23 306.52L67.9 299.739Z" fill="#3ABFF8"/>
<path d="M195.27 374.425L186.67 373.074L188.39 379.678L195.27 374.425Z" fill="#3ABFF8"/>
<g opacity="0.5">
<path d="M92.1788 301.746L91.5878 301.895L91.8899 303.06L92.4809 302.911L92.1788 301.746Z" fill="#3ABFF8"/>
<path d="M95.06 312.849L94.47 312.997L93.83 310.513L94.42 310.365L95.06 312.849ZM93.7701 307.881L93.18 308.029L92.54 305.545L93.1301 305.397L93.7701 307.881Z" fill="#3ABFF8"/>
<path d="M114.4 387.397L113.81 387.545L113.17 385.061L113.76 384.913L114.4 387.397ZM113.11 382.429L112.52 382.577L111.88 380.093L112.47 379.945L113.11 382.429ZM111.82 377.461L111.23 377.609L110.59 375.125L111.18 374.977L111.82 377.461ZM110.53 372.493L109.94 372.641L109.3 370.157L109.89 370.009L110.53 372.493ZM109.24 367.525L108.65 367.673L108.01 365.189L108.6 365.041L109.24 367.525ZM107.95 362.557L107.36 362.705L106.72 360.221L107.31 360.073L107.95 362.557ZM106.66 357.589L106.07 357.737L105.43 355.253L106.02 355.105L106.66 357.589ZM105.37 352.622L104.78 352.769L104.14 350.285L104.73 350.138L105.37 352.622ZM104.08 347.654L103.49 347.801L102.85 345.318L103.44 345.17L104.08 347.654ZM102.79 342.686L102.2 342.834L101.56 340.35L102.15 340.202L102.79 342.686ZM101.5 337.718L100.91 337.866L100.27 335.382L100.86 335.234L101.5 337.718ZM100.21 332.75L99.62 332.898L98.98 330.414L99.5701 330.266L100.21 332.75ZM98.92 327.782L98.33 327.93L97.69 325.446L98.28 325.298L98.92 327.782ZM97.6301 322.814L97.04 322.962L96.4 320.478L96.9901 320.33L97.6301 322.814ZM96.34 317.846L95.75 317.994L95.11 315.51L95.7 315.362L96.34 317.846Z" fill="#3ABFF8"/>
<path d="M115.052 389.877L114.461 390.026L114.764 391.191L115.355 391.042L115.052 389.877Z" fill="#3ABFF8"/>
</g>
<g opacity="0.5">
<path d="M141.885 289.215L141.294 289.364L141.597 290.529L142.188 290.38L141.885 289.215Z" fill="#3ABFF8"/>
<path d="M144.76 300.321L144.17 300.469L143.53 297.985L144.12 297.837L144.76 300.321ZM143.47 295.353L142.88 295.501L142.24 293.017L142.83 292.869L143.47 295.353Z" fill="#3ABFF8"/>
<path d="M164.1 374.879L163.51 375.027L162.87 372.543L163.46 372.395L164.1 374.879ZM162.81 369.911L162.22 370.059L161.58 367.575L162.17 367.427L162.81 369.911ZM161.52 364.943L160.93 365.091L160.29 362.607L160.88 362.459L161.52 364.943ZM160.23 359.975L159.64 360.123L159 357.639L159.59 357.491L160.23 359.975ZM158.94 355.007L158.35 355.155L157.71 352.671L158.3 352.523L158.94 355.007ZM157.65 350.039L157.06 350.187L156.42 347.703L157.01 347.555L157.65 350.039ZM156.36 345.071L155.77 345.219L155.13 342.735L155.72 342.587L156.36 345.071ZM155.07 340.103L154.48 340.251L153.84 337.767L154.43 337.619L155.07 340.103ZM153.78 335.136L153.19 335.283L152.55 332.799L153.14 332.652L153.78 335.136ZM152.49 330.168L151.9 330.316L151.26 327.832L151.85 327.684L152.49 330.168ZM151.2 325.2L150.61 325.348L149.97 322.864L150.56 322.716L151.2 325.2ZM149.91 320.232L149.32 320.38L148.68 317.896L149.27 317.748L149.91 320.232ZM148.62 315.264L148.03 315.412L147.39 312.928L147.98 312.78L148.62 315.264ZM147.33 310.296L146.74 310.444L146.1 307.96L146.69 307.812L147.33 310.296ZM146.04 305.328L145.45 305.476L144.81 302.992L145.4 302.844L146.04 305.328Z" fill="#3ABFF8"/>
<path d="M164.732 377.356L164.141 377.504L164.443 378.67L165.034 378.521L164.732 377.356Z" fill="#3ABFF8"/>
</g>
<g opacity="0.5">
<path d="M117.022 295.49L116.431 295.639L116.733 296.804L117.324 296.655L117.022 295.49Z" fill="#3ABFF8"/>
<path d="M119.91 306.59L119.32 306.738L118.68 304.254L119.27 304.106L119.91 306.59ZM118.62 301.622L118.03 301.77L117.39 299.286L117.98 299.138L118.62 301.622Z" fill="#3ABFF8"/>
<path d="M139.25 381.138L138.66 381.286L138.02 378.802L138.61 378.654L139.25 381.138ZM137.96 376.17L137.37 376.318L136.73 373.834L137.32 373.686L137.96 376.17ZM136.67 371.202L136.08 371.35L135.44 368.866L136.03 368.718L136.67 371.202ZM135.38 366.234L134.79 366.382L134.15 363.898L134.74 363.75L135.38 366.234ZM134.09 361.266L133.5 361.414L132.86 358.93L133.45 358.782L134.09 361.266ZM132.8 356.299L132.21 356.446L131.57 353.962L132.16 353.815L132.8 356.299ZM131.51 351.331L130.92 351.478L130.28 348.995L130.87 348.847L131.51 351.331ZM130.22 346.363L129.63 346.511L128.99 344.027L129.58 343.879L130.22 346.363ZM128.93 341.395L128.34 341.543L127.7 339.059L128.29 338.911L128.93 341.395ZM127.64 336.427L127.05 336.575L126.41 334.091L127 333.943L127.64 336.427ZM126.35 331.459L125.76 331.607L125.12 329.123L125.71 328.975L126.35 331.459ZM125.06 326.491L124.47 326.639L123.83 324.155L124.42 324.007L125.06 326.491ZM123.77 321.523L123.18 321.671L122.54 319.187L123.13 319.039L123.77 321.523ZM122.48 316.555L121.89 316.703L121.25 314.219L121.84 314.071L122.48 316.555ZM121.19 311.587L120.6 311.735L119.96 309.251L120.55 309.104L121.19 311.587Z" fill="#3ABFF8"/>
<path d="M139.907 383.614L139.316 383.763L139.618 384.928L140.209 384.779L139.907 383.614Z" fill="#3ABFF8"/>
</g>
<path d="M106.74 363.465C105.25 363.839 103.73 362.952 103.35 361.483C102.97 360.015 103.87 358.516 105.36 358.142C106.85 357.767 108.37 358.654 108.75 360.123C109.13 361.592 108.23 363.09 106.74 363.465ZM105.51 358.704C104.33 358.999 103.62 360.182 103.92 361.345C104.22 362.509 105.42 363.208 106.6 362.913C107.78 362.617 108.49 361.434 108.19 360.271C107.89 359.108 106.69 358.408 105.51 358.704Z" fill="#3ABFF8"/>
<path d="M123.66 330.937C122.17 331.311 120.65 330.424 120.27 328.956C119.89 327.487 120.79 325.989 122.28 325.614C123.77 325.24 125.29 326.127 125.67 327.595C126.05 329.064 125.15 330.562 123.66 330.937ZM122.43 326.176C121.25 326.472 120.54 327.654 120.84 328.818C121.14 329.981 122.34 330.681 123.52 330.385C124.7 330.089 125.41 328.906 125.11 327.743C124.81 326.58 123.61 325.88 122.43 326.176Z" fill="#3ABFF8"/>
<path d="M141.17 300.676C139.68 301.05 138.16 300.163 137.78 298.694C137.4 297.226 138.3 295.727 139.79 295.353C141.28 294.978 142.8 295.865 143.18 297.334C143.56 298.803 142.66 300.301 141.17 300.676ZM139.94 295.915C138.76 296.21 138.05 297.393 138.35 298.556C138.65 299.719 139.85 300.419 141.03 300.124C142.21 299.828 142.92 298.645 142.62 297.482C142.32 296.319 141.12 295.619 139.94 295.915Z" fill="#3ABFF8"/>
<path d="M105.231 363.077L93.5305 400.038L94.0842 400.208L105.785 363.247L105.231 363.077Z" fill="#3ABFF8"/>
<path d="M121.627 330.324L106.889 358.433L107.404 358.695L122.142 330.586L121.627 330.324Z" fill="#3ABFF8"/>
<path d="M139.433 300.185L123.847 325.935L124.346 326.228L139.931 300.478L139.433 300.185Z" fill="#3ABFF8"/>
<g style="mix-blend-mode:soft-light" opacity="0.4">
<path d="M180.54 257.659L212.47 380.772C213.27 383.838 211.39 386.963 208.28 387.751L159.26 400.102C159.78 399.234 160.31 398.387 160.84 397.549C167.88 386.549 175.22 375.676 180.59 363.799C185.95 351.921 189.3 338.841 187.85 325.919C186.42 313.026 180.26 301.089 172.16 291.035C165.23 282.43 151.88 275.382 147.82 265.131C147.15 263.435 146.69 261.839 146.42 260.34L173.46 253.529C176.57 252.741 179.74 254.594 180.54 257.659Z" fill="black"/>
</g>
<path d="M681.964 447.773C644.808 461.694 627.549 445.05 627.549 445.05C627.549 445.05 620.4 467.775 581 472.949C581 472.949 589.165 562.258 657.023 559.88C717.863 530.166 681.964 447.773 681.964 447.773Z" fill="#3ABFF8"/>
<g style="mix-blend-mode:soft-light" opacity="0.2">
<path d="M655.765 554.967C631.76 555.219 613.383 542.336 601.117 516.656C594.699 503.211 591.607 489.586 590.232 481.682C591.65 481.394 593.047 481.077 594.406 480.738C615.035 475.593 625.7 465.477 630.934 458.207C639.04 462.148 653.309 466.046 673.938 460.902C675.297 460.563 676.672 460.188 678.06 459.778C680.685 467.459 684.595 481.091 685.385 496.006C686.876 524.157 676.913 543.979 655.765 554.96V554.967Z" fill="black"/>
</g>
<path d="M655.107 552.416C631.102 552.668 612.725 539.785 600.459 514.105C594.041 500.66 590.949 487.035 589.574 479.131C590.993 478.842 592.389 478.525 593.748 478.187C614.377 473.042 625.042 462.926 630.276 455.663C638.382 459.604 652.651 463.502 673.28 458.358C674.639 458.019 676.014 457.645 677.402 457.234C680.027 464.915 683.938 478.547 684.727 493.462C686.218 521.613 676.255 541.435 655.107 552.416Z" fill="white"/>
<g style="mix-blend-mode:soft-light" opacity="0.2">
<path d="M589.962 480.644C591.38 480.356 592.776 480.039 594.136 479.7C614.764 474.556 625.429 464.439 630.663 457.169C638.77 461.111 653.039 465.009 673.667 459.864C675.027 459.526 676.401 459.151 677.79 458.74C678.726 461.485 679.829 464.994 680.897 469.051C679.712 464.36 678.455 460.311 677.402 457.227C676.014 457.638 674.639 458.012 673.28 458.351C652.651 463.496 638.382 459.598 630.276 455.656C625.042 462.926 614.37 473.043 593.748 478.18C592.389 478.519 590.993 478.836 589.574 479.124C590.13 482.309 590.971 486.444 592.191 491.106C591.183 487.064 590.459 483.476 589.962 480.637V480.644Z" fill="black"/>
</g>
<g style="mix-blend-mode:soft-light" opacity="0.2">
<path d="M656.803 492.813L656.006 493.051L652.834 482.603C650.524 474.995 642.381 470.664 634.669 472.941L632.79 473.496C625.086 475.766 620.678 483.8 622.988 491.401L625.663 500.22L626.16 501.849L625.364 502.087C623.755 502.562 622.834 504.255 623.317 505.841L631.869 534.035C632.352 535.62 634.062 536.528 635.67 536.059L657.22 529.704L667.11 526.786C668.718 526.311 669.639 524.625 669.164 523.04L660.612 494.845C660.129 493.26 658.419 492.338 656.811 492.813H656.803ZM627.067 490.191C625.429 484.808 628.551 479.116 634.011 477.502L635.89 476.947C641.35 475.333 647.125 478.41 648.762 483.792L651.438 492.612L651.935 494.24L630.247 500.631L629.749 499.003L627.074 490.183L627.067 490.191ZM650.115 514.559L651.613 519.495C652.191 521.404 651.087 523.436 649.142 524.012C647.205 524.581 645.137 523.486 644.559 521.577L643.061 516.641C641.825 516.007 640.839 514.912 640.407 513.493C639.567 510.718 641.153 507.8 643.967 506.972C646.781 506.143 649.749 507.721 650.59 510.495C651.021 511.915 650.802 513.363 650.115 514.566V514.559Z" fill="black"/>
</g>
<path d="M634.062 470.924L632.184 471.479C624.479 473.749 620.071 481.782 622.381 489.384L628.134 508.356L657.98 499.558L652.227 480.586C649.917 472.978 641.774 468.647 634.062 470.924ZM652.688 496.741L630.999 503.132L626.46 488.181C624.823 482.798 627.944 477.106 633.404 475.492L635.283 474.937C640.744 473.323 646.518 476.4 648.156 481.782L652.695 496.733L652.688 496.741Z" fill="#FFC82E"/>
<path d="M656.189 490.803L624.75 500.069C623.141 500.545 622.22 502.238 622.703 503.823L631.255 532.017C631.738 533.602 633.448 534.51 635.056 534.042L666.496 524.776C668.104 524.3 669.025 522.614 668.55 521.029L659.998 492.835C659.515 491.25 657.805 490.327 656.197 490.803H656.189ZM649.508 512.556L651.007 517.491C651.584 519.401 650.48 521.433 648.536 522.009C646.599 522.578 644.53 521.483 643.953 519.574L642.454 514.638C641.219 514.004 640.232 512.909 639.801 511.489C638.96 508.715 640.546 505.797 643.36 504.969C646.175 504.14 649.143 505.718 649.983 508.492C650.415 509.911 650.195 511.36 649.508 512.563V512.556Z" fill="#FFC82E"/>
<g style="mix-blend-mode:soft-light" opacity="0.2">
<path d="M629.141 496.994L625.065 498.195L625.559 499.824L629.635 498.623L629.141 496.994Z" fill="black"/>
</g>
<g style="mix-blend-mode:soft-light" opacity="0.2">
<path d="M654.9 489.416L650.824 490.617L651.318 492.246L655.394 491.045L654.9 489.416Z" fill="black"/>
</g>
<g style="mix-blend-mode:soft-light" opacity="0.2">
<path d="M659.998 492.835L668.55 521.029C669.033 522.614 668.112 524.3 666.496 524.776L656.606 527.694C656.949 526.412 657.571 525.208 658.112 523.976C660.977 517.491 661.511 509.89 658.894 503.311C658.119 501.38 657.059 499.507 655.444 498.188C651.928 495.342 646.774 495.796 642.366 496.877C641.036 497.216 633.346 499.284 629.479 498.686L656.197 490.81C657.805 490.335 659.515 491.257 659.998 492.842V492.835Z" fill="black"/>
</g>
<path d="M525.031 3.19029L546.934 120.321C547.331 122.441 545.904 124.48 543.754 124.872L363.097 157.694C360.946 158.086 358.877 156.679 358.48 154.559L336.576 37.4284C336.179 35.3086 337.606 33.2792 339.756 32.8874L520.413 0.0658578C522.564 -0.325952 524.633 1.0705 525.031 3.19029Z" fill="#3ABFF8"/>
<path d="M363.331 152.078L344.557 51.6441C344.526 51.4633 344.639 51.2925 344.822 51.2624L522.34 19.0134C522.523 18.9833 522.697 19.1038 522.727 19.2746L541.501 119.708C541.532 119.889 541.42 120.06 541.236 120.09L363.718 152.339C363.535 152.369 363.362 152.259 363.331 152.078Z" fill="white"/>
<g style="mix-blend-mode:soft-light" opacity="0.2">
<path d="M541.566 120.062L363.72 152.362L364.059 154.18L541.906 121.88L541.566 120.062Z" fill="black"/>
</g>
<g style="mix-blend-mode:soft-light" opacity="0.2">
<path d="M354.291 40.5828C354.688 42.7227 353.261 44.7722 351.09 45.164C348.919 45.5558 346.84 44.1493 346.443 42.0094C346.045 39.8695 347.472 37.8201 349.643 37.4283C351.814 37.0365 353.893 38.443 354.291 40.5828Z" fill="black"/>
<path d="M365.298 38.5838C365.696 40.7237 364.269 42.7732 362.098 43.165C359.927 43.5568 357.848 42.1503 357.45 40.0104C357.053 37.8705 358.48 35.8211 360.65 35.4292C362.821 35.0374 364.901 36.4439 365.298 38.5838Z" fill="black"/>
<path d="M376.316 36.5843C376.713 38.7242 375.287 40.7736 373.116 41.1655C370.945 41.5573 368.865 40.1508 368.468 38.0109C368.07 35.871 369.497 33.8215 371.668 33.4297C373.839 33.0379 375.918 34.4444 376.316 36.5843Z" fill="black"/>
</g>
<path d="M354.087 39.4881C354.484 41.628 353.057 43.6775 350.886 44.0693C348.715 44.4611 346.636 43.0546 346.239 40.9147C345.841 38.7748 347.268 36.7253 349.439 36.3335C351.61 35.9417 353.689 37.3482 354.087 39.4881Z" fill="#B7E8FC"/>
<path d="M365.094 37.4891C365.492 39.629 364.065 41.6784 361.894 42.0702C359.723 42.462 357.644 41.0556 357.246 38.9157C356.849 36.7758 358.276 34.7263 360.447 34.3345C362.618 33.9427 364.697 35.3492 365.094 37.4891Z" fill="#FFC82E"/>
<path d="M376.112 35.4901C376.51 37.6299 375.083 39.6794 372.912 40.0712C370.741 40.463 368.662 39.0565 368.264 36.9167C367.867 34.7768 369.293 32.7273 371.464 32.3355C373.635 31.9437 375.715 33.3502 376.112 35.4901Z" fill="#B7E8FC"/>
<g style="mix-blend-mode:soft-light" opacity="0.4">
<path d="M525.03 3.19029L546.934 120.321C547.331 122.441 545.904 124.48 543.754 124.872L501.67 132.518C509.141 118.724 514.594 103.634 514.532 88.0622C514.451 70.5313 507.327 53.5931 497.348 39.076C490.071 28.467 481.173 17.3858 471.205 9.00715L520.413 0.0658578C522.564 -0.325952 524.633 1.0705 525.03 3.19029Z" fill="black"/>
</g>
<path d="M512.158 74.7031L508.007 59.5527L512.851 58.6577L514.549 74.2614L512.158 74.7031ZM512.384 81.3685L511.565 77.0592L515.968 76.2455L516.788 80.5548L512.384 81.3685Z" fill="#3ABFF8"/>
<path d="M500.653 83.8571C499.541 84.0624 498.506 84.0398 497.547 83.7892C496.605 83.514 495.813 83.0612 495.172 82.4309C494.552 81.7966 494.156 81.0248 493.983 80.1154C493.771 78.9993 493.897 78.0666 494.362 77.3174C494.824 76.5476 495.687 75.8959 496.953 75.3625C498.219 74.829 499.964 74.3569 502.186 73.9462L503.287 73.7428L503.163 73.0917C502.967 72.0583 502.594 71.3569 502.047 70.9874C501.499 70.618 500.68 70.534 499.59 70.7355C498.73 70.8943 497.875 71.1914 497.024 71.6267C496.17 72.0414 495.332 72.6026 494.512 73.3105L492.878 70.8845C493.353 70.4117 493.931 69.9732 494.614 69.5689C495.314 69.1401 496.059 68.7777 496.849 68.482C497.657 68.1616 498.427 67.9337 499.161 67.798C501.405 67.3834 503.17 67.5921 504.457 68.424C505.74 69.2353 506.586 70.7156 506.994 72.8651L508.74 82.0417L505.06 82.7217L504.6 80.3036C504.405 81.2168 503.966 81.9932 503.285 82.6326C502.599 83.2513 501.722 83.6595 500.653 83.8571ZM500.963 81.0398C501.991 80.8499 502.773 80.3416 503.31 79.5149C503.869 78.6844 504.046 77.7317 503.841 76.657L503.712 75.9749L502.642 76.1725C500.671 76.5367 499.327 76.9455 498.61 77.3989C497.911 77.8278 497.635 78.4349 497.785 79.2203C497.914 79.9023 498.262 80.4158 498.827 80.7607C499.391 81.1056 500.104 81.1986 500.963 81.0398Z" fill="#3ABFF8"/>
<path d="M490.563 85.7219C486.495 86.4736 484.084 84.8653 483.329 80.897L482.073 74.2936L479.117 74.8399L478.563 71.9257L481.519 71.3794L480.658 66.8531L484.59 66.1266L485.451 70.6529L490.106 69.7927L490.66 72.7069L486.005 73.5671L487.22 79.9535C487.408 80.9456 487.77 81.6489 488.305 82.0636C488.839 82.4783 489.599 82.5945 490.585 82.4124C490.878 82.3582 491.177 82.271 491.479 82.1509C491.778 82.0101 492.087 81.8673 492.407 81.7227L493.547 84.4644C493.209 84.7409 492.758 84.9953 492.195 85.2278C491.652 85.4565 491.108 85.6211 490.563 85.7219Z" fill="#3ABFF8"/>
<path d="M471.381 89.2667C470.27 89.4721 469.235 89.4495 468.275 89.1988C467.333 88.9237 466.542 88.4709 465.901 87.8405C465.281 87.2063 464.885 86.4344 464.712 85.525C464.499 84.409 464.626 83.4763 465.091 82.7271C465.552 81.9572 466.416 81.3056 467.682 80.7721C468.948 80.2387 470.692 79.7666 472.915 79.3559L474.016 79.1524L473.892 78.5014C473.695 77.468 473.323 76.7666 472.775 76.3971C472.228 76.0276 471.409 75.9437 470.318 76.1451C469.459 76.304 468.603 76.6011 467.753 77.0364C466.898 77.451 466.061 78.0123 465.241 78.7201L463.607 76.2942C464.082 75.8214 464.66 75.3829 465.343 74.9786C466.043 74.5497 466.788 74.1874 467.578 73.8916C468.385 73.5713 469.156 73.3433 469.89 73.2077C472.133 72.7931 473.899 73.0018 475.185 73.8337C476.468 74.6449 477.314 76.1253 477.723 78.2748L479.468 87.4514L475.789 88.1314L475.329 85.7132C475.133 86.6265 474.695 87.4028 474.014 88.0422C473.328 88.661 472.451 89.0691 471.381 89.2667ZM471.692 86.4495C472.719 86.2596 473.502 85.7513 474.039 84.9246C474.597 84.094 474.774 83.1414 474.57 82.0666L474.44 81.3846L473.371 81.5822C471.4 81.9464 470.056 82.3552 469.339 82.8086C468.639 83.2374 468.364 83.8446 468.513 84.6299C468.643 85.312 468.99 85.8255 469.555 86.1704C470.12 86.5153 470.832 86.6083 471.692 86.4495Z" fill="#3ABFF8"/>
<path d="M453.372 92.5946C452.03 92.8426 450.784 92.7412 449.635 92.2903C448.506 91.8356 447.547 91.0715 446.757 89.9981C445.963 88.9039 445.412 87.5508 445.106 85.9387C444.795 84.3059 444.813 82.8585 445.159 81.5965C445.501 80.3138 446.114 79.2591 446.999 78.4324C447.905 77.6018 449.028 77.0626 450.37 76.8146C451.461 76.6131 452.491 76.6687 453.462 76.9813C454.434 77.2939 455.214 77.8022 455.804 78.5062L454.094 69.5156L458.025 68.7891L462.182 90.6456L458.345 91.3547L457.867 88.8435C457.613 89.7891 457.084 90.6035 456.281 91.2868C455.474 91.9495 454.504 92.3854 453.372 92.5946ZM453.912 89.446C455.087 89.229 455.951 88.6413 456.507 87.6828C457.059 86.7037 457.179 85.3978 456.869 83.765C456.554 82.1115 455.964 80.9477 455.098 80.2733C454.228 79.5784 453.206 79.3394 452.031 79.5563C450.857 79.7733 449.992 80.3611 449.437 81.3195C448.877 82.2573 448.754 83.5529 449.069 85.2064C449.379 86.8392 449.972 88.0134 450.846 88.729C451.716 89.424 452.738 89.663 453.912 89.446Z" fill="#3ABFF8"/>
<path d="M416.354 99.1145L407.401 85.0762L411.426 84.3322L417.386 94.2704L419.321 82.8734L422.089 82.3619L428.092 92.3563L429.983 80.9031L433.789 80.1998L430.633 96.4758L427.205 97.1093L421.605 88.0353L419.783 98.4809L416.354 99.1145Z" fill="#3ABFF8"/>
<path d="M402.946 101.913C401.206 102.234 399.646 102.191 398.266 101.783C396.886 101.375 395.738 100.645 394.822 99.5953C393.927 98.5412 393.326 97.2081 393.019 95.596C392.721 94.0252 392.784 92.5907 393.21 91.2925C393.657 89.9904 394.394 88.9022 395.422 88.0277C396.466 87.1286 397.733 86.5416 399.221 86.2665C401.402 85.8635 403.251 86.2278 404.769 87.3594C406.307 88.4872 407.301 90.2291 407.749 92.5853L407.967 93.7323L396.959 95.7666C397.767 98.4198 399.597 99.483 402.449 98.956C403.309 98.7972 404.145 98.5143 404.957 98.1074C405.766 97.6799 406.473 97.1212 407.08 96.4314L408.676 98.8322C408.056 99.5672 407.224 100.213 406.18 100.77C405.135 101.326 404.057 101.707 402.946 101.913ZM399.88 88.8726C398.727 89.0857 397.86 89.6095 397.281 90.4439C396.702 91.2784 396.453 92.3086 396.534 93.5344L404.271 92.1047C403.948 90.8594 403.408 89.9642 402.654 89.4191C401.916 88.8494 400.991 88.6672 399.88 88.8726Z" fill="#3ABFF8"/>
<path d="M372.157 107.281L368 85.4248L371.019 84.8668L385.841 97.9171L382.94 82.6641L386.683 81.9724L390.84 103.829L387.852 104.381L372.987 91.2746L375.9 106.59L372.157 107.281Z" fill="#3ABFF8"/>
<path d="M465.514 340.718C465.514 346.993 461.219 352.276 455.371 353.872C454.192 354.194 452.951 354.366 451.67 354.366C444.023 354.366 437.824 348.256 437.824 340.718L451.692 333.694L465.514 340.718Z" fill="#FFBF65"/>
<path d="M464.844 344.928C463.418 349.264 459.85 352.65 455.371 353.872C452.555 353.104 450.099 351.482 448.31 349.306C446.867 347.551 448.168 344.928 450.459 344.928H464.844Z" fill="#F7D360"/>
<path d="M487.416 327.073L457.67 333.413L415.922 327.073C419.197 327.073 421.05 325.384 422.102 322.583C427.188 309.061 413.64 269.652 451.67 269.652C489.7 269.652 476.15 309.061 481.236 322.583C482.29 325.384 484.142 327.073 487.416 327.073Z" fill="#F7D360"/>
<path d="M494.338 333.896C494.338 337.664 491.239 340.718 487.416 340.718H415.922C414.011 340.718 412.279 339.955 411.027 338.72C409.774 337.486 409 335.779 409 333.896C409 330.128 412.099 327.073 415.922 327.073H487.416C489.327 327.073 491.058 327.836 492.311 329.071C493.564 330.306 494.338 332.012 494.338 333.896Z" fill="#FFBF65"/>
<path d="M481.236 322.582H444.077C440.071 322.582 436.868 319.314 436.992 315.367C437.515 298.668 434.814 269.969 451.392 269.654C405.884 269.886 434.975 327.072 415.923 327.072H487.416C484.142 327.072 482.29 325.383 481.236 322.582Z" fill="#FFBF65"/>
<path d="M494.338 333.896C494.338 337.664 491.238 340.718 487.416 340.718H435.925C434.013 340.718 432.282 339.955 431.03 338.72C429.777 337.486 429.002 335.779 429.002 333.896C429.002 330.128 432.102 327.073 435.925 327.073H487.416C489.327 327.073 491.058 327.836 492.311 329.071C493.564 330.306 494.338 332.012 494.338 333.896Z" fill="#F7D360"/>
<path d="M458.706 270.174C458.721 270.002 458.726 269.828 458.726 269.652C458.726 265.811 455.567 262.696 451.67 262.696C447.772 262.696 444.614 265.811 444.614 269.652C444.614 269.828 444.619 270.002 444.634 270.174" fill="#FFBF65"/>
<path d="M486.036 292.725C485.25 292.725 484.613 292.096 484.613 291.322C484.613 284.828 482.919 279.286 479.579 274.85C477.086 271.538 474.551 270.113 474.526 270.098C473.842 269.72 473.596 268.867 473.978 268.191C474.359 267.516 475.221 267.272 475.907 267.645C476.028 267.711 478.91 269.306 481.765 273.045C484.363 276.448 487.46 282.382 487.46 291.322C487.46 292.096 486.822 292.725 486.036 292.725Z" fill="#E6E6E6"/>
<path d="M492.299 284.681C491.513 284.681 490.876 284.053 490.876 283.278C490.876 274.321 485.495 270.761 485.266 270.614C484.609 270.192 484.419 269.326 484.843 268.677C485.267 268.028 486.14 267.836 486.8 268.251C487.084 268.428 493.723 272.714 493.723 283.278C493.723 284.053 493.085 284.681 492.299 284.681Z" fill="#E6E6E6"/>
<path d="M417.302 292.725C416.515 292.725 415.878 292.096 415.878 291.322C415.878 282.382 418.975 276.448 421.573 273.045C424.428 269.306 427.31 267.711 427.431 267.645C428.119 267.27 428.985 267.516 429.366 268.195C429.745 268.872 429.497 269.724 428.812 270.099C428.756 270.131 426.237 271.559 423.759 274.85C420.419 279.286 418.726 284.828 418.726 291.322C418.725 292.096 418.088 292.725 417.302 292.725Z" fill="#E6E6E6"/>
<path d="M411.038 284.681C410.252 284.681 409.615 284.053 409.615 283.278C409.615 272.714 416.255 268.428 416.537 268.251C417.201 267.835 418.081 268.028 418.503 268.681C418.924 269.333 418.731 270.197 418.071 270.614C417.835 270.766 412.462 274.328 412.462 283.278C412.462 284.053 411.825 284.681 411.038 284.681Z" fill="#E6E6E6"/>
<path d="M452 134.635C449.054 134.635 446.667 137.023 446.667 139.968C446.667 142.914 449.054 145.302 452 145.302C454.946 145.302 457.333 142.914 457.333 139.968C457.333 137.023 454.946 134.635 452 134.635ZM452 224.738L457.773 214.738L446.226 214.738L452 224.738ZM452 139.968L451 139.968L451 215.738L452 215.738L453 215.738L453 139.968L452 139.968Z" fill="black"/>
</svg>
