<svg width="24" height="24" viewBox="0 0 24 24" fill="none" xmlns="http://www.w3.org/2000/svg">
<path d="M22.2059 21.9226H9.12491C4.6117 21.9226 0.954102 18.2704 0.954102 13.7639V12.2418C0.954102 7.73524 4.6117 4.08304 9.12491 4.08304H15.8292C20.3424 4.08304 24 7.73524 24 12.2418V20.1312C24 21.1202 23.1964 21.9226 22.2059 21.9226Z" fill="#7AD2F9"/>
<path d="M21.2518 20.9106H8.17081C3.65759 20.9106 0 17.2584 0 12.7518V11.2298C0 6.72322 3.65759 3.07101 8.17081 3.07101H14.8751C19.3883 3.07101 23.0459 6.72322 23.0459 11.2298V19.1191C23.0479 20.1101 22.2443 20.9106 21.2518 20.9106Z" fill="url(#paint0_linear_70_82405)"/>
<path d="M5.96265 7.23492H8.30019V17.3237H5.96265V7.23492Z" fill="white"/>
<path d="M10.6973 7.23497H15.2876C16.3841 7.23497 17.3534 7.44471 18.1955 7.86227C19.0377 8.27983 19.6909 8.86865 20.1592 9.6268C20.6256 10.3869 20.8587 11.2701 20.8587 12.2784C20.8587 13.2867 20.6256 14.1718 20.1592 14.93C19.6929 15.6901 19.0377 16.277 18.1955 16.6945C17.3534 17.1121 16.3841 17.3218 15.2876 17.3218H10.6973V7.23497ZM15.1719 15.4072C16.1817 15.4072 16.9872 15.1263 17.5885 14.5644C18.1897 14.0025 18.4904 13.2405 18.4904 12.2803C18.4904 11.3201 18.1897 10.5581 17.5885 9.99625C16.9872 9.43437 16.1817 9.15343 15.1719 9.15343H13.0367V15.4072H15.1719Z" fill="white"/>
<defs>
<linearGradient id="paint0_linear_70_82405" x1="0.121618" y1="3.9629" x2="24.4209" y2="21.1223" gradientUnits="userSpaceOnUse">
<stop stop-color="#3ABFF8"/>
<stop offset="1" stop-color="#2D93F1"/>
</linearGradient>
</defs>
</svg>
