<svg width="196" height="40" viewBox="0 0 196 40" fill="none" xmlns="http://www.w3.org/2000/svg">
<path d="M16.4797 19.0259H5.49117L0 28.545L5.49117 38.0579H16.4797L21.9708 28.545L16.4797 19.0259Z" fill="#81BAFF"/>
<path d="M43.9356 28.5449L38.4445 38.0578H27.4621L21.971 28.5449L16.4798 19.0258L10.9825 9.51291L16.4798 0H27.4621L32.9533 9.51291L38.4445 19.0258L43.9356 28.5449Z" fill="#002997"/>
<path d="M65.9063 28.5449L60.4151 38.0578H49.4328L43.9354 28.5449L38.4443 19.0258L32.9531 9.51291L38.4443 0H49.4328L54.9239 9.51291L60.4151 19.0258L65.9063 28.5449Z" fill="#3800AA"/>
<path d="M101.419 1.58959V23.8132C101.419 24.4936 100.863 25.0502 100.183 25.0502H97.703C97.0228 25.0502 96.4663 24.4936 96.4663 23.8132V12.1107C96.4663 11.4303 95.5326 11.2509 95.279 11.8757L90.1712 24.2833C89.9796 24.7472 89.5281 25.0502 89.0273 25.0502H86.931C86.4301 25.0502 85.9787 24.7472 85.787 24.2894L80.6421 11.8633C80.3824 11.2386 79.4548 11.4241 79.4548 12.0983V23.8132C79.4548 24.4936 78.8983 25.0502 78.2181 25.0502H75.7384C75.0582 25.0502 74.5016 24.4936 74.5016 23.8132V1.58959C74.5016 0.909211 75.0582 0.352539 75.7384 0.352539H79.3126C79.8073 0.352539 80.2525 0.649431 80.4504 1.10095L87.4133 17.3867C87.6297 17.8877 88.3347 17.8877 88.5511 17.3867L95.514 1.10095C95.7057 0.643246 96.1571 0.352539 96.6518 0.352539H100.189C100.869 0.352539 101.426 0.909211 101.426 1.58959H101.419Z" fill="#002997"/>
<path d="M111.251 1.58959V23.8132C111.251 24.4936 110.695 25.0502 110.015 25.0502H107.535C106.855 25.0502 106.298 24.4936 106.298 23.8132V1.58959C106.298 0.909211 106.855 0.352539 107.535 0.352539H110.015C110.695 0.352539 111.251 0.909211 111.251 1.58959Z" fill="#002997"/>
<path d="M116.575 6.14183C117.67 4.21822 119.173 2.72139 121.071 1.64515C122.969 0.568919 125.097 0.0369873 127.459 0.0369873C130.217 0.0369873 132.635 0.742106 134.712 2.15853C136.271 3.22239 137.476 4.58933 138.33 6.25935C138.744 7.06961 138.126 8.02833 137.217 8.02833C136.153 8.02833 134.885 8.02833 134.1 8.02833C133.673 8.02833 133.278 7.81184 133.061 7.44691C132.529 6.55005 131.837 5.86349 130.984 5.37486C129.957 4.78726 128.77 4.49037 127.428 4.49037C125.987 4.49037 124.707 4.82437 123.588 5.49856C122.468 6.17275 121.597 7.1191 120.972 8.34378C120.347 9.56845 120.032 11.0096 120.032 12.6611C120.032 14.3125 120.341 15.7228 120.972 16.9598C121.597 18.1969 122.468 19.1556 123.588 19.8236C124.707 20.4978 125.987 20.8318 127.428 20.8318C128.77 20.8318 129.957 20.5287 130.984 19.9287C131.831 19.4277 132.523 18.735 133.061 17.8381C133.278 17.4732 133.68 17.2567 134.106 17.2567H137.223C138.132 17.2567 138.75 18.2092 138.342 19.0257C137.489 20.7205 136.289 22.0936 134.731 23.1513C132.665 24.5553 130.241 25.2542 127.459 25.2542C125.103 25.2542 122.969 24.7161 121.071 23.6461C119.173 22.5698 117.676 21.0792 116.575 19.168C115.481 17.2567 114.931 15.0857 114.931 12.6549C114.931 10.2241 115.481 8.04688 116.575 6.12946V6.14183Z" fill="#002997"/>
<path d="M148.391 23.6709C146.456 22.5884 144.922 21.0792 143.79 19.1618C142.659 17.2382 142.09 15.061 142.09 12.6364C142.09 10.2118 142.659 8.06548 143.79 6.14187C144.922 4.21826 146.456 2.71524 148.391 1.63282C150.327 0.550405 152.448 0.00610352 154.76 0.00610352C157.073 0.00610352 159.225 0.550405 161.148 1.63282C163.071 2.71524 164.593 4.22444 165.712 6.14187C166.831 8.0593 167.394 10.2303 167.394 12.6364C167.394 15.0424 166.831 17.2444 165.712 19.1618C164.593 21.0854 163.065 22.5884 161.13 23.6709C159.194 24.7533 157.073 25.2976 154.76 25.2976C152.448 25.2976 150.327 24.7533 148.391 23.6709ZM158.687 19.8669C159.819 19.1927 160.703 18.234 161.34 16.9846C161.977 15.7352 162.292 14.2817 162.292 12.6302C162.292 10.9787 161.977 9.53139 161.34 8.29434C160.703 7.05729 159.819 6.10476 158.687 5.44912C157.555 4.7873 156.245 4.45948 154.76 4.45948C153.276 4.45948 151.959 4.7873 150.815 5.44912C149.671 6.11094 148.781 7.05729 148.144 8.29434C147.507 9.53139 147.192 10.9787 147.192 12.6302C147.192 14.2817 147.507 15.7352 148.144 16.9846C148.781 18.234 149.671 19.1989 150.815 19.8669C151.959 20.5411 153.276 20.8751 154.76 20.8751C156.245 20.8751 157.555 20.5411 158.687 19.8669Z" fill="#002997"/>
<path d="M177.257 21.1226H186.699C187.379 21.1226 187.936 21.6793 187.936 22.3597V23.8132C187.936 24.4936 187.379 25.0502 186.699 25.0502H172.303C171.623 25.0502 171.067 24.4936 171.067 23.8132V1.58959C171.067 0.909211 171.623 0.352539 172.303 0.352539H174.783C175.463 0.352539 176.02 0.909211 176.02 1.58959V19.8856C176.02 20.5659 176.576 21.1226 177.257 21.1226Z" fill="#002997"/>
<path d="M75.1018 34.0931C75.3306 33.691 75.646 33.3756 76.0418 33.1529C76.4375 32.9303 76.8889 32.8127 77.3836 32.8127C77.9649 32.8127 78.472 32.9612 78.9048 33.2581C79.3377 33.555 79.6469 33.9632 79.82 34.4889H78.6266C78.5091 34.2415 78.3421 34.056 78.1257 33.9323C77.9092 33.8086 77.6619 33.7467 77.3774 33.7467C77.0744 33.7467 76.8085 33.8148 76.5736 33.957C76.3386 34.0993 76.1531 34.2972 76.0232 34.557C75.8934 34.8168 75.8253 35.1137 75.8253 35.46C75.8253 35.8064 75.8934 36.1033 76.0232 36.3631C76.1531 36.6229 76.3386 36.8208 76.5736 36.963C76.8085 37.1053 77.0744 37.1733 77.3774 37.1733C77.6619 37.1733 77.9092 37.1115 78.1257 36.9816C78.3421 36.8579 78.5091 36.6662 78.6266 36.4187H79.82C79.6469 36.9507 79.3439 37.3589 78.911 37.6558C78.4782 37.9527 77.9711 38.0949 77.3836 38.0949C76.8889 38.0949 76.4437 37.9836 76.0418 37.7548C75.646 37.5321 75.3306 37.2166 75.1018 36.8146C74.873 36.4126 74.7555 35.961 74.7555 35.4477C74.7555 34.9343 74.873 34.4828 75.1018 34.0807V34.0931Z" fill="#002997"/>
<path d="M84.501 36.3136H81.4957C81.5205 36.6105 81.6256 36.8455 81.8049 37.0125C81.9843 37.1796 82.2131 37.2661 82.479 37.2661C82.8624 37.2661 83.1406 37.0991 83.3014 36.7713H84.4207C84.3032 37.1672 84.0744 37.495 83.7404 37.7486C83.4065 38.0022 82.9922 38.1321 82.5037 38.1321C82.1079 38.1321 81.7555 38.0455 81.4401 37.8661C81.1247 37.6929 80.8835 37.4393 80.7042 37.1177C80.5311 36.7961 80.4383 36.4249 80.4383 36.0044C80.4383 35.5838 80.5249 35.2065 80.698 34.8848C80.8712 34.5632 81.1123 34.3158 81.4277 34.1426C81.7369 33.9694 82.0956 33.8828 82.5037 33.8828C82.9118 33.8828 83.2457 33.9694 83.5549 34.1364C83.8641 34.3034 84.1053 34.5446 84.2722 34.8539C84.4454 35.1632 84.5258 35.5157 84.5258 35.9178C84.5258 36.0662 84.5134 36.2023 84.4949 36.3198L84.501 36.3136ZM83.456 35.6147C83.456 35.3487 83.3571 35.1322 83.1654 34.9714C82.9798 34.8106 82.7449 34.7302 82.4728 34.7302C82.2131 34.7302 81.9966 34.8106 81.8235 34.9652C81.6503 35.1199 81.539 35.3363 81.5019 35.6147H83.456Z" fill="#002997"/>
<path d="M86.325 32.5653V38.0578H85.2861V32.5653H86.325Z" fill="#002997"/>
<path d="M88.3904 32.5653V38.0578H87.3516V32.5653H88.3904Z" fill="#002997"/>
<path d="M93.2943 33.9447V38.0579H92.2492V37.5383C92.1132 37.7177 91.9401 37.8538 91.7236 37.9589C91.5072 38.0579 91.2722 38.1136 91.0249 38.1136C90.7033 38.1136 90.4189 38.0455 90.1715 37.9094C89.9242 37.7734 89.7325 37.5754 89.5902 37.3095C89.448 37.0435 89.38 36.7281 89.38 36.3631V33.9509H90.4188V36.2147C90.4188 36.5425 90.4992 36.7899 90.6662 36.9693C90.827 37.1425 91.0496 37.2353 91.334 37.2353C91.6185 37.2353 91.8473 37.1487 92.0081 36.9693C92.1688 36.7961 92.2554 36.5425 92.2554 36.2147V33.9509H93.3005L93.2943 33.9447Z" fill="#002997"/>
<path d="M95.3533 32.5653V38.0578H94.3145V32.5653H95.3533Z" fill="#002997"/>
<path d="M96.3615 34.8786C96.5285 34.557 96.7511 34.3096 97.0356 34.1364C97.32 33.9632 97.6354 33.8766 97.9879 33.8766C98.2971 33.8766 98.5629 33.9384 98.7917 34.0621C99.0205 34.1858 99.2061 34.3405 99.3421 34.5322V33.9446H100.387V38.0578H99.3421V37.4578C99.2061 37.6496 99.0267 37.8104 98.7917 37.9341C98.5568 38.0578 98.2847 38.1259 97.9817 38.1259C97.6354 38.1259 97.32 38.0393 97.0356 37.8599C96.7511 37.6805 96.5285 37.4331 96.3615 37.1053C96.1946 36.7775 96.1142 36.4064 96.1142 35.9858C96.1142 35.5652 96.1946 35.2002 96.3615 34.8786ZM99.1999 35.3549C99.1009 35.1755 98.9649 35.0332 98.7979 34.9405C98.631 34.8415 98.4516 34.7982 98.2538 34.7982C98.0559 34.7982 97.8827 34.8477 97.722 34.9405C97.5612 35.0332 97.4251 35.1693 97.3262 35.3549C97.2273 35.5342 97.1716 35.7507 97.1716 35.9981C97.1716 36.2455 97.2211 36.462 97.3262 36.6476C97.4251 36.8331 97.5612 36.9754 97.7281 37.0744C97.8951 37.1733 98.0682 37.2228 98.2599 37.2228C98.4516 37.2228 98.631 37.1733 98.8041 37.0805C98.9711 36.9816 99.1071 36.8455 99.2061 36.6661C99.305 36.4868 99.3545 36.2703 99.3545 36.0167C99.3545 35.7631 99.305 35.5466 99.2061 35.3672L99.1999 35.3549Z" fill="#002997"/>
<path d="M102.972 34.0745C103.188 33.9508 103.435 33.8889 103.707 33.8889V34.9775H103.435C103.108 34.9775 102.86 35.0517 102.699 35.2064C102.533 35.361 102.452 35.627 102.452 36.0105V38.0578H101.413V33.9446H102.452V34.5817C102.588 34.3652 102.761 34.192 102.978 34.0683L102.972 34.0745Z" fill="#002997"/>
<path d="M107.573 34.9713V35.8496H104.425V34.9713H107.573Z" fill="#002997"/>
<path d="M114.381 32.8745V38.0577H113.342V34.6868L111.957 38.0577H111.171L109.774 34.6868V38.0577H108.735V32.8745H109.916L111.561 36.7279L113.206 32.8745H114.381Z" fill="#002997"/>
<path d="M116.162 37.86C115.847 37.6868 115.599 37.4332 115.414 37.1116C115.234 36.7899 115.142 36.4188 115.142 35.9982C115.142 35.5776 115.234 35.2065 115.42 34.8849C115.605 34.5632 115.859 34.3158 116.181 34.1364C116.502 33.9633 116.861 33.8705 117.257 33.8705C117.652 33.8705 118.011 33.9571 118.333 34.1364C118.654 34.3096 118.908 34.5632 119.093 34.8849C119.279 35.2065 119.371 35.5776 119.371 35.9982C119.371 36.4188 119.279 36.7899 119.087 37.1116C118.895 37.4332 118.642 37.6806 118.314 37.86C117.992 38.0332 117.628 38.1259 117.226 38.1259C116.824 38.1259 116.471 38.0393 116.156 37.86H116.162ZM117.764 37.0806C117.931 36.9878 118.06 36.8518 118.159 36.6662C118.258 36.4807 118.308 36.258 118.308 35.9982C118.308 35.6085 118.203 35.3055 117.999 35.0952C117.795 34.8849 117.541 34.7797 117.244 34.7797C116.947 34.7797 116.7 34.8849 116.496 35.0952C116.298 35.3055 116.193 35.6085 116.193 35.9982C116.193 36.3879 116.292 36.691 116.484 36.9013C116.681 37.1116 116.923 37.2167 117.219 37.2167C117.405 37.2167 117.584 37.1734 117.751 37.0806H117.764Z" fill="#002997"/>
<path d="M121.177 32.5653V38.0578H120.138V32.5653H121.177Z" fill="#002997"/>
<path d="M125.994 36.3136H122.989C123.013 36.6105 123.119 36.8455 123.298 37.0125C123.477 37.1796 123.706 37.2661 123.972 37.2661C124.355 37.2661 124.634 37.0991 124.794 36.7713H125.914C125.796 37.1672 125.567 37.495 125.233 37.7486C124.899 38.0022 124.485 38.1321 123.997 38.1321C123.601 38.1321 123.248 38.0455 122.933 37.8661C122.618 37.6929 122.376 37.4393 122.197 37.1177C122.024 36.7961 121.931 36.4249 121.931 36.0044C121.931 35.5838 122.018 35.2065 122.191 34.8848C122.364 34.5632 122.605 34.3158 122.921 34.1426C123.23 33.9694 123.588 33.8828 123.997 33.8828C124.405 33.8828 124.739 33.9694 125.048 34.1364C125.357 34.3034 125.598 34.5446 125.765 34.8539C125.938 35.1632 126.019 35.5157 126.019 35.9178C126.019 36.0662 126.006 36.2023 125.988 36.3198L125.994 36.3136ZM124.949 35.6147C124.949 35.3487 124.85 35.1322 124.658 34.9714C124.473 34.8106 124.238 34.7302 123.966 34.7302C123.706 34.7302 123.49 34.8106 123.316 34.9652C123.143 35.1199 123.032 35.3363 122.995 35.6147H124.949Z" fill="#002997"/>
<path d="M126.773 34.8848C126.946 34.5632 127.187 34.3157 127.49 34.1426C127.8 33.9694 128.146 33.8766 128.542 33.8766C129.049 33.8766 129.475 34.0065 129.809 34.2601C130.143 34.5137 130.366 34.8724 130.483 35.3301H129.364C129.302 35.1507 129.203 35.0147 129.061 34.9095C128.919 34.8044 128.746 34.7549 128.535 34.7549C128.239 34.7549 128.004 34.86 127.83 35.0765C127.657 35.293 127.571 35.5961 127.571 35.9919C127.571 36.3878 127.657 36.6847 127.83 36.9012C128.004 37.1177 128.239 37.2228 128.535 37.2228C128.956 37.2228 129.228 37.0372 129.358 36.6599H130.477C130.366 37.1053 130.137 37.4578 129.803 37.7238C129.469 37.9836 129.049 38.1197 128.542 38.1197C128.146 38.1197 127.793 38.0331 127.49 37.8537C127.181 37.6805 126.946 37.4331 126.773 37.1115C126.6 36.7898 126.513 36.4187 126.513 35.9919C126.513 35.5652 126.6 35.194 126.773 34.8724V34.8848Z" fill="#002997"/>
<path d="M135.127 33.9447V38.0579H134.082V37.5383C133.946 37.7177 133.773 37.8538 133.557 37.9589C133.34 38.0579 133.105 38.1136 132.858 38.1136C132.536 38.1136 132.252 38.0455 132.005 37.9094C131.757 37.7734 131.566 37.5754 131.423 37.3095C131.281 37.0435 131.213 36.7281 131.213 36.3631V33.9509H132.252V36.2147C132.252 36.5425 132.332 36.7899 132.499 36.9693C132.66 37.1425 132.883 37.2353 133.167 37.2353C133.452 37.2353 133.68 37.1487 133.841 36.9693C134.002 36.7961 134.088 36.5425 134.088 36.2147V33.9509H135.134L135.127 33.9447Z" fill="#002997"/>
<path d="M137.193 32.5653V38.0578H136.154V32.5653H137.193Z" fill="#002997"/>
<path d="M138.201 34.8786C138.368 34.557 138.59 34.3096 138.875 34.1364C139.159 33.9632 139.475 33.8766 139.827 33.8766C140.136 33.8766 140.402 33.9384 140.631 34.0621C140.86 34.1858 141.045 34.3405 141.181 34.5322V33.9446H142.226V38.0578H141.181V37.4578C141.045 37.6496 140.866 37.8104 140.631 37.9341C140.396 38.0578 140.124 38.1259 139.821 38.1259C139.475 38.1259 139.159 38.0393 138.875 37.8599C138.59 37.6805 138.368 37.4331 138.201 37.1053C138.034 36.7775 137.953 36.4064 137.953 35.9858C137.953 35.5652 138.034 35.2002 138.201 34.8786ZM141.039 35.3549C140.94 35.1755 140.804 35.0332 140.637 34.9405C140.47 34.8415 140.291 34.7982 140.093 34.7982C139.895 34.7982 139.722 34.8477 139.561 34.9405C139.4 35.0332 139.264 35.1693 139.165 35.3549C139.066 35.5342 139.011 35.7507 139.011 35.9981C139.011 36.2455 139.06 36.462 139.165 36.6476C139.264 36.8331 139.4 36.9754 139.567 37.0744C139.734 37.1733 139.907 37.2228 140.099 37.2228C140.291 37.2228 140.47 37.1733 140.643 37.0805C140.81 36.9816 140.946 36.8455 141.045 36.6661C141.144 36.4868 141.194 36.2703 141.194 36.0167C141.194 35.7631 141.144 35.5466 141.045 35.3672L141.039 35.3549Z" fill="#002997"/>
<path d="M144.811 34.0745C145.028 33.9508 145.275 33.8889 145.547 33.8889V34.9775H145.275C144.947 34.9775 144.7 35.0517 144.539 35.2064C144.372 35.361 144.292 35.627 144.292 36.0105V38.0578H143.253V33.9446H144.292V34.5817C144.428 34.3652 144.601 34.192 144.817 34.0683L144.811 34.0745Z" fill="#002997"/>
<path d="M151.186 37.0681H149.121L148.781 38.0577H147.693L149.554 32.8683H150.766L152.627 38.0577H151.526L151.186 37.0681ZM150.902 36.2392L150.154 34.0744L149.405 36.2392H150.902Z" fill="#002997"/>
<path d="M156.789 34.3529C157.092 34.6622 157.241 35.0951 157.241 35.6456V38.0579H156.202V35.7879C156.202 35.4601 156.121 35.2126 155.954 35.0333C155.794 34.8601 155.571 34.7673 155.286 34.7673C155.002 34.7673 154.773 34.8539 154.606 35.0333C154.439 35.2065 154.359 35.4601 154.359 35.7879V38.0579H153.32V33.9447H154.359V34.458C154.495 34.2787 154.674 34.1426 154.891 34.0374C155.107 33.9385 155.342 33.8828 155.602 33.8828C156.09 33.8828 156.486 34.0374 156.789 34.3467V34.3529Z" fill="#002997"/>
<path d="M158.211 34.8786C158.378 34.557 158.6 34.3096 158.885 34.1364C159.169 33.9632 159.485 33.8766 159.837 33.8766C160.146 33.8766 160.412 33.9384 160.641 34.0621C160.87 34.1858 161.055 34.3405 161.191 34.5322V33.9446H162.237V38.0578H161.191V37.4578C161.055 37.6496 160.876 37.8104 160.641 37.9341C160.406 38.0578 160.134 38.1259 159.831 38.1259C159.485 38.1259 159.169 38.0393 158.885 37.8599C158.6 37.6805 158.378 37.4331 158.211 37.1053C158.044 36.7775 157.964 36.4064 157.964 35.9858C157.964 35.5652 158.044 35.2002 158.211 34.8786ZM161.049 35.3549C160.95 35.1755 160.814 35.0332 160.647 34.9405C160.48 34.8415 160.301 34.7982 160.103 34.7982C159.905 34.7982 159.732 34.8477 159.571 34.9405C159.411 35.0332 159.275 35.1693 159.176 35.3549C159.077 35.5342 159.021 35.7507 159.021 35.9981C159.021 36.2455 159.07 36.462 159.176 36.6476C159.275 36.8331 159.411 36.9754 159.578 37.0744C159.744 37.1733 159.918 37.2228 160.109 37.2228C160.301 37.2228 160.48 37.1733 160.653 37.0805C160.82 36.9816 160.957 36.8455 161.055 36.6661C161.154 36.4868 161.204 36.2703 161.204 36.0167C161.204 35.7631 161.154 35.5466 161.055 35.3672L161.049 35.3549Z" fill="#002997"/>
<path d="M164.296 32.5653V38.0578H163.257V32.5653H164.296Z" fill="#002997"/>
<path d="M169.255 33.9447L166.708 40.0001H165.601L166.491 37.9527L164.846 33.9447H166.009L167.072 36.8147L168.148 33.9447H169.255Z" fill="#002997"/>
<path d="M170.48 37.9403C170.214 37.8166 170.004 37.6558 169.843 37.4455C169.682 37.2352 169.602 37.0063 169.59 36.7527H170.635C170.653 36.9135 170.734 37.0434 170.87 37.1486C171.006 37.2537 171.173 37.3032 171.377 37.3032C171.581 37.3032 171.729 37.2661 171.84 37.1857C171.952 37.1053 172.007 37.0063 172.007 36.8826C172.007 36.7465 171.939 36.6476 171.803 36.5795C171.667 36.5115 171.451 36.4373 171.154 36.3631C170.845 36.2888 170.597 36.2146 170.4 36.1342C170.202 36.0538 170.035 35.9363 169.893 35.7693C169.75 35.6085 169.682 35.3858 169.682 35.1075C169.682 34.8786 169.75 34.6745 169.88 34.4827C170.01 34.291 170.202 34.1487 170.443 34.0374C170.69 33.9261 170.975 33.8766 171.309 33.8766C171.797 33.8766 172.187 34.0003 172.484 34.2415C172.78 34.4827 172.935 34.8167 172.966 35.2312H171.97C171.958 35.0703 171.89 34.9405 171.766 34.8415C171.643 34.7425 171.482 34.6992 171.278 34.6992C171.092 34.6992 170.944 34.7363 170.845 34.8044C170.746 34.8724 170.69 34.9714 170.69 35.0951C170.69 35.2312 170.758 35.3363 170.9 35.4105C171.037 35.4848 171.253 35.5528 171.544 35.627C171.84 35.7012 172.088 35.7755 172.279 35.8559C172.471 35.9363 172.638 36.06 172.78 36.2208C172.923 36.3816 172.997 36.6043 172.997 36.8764C172.997 37.1115 172.929 37.328 172.799 37.5135C172.669 37.6991 172.477 37.8475 172.236 37.9527C171.995 38.0578 171.704 38.1135 171.377 38.1135C171.049 38.1135 170.74 38.0516 170.474 37.9341L170.48 37.9403Z" fill="#002997"/>
<path d="M173.924 33.2828C173.8 33.1653 173.745 33.023 173.745 32.8498C173.745 32.6766 173.807 32.5344 173.924 32.4168C174.042 32.2993 174.196 32.2437 174.382 32.2437C174.567 32.2437 174.716 32.2993 174.839 32.4168C174.963 32.5344 175.019 32.6766 175.019 32.8498C175.019 33.023 174.957 33.1653 174.839 33.2828C174.716 33.4003 174.567 33.456 174.382 33.456C174.196 33.456 174.048 33.4003 173.924 33.2828ZM174.895 33.9446V38.0578H173.856V33.9446H174.895Z" fill="#002997"/>
<path d="M176.589 37.9403C176.323 37.8166 176.113 37.6558 175.952 37.4455C175.791 37.2352 175.711 37.0063 175.699 36.7527H176.744C176.762 36.9135 176.843 37.0434 176.979 37.1486C177.115 37.2537 177.282 37.3032 177.486 37.3032C177.69 37.3032 177.838 37.2661 177.95 37.1857C178.061 37.1053 178.117 37.0063 178.117 36.8826C178.117 36.7465 178.049 36.6476 177.913 36.5795C177.776 36.5115 177.56 36.4373 177.263 36.3631C176.954 36.2888 176.707 36.2146 176.509 36.1342C176.311 36.0538 176.144 35.9363 176.002 35.7693C175.86 35.6085 175.791 35.3858 175.791 35.1075C175.791 34.8786 175.86 34.6745 175.989 34.4827C176.119 34.291 176.311 34.1487 176.552 34.0374C176.799 33.9261 177.084 33.8766 177.418 33.8766C177.906 33.8766 178.296 34.0003 178.593 34.2415C178.89 34.4827 179.044 34.8167 179.075 35.2312H178.079C178.067 35.0703 177.999 34.9405 177.875 34.8415C177.752 34.7425 177.591 34.6992 177.387 34.6992C177.201 34.6992 177.053 34.7363 176.954 34.8044C176.855 34.8724 176.799 34.9714 176.799 35.0951C176.799 35.2312 176.867 35.3363 177.01 35.4105C177.146 35.4848 177.362 35.5528 177.653 35.627C177.95 35.7012 178.197 35.7755 178.389 35.8559C178.58 35.9363 178.747 36.06 178.89 36.2208C179.032 36.3816 179.106 36.6043 179.106 36.8764C179.106 37.1115 179.038 37.328 178.908 37.5135C178.778 37.6991 178.587 37.8475 178.345 37.9527C178.104 38.0578 177.814 38.1135 177.486 38.1135C177.158 38.1135 176.849 38.0516 176.583 37.9341L176.589 37.9403Z" fill="#002997"/>
<path d="M182.755 32.8745V36.0785C182.755 36.431 182.847 36.697 183.027 36.8826C183.212 37.0681 183.466 37.1609 183.8 37.1609C184.134 37.1609 184.393 37.0681 184.579 36.8826C184.764 36.697 184.851 36.431 184.851 36.0785V32.8745H185.896V36.0723C185.896 36.5114 185.803 36.8826 185.611 37.1918C185.42 37.5011 185.166 37.7237 184.845 37.8784C184.523 38.033 184.171 38.1072 183.781 38.1072C183.391 38.1072 183.045 38.033 182.73 37.8784C182.414 37.7237 182.167 37.4949 181.982 37.1918C181.796 36.8887 181.709 36.5176 181.709 36.0723V32.8745H182.748H182.755Z" fill="#002997"/>
<path d="M190.367 34.3529C190.67 34.6622 190.818 35.0951 190.818 35.6456V38.0579H189.779V35.7879C189.779 35.4601 189.699 35.2126 189.532 35.0333C189.371 34.8601 189.148 34.7673 188.864 34.7673C188.579 34.7673 188.351 34.8539 188.184 35.0333C188.017 35.2065 187.936 35.4601 187.936 35.7879V38.0579H186.897V33.9447H187.936V34.458C188.072 34.2787 188.252 34.1426 188.468 34.0374C188.685 33.9385 188.92 33.8828 189.179 33.8828C189.668 33.8828 190.064 34.0374 190.367 34.3467V34.3529Z" fill="#002997"/>
<path d="M191.875 33.2828C191.752 33.1653 191.696 33.023 191.696 32.8498C191.696 32.6766 191.758 32.5344 191.875 32.4168C191.993 32.2993 192.147 32.2437 192.333 32.2437C192.518 32.2437 192.667 32.2993 192.791 32.4168C192.914 32.5344 192.97 32.6766 192.97 32.8498C192.97 33.023 192.908 33.1653 192.791 33.2828C192.667 33.4003 192.518 33.456 192.333 33.456C192.147 33.456 191.999 33.4003 191.875 33.2828ZM192.846 33.9446V38.0578H191.807V33.9446H192.846Z" fill="#002997"/>
<path d="M195.079 34.7983V36.79C195.079 36.926 195.11 37.0312 195.178 37.0931C195.246 37.1549 195.357 37.1858 195.518 37.1858H196V38.0641H195.344C194.466 38.0641 194.034 37.6374 194.034 36.79V34.8107H193.545V33.9571H194.034V32.9427H195.079V33.9571H196V34.8107H195.079V34.7983Z" fill="#002997"/>
</svg>
