<svg width="246" height="306" viewBox="0 0 246 306" fill="none" xmlns="http://www.w3.org/2000/svg">
<circle cx="120.192" cy="154.93" r="119.446" fill="#E4E9F1"/>
<g filter="url(#filter0_d_6546_815914)">
<path fill-rule="evenodd" clip-rule="evenodd" d="M156.896 16H49.3132C36.0583 16 25.3132 26.7452 25.3132 40V258C25.3132 271.255 36.0583 282 49.3132 282H191.918C205.173 282 215.918 271.255 215.918 258V75.022L156.896 16Z" fill="white"/>
</g>
<path d="M156.884 16L188.392 47.5077L221.848 80.9642H172.884C164.047 80.9642 156.884 73.8008 156.884 64.9642V16Z" fill="url(#paint0_linear_6546_815914)"/>
<rect x="60.0456" y="60.0508" width="65.6139" height="6.49642" fill="#E1E3EB"/>
<rect x="60.0456" y="243.879" width="76.6578" height="6.49642" fill="#E1E3EB"/>
<rect x="60.0456" y="74.3438" width="38.3289" height="6.49642" fill="#E1E3EB"/>
<circle cx="143.857" cy="163.346" r="60.0919" fill="#B8C3D3"/>
<circle cx="143.857" cy="163.346" r="43.2012" fill="url(#paint1_linear_6546_815914)"/>
<path d="M148.08 168.868V167.893C148.08 165.92 146.48 164.32 144.507 164.32V164.32C142.534 164.32 140.934 165.92 140.934 167.893V168.868" stroke="#A7B1C0" stroke-width="4" stroke-linecap="round"/>
<rect x="125.992" y="155.225" width="9.09499" height="3.24821" rx="1.62411" fill="#A7B1C0"/>
<rect x="153.927" y="155.225" width="9.09499" height="3.24821" rx="1.62411" fill="#A7B1C0"/>
<rect x="181.861" y="209.619" width="11.6936" height="22.7375" transform="rotate(-45 181.861 209.619)" fill="#B8C3D3"/>
<path d="M193.877 235.414C192.315 233.852 192.315 231.32 193.877 229.758L210.27 213.365C211.832 211.803 214.364 211.803 215.926 213.365L234.229 231.667C240.318 237.756 240.318 247.628 234.229 253.717C228.14 259.806 218.268 259.806 212.179 253.717L193.877 235.414Z" fill="#B8C3D3"/>
<rect x="167.278" y="89.4102" width="5.19714" height="5.19714" rx="2.59857" fill="#B8C3D3"/>
<rect x="175.074" y="89.4102" width="5.19714" height="5.19714" rx="2.59857" fill="#B8C3D3"/>
<rect x="182.87" y="89.4102" width="5.19714" height="5.19714" rx="2.59857" fill="#B8C3D3"/>
<defs>
<filter id="filter0_d_6546_815914" x="5.31316" y="0" width="230.605" height="306" filterUnits="userSpaceOnUse" color-interpolation-filters="sRGB">
<feFlood flood-opacity="0" result="BackgroundImageFix"/>
<feColorMatrix in="SourceAlpha" type="matrix" values="0 0 0 0 0 0 0 0 0 0 0 0 0 0 0 0 0 0 127 0" result="hardAlpha"/>
<feOffset dy="4"/>
<feGaussianBlur stdDeviation="10"/>
<feComposite in2="hardAlpha" operator="out"/>
<feColorMatrix type="matrix" values="0 0 0 0 0 0 0 0 0 0 0 0 0 0 0 0 0 0 0.08 0"/>
<feBlend mode="normal" in2="BackgroundImageFix" result="effect1_dropShadow_6546_815914"/>
<feBlend mode="normal" in="SourceGraphic" in2="effect1_dropShadow_6546_815914" result="shape"/>
</filter>
<linearGradient id="paint0_linear_6546_815914" x1="220.058" y1="63.0607" x2="156.884" y2="28.7882" gradientUnits="userSpaceOnUse">
<stop stop-color="#F8F9FD"/>
<stop offset="1" stop-color="#DAE1EB"/>
</linearGradient>
<linearGradient id="paint1_linear_6546_815914" x1="184.677" y1="182.735" x2="100.656" y2="137.153" gradientUnits="userSpaceOnUse">
<stop stop-color="#F8F9FD"/>
<stop offset="1" stop-color="#DAE1EB"/>
</linearGradient>
</defs>
</svg>
