<svg width="40" height="40" viewBox="0 0 40 40" fill="none" xmlns="http://www.w3.org/2000/svg">
<g clip-path="url(#clip0_4443_81577)">
<path d="M13.7475 25.0366C13.4813 25.0366 13.2152 24.9374 13.0116 24.7339L3.9354 15.7464C2.83415 14.6556 2.43749 13.1838 2.88112 11.8216C3.32475 10.4541 4.5043 9.49902 6.03874 9.26415L12.0356 8.34557C12.6045 8.26207 13.1369 8.64829 13.2256 9.21718C13.3143 9.78607 12.9229 10.3184 12.354 10.4072L6.35711 11.3257C5.60555 11.4406 5.06275 11.8581 4.86442 12.4635C4.66609 13.0742 4.86442 13.7266 5.402 14.2589L14.4782 23.2464C14.8905 23.6535 14.8905 24.3111 14.4834 24.7234C14.2799 24.9322 14.0085 25.0314 13.7423 25.0314L13.7475 25.0366Z" fill="#EF3333"/>
<path d="M3.1263 26.3832C4.85292 26.3832 6.25261 24.9835 6.25261 23.2569C6.25261 21.5303 4.85292 20.1306 3.1263 20.1306C1.39969 20.1306 0 21.5303 0 23.2569C0 24.9835 1.39969 26.3832 3.1263 26.3832Z" fill="#EF3333"/>
<path d="M10.5429 33.8048C9.77565 33.8048 9.03452 33.5699 8.39778 33.1106C7.2339 32.2651 6.6911 30.8455 6.94162 29.3163L7.91761 23.3298C8.01156 22.7609 8.54392 22.3747 9.11803 22.4687C9.68692 22.5626 10.0731 23.1002 9.9792 23.6691L9.00321 29.6555C8.88317 30.4019 9.10759 31.049 9.62429 31.4248C10.141 31.8006 10.8247 31.8163 11.498 31.4718L22.855 25.6158C23.3665 25.3497 23.998 25.5532 24.2589 26.0647C24.5251 26.5762 24.3216 27.2077 23.8101 27.4687L12.4531 33.3246C11.8268 33.6482 11.1744 33.8048 10.5377 33.8048H10.5429Z" fill="#FFBC00"/>
<path d="M19.3529 39.5356C21.0795 39.5356 22.4792 38.1359 22.4792 36.4093C22.4792 34.6827 21.0795 33.283 19.3529 33.283C17.6263 33.283 16.2266 34.6827 16.2266 36.4093C16.2266 38.1359 17.6263 39.5356 19.3529 39.5356Z" fill="#FFBC00"/>
<path d="M28.2046 35.1357C27.5679 35.1357 26.9155 34.9739 26.2892 34.6556L20.8977 31.8737C20.3863 31.6075 20.1827 30.9812 20.4489 30.4698C20.7151 29.9583 21.3414 29.7547 21.8529 30.0209L27.2443 32.8027C27.9176 33.1524 28.6013 33.1315 29.118 32.7558C29.6347 32.38 29.8643 31.7328 29.7391 30.9865L27.6775 18.3769C27.5835 17.808 27.9698 17.2704 28.5387 17.1764C29.1128 17.0825 29.6451 17.4687 29.7391 18.0376L31.8007 30.6472C32.0512 32.1817 31.5084 33.5961 30.3445 34.4416C29.7078 34.9009 28.9666 35.1357 28.1994 35.1357H28.2046Z" fill="#35B535"/>
<path d="M36.8736 28.1681C38.6002 28.1681 39.9999 26.7684 39.9999 25.0418C39.9999 23.3152 38.6002 21.9155 36.8736 21.9155C35.147 21.9155 33.7473 23.3152 33.7473 25.0418C33.7473 26.7684 35.147 28.1681 36.8736 28.1681Z" fill="#35B535"/>
<path d="M32.3016 22.474C32.0354 22.474 31.764 22.3696 31.5604 22.1661C31.1533 21.759 31.1586 21.0961 31.5657 20.689L35.8767 16.4197C36.4143 15.8874 36.6126 15.2297 36.4143 14.6243C36.216 14.0189 35.6732 13.6014 34.9216 13.4865L22.2911 11.5502C21.7222 11.4615 21.3308 10.9291 21.4195 10.3602C21.5083 9.79133 22.0406 9.39989 22.6095 9.48862L35.24 11.4249C36.7744 11.6598 37.954 12.6149 38.3976 13.9824C38.8412 15.3498 38.4498 16.8164 37.3433 17.9072L33.0323 22.1765C32.8287 22.3801 32.5625 22.4792 32.2964 22.4792L32.3016 22.474Z" fill="#7259EA"/>
<path d="M31.4771 7.99065C33.2037 7.99065 34.6034 6.59095 34.6034 4.86434C34.6034 3.13773 33.2037 1.73804 31.4771 1.73804C29.7505 1.73804 28.3508 3.13773 28.3508 4.86434C28.3508 6.59095 29.7505 7.99065 31.4771 7.99065Z" fill="#7259EA"/>
<path d="M13.2046 15.1357C13.048 15.1357 12.8862 15.0992 12.7349 15.0261C12.2181 14.7651 12.0146 14.1388 12.2703 13.6221L18.0167 2.21294C18.7161 0.824634 19.9895 0 21.4248 0C22.8601 0 24.1336 0.829854 24.833 2.21294L27.5626 7.63048C27.8236 8.14718 27.6148 8.77349 27.0981 9.03445C26.5814 9.29541 25.9551 9.08664 25.6941 8.56994L22.9645 3.1524C22.6252 2.4739 22.0616 2.08768 21.4196 2.08768C20.7776 2.08768 20.2192 2.4739 19.8747 3.1524L14.1284 14.5616C13.9457 14.9269 13.5751 15.1357 13.1941 15.1357H13.2046Z" fill="#027FFF"/>
<path d="M10.6212 6.88933C12.3478 6.88933 13.7475 5.48963 13.7475 3.76302C13.7475 2.03641 12.3478 0.636719 10.6212 0.636719C8.89457 0.636719 7.49487 2.03641 7.49487 3.76302C7.49487 5.48963 8.89457 6.88933 10.6212 6.88933Z" fill="#027FFF"/>
</g>
<defs>
<clipPath id="clip0_4443_81577">
<rect width="40" height="40" fill="white"/>
</clipPath>
</defs>
</svg>
