<svg width="512" height="158" viewBox="0 0 512 158" fill="none" xmlns="http://www.w3.org/2000/svg">
<path d="M486.031 141.401H398.765C368.657 141.401 344.256 117.036 344.256 86.9719V76.8179C344.256 46.7537 368.657 22.3892 398.765 22.3892H443.491C473.6 22.3892 498 46.7537 498 76.8179V129.449C498 136.048 492.639 141.401 486.031 141.401Z" fill="#7AD2F9"/>
<path d="M479.667 134.649H392.401C362.293 134.649 337.892 110.285 337.892 80.2205V70.0664C337.892 40.0023 362.293 15.6377 392.401 15.6377H437.127C467.236 15.6377 491.636 40.0023 491.636 70.0664V122.698C491.649 129.309 486.288 134.649 479.667 134.649Z" fill="url(#paint0_linear_8367_69970)"/>
<path d="M377.669 43.416H393.263V110.72H377.669V43.416Z" fill="white"/>
<path d="M409.256 43.4162H439.879C447.194 43.4162 453.66 44.8154 459.278 47.6011C464.896 50.3867 469.254 54.3148 472.378 59.3726C475.49 64.4432 477.045 70.3353 477.045 77.0619C477.045 83.7885 475.49 89.6935 472.378 94.7512C469.267 99.8218 464.896 103.737 459.278 106.523C453.66 109.308 447.194 110.708 439.879 110.708H409.256V43.4162ZM439.107 97.9348C445.844 97.9348 451.218 96.0606 455.229 92.3122C459.24 88.5638 461.245 83.4804 461.245 77.0747C461.245 70.6691 459.24 65.5856 455.229 61.8373C451.218 58.0889 445.844 56.2147 439.107 56.2147H424.863V97.9348H439.107Z" fill="white"/>
<path d="M20.2351 47.3701C21.1608 47.3701 22.1378 47.614 23.1534 48.1146C24.1819 48.6024 24.9533 49.2571 25.4803 50.0402L49.5338 87.0106L44.5843 86.8181L69.2419 50.0402C70.5018 48.2558 72.1088 47.3701 74.0886 47.3701C75.6699 47.3701 77.0969 47.9349 78.3439 49.0517C79.6038 50.1685 80.2209 51.6191 80.2209 53.4035V110.644C80.2209 112.364 79.6552 113.789 78.5368 114.944C77.4183 116.099 75.927 116.677 74.0758 116.677C72.2245 116.677 70.7204 116.099 69.5762 114.944C68.4191 113.789 67.8406 112.364 67.8406 110.644V64.071L71.6974 64.9567L51.5265 95.7141C50.9351 96.4458 50.1894 97.062 49.3024 97.5883C48.4153 98.1146 47.5026 98.3457 46.5769 98.2815C45.7156 98.3457 44.8414 98.1146 43.9543 97.5883C43.0673 97.062 42.3216 96.433 41.7302 95.7141L22.8063 65.8553L25.3775 60.6178V110.644C25.3775 112.364 24.8504 113.789 23.7962 114.944C22.742 116.099 21.3536 116.677 19.6438 116.677C17.9982 116.677 16.6355 116.099 15.5813 114.944C14.5271 113.789 14 112.351 14 110.644V53.3906C14 51.7475 14.6042 50.3226 15.8255 49.1416C17.0469 47.9606 18.5253 47.3701 20.2351 47.3701Z" fill="#3F3F3F"/>
<path d="M99.2477 57.357C96.9979 57.357 95.4166 56.9976 94.491 56.2659C93.5654 55.547 93.1025 54.2505 93.1025 52.4148V50.5406C93.1025 48.6279 93.6168 47.3313 94.6324 46.6382C95.6609 45.945 97.2164 45.5984 99.3377 45.5984C101.652 45.5984 103.259 45.9578 104.184 46.6895C105.11 47.4212 105.573 48.7049 105.573 50.5406V52.4148C105.573 54.3275 105.071 55.624 104.082 56.3172C103.104 57.0104 101.485 57.357 99.2477 57.357ZM105.29 110.643C105.29 112.363 104.724 113.788 103.606 114.944C102.487 116.099 101.06 116.677 99.3505 116.677C97.6278 116.677 96.2137 116.099 95.0952 114.944C93.9767 113.788 93.4111 112.363 93.4111 110.643V69.8089C93.4111 68.1016 93.9767 66.6638 95.0952 65.5085C96.2137 64.3532 97.6407 63.7755 99.3505 63.7755C101.06 63.7755 102.487 64.3532 103.606 65.5085C104.724 66.6638 105.29 68.1016 105.29 69.8089V110.643Z" fill="#3F3F3F"/>
<path d="M138.946 62.7878C141.723 62.7878 144.256 63.2115 146.57 64.0715C148.884 64.9316 150.877 66.0228 152.561 67.3321C154.245 68.6543 155.569 69.9894 156.52 71.3373C157.472 72.6851 157.96 73.8276 157.96 74.7519L155.389 76.0356V68.8212C155.389 67.1139 155.955 65.6762 157.073 64.5208C158.192 63.3655 159.619 62.7878 161.329 62.7878C163.038 62.7878 164.465 63.3527 165.584 64.4695C166.702 65.5863 167.268 67.0369 167.268 68.8212V112.814C167.268 118.552 166.034 123.147 163.553 126.6C161.071 130.066 157.832 132.57 153.795 134.11C149.771 135.663 145.439 136.434 140.823 136.434C139.499 136.434 137.789 136.267 135.681 135.933C133.573 135.599 131.554 135.201 129.639 134.752C127.723 134.29 126.27 133.866 125.281 133.468C123.301 132.608 121.925 131.543 121.167 130.259C120.408 128.975 120.254 127.602 120.717 126.151C121.308 124.238 122.272 122.942 123.584 122.249C124.908 121.555 126.283 121.478 127.736 122.005C128.392 122.197 129.484 122.595 131.001 123.186C132.518 123.776 134.19 124.328 136.002 124.816C137.815 125.317 139.422 125.561 140.811 125.561C145.76 125.561 149.424 124.572 151.802 122.595C154.181 120.618 155.363 117.884 155.363 114.392V105.792L156.546 106.677C156.546 107.538 156.096 108.577 155.209 109.797C154.322 111.016 153.101 112.223 151.545 113.404C149.99 114.585 148.164 115.599 146.056 116.421C143.947 117.242 141.698 117.653 139.319 117.653C134.627 117.653 130.41 116.485 126.643 114.149C122.877 111.812 119.907 108.577 117.734 104.457C115.562 100.336 114.469 95.612 114.469 90.2718C114.469 84.8674 115.562 80.1049 117.734 75.9842C119.907 71.8636 122.851 68.6415 126.54 66.2923C130.269 63.956 134.395 62.7878 138.946 62.7878ZM140.823 73.6608C137.854 73.6608 135.244 74.3925 133.007 75.8302C130.757 77.2808 129.009 79.2577 127.762 81.7609C126.502 84.2641 125.885 87.1011 125.885 90.259C125.885 93.3527 126.515 96.164 127.762 98.6672C129.009 101.17 130.77 103.147 133.007 104.598C135.244 106.048 137.854 106.767 140.823 106.767C143.857 106.767 146.506 106.048 148.743 104.598C150.992 103.147 152.741 101.17 153.988 98.6672C155.235 96.164 155.865 93.3655 155.865 90.259C155.865 87.1011 155.235 84.2641 153.988 81.7609C152.728 79.2577 150.98 77.2808 148.743 75.8302C146.506 74.3925 143.87 73.6608 140.823 73.6608Z" fill="#3F3F3F"/>
<path d="M207.957 62.788C212.714 62.788 216.327 63.8149 218.795 65.856C221.276 67.8971 222.973 70.6185 223.899 74.0075C224.824 77.4093 225.287 81.1705 225.287 85.3297V110.644C225.287 112.364 224.722 113.789 223.603 114.945C222.485 116.1 221.058 116.678 219.348 116.678C217.625 116.678 216.211 116.1 215.092 114.945C213.974 113.789 213.408 112.364 213.408 110.644V85.3297C213.408 83.1602 213.138 81.1962 212.611 79.4503C212.084 77.7045 211.12 76.3053 209.744 75.2527C208.356 74.2 206.376 73.6737 203.805 73.6737C201.298 73.6737 199.151 74.2 197.364 75.2527C195.577 76.3053 194.24 77.7045 193.353 79.4503C192.466 81.1962 192.016 83.1602 192.016 85.3297V110.644C192.016 112.364 191.45 113.789 190.332 114.945C189.214 116.1 187.786 116.678 186.077 116.678C184.354 116.678 182.94 116.1 181.821 114.945C180.703 113.789 180.137 112.364 180.137 110.644V49.5402C180.137 47.8329 180.703 46.3952 181.821 45.2398C182.94 44.0845 184.367 43.5068 186.077 43.5068C187.786 43.5068 189.214 44.0845 190.332 45.2398C191.45 46.3952 192.016 47.8329 192.016 49.5402V74.0588L190.525 73.7636C191.116 72.6468 191.939 71.4401 193.006 70.1564C194.06 68.8727 195.346 67.666 196.863 66.5492C198.38 65.4324 200.064 64.521 201.915 63.8278C203.766 63.1346 205.785 62.788 207.957 62.788Z" fill="#3F3F3F"/>
<path d="M238.747 64.7646H262.21C263.791 64.7646 265.115 65.2909 266.169 66.3435C267.223 67.3962 267.75 68.7184 267.75 70.2973C267.75 71.8121 267.223 73.083 266.169 74.0971C265.115 75.124 263.791 75.6247 262.21 75.6247H238.747C237.166 75.6247 235.842 75.0984 234.788 74.0457C233.734 72.9931 233.207 71.6709 233.207 70.0919C233.207 68.5772 233.734 67.3063 234.788 66.2922C235.842 65.2781 237.166 64.7646 238.747 64.7646ZM249.341 52.4154C251.051 52.4154 252.465 52.9931 253.545 54.1484C254.637 55.3038 255.177 56.7415 255.177 58.4488V102.441C255.177 103.365 255.357 104.123 255.717 104.713C256.077 105.304 256.579 105.74 257.209 105.997C257.839 106.267 258.507 106.395 259.24 106.395C260.037 106.395 260.757 106.241 261.412 105.946C262.068 105.65 262.827 105.496 263.688 105.496C264.614 105.496 265.449 105.92 266.208 106.78C266.966 107.64 267.352 108.821 267.352 110.336C267.352 112.184 266.349 113.699 264.331 114.88C262.312 116.061 260.153 116.664 257.851 116.664C256.463 116.664 254.933 116.549 253.249 116.318C251.565 116.087 249.984 115.522 248.492 114.636C247.001 113.75 245.767 112.377 244.777 110.528C243.787 108.68 243.286 106.151 243.286 102.916V58.436C243.286 56.7287 243.864 55.2909 245.021 54.1356C246.191 52.9803 247.631 52.4154 249.341 52.4154Z" fill="#3F3F3F"/>
<path d="M317.953 63.7758C319.663 63.7758 321.09 64.3534 322.208 65.5088C323.327 66.6641 323.892 68.1018 323.892 69.8092V111.825C323.892 117.884 322.748 122.71 320.473 126.305C318.197 129.899 315.137 132.479 311.319 134.071C307.488 135.65 303.194 136.446 298.45 136.446C296.342 136.446 294.092 136.279 291.714 135.945C289.335 135.611 287.394 135.124 285.877 134.456C283.897 133.596 282.522 132.531 281.763 131.247C281.005 129.963 280.851 128.59 281.313 127.139C281.905 125.226 282.869 123.93 284.18 123.237C285.504 122.543 286.88 122.466 288.333 122.993C289.387 123.326 290.775 123.84 292.485 124.52C294.195 125.214 296.188 125.56 298.425 125.56C301.459 125.56 303.991 125.149 305.997 124.328C308.015 123.506 309.532 122.12 310.548 120.181C311.563 118.23 312.078 115.586 312.078 112.223V105.599L314.16 107.973C313.042 110.143 311.641 111.94 309.956 113.365C308.272 114.777 306.28 115.855 303.966 116.574C301.651 117.293 299.016 117.665 296.046 117.665C292.549 117.665 289.49 116.857 286.893 115.239C284.283 113.622 282.252 111.388 280.799 108.513C279.346 105.65 278.626 102.364 278.626 98.6795V69.8092C278.626 68.1018 279.192 66.6641 280.311 65.5088C281.429 64.3534 282.856 63.7758 284.566 63.7758C286.276 63.7758 287.703 64.3534 288.821 65.5088C289.94 66.6641 290.505 68.1018 290.505 69.8092V95.1237C290.505 99.4112 291.444 102.428 293.321 104.174C295.198 105.92 297.82 106.792 301.189 106.792C303.503 106.792 305.444 106.343 307.025 105.457C308.606 104.572 309.828 103.249 310.689 101.504C311.551 99.7578 311.975 97.6269 311.975 95.1237V69.8092C311.975 68.1018 312.54 66.6641 313.659 65.5088C314.829 64.3534 316.243 63.7758 317.953 63.7758Z" fill="#3F3F3F"/>
<defs>
<linearGradient id="paint0_linear_8367_69970" x1="338.703" y1="21.5876" x2="500.809" y2="136.062" gradientUnits="userSpaceOnUse">
<stop stop-color="#3ABFF8"/>
<stop offset="1" stop-color="#2D93F1"/>
</linearGradient>
</defs>
</svg>
