<svg width="80" height="58" viewBox="0 0 80 58" fill="none" xmlns="http://www.w3.org/2000/svg">
<g clip-path="url(#clip0_4457_542)">
<path d="M32.3633 16.5518V23.4879H40.9224V16.5518H44.1072V33.0423H40.9224V26.0755H32.3633V33.0423H29.1785V16.5518H32.3633Z" fill="#027FFF"/>
<path d="M52.8194 16.5518C54.3658 16.5518 55.629 16.9805 56.609 17.8379C57.5889 18.6954 58.0712 19.8131 58.0712 21.1911C58.0712 22.1251 57.8262 22.9443 57.3439 23.641C56.8616 24.3377 56.1419 24.8889 55.1926 25.287C55.7209 25.5702 56.1879 25.953 56.5936 26.443C56.9994 26.933 57.5123 27.7521 58.1171 28.9081C59.1277 30.9063 59.8703 32.2843 60.3603 33.0423H56.808C56.563 32.6824 56.2338 32.1006 55.8204 31.3044C54.9094 29.5512 54.2357 28.3646 53.8146 27.7598C53.3935 27.155 52.9801 26.7186 52.5897 26.4583C52.1992 26.198 51.7475 26.0755 51.2346 26.0755H50.0786V33.0423H46.8938V16.5518H52.827H52.8194ZM52.0921 23.5874C52.9265 23.5874 53.5773 23.3807 54.0596 22.9596C54.5419 22.5386 54.7716 21.972 54.7716 21.2447C54.7716 20.5174 54.5342 19.9279 54.0672 19.5528C53.6002 19.1777 52.9189 18.9939 52.0461 18.9939H50.0633V23.5874H52.0921Z" fill="#027FFF"/>
<path d="M65.5358 16.5518L70.9561 23.0515L76.3763 16.5518H79.2243V33.0423H76.0395V21.4668H75.9476L71.1781 27.2698H70.7264L65.9568 21.4668H65.865V33.0423H62.6802V16.5518H65.5511H65.5358Z" fill="#027FFF"/>
<path d="M5.37681 38.7152C7.90948 38.7152 9.96261 36.662 9.96261 34.1294C9.96261 31.5967 7.90948 29.5436 5.37681 29.5436C2.84415 29.5436 0.791016 31.5967 0.791016 34.1294C0.791016 36.662 2.84415 38.7152 5.37681 38.7152Z" fill="#EF3333"/>
<path d="M29.1786 58C31.7112 58 33.7644 55.9468 33.7644 53.4142C33.7644 50.8815 31.7112 48.8284 29.1786 48.8284C26.6459 48.8284 24.5928 50.8815 24.5928 53.4142C24.5928 55.9468 26.6459 58 29.1786 58Z" fill="#FFBC00"/>
<path d="M20.9563 35.2011L11.4402 25.7769L7.6353 22.0102C5.08594 19.4838 6.33383 15.6483 9.87844 15.1047L15.1686 14.2932L18.6749 13.7573" stroke="#EF3333" stroke-width="3.0623" stroke-miterlimit="10" stroke-linecap="round"/>
<path d="M44.7426 37.9189L45.0718 39.9248L45.9369 45.2072C46.5188 48.7518 43.2498 51.1251 40.0573 49.4791L35.3031 47.0293L32.1489 45.4063" stroke="#35B535" stroke-width="3.0623" stroke-miterlimit="10" stroke-linecap="round"/>
<path d="M35.0199 38.9372L23.1229 45.0771L18.3687 47.5269C15.1762 49.1729 11.9149 46.7996 12.4891 43.255L13.3542 37.9726L13.9283 34.4739" stroke="#FFBC00" stroke-width="3.0623" stroke-miterlimit="10" stroke-linecap="round"/>
<path d="M20.1602 20.6782L26.1776 8.71988L28.5815 3.94269C30.1969 0.734925 34.2314 0.734925 35.8468 3.94269L38.2507 8.71988L39.8431 11.8894" stroke="#027FFF" stroke-width="3.0623" stroke-miterlimit="10" stroke-linecap="round"/>
<path d="M16.3705 10.1132C18.9031 10.1132 20.9563 8.06011 20.9563 5.52745C20.9563 2.99478 18.9031 0.94165 16.3705 0.94165C13.8378 0.94165 11.7847 2.99478 11.7847 5.52745C11.7847 8.06011 13.8378 10.1132 16.3705 10.1132Z" fill="#027FFF"/>
</g>
<defs>
<clipPath id="clip0_4457_542">
<rect width="78.4179" height="58" fill="white" transform="translate(0.791016)"/>
</clipPath>
</defs>
</svg>
