<svg width="156" height="48" viewBox="0 0 156 48" fill="none" xmlns="http://www.w3.org/2000/svg">
<path d="M148.088 42.9572H121.499C112.325 42.9572 104.89 35.5553 104.89 26.4218V23.3371C104.89 14.2037 112.325 6.80176 121.499 6.80176H135.126C144.3 6.80176 151.734 14.2037 151.734 23.3371V39.3264C151.734 41.3309 150.101 42.9572 148.088 42.9572Z" fill="#7AD2F9"/>
<path d="M146.149 40.9059H119.56C110.386 40.9059 102.951 33.504 102.951 24.3706V21.2858C102.951 12.1524 110.386 4.75049 119.56 4.75049H133.187C142.361 4.75049 149.795 12.1524 149.795 21.2858V37.2751C149.799 39.2836 148.166 40.9059 146.149 40.9059Z" fill="url(#paint0_linear_492_12125)"/>
<path d="M115.071 13.1895H119.822V33.6363H115.071V13.1895Z" fill="white"/>
<path d="M124.695 13.1895H134.025C136.254 13.1895 138.225 13.6145 139.936 14.4608C141.648 15.3071 142.976 16.5004 143.928 18.037C144.876 19.5774 145.35 21.3674 145.35 23.4109C145.35 25.4544 144.876 27.2484 143.928 28.7849C142.98 30.3253 141.648 31.5148 139.936 32.3611C138.225 33.2073 136.254 33.6324 134.025 33.6324H124.695V13.1895ZM133.79 29.7521C135.843 29.7521 137.48 29.1827 138.702 28.0439C139.925 26.9052 140.536 25.3609 140.536 23.4148C140.536 21.4688 139.925 19.9245 138.702 18.7857C137.48 17.647 135.843 17.0776 133.79 17.0776H129.45V29.7521H133.79Z" fill="white"/>
<path d="M6.16535 14.3906C6.44738 14.3906 6.74507 14.4647 7.05452 14.6168C7.36788 14.765 7.60291 14.9639 7.7635 15.2018L15.0923 26.4333L13.5842 26.3748L21.0971 15.2018C21.481 14.6597 21.9706 14.3906 22.5738 14.3906C23.0556 14.3906 23.4904 14.5622 23.8704 14.9015C24.2542 15.2408 24.4423 15.6815 24.4423 16.2235V33.6129C24.4423 34.1355 24.2699 34.5684 23.9291 34.9194C23.5883 35.2704 23.134 35.4459 22.5699 35.4459C22.0059 35.4459 21.5476 35.2704 21.199 34.9194C20.8464 34.5684 20.6702 34.1355 20.6702 33.6129V19.4643L21.8453 19.7334L15.6994 29.0774C15.5192 29.2997 15.2921 29.4869 15.0218 29.6468C14.7515 29.8067 14.4734 29.8769 14.1914 29.8574C13.9289 29.8769 13.6626 29.8067 13.3923 29.6468C13.122 29.4869 12.8948 29.2958 12.7146 29.0774L6.94876 20.0064L7.73217 18.4153V33.6129C7.73217 34.1355 7.57157 34.5684 7.25037 34.9194C6.92917 35.2704 6.50613 35.4459 5.98517 35.4459C5.48379 35.4459 5.06858 35.2704 4.74738 34.9194C4.42619 34.5684 4.26559 34.1316 4.26559 33.6129V16.2196C4.26559 15.7205 4.44969 15.2876 4.82181 14.9288C5.19393 14.57 5.64439 14.3906 6.16535 14.3906Z" fill="#F91919"/>
<path d="M30.2395 17.4248C29.554 17.4248 29.0722 17.3156 28.7902 17.0933C28.5081 16.8749 28.3671 16.481 28.3671 15.9234V15.354C28.3671 14.7729 28.5238 14.379 28.8333 14.1684C29.1466 13.9578 29.6206 13.8525 30.2669 13.8525C30.972 13.8525 31.4616 13.9617 31.7436 14.184C32.0257 14.4063 32.1667 14.7963 32.1667 15.354V15.9234C32.1667 16.5044 32.0139 16.8983 31.7123 17.1089C31.4146 17.3195 30.921 17.4248 30.2395 17.4248ZM32.0805 33.613C32.0805 34.1356 31.9081 34.5685 31.5674 34.9195C31.2266 35.2705 30.7918 35.4459 30.2708 35.4459C29.7459 35.4459 29.3151 35.2705 28.9743 34.9195C28.6335 34.5685 28.4611 34.1356 28.4611 33.613V21.2076C28.4611 20.689 28.6335 20.2522 28.9743 19.9012C29.3151 19.5502 29.7498 19.3747 30.2708 19.3747C30.7918 19.3747 31.2266 19.5502 31.5674 19.9012C31.9081 20.2522 32.0805 20.689 32.0805 21.2076V33.613Z" fill="#F91919"/>
<path d="M42.3352 19.0747C43.1813 19.0747 43.953 19.2034 44.658 19.4647C45.3631 19.726 45.9703 20.0575 46.4834 20.4553C46.9965 20.8569 47.4 21.2625 47.6898 21.672C47.9797 22.0815 48.1285 22.4286 48.1285 22.7094L47.3451 23.0993V20.9076C47.3451 20.389 47.5175 19.9522 47.8583 19.6012C48.1991 19.2502 48.6338 19.0747 49.1548 19.0747C49.6758 19.0747 50.1106 19.2463 50.4514 19.5856C50.7921 19.9249 50.9645 20.3656 50.9645 20.9076V34.2724C50.9645 36.0156 50.5884 37.4118 49.8325 38.4608C49.0765 39.5138 48.0894 40.2742 46.8594 40.7422C45.6334 41.2141 44.3133 41.4481 42.9071 41.4481C42.5037 41.4481 41.9827 41.3974 41.3403 41.296C40.6979 41.1946 40.0829 41.0737 39.4993 40.9372C38.9157 40.7968 38.473 40.6681 38.1714 40.5472C37.5682 40.2859 37.1491 39.9622 36.918 39.5723C36.6869 39.1823 36.6399 38.765 36.7809 38.3243C36.9611 37.7432 37.2548 37.3494 37.6544 37.1388C38.0578 36.9282 38.477 36.9048 38.9196 37.0647C39.1194 37.1232 39.4523 37.2441 39.9145 37.4234C40.3767 37.6028 40.8859 37.7705 41.4382 37.9187C41.9905 38.0708 42.4802 38.1449 42.9032 38.1449C44.4113 38.1449 45.5276 37.8446 46.2523 37.2441C46.9769 36.6435 47.3373 35.8128 47.3373 34.7521V32.1392L47.6977 32.4083C47.6977 32.6695 47.5606 32.9854 47.2903 33.3559C47.02 33.7264 46.6479 34.093 46.1739 34.4518C45.7 34.8106 45.1438 35.1186 44.5014 35.3682C43.859 35.6178 43.1735 35.7426 42.4488 35.7426C41.0191 35.7426 39.7343 35.3877 38.5866 34.678C37.4389 33.9682 36.5341 32.9854 35.8721 31.7336C35.2101 30.4817 34.8772 29.0466 34.8772 27.4243C34.8772 25.7824 35.2101 24.3356 35.8721 23.0837C36.5341 21.8319 37.4311 20.853 38.5553 20.1394C39.6912 19.4296 40.9486 19.0747 42.3352 19.0747ZM42.9071 22.3779C42.0023 22.3779 41.2071 22.6002 40.5256 23.0369C39.8401 23.4776 39.3074 24.0782 38.9274 24.8387C38.5435 25.5991 38.3555 26.461 38.3555 27.4204C38.3555 28.3602 38.5475 29.2143 38.9274 29.9748C39.3074 30.7352 39.844 31.3358 40.5256 31.7765C41.2071 32.2172 42.0023 32.4356 42.9071 32.4356C43.8316 32.4356 44.6385 32.2172 45.32 31.7765C46.0055 31.3358 46.5382 30.7352 46.9182 29.9748C47.2981 29.2143 47.4901 28.3641 47.4901 27.4204C47.4901 26.461 47.2981 25.5991 46.9182 24.8387C46.5343 24.0782 46.0016 23.4776 45.32 23.0369C44.6385 22.6002 43.8355 22.3779 42.9071 22.3779Z" fill="#F91919"/>
<path d="M63.362 19.0748C64.8113 19.0748 65.912 19.3868 66.6641 20.0069C67.4201 20.627 67.9371 21.4537 68.2192 22.4833C68.5012 23.5168 68.6422 24.6594 68.6422 25.923V33.6134C68.6422 34.136 68.4699 34.5689 68.1291 34.9199C67.7883 35.2709 67.3535 35.4464 66.8325 35.4464C66.3077 35.4464 65.8768 35.2709 65.536 34.9199C65.1952 34.5689 65.0229 34.136 65.0229 33.6134V25.923C65.0229 25.2639 64.9406 24.6672 64.78 24.1368C64.6194 23.6065 64.3256 23.1814 63.9065 22.8616C63.4835 22.5418 62.8802 22.3819 62.0968 22.3819C61.333 22.3819 60.6789 22.5418 60.1344 22.8616C59.5899 23.1814 59.1826 23.6065 58.9123 24.1368C58.642 24.6672 58.5049 25.2639 58.5049 25.923V33.6134C58.5049 34.136 58.3326 34.5689 57.9918 34.9199C57.651 35.2709 57.2162 35.4464 56.6952 35.4464C56.1704 35.4464 55.7395 35.2709 55.3987 34.9199C55.0579 34.5689 54.8856 34.136 54.8856 33.6134V15.0502C54.8856 14.5315 55.0579 14.0947 55.3987 13.7438C55.7395 13.3928 56.1743 13.2173 56.6952 13.2173C57.2162 13.2173 57.651 13.3928 57.9918 13.7438C58.3326 14.0947 58.5049 14.5315 58.5049 15.0502V22.4989L58.0505 22.4092C58.2307 22.0699 58.4814 21.7033 58.8065 21.3134C59.1277 20.9234 59.5194 20.5568 59.9816 20.2175C60.4438 19.8782 60.957 19.6013 61.521 19.3907C62.0851 19.1801 62.7001 19.0748 63.362 19.0748Z" fill="#F91919"/>
<path d="M72.7433 19.6755H79.8919C80.3737 19.6755 80.7772 19.8354 81.0983 20.1552C81.4195 20.4749 81.5801 20.8766 81.5801 21.3563C81.5801 21.8165 81.4195 22.2026 81.0983 22.5107C80.7772 22.8226 80.3737 22.9747 79.8919 22.9747H72.7433C72.2615 22.9747 71.8581 22.8148 71.5369 22.4951C71.2157 22.1753 71.0551 21.7736 71.0551 21.2939C71.0551 20.8337 71.2157 20.4476 71.5369 20.1396C71.8581 19.8315 72.2615 19.6755 72.7433 19.6755ZM75.9709 15.9238C76.4919 15.9238 76.9228 16.0993 77.2518 16.4503C77.5848 16.8013 77.7493 17.2381 77.7493 17.7568V31.1215C77.7493 31.4023 77.8041 31.6324 77.9138 31.8118C78.0235 31.9912 78.1762 32.1238 78.3682 32.2018C78.5601 32.2837 78.7638 32.3226 78.9871 32.3226C79.2299 32.3226 79.4493 32.2759 79.649 32.1862C79.8488 32.0965 80.0799 32.0497 80.3424 32.0497C80.6244 32.0497 80.879 32.1784 81.1101 32.4396C81.3412 32.7009 81.4587 33.0597 81.4587 33.5199C81.4587 34.0815 81.1532 34.5417 80.5382 34.9004C79.9232 35.2592 79.2652 35.4425 78.564 35.4425C78.141 35.4425 77.6749 35.4074 77.1617 35.3372C76.6486 35.267 76.1668 35.0954 75.7124 34.8263C75.258 34.5573 74.882 34.14 74.5804 33.5784C74.2788 33.0168 74.126 32.2486 74.126 31.2658V17.7529C74.126 17.2342 74.3023 16.7974 74.6548 16.4464C75.0113 16.0954 75.45 15.9238 75.9709 15.9238Z" fill="#F91919"/>
<path d="M96.8762 19.375C97.3972 19.375 97.832 19.5505 98.1728 19.9015C98.5135 20.2525 98.6859 20.6892 98.6859 21.2079V33.9721C98.6859 35.8128 98.3373 37.2792 97.644 38.3711C96.9506 39.4631 96.0184 40.2469 94.855 40.7305C93.6877 41.2102 92.3794 41.452 90.9341 41.452C90.2917 41.452 89.6062 41.4013 88.8815 41.2999C88.1569 41.1985 87.5654 41.0503 87.1032 40.8475C86.5 40.5862 86.0808 40.2625 85.8497 39.8726C85.6186 39.4826 85.5716 39.0653 85.7126 38.6246C85.8928 38.0435 86.1866 37.6496 86.5861 37.4391C86.9896 37.2285 87.4087 37.2051 87.8513 37.365C88.1725 37.4664 88.5956 37.6223 89.1166 37.829C89.6375 38.0396 90.2447 38.1449 90.9262 38.1449C91.8507 38.1449 92.6223 38.0201 93.2334 37.7705C93.8483 37.5209 94.3106 37.0998 94.62 36.5109C94.9294 35.9181 95.0861 35.1147 95.0861 34.093V32.0807L95.7207 32.8021C95.3799 33.4612 94.9529 34.0072 94.4398 34.4401C93.9267 34.8691 93.3195 35.1966 92.6145 35.415C91.9094 35.6334 91.1064 35.7465 90.2016 35.7465C89.1361 35.7465 88.2039 35.5008 87.4126 35.0095C86.6175 34.5181 85.9986 33.8395 85.556 32.9659C85.1133 32.0963 84.894 31.0979 84.894 29.9787V21.2079C84.894 20.6892 85.0663 20.2525 85.4071 19.9015C85.7479 19.5505 86.1827 19.375 86.7037 19.375C87.2246 19.375 87.6594 19.5505 88.0002 19.9015C88.341 20.2525 88.5133 20.6892 88.5133 21.2079V28.8984C88.5133 30.201 88.7993 31.1174 89.3712 31.6478C89.9431 32.1782 90.7421 32.4434 91.7684 32.4434C92.4735 32.4434 93.0649 32.3069 93.5467 32.0378C94.0285 31.7687 94.4006 31.367 94.6631 30.8366C94.9255 30.3062 95.0548 29.6589 95.0548 28.8984V21.2079C95.0548 20.6892 95.2271 20.2525 95.5679 19.9015C95.9244 19.5505 96.3552 19.375 96.8762 19.375Z" fill="#F91919"/>
<defs>
<linearGradient id="paint0_linear_492_12125" x1="103.199" y1="6.55806" x2="152.494" y2="41.4709" gradientUnits="userSpaceOnUse">
<stop stop-color="#3ABFF8"/>
<stop offset="1" stop-color="#2D93F1"/>
</linearGradient>
</defs>
</svg>
