<svg width="660" height="512" viewBox="0 0 660 512" fill="none" xmlns="http://www.w3.org/2000/svg">
<g clip-path="url(#clip0_1654_56486)">
<g filter="url(#filter0_d_1654_56486)">
<path d="M126.347 512H542.852C598.333 457.805 632.793 382.152 632.793 298.434C632.794 133.613 499.287 0 334.599 0C169.912 0 36.4061 133.613 36.4061 298.434C36.4061 382.153 70.8662 457.805 126.347 512Z" fill="#E0EFFF"/>
</g>
<path d="M483.186 430.555H477.188C476.788 430.553 476.463 430.228 476.463 429.827C476.463 429.426 476.788 429.101 477.188 429.101H483.186C483.587 429.102 483.912 429.428 483.912 429.829C483.912 430.229 483.587 430.555 483.186 430.555ZM471.36 430.553H465.532C465.132 430.553 464.807 430.228 464.807 429.827C464.807 429.426 465.132 429.101 465.532 429.101H471.36C471.761 429.101 472.086 429.426 472.086 429.827C472.086 430.228 471.761 430.553 471.36 430.553ZM459.706 430.553H453.876C453.476 430.553 453.151 430.228 453.151 429.827C453.151 429.426 453.476 429.101 453.876 429.101H459.706C460.106 429.101 460.431 429.426 460.431 429.827C460.431 430.228 460.106 430.553 459.706 430.553ZM448.048 430.553H442.22C441.82 430.553 441.495 430.228 441.495 429.827C441.495 429.426 441.82 429.101 442.22 429.101H448.048C448.449 429.101 448.774 429.426 448.774 429.827C448.774 430.228 448.449 430.553 448.048 430.553ZM436.394 430.553H430.564C430.164 430.553 429.839 430.228 429.839 429.827C429.839 429.426 430.164 429.101 430.564 429.101H436.394C436.794 429.101 437.119 429.426 437.119 429.827C437.119 430.228 436.794 430.553 436.394 430.553ZM424.738 430.553H418.91C418.509 430.553 418.184 430.228 418.184 429.827C418.184 429.426 418.509 429.101 418.91 429.101H424.738C425.138 429.101 425.463 429.426 425.463 429.827C425.463 430.228 425.138 430.553 424.738 430.553ZM413.082 430.553H407.254C406.853 430.553 406.528 430.228 406.528 429.827C406.528 429.426 406.853 429.101 407.254 429.101H413.082C413.482 429.101 413.807 429.426 413.807 429.827C413.807 430.228 413.482 430.553 413.082 430.553ZM401.426 430.553H395.596C395.196 430.553 394.871 430.228 394.871 429.827C394.871 429.426 395.196 429.101 395.596 429.101H401.426C401.826 429.101 402.151 429.426 402.151 429.827C402.151 430.228 401.826 430.553 401.426 430.553ZM389.77 430.553H383.942C383.541 430.553 383.216 430.228 383.216 429.827C383.216 429.426 383.541 429.101 383.942 429.101H389.77C390.17 429.101 390.495 429.426 390.495 429.827C390.495 430.228 390.17 430.553 389.77 430.553ZM378.114 430.553H372.286C371.885 430.553 371.56 430.228 371.56 429.827C371.56 429.426 371.885 429.101 372.286 429.101H378.114C378.514 429.101 378.839 429.426 378.839 429.827C378.839 430.228 378.514 430.553 378.114 430.553ZM366.459 430.553H360.631C360.231 430.553 359.906 430.228 359.906 429.827C359.906 429.426 360.231 429.101 360.631 429.101H366.459C366.86 429.101 367.185 429.426 367.185 429.827C367.185 430.228 366.86 430.553 366.459 430.553ZM354.802 430.553H348.974C348.573 430.553 348.248 430.228 348.248 429.827C348.248 429.426 348.573 429.101 348.974 429.101H354.802C355.202 429.101 355.527 429.426 355.527 429.827C355.527 430.228 355.202 430.553 354.802 430.553ZM343.147 430.553H337.318C336.917 430.553 336.592 430.228 336.592 429.827C336.592 429.426 336.917 429.101 337.318 429.101H343.147C343.548 429.101 343.873 429.426 343.873 429.827C343.873 430.228 343.548 430.553 343.147 430.553ZM331.491 430.553H325.663C325.263 430.553 324.937 430.228 324.937 429.827C324.937 429.426 325.263 429.101 325.663 429.101H331.491C331.892 429.101 332.217 429.426 332.217 429.827C332.217 430.228 331.892 430.553 331.491 430.553ZM319.835 430.553H314.007C313.607 430.553 313.281 430.228 313.281 429.827C313.281 429.426 313.607 429.101 314.007 429.101H319.835C320.236 429.101 320.561 429.426 320.561 429.827C320.561 430.228 320.236 430.553 319.835 430.553ZM308.179 430.553H302.351C301.95 430.553 301.625 430.228 301.625 429.827C301.625 429.426 301.95 429.101 302.351 429.101H308.179C308.58 429.101 308.905 429.426 308.905 429.827C308.905 430.228 308.58 430.553 308.179 430.553ZM296.523 430.553H290.695C290.294 430.553 289.969 430.228 289.969 429.827C289.969 429.426 290.294 429.101 290.695 429.101H296.523C296.924 429.101 297.249 429.426 297.249 429.827C297.249 430.228 296.924 430.553 296.523 430.553ZM284.867 430.553H279.039C278.638 430.553 278.313 430.228 278.313 429.827C278.313 429.426 278.638 429.101 279.039 429.101H284.867C285.268 429.101 285.593 429.426 285.593 429.827C285.593 430.228 285.268 430.553 284.867 430.553ZM273.212 430.553H267.384C266.984 430.553 266.659 430.228 266.659 429.827C266.659 429.426 266.984 429.101 267.384 429.101H273.212C273.613 429.101 273.938 429.426 273.938 429.827C273.938 430.228 273.613 430.553 273.212 430.553ZM261.556 430.553H255.728C255.328 430.553 255.003 430.228 255.003 429.827C255.003 429.426 255.328 429.101 255.728 429.101H261.556C261.957 429.101 262.282 429.426 262.282 429.827C262.282 430.228 261.957 430.553 261.556 430.553ZM249.9 430.553H244.072C243.672 430.553 243.347 430.228 243.347 429.827C243.347 429.426 243.672 429.101 244.072 429.101H249.9C250.301 429.101 250.626 429.426 250.626 429.827C250.626 430.228 250.301 430.553 249.9 430.553ZM238.244 430.553H232.416C232.016 430.553 231.691 430.228 231.691 429.827C231.691 429.426 232.016 429.101 232.416 429.101H238.244C238.645 429.101 238.97 429.426 238.97 429.827C238.97 430.228 238.645 430.553 238.244 430.553ZM226.588 430.552H226.581C224.609 430.531 222.622 430.373 220.678 430.078C220.282 430.019 220.009 429.648 220.068 429.252C220.128 428.857 220.496 428.581 220.894 428.643C222.772 428.927 224.69 429.081 226.594 429.099C226.995 429.104 227.317 429.432 227.313 429.833C227.308 430.231 226.985 430.552 226.587 430.552H226.588ZM488.988 430.123C488.634 430.123 488.323 429.862 488.271 429.502C488.215 429.105 488.489 428.736 488.885 428.678C490.767 428.405 492.646 427.993 494.472 427.453C494.852 427.341 495.259 427.557 495.373 427.943C495.486 428.328 495.267 428.732 494.883 428.845C492.99 429.406 491.043 429.833 489.095 430.116C489.061 430.12 489.024 430.123 488.989 430.123H488.988ZM215.109 428.802C215.04 428.802 214.969 428.792 214.899 428.77C213.005 428.198 211.142 427.483 209.361 426.651C208.997 426.481 208.842 426.048 209.01 425.685C209.181 425.322 209.612 425.164 209.975 425.335C211.693 426.14 213.491 426.827 215.32 427.38C215.703 427.496 215.921 427.901 215.805 428.285C215.71 428.598 215.421 428.802 215.111 428.802H215.109ZM500.127 426.827C499.852 426.827 499.59 426.67 499.469 426.404C499.302 426.039 499.46 425.608 499.824 425.441C501.552 424.645 503.239 423.72 504.837 422.692C505.17 422.471 505.622 422.571 505.838 422.908C506.055 423.244 505.958 423.694 505.622 423.91C503.967 424.976 502.221 425.935 500.431 426.758C500.332 426.803 500.229 426.825 500.127 426.825V426.827ZM204.577 423.89C204.44 423.89 204.302 423.852 204.18 423.772C202.535 422.696 200.947 421.491 199.461 420.186C199.159 419.922 199.13 419.463 199.394 419.162C199.659 418.859 200.117 418.831 200.419 419.094C201.853 420.352 203.385 421.517 204.976 422.555C205.311 422.774 205.405 423.225 205.186 423.56C205.047 423.774 204.815 423.89 204.578 423.89H204.577ZM509.888 420.538C509.685 420.538 509.483 420.452 509.34 420.287C509.077 419.983 509.11 419.526 509.414 419.263C510.849 418.019 512.211 416.659 513.462 415.221C513.725 414.92 514.182 414.885 514.486 415.15C514.787 415.412 514.821 415.871 514.557 416.173C513.262 417.662 511.852 419.071 510.363 420.361C510.225 420.48 510.056 420.538 509.888 420.538ZM195.843 416.227C195.639 416.227 195.437 416.142 195.293 415.974C194.008 414.477 192.818 412.877 191.76 411.219C191.545 410.881 191.642 410.432 191.98 410.217C192.318 410 192.767 410.1 192.982 410.437C194.003 412.037 195.151 413.583 196.392 415.028C196.653 415.333 196.618 415.79 196.315 416.051C196.177 416.169 196.01 416.227 195.842 416.227H195.843ZM517.513 411.767C517.376 411.767 517.24 411.731 517.118 411.651C516.781 411.433 516.686 410.983 516.902 410.647C517.939 409.041 518.87 407.355 519.662 405.632C519.832 405.268 520.261 405.109 520.626 405.278C520.988 405.446 521.147 405.878 520.98 406.242C520.157 408.026 519.195 409.774 518.119 411.436C517.98 411.651 517.746 411.767 517.51 411.767H517.513ZM189.594 406.434C189.319 406.434 189.055 406.276 188.933 406.008C188.117 404.21 187.424 402.34 186.874 400.447C186.762 400.062 186.982 399.66 187.367 399.547C187.754 399.441 188.155 399.656 188.267 400.042C188.798 401.866 189.467 403.672 190.255 405.407C190.42 405.773 190.259 406.203 189.893 406.369C189.796 406.412 189.695 406.434 189.594 406.434ZM522.38 401.208C522.312 401.208 522.242 401.198 522.172 401.179C521.788 401.065 521.57 400.661 521.683 400.276C522.228 398.453 522.644 396.574 522.924 394.689C522.982 394.292 523.362 394.015 523.747 394.077C524.145 394.135 524.418 394.504 524.358 394.901C524.069 396.854 523.638 398.8 523.075 400.688C522.981 401.004 522.692 401.207 522.38 401.207V401.208ZM186.344 395.277C185.988 395.277 185.678 395.016 185.625 394.652C185.35 392.706 185.209 390.718 185.209 388.74C185.209 388.339 185.534 388.014 185.935 388.014C186.335 388.014 186.66 388.339 186.66 388.74C186.66 390.648 186.797 392.571 187.062 394.449C187.119 394.846 186.843 395.213 186.445 395.27C186.411 395.274 186.377 395.277 186.342 395.277H186.344ZM524.085 389.712H524.074C523.673 389.704 523.352 389.375 523.36 388.974V383.153C523.36 382.752 523.686 382.426 524.087 382.426C524.487 382.426 524.812 382.752 524.812 383.153V388.996C524.803 389.393 524.48 389.71 524.085 389.71V389.712ZM185.935 383.633C185.534 383.633 185.209 383.308 185.209 382.907V377.075C185.209 376.674 185.534 376.348 185.935 376.348C186.335 376.348 186.66 376.674 186.66 377.075V382.907C186.66 383.308 186.335 383.633 185.935 383.633ZM524.087 378.048C523.686 378.048 523.361 377.722 523.361 377.321V371.487C523.361 371.086 523.686 370.761 524.087 370.761C524.487 370.761 524.812 371.086 524.812 371.487V377.321C524.812 377.722 524.487 378.048 524.087 378.048ZM185.935 371.969C185.534 371.969 185.209 371.644 185.209 371.243V365.409C185.209 365.008 185.534 364.683 185.935 364.683C186.335 364.683 186.66 365.008 186.66 365.409V371.243C186.66 371.644 186.335 371.969 185.935 371.969ZM524.087 366.382C523.686 366.382 523.361 366.057 523.361 365.656V359.823C523.361 359.423 523.686 359.097 524.087 359.097C524.487 359.097 524.812 359.423 524.812 359.823V365.656C524.812 366.057 524.487 366.382 524.087 366.382ZM185.935 360.303C185.534 360.303 185.209 359.977 185.209 359.577V353.744C185.209 353.343 185.534 353.018 185.935 353.018C186.335 353.018 186.66 353.343 186.66 353.744V359.577C186.66 359.977 186.335 360.303 185.935 360.303ZM524.087 354.717C523.686 354.717 523.361 354.392 523.361 353.991V348.158C523.361 347.757 523.686 347.432 524.087 347.432C524.487 347.432 524.812 347.757 524.812 348.158V353.991C524.812 354.392 524.487 354.717 524.087 354.717ZM185.935 348.637C185.534 348.637 185.209 348.312 185.209 347.911V342.079C185.209 341.678 185.534 341.352 185.935 341.352C186.335 341.352 186.66 341.678 186.66 342.079V347.911C186.66 348.312 186.335 348.637 185.935 348.637ZM524.087 343.052C523.686 343.052 523.361 342.726 523.361 342.325V336.491C523.361 336.09 523.686 335.765 524.087 335.765C524.487 335.765 524.812 336.09 524.812 336.491V342.325C524.812 342.726 524.487 343.052 524.087 343.052ZM185.935 336.973C185.534 336.973 185.209 336.648 185.209 336.247V330.413C185.209 330.012 185.534 329.687 185.935 329.687C186.335 329.687 186.66 330.012 186.66 330.413V336.247C186.66 336.648 186.335 336.973 185.935 336.973ZM524.087 331.386C523.686 331.386 523.361 331.061 523.361 330.66V324.827C523.361 324.427 523.686 324.101 524.087 324.101C524.487 324.101 524.812 324.427 524.812 324.827V330.66C524.812 331.061 524.487 331.386 524.087 331.386ZM185.935 325.308C185.534 325.308 185.209 324.983 185.209 324.582V318.749C185.209 318.348 185.534 318.023 185.935 318.023C186.335 318.023 186.66 318.348 186.66 318.749V324.582C186.66 324.983 186.335 325.308 185.935 325.308ZM524.087 319.721C523.686 319.721 523.361 319.396 523.361 318.995V313.162C523.361 312.761 523.686 312.436 524.087 312.436C524.487 312.436 524.812 312.761 524.812 313.162V318.995C524.812 319.396 524.487 319.721 524.087 319.721ZM185.935 313.641C185.534 313.641 185.209 313.316 185.209 312.915V307.082C185.209 306.682 185.534 306.356 185.935 306.356C186.335 306.356 186.66 306.682 186.66 307.082V312.915C186.66 313.316 186.335 313.641 185.935 313.641ZM524.087 308.057C523.686 308.057 523.361 307.732 523.361 307.331V301.498C523.361 301.097 523.686 300.772 524.087 300.772C524.487 300.772 524.812 301.097 524.812 301.498V307.331C524.812 307.732 524.487 308.057 524.087 308.057ZM185.935 301.977C185.534 301.977 185.209 301.652 185.209 301.251V295.419C185.209 295.018 185.534 294.692 185.935 294.692C186.335 294.692 186.66 295.018 186.66 295.419V301.251C186.66 301.652 186.335 301.977 185.935 301.977ZM524.087 296.39C523.686 296.39 523.361 296.065 523.361 295.664V289.831C523.361 289.43 523.686 289.105 524.087 289.105C524.487 289.105 524.812 289.43 524.812 289.831V295.664C524.812 296.065 524.487 296.39 524.087 296.39ZM185.935 290.312C185.534 290.312 185.209 289.987 185.209 289.586V283.753C185.209 283.352 185.534 283.027 185.935 283.027C186.335 283.027 186.66 283.352 186.66 283.753V289.586C186.66 289.987 186.335 290.312 185.935 290.312ZM524.087 284.726C523.686 284.726 523.361 284.401 523.361 284V278.166C523.361 277.765 523.686 277.44 524.087 277.44C524.487 277.44 524.812 277.765 524.812 278.166V284C524.812 284.401 524.487 284.726 524.087 284.726ZM185.935 278.648C185.534 278.648 185.209 278.323 185.209 277.922V272.088C185.209 271.687 185.534 271.362 185.935 271.362C186.335 271.362 186.66 271.687 186.66 272.088V277.922C186.66 278.323 186.335 278.648 185.935 278.648ZM524.087 273.061C523.686 273.061 523.361 272.736 523.361 272.335V266.502C523.361 266.101 523.686 265.776 524.087 265.776C524.487 265.776 524.812 266.101 524.812 266.502V272.335C524.812 272.736 524.487 273.061 524.087 273.061ZM185.935 266.981C185.534 266.981 185.209 266.656 185.209 266.255V260.423C185.209 260.022 185.534 259.696 185.935 259.696C186.335 259.696 186.66 260.022 186.66 260.423V266.255C186.66 266.656 186.335 266.981 185.935 266.981ZM524.087 261.396C523.686 261.396 523.361 261.07 523.361 260.669V254.837C523.361 254.436 523.686 254.111 524.087 254.111C524.487 254.111 524.812 254.436 524.812 254.837V260.669C524.812 261.07 524.487 261.396 524.087 261.396ZM185.935 255.318C185.534 255.318 185.209 254.992 185.209 254.591V248.759C185.209 248.358 185.534 248.032 185.935 248.032C186.335 248.032 186.66 248.358 186.66 248.759V254.591C186.66 254.992 186.335 255.318 185.935 255.318ZM524.087 249.732C523.686 249.732 523.361 249.406 523.361 249.006V243.173C523.361 242.772 523.686 242.447 524.087 242.447C524.487 242.447 524.812 242.772 524.812 243.173V249.006C524.812 249.406 524.487 249.732 524.087 249.732ZM185.935 243.652C185.534 243.652 185.209 243.327 185.209 242.926V237.093C185.209 236.692 185.534 236.367 185.935 236.367C186.335 236.367 186.66 236.692 186.66 237.093V242.926C186.66 243.327 186.335 243.652 185.935 243.652ZM524.087 238.065C523.686 238.065 523.361 237.74 523.361 237.339V231.506C523.361 231.105 523.686 230.78 524.087 230.78C524.487 230.78 524.812 231.105 524.812 231.506V237.339C524.812 237.74 524.487 238.065 524.087 238.065ZM185.935 231.987C185.534 231.987 185.209 231.661 185.209 231.261V225.428C185.209 225.027 185.534 224.702 185.935 224.702C186.335 224.702 186.66 225.027 186.66 225.428V231.261C186.66 231.661 186.335 231.987 185.935 231.987ZM524.087 226.401C523.686 226.401 523.361 226.076 523.361 225.675V219.842C523.361 219.441 523.686 219.116 524.087 219.116C524.487 219.116 524.812 219.441 524.812 219.842V225.675C524.812 226.076 524.487 226.401 524.087 226.401ZM185.935 220.321C185.534 220.321 185.209 219.996 185.209 219.595V213.763C185.209 213.362 185.534 213.036 185.935 213.036C186.335 213.036 186.66 213.362 186.66 213.763V219.595C186.66 219.996 186.335 220.321 185.935 220.321ZM524.087 214.736C523.686 214.736 523.361 214.41 523.361 214.01V208.177C523.361 207.776 523.686 207.451 524.087 207.451C524.487 207.451 524.812 207.776 524.812 208.177V214.01C524.812 214.41 524.487 214.736 524.087 214.736ZM185.935 208.656C185.534 208.656 185.209 208.331 185.209 207.93V202.097C185.209 201.696 185.534 201.371 185.935 201.371C186.335 201.371 186.66 201.696 186.66 202.097V207.93C186.66 208.331 186.335 208.656 185.935 208.656ZM524.087 203.07C523.686 203.07 523.361 202.745 523.361 202.344V196.512C523.361 196.111 523.686 195.785 524.087 195.785C524.487 195.785 524.812 196.111 524.812 196.512V202.344C524.812 202.745 524.487 203.07 524.087 203.07ZM185.935 196.992C185.534 196.992 185.209 196.667 185.209 196.266V190.433C185.209 190.033 185.534 189.707 185.935 189.707C186.335 189.707 186.66 190.033 186.66 190.433V196.266C186.66 196.667 186.335 196.992 185.935 196.992ZM524.087 191.405C523.686 191.405 523.361 191.08 523.361 190.679V184.846C523.361 184.445 523.686 184.12 524.087 184.12C524.487 184.12 524.812 184.445 524.812 184.846V190.679C524.812 191.08 524.487 191.405 524.087 191.405ZM185.935 185.325C185.534 185.325 185.209 185 185.209 184.599V178.767C185.209 178.366 185.534 178.04 185.935 178.04C186.335 178.04 186.66 178.366 186.66 178.767V184.599C186.66 185 186.335 185.325 185.935 185.325ZM524.087 179.74C523.686 179.74 523.361 179.414 523.361 179.013V173.181C523.361 172.78 523.686 172.455 524.087 172.455C524.487 172.455 524.812 172.78 524.812 173.181V179.013C524.812 179.414 524.487 179.74 524.087 179.74ZM185.935 173.662C185.534 173.662 185.209 173.336 185.209 172.935V167.103C185.209 166.702 185.534 166.377 185.935 166.377C186.335 166.377 186.66 166.702 186.66 167.103V172.935C186.66 173.336 186.335 173.662 185.935 173.662ZM524.087 168.074C523.686 168.074 523.361 167.749 523.361 167.348V161.515C523.361 161.115 523.686 160.789 524.087 160.789C524.487 160.789 524.812 161.115 524.812 161.515V167.348C524.812 167.749 524.487 168.074 524.087 168.074ZM185.935 161.996C185.534 161.996 185.209 161.671 185.209 161.27V155.434C185.212 155.035 185.537 154.713 185.936 154.713H185.94C186.341 154.714 186.665 155.042 186.662 155.443V161.27C186.66 161.671 186.335 161.996 185.935 161.996ZM524.085 156.409C523.686 156.409 523.361 156.085 523.36 155.684C523.355 153.771 523.216 151.851 522.946 149.976C522.889 149.58 523.164 149.211 523.561 149.154C523.95 149.098 524.325 149.372 524.383 149.77C524.661 151.712 524.806 153.702 524.811 155.683C524.811 156.084 524.487 156.41 524.087 156.41L524.085 156.409ZM186.393 150.356C186.358 150.356 186.322 150.353 186.284 150.348C185.888 150.289 185.615 149.918 185.675 149.522C185.968 147.568 186.403 145.622 186.969 143.736C187.084 143.352 187.484 143.134 187.873 143.249C188.256 143.365 188.474 143.769 188.36 144.154C187.812 145.974 187.392 147.853 187.11 149.738C187.056 150.098 186.746 150.357 186.393 150.357V150.356ZM522.426 144.908C522.112 144.908 521.823 144.703 521.731 144.386C521.194 142.559 520.522 140.755 519.732 139.026C519.566 138.66 519.726 138.23 520.09 138.063C520.457 137.897 520.887 138.057 521.052 138.422C521.871 140.215 522.567 142.084 523.123 143.977C523.236 144.362 523.017 144.765 522.631 144.879C522.563 144.899 522.495 144.908 522.426 144.908ZM189.734 139.222C189.632 139.222 189.528 139.2 189.429 139.155C189.065 138.986 188.908 138.554 189.076 138.191C189.905 136.404 190.872 134.658 191.948 133.001C192.166 132.666 192.614 132.569 192.951 132.789C193.286 133.007 193.382 133.457 193.164 133.793C192.125 135.392 191.194 137.078 190.393 138.802C190.269 139.068 190.008 139.223 189.734 139.223V139.222ZM517.604 134.337C517.366 134.337 517.133 134.22 516.993 134.003C515.97 132.406 514.819 130.862 513.573 129.418C513.311 129.115 513.345 128.656 513.648 128.394C513.95 128.134 514.407 128.164 514.673 128.47C515.964 129.966 517.156 131.565 518.215 133.219C518.431 133.556 518.333 134.006 517.996 134.223C517.875 134.301 517.739 134.337 517.604 134.337ZM196.068 129.476C195.898 129.476 195.729 129.418 195.591 129.298C195.289 129.033 195.259 128.575 195.523 128.272C196.819 126.788 198.232 125.384 199.724 124.094C200.027 123.831 200.486 123.865 200.747 124.17C201.01 124.473 200.975 124.932 200.671 125.193C199.23 126.438 197.865 127.795 196.614 129.228C196.47 129.392 196.27 129.476 196.068 129.476ZM510.016 125.539C509.846 125.539 509.676 125.48 509.538 125.359C508.106 124.106 506.571 122.944 504.977 121.908C504.641 121.689 504.546 121.239 504.764 120.903C504.983 120.568 505.434 120.473 505.767 120.691C507.418 121.766 509.007 122.968 510.493 124.267C510.795 124.531 510.827 124.99 510.563 125.292C510.418 125.456 510.218 125.541 510.016 125.541V125.539ZM204.864 121.886C204.625 121.886 204.391 121.769 204.253 121.552C204.037 121.215 204.134 120.765 204.472 120.549C206.132 119.484 207.881 118.529 209.67 117.711C210.036 117.544 210.464 117.705 210.631 118.07C210.798 118.434 210.637 118.866 210.273 119.031C208.546 119.82 206.858 120.742 205.256 121.77C205.134 121.849 204.999 121.885 204.865 121.885L204.864 121.886ZM500.278 119.202C500.177 119.202 500.071 119.181 499.974 119.136C498.242 118.332 496.441 117.65 494.624 117.104C494.24 116.988 494.022 116.584 494.138 116.199C494.253 115.814 494.658 115.599 495.041 115.712C496.926 116.279 498.789 116.986 500.583 117.818C500.947 117.987 501.104 118.418 500.937 118.783C500.814 119.048 500.551 119.204 500.278 119.204V119.202ZM215.426 117.063C215.112 117.063 214.822 116.858 214.729 116.542C214.616 116.157 214.837 115.753 215.221 115.64C217.109 115.086 219.057 114.662 221.01 114.381C221.408 114.323 221.775 114.6 221.831 114.996C221.888 115.393 221.612 115.762 221.216 115.818C219.331 116.09 217.452 116.498 215.628 117.033C215.559 117.053 215.491 117.062 215.423 117.062L215.426 117.063ZM489.152 115.862C489.116 115.862 489.079 115.859 489.043 115.855C487.168 115.574 485.251 115.423 483.343 115.409C482.942 115.406 482.62 115.078 482.623 114.677C482.626 114.278 482.951 113.957 483.349 113.957H483.354C485.33 113.973 487.316 114.128 489.258 114.418C489.653 114.478 489.927 114.847 489.867 115.245C489.814 115.604 489.505 115.863 489.152 115.863V115.862ZM477.519 115.407H471.691C471.291 115.407 470.966 115.082 470.966 114.681C470.966 114.28 471.291 113.955 471.691 113.955H477.519C477.92 113.955 478.245 114.28 478.245 114.681C478.245 115.082 477.92 115.407 477.519 115.407ZM465.865 115.407H460.037C459.636 115.407 459.311 115.082 459.311 114.681C459.311 114.28 459.636 113.955 460.037 113.955H465.865C466.265 113.955 466.59 114.28 466.59 114.681C466.59 115.082 466.265 115.407 465.865 115.407ZM454.207 115.407H448.379C447.979 115.407 447.654 115.082 447.654 114.681C447.654 114.28 447.979 113.955 448.379 113.955H454.207C454.608 113.955 454.933 114.28 454.933 114.681C454.933 115.082 454.608 115.407 454.207 115.407ZM442.553 115.407H436.723C436.323 115.407 435.998 115.082 435.998 114.681C435.998 114.28 436.323 113.955 436.723 113.955H442.553C442.953 113.955 443.278 114.28 443.278 114.681C443.278 115.082 442.953 115.407 442.553 115.407ZM430.897 115.407H425.069C424.668 115.407 424.343 115.082 424.343 114.681C424.343 114.28 424.668 113.955 425.069 113.955H430.897C431.297 113.955 431.622 114.28 431.622 114.681C431.622 115.082 431.297 115.407 430.897 115.407ZM419.241 115.407H413.413C413.012 115.407 412.687 115.082 412.687 114.681C412.687 114.28 413.012 113.955 413.413 113.955H419.241C419.641 113.955 419.966 114.28 419.966 114.681C419.966 115.082 419.641 115.407 419.241 115.407ZM407.585 115.407H401.755C401.355 115.407 401.029 115.082 401.029 114.681C401.029 114.28 401.355 113.955 401.755 113.955H407.585C407.985 113.955 408.31 114.28 408.31 114.681C408.31 115.082 407.985 115.407 407.585 115.407ZM395.929 115.407H390.101C389.7 115.407 389.375 115.082 389.375 114.681C389.375 114.28 389.7 113.955 390.101 113.955H395.929C396.329 113.955 396.654 114.28 396.654 114.681C396.654 115.082 396.329 115.407 395.929 115.407ZM384.274 115.407H378.445C378.044 115.407 377.719 115.082 377.719 114.681C377.719 114.28 378.044 113.955 378.445 113.955H384.274C384.675 113.955 385 114.28 385 114.681C385 115.082 384.675 115.407 384.274 115.407ZM372.618 115.407H366.79C366.389 115.407 366.064 115.082 366.064 114.681C366.064 114.28 366.389 113.955 366.79 113.955H372.618C373.018 113.955 373.344 114.28 373.344 114.681C373.344 115.082 373.018 115.407 372.618 115.407ZM360.962 115.407H355.134C354.733 115.407 354.408 115.082 354.408 114.681C354.408 114.28 354.733 113.955 355.134 113.955H360.962C361.363 113.955 361.688 114.28 361.688 114.681C361.688 115.082 361.363 115.407 360.962 115.407ZM349.306 115.407H343.477C343.076 115.407 342.751 115.082 342.751 114.681C342.751 114.28 343.076 113.955 343.477 113.955H349.306C349.706 113.955 350.032 114.28 350.032 114.681C350.032 115.082 349.706 115.407 349.306 115.407ZM337.65 115.407H331.822C331.421 115.407 331.096 115.082 331.096 114.681C331.096 114.28 331.421 113.955 331.822 113.955H337.65C338.05 113.955 338.376 114.28 338.376 114.681C338.376 115.082 338.05 115.407 337.65 115.407ZM325.994 115.407H320.166C319.765 115.407 319.44 115.082 319.44 114.681C319.44 114.28 319.765 113.955 320.166 113.955H325.994C326.394 113.955 326.72 114.28 326.72 114.681C326.72 115.082 326.394 115.407 325.994 115.407ZM314.339 115.407H308.511C308.111 115.407 307.786 115.082 307.786 114.681C307.786 114.28 308.111 113.955 308.511 113.955H314.339C314.74 113.955 315.065 114.28 315.065 114.681C315.065 115.082 314.74 115.407 314.339 115.407ZM302.682 115.407H296.854C296.453 115.407 296.128 115.082 296.128 114.681C296.128 114.28 296.453 113.955 296.854 113.955H302.682C303.082 113.955 303.408 114.28 303.408 114.681C303.408 115.082 303.082 115.407 302.682 115.407ZM291.027 115.407H285.199C284.799 115.407 284.474 115.082 284.474 114.681C284.474 114.28 284.799 113.955 285.199 113.955H291.027C291.428 113.955 291.753 114.28 291.753 114.681C291.753 115.082 291.428 115.407 291.027 115.407ZM279.371 115.407H273.543C273.143 115.407 272.818 115.082 272.818 114.681C272.818 114.28 273.143 113.955 273.543 113.955H279.371C279.772 113.955 280.097 114.28 280.097 114.681C280.097 115.082 279.772 115.407 279.371 115.407ZM267.715 115.407H261.887C261.487 115.407 261.162 115.082 261.162 114.681C261.162 114.28 261.487 113.955 261.887 113.955H267.715C268.116 113.955 268.441 114.28 268.441 114.681C268.441 115.082 268.116 115.407 267.715 115.407ZM256.059 115.407H250.231C249.831 115.407 249.506 115.082 249.506 114.681C249.506 114.28 249.831 113.955 250.231 113.955H256.059C256.46 113.955 256.785 114.28 256.785 114.681C256.785 115.082 256.46 115.407 256.059 115.407ZM244.403 115.407H238.575C238.175 115.407 237.85 115.082 237.85 114.681C237.85 114.28 238.175 113.955 238.575 113.955H244.403C244.804 113.955 245.129 114.28 245.129 114.681C245.129 115.082 244.804 115.407 244.403 115.407ZM232.749 115.407H227.006C226.606 115.407 226.239 115.082 226.239 114.681C226.239 114.28 226.52 113.955 226.922 113.955H232.75C233.151 113.955 233.476 114.28 233.476 114.681C233.476 115.082 233.151 115.407 232.75 115.407H232.749Z" fill="#A0CFFF"/>
<path d="M519.81 171.508C540.933 171.508 558.056 154.371 558.056 133.231C558.056 112.091 540.933 94.9539 519.81 94.9539C498.687 94.9539 481.564 112.091 481.564 133.231C481.564 154.371 498.687 171.508 519.81 171.508Z" fill="white"/>
<path d="M273.874 87.8669C287.125 74.6056 287.125 53.1048 273.874 39.8436C260.624 26.5823 239.14 26.5823 225.889 39.8436C212.639 53.1048 212.639 74.6056 225.889 87.8669C239.14 101.128 260.624 101.128 273.874 87.8669Z" fill="white"/>
<path d="M196.875 309.379C198.312 303.286 194.541 297.181 188.453 295.743C182.365 294.305 176.264 298.078 174.828 304.172C173.391 310.265 177.161 316.37 183.249 317.808C189.338 319.246 195.438 315.473 196.875 309.379Z" fill="white"/>
<path d="M587.922 323.792C592.502 319.208 592.502 311.776 587.922 307.192C583.341 302.608 575.915 302.608 571.335 307.192C566.755 311.776 566.755 319.208 571.335 323.792C575.915 328.376 583.341 328.376 587.922 323.792Z" fill="#E0EFFF"/>
<path d="M545.425 136.464V126.855H539.6C539.009 124.691 538.092 122.663 536.875 120.848L540.79 116.929L534 110.134L529.797 114.34C528.191 113.445 526.448 112.773 524.612 112.336V106.024H515.011V112.356C513.345 112.761 511.753 113.355 510.274 114.139L505.418 109.28L498.628 116.074L503.067 120.517C501.737 122.418 500.73 124.554 500.103 126.852H494.196V136.461H499.789C500.214 138.51 500.952 140.443 501.938 142.219L497.775 146.385L504.565 153.179L508.44 149.301C510.412 150.627 512.634 151.599 515.009 152.175V157.29H524.61V152.196C527.154 151.589 529.513 150.518 531.589 149.061L535.248 152.723L542.038 145.927L537.963 141.849C538.85 140.176 539.516 138.368 539.912 136.459H545.424L545.425 136.464ZM508.393 132.268C508.393 125.936 513.523 120.801 519.851 120.801C526.178 120.801 531.308 125.936 531.308 132.268C531.308 138.6 526.178 143.734 519.851 143.734C513.523 143.734 508.393 138.6 508.393 132.268Z" fill="#E0EFFF"/>
<path d="M245.199 75.3237H254.652V83.6777C254.652 83.8404 254.52 83.9725 254.357 83.9725H245.492C245.329 83.9725 245.197 83.8404 245.197 83.6777V75.3237H245.199Z" fill="#C5BAE2"/>
<path d="M264.456 58.3239C264.456 49.7143 257.003 42.8461 248.2 43.8322C241.791 44.5497 236.488 49.5966 235.491 55.9725C234.46 62.5778 237.866 68.5064 243.178 71.2673V72.2694C243.178 74.6295 245.091 76.5437 247.449 76.5437H252.311C254.669 76.5437 256.582 74.6295 256.582 72.2694V71.2673C261.256 68.8375 264.453 63.959 264.453 58.3239H264.456Z" fill="#E0EFFF"/>
<path d="M249.568 73.9933C249.194 73.9933 248.892 73.6898 248.892 73.3151V61.5132C248.892 61.1385 249.195 60.835 249.568 60.835C249.943 60.835 250.244 61.1385 250.244 61.5132V73.3151C250.244 73.6898 249.941 73.9933 249.568 73.9933Z" fill="#F4EEFF"/>
<path d="M440.463 91.0354H420.799L410.969 73.9934L420.799 56.9514H440.463L450.293 73.9934L440.463 91.0354ZM421.638 89.583H439.624L448.619 73.9934L439.624 58.4038H421.638L412.643 73.9934L421.638 89.583Z" fill="white"/>
<path d="M575.241 208.244H560.557L553.214 195.517L560.557 182.788H575.241L582.584 195.517L575.241 208.244ZM561.395 206.791H574.403L580.908 195.517L574.403 184.24H561.395L554.89 195.517L561.395 206.791Z" fill="white"/>
<path d="M353.381 50.8645C348.453 50.8645 344.443 46.8517 344.443 41.9194C344.443 36.9872 348.453 32.9744 353.381 32.9744C358.309 32.9744 362.319 36.9872 362.319 41.9194C362.319 46.8517 358.309 50.8645 353.381 50.8645ZM353.381 34.4267C349.252 34.4267 345.894 37.7875 345.894 41.9194C345.894 46.0514 349.252 49.4122 353.381 49.4122C357.51 49.4122 360.868 46.0514 360.868 41.9194C360.868 37.7875 357.508 34.4267 353.381 34.4267Z" fill="#E1D7F7"/>
<path d="M174.53 95.4607C169.601 95.4607 165.592 91.4478 165.592 86.5156C165.592 81.5834 169.601 77.5706 174.53 77.5706C179.458 77.5706 183.468 81.5834 183.468 86.5156C183.468 91.4478 179.458 95.4607 174.53 95.4607ZM174.53 79.0229C170.401 79.0229 167.043 82.3851 167.043 86.5156C167.043 90.6461 170.401 94.0084 174.53 94.0084C178.658 94.0084 182.016 90.6461 182.016 86.5156C182.016 82.3851 178.657 79.0229 174.53 79.0229Z" fill="#E1D7F7"/>
<path d="M65.8713 217.168H30.7741C27.7788 217.168 25.351 219.598 25.351 222.596V234.917C25.351 237.915 27.7788 240.345 30.7741 240.345H57.3339L64.23 248.467C64.7582 249.09 65.7755 248.715 65.7755 247.897V240.345H65.8698C68.8651 240.345 71.2929 237.915 71.2929 234.917V222.596C71.2929 219.598 68.8651 217.168 65.8698 217.168H65.8713Z" fill="#E0EFFF"/>
<path d="M545.641 246.301H587.334C590.893 246.301 593.776 249.188 593.776 252.748V267.385C593.776 270.946 590.891 273.832 587.334 273.832H555.782L547.589 283.48C546.96 284.219 545.752 283.775 545.752 282.805V273.832H545.64C542.082 273.832 539.198 270.945 539.198 267.385V252.748C539.198 249.187 542.083 246.301 545.64 246.301H545.641Z" fill="white"/>
<path d="M574.08 418.78C574.08 418.78 579.977 418.433 579.802 411.491C579.628 404.549 582.75 397.781 590.554 398.301C598.357 398.822 599.919 392.921 599.051 387.714C598.185 382.508 604.947 376.434 610.844 379.211C616.74 381.988 620.555 378.689 620.555 373.31C620.555 367.93 628.011 363.938 632.52 365.326C632.52 365.326 627.664 370.186 629.92 378.17C632.175 386.153 629.92 395.178 622.289 397.955C614.659 400.732 611.537 401.021 613.446 409.641C615.354 418.26 611.018 424.508 603.302 425.897C595.584 427.285 603.561 437.064 597.493 444.063C591.424 451.062 579.284 452.758 579.284 452.758L556.221 421.21C556.221 421.21 563.33 417.045 574.082 418.78H574.08Z" fill="#419FFF"/>
<path d="M559.747 420.896C559.747 420.896 563.89 409.819 558.981 397.827C554.071 385.835 560.31 385.627 563.459 391.601C566.607 397.573 564.198 413.803 564.198 413.803C564.198 413.803 571.529 404.703 569.641 389.659C567.753 374.614 567.808 371.035 571.075 370.163C576.833 368.625 579.438 392.111 572.898 404.136C572.898 404.136 582.597 398.43 583.454 382.426C584.31 366.423 584.819 360.849 590.023 360.849C595.229 360.849 590.692 386.179 583.551 395.794C583.551 395.794 595.851 384.792 603.603 388.353C611.356 391.916 583.828 393.701 575.78 407.339C575.78 407.339 593.377 399.112 599.634 404.634C605.891 410.156 581.847 407.167 570.65 414.818C559.452 422.469 560.227 424.874 560.227 424.874L559.748 420.896H559.747Z" fill="#61AFFF"/>
<path d="M181.793 424.568C181.793 424.568 177.65 413.491 182.559 401.499C187.468 389.506 181.23 389.299 178.081 395.272C174.933 401.244 177.343 417.474 177.343 417.474C177.343 417.474 170.012 408.374 171.9 393.33C173.788 378.287 173.734 374.707 170.466 373.834C164.708 372.296 162.103 395.782 168.644 407.808C168.644 407.808 158.944 402.101 158.088 386.098C157.231 370.094 156.722 364.52 151.518 364.52C146.313 364.52 150.849 389.851 157.99 399.465C157.99 399.465 145.69 388.464 137.938 392.025C130.185 395.587 157.713 397.371 165.761 411.01C165.761 411.01 148.164 402.784 141.907 408.306C135.651 413.828 159.694 410.839 170.891 418.49C182.089 426.141 181.315 428.546 181.315 428.546L181.794 424.568H181.793Z" fill="#419FFF"/>
<path d="M25.7631 452.773H630.783C631.741 452.773 632.519 453.551 632.519 454.51V502.584H24.0275V454.51C24.0275 453.551 24.8053 452.773 25.7631 452.773Z" fill="#E0EFFF"/>
<path d="M580.229 430.494V452.773H88.97V430.494C88.97 421.169 96.5307 413.617 105.847 413.617H563.352C572.668 413.617 580.229 421.169 580.229 430.494Z" fill="#E0EFFF"/>
<path d="M580.229 440.297H88.97V452.758H580.229V440.297Z" fill="#C0DFFF"/>
<path d="M632.52 488.533H24.0275V502.584H632.52V488.533Z" fill="#A0CFFF"/>
<path d="M659.377 502.584H0V510.693H659.377V502.584Z" fill="#C0DFFF"/>
<path d="M485.244 413.611H205.025L223.679 356.284L227.056 345.921L230.392 335.67H461.022L464.152 345.756L467.419 356.256L485.244 413.611Z" fill="#218FFF"/>
<path d="M359.342 93.1775H328.663V118.377H359.342V93.1775Z" fill="#A0CFFF"/>
<path d="M467.419 356.256C462.649 363.196 457.287 369.708 451.414 375.724C434.526 393.026 413.446 406.201 389.816 413.611H301.239C269.407 403.622 242.206 383.174 223.677 356.284L227.054 345.921C254.048 381.96 297.075 405.278 345.533 405.278C387.03 405.278 424.542 388.183 451.411 360.644C455.973 355.967 460.234 351 464.149 345.757L467.417 356.258L467.419 356.256Z" fill="#419FFF"/>
<path d="M375.863 75.219H311.852C311.705 75.219 311.587 75.338 311.587 75.4848V97.5461C311.587 97.6929 311.705 97.8119 311.852 97.8119H375.863C376.01 97.8119 376.129 97.6929 376.129 97.5461V75.4848C376.129 75.338 376.01 75.219 375.863 75.219Z" fill="#C0DFFF"/>
<path d="M493.157 257.163C493.157 297.437 477.097 333.945 451.041 360.642C424.172 388.182 386.658 405.276 345.163 405.276C263.437 405.276 197.181 338.966 197.181 257.162C197.181 225.207 207.286 195.625 224.478 171.439L224.493 171.425C251.321 133.675 295.368 109.06 345.164 109.06C426.903 109.06 493.16 175.371 493.16 257.16L493.157 257.163Z" fill="#C0DFFF"/>
<path d="M344.907 108.767C306.538 108.767 271.591 123.391 245.296 147.368C269.759 129.466 299.914 118.899 332.539 118.899C414.277 118.899 480.535 185.209 480.535 266.999C480.535 307.273 464.474 343.781 438.418 370.478C436.411 372.534 445.06 366.217 450.787 360.346C476.843 333.649 492.903 297.141 492.903 256.867C492.903 175.076 426.646 108.767 344.907 108.767Z" fill="#E3F0FF"/>
<path d="M451.041 360.642C424.172 388.182 386.658 405.276 345.163 405.276C263.437 405.276 197.181 338.966 197.181 257.162C197.181 225.207 207.286 195.625 224.478 171.439L224.493 171.425L451.042 360.641L451.041 360.642Z" fill="#A0CFFF"/>
<path d="M458.472 257.163C458.472 288.772 445.555 317.348 424.71 337.919C404.266 358.104 376.169 370.563 345.164 370.563C282.589 370.563 231.869 319.789 231.869 257.163C231.869 232.48 239.755 209.632 253.156 191.005C273.71 162.404 307.266 143.778 345.166 143.778C407.756 143.778 458.475 194.538 458.475 257.163H458.472Z" fill="#E3F0FF"/>
<path d="M345.546 178.917C342.562 178.917 340.143 176.496 340.143 173.51V158.448C340.143 155.462 342.562 153.041 345.546 153.041C348.53 153.041 350.949 155.462 350.949 158.448V173.51C350.949 176.496 348.53 178.917 345.546 178.917Z" fill="#419FFF"/>
<path d="M424.709 337.919C404.264 358.104 376.168 370.563 345.163 370.563C282.587 370.563 231.868 319.789 231.868 257.163C231.868 232.48 239.754 209.632 253.154 191.005L424.71 337.919H424.709Z" fill="#E0EFFF"/>
<path d="M398.95 202.293C397.465 200.945 397.352 198.649 398.699 197.163L405.489 189.669C406.836 188.183 409.13 188.07 410.615 189.418C412.099 190.766 412.211 193.062 410.866 194.548L407.471 198.295L404.077 202.042C402.73 203.528 400.436 203.641 398.951 202.293H398.95Z" fill="#419FFF"/>
<path d="M271.216 328.584C269.731 327.237 269.619 324.941 270.965 323.455L277.755 315.961C279.101 314.475 281.396 314.363 282.88 315.709C284.365 317.056 284.478 319.353 283.131 320.839L279.737 324.586L276.343 328.333C274.996 329.819 272.702 329.932 271.217 328.584H271.216Z" fill="#419FFF"/>
<path d="M284.809 202.293C286.294 200.945 286.405 198.649 285.06 197.163L278.271 189.669C276.925 188.183 274.63 188.07 273.146 189.418C271.661 190.766 271.548 193.062 272.895 194.548L276.289 198.295L279.683 202.042C281.03 203.528 283.324 203.641 284.809 202.293Z" fill="#419FFF"/>
<path d="M412.545 328.584C414.029 327.237 414.143 324.941 412.796 323.455L406.007 315.961C404.66 314.475 402.366 314.363 400.882 315.709C399.397 317.056 399.284 319.353 400.63 320.839L404.025 324.586L407.419 328.333C408.766 329.819 411.06 329.932 412.545 328.584Z" fill="#419FFF"/>
<path d="M350.444 333.403H340.648C340.369 333.403 340.143 333.63 340.143 333.909V358.775C340.143 359.054 340.369 359.28 340.648 359.28H350.444C350.723 359.28 350.949 359.054 350.949 358.775V333.909C350.949 333.63 350.723 333.403 350.444 333.403Z" fill="#419FFF"/>
<path d="M447.231 261.061V251.258C447.231 250.979 447.005 250.752 446.726 250.752H421.88C421.601 250.752 421.375 250.979 421.375 251.258V261.061C421.375 261.34 421.601 261.567 421.88 261.567H446.726C447.005 261.567 447.231 261.34 447.231 261.061Z" fill="#419FFF"/>
<path d="M267.014 261.061V251.258C267.014 250.979 266.788 250.752 266.509 250.752H241.663C241.385 250.752 241.158 250.979 241.158 251.258V261.061C241.158 261.34 241.385 261.567 241.663 261.567H266.509C266.788 261.567 267.014 261.34 267.014 261.061Z" fill="#419FFF"/>
<path d="M381.337 299.425L380.096 285.667L375.449 290.716L351.088 268.582C352.101 267.033 352.693 265.186 352.693 263.199C352.693 258.421 349.293 254.44 344.783 253.542V205.75H351.045L342.371 195.515L333.101 205.75H339.959V253.785C335.936 255.022 333.012 258.768 333.012 263.199C333.012 268.638 337.418 273.048 342.853 273.048C344.545 273.048 346.137 272.619 347.527 271.867L372.181 294.265L367.938 298.875L381.337 299.424V299.425Z" fill="#419FFF"/>
<path d="M384.075 185.749C389.53 185.749 393.952 181.324 393.952 175.864C393.952 170.405 389.53 165.98 384.075 165.98C378.62 165.98 374.198 170.405 374.198 175.864C374.198 181.324 378.62 185.749 384.075 185.749Z" fill="#E0EFFF"/>
<path d="M318.22 77.9915H315.582C315.515 77.9915 315.461 78.0454 315.461 78.112V94.833C315.461 94.8996 315.515 94.9535 315.582 94.9535H318.22C318.286 94.9535 318.34 94.8996 318.34 94.833V78.112C318.34 78.0454 318.286 77.9915 318.22 77.9915Z" fill="#A0CFFF"/>
<path d="M329.057 77.9915H326.419C326.353 77.9915 326.299 78.0454 326.299 78.112V94.833C326.299 94.8996 326.353 94.9535 326.419 94.9535H329.057C329.124 94.9535 329.178 94.8996 329.178 94.833V78.112C329.178 78.0454 329.124 77.9915 329.057 77.9915Z" fill="#A0CFFF"/>
<path d="M339.894 77.9915H337.255C337.189 77.9915 337.135 78.0454 337.135 78.112V94.833C337.135 94.8996 337.189 94.9535 337.255 94.9535H339.894C339.96 94.9535 340.014 94.8996 340.014 94.833V78.112C340.014 78.0454 339.96 77.9915 339.894 77.9915Z" fill="#A0CFFF"/>
<path d="M350.73 77.9915H348.091C348.025 77.9915 347.971 78.0454 347.971 78.112V94.833C347.971 94.8996 348.025 94.9535 348.091 94.9535H350.73C350.796 94.9535 350.85 94.8996 350.85 94.833V78.112C350.85 78.0454 350.796 77.9915 350.73 77.9915Z" fill="#A0CFFF"/>
<path d="M361.567 77.9915H358.929C358.862 77.9915 358.808 78.0454 358.808 78.112V94.833C358.808 94.8996 358.862 94.9535 358.929 94.9535H361.567C361.634 94.9535 361.688 94.8996 361.688 94.833V78.112C361.688 78.0454 361.634 77.9915 361.567 77.9915Z" fill="#A0CFFF"/>
<path d="M372.403 77.9915H369.765C369.698 77.9915 369.645 78.0454 369.645 78.112V94.833C369.645 94.8996 369.698 94.9535 369.765 94.9535H372.403C372.47 94.9535 372.524 94.8996 372.524 94.833V78.112C372.524 78.0454 372.47 77.9915 372.403 77.9915Z" fill="#A0CFFF"/>
<path d="M230.392 137.762V252.858C230.392 254.928 229.427 256.777 227.923 257.964C226.821 258.847 225.414 259.371 223.898 259.371H94.0041C90.4197 259.371 87.5115 256.46 87.5115 252.858V137.762H230.392Z" fill="#61AFFF"/>
<path d="M230.392 135.913V153.256H87.5115V135.913C87.5115 135.79 87.5115 135.652 87.5245 135.527C87.7175 128.172 93.7415 122.267 101.145 122.267H216.757C224.161 122.267 230.184 128.172 230.377 135.527C230.392 135.652 230.392 135.79 230.392 135.913Z" fill="#61AFFF"/>
<path d="M227.923 257.964C226.821 258.847 225.414 259.371 223.898 259.371H94.0041C90.4197 259.371 87.5115 256.46 87.5115 252.859V153.256L227.925 257.964H227.923Z" fill="#C0DFFF"/>
<path d="M117.342 135.534C114.8 135.534 112.739 133.472 112.739 130.927V119.288C112.739 116.744 114.8 114.681 117.342 114.681C119.885 114.681 121.946 116.744 121.946 119.288V130.927C121.946 133.472 119.885 135.534 117.342 135.534Z" fill="#A0CFFF"/>
<path d="M158.588 135.534C156.046 135.534 153.985 133.472 153.985 130.927V119.288C153.985 116.744 156.046 114.681 158.588 114.681C161.131 114.681 163.191 116.744 163.191 119.288V130.927C163.191 133.472 161.131 135.534 158.588 135.534Z" fill="#A0CFFF"/>
<path d="M197.255 135.534C194.713 135.534 192.652 133.472 192.652 130.927V119.288C192.652 116.744 194.713 114.681 197.255 114.681C199.798 114.681 201.858 116.744 201.858 119.288V130.927C201.858 133.472 199.798 135.534 197.255 135.534Z" fill="#A0CFFF"/>
<path d="M126.319 189.884H108.367C106.062 189.884 104.189 188.008 104.189 185.703V167.736C104.189 165.429 106.062 163.554 108.367 163.554H126.319C128.622 163.554 130.497 165.429 130.497 167.736V185.703C130.497 188.009 128.624 189.884 126.319 189.884ZM108.367 165.007C106.863 165.007 105.64 166.231 105.64 167.736V185.703C105.64 187.208 106.863 188.432 108.367 188.432H126.319C127.823 188.432 129.046 187.208 129.046 185.703V167.736C129.046 166.231 127.823 165.007 126.319 165.007H108.367Z" fill="white"/>
<path d="M167.93 189.884H149.977C147.674 189.884 145.799 188.008 145.799 185.703V167.736C145.799 165.429 147.672 163.554 149.977 163.554H167.93C170.233 163.554 172.108 165.429 172.108 167.736V185.703C172.108 188.009 170.233 189.884 167.93 189.884ZM149.977 165.007C148.473 165.007 147.25 166.231 147.25 167.736V185.703C147.25 187.208 148.473 188.432 149.977 188.432H167.93C169.433 188.432 170.656 187.208 170.656 185.703V167.736C170.656 166.231 169.433 165.007 167.93 165.007H149.977Z" fill="white"/>
<path d="M209.541 189.884H191.588C189.285 189.884 187.41 188.008 187.41 185.703V167.736C187.41 165.429 189.284 163.554 191.588 163.554H209.541C211.844 163.554 213.719 165.429 213.719 167.736V185.703C213.719 188.009 211.846 189.884 209.541 189.884ZM191.588 165.007C190.085 165.007 188.862 166.231 188.862 167.736V185.703C188.862 187.208 190.085 188.432 191.588 188.432H209.541C211.045 188.432 212.268 187.208 212.268 185.703V167.736C212.268 166.231 211.045 165.007 209.541 165.007H191.588Z" fill="white"/>
<path d="M167.93 229.606H149.977C148.07 229.606 146.524 228.059 146.524 226.151V208.184C146.524 206.276 148.07 204.729 149.977 204.729H167.93C169.836 204.729 171.382 206.276 171.382 208.184V226.151C171.382 228.059 169.836 229.606 167.93 229.606Z" fill="#FFCA60"/>
<path d="M126.319 230.332H108.367C106.062 230.332 104.189 228.456 104.189 226.151V208.184C104.189 205.878 106.062 204.003 108.367 204.003H126.319C128.622 204.003 130.497 205.878 130.497 208.184V226.151C130.497 228.456 128.624 230.332 126.319 230.332ZM108.367 205.455C106.863 205.455 105.64 206.679 105.64 208.184V226.151C105.64 227.656 106.863 228.88 108.367 228.88H126.319C127.823 228.88 129.046 227.656 129.046 226.151V208.184C129.046 206.679 127.823 205.455 126.319 205.455H108.367Z" fill="white"/>
<path d="M209.541 230.332H191.588C189.285 230.332 187.41 228.456 187.41 226.151V208.184C187.41 205.878 189.284 204.003 191.588 204.003H209.541C211.844 204.003 213.719 205.878 213.719 208.184V226.151C213.719 228.456 211.846 230.332 209.541 230.332ZM191.588 205.455C190.085 205.455 188.862 206.679 188.862 208.184V226.151C188.862 227.656 190.085 228.88 191.588 228.88H209.541C211.045 228.88 212.268 227.656 212.268 226.151V208.184C212.268 206.679 211.045 205.455 209.541 205.455H191.588Z" fill="white"/>
<path d="M209.215 186.474C209.032 186.474 208.847 186.404 208.705 186.265L190.752 168.575C190.467 168.293 190.464 167.835 190.744 167.548C191.024 167.262 191.484 167.258 191.77 167.54L209.723 185.229C210.008 185.511 210.011 185.97 209.731 186.256C209.589 186.401 209.402 186.473 209.213 186.473L209.215 186.474Z" fill="white"/>
<path d="M191.588 186.474C191.401 186.474 191.214 186.401 191.072 186.258C190.792 185.972 190.795 185.513 191.081 185.231L209.033 167.541C209.318 167.259 209.778 167.264 210.059 167.55C210.339 167.836 210.336 168.295 210.051 168.577L192.098 186.266C191.957 186.406 191.773 186.476 191.588 186.476V186.474Z" fill="white"/>
<path d="M154.342 226.555C154.19 226.555 154.037 226.507 153.907 226.408L147.922 221.894C147.601 221.652 147.537 221.197 147.778 220.878C148.021 220.558 148.475 220.493 148.794 220.734L154.223 224.828L167.959 208.046C168.211 207.737 168.67 207.69 168.98 207.944C169.289 208.199 169.336 208.656 169.082 208.967L154.905 226.289C154.761 226.463 154.554 226.555 154.343 226.555H154.342Z" fill="white"/>
<path d="M230.392 135.913V153.256H87.5115V135.913C87.5115 135.79 87.5115 135.652 87.5245 135.527H230.377C230.392 135.652 230.392 135.79 230.392 135.913Z" fill="#A0CFFF"/>
<path d="M57.8157 427.166L55.4691 444.051H67.6693L70.3671 427.166H57.8157Z" fill="#EFBAE0"/>
<path d="M55.768 441.905C55.768 441.905 53.5984 447.845 53.4998 452.773H80.3832C80.3832 452.773 79.2382 444.396 67.945 442.326C67.945 442.326 64.2372 443.285 55.768 441.905Z" fill="#419FFF"/>
<path d="M106.235 428.174L109.336 444.172H121.941L118.643 428.174H106.235Z" fill="#EFBAE0"/>
<path d="M108.584 440.291C108.584 440.291 106.284 447.056 106.677 452.773H139.273C139.273 452.773 138.092 447.649 132.97 444.987C127.849 442.326 121.469 441.886 121.469 441.886C121.469 441.886 120.14 444.759 108.584 440.29V440.291Z" fill="#419FFF"/>
<path d="M125.961 429.823H99.092L87.5391 352.103L76.4693 429.823H50.6482C50.6482 429.823 57.7199 351.122 62.146 334.028C65.3038 321.846 71.5208 315.057 74.8295 312.16C76.1675 310.986 77.0222 310.449 77.0222 310.449L107.959 315.72L125.964 429.823H125.961Z" fill="#0150A0"/>
<path d="M84.1752 313.071C84.1752 313.071 72.9676 318.81 68.8317 332.704C65.1776 344.956 57.582 413.735 55.8319 429.823H50.6482C50.6482 429.823 57.7199 351.122 62.146 334.028C65.3038 321.846 71.5208 315.057 74.8295 312.16L84.1766 313.071H84.1752Z" fill="#0160C0"/>
<path d="M107.541 269.89L135.056 280.938L130.923 292.366L106.471 284.193L107.541 269.89Z" fill="#EFBAE0"/>
<path d="M100.492 234.395C100.492 234.395 95.1418 230.693 86.5841 235.425C78.0279 240.155 78.5909 253.075 73.342 258.973C68.093 264.871 62.9209 273.686 71.3175 280.946C79.7127 288.206 98.394 288.411 107.567 278.705C116.74 268.999 114.369 248.236 110.657 240.479C106.944 232.722 100.492 234.395 100.492 234.395Z" fill="#0150A0"/>
<path d="M114.408 282.606L106.675 315.72L73.9327 313.554H73.85L71.589 279.778C72.1825 270.948 79.8057 264.27 88.6144 264.849L99.5057 265.567C103.89 265.857 107.735 267.885 110.424 270.933C113.154 274.024 114.713 278.163 114.409 282.606H114.408Z" fill="#419FFF"/>
<path d="M114.427 282.408L106.693 315.522L73.9515 313.357L110.443 270.737C113.173 273.828 114.73 277.967 114.427 282.41V282.408Z" fill="#0150A0"/>
<path d="M108.645 251.755C108.245 257.826 104.826 262.668 99.0223 263.44L98.8845 265.523L98.8017 266.669L94.7616 266.393L89.9364 266.075L90.2527 261.329C87.6333 259.521 85.7584 256.733 85.0966 253.547C84.8615 252.458 84.7788 251.339 84.8615 250.18C85.3172 243.269 91.286 238.039 98.1922 238.495C105.098 238.949 109.097 244.855 108.642 251.753L108.645 251.755Z" fill="#FAE8F5"/>
<path d="M99.0224 263.442L98.8845 265.525C97.8774 265.87 96.416 266.159 94.7616 266.395L89.9364 266.077L90.2528 261.33C87.6334 259.522 85.7584 256.735 85.0967 253.549L87.6334 252.984C87.6334 252.984 91.5908 260.309 99.0209 263.442H99.0224Z" fill="#EFBAE0"/>
<path d="M101.817 266.869L86.1343 265.83L86.4753 265.112C87.0413 263.921 88.5041 263.185 90.0931 263.291L98.2271 263.83C99.8176 263.934 101.17 264.858 101.574 266.113L101.817 266.869Z" fill="#013060"/>
<path d="M101.595 239.237C101.595 239.237 102.498 241.472 97.3245 247.922C92.1509 254.373 85.13 254.998 85.13 254.998C85.13 254.998 82.2857 247.373 87.5623 241.66C87.5623 241.66 94.1492 234.645 101.595 239.236V239.237Z" fill="#0150A0"/>
<path d="M174.53 244.137L146.64 357.412L114.864 349.011L139.816 234.976L164.066 215.88L174.53 244.137Z" fill="#C0DFFF"/>
<path d="M155.602 222.545L124.428 357.417L136.78 359.115L167.995 226.491L155.602 222.545Z" fill="#419FFF"/>
<path d="M132.454 311.511C132.233 312.173 131.516 312.519 130.854 312.283L126.388 310.697L126.402 311.069L130.441 312.684C131.06 312.932 131.378 313.637 131.158 314.27C130.937 314.932 130.206 315.278 129.545 315.043L126.443 313.939V314.311L129.296 315.457C129.917 315.705 130.233 316.409 130.026 317.044C129.792 317.706 129.061 318.051 128.399 317.817L126.482 317.14L126.496 317.554L128.191 318.244C128.688 318.437 128.991 318.906 128.991 319.417C128.991 319.541 128.963 319.679 128.921 319.817C128.688 320.493 127.969 320.838 127.309 320.602L126.537 320.326V320.367C126.537 320.367 118.776 323.003 117.067 321.899L89.8668 318.919C89.2456 318.851 88.639 318.726 88.06 318.56C85.413 317.83 83.1114 316.2 81.5528 314.007C80.7953 312.973 80.2163 311.8 79.8288 310.53L71.5846 283.364C70.4947 279.79 72.5351 276.009 76.1196 274.961C79.5517 273.967 83.1651 275.83 84.3362 279.197L93.5586 305.646L118.635 310.434V310.447L126.341 307.922L131.703 309.936C132.337 310.17 132.668 310.86 132.448 311.509L132.454 311.511Z" fill="#FAE8F5"/>
<path d="M174.53 244.137C154.278 250.18 139.816 234.976 139.816 234.976L155.6 222.545L164.065 215.882L167.993 226.491L174.528 244.137H174.53Z" fill="#E0EFFF"/>
<path d="M116.926 339.588L148.994 347.856L146.548 358.532C145.529 362.976 141.082 365.734 136.652 364.668L120.375 360.753C116.007 359.701 113.299 355.324 114.309 350.942L116.926 339.586V339.588Z" fill="#61AFFF"/>
<path d="M167.995 226.491C165.899 227.043 163.142 227.374 160.703 226.463C158.041 225.456 156.471 223.8 155.602 222.545L164.067 215.882L167.995 226.491Z" fill="#419FFF"/>
<path d="M87.5623 352.098L93.0463 341.342L106.261 429.827H99.1196L87.5623 352.098Z" fill="#0160C0"/>
<path d="M126.347 307.923L118.316 318.221L118.634 310.448L126.347 307.923Z" fill="#EFBAE0"/>
<path d="M88.2966 317.195C88.2966 317.679 88.2139 318.133 88.063 318.562C85.416 317.831 83.1144 316.202 81.5558 314.009C82.2727 313.416 83.1826 313.071 84.1752 313.071C86.4507 313.071 88.2966 314.919 88.2966 317.195Z" fill="#EFBAE0"/>
<path d="M64.9918 382.082L77.1035 383.116C77.1035 383.116 76.8075 387.699 71.9344 388.29C67.0598 388.881 64.4012 384.299 64.9918 382.081V382.082Z" fill="#0160C0"/>
<path d="M105.882 383.187L117.985 382.055C117.985 382.055 118.508 386.617 113.816 388.065C109.124 389.513 105.694 385.475 105.882 383.187Z" fill="#0160C0"/>
<path d="M217.575 396.234C224.811 391.31 229.566 383.007 229.566 373.59V345.396H171.013V373.59C171.013 383.414 176.203 392.003 183.971 396.831C176.735 401.754 171.98 410.057 171.98 419.475V447.669H230.533V419.475C230.533 409.651 225.343 401.062 217.575 396.234Z" fill="#C0DFFF"/>
<path d="M234.629 445.828H166.502V453.936H234.629V445.828Z" fill="#419FFF"/>
<path d="M234.629 341.342H166.502V349.451H234.629V341.342Z" fill="#419FFF"/>
<path d="M177.822 359.985V374.842C177.822 385.674 186.596 394.453 197.418 394.453H198.305V426.922L188.103 445.826H215.832L203.333 427.12V394.404C213.692 393.884 221.939 385.338 221.939 374.842V359.985H177.822Z" fill="#E3F0FF"/>
<path d="M506.537 324.919C505.974 324.8 505.413 324.742 504.86 324.742C501.28 324.742 498.023 327.19 497.166 330.823L492.903 348.653L488.82 365.733L461.009 375.214C460.987 375.185 460.974 375.168 460.974 375.168L449.693 378.636C448.198 379.095 446.982 380.191 446.369 381.631L443.123 389.26C442.705 390.242 443.195 391.374 444.198 391.74C445.037 392.045 445.975 391.713 446.432 390.945L447.757 388.722L447.121 391.83C446.941 392.709 447.455 393.582 448.308 393.852C449.164 394.122 450.087 393.701 450.443 392.875L451.662 390.044L451.492 393.04C451.438 393.989 452.096 394.831 453.029 395.01C454.058 395.206 455.049 394.53 455.243 393.501L455.737 390.891L456.101 392.881C456.282 393.873 457.204 394.552 458.204 394.433C459.196 394.314 459.929 393.45 459.884 392.451L459.806 390.733C459.806 390.733 463.19 390.686 466.436 389.203L497.865 378.508C501.603 377.234 504.385 374.075 505.195 370.205L508.974 351.96L512.634 334.278C513.512 330.012 510.8 325.837 506.537 324.919Z" fill="#EFBAE0"/>
<path d="M511.278 333.736L507.438 351.96L490.58 348.552L495.051 330.175C495.951 326.431 499.367 323.906 503.124 323.906C503.703 323.906 504.294 323.967 504.883 324.089C509.354 325.036 512.2 329.34 511.278 333.736Z" fill="#0160C0"/>
<path d="M551.147 342.742V382.522H497.032V342.742C497.032 338.574 498.149 334.667 500.123 331.312C504.056 324.544 511.37 319.998 519.758 319.998H528.421C540.974 319.998 551.147 330.194 551.147 342.742Z" fill="#A0CFFF"/>
<path d="M551.147 382.522H497.032V342.742C497.032 338.574 498.149 334.667 500.123 331.312L551.147 382.522Z" fill="#C0DFFF"/>
<path d="M536.911 301.858C536.911 307.639 533.805 312.678 529.191 315.438V321.451H517.987V317.369C510.76 315.917 506.857 309.527 506.857 301.858C506.857 293.13 512.386 286.057 521.107 286.057C529.829 286.057 536.911 293.13 536.911 301.858Z" fill="#FFE0EB"/>
<path d="M534.913 289.133C534.734 286.273 532.385 284.001 529.482 284.001H512.002C507.955 284.001 504.674 287.285 504.674 291.336C504.674 292.932 505.967 294.225 507.56 294.225H528.376C528.976 298.41 532.562 301.632 536.911 301.632V293.066C536.911 291.449 536.118 290.026 534.913 289.133Z" fill="#0160C0"/>
<path d="M530.142 382.516V397.881C530.142 404.967 525.863 411.35 519.309 414.035L469.577 434.418L462.745 482.359H432.586L443.294 420.538C445.047 410.229 452.011 401.565 461.697 397.643L499.046 382.515H530.142V382.516Z" fill="#0160C0"/>
<path d="M551.144 382.516V397.881C551.144 404.967 546.863 411.35 540.311 414.035L490.577 434.418L483.745 482.359H453.586L464.294 420.538C466.047 410.229 473.012 401.565 482.697 397.643L520.047 382.515H551.143L551.144 382.516Z" fill="#0150A0"/>
<path d="M548.999 334.275L545.328 351.964L541.714 369.451L541.555 370.206C540.916 373.213 539.102 375.812 536.548 377.395C535.822 377.86 535.053 378.238 534.226 378.514L507.872 387.475L502.793 389.203C499.543 390.684 496.161 390.728 496.161 390.728L496.248 392.456C496.292 393.444 495.552 394.315 494.565 394.431C493.564 394.548 492.649 393.88 492.461 392.877L492.098 390.888L491.605 393.502C491.416 394.533 490.415 395.201 489.384 395.012C488.455 394.838 487.802 393.996 487.846 393.037L488.02 390.045L486.801 392.877C486.453 393.705 485.524 394.126 484.668 393.851C483.812 393.575 483.304 392.703 483.478 391.832L484.116 388.724L482.796 390.946C482.331 391.716 481.403 392.05 480.561 391.745C479.56 391.382 479.066 390.249 479.487 389.261L482.723 381.636C482.781 381.491 482.854 381.346 482.941 381.2C483.608 379.981 484.711 379.051 486.046 378.63L497.337 375.173C497.337 375.173 497.351 375.188 497.366 375.217L525.185 365.733L529.263 348.653L533.53 330.818C534.386 327.187 537.636 324.747 541.221 324.747C541.772 324.747 542.338 324.805 542.89 324.922C547.156 325.837 549.87 330.019 548.999 334.275Z" fill="#F5D1EB"/>
<path d="M548.992 334.279L545.332 351.962L529.263 348.655L533.525 330.824C534.383 327.19 537.639 324.743 541.219 324.743C541.772 324.743 542.334 324.802 542.897 324.92C547.159 325.838 549.872 330.015 548.994 334.279H548.992Z" fill="#0160C0"/>
<path d="M437.804 482.36L436.883 488.533H454.098L455.204 482.36H437.804Z" fill="#EFBAE0"/>
<path d="M436.883 488.533C436.883 488.533 430.048 491.735 425.352 493.877C420.657 496.02 420.312 502.584 420.312 502.584H453.04L454.1 488.533H436.884H436.883Z" fill="#419FFF"/>
<path d="M425.614 363.97H470.429L483.324 394.224H499.178V397.64H440.624L425.614 363.97Z" fill="#FFCA60"/>
<path d="M459.899 482.36L458.979 488.533H476.194L477.299 482.36H459.899Z" fill="#EFBAE0"/>
<path d="M458.979 488.533C458.979 488.533 452.142 491.735 447.447 493.877C442.753 496.02 442.407 502.584 442.407 502.584H475.136L476.196 488.533H458.98H458.979Z" fill="#419FFF"/>
<path d="M529.191 315.438V318.691L518.553 319.679C518.553 319.679 518.321 319.722 517.987 319.766V317.369C517.987 317.369 524.184 317.587 529.191 315.438Z" fill="#EFBAE0"/>
<path d="M515.808 321.448H531.803L531.505 320.517C531.01 318.971 529.575 317.923 527.954 317.923H519.658C518.037 317.923 516.6 318.971 516.106 320.517L515.809 321.448H515.808Z" fill="#0160C0"/>
<path d="M541.714 369.451L541.555 370.206C540.916 373.212 539.102 375.812 536.548 377.395C535.75 376.524 535.256 375.377 535.256 374.098C535.256 371.383 537.448 369.189 540.147 369.189C540.698 369.189 541.221 369.277 541.714 369.451Z" fill="#EFBAE0"/>
<path d="M425.614 363.97L482.699 397.644L440.624 397.64L425.614 363.97Z" fill="#FFAA00"/>
</g>
<defs>
<filter id="filter0_d_1654_56486" x="24.4061" y="-11" width="620.387" height="536" filterUnits="userSpaceOnUse" color-interpolation-filters="sRGB">
<feFlood flood-opacity="0" result="BackgroundImageFix"/>
<feColorMatrix in="SourceAlpha" type="matrix" values="0 0 0 0 0 0 0 0 0 0 0 0 0 0 0 0 0 0 127 0" result="hardAlpha"/>
<feOffset dy="1"/>
<feGaussianBlur stdDeviation="6"/>
<feComposite in2="hardAlpha" operator="out"/>
<feColorMatrix type="matrix" values="0 0 0 0 0 0 0 0 0 0.316667 0 0 0 0 1 0 0 0 0.08 0"/>
<feBlend mode="normal" in2="BackgroundImageFix" result="effect1_dropShadow_1654_56486"/>
<feBlend mode="normal" in="SourceGraphic" in2="effect1_dropShadow_1654_56486" result="shape"/>
</filter>
<clipPath id="clip0_1654_56486">
<rect width="659.377" height="512" fill="white"/>
</clipPath>
</defs>
</svg>
