<svg width="64" height="64" viewBox="0 0 64 64" fill="none" xmlns="http://www.w3.org/2000/svg">
<path d="M32 64C49.6731 64 64 49.6731 64 32C64 14.3269 49.6731 0 32 0C14.3269 0 0 14.3269 0 32C0 49.6731 14.3269 64 32 64Z" fill="#E8FFF2"/>
<path d="M26.5469 43.9957L15.4932 33.0048C15.1743 32.6877 14.9951 32.2576 14.9951 31.8092C14.9951 31.3607 15.1743 30.9306 15.4932 30.6135L17.8981 28.2222C18.217 27.9051 18.6496 27.727 19.1006 27.727C19.5516 27.727 19.9841 27.9051 20.3031 28.2222L27.7494 35.6262L43.6985 19.7677C44.0175 19.4506 44.45 19.2725 44.901 19.2725C45.352 19.2725 45.7846 19.4506 46.1035 19.7677L48.5084 22.159C48.8273 22.4761 49.0065 22.9062 49.0065 23.3546C49.0065 23.8031 48.8273 24.2331 48.5084 24.5502L28.9518 43.9961C28.6329 44.3131 28.2003 44.4912 27.7493 44.4911C27.2983 44.4911 26.8658 44.3128 26.5469 43.9957Z" fill="#47CD9C"/>
</svg>
