<svg width="429" height="310" viewBox="0 0 429 310" fill="none" xmlns="http://www.w3.org/2000/svg">
<path d="M367.035 124.199V185.801H428.016V124.199H367.035Z" fill="#D1F5E2"/>
<path d="M429 186.803H366.036V123.197H429V186.803ZM368.019 184.8H427.017V125.2H368.019V184.8Z" fill="#D1F5E2"/>
<path d="M61.9725 185.801H1.09473V247.404H61.9725V185.801Z" fill="#EFEFEF"/>
<path d="M62.5674 248.005H0.499756V185.192H62.5674V248.005ZM1.6897 246.795H61.3696V186.41H1.69764V246.795H1.6897Z" fill="#EFEFEF"/>
<path d="M305.777 185.801V123.237H244.907V247.404H367.202V185.801H305.777Z" fill="#EFEFEF"/>
<path d="M368.194 248.406H243.908V122.235H306.769V184.808H368.194V248.414V248.406ZM245.891 246.402H366.211V186.803H304.785V124.231H245.891V246.394V246.402Z" fill="#EFEFEF"/>
<path d="M367.027 1.00171V62.6042L428.008 62.6042V1.00171L367.027 1.00171Z" fill="#EFEFEF"/>
<path d="M428.611 63.2133H366.432V0.400696H428.611V63.2133ZM367.63 62.0032H427.405V1.61879H367.63V62.0032Z" fill="#EFEFEF"/>
<path d="M61.9648 1.00173L61.9648 62.6042L122.946 62.6042V1.00173L61.9648 1.00173Z" fill="#D1F5E2"/>
<path d="M123.937 63.606H60.981V0H123.945V63.606H123.937ZM62.9563 61.6025H121.954V2.00346H62.9642V61.6025H62.9563Z" fill="#D1F5E2"/>
<path d="M183.926 62.6043H122.946V185.801H183.926V62.6043Z" fill="#D1F5E2"/>
<path d="M184.918 186.803H121.954V61.6026H184.918V186.803ZM123.937 184.8H182.935V63.606H123.937V184.8Z" fill="#D1F5E2"/>
<path d="M244.899 247.404H122.946V309.006H244.899V247.404Z" fill="#D1F5E2"/>
<path d="M245.899 310H121.954V246.394H245.891V310H245.899ZM123.945 307.997H243.916V248.398H123.937V307.997H123.945Z" fill="#D1F5E2"/>
<path d="M429 125.208H366.036V61.6105H429V125.208ZM368.019 123.205H427.017V63.614H368.019V123.205Z" fill="#3ABFF8"/>
<path d="M397.522 116.473C384.932 116.473 374.683 106.127 374.683 93.4095C374.683 80.6915 384.924 70.3376 397.522 70.3376C410.119 70.3376 420.361 80.6835 420.361 93.4095C420.361 106.135 410.119 116.473 397.522 116.473ZM397.522 72.341C386.027 72.341 376.666 81.7894 376.666 93.4095C376.666 105.03 386.019 114.47 397.522 114.47C409.025 114.47 418.378 105.022 418.378 93.4095C418.378 81.7974 409.025 72.341 397.522 72.341Z" fill="#3ABFF8"/>
<path d="M397.522 110.615C388.193 110.615 380.601 102.946 380.601 93.5217C380.601 84.0974 388.193 76.4282 397.522 76.4282C406.851 76.4282 414.443 84.0974 414.443 93.5217C414.443 102.946 406.851 110.615 397.522 110.615ZM397.522 78.4236C389.287 78.4236 382.584 85.1953 382.584 93.5137C382.584 101.832 389.287 108.604 397.522 108.604C405.756 108.604 412.46 101.832 412.46 93.5137C412.46 85.1953 405.756 78.4236 397.522 78.4236Z" fill="#3ABFF8"/>
<path d="M397.522 104.749C391.453 104.749 386.511 99.7565 386.511 93.6259C386.511 87.4953 391.453 82.5027 397.522 82.5027C403.591 82.5027 408.533 87.4953 408.533 93.6259C408.533 99.7565 403.591 104.749 397.522 104.749ZM397.522 84.5061C392.54 84.5061 388.494 88.6012 388.494 93.6259C388.494 98.6506 392.548 102.746 397.522 102.746C402.496 102.746 406.55 98.6506 406.55 93.6259C406.55 88.6012 402.496 84.5061 397.522 84.5061Z" fill="#3ABFF8"/>
<path d="M397.522 98.891C394.706 98.891 392.421 96.583 392.421 93.738C392.421 90.8931 394.706 88.5851 397.522 88.5851C400.338 88.5851 402.623 90.8931 402.623 93.738C402.623 96.583 400.338 98.891 397.522 98.891ZM397.522 90.5886C395.8 90.5886 394.404 91.999 394.404 93.738C394.404 95.4771 395.8 96.8875 397.522 96.8875C399.243 96.8875 400.64 95.4771 400.64 93.738C400.64 91.999 399.243 90.5886 397.522 90.5886Z" fill="#3ABFF8"/>
<path d="M62.9641 186.803H0V123.205H62.9641V186.803ZM1.99118 184.8H60.9809V125.208H1.98325V184.8H1.99118Z" fill="#3ABFF8"/>
<path d="M39.1572 170.214H24.2114V161.8H39.1572V170.214ZM26.1947 168.211H37.1739V163.803H26.1947V168.211Z" fill="#3ABFF8"/>
<path d="M37.9197 163.803H25.4491L20.245 152.255C18.4681 148.304 18.7933 143.769 21.1177 140.122C23.442 136.476 27.3927 134.296 31.6923 134.296C35.992 134.296 39.9427 136.476 42.267 140.122C44.5914 143.769 44.9166 148.312 43.1396 152.255L37.9356 163.803H37.9197ZM26.7263 161.8H36.6505L41.323 151.43C42.8223 148.104 42.5526 144.281 40.5932 141.212C38.6337 138.135 35.3098 136.3 31.6844 136.3C28.059 136.3 24.7351 138.135 22.7757 141.204C20.8162 144.281 20.5465 148.096 22.0458 151.43L26.7184 161.8H26.7263Z" fill="#3ABFF8"/>
<path d="M31.6841 159.949L26.8132 155.028L28.2174 153.61L31.6841 157.112L35.1508 153.61L36.5549 155.028L31.6841 159.949Z" fill="#3ABFF8"/>
<path d="M32.6759 158.53H30.6926V163.25H32.6759V158.53Z" fill="#3ABFF8"/>
<path d="M37.3405 175.319H26.0281V168.211H37.3405V175.319ZM28.0113 173.316H35.3573V170.214H28.0113V173.316Z" fill="#3ABFF8"/>
<path d="M37.4594 165.005H25.9089V167.009H37.4594V165.005Z" fill="#3ABFF8"/>
<path d="M184.045 1.00171L184.045 247.396H245.026V1.00171H184.045Z" fill="#3ABFF8"/>
<path d="M246.018 248.406H183.054V0H246.018V248.398V248.406ZM185.037 246.402H244.035V2.00346H185.037V246.394V246.402Z" fill="#3ABFF8"/>
<path d="M184.918 248.405H121.954V184.799H184.918V248.405ZM123.937 246.402H182.935V186.803H123.937V246.402Z" fill="#3ABFF8"/>
<path d="M174.073 222.328H159.5V220.325H172.36C172.495 219.227 172.558 218.129 172.558 217.047C172.558 204.449 164.34 194.945 153.448 194.945C148.164 194.945 143.309 197.221 139.779 201.364C136.273 205.475 134.337 211.045 134.337 217.047C134.337 218.129 134.4 219.227 134.535 220.325H147.387V222.328H132.814L132.687 221.479C132.465 220.004 132.354 218.514 132.354 217.047C132.354 210.564 134.456 204.53 138.28 200.05C142.199 195.466 147.585 192.934 153.448 192.934C165.474 192.934 174.541 203.303 174.541 217.039C174.541 218.506 174.43 219.996 174.208 221.471L174.081 222.32L174.073 222.328Z" fill="#3ABFF8"/>
<path d="M147.379 220.878V225.27L130.244 230.487V247.404H176.636V230.487L159.501 225.27V220.878" fill="white"/>
<path d="M177.628 248.406H129.252V229.741L146.387 224.524V220.878H148.371V226.015L131.235 231.232V246.402H175.644V231.232L158.509 226.015V220.878H160.492V224.524L177.628 229.741V248.406Z" fill="#3ABFF8"/>
<path d="M138.541 236.2H136.558V247.404H138.541V236.2Z" fill="#3ABFF8"/>
<path d="M170.321 236.2H168.338V247.404H170.321V236.2Z" fill="#3ABFF8"/>
<path d="M156.423 221.88H150.457C145.007 221.88 140.573 217.4 140.573 211.894V205.996H142.556V211.894C142.556 216.294 146.102 219.876 150.457 219.876H156.423C160.778 219.876 164.324 216.294 164.324 211.894V205.996H166.307V211.894C166.307 217.4 161.873 221.88 156.423 221.88Z" fill="#3ABFF8"/>
<path d="M142.555 215.412H141.564C138.803 215.412 136.558 213.144 136.558 210.356V210.059C136.558 207.27 138.803 205.002 141.564 205.002H142.555V215.42V215.412ZM140.572 207.166C139.39 207.583 138.541 208.721 138.541 210.051V210.348C138.541 211.686 139.39 212.816 140.572 213.233V207.158V207.166Z" fill="#3ABFF8"/>
<path d="M165.315 215.933H164.324V205.515H165.315C168.076 205.515 170.321 207.783 170.321 210.572V210.869C170.321 213.657 168.076 215.925 165.315 215.925V215.933ZM166.307 207.687V213.762C167.489 213.345 168.338 212.207 168.338 210.877V210.58C168.338 209.242 167.489 208.112 166.307 207.695V207.687Z" fill="#3ABFF8"/>
<path d="M153.44 234.95C147.466 234.95 142.286 231.761 140.842 227.193L142.73 226.584C143.92 230.334 148.323 232.955 153.44 232.955C158.557 232.955 162.959 230.334 164.149 226.584L166.037 227.193C164.594 231.761 159.413 234.95 153.44 234.95Z" fill="#3ABFF8"/>
<path d="M158.334 206.998H141.556V204.994H158.334C161.635 204.994 164.316 202.286 164.316 198.952H166.299C166.299 203.392 162.729 206.998 158.334 206.998Z" fill="#3ABFF8"/>
<path d="M123.937 248.405H60.981V184.799H123.945V248.405H123.937ZM62.9563 246.402H121.954V186.803H62.9642V246.402H62.9563Z" fill="#3ABFF8"/>
<path d="M92.4589 221.351L73.7053 206.701L74.9191 205.114L92.4589 218.818L110.007 205.114L111.22 206.701L92.4589 221.351Z" fill="#3ABFF8"/>
<path d="M111.601 228.291H73.3169V204.906H111.601V228.291ZM75.3001 226.287H109.618V206.91H75.3001V226.287Z" fill="#3ABFF8"/>
<path d="M307.046 63.606H244.082V0H307.046V63.606ZM246.065 61.6025H305.063V2.00346H246.065V61.6025Z" fill="#3ABFF8"/>
<path d="M271.126 55.7284L271.149 50.5274C269.103 50.0626 267.167 49.2692 265.39 48.1633L261.717 51.8577L255.624 45.7431L259.297 42.0487C258.195 40.2696 257.401 38.3303 256.941 36.2707L251.769 36.3028L251.809 27.6078L256.973 27.5757C257.457 25.5081 258.266 23.5528 259.393 21.7496L255.759 18.1033L261.899 11.9246L265.533 15.5709C267.326 14.433 269.269 13.6156 271.332 13.1267L271.356 7.93373L279.995 7.87762L279.971 13.0786C282.018 13.5434 283.953 14.3368 285.73 15.4427L289.403 11.7483L295.496 17.8629L291.823 21.5573C292.925 23.3364 293.719 25.2757 294.179 27.3353L299.351 27.3032L299.311 35.9983L294.147 36.0303C293.663 38.0979 292.854 40.0533 291.727 41.8564L295.361 45.5027L289.221 51.6814L285.587 48.0351C283.795 49.173 281.851 49.9904 279.788 50.4793L279.765 55.6723L271.126 55.7284ZM265.144 45.5909L265.818 46.0556C267.778 47.402 269.967 48.2995 272.323 48.7243L273.148 48.8765L273.125 53.7169L277.797 53.6848L277.821 48.8445L278.622 48.6922C280.986 48.2354 283.184 47.3058 285.159 45.9354L285.833 45.4626L289.221 48.8605L292.545 45.5107L289.157 42.1128L289.625 41.4236C290.99 39.4362 291.91 37.2244 292.354 34.8523L292.505 34.0429L297.32 34.0108L297.344 29.3227L292.529 29.3548L292.378 28.5293C291.95 26.1653 291.053 23.9695 289.713 21.9981L289.244 21.3089L292.664 17.8709L289.387 14.5852L285.968 18.0312L285.294 17.5664C283.334 16.2201 281.145 15.3225 278.789 14.8978L277.972 14.7455L277.995 9.90513L273.323 9.93719L273.299 14.7776L272.498 14.9298C270.134 15.3866 267.936 16.3162 265.961 17.6866L265.287 18.1594L261.899 14.7615L258.576 18.1113L261.963 21.5092L261.495 22.1984C260.13 24.1858 259.21 26.3977 258.758 28.7698L258.607 29.5792L253.792 29.6112L253.768 34.2993L258.583 34.2673L258.734 35.0927C259.163 37.4568 260.059 39.6526 261.4 41.624L261.868 42.3132L258.449 45.7591L261.725 49.0448L265.144 45.5989V45.5909ZM275.473 41.8804C272.895 41.8804 270.332 40.9027 268.373 38.9393C266.477 37.0401 265.43 34.4997 265.43 31.799C265.43 29.0583 266.493 26.4698 268.436 24.5144C272.403 20.5155 278.836 20.4754 282.771 24.4263C284.667 26.3255 285.706 28.8659 285.714 31.5666C285.714 34.3154 284.651 36.8958 282.708 38.8512C280.709 40.8627 278.083 41.8724 275.465 41.8724L275.473 41.8804ZM275.679 23.4966C273.569 23.4966 271.451 24.3141 269.832 25.9409C268.27 27.5116 267.413 29.5952 267.413 31.799C267.413 33.9707 268.254 35.9983 269.769 37.5209C272.934 40.6944 278.107 40.6623 281.311 37.4408C282.874 35.87 283.731 33.7864 283.731 31.5746C283.731 29.4109 282.89 27.3754 281.375 25.8527C279.804 24.282 277.75 23.4966 275.679 23.4966Z" fill="#3ABFF8"/>
<path d="M183.926 1.00174H122.946V62.6042H183.926V1.00174Z" fill="white"/>
<path d="M184.918 63.606H121.954V0H184.918V63.606ZM123.937 61.6025H182.935V2.00346H123.937V61.6025Z" fill="#3ABFF8"/>
<path d="M153.432 16.164H135.733V18.1675H153.432V16.164Z" fill="#3ABFF8"/>
<path d="M171.138 38.1219H135.733V40.1254H171.138V38.1219Z" fill="#3ABFF8"/>
<path d="M171.138 23.4806H135.733V25.4841H171.138V23.4806Z" fill="#3ABFF8"/>
<path d="M171.138 45.4466H135.733V47.45H171.138V45.4466Z" fill="#3ABFF8"/>
<path d="M171.138 30.8053H135.733V32.8088H171.138V30.8053Z" fill="#3ABFF8"/>
<path d="M123.937 186.803H60.981V123.197H123.945V186.803H123.937ZM62.9563 184.8H121.954V125.2H62.9642V184.8H62.9563Z" fill="#3ABFF8"/>
<path d="M123.937 186.803H60.981V123.197H123.945V186.803H123.937ZM62.9563 184.8H121.954V125.2H62.9642V184.8H62.9563Z" fill="#3ABFF8"/>
<path d="M92.5623 178.068C79.9727 178.068 69.7312 167.722 69.7312 154.996C69.7312 142.27 79.9727 131.924 92.5623 131.924C105.152 131.924 115.401 142.27 115.401 154.996C115.401 167.722 105.16 178.068 92.5623 178.068ZM92.5623 133.936C81.0674 133.936 71.7144 143.384 71.7144 155.004C71.7144 166.624 81.0674 176.072 92.5623 176.072C104.057 176.072 113.418 166.624 113.418 155.004C113.418 143.384 104.065 133.936 92.5623 133.936Z" fill="#3ABFF8"/>
<path d="M92.5624 172.21C83.2332 172.21 75.6414 164.541 75.6414 155.116C75.6414 145.692 83.2332 138.023 92.5624 138.023C101.892 138.023 109.483 145.692 109.483 155.116C109.483 164.541 101.892 172.21 92.5624 172.21ZM92.5624 140.018C84.328 140.018 77.6246 146.79 77.6246 155.108C77.6246 163.427 84.328 170.198 92.5624 170.198C100.797 170.198 107.5 163.427 107.5 155.108C107.5 146.79 100.797 140.018 92.5624 140.018Z" fill="#3ABFF8"/>
<path d="M92.5622 166.352C86.4935 166.352 81.5513 161.359 81.5513 155.228C81.5513 149.098 86.4935 144.105 92.5622 144.105C98.631 144.105 103.573 149.098 103.573 155.228C103.573 161.359 98.631 166.352 92.5622 166.352ZM92.5622 146.109C87.5803 146.109 83.5345 150.204 83.5345 155.228C83.5345 160.253 87.5883 164.348 92.5622 164.348C97.5362 164.348 101.59 160.253 101.59 155.228C101.59 150.204 97.5362 146.109 92.5622 146.109Z" fill="#3ABFF8"/>
<path d="M92.5623 160.494C89.7461 160.494 87.4614 158.186 87.4614 155.341C87.4614 152.496 89.7461 150.188 92.5623 150.188C95.3785 150.188 97.6632 152.496 97.6632 155.341C97.6632 158.186 95.3785 160.494 92.5623 160.494ZM92.5623 152.191C90.8409 152.191 89.4447 153.602 89.4447 155.341C89.4447 157.08 90.8409 158.49 92.5623 158.49C94.2838 158.49 95.68 157.08 95.68 155.341C95.68 153.602 94.2838 152.191 92.5623 152.191Z" fill="#3ABFF8"/>
<path d="M123.937 125.209H60.981V61.6026H123.945V125.209H123.937ZM62.9563 123.205H121.954V63.606H62.9642V123.205H62.9563Z" fill="#3ABFF8"/>
<mask id="mask0_441_644" style="mask-type:luminance" maskUnits="userSpaceOnUse" x="61" y="62" width="62" height="63">
<path d="M122.954 62.6043H61.9727V124.207H122.954V62.6043Z" fill="white"/>
</mask>
<g mask="url(#mask0_441_644)">
<path d="M92.459 106.977L85.4463 111.032L83.5186 102.641" fill="white"/>
<path d="M84.7876 112.571L82.5505 102.866L84.4862 102.409L86.1125 109.493L91.967 106.112L92.9507 107.851L84.7876 112.571Z" fill="#3ABFF8"/>
<path d="M92.4595 106.977L99.5912 111.104L101.4 102.641" fill="white"/>
<path d="M100.273 112.651L91.9673 107.85L92.951 106.111L98.9086 109.557L100.432 102.425L102.375 102.85L100.273 112.651Z" fill="#3ABFF8"/>
<path d="M116.647 142.518H68.2715V106.232L92.4592 98.867L116.647 106.232V142.518ZM70.2547 140.515H114.664V107.722L92.4592 100.959L70.2547 107.722V140.515Z" fill="#3ABFF8"/>
<path d="M76.5694 142.518H69.2631L68.2715 141.517V106.977L69.9374 106.248C74.7765 110.824 77.5531 117.299 77.5531 123.99V141.517L76.5615 142.518H76.5694ZM70.2547 140.515H75.5778V123.99C75.5778 118.661 73.6659 113.492 70.2547 109.469V140.515Z" fill="#3ABFF8"/>
<path d="M115.655 142.518H108.349L107.357 141.517V123.99C107.357 117.291 110.134 110.824 114.973 106.248L116.639 106.977V141.517L115.647 142.518H115.655ZM109.34 140.515H114.663V109.469C111.26 113.492 109.34 118.661 109.34 123.99V140.515Z" fill="#3ABFF8"/>
<path d="M98.5198 97.3764V101.768L92.459 106.977L86.3982 101.768V97.3764" fill="white"/>
<path d="M92.4589 108.291L85.4065 102.233V97.3764H87.3897V101.303L92.4589 105.663L97.5281 101.303V97.3764H99.5113V102.233L92.4589 108.291Z" fill="#3ABFF8"/>
<path d="M95.6084 97.9294H89.6111C84.1373 97.9294 79.679 93.4256 79.679 87.896V81.6853C79.679 74.4808 85.478 68.6227 92.6097 68.6227C99.7415 68.6227 105.54 74.4808 105.54 81.6853V87.896C105.54 93.4256 101.082 97.9294 95.6084 97.9294ZM92.6097 70.6261C86.5727 70.6261 81.6622 75.5867 81.6622 81.6853V87.896C81.6622 92.3196 85.2241 95.9259 89.6111 95.9259H95.6084C99.9874 95.9259 103.557 92.3277 103.557 87.896V81.6853C103.557 75.5867 98.6467 70.6261 92.6097 70.6261Z" fill="#3ABFF8"/>
<path d="M81.6703 91.4221H80.6787C77.9021 91.4221 75.6492 89.1462 75.6492 86.3413V86.0368C75.6492 83.2319 77.9021 80.956 80.6787 80.956H81.6703V91.4141V91.4221ZM79.6871 83.1278C78.4892 83.5445 77.6324 84.6904 77.6324 86.0368V86.3413C77.6324 87.6876 78.4892 88.8336 79.6871 89.2503V83.1278Z" fill="#3ABFF8"/>
<path d="M104.549 91.951H103.557V81.493H104.549C107.326 81.493 109.579 83.7689 109.579 86.5737V86.8783C109.579 89.6831 107.326 91.959 104.549 91.959V91.951ZM105.541 83.6567V89.7793C106.739 89.3626 107.595 88.2166 107.595 86.8702V86.5657C107.595 85.2194 106.739 84.0734 105.541 83.6567Z" fill="#3ABFF8"/>
<path d="M95.6084 97.9294H89.6111C84.1373 97.9294 79.679 93.4256 79.679 87.896V81.6853C79.679 74.4808 85.478 68.6227 92.6097 68.6227C99.7415 68.6227 105.54 74.4808 105.54 81.6853V87.896C105.54 93.4256 101.082 97.9294 95.6084 97.9294ZM92.6097 70.6261C86.5727 70.6261 81.6622 75.5867 81.6622 81.6853V87.896C81.6622 92.3196 85.2241 95.9259 89.6111 95.9259H95.6084C99.9874 95.9259 103.557 92.3277 103.557 87.896V81.6853C103.557 75.5867 98.6467 70.6261 92.6097 70.6261Z" fill="#3ABFF8"/>
<mask id="mask1_441_644" style="mask-type:luminance" maskUnits="userSpaceOnUse" x="79" y="68" width="27" height="30">
<path d="M95.6084 97.9294H89.6111C84.1373 97.9294 79.679 93.4256 79.679 87.896V81.6853C79.679 74.4808 85.478 68.6227 92.6097 68.6227C99.7415 68.6227 105.54 74.4808 105.54 81.6853V87.896C105.54 93.4256 101.082 97.9294 95.6084 97.9294ZM92.6097 70.6261C86.5727 70.6261 81.6622 75.5867 81.6622 81.6853V87.896C81.6622 92.3196 85.2241 95.9259 89.6111 95.9259H95.6084C99.9874 95.9259 103.557 92.3277 103.557 87.896V81.6853C103.557 75.5867 98.6467 70.6261 92.6097 70.6261Z" fill="white"/>
</mask>
<g mask="url(#mask1_441_644)">
<path d="M84.877 71.951L84.0288 73.762L104.122 83.3653L104.97 81.5543L84.877 71.951Z" fill="#3ABFF8"/>
<path d="M79.9089 83.0476V81.0442C83.1615 81.0442 86.0094 78.9445 87.001 75.8191L87.12 75.4505L89.0081 76.0596L88.8891 76.4282C87.6357 80.387 84.0262 83.0476 79.9089 83.0476Z" fill="#3ABFF8"/>
</g>
</g>
<path d="M368.019 186.803H305.055V123.197H368.019V186.803ZM307.038 184.8H366.036V125.2H307.038V184.8Z" fill="#3ABFF8"/>
<mask id="mask2_441_644" style="mask-type:luminance" maskUnits="userSpaceOnUse" x="306" y="124" width="62" height="62">
<path d="M367.036 124.207H306.055V185.809H367.036V124.207Z" fill="white"/>
</mask>
<g mask="url(#mask2_441_644)">
<path d="M336.541 168.579L329.529 172.634L327.601 164.236" fill="white"/>
<path d="M328.87 174.173L326.633 164.46L328.568 164.012L330.195 171.096L336.049 167.706L337.033 169.445L328.87 174.173Z" fill="#3ABFF8"/>
<path d="M336.541 168.579L343.673 172.707L345.481 164.236" fill="white"/>
<path d="M344.355 174.253L336.049 169.445L337.033 167.706L342.99 171.152L344.514 164.028L346.457 164.452L344.355 174.253Z" fill="#3ABFF8"/>
<path d="M360.729 204.121H312.354V167.834L336.541 160.469L360.729 167.834V204.121ZM314.337 202.117H358.746V169.325L336.541 162.561L314.337 169.325V202.117Z" fill="#3ABFF8"/>
<path d="M320.651 204.121H313.345L312.354 203.119V168.579L314.019 167.85C318.859 172.426 321.635 178.901 321.635 185.593V203.119L320.643 204.121H320.651ZM314.337 202.117H319.66V185.593C319.66 180.264 317.748 175.095 314.337 171.072V202.117Z" fill="#3ABFF8"/>
<path d="M359.737 204.121H352.431L351.439 203.119V185.593C351.439 178.893 354.216 172.426 359.055 167.85L360.721 168.579V203.119L359.729 204.121H359.737ZM353.422 202.117H358.745V171.072C355.342 175.087 353.422 180.264 353.422 185.593V202.117Z" fill="#3ABFF8"/>
<path d="M342.602 158.971V163.37L336.541 168.579L330.48 163.37V158.971" fill="white"/>
<path d="M336.541 169.894L329.489 163.835V158.971H331.472V162.906L336.541 167.265L341.61 162.906V158.971H343.594V163.835L336.541 169.894Z" fill="#3ABFF8"/>
<path d="M339.691 159.532H333.693C328.22 159.532 323.761 155.028 323.761 149.499V143.288C323.761 136.083 329.56 130.225 336.692 130.225C343.824 130.225 349.623 136.083 349.623 143.288V149.499C349.623 155.028 345.164 159.532 339.691 159.532ZM336.692 132.229C330.655 132.229 325.744 137.189 325.744 143.288V149.499C325.744 153.922 329.306 157.528 333.693 157.528H339.691C344.07 157.528 347.64 153.922 347.64 149.499V143.288C347.64 137.189 342.729 132.229 336.692 132.229Z" fill="#3ABFF8"/>
<path d="M325.752 153.025H324.76C321.984 153.025 319.731 150.749 319.731 147.944V147.639C319.731 144.834 321.984 142.559 324.76 142.559H325.752V153.017V153.025ZM323.769 144.738C322.571 145.155 321.714 146.301 321.714 147.647V147.952C321.714 149.298 322.571 150.444 323.769 150.861V144.738Z" fill="#3ABFF8"/>
<path d="M348.631 153.554H347.639V143.095H348.631C351.407 143.095 353.66 145.371 353.66 148.176V148.481C353.66 151.286 351.407 153.562 348.631 153.562V153.554ZM349.622 145.267V151.39C350.82 150.973 351.677 149.827 351.677 148.481V148.176C351.677 146.83 350.82 145.684 349.622 145.267Z" fill="#3ABFF8"/>
<path d="M339.691 159.532H333.693C328.22 159.532 323.761 155.028 323.761 149.499V143.288C323.761 136.083 329.56 130.225 336.692 130.225C343.824 130.225 349.623 136.083 349.623 143.288V149.499C349.623 155.028 345.164 159.532 339.691 159.532ZM336.692 132.229C330.655 132.229 325.744 137.189 325.744 143.288V149.499C325.744 153.922 329.306 157.528 333.693 157.528H339.691C344.07 157.528 347.64 153.922 347.64 149.499V143.288C347.64 137.189 342.729 132.229 336.692 132.229Z" fill="#3ABFF8"/>
<mask id="mask3_441_644" style="mask-type:luminance" maskUnits="userSpaceOnUse" x="323" y="130" width="27" height="30">
<path d="M339.691 159.532H333.693C328.22 159.532 323.761 155.028 323.761 149.499V143.288C323.761 136.083 329.56 130.225 336.692 130.225C343.824 130.225 349.623 136.083 349.623 143.288V149.499C349.623 155.028 345.164 159.532 339.691 159.532ZM336.692 132.229C330.655 132.229 325.744 137.189 325.744 143.288V149.499C325.744 153.922 329.306 157.528 333.693 157.528H339.691C344.07 157.528 347.64 153.922 347.64 149.499V143.288C347.64 137.189 342.729 132.229 336.692 132.229Z" fill="white"/>
</mask>
<g mask="url(#mask3_441_644)">
<path d="M328.978 133.605L328.129 135.416L348.221 145.023L349.069 143.212L328.978 133.605Z" fill="#3ABFF8"/>
<path d="M323.991 144.642V142.639C327.244 142.639 330.092 140.539 331.083 137.414L331.202 137.045L333.09 137.654L332.971 138.023C331.718 141.982 328.108 144.642 323.991 144.642Z" fill="#3ABFF8"/>
</g>
</g>
<path d="M368.019 125.209H305.055V61.6026H368.019V125.209ZM307.038 123.205H366.036V63.606H307.038V123.205Z" fill="#3ABFF8"/>
<path d="M357.643 106.368H355.66V89.3465C355.66 77.3899 347.798 69.0474 336.549 69.0394C331.139 69.0394 326.268 71.0108 322.841 74.601C319.303 78.2954 317.439 83.3922 317.439 89.3465V106.368H315.455V89.3465C315.455 82.8633 317.518 77.2857 321.413 73.2146C325.221 69.2317 330.599 67.044 336.549 67.044C348.972 67.044 357.643 76.2198 357.643 89.3545V106.376V106.368Z" fill="#3ABFF8"/>
<path d="M330.48 97.681V102.073L313.345 107.29V124.207H359.737V107.29L342.602 102.073V97.681" fill="white"/>
<path d="M360.729 125.209H312.354V106.544L329.489 101.327V97.681H331.472V102.81L314.337 108.035V123.205H358.746V108.035L341.61 102.81V97.681H343.594V101.327L360.729 106.544V125.209Z" fill="#3ABFF8"/>
<path d="M321.643 113.003H319.66V124.207H321.643V113.003Z" fill="#3ABFF8"/>
<path d="M353.422 113.003H351.439V124.207H353.422V113.003Z" fill="#3ABFF8"/>
<path d="M339.524 98.6827H333.558C328.108 98.6827 323.674 94.2029 323.674 88.6974V82.7992H325.657V88.6974C325.657 93.097 329.203 96.6792 333.558 96.6792H339.524C343.879 96.6792 347.425 93.097 347.425 88.6974V82.7992H349.408V88.6974C349.408 94.2029 344.974 98.6827 339.524 98.6827Z" fill="#3ABFF8"/>
<path d="M325.657 92.2156H324.665C321.905 92.2156 319.66 89.9477 319.66 87.1588V86.8623C319.66 84.0735 321.905 81.8056 324.665 81.8056H325.657V92.2236V92.2156ZM323.674 83.9693C322.492 84.386 321.643 85.524 321.643 86.8543V87.1508C321.643 88.4811 322.492 89.6191 323.674 90.0358V83.9613V83.9693Z" fill="#3ABFF8"/>
<path d="M348.417 92.2155H347.425V81.7975H348.417C351.177 81.7975 353.422 84.0654 353.422 86.8542V87.1507C353.422 89.9396 351.177 92.2075 348.417 92.2075V92.2155ZM349.408 83.9692V90.0437C350.59 89.627 351.439 88.4891 351.439 87.1588V86.8622C351.439 85.5319 350.59 84.394 349.408 83.9773V83.9692Z" fill="#3ABFF8"/>
<path d="M329.568 83.8009H324.665V81.7974H329.568C332.868 81.7974 335.549 79.0887 335.549 75.755H337.533C337.533 80.1947 333.963 83.8009 329.568 83.8009Z" fill="#3ABFF8"/>
<path d="M348.417 83.8009H343.514C339.119 83.8009 335.549 80.1947 335.549 75.755H337.533C337.533 79.0887 340.214 81.7974 343.514 81.7974H348.417V83.8009Z" fill="#3ABFF8"/>
<path d="M335.438 124.207H333.455V100.975H342.483V102.978H335.438V124.207Z" fill="#3ABFF8"/>
<path d="M340.047 110.535C340.047 111.192 339.516 111.729 338.865 111.729C338.215 111.729 337.683 111.192 337.683 110.535C337.683 109.878 338.215 109.341 338.865 109.341C339.516 109.341 340.047 109.878 340.047 110.535Z" fill="#3ABFF8"/>
<path d="M340.047 116.321C340.047 116.978 339.516 117.515 338.865 117.515C338.215 117.515 337.683 116.978 337.683 116.321C337.683 115.664 338.215 115.127 338.865 115.127C339.516 115.127 340.047 115.664 340.047 116.321Z" fill="#3ABFF8"/>
<mask id="mask4_441_644" style="mask-type:luminance" maskUnits="userSpaceOnUse" x="306" y="1" width="62" height="62">
<path d="M367.036 1.00174H306.055V62.6042H367.036V1.00174Z" fill="white"/>
</mask>
<g mask="url(#mask4_441_644)">
<path d="M330.512 36.0864V40.47L313.377 45.687V80.2267H359.769V45.687L342.634 40.47V36.0864" fill="white"/>
<path d="M360.761 81.2284H312.385V44.9417L329.521 39.7247V36.0864H331.504V41.2153L314.369 46.4323V79.225H358.777V46.4323L341.642 41.2153V36.0864H343.625V39.7247L360.761 44.9417V81.2284Z" fill="#3ABFF8"/>
<path d="M321.675 51.4009H319.691V80.2267H321.675V51.4009Z" fill="#3ABFF8"/>
<path d="M353.454 51.4009H351.471V80.2267H353.454V51.4009Z" fill="#3ABFF8"/>
<path d="M336.573 48.0991L329.251 41.1431L330.615 39.6846L336.573 45.3504L342.531 39.6846L343.895 41.1431L336.573 48.0991Z" fill="#3ABFF8"/>
<path d="M320.405 54.6064H313.099V56.6099H320.405V54.6064Z" fill="#3ABFF8"/>
<path d="M360.054 54.6064H352.748V56.6099H360.054V54.6064Z" fill="#3ABFF8"/>
<path d="M327.45 51.4489L326.641 41.4156L328.616 41.2553L329.219 48.7242L336.256 46.304L336.89 48.1953L327.45 51.4489Z" fill="#3ABFF8"/>
<path d="M345.696 51.4489L336.256 48.1953L336.89 46.304L343.927 48.7242L344.53 41.2553L346.505 41.4156L345.696 51.4489Z" fill="#3ABFF8"/>
<path d="M339.556 37.0881H333.59C328.14 37.0881 323.706 32.6084 323.706 27.1029V21.2047H325.689V27.1029C325.689 31.5025 329.235 35.0847 333.59 35.0847H339.556C343.911 35.0847 347.457 31.5025 347.457 27.1029V21.2047H349.44V27.1029C349.44 32.6084 345.006 37.0881 339.556 37.0881Z" fill="#3ABFF8"/>
<path d="M325.689 30.613H324.697C321.936 30.613 319.691 28.3451 319.691 25.5563V25.2598C319.691 22.471 321.936 20.203 324.697 20.203H325.689V30.621V30.613ZM323.705 22.3668C322.523 22.7835 321.675 23.9215 321.675 25.2518V25.5483C321.675 26.8786 322.523 28.0166 323.705 28.4333V22.3588V22.3668Z" fill="#3ABFF8"/>
<path d="M348.448 30.6129H347.457V20.1949H348.448C351.209 20.1949 353.454 22.4628 353.454 25.2517V25.5482C353.454 28.337 351.209 30.6049 348.448 30.6049V30.6129ZM349.44 22.3667V28.4412C350.622 28.0244 351.471 26.8865 351.471 25.5562V25.2597C351.471 23.9213 350.622 22.7914 349.44 22.3747V22.3667Z" fill="#3ABFF8"/>
<path d="M351.915 20.9001H321.223L320.794 18.9928L321.008 18.8886C330.988 14.0323 342.404 14.0723 352.352 18.9928L351.915 20.8921V20.9001ZM326.339 18.8966H346.799C340.127 16.7489 333.011 16.7409 326.339 18.8966Z" fill="#3ABFF8"/>
<path d="M351.288 19.097L349.623 18.0151L352.55 13.4312L336.573 6.0985L320.596 13.4312L323.523 18.0151L321.857 19.097L317.684 12.5737L336.573 3.90271L355.461 12.5737L351.288 19.097Z" fill="#3ABFF8"/>
<path d="M327.363 44.7115L314.057 48.5684L314.604 50.4941L327.91 46.6372L327.363 44.7115Z" fill="#3ABFF8"/>
<path d="M346.374 44.7578L345.827 46.6836L359.134 50.5405L359.681 48.6147L346.374 44.7578Z" fill="#3ABFF8"/>
<path d="M337.564 47.2497H335.581V79.0567H337.564V47.2497Z" fill="#3ABFF8"/>
</g>
<path d="M368.019 63.606H305.055V0H368.019V63.606ZM307.038 61.6025H366.036V2.00346H307.038V61.6025Z" fill="#3ABFF8"/>
<path d="M340.458 252.68C334.517 258.682 324.886 258.682 318.945 252.68L251.696 184.746L273.21 163.013L340.458 230.947C346.399 236.949 346.399 246.679 340.458 252.68Z" fill="white"/>
<path d="M329.705 258.142C325.389 258.142 321.332 256.44 318.274 253.358L250.346 184.739L273.202 161.642L341.129 230.261C344.18 233.343 345.865 237.449 345.865 241.81C345.865 246.17 344.18 250.269 341.129 253.358C338.079 256.44 334.014 258.142 329.698 258.142H329.705ZM253.046 184.739L319.623 251.994C322.315 254.714 325.9 256.216 329.705 256.216C333.511 256.216 337.095 254.714 339.787 251.994C342.479 249.275 343.966 245.654 343.966 241.81C343.966 237.965 342.487 234.345 339.787 231.625L273.21 164.369L253.046 184.739Z" fill="#3ABFF8"/>
<path d="M273.206 163.011L251.695 184.741L266.929 200.131L288.44 178.401L273.206 163.011Z" fill="#3ABFF8"/>
<path d="M266.926 201.487L250.346 184.739L273.202 161.642L289.782 178.39L266.926 201.487ZM253.039 184.739L266.926 198.768L287.09 178.398L273.202 164.369L253.039 184.739Z" fill="#3ABFF8"/>
<path d="M273.741 180.616C306.549 147.473 306.549 93.7378 273.741 60.5951C240.933 27.4524 187.74 27.4524 154.932 60.5951C122.123 93.7379 122.123 147.473 154.932 180.616C187.74 213.758 240.933 213.758 273.741 180.616Z" fill="white"/>
<path d="M214.336 206.433C167.487 206.433 129.371 167.928 129.371 120.603C129.371 73.2771 167.487 34.7725 214.336 34.7725C261.184 34.7725 299.3 73.2771 299.3 120.603C299.3 167.928 261.184 206.433 214.336 206.433ZM214.336 36.7062C168.54 36.7062 131.278 74.3403 131.278 120.611C131.278 166.881 168.532 204.515 214.336 204.515C260.139 204.515 297.393 166.881 297.393 120.611C297.393 74.3403 260.139 36.7062 214.336 36.7062Z" fill="#3ABFF8"/>
<path d="M262.389 169.148C288.928 142.339 288.928 98.8718 262.389 72.0622C235.85 45.2526 192.822 45.2526 166.283 72.0622C139.744 98.8718 139.744 142.339 166.283 169.148C192.822 195.958 235.85 195.958 262.389 169.148Z" fill="#D1F5E2"/>
<path d="M247.754 60.8197L155.148 154.369C160.921 164.67 169.241 173.314 179.262 179.423L272.554 85.1798C266.507 75.0644 257.95 66.6516 247.754 60.8197Z" fill="white"/>
<path d="M214.335 190.224C176.334 190.224 145.425 158.992 145.425 120.61C145.425 82.2291 176.341 50.9971 214.335 50.9971C252.329 50.9971 283.246 82.2291 283.246 120.61C283.246 158.992 252.329 190.224 214.335 190.224ZM214.335 52.9154C177.386 52.9154 147.331 83.2846 147.331 120.603C147.331 157.921 177.394 188.29 214.335 188.29C251.277 188.29 281.34 157.921 281.34 120.603C281.34 83.2846 251.277 52.9154 214.335 52.9154Z" fill="#3ABFF8"/>
<mask id="mask5_441_644" style="mask-type:luminance" maskUnits="userSpaceOnUse" x="146" y="51" width="137" height="139">
<path d="M262.389 169.148C288.928 142.339 288.928 98.8718 262.389 72.0621C235.85 45.2525 192.822 45.2525 166.283 72.0622C139.744 98.8718 139.744 142.339 166.283 169.148C192.822 195.958 235.85 195.958 262.389 169.148Z" fill="white"/>
</mask>
<g mask="url(#mask5_441_644)">
<path d="M253.123 193.537H174.58V134.801L213.855 122.837L253.13 134.801V193.537H253.123ZM176.486 191.611H251.216V136.226L213.847 124.848L176.479 136.226V191.611H176.486Z" fill="#3ABFF8"/>
<path d="M187.597 193.537H175.533V191.611H186.644V143.53H188.551V192.574L187.597 193.537Z" fill="#3ABFF8"/>
<path d="M252.169 193.537H240.105L239.151 192.574V143.53H241.058V191.611H252.169V193.537Z" fill="#3ABFF8"/>
<path d="M223.868 119.647V126.912C218.095 131.874 209.615 131.874 203.842 126.912V119.647" fill="white"/>
<path d="M213.855 131.612C210.08 131.612 206.305 130.287 203.224 127.644L202.888 127.359V119.647H204.795V126.458C210.11 130.764 217.599 130.764 222.915 126.458V119.647H224.822V127.359L224.486 127.644C221.405 130.294 217.63 131.612 213.855 131.612Z" fill="#3ABFF8"/>
<path d="M218.781 120.61H208.928C200.303 120.61 193.287 113.523 193.287 104.81V95.0563H195.193V104.81C195.193 112.46 201.355 118.684 208.928 118.684H218.781C226.354 118.684 232.516 112.46 232.516 104.81V95.0563H234.423V104.81C234.423 113.523 227.407 120.61 218.781 120.61Z" fill="#3ABFF8"/>
<path d="M195.186 109.917H194.233C190.046 109.917 186.645 106.481 186.645 102.252V101.759C186.645 97.5293 190.046 94.0933 194.233 94.0933H195.186V109.917ZM193.279 96.0963C190.595 96.5586 188.551 98.916 188.551 101.751V102.244C188.551 105.079 190.603 107.444 193.279 107.907V96.0963Z" fill="#3ABFF8"/>
<path d="M233.47 109.917H232.517V94.0933H233.47C237.657 94.0933 241.058 97.5293 241.058 101.759V102.252C241.058 106.481 237.657 109.917 233.47 109.917ZM234.423 96.0963V107.907C237.108 107.444 239.151 105.087 239.151 102.244V101.751C239.151 98.916 237.108 96.5509 234.423 96.0963Z" fill="#3ABFF8"/>
<path d="M239.204 93.8776H188.505L188.093 92.044L188.444 91.8745C204.734 83.9471 223.388 84.0088 239.624 92.0517L239.204 93.8776ZM193.012 91.9516H234.705C221.267 86.5511 206.465 86.5511 193.012 91.9516Z" fill="#3ABFF8"/>
<path d="M221.504 86.9748H219.598V69.1939C219.598 65.9967 217.02 63.3928 213.855 63.3928C210.69 63.3928 208.112 65.9967 208.112 69.1939V86.9748H206.206V69.1939C206.206 64.9336 209.638 61.4668 213.855 61.4668C218.072 61.4668 221.504 64.9336 221.504 69.1939V86.9748Z" fill="#3ABFF8"/>
<path d="M191.868 90.6881H189.962C189.962 79.7176 196.757 70.1954 206.877 66.9983L208.135 66.5977L208.112 68.0537L207.212 68.0845L207.449 68.8395C198.129 71.7825 191.868 80.565 191.868 90.6881Z" fill="#3ABFF8"/>
<path d="M237.74 90.688H235.834C235.834 80.565 229.573 71.7824 220.253 68.8395L220.475 68.123H219.59L219.552 66.6053L220.818 67.0059C230.938 70.2031 237.733 79.7252 237.733 90.6957L237.74 90.688Z" fill="#3ABFF8"/>
<path d="M230.617 144.493H197.092V128.53H198.999V142.567H228.711V128.53H230.617V144.493Z" fill="#3ABFF8"/>
<path d="M192.204 121.912C189.87 121.912 187.689 121.119 186.095 119.478C184.28 117.614 183.48 114.979 183.853 112.051C184.212 109.209 185.638 106.427 187.865 104.201L189.199 105.572C187.27 107.491 186.042 109.879 185.737 112.29C185.439 114.617 186.05 116.689 187.445 118.122C190.397 121.142 195.979 120.433 199.891 116.535L201.226 117.906C198.58 120.541 195.247 121.905 192.189 121.905L192.204 121.912Z" fill="#3ABFF8"/>
<path d="M235.499 121.912C232.44 121.912 229.108 120.549 226.461 117.914L227.804 116.543C231.716 120.441 237.306 121.157 240.25 118.13C241.645 116.697 242.255 114.624 241.958 112.298C241.653 109.886 240.425 107.498 238.496 105.58L239.838 104.209C242.065 106.427 243.491 109.216 243.849 112.059C244.223 114.986 243.422 117.621 241.607 119.486C240.013 121.119 237.832 121.92 235.499 121.92V121.912Z" fill="#3ABFF8"/>
</g>
</svg>
