<svg xmlns="http://www.w3.org/2000/svg" width="183" height="127" viewBox="0 0 183 127" fill="none">
  <path d="M67.8943 88.2468C70.3371 86.8303 72.78 85.4281 75.2228 84.0116C76.0034 83.5635 75.2951 82.3493 74.5146 82.7974C72.0717 84.2139 69.6288 85.616 67.186 87.0326C66.4054 87.4807 67.1137 88.6949 67.8943 88.2468Z" fill="#93BBE1"/>
  <path d="M67.7932 45.0554C70.236 43.6388 72.6789 42.2367 75.1218 40.8202C75.9023 40.3721 75.194 39.1578 74.4135 39.6059C71.9706 41.0225 69.5278 42.4246 67.0849 43.8412C66.3043 44.2893 67.0126 45.5035 67.7932 45.0554Z" fill="#93BBE1"/>
  <path d="M104.407 39.3469C106.864 40.7634 109.322 42.1945 111.794 43.611C112.574 44.0591 113.282 42.8594 112.502 42.3968C110.045 40.9803 107.587 39.5492 105.115 38.1327C104.335 37.6846 103.627 38.8843 104.407 39.3469Z" fill="#93BBE1"/>
  <path d="M141.874 60.9704C144.331 62.387 146.789 63.818 149.26 65.2346C150.041 65.6827 150.749 64.4829 149.969 64.0204C147.511 62.6038 145.054 61.1728 142.582 59.7562C141.802 59.3081 141.094 60.5079 141.874 60.9704Z" fill="#93BBE1"/>
  <path d="M145.227 86.8591C147.67 85.4426 150.113 84.0404 152.556 82.6239C153.337 82.1758 152.628 80.9616 151.848 81.4097C149.405 82.8262 146.962 84.2284 144.519 85.6449C143.739 86.093 144.447 87.3072 145.227 86.8591Z" fill="#93BBE1"/>
  <path d="M107.862 108.44C110.305 107.024 112.748 105.621 115.19 104.205C115.971 103.757 115.263 102.543 114.482 102.991C112.039 104.407 109.596 105.809 107.154 107.226C106.373 107.674 107.081 108.888 107.862 108.44Z" fill="#93BBE1"/>
  <path d="M30.4275 66.6218C32.8703 65.2053 35.3132 63.8031 37.756 62.3866C38.5366 61.9385 37.8283 60.7243 37.0478 61.1724C34.6049 62.5889 32.162 63.9911 29.7192 65.4076C28.9386 65.8557 29.6469 67.0699 30.4275 66.6218Z" fill="#93BBE1"/>
  <path d="M53.7286 61.8085L37.3657 52.3551V45.9082L53.7286 55.3472V61.8085Z" fill="#93BBE1"/>
  <path d="M53.7285 61.8083L70.0046 52.4127V45.9658L53.7285 55.347V61.8083Z" fill="#6BA2D6"/>
  <path d="M53.7285 61.8083L70.0046 52.4127V45.9658L53.7285 55.347V61.8083Z" fill="#6BA2D6"/>
  <path d="M53.7286 55.3473L37.3657 45.9083L53.6274 36.5127L70.0047 45.9662L53.7286 55.3473Z" fill="#5493D2"/>
  <path d="M16.3629 83.3754L0 73.9364V67.4751L16.3629 76.9286V83.3754Z" fill="#93BBE1"/>
  <path d="M16.3629 83.3757L32.639 73.9945V67.5332L16.3629 76.9288V83.3757Z" fill="#6BA2D6"/>
  <path d="M16.3629 76.9287L0 67.4752L16.2617 58.0796L32.639 67.5331L16.3629 76.9287Z" fill="#5493D2"/>
  <path d="M128.561 61.8664L144.823 52.4708V46.0239L128.561 55.4051V61.8664Z" fill="#6BA2D6"/>
  <path d="M128.561 55.4048V61.8661L112.198 52.4127V45.9658L128.561 55.4048Z" fill="#93BBE1"/>
  <path d="M144.823 46.0238L128.561 55.4049L112.198 45.9659L128.46 36.5703L144.823 46.0238Z" fill="#5493D2"/>
  <path d="M128.662 105.072L144.924 95.6768V89.23L128.662 98.6112V105.072Z" fill="#6BA2D6"/>
  <path d="M128.662 98.6102V105.072L112.299 95.618V89.1567L128.662 98.6102Z" fill="#93BBE1"/>
  <path d="M144.924 89.2293L128.662 98.6105L112.299 89.157L128.561 79.7759L144.924 89.2293Z" fill="#5493D2"/>
  <path d="M53.8298 105.014L70.1059 95.618V89.1567L53.8298 98.5524V105.014Z" fill="#6BA2D6"/>
  <path d="M53.8298 105.014L70.1059 95.618V89.1567L53.8298 98.5524V105.014Z" fill="#6BA2D6"/>
  <path d="M53.8298 98.553V105.014L37.4669 95.5609V89.0996L53.8298 98.553Z" fill="#93BBE1"/>
  <path d="M70.1059 89.1568L53.8298 98.5524L37.4669 89.099L53.7286 79.7178L70.1059 89.1568Z" fill="#5493D2"/>
  <path d="M53.7286 54.3354L37.3657 44.8964V38.4351L53.7286 47.8885V54.3354Z" fill="#93BBE1"/>
  <path d="M53.7285 54.3356L70.0046 44.9545V38.4932L53.7285 47.8888V54.3356Z" fill="#6BA2D6"/>
  <path d="M53.7285 54.3356L70.0046 44.9545V38.4932L53.7285 47.8888V54.3356Z" fill="#6BA2D6"/>
  <path d="M53.7286 47.8886L37.3657 38.4352L53.6274 29.0396L70.0047 38.493L53.7286 47.8886Z" fill="#CEE0F2"/>
  <path d="M16.3629 75.9162L0 66.4628V60.0015L16.3629 69.4549V75.9162Z" fill="#93BBE1"/>
  <path d="M16.3629 75.917L32.639 66.5214V60.0601L16.3629 69.4557V75.917Z" fill="#6BA2D6"/>
  <path d="M16.3629 69.4557L0 60.0023L16.2617 50.6211L32.639 60.0601L16.3629 69.4557Z" fill="#CEE0F2"/>
  <path d="M16.3628 67.5038L3.39685 60.0162L16.2761 52.5864L29.2421 60.0596L16.3628 67.5038Z" fill="#5493D2"/>
  <path d="M128.561 54.4077L144.823 45.0121V38.5508L128.561 47.9464V54.4077Z" fill="#6BA2D6"/>
  <path d="M128.561 47.9466V54.4079L112.198 44.9545V38.4932L128.561 47.9466Z" fill="#93BBE1"/>
  <path d="M144.823 38.5506L128.561 47.9462L112.198 38.4928L128.46 29.0972L144.823 38.5506Z" fill="#CEE0F2"/>
  <path d="M128.662 97.5988L144.924 88.2177V81.7563L128.662 91.152V97.5988Z" fill="#6BA2D6"/>
  <path d="M128.662 91.1517V97.5985L112.299 88.1595V81.6982L128.662 91.1517Z" fill="#93BBE1"/>
  <path d="M144.924 81.7567L128.662 91.1523L112.299 81.6989L128.561 72.3032L144.924 81.7567Z" fill="#CEE0F2"/>
  <path d="M166.028 83.5066L149.651 74.0531V67.5918L166.028 77.0453V83.5066Z" fill="#93BBE1"/>
  <path d="M166.028 83.5059L182.29 74.1102V67.6489L166.028 77.0446V83.5059Z" fill="#6BA2D6"/>
  <path d="M166.028 77.0444L149.651 67.5909L165.927 58.1953L182.29 67.6488L166.028 77.0444Z" fill="#5493D2"/>
  <path d="M166.028 76.032L149.651 66.5785V60.1172L166.028 69.5707V76.032Z" fill="#93BBE1"/>
  <path d="M166.028 76.0324L182.29 66.6368V60.1899L166.028 69.5711V76.0324Z" fill="#6BA2D6"/>
  <path d="M166.028 69.5714L149.651 60.118L165.927 50.7368L182.29 60.1903L166.028 69.5714Z" fill="#CEE0F2"/>
  <path d="M166.014 67.6195L153.048 60.1319L165.941 52.7021L178.893 60.1898L166.014 67.6195Z" fill="#5493D2"/>
  <path d="M166.014 64.642L153.048 57.1544V50.7075L166.014 58.1951V64.642Z" fill="#93BBE1"/>
  <path d="M166.014 64.6425L178.893 57.2128V50.7515L166.014 58.1957V64.6425Z" fill="#6BA2D6"/>
  <path d="M166.014 58.1955L153.048 50.7079L165.941 43.2637L178.893 50.7513L166.014 58.1955Z" fill="#CEE0F2"/>
  <path d="M171.275 50.7659L165.985 53.8158L160.68 50.737L165.956 47.687L171.275 50.7659Z" fill="#EBF2F9"/>
  <path d="M91.2966 126.639L74.9338 117.186V110.739L91.2966 120.192V126.639Z" fill="#93BBE1"/>
  <path d="M91.2967 126.638L107.573 117.257V110.796L91.2967 120.192V126.638Z" fill="#6BA2D6"/>
  <path d="M91.2966 120.192L74.9338 110.738L91.1954 101.343L107.573 110.796L91.2966 120.192Z" fill="#5493D2"/>
  <path d="M91.2966 119.18L74.9338 109.726V103.265L91.2966 112.719V119.18Z" fill="#93BBE1"/>
  <path d="M91.2967 119.18L107.573 109.784V103.323L91.2967 112.718V119.18Z" fill="#6BA2D6"/>
  <path d="M91.2966 112.719L74.9338 103.265L91.1954 93.8696L107.573 103.323L91.2966 112.719Z" fill="#CEE0F2"/>
  <path d="M91.2822 110.767L78.3307 103.279L91.2099 95.835L104.176 103.323L91.2822 110.767Z" fill="#5493D2"/>
  <path d="M91.2821 107.79L78.3306 100.302V93.8408L91.2821 101.328V107.79Z" fill="#93BBE1"/>
  <path d="M91.2821 107.79L104.176 100.345V93.8984L91.2821 101.328V107.79Z" fill="#6BA2D6"/>
  <path d="M91.2822 101.329L78.3307 93.8409L91.2099 86.4111L104.176 93.8987L91.2822 101.329Z" fill="#CEE0F2"/>
  <path d="M96.5438 93.8979L91.2678 96.9479L85.9484 93.8835L91.2389 90.8335L96.5438 93.8979Z" fill="#EBF2F9"/>
  <path d="M53.8298 97.5407L70.1059 88.1595V81.6982L53.8298 91.0939V97.5407Z" fill="#6BA2D6"/>
  <path d="M53.8298 97.5407L70.1059 88.1595V81.6982L53.8298 91.0939V97.5407Z" fill="#6BA2D6"/>
  <path d="M53.8298 91.0946V97.5414L37.4669 88.088V81.6411L53.8298 91.0946Z" fill="#93BBE1"/>
  <path d="M70.1059 81.6986L53.8298 91.0942L37.4669 81.6407L53.7286 72.2451L70.1059 81.6986Z" fill="#CEE0F2"/>
  <path d="M91.0942 40.2424L74.7314 30.7889V24.3276L91.0942 33.7811V40.2424Z" fill="#93BBE1"/>
  <path d="M91.0942 40.2417L107.356 30.8461V24.3848L91.0942 33.7804V40.2417Z" fill="#6BA2D6"/>
  <path d="M91.0942 33.7804L74.7314 24.327L90.9931 14.9458L107.356 24.3848L91.0942 33.7804Z" fill="#5493D2"/>
  <path d="M91.0942 32.769L74.7314 23.3155V16.8687L91.0942 26.3076V32.769Z" fill="#93BBE1"/>
  <path d="M91.0942 32.7687L107.356 23.3731V16.9263L91.0942 26.3074V32.7687Z" fill="#6BA2D6"/>
  <path d="M91.0942 26.3078L74.7314 16.8688L90.9931 7.47314L107.356 16.9266L91.0942 26.3078Z" fill="#CEE0F2"/>
  <path d="M91.0797 24.3563L78.1138 16.8687L91.0075 9.43896L103.973 16.9266L91.0797 24.3563Z" fill="#5493D2"/>
  <path d="M91.0798 21.3788L78.1138 13.9056V7.44434L91.0798 14.9319V21.3788Z" fill="#93BBE1"/>
  <path d="M91.0798 21.3789L103.973 13.9491V7.48779L91.0798 14.932V21.3789Z" fill="#6BA2D6"/>
  <path d="M91.0798 14.9318L78.1138 7.44423L91.0075 0L103.973 7.4876L91.0798 14.9318Z" fill="#CEE0F2"/>
  <path d="M96.3414 7.50173L91.0653 10.5517L85.746 7.47282L91.022 4.42285L96.3414 7.50173Z" fill="#EBF2F9"/>
  <path d="M16.3629 64.5262L3.39688 57.0386V50.5918L16.3629 58.0649V64.5262Z" fill="#93BBE1"/>
  <path d="M16.3628 64.5268L29.242 57.0826V50.6357L16.3628 58.0655V64.5268Z" fill="#6BA2D6"/>
  <path d="M16.3629 58.0653L3.39688 50.5922L16.2761 43.1479L29.2421 50.6355L16.3629 58.0653Z" fill="#CEE0F2"/>
  <path d="M135.196 38.5365L128.532 42.3815L121.811 38.5076L128.489 34.6626L135.196 38.5365Z" fill="#EBF2F9"/>
  <path d="M60.3778 38.4784L53.6997 42.3234L46.9927 38.4495L53.6563 34.6045L60.3778 38.4784Z" fill="#EBF2F9"/>
  <path d="M135.355 82.2326L128.677 86.0776L121.97 82.2037L128.648 78.3442L135.355 82.2326Z" fill="#EBF2F9"/>
  <path d="M60.479 81.6838L53.8009 85.5287L47.0939 81.6549L53.7575 77.7954L60.479 81.6838Z" fill="#EBF2F9"/>
  <path d="M21.5667 50.6206L16.2907 53.6706L10.9713 50.6061L16.2473 47.5562L21.5667 50.6206Z" fill="#EBF2F9"/>
  <path d="M62.7917 50.4475C67.4895 53.165 72.1873 55.868 76.8851 58.5855C77.6657 59.0336 78.374 57.8339 77.5934 57.3713C72.8956 54.6538 68.1978 51.9508 63.5 49.2333C62.7194 48.7852 62.0111 49.9849 62.7917 50.4475Z" fill="#93BBE1"/>
  <path d="M29.6758 82.4792C32.1331 83.8958 34.5904 85.3268 37.0622 86.7434C37.8427 87.1915 38.551 85.9917 37.7705 85.5292C35.3131 84.1126 32.8558 82.6816 30.3841 81.265C29.6035 80.8169 28.8952 82.0166 29.6758 82.4792Z" fill="#93BBE1"/>
  <path d="M105.26 66.6804C107.703 65.2638 110.146 63.8617 112.589 62.4451C113.369 61.997 112.661 60.7828 111.88 61.2309C109.437 62.6475 106.994 64.0496 104.552 65.4662C103.771 65.9143 104.479 67.1285 105.26 66.6804Z" fill="#93BBE1"/>
  <path d="M104.508 82.5373C106.966 83.9539 109.423 85.3849 111.895 86.8015C112.675 87.2496 113.384 86.0498 112.603 85.5873C110.146 84.1707 107.688 82.7397 105.217 81.3231C104.436 80.875 103.728 82.0748 104.508 82.5373Z" fill="#93BBE1"/>
  <path d="M67.1426 104.118C69.5999 105.535 72.0572 106.966 74.529 108.383C75.3095 108.831 76.0178 107.631 75.2373 107.168C72.7799 105.752 70.3226 104.321 67.8509 102.904C67.0703 102.456 66.362 103.656 67.1426 104.118Z" fill="#93BBE1"/>
  <path d="M100.67 89.0072C99.9862 89.0072 99.3668 88.8592 98.8769 88.5727L71.4956 72.7651C70.8023 72.3676 70.4141 71.7298 70.4141 71.018C70.4141 70.2415 70.8763 69.5297 71.6898 69.0582L73.7512 67.8657C74.3613 67.5144 75.1286 67.3203 75.9051 67.3203C76.5892 67.3203 77.2085 67.4682 77.6985 67.7548L105.08 83.5623C105.773 83.9598 106.161 84.5977 106.161 85.3095C106.161 86.086 105.699 86.7978 104.886 87.26L102.824 88.4525C102.214 88.8038 101.447 88.9979 100.67 88.9979V89.0072Z" fill="url(#paint0_linear_6304_81317)"/>
  <path d="M73.8712 60.397C73.825 61.0533 73.3351 61.7928 72.7804 62.0424L68.75 63.8543C68.5096 63.9652 68.297 63.956 68.1398 63.8635L98.7288 81.6863C98.886 81.7788 99.0986 81.7788 99.3389 81.6771L103.369 79.8652C103.924 79.6156 104.405 78.8853 104.46 78.2197L73.8712 60.397Z" fill="url(#paint1_linear_6304_81317)"/>
  <path d="M70.5248 59.6304L69.018 60.3052C68.223 60.6565 67.5204 61.7196 67.4557 62.6717L67.4095 63.3003C67.3725 63.8365 67.5389 64.2247 67.8347 64.3911L98.4237 82.2139C98.1279 82.0383 97.9615 81.65 97.9985 81.1231L98.0447 80.4945C98.1187 79.5423 98.8212 78.4885 99.607 78.128L101.114 77.4531L70.5248 59.6304Z" fill="url(#paint2_linear_6304_81317)"/>
  <path d="M112.068 24.0494L81.4792 6.22663L81.5255 5.69971L112.114 23.5225L112.068 24.0494Z" fill="#B1B1B1"/>
  <path d="M113.27 18.5112L82.6809 0.688477C82.9397 0.836383 83.0877 1.17842 83.0507 1.64987L82.9028 3.61888C82.8381 4.45086 82.2187 5.38452 81.5254 5.69882L112.114 23.5216C112.808 23.2073 113.427 22.2736 113.492 21.4417L113.64 19.4726C113.677 19.0012 113.529 18.6592 113.27 18.5112Z" fill="url(#paint3_linear_6304_81317)"/>
  <path d="M104.46 78.2287L73.8712 60.3967L78.1975 3.83154L108.786 21.6543L104.46 78.2287Z" fill="url(#paint4_linear_6304_81317)"/>
  <path d="M112.53 18.0038C113.464 17.5878 114.157 18.161 114.074 19.2795L113.926 21.2485C113.843 22.3763 113.011 23.6335 112.068 24.0495L112.105 23.5226C112.798 23.2083 113.418 22.2746 113.482 21.4427L113.63 19.4736C113.695 18.6417 113.177 18.2164 112.484 18.5215L110.589 19.372C109.896 19.6863 109.276 20.6199 109.212 21.4519L104.885 78.0263C104.811 78.9784 104.109 80.0322 103.323 80.3928L99.2927 82.2046C98.4977 82.5559 97.9153 82.0752 97.9892 81.1231L98.0355 80.4945C98.1094 79.5423 98.812 78.4792 99.5977 78.1279L101.105 77.4531L101.068 77.98L99.5608 78.6549C99.0061 78.9045 98.5254 79.6348 98.47 80.3003L98.4237 80.9289C98.3775 81.5853 98.7843 81.9273 99.3297 81.6777L103.36 79.8659C103.915 79.6163 104.395 78.886 104.451 78.2204L108.777 21.646C108.86 20.5182 109.692 19.2703 110.635 18.845L112.53 17.9946V18.0038Z" fill="#E4E7ED"/>
  <path d="M82.986 0.162499C82.7179 0.00534823 82.3481 -0.00389594 81.9414 0.180988L80.0463 1.03145C79.1126 1.44744 78.2807 2.70465 78.1882 3.83244L108.777 21.6552C108.86 20.5274 109.692 19.2795 110.635 18.8542L112.53 18.0038C112.937 17.8189 113.298 17.8281 113.575 17.9853L82.986 0.162499Z" fill="url(#paint5_linear_6304_81317)"/>
  <path d="M100.088 32.0728L85.1214 23.3463C84.6962 23.0967 84.3911 22.4311 84.4373 21.8579C84.4835 21.2848 84.8718 21.026 85.297 21.2663L100.263 29.9928C100.689 30.2424 100.994 30.908 100.947 31.4811C100.901 32.0543 100.513 32.3131 100.088 32.0728Z" fill="#CFD8DB"/>
  <path d="M102.454 42.3987L81.3313 30.0762C80.9061 29.8266 80.601 29.1611 80.6473 28.5879C80.6935 28.0148 81.0817 27.756 81.507 27.9963L102.63 40.3188C103.055 40.5684 103.36 41.234 103.314 41.8071C103.268 42.3802 102.88 42.6391 102.454 42.3987Z" fill="#CFD8DB"/>
  <path d="M102.048 47.2884L80.9246 34.9659C80.4994 34.7163 80.1943 34.0507 80.2405 33.4776C80.2868 32.9044 80.675 32.6456 81.1002 32.8859L102.223 45.2084C102.648 45.458 102.953 46.1236 102.907 46.6968C102.861 47.2699 102.473 47.5287 102.048 47.2884Z" fill="#CFD8DB"/>
  <path d="M97.2221 49.5998L80.5086 39.8472C80.0834 39.5976 79.7784 38.9321 79.8246 38.3589C79.8708 37.7858 80.259 37.5269 80.6843 37.7673L97.3978 47.5199C97.823 47.7695 98.128 48.4351 98.0818 49.0082C98.0356 49.5814 97.6474 49.8402 97.2221 49.5998Z" fill="#CFD8DB"/>
  <path d="M101.225 57.0696L80.1018 44.7471C79.6766 44.4975 79.3716 43.832 79.4178 43.2588C79.464 42.6857 79.8522 42.4269 80.2775 42.6672L101.4 54.9897C101.826 55.2393 102.131 55.9049 102.084 56.478C102.038 57.0511 101.65 57.31 101.225 57.0696Z" fill="#CFD8DB"/>
  <path d="M86.1475 53.3996L79.6858 49.628C79.2606 49.3784 78.9555 48.7128 79.0018 48.1397C79.048 47.5665 79.4363 47.3077 79.8615 47.5481L86.3232 51.3197C86.7484 51.5693 87.0534 52.2349 87.0072 52.808C86.961 53.3811 86.5728 53.64 86.1475 53.3996Z" fill="#CFD8DB"/>
  <path d="M100.799 72.2212C99.459 71.9901 98.9691 71.1303 98.7195 70.474C98.5531 70.474 98.4144 70.474 98.359 70.4555C97.3329 70.3169 96.5379 69.8639 95.9832 69.1244C95.5118 68.4865 95.2714 67.7747 95.3454 67.2201C95.2714 67.1461 95.2067 67.0722 95.1328 67.0074C95.0681 67.368 94.837 67.6453 94.4395 67.8117C93.5982 68.1722 92.5259 67.9411 91.6385 67.2108C91.204 66.8503 90.8065 66.3603 90.4829 65.7964C90.1594 65.2233 90.1132 64.5392 90.3535 64.1048C90.5569 63.735 90.9544 63.7165 91.241 63.7073C92.1469 63.7258 92.9789 64.3636 93.7461 65.0477C94.1067 65.3712 94.3655 65.704 94.6336 66.0645C94.7168 66.1755 94.8092 66.2956 94.9017 66.4066C94.8092 65.9998 94.5689 65.5191 94.1899 64.9552L94.0604 64.7703C93.6537 64.1787 93.2377 63.5594 93.1268 62.8938C93.0436 62.4316 93.1268 62.0156 93.3579 61.7013C93.552 61.4424 93.8293 61.2853 94.1436 61.2483C94.4949 61.2113 94.7722 61.3223 95.0958 61.4979C95.3639 61.6458 95.6782 61.8399 95.937 62.145C96.1681 62.4223 96.39 62.8938 96.3253 63.2543L96.1219 63.2173C96.1681 62.9677 96.0295 62.5795 95.7799 62.2837C95.5395 61.9971 95.2529 61.8307 94.9941 61.6828C94.6521 61.4887 94.4302 61.4332 94.1714 61.4609C93.9218 61.4887 93.6907 61.6181 93.5335 61.8307C93.3394 62.0895 93.2654 62.4593 93.3394 62.8568C93.4503 63.4854 93.8571 64.077 94.2453 64.6594L94.3747 64.8443C94.8739 65.5931 95.142 66.2217 95.1605 66.7209C95.2345 66.8041 95.3177 66.8965 95.4009 66.9889C95.4748 66.7671 95.6042 66.5914 95.7891 66.462C95.9647 66.3419 96.1496 66.2309 96.3715 66.1755C96.7875 66.0738 97.3883 66.2402 97.8413 66.5822C98.4329 67.0259 98.6455 67.747 98.3035 68.2277C98.1926 68.3848 98.017 68.4865 97.8043 68.5142C97.3144 68.5882 96.6303 68.2924 95.8815 67.7008C95.7614 67.6083 95.6505 67.5066 95.5488 67.4142C95.5488 67.8949 95.7706 68.4773 96.1589 69.0042C96.6766 69.7067 97.4068 70.1135 98.3867 70.2521C98.4329 70.2521 98.5346 70.2706 98.6455 70.2706C98.4607 69.679 98.4699 69.0689 98.6825 68.6252C98.8027 68.3663 99.1725 67.8487 99.5977 67.8487H99.6069C99.8565 67.8487 100.06 68.0335 100.199 68.3848C100.374 68.8193 100.328 69.3647 100.171 69.6513C99.8658 70.2152 99.3481 70.4093 98.9321 70.4648C99.1725 71.0656 99.6347 71.8237 100.827 72.0178L100.79 72.2304L100.799 72.2212ZM99.5977 68.052C99.3204 68.052 98.9968 68.4403 98.8766 68.7084C98.6918 69.1151 98.6918 69.6975 98.8766 70.2521C99.2464 70.2059 99.7271 70.0488 99.9952 69.5403C100.125 69.3092 100.162 68.8285 100.014 68.4588C99.9028 68.1907 99.7641 68.0613 99.6069 68.052H99.5977ZM95.5765 67.1461C95.7059 67.2755 95.8538 67.3957 96.011 67.5251C96.9539 68.2831 97.5178 68.3386 97.7674 68.2924C97.9245 68.2739 98.0447 68.1999 98.1279 68.089C98.396 67.7008 98.2111 67.1091 97.7119 66.7301C97.3052 66.4343 96.769 66.2771 96.4177 66.3603C96.2328 66.4066 96.0572 66.5083 95.9093 66.6192C95.7336 66.7394 95.6227 66.915 95.5765 67.1369V67.1461ZM91.204 63.9199C90.8527 63.9199 90.6493 64.0123 90.5384 64.2065C90.335 64.5762 90.3905 65.1863 90.6678 65.6855C90.9637 66.2217 91.3612 66.7024 91.7679 67.0352C92.5999 67.7192 93.589 67.9411 94.3563 67.6083C94.6983 67.4604 94.8832 67.2385 94.9294 66.9335C94.9294 66.8873 94.9386 66.841 94.9386 66.7856C94.763 66.5822 94.6151 66.3788 94.4579 66.1847C94.1898 65.8334 93.9403 65.5099 93.5982 65.1956C92.8679 64.5392 92.0729 63.9199 91.2317 63.9106C91.2225 63.9106 91.2132 63.9106 91.1947 63.9106L91.204 63.9199Z" fill="#818489"/>
  <path d="M70.7005 9.80392C70.9131 11.6712 71.6064 13.7512 72.7527 15.7572C73.9082 17.7632 75.3503 19.3994 76.8478 20.5087L78.9 24.0769L81.0539 22.829C83.8919 21.165 83.8919 15.8219 81.0539 10.8762C78.216 5.93985 73.6124 3.27753 70.7652 4.94148L68.6113 6.18945L70.6912 9.80392H70.7005Z" fill="url(#paint6_linear_6304_81317)"/>
  <path d="M78.9093 12.1243C81.7473 17.0607 81.7473 22.4131 78.9093 24.077C76.0713 25.741 71.4677 23.0786 68.6205 18.1423C65.7826 13.2059 65.7826 7.85348 68.6205 6.18953C71.4585 4.52558 76.0621 7.1879 78.9093 12.1243Z" fill="#EFF4F9"/>
  <path d="M77.9386 12.6974C80.2404 16.7094 80.2404 21.0449 77.9386 22.3945C75.6368 23.7442 71.9022 21.581 69.5912 17.5783C67.2894 13.5663 67.2894 9.23081 69.5912 7.88116C71.893 6.53151 75.6276 8.69465 77.9386 12.6974Z" fill="#3385FF"/>
  <path d="M73.862 19.1316L73.1409 19.5476C73.1409 19.5476 73.2056 19.5106 73.2334 19.4829L73.9544 19.0669C73.9544 19.0669 73.8897 19.1131 73.862 19.1316Z" fill="#C6C0D0"/>
  <path d="M68.8887 12.8275L69.6097 12.4115C69.8593 12.2636 70.1828 12.3098 70.5156 12.5039C70.8207 12.6796 71.1165 12.9754 71.3661 13.3636L70.6451 13.7796C70.4047 13.3914 70.0996 13.0956 69.7946 12.9199C69.4618 12.735 69.1383 12.6888 68.8887 12.8275Z" fill="#D3E1FC"/>
  <path d="M70.6357 13.7792L71.3568 13.354L72.6972 15.5171L71.9762 15.9331L70.6357 13.7792Z" fill="#D3E1FC"/>
  <path d="M76.9126 16.4882L77.6336 16.063L73.9544 19.0673L73.2334 19.4833L76.9126 16.4882Z" fill="#D3E1FC"/>
  <path d="M75.0359 13.4461L75.757 13.0301C76.0066 12.8822 76.3301 12.9284 76.6629 13.1226L75.9419 13.5386C75.6091 13.3444 75.2855 13.3075 75.0359 13.4461Z" fill="#D3E1FC"/>
  <path d="M75.9419 13.539L76.6629 13.123C76.9495 13.2894 77.2361 13.5575 77.4672 13.918C78.0126 14.7408 78.0866 15.7114 77.6336 16.0719L76.9126 16.4879C77.3655 16.1274 77.2823 15.166 76.7462 14.334C76.5151 13.9735 76.2285 13.7054 75.9419 13.539Z" fill="#D3E1FC"/>
  <path d="M75.942 13.5391C76.2285 13.7055 76.5151 13.9735 76.7462 14.3341C77.2916 15.1568 77.3656 16.1274 76.9126 16.488L73.2334 19.4831C72.9376 19.7234 72.5031 19.6864 72.0779 19.4461C71.7266 19.2427 71.3661 18.8914 71.0796 18.4292L68.9349 14.9719C68.4172 14.1307 68.371 13.1878 68.8424 12.855C69.092 12.6794 69.4433 12.7163 69.7854 12.9197C70.0904 13.0953 70.3862 13.3912 70.6358 13.7794L71.967 15.9333L74.9529 13.5021C75.2025 13.2987 75.5722 13.3264 75.9327 13.5391H75.942Z" fill="white"/>
  <defs>
    <linearGradient id="paint0_linear_6304_81317" x1="70.4141" y1="78.1637" x2="106.171" y2="78.1637" gradientUnits="userSpaceOnUse">
      <stop offset="0.21" stop-color="#F3F4F5"/>
      <stop offset="0.79" stop-color="#E8E9EC"/>
      <stop offset="1" stop-color="#E4E5E9"/>
    </linearGradient>
    <linearGradient id="paint1_linear_6304_81317" x1="84.8718" y1="73.6901" x2="87.8762" y2="68.4856" gradientUnits="userSpaceOnUse">
      <stop offset="0.28" stop-color="#B1B1B1"/>
      <stop offset="0.88" stop-color="#F1F1F2"/>
    </linearGradient>
    <linearGradient id="paint2_linear_6304_81317" x1="82.459" y1="73.0067" x2="85.26" y2="68.1443" gradientUnits="userSpaceOnUse">
      <stop offset="0.14" stop-color="#D5D5D5"/>
      <stop offset="0.67" stop-color="#F2F2F2"/>
    </linearGradient>
    <linearGradient id="paint3_linear_6304_81317" x1="96.2976" y1="14.3883" x2="98.8212" y2="10.0159" gradientUnits="userSpaceOnUse">
      <stop offset="0.28" stop-color="#B1B1B1"/>
      <stop offset="0.81" stop-color="#9D9D9D"/>
    </linearGradient>
    <linearGradient id="paint4_linear_6304_81317" x1="73.8712" y1="41.0301" x2="108.786" y2="41.0301" gradientUnits="userSpaceOnUse">
      <stop stop-color="#EAECEF"/>
      <stop offset="0.67" stop-color="#F2F2F2"/>
    </linearGradient>
    <linearGradient id="paint5_linear_6304_81317" x1="94.3193" y1="13.2985" x2="97.1758" y2="8.35284" gradientUnits="userSpaceOnUse">
      <stop offset="0.15" stop-color="#F2F2F2"/>
      <stop offset="0.54" stop-color="#F9F9F9"/>
    </linearGradient>
    <linearGradient id="paint6_linear_6304_81317" x1="82.0708" y1="22.2558" x2="71.7543" y2="4.37759" gradientUnits="userSpaceOnUse">
      <stop offset="0.11" stop-color="#A7D1FF"/>
      <stop offset="0.64" stop-color="#E3ECF5"/>
      <stop offset="0.81" stop-color="#E0EBF5"/>
      <stop offset="0.89" stop-color="#D9E7F6"/>
      <stop offset="0.95" stop-color="#CDE2F8"/>
      <stop offset="0.99" stop-color="#BBDAFB"/>
      <stop offset="1" stop-color="#B8D9FC"/>
    </linearGradient>
  </defs>
</svg>