<svg width="40" height="40" viewBox="0 0 40 40" fill="none" xmlns="http://www.w3.org/2000/svg">
<path d="M4.68858 21.4258C-4.11245 27.5816 -1.39344 40 20.3229 40C33.4887 40 40 35.3386 40 27.7239C40 12.9926 22.7557 11 17.0672 11C11.3788 11 13.4896 15.2699 4.68858 21.4258Z" fill="#E0F9E0"/>
<g clip-path="url(#clip0_6254_78059)">
<path fill-rule="evenodd" clip-rule="evenodd" d="M34.3333 25.3333V9.33325C34.3333 8.44925 33.982 7.60124 33.3573 6.97591C32.732 6.35124 31.884 5.99992 31 5.99992H19.412L19 5.17592C18.4353 4.04659 17.2813 3.33325 16.0186 3.33325H6.99996C5.15929 3.33325 3.66663 4.82592 3.66663 6.66659V25.3333C3.66663 27.1739 5.15929 28.6666 6.99996 28.6666H31C31.884 28.6666 32.732 28.3153 33.3573 27.6906C33.982 27.0653 34.3333 26.2173 34.3333 25.3333ZM33 11.9999V25.3333C33 25.8639 32.7893 26.3726 32.414 26.7473C32.0393 27.1226 31.5306 27.3333 31 27.3333C25.422 27.3333 12.578 27.3333 6.99996 27.3333C5.89529 27.3333 4.99996 26.4379 4.99996 25.3333V6.66659C4.99996 5.56192 5.89529 4.66659 6.99996 4.66659H16.0186C16.776 4.66659 17.4686 5.09458 17.8073 5.77191L19.7373 9.63125C19.85 9.85725 20.0806 9.99992 20.3333 9.99992H31C31.5306 9.99992 32.0393 10.2106 32.414 10.5859C32.7893 10.9606 33 11.4693 33 11.9999ZM20.0786 7.33325L20.7453 8.66659H31C31.7253 8.66659 32.4266 8.90325 33 9.33325C33 8.80259 32.7893 8.29392 32.414 7.91925C32.0393 7.54392 31.5306 7.33325 31 7.33325H20.0786Z" fill="#313131"/>
</g>
<defs>
<clipPath id="clip0_6254_78059">
<rect width="32" height="32" fill="white" transform="translate(3)"/>
</clipPath>
</defs>
</svg>
