<svg width="40" height="40" viewBox="0 0 40 40" fill="none" xmlns="http://www.w3.org/2000/svg">
<path d="M4.68858 21.4258C-4.11245 27.5816 -1.39344 40 20.3229 40C33.4887 40 40 35.3386 40 27.7239C40 12.9926 22.7557 11 17.0672 11C11.3788 11 13.4896 15.2699 4.68858 21.4258Z" fill="#FAE8F5"/>
<g clip-path="url(#clip0_6254_77906)">
<g clip-path="url(#clip1_6254_77906)">
<path d="M29.4375 31.9375H2.5625C1.184 31.9375 0.0625 30.816 0.0625 29.4375V5.0625C0.0625 3.684 1.184 2.5625 2.5625 2.5625H4.4375C4.78263 2.5625 5.0625 2.84238 5.0625 3.1875V4.40769C5.0625 4.75688 5.3325 5.05044 5.6645 5.06206C6.01113 5.07706 6.3125 4.79813 6.3125 4.4375V3.1875C6.3125 2.84238 6.59231 2.5625 6.9375 2.5625H11.3125C11.6576 2.5625 11.9375 2.84238 11.9375 3.1875V4.40769C11.9375 4.75688 12.2075 5.05044 12.5395 5.06206C12.8885 5.07706 13.1875 4.79562 13.1875 4.4375V3.1875C13.1875 2.84238 13.4673 2.5625 13.8125 2.5625H18.1875C18.5326 2.5625 18.8125 2.84238 18.8125 3.1875V4.40769C18.8125 4.75688 19.0825 5.05044 19.4145 5.06206C19.7601 5.077 20.0625 4.79888 20.0625 4.4375V3.1875C20.0625 2.84238 20.3424 2.5625 20.6875 2.5625H25.0625C25.4076 2.5625 25.6875 2.84238 25.6875 3.1875V4.40769C25.6875 4.75688 25.9575 5.05044 26.2895 5.06206C26.6373 5.07706 26.9375 4.797 26.9375 4.4375V3.1875C26.9375 2.84238 27.2174 2.5625 27.5625 2.5625H29.4375C30.816 2.5625 31.9375 3.684 31.9375 5.0625V29.4375C31.9375 30.816 30.816 31.9375 29.4375 31.9375ZM2.5625 3.8125C1.87325 3.8125 1.3125 4.37325 1.3125 5.0625V29.4375C1.3125 30.1268 1.87325 30.6875 2.5625 30.6875H29.4375C30.1268 30.6875 30.6875 30.1268 30.6875 29.4375V5.0625C30.6875 4.37325 30.1268 3.8125 29.4375 3.8125H28.1875V4.4375C28.1875 5.49775 27.3123 6.34806 26.2458 6.31131C25.2318 6.27581 24.4375 5.43963 24.4375 4.40769V3.8125H21.3125V4.4375C21.3125 5.49831 20.4366 6.34806 19.3708 6.31131C18.3568 6.27581 17.5625 5.43963 17.5625 4.40769V3.8125H14.4375V4.4375C14.4375 5.49694 13.5629 6.34813 12.4958 6.31131C11.4818 6.27581 10.6875 5.43963 10.6875 4.40769V3.8125H7.5625V4.4375C7.5625 5.495 6.69006 6.34813 5.62075 6.31131C4.60675 6.27581 3.8125 5.43963 3.8125 4.40769V3.8125H2.5625Z" fill="#313131"/>
<path d="M31.3125 10.0625H0.6875C0.342313 10.0625 0.0625 9.78269 0.0625 9.4375C0.0625 9.09231 0.342313 8.8125 0.6875 8.8125H31.3125C31.6576 8.8125 31.9375 9.09231 31.9375 9.4375C31.9375 9.78269 31.6576 10.0625 31.3125 10.0625Z" fill="#313131"/>
<path d="M26.3125 6.3125C25.2786 6.3125 24.4375 5.47137 24.4375 4.4375V1.9375C24.4375 0.903625 25.2786 0.0625 26.3125 0.0625C27.3485 0.0625 28.1875 0.901562 28.1875 1.9375V4.4375C28.1875 5.47137 27.3464 6.3125 26.3125 6.3125ZM26.3125 1.3125C25.9679 1.3125 25.6875 1.59288 25.6875 1.9375V4.4375C25.6875 4.78212 25.9679 5.0625 26.3125 5.0625C26.6571 5.0625 26.9375 4.78212 26.9375 4.4375V1.9375C26.9375 1.59256 26.6576 1.3125 26.3125 1.3125Z" fill="#313131"/>
<path d="M19.4375 6.3125C18.4036 6.3125 17.5625 5.47137 17.5625 4.4375V1.9375C17.5625 0.903625 18.4036 0.0625 19.4375 0.0625C20.4735 0.0625 21.3125 0.901562 21.3125 1.9375V4.4375C21.3125 5.47137 20.4714 6.3125 19.4375 6.3125ZM19.4375 1.3125C19.0929 1.3125 18.8125 1.59288 18.8125 1.9375V4.4375C18.8125 4.78212 19.0929 5.0625 19.4375 5.0625C19.7821 5.0625 20.0625 4.78212 20.0625 4.4375V1.9375C20.0625 1.59256 19.7826 1.3125 19.4375 1.3125Z" fill="#313131"/>
<path d="M12.5625 6.3125C11.5286 6.3125 10.6875 5.47137 10.6875 4.4375V1.9375C10.6875 0.903625 11.5286 0.0625 12.5625 0.0625C13.5985 0.0625 14.4375 0.901562 14.4375 1.9375V4.4375C14.4375 5.47137 13.5964 6.3125 12.5625 6.3125ZM12.5625 1.3125C12.2179 1.3125 11.9375 1.59288 11.9375 1.9375V4.4375C11.9375 4.78212 12.2179 5.0625 12.5625 5.0625C12.9071 5.0625 13.1875 4.78212 13.1875 4.4375V1.9375C13.1875 1.59256 12.9076 1.3125 12.5625 1.3125Z" fill="#313131"/>
<path d="M5.6875 6.3125C4.65363 6.3125 3.8125 5.47137 3.8125 4.4375V1.9375C3.8125 0.903625 4.65363 0.0625 5.6875 0.0625C6.72344 0.0625 7.5625 0.901562 7.5625 1.9375V4.4375C7.5625 5.47137 6.72137 6.3125 5.6875 6.3125ZM5.6875 1.3125C5.34288 1.3125 5.0625 1.59288 5.0625 1.9375V4.4375C5.0625 4.78212 5.34288 5.0625 5.6875 5.0625C6.03212 5.0625 6.3125 4.78212 6.3125 4.4375V1.9375C6.3125 1.59256 6.03256 1.3125 5.6875 1.3125Z" fill="#313131"/>
<path d="M8.1875 16.3125H5.0625C4.71731 16.3125 4.4375 16.0326 4.4375 15.6875V12.5625C4.4375 12.2173 4.71731 11.9375 5.0625 11.9375H8.1875C8.53263 11.9375 8.8125 12.2173 8.8125 12.5625V15.6875C8.8125 16.0326 8.53263 16.3125 8.1875 16.3125ZM5.6875 15.0625H7.5625V13.1875H5.6875V15.0625Z" fill="#313131"/>
<path d="M14.4375 16.3125H11.3125C10.9673 16.3125 10.6875 16.0326 10.6875 15.6875V12.5625C10.6875 12.2173 10.9673 11.9375 11.3125 11.9375H14.4375C14.7827 11.9375 15.0625 12.2173 15.0625 12.5625V15.6875C15.0625 16.0326 14.7827 16.3125 14.4375 16.3125ZM11.9375 15.0625H13.8125V13.1875H11.9375V15.0625Z" fill="#313131"/>
<path d="M20.6875 16.3125H17.5625C17.2174 16.3125 16.9375 16.0326 16.9375 15.6875V12.5625C16.9375 12.2173 17.2174 11.9375 17.5625 11.9375H20.6875C21.0326 11.9375 21.3125 12.2173 21.3125 12.5625V15.6875C21.3125 16.0326 21.0326 16.3125 20.6875 16.3125ZM18.1875 15.0625H20.0625V13.1875H18.1875V15.0625Z" fill="#313131"/>
<path d="M26.9375 16.3125H23.8125C23.4674 16.3125 23.1875 16.0326 23.1875 15.6875V12.5625C23.1875 12.2173 23.4674 11.9375 23.8125 11.9375H26.9375C27.2826 11.9375 27.5625 12.2173 27.5625 12.5625V15.6875C27.5625 16.0326 27.2826 16.3125 26.9375 16.3125ZM24.4375 15.0625H26.3125V13.1875H24.4375V15.0625Z" fill="#313131"/>
<path d="M20.6875 22.5625H17.5625C17.2174 22.5625 16.9375 22.2826 16.9375 21.9375V18.8125C16.9375 18.4674 17.2174 18.1875 17.5625 18.1875H20.6875C21.0326 18.1875 21.3125 18.4674 21.3125 18.8125V21.9375C21.3125 22.2826 21.0326 22.5625 20.6875 22.5625ZM18.1875 21.3125H20.0625V19.4375H18.1875V21.3125Z" fill="#313131"/>
<path d="M26.9375 22.5625H23.8125C23.4674 22.5625 23.1875 22.2826 23.1875 21.9375V18.8125C23.1875 18.4674 23.4674 18.1875 23.8125 18.1875H26.9375C27.2826 18.1875 27.5625 18.4674 27.5625 18.8125V21.9375C27.5625 22.2826 27.2826 22.5625 26.9375 22.5625ZM24.4375 21.3125H26.3125V19.4375H24.4375V21.3125Z" fill="#313131"/>
<path d="M20.6875 28.8125H17.5625C17.2174 28.8125 16.9375 28.5326 16.9375 28.1875V25.0625C16.9375 24.7174 17.2174 24.4375 17.5625 24.4375H20.6875C21.0326 24.4375 21.3125 24.7174 21.3125 25.0625V28.1875C21.3125 28.5326 21.0326 28.8125 20.6875 28.8125ZM18.1875 27.5625H20.0625V25.6875H18.1875V27.5625Z" fill="#313131"/>
<path d="M26.9375 28.8125H23.8125C23.4674 28.8125 23.1875 28.5326 23.1875 28.1875V25.0625C23.1875 24.7174 23.4674 24.4375 23.8125 24.4375H26.9375C27.2826 24.4375 27.5625 24.7174 27.5625 25.0625V28.1875C27.5625 28.5326 27.2826 28.8125 26.9375 28.8125ZM24.4375 27.5625H26.3125V25.6875H24.4375V27.5625Z" fill="#313131"/>
<path d="M8.1875 22.5625H5.0625C4.71731 22.5625 4.4375 22.2826 4.4375 21.9375V18.8125C4.4375 18.4674 4.71731 18.1875 5.0625 18.1875H8.1875C8.53263 18.1875 8.8125 18.4674 8.8125 18.8125V21.9375C8.8125 22.2826 8.53263 22.5625 8.1875 22.5625ZM5.6875 21.3125H7.5625V19.4375H5.6875V21.3125Z" fill="#313131"/>
<path d="M14.4375 22.5625H11.3125C10.9673 22.5625 10.6875 22.2826 10.6875 21.9375V18.8125C10.6875 18.4674 10.9673 18.1875 11.3125 18.1875H14.4375C14.7827 18.1875 15.0625 18.4674 15.0625 18.8125V21.9375C15.0625 22.2826 14.7827 22.5625 14.4375 22.5625ZM11.9375 21.3125H13.8125V19.4375H11.9375V21.3125Z" fill="#313131"/>
<path d="M8.1875 28.8125H5.0625C4.71731 28.8125 4.4375 28.5326 4.4375 28.1875V25.0625C4.4375 24.7174 4.71731 24.4375 5.0625 24.4375H8.1875C8.53263 24.4375 8.8125 24.7174 8.8125 25.0625V28.1875C8.8125 28.5326 8.53263 28.8125 8.1875 28.8125ZM5.6875 27.5625H7.5625V25.6875H5.6875V27.5625Z" fill="#313131"/>
<path d="M14.4375 28.8125H11.3125C10.9673 28.8125 10.6875 28.5326 10.6875 28.1875V25.0625C10.6875 24.7174 10.9673 24.4375 11.3125 24.4375H14.4375C14.7827 24.4375 15.0625 24.7174 15.0625 25.0625V28.1875C15.0625 28.5326 14.7827 28.8125 14.4375 28.8125ZM11.9375 27.5625H13.8125V25.6875H11.9375V27.5625Z" fill="#313131"/>
</g>
</g>
<defs>
<clipPath id="clip0_6254_77906">
<rect width="32" height="32" fill="white"/>
</clipPath>
<clipPath id="clip1_6254_77906">
<rect width="32" height="32" fill="white"/>
</clipPath>
</defs>
</svg>
