<svg width="40" height="40" viewBox="0 0 40 40" fill="none" xmlns="http://www.w3.org/2000/svg">
<path d="M4.68858 21.4258C-4.11245 27.5816 -1.39344 40 20.3229 40C33.4887 40 40 35.3386 40 27.7239C40 12.9926 22.7557 11 17.0672 11C11.3788 11 13.4896 15.2699 4.68858 21.4258Z" fill="#E3F0FF"/>
<g clip-path="url(#clip0_6274_78645)">
<path d="M7.75479 16.0806H17.9574C18.3208 16.0806 18.6156 15.7859 18.6156 15.4224C18.6156 15.0589 18.3208 14.7642 17.9574 14.7642H7.75479C7.39112 14.7642 7.09656 15.0589 7.09656 15.4224C7.09656 15.7859 7.39112 16.0806 7.75479 16.0806Z" fill="black"/>
<path d="M13.863 19.0427H7.75479C7.39112 19.0427 7.09656 19.3375 7.09656 19.701C7.09656 20.0644 7.39112 20.3592 7.75479 20.3592H13.863C14.2264 20.3592 14.5212 20.0644 14.5212 19.701C14.5212 19.3375 14.2264 19.0427 13.863 19.0427Z" fill="black"/>
<path d="M25.2898 17.5812V6.20721C25.2893 4.38968 23.8159 2.91668 21.9986 2.91606H19.2999V1.65884C19.2999 1.29517 19.0053 1.00061 18.6416 1.00061C18.2782 1.00061 17.9834 1.29517 17.9834 1.65884V2.91606H9.03146V1.65884C9.03146 1.29517 8.7369 1.00061 8.37323 1.00061C8.00976 1.00061 7.715 1.29517 7.715 1.65884V2.91606H5.01625C3.19892 2.91668 1.72592 4.38968 1.7251 6.20721V24.0387C1.72592 25.856 3.19892 27.329 5.01625 27.3298H17.2003C18.4668 30.5737 21.8633 32.4566 25.2854 31.8124C28.7076 31.1683 31.1871 28.1794 31.1877 24.6969C31.1941 21.1622 28.6467 18.2133 25.2898 17.5812ZM5.02304 4.23252H7.72178V5.48974C7.72178 5.85321 8.01634 6.14797 8.38002 6.14797C8.74348 6.14797 9.03825 5.85321 9.03825 5.48974V4.23252H17.9902V5.48974C17.9902 5.85321 18.2847 6.14797 18.6484 6.14797C19.0119 6.14797 19.3066 5.85321 19.3066 5.48974V4.23252H22.0054C23.0946 4.23561 23.9768 5.11784 23.9801 6.20721V7.80013H3.04835V6.20721C3.04917 5.11681 3.93284 4.23335 5.02304 4.23252ZM5.02304 26.0134C3.93367 26.0103 3.05143 25.1278 3.04835 24.0387V9.11001H23.9733V17.4564H23.9535C21.8038 17.4597 19.7664 18.4164 18.3911 20.0689C17.0156 21.7213 16.4446 23.8988 16.8315 26.0134H5.02304ZM23.9535 30.621C20.6819 30.621 18.0295 27.9687 18.0295 24.6969C18.0295 21.4251 20.6819 18.7728 23.9535 18.7728C27.2254 18.7728 29.8776 21.4251 29.8776 24.6969C29.8727 27.9667 27.2233 30.6161 23.9535 30.621Z" fill="black"/>
<path d="M27.0012 22.3339L23.0915 26.0661L21.0705 24.0387C20.8144 23.7824 20.3989 23.7824 20.1426 24.0387C19.8861 24.295 19.8861 24.7105 20.1426 24.9668L22.624 27.4483C22.7474 27.5726 22.916 27.6415 23.0915 27.6392C23.2614 27.6407 23.4247 27.5744 23.5455 27.4547L27.9161 23.275C28.042 23.1546 28.1148 22.9895 28.1187 22.8152C28.1222 22.641 28.0566 22.4725 27.9359 22.3471C27.6796 22.0899 27.2647 22.084 27.0012 22.3339Z" fill="black"/>
</g>
<defs>
<clipPath id="clip0_6274_78645">
<rect width="32" height="32" fill="white"/>
</clipPath>
</defs>
</svg>
