<svg width="40" height="40" viewBox="0 0 40 40" fill="none" xmlns="http://www.w3.org/2000/svg">
<path d="M4.68858 21.4258C-4.11245 27.5816 -1.39344 40 20.3229 40C33.4887 40 40 35.3386 40 27.7239C40 12.9926 22.7557 11 17.0672 11C11.3788 11 13.4896 15.2699 4.68858 21.4258Z" fill="#FFE0E0"/>
<g clip-path="url(#clip0_6274_78654)">
<path d="M25.6 12.8C29.1292 12.8 32 9.92917 32 6.4C32 2.87083 29.1292 0 25.6 0C23.0372 0 20.8276 1.51745 19.8065 3.69818L18.0927 3.06563C18.113 2.93438 18.1333 2.80313 18.1333 2.66667C18.1333 1.19635 16.937 0 15.4667 0C13.9964 0 12.8 1.19635 12.8 2.66667C12.8 4.13698 13.9964 5.33333 15.4667 5.33333C16.4219 5.33333 17.2549 4.82396 17.7258 4.06719L19.4367 4.6987C19.2865 5.24167 19.2 5.81016 19.2 6.4C19.2 7.0987 19.3161 7.76953 19.5242 8.39948L13.6586 10.8854C12.5846 8.85495 10.4529 7.46667 8 7.46667C7.20521 7.46667 6.44688 7.61927 5.74401 7.8849L4.26875 4.78464C4.91146 4.29714 5.33333 3.53333 5.33333 2.66667C5.33333 1.19635 4.13698 0 2.66667 0C1.19635 0 0 1.19635 0 2.66667C0 4.13698 1.19635 5.33333 2.66667 5.33333C2.88854 5.33333 3.1013 5.29818 3.30781 5.24635L4.78125 8.34349C2.88203 9.45495 1.6 11.5115 1.6 13.8667C1.6 16.0789 2.72865 18.0315 4.43958 19.1813L3.46406 20.9349C3.21016 20.8549 2.94609 20.8 2.66667 20.8C1.19635 20.8 0 21.9964 0 23.4667C0 24.937 1.19635 26.1333 2.66667 26.1333C4.13698 26.1333 5.33333 24.937 5.33333 23.4667C5.33333 22.6591 4.96484 21.943 4.39635 21.4539L5.37396 19.6966C6.17604 20.0596 7.06354 20.2667 8 20.2667C9.46354 20.2667 10.8096 19.7674 11.8891 18.9375L13.9883 21.2469C12.9237 22.3904 12.2667 23.918 12.2667 25.6C12.2667 25.9263 12.2992 26.2443 12.3461 26.5573L9.8763 27.1435C9.4513 26.2346 8.53438 25.6 7.46667 25.6C5.99635 25.6 4.8 26.7964 4.8 28.2667C4.8 29.737 5.99635 30.9333 7.46667 30.9333C8.93698 30.9333 10.1333 29.737 10.1333 28.2667C10.1333 28.2372 10.1253 28.2096 10.1247 28.1802L12.5898 27.5958C13.4305 30.1497 15.8346 32 18.6667 32C22.1958 32 25.0667 29.1292 25.0667 25.6C25.0667 24.5057 24.7898 23.4753 24.3034 22.574L27.4362 20.537C27.9206 21.0276 28.5914 21.3333 29.3333 21.3333C30.8036 21.3333 32 20.137 32 18.6667C32 17.1964 30.8036 16 29.3333 16C27.863 16 26.6667 17.1964 26.6667 18.6667C26.6667 19.0112 26.7375 19.3385 26.857 19.6411L23.7169 21.6826C23.0885 20.8747 22.2727 20.2224 21.3333 19.7893L23.9365 12.5729C24.4677 12.7161 25.024 12.8 25.6 12.8ZM15.4667 4.26667C14.5846 4.26667 13.8667 3.5487 13.8667 2.66667C13.8667 1.78464 14.5846 1.06667 15.4667 1.06667C16.3487 1.06667 17.0667 1.78464 17.0667 2.66667C17.0667 3.5487 16.3487 4.26667 15.4667 4.26667ZM1.06667 2.66667C1.06667 1.78464 1.78464 1.06667 2.66667 1.06667C3.5487 1.06667 4.26667 1.78464 4.26667 2.66667C4.26667 3.5487 3.5487 4.26667 2.66667 4.26667C1.78464 4.26667 1.06667 3.5487 1.06667 2.66667ZM2.66667 25.0667C1.78464 25.0667 1.06667 24.3487 1.06667 23.4667C1.06667 22.5846 1.78464 21.8667 2.66667 21.8667C3.5487 21.8667 4.26667 22.5846 4.26667 23.4667C4.26667 24.3487 3.5487 25.0667 2.66667 25.0667ZM7.46667 29.8667C6.58464 29.8667 5.86667 29.1487 5.86667 28.2667C5.86667 27.3846 6.58464 26.6667 7.46667 26.6667C8.3487 26.6667 9.06667 27.3846 9.06667 28.2667C9.06667 29.1487 8.3487 29.8667 7.46667 29.8667ZM29.3333 17.0667C30.2154 17.0667 30.9333 17.7846 30.9333 18.6667C30.9333 19.5487 30.2154 20.2667 29.3333 20.2667C28.4513 20.2667 27.7333 19.5487 27.7333 18.6667C27.7333 17.7846 28.4513 17.0667 29.3333 17.0667ZM22.4591 10.7008C22.6971 9.46719 23.7846 8.53333 25.0667 8.53333H26.1333C27.4154 8.53333 28.5029 9.46719 28.7409 10.7008C27.8586 11.3466 26.775 11.7333 25.6 11.7333C24.425 11.7333 23.3414 11.3466 22.4591 10.7008ZM25.6 7.46667C24.718 7.46667 24 6.7487 24 5.86667C24 4.98464 24.718 4.26667 25.6 4.26667C26.482 4.26667 27.2 4.98464 27.2 5.86667C27.2 6.7487 26.482 7.46667 25.6 7.46667ZM25.6 1.06667C28.5409 1.06667 30.9333 3.45911 30.9333 6.4C30.9333 7.73333 30.4378 8.95156 29.6255 9.8875C29.2518 8.90339 28.4727 8.11797 27.5018 7.73021C27.974 7.24896 28.2667 6.59193 28.2667 5.86667C28.2667 4.39635 27.0703 3.2 25.6 3.2C24.1297 3.2 22.9333 4.39635 22.9333 5.86667C22.9333 6.59193 23.226 7.24896 23.6982 7.73021C22.7273 8.11797 21.9482 8.90339 21.5745 9.8875C20.7622 8.95156 20.2667 7.73333 20.2667 6.4C20.2667 3.45911 22.6591 1.06667 25.6 1.06667ZM2.66667 13.8667C2.66667 10.9258 5.05911 8.53333 8 8.53333C10.9409 8.53333 13.3333 10.9258 13.3333 13.8667C13.3333 15.2042 12.8346 16.4255 12.0182 17.3628C11.6458 16.375 10.8651 15.5857 9.89167 15.1969C10.3633 14.7156 10.656 14.0586 10.656 13.3333C10.656 11.863 9.45964 10.6667 7.98932 10.6667C6.51901 10.6667 5.32266 11.863 5.32266 13.3333C5.32266 14.0586 5.61537 14.7156 6.0875 15.1969C5.11953 15.5828 4.34141 16.3654 3.96641 17.3456C3.15885 16.4107 2.66667 15.1964 2.66667 13.8667ZM6.38932 13.3333C6.38932 12.4513 7.10729 11.7333 7.98932 11.7333C8.87135 11.7333 9.58932 12.4513 9.58932 13.3333C9.58932 14.2154 8.87135 14.9333 7.98932 14.9333C7.10729 14.9333 6.38932 14.2154 6.38932 13.3333ZM4.85026 18.1604C5.09063 16.9302 6.17656 16 7.45599 16H8.52266C9.80703 16 10.8966 16.937 11.1313 18.1745C10.2508 18.8164 9.17057 19.2 8 19.2C6.82083 19.2 5.73385 18.8107 4.85026 18.1604ZM15.5169 29.8938C15.7573 28.6635 16.8432 27.7333 18.1227 27.7333H19.1893C20.4737 27.7333 21.5633 28.6703 21.7979 29.9078C20.9174 30.5497 19.8372 30.9333 18.6667 30.9333C17.4875 30.9333 16.4005 30.544 15.5169 29.8938ZM18.656 26.6667C17.774 26.6667 17.056 25.9487 17.056 25.0667C17.056 24.1846 17.774 23.4667 18.656 23.4667C19.538 23.4667 20.256 24.1846 20.256 25.0667C20.256 25.9487 19.538 26.6667 18.656 26.6667ZM24 25.6C24 26.9375 23.5013 28.1589 22.6849 29.0961C22.3125 28.1083 21.5318 27.319 20.5583 26.9302C21.0299 26.449 21.3227 25.7919 21.3227 25.0667C21.3227 23.5964 20.1263 22.4 18.656 22.4C17.1857 22.4 15.9893 23.5964 15.9893 25.0667C15.9893 25.7919 16.282 26.449 16.7542 26.9302C15.7862 27.3161 15.0081 28.0987 14.6331 29.0789C13.8255 28.144 13.3333 26.9297 13.3333 25.6C13.3333 22.6591 15.7258 20.2667 18.6667 20.2667C21.6076 20.2667 24 22.6591 24 25.6ZM20.3302 19.4271C19.799 19.2839 19.2427 19.2 18.6667 19.2C17.2031 19.2 15.857 19.6992 14.7776 20.5292L12.6784 18.2198C13.743 17.0763 14.4 15.5487 14.4 13.8667C14.4 13.168 14.2839 12.4971 14.0758 11.8672L19.9414 9.38125C20.5984 10.6234 21.6529 11.6203 22.9339 12.2107L20.3302 19.4271Z" fill="#313131"/>
</g>
<defs>
<clipPath id="clip0_6274_78654">
<rect width="32" height="32" fill="white"/>
</clipPath>
</defs>
</svg>
