<svg width="156" height="62" viewBox="0 0 156 62" fill="none" xmlns="http://www.w3.org/2000/svg">
<rect x="1.5" y="1.5" width="57" height="59" rx="28.5" fill="white"/>
<rect x="1.5" y="1.5" width="57" height="59" rx="28.5" stroke="#DAECFF" stroke-width="3"/>
<path opacity="0.4" d="M40.72 24.0933L33.04 18.72C30.9467 17.2533 27.7333 17.3333 25.72 18.8933L19.04 24.1067C17.7067 25.1467 16.6533 27.28 16.6533 28.96V38.16C16.6533 41.56 19.4133 44.3333 22.8133 44.3333H37.1867C40.5867 44.3333 43.3467 41.5733 43.3467 38.1733V29.1333C43.3467 27.3333 42.1867 25.12 40.72 24.0933Z" fill="#48D58C"/>
<path d="M36.44 30.0267C36.3467 29.8 36.16 29.6133 35.9333 29.52C35.8133 29.4667 35.6933 29.4533 35.5733 29.4533H33.0933C32.5733 29.4533 32.16 29.8667 32.16 30.3867C32.16 30.9067 32.5733 31.32 33.0933 31.32H33.3333L30.52 34.1333L29.16 32.1067C29 31.88 28.76 31.72 28.48 31.6933C28.1867 31.6667 27.9333 31.76 27.7333 31.96L23.76 35.9333C23.4 36.2933 23.4 36.88 23.76 37.2533C23.9467 37.44 24.1733 37.52 24.4133 37.52C24.6533 37.52 24.8933 37.4267 25.0667 37.2533L28.24 34.08L29.6 36.1067C29.76 36.3333 30 36.4933 30.28 36.52C30.5733 36.5467 30.8267 36.4533 31.0267 36.2533L34.6533 32.6267V32.8667C34.6533 33.3867 35.0667 33.8 35.5867 33.8C36.1067 33.8 36.52 33.3867 36.52 32.8667V30.3867C36.5067 30.2533 36.4933 30.1333 36.44 30.0267Z" fill="#48D58C"/>
<rect x="47.5" y="1.5" width="59" height="59" rx="29.5" fill="white"/>
<rect x="47.5" y="1.5" width="59" height="59" rx="29.5" stroke="#DAECFF" stroke-width="3"/>
<path opacity="0.4" d="M73 17.6667C69.5067 17.6667 66.6667 20.5067 66.6667 24C66.6667 27.4267 69.3467 30.2 72.84 30.32C72.9467 30.3067 73.0534 30.3067 73.1334 30.32C73.16 30.32 73.1734 30.32 73.2 30.32C73.2134 30.32 73.2134 30.32 73.2267 30.32C76.64 30.2 79.32 27.4267 79.3334 24C79.3334 20.5067 76.4934 17.6667 73 17.6667Z" fill="#2187FF"/>
<path d="M79.7733 33.8667C76.0533 31.3867 69.9867 31.3867 66.24 33.8667C64.5467 35 63.6133 36.5333 63.6133 38.1733C63.6133 39.8133 64.5467 41.3333 66.2267 42.4533C68.0933 43.7067 70.5467 44.3333 73 44.3333C75.4533 44.3333 77.9067 43.7067 79.7733 42.4533C81.4533 41.32 82.3867 39.8 82.3867 38.1467C82.3733 36.5067 81.4533 34.9867 79.7733 33.8667Z" fill="#2187FF"/>
<path opacity="0.4" d="M87.6534 24.7867C87.8667 27.3733 86.0267 29.64 83.48 29.9467C83.4667 29.9467 83.4667 29.9467 83.4534 29.9467H83.4134C83.3334 29.9467 83.2534 29.9467 83.1867 29.9733C81.8934 30.04 80.7067 29.6267 79.8134 28.8667C81.1867 27.64 81.9734 25.8 81.8134 23.8C81.72 22.72 81.3467 21.7333 80.7867 20.8933C81.2934 20.64 81.88 20.48 82.48 20.4267C85.0934 20.2 87.4267 22.1467 87.6534 24.7867Z" fill="#2187FF"/>
<path d="M90.32 37.12C90.2133 38.4133 89.3867 39.5333 88 40.2933C86.6667 41.0267 84.9867 41.3733 83.32 41.3333C84.28 40.4667 84.84 39.3867 84.9467 38.24C85.08 36.5867 84.2933 35 82.72 33.7333C81.8267 33.0267 80.7867 32.4667 79.6533 32.0533C82.6 31.2 86.3067 31.7733 88.5867 33.6133C89.8133 34.6 90.44 35.84 90.32 37.12Z" fill="#2187FF"/>
<rect x="95.5" y="1.5" width="59" height="59" rx="29.5" fill="white"/>
<rect x="95.5" y="1.5" width="59" height="59" rx="29.5" stroke="#DAECFF" stroke-width="3"/>
<path d="M118.333 25.6667H114.333C112.867 25.6667 111.667 24.4667 111.667 23V20.3333C111.667 18.8667 112.867 17.6667 114.333 17.6667H118.333C119.8 17.6667 121 18.8667 121 20.3333V23C121 24.4667 119.8 25.6667 118.333 25.6667Z" fill="#F5A0BE"/>
<path d="M136.733 24.3333H131.933C131.053 24.3333 130.333 23.6133 130.333 22.7333V20.6C130.333 19.72 131.053 19 131.933 19H136.733C137.613 19 138.333 19.72 138.333 20.6V22.7333C138.333 23.6133 137.613 24.3333 136.733 24.3333Z" fill="#F5A0BE"/>
<path d="M136.733 34.3333H131.933C131.053 34.3333 130.333 33.6133 130.333 32.7333V30.6C130.333 29.72 131.053 29 131.933 29H136.733C137.613 29 138.333 29.72 138.333 30.6V32.7333C138.333 33.6133 137.613 34.3333 136.733 34.3333Z" fill="#F5A0BE"/>
<path opacity="0.37" d="M130.333 32.6667C130.88 32.6667 131.333 32.2133 131.333 31.6667C131.333 31.12 130.88 30.6667 130.333 30.6667H126.667V22.6667H130.333C130.88 22.6667 131.333 22.2133 131.333 21.6667C131.333 21.12 130.88 20.6667 130.333 20.6667H121C120.453 20.6667 120 21.12 120 21.6667C120 22.2133 120.453 22.6667 121 22.6667H124.667V39C124.667 41.0267 126.307 42.6667 128.333 42.6667H130.333C130.88 42.6667 131.333 42.2133 131.333 41.6667C131.333 41.12 130.88 40.6667 130.333 40.6667H128.333C127.413 40.6667 126.667 39.92 126.667 39V32.6667H130.333Z" fill="#F5A0BE"/>
<path d="M136.733 44.3333H131.933C131.053 44.3333 130.333 43.6133 130.333 42.7333V40.6C130.333 39.72 131.053 39 131.933 39H136.733C137.613 39 138.333 39.72 138.333 40.6V42.7333C138.333 43.6133 137.613 44.3333 136.733 44.3333Z" fill="#F5A0BE"/>
</svg>
