<svg width="184" height="140" viewBox="0 0 184 140" fill="none" xmlns="http://www.w3.org/2000/svg">
<rect x="0.752441" width="182.495" height="140" rx="8" fill="#EFF6FF"/>
<g clip-path="url(#clip0_2254_66386)">
<path d="M171.247 18.1845C171.247 13.4471 169.19 12 164.965 12H19.0354C14.8103 12 12.7524 13.7919 12.7524 18.5258V102.45H171.247V18.1845Z" fill="#014080"/>
<path d="M12.7524 102.453V104.726C12.7524 109.464 14.8103 111.252 19.0354 111.252H164.961C169.186 111.252 171.244 109.119 171.244 104.385V102.453H12.7524Z" fill="#0150A0"/>
<path d="M164.961 107.924H19.0354C14.8103 107.924 12.7524 108.184 12.7524 104.347V104.726C12.7524 109.464 14.8103 111.252 19.0354 111.252H164.961C169.186 111.252 171.244 109.119 171.244 104.385V104.006C171.244 107.368 169.186 107.924 164.961 107.924Z" fill="#A0CFFF"/>
<path d="M166.113 16.4984H17.8868V96.9308H166.113V16.4984Z" fill="#44484B"/>
<path d="M106.736 121.447H77.2635L78.1078 111.255H105.615L106.736 121.447Z" fill="#A0CFFF"/>
<path d="M106.012 114.935L105.608 111.255H78.101L77.7968 114.935H106.012Z" fill="#0150A0"/>
<path d="M111.891 125.867C112.736 127.041 112.096 128 110.476 128H73.5204C71.8967 128 71.2608 127.041 72.1052 125.867L77.2635 121.45H106.736L111.895 125.867H111.891Z" fill="#0150A0"/>
<path d="M166.11 16.4984H17.8868V97.2824H166.11V16.4984Z" fill="#E3F0FF"/>
<path d="M117.142 24.485H66.8546C64.3041 24.485 62.2365 26.5494 62.2365 29.096V86.0534C62.2365 88.6 64.3041 90.6644 66.8546 90.6644H117.142C119.692 90.6644 121.76 88.6 121.76 86.0534V29.096C121.76 26.5494 119.692 24.485 117.142 24.485Z" stroke="#5065FC" stroke-width="1.13" stroke-miterlimit="10"/>
<mask id="mask0_2254_66386" style="mask-type:luminance" maskUnits="userSpaceOnUse" x="62" y="24" width="60" height="67">
<path d="M117.142 24.485H66.8546C64.3041 24.485 62.2365 26.5494 62.2365 29.096V86.0534C62.2365 88.6 64.3041 90.6644 66.8546 90.6644H117.142C119.692 90.6644 121.76 88.6 121.76 86.0534V29.096C121.76 26.5494 119.692 24.485 117.142 24.485Z" fill="white"/>
</mask>
<g mask="url(#mask0_2254_66386)">
<path d="M83.4165 78.9133L61.7715 84.9544V90.6645H122.228V84.7872L99.0486 78.9133H83.4165Z" fill="#0160C0"/>
<path d="M86.2503 73.4831L85.3855 80.8007C85.3855 80.8007 91.2104 85.1456 97.7531 80.8007L96.5259 73.4831H86.2503Z" fill="#C0DFFF"/>
<path d="M105.8 51.9262C105.848 51.2128 105.889 50.479 105.916 49.7282C105.971 49.2333 106.002 48.7281 106.002 48.2162C106.002 47.9295 105.991 47.6462 105.974 47.3629C105.974 47.3561 105.974 47.3458 105.974 47.339C105.516 40.0862 99.4315 34.342 91.9863 34.342C84.5411 34.342 77.9677 40.5538 77.9677 48.2196C77.9677 48.8681 78.0155 49.5097 78.1044 50.1343C78.1454 50.6429 78.1933 51.2436 78.2514 51.9091C77.6532 52.1241 74.9117 53.2846 76.8259 55.9434C76.8259 55.9434 77.4378 56.5475 77.3079 57.2437C77.178 57.94 76.761 59.2677 77.701 59.9605C78.2206 60.3428 78.747 60.0049 79.1128 59.6261C79.3589 61.4043 79.6461 63.2371 79.9845 65.0085C79.9845 65.0085 86.8588 74.9849 91.9829 75.1931C91.9829 75.1931 96.2558 76.0259 103.913 64.6945C103.913 64.6945 104.409 62.7763 104.914 59.6534C105.28 60.0186 105.793 60.3326 106.299 59.9571C107.239 59.2643 106.819 57.9366 106.692 57.2403C106.566 56.5441 107.174 55.9399 107.174 55.9399C109.037 53.3494 106.487 52.1822 105.8 51.9228V51.9262Z" fill="#C0DFFF"/>
<path d="M77.9848 49.4619C77.9848 49.4619 77.6498 46.414 78.0019 41.6869C78.3574 36.9632 81.1023 36.3523 81.1023 36.3523C81.1023 36.3523 80.5007 35.9871 79.6598 36.7516C78.8188 37.5127 79.6495 35.9154 81.4817 35.5639C83.314 35.2123 84.2301 30.8675 89.2653 31.7071C89.2653 31.7071 86.975 31.7822 86.2127 32.6969C86.2127 32.6969 88.1202 31.9358 88.1988 32.3146C88.1988 32.3146 86.4418 33.2293 86.8998 33.5331C86.8998 33.5331 90.2566 31.1712 92.9298 31.1712C92.9298 31.1712 95.4491 29.7992 97.4317 30.2565C97.4317 30.2565 99.4178 31.0962 99.6434 33.6082C99.6434 33.6082 100.56 33.3795 100.864 32.7686C101.168 32.1576 101.78 33.987 101.551 34.3693C101.322 34.7516 102.351 35.8164 102.867 35.1304C102.867 35.1304 103.229 36.656 102.238 36.656C102.238 36.656 105.089 36.2738 105.954 38.7141C106.819 41.1511 105.906 50.2913 105.906 50.2913L105.051 50.1616C105.051 50.1616 105.212 43.3627 104.374 43.059C103.533 42.7552 101.493 39.8575 98.6213 41.6869C95.7499 43.5163 96.8199 41.2296 96.5122 40.7722C96.208 40.3149 95.4833 42.6767 94.3552 42.6767C93.2272 42.6767 92.2359 41.9019 91.2445 40.2295C90.2532 38.5605 90.5574 41.9907 90.9403 41.9907C91.3232 41.9907 91.3984 44.0488 87.8877 41.4582C84.3771 38.8677 79.4171 43.1341 79.4171 43.1341C79.4171 43.1341 78.7676 48.3731 78.9556 49.3493L77.9745 49.4585L77.9848 49.4619Z" fill="#0160C0"/>
</g>
<path d="M97.7496 35.4443H109.023V46.4959" stroke="#61AFFF" stroke-width="3.32" stroke-miterlimit="10"/>
<path d="M86.3289 35.4443H75.0552V46.4959" stroke="#61AFFF" stroke-width="3.32" stroke-miterlimit="10"/>
<path d="M97.7496 71.988H109.023V60.9365" stroke="#61AFFF" stroke-width="3.32" stroke-miterlimit="10"/>
<path d="M86.3289 71.988H75.0552V60.9365" stroke="#61AFFF" stroke-width="3.32" stroke-miterlimit="10"/>
<path d="M87.2895 65.0629L77.5609 55.3493L81.0613 51.8578L87.2895 58.0764L103.017 42.3694L106.518 45.8644L87.2895 65.0629Z" fill="white"/>
</g>
<defs>
<clipPath id="clip0_2254_66386">
<rect width="158.495" height="116" fill="white" transform="translate(12.7524 12)"/>
</clipPath>
</defs>
</svg>
