<svg width="49" height="48" viewBox="0 0 49 48" fill="none" xmlns="http://www.w3.org/2000/svg">
<rect x="0.333008" width="48" height="48" rx="8" fill="#E3F0FF"/>
<path d="M26.5947 27.4375H21.5947" stroke="#3ABFF8" stroke-width="1.3" stroke-miterlimit="10" stroke-linecap="round" stroke-linejoin="round"/>
<path d="M24.0947 24.998V29.998" stroke="#3ABFF8" stroke-width="1.3" stroke-miterlimit="10" stroke-linecap="round" stroke-linejoin="round"/>
<path d="M24.993 14.5181L24.963 14.5881L22.063 21.3181H19.213C18.533 21.3181 17.883 21.4581 17.293 21.7081L19.043 17.5281L19.083 17.4281L19.153 17.2681C19.173 17.2081 19.193 17.1481 19.223 17.0981C20.533 14.0681 22.013 13.3781 24.993 14.5181Z" stroke="#3ABFF8" stroke-width="1.3" stroke-linecap="round" stroke-linejoin="round"/>
<path d="M30.3835 21.5176C29.9335 21.3776 29.4535 21.3176 28.9735 21.3176H22.0635L24.9635 14.5876L24.9935 14.5176C25.1435 14.5676 25.2835 14.6376 25.4335 14.6976L27.6435 15.6276C28.8735 16.1376 29.7335 16.6676 30.2535 17.3076C30.3535 17.4276 30.4335 17.5376 30.5035 17.6676C30.5935 17.8076 30.6635 17.9476 30.7035 18.0976C30.7435 18.1876 30.7735 18.2776 30.7935 18.3576C31.0635 19.1976 30.9035 20.2276 30.3835 21.5176Z" stroke="#3ABFF8" stroke-width="1.3" stroke-linecap="round" stroke-linejoin="round"/>
<path d="M33.8547 26.1984V28.1484C33.8547 28.3484 33.8447 28.5484 33.8347 28.7484C33.6447 32.2384 31.6947 33.9984 27.9947 33.9984H20.1947C19.9547 33.9984 19.7147 33.9784 19.4847 33.9484C16.3047 33.7384 14.6047 32.0384 14.3947 28.8584C14.3647 28.6284 14.3447 28.3884 14.3447 28.1484V26.1984C14.3447 24.1884 15.5647 22.4584 17.3047 21.7084C17.9047 21.4584 18.5447 21.3184 19.2247 21.3184H28.9847C29.4747 21.3184 29.9547 21.3884 30.3947 21.5184C32.3847 22.1284 33.8547 23.9884 33.8547 26.1984Z" stroke="#3ABFF8" stroke-width="1.3" stroke-linecap="round" stroke-linejoin="round"/>
<path d="M19.043 17.5273L17.293 21.7073C15.553 22.4573 14.333 24.1873 14.333 26.1973V23.2673C14.333 20.4273 16.353 18.0573 19.043 17.5273Z" stroke="#3ABFF8" stroke-width="1.3" stroke-linecap="round" stroke-linejoin="round"/>
<path d="M33.8516 23.2677V26.1977C33.8516 23.9977 32.3916 22.1277 30.3916 21.5277C30.9116 20.2277 31.0616 19.2077 30.8116 18.3577C30.7916 18.2677 30.7616 18.1777 30.7216 18.0977C32.5816 19.0577 33.8516 21.0277 33.8516 23.2677Z" stroke="#3ABFF8" stroke-width="1.3" stroke-linecap="round" stroke-linejoin="round"/>
</svg>
