<svg xmlns="http://www.w3.org/2000/svg" width="32" height="32" viewBox="0 0 32 32" fill="none">
  <path d="M16 24.2668C18.9455 24.2668 21.3333 21.879 21.3333 18.9334C21.3333 15.9879 18.9455 13.6001 16 13.6001C13.0544 13.6001 10.6666 15.9879 10.6666 18.9334C10.6666 21.879 13.0544 24.2668 16 24.2668Z" stroke="#48D58C" stroke-width="1.3" stroke-miterlimit="10" stroke-linecap="round" stroke-linejoin="round"/>
  <path d="M16.3333 17.2666V18.5066C16.3333 18.9733 16.0933 19.4133 15.68 19.6533L14.6666 20.2666" stroke="#48D58C" stroke-width="1.3" stroke-miterlimit="10" stroke-linecap="round" stroke-linejoin="round"/>
  <path d="M10.6666 29.3333H21.3333C26.6933 29.3333 27.6533 27.1867 27.9333 24.5733L28.9333 13.9067C29.2933 10.6533 28.36 8 22.6666 8H9.33331C3.63997 8 2.70664 10.6533 3.06664 13.9067L4.06664 24.5733C4.34664 27.1867 5.30664 29.3333 10.6666 29.3333Z" stroke="#48D58C" stroke-width="1.3" stroke-miterlimit="10" stroke-linecap="round" stroke-linejoin="round"/>
  <path d="M10.6666 7.99984V6.93317C10.6666 4.57317 10.6666 2.6665 14.9333 2.6665H17.0666C21.3333 2.6665 21.3333 4.57317 21.3333 6.93317V7.99984" stroke="#48D58C" stroke-width="1.3" stroke-miterlimit="10" stroke-linecap="round" stroke-linejoin="round"/>
  <path d="M28.8667 14.6665C26.56 16.3465 24 17.5198 21.3467 18.1865" stroke="#48D58C" stroke-width="1.3" stroke-miterlimit="10" stroke-linecap="round" stroke-linejoin="round"/>
  <path d="M3.49329 15.0269C5.71995 16.5469 8.14662 17.6269 10.6666 18.2402" stroke="#48D58C" stroke-width="1.3" stroke-miterlimit="10" stroke-linecap="round" stroke-linejoin="round"/>
</svg>