<svg width="25" height="24" viewBox="0 0 25 24" fill="none" xmlns="http://www.w3.org/2000/svg">
<path d="M7.25358 5.20446L7.89084 5.33253L7.25358 5.20446ZM7.0937 6V6.65C7.40332 6.65 7.66996 6.43161 7.73096 6.12807L7.0937 6ZM16.7399 6L16.1026 6.12806C16.1636 6.43161 16.4302 6.65 16.7399 6.65V6ZM16.58 5.20447L17.2173 5.07641V5.07641L16.58 5.20447ZM7.89084 5.33253C7.97061 4.93558 8.3193 4.65 8.72418 4.65V3.35C7.70007 3.35 6.8181 4.07235 6.61632 5.07639L7.89084 5.33253ZM7.73096 6.12807L7.89084 5.33253L6.61632 5.07639L6.45645 5.87193L7.73096 6.12807ZM5.69177 6.65H7.0937V5.35H5.69177V6.65ZM3.34177 9C3.34177 7.70213 4.3939 6.65 5.69177 6.65V5.35C3.67593 5.35 2.04177 6.98416 2.04177 9H3.34177ZM3.34177 17V9H2.04177V17H3.34177ZM5.69177 19.35C4.3939 19.35 3.34177 18.2979 3.34177 17H2.04177C2.04177 19.0158 3.67593 20.65 5.69177 20.65V19.35ZM18.6918 19.35H5.69177V20.65H18.6918V19.35ZM21.0418 17C21.0418 18.2979 19.9896 19.35 18.6918 19.35V20.65C20.7076 20.65 22.3418 19.0158 22.3418 17H21.0418ZM21.0418 9V17H22.3418V9H21.0418ZM18.6918 6.65C19.9896 6.65 21.0418 7.70213 21.0418 9H22.3418C22.3418 6.98416 20.7076 5.35 18.6918 5.35V6.65ZM16.7399 6.65H18.6918V5.35H16.7399V6.65ZM15.9427 5.33253L16.1026 6.12806L17.3771 5.87194L17.2173 5.07641L15.9427 5.33253ZM15.1094 4.65C15.5143 4.65 15.863 4.93559 15.9427 5.33253L17.2173 5.07641C17.0155 4.07236 16.1335 3.35 15.1094 3.35V4.65ZM8.72418 4.65H15.1094V3.35H8.72418V4.65Z" fill="#F4F4F4"/>
<circle cx="12.1918" cy="13" r="3" stroke="#F4F4F4" stroke-width="1.3"/>
</svg>
