<svg width="32" height="32" viewBox="0 0 32 32" fill="none" xmlns="http://www.w3.org/2000/svg">
<path d="M10.6667 2.6665V6.6665" stroke="#8A8A8A" stroke-width="1.3" stroke-miterlimit="10" stroke-linecap="round" stroke-linejoin="round"/>
<path d="M21.3333 2.6665V6.6665" stroke="#8A8A8A" stroke-width="1.3" stroke-miterlimit="10" stroke-linecap="round" stroke-linejoin="round"/>
<path d="M24 29.3332C26.9455 29.3332 29.3333 26.9454 29.3333 23.9999C29.3333 21.0543 26.9455 18.6665 24 18.6665C21.0545 18.6665 18.6667 21.0543 18.6667 23.9999C18.6667 26.9454 21.0545 29.3332 24 29.3332Z" stroke="#8A8A8A" stroke-width="1.3" stroke-linecap="round" stroke-linejoin="round"/>
<path d="M4.66666 12.1201H27.3333" stroke="#8A8A8A" stroke-width="1.3" stroke-miterlimit="10" stroke-linecap="round" stroke-linejoin="round"/>
<path d="M16 29.3332H10.6667C6 29.3332 4 26.6665 4 22.6665V11.3332C4 7.33317 6 4.6665 10.6667 4.6665H21.3333C26 4.6665 28 7.33317 28 11.3332V15.9998" stroke="#8A8A8A" stroke-width="1.3" stroke-miterlimit="10" stroke-linecap="round" stroke-linejoin="round"/>
<path d="M15.994 18.2668H16.0059" stroke="#8A8A8A" stroke-width="2" stroke-linecap="round" stroke-linejoin="round"/>
<path d="M11.0591 18.2668H11.0711" stroke="#8A8A8A" stroke-width="2" stroke-linecap="round" stroke-linejoin="round"/>
<path d="M11.0591 22.2668H11.0711" stroke="#8A8A8A" stroke-width="2" stroke-linecap="round" stroke-linejoin="round"/>
<path d="M25.52 25.4798L22.6933 22.6665" stroke="#8A8A8A" stroke-width="1.3" stroke-miterlimit="10" stroke-linecap="round" stroke-linejoin="round"/>
<path d="M25.4933 22.6934L22.6667 25.5201" stroke="#8A8A8A" stroke-width="1.3" stroke-miterlimit="10" stroke-linecap="round" stroke-linejoin="round"/>
</svg>
