<svg width="48" height="48" viewBox="0 0 48 48" fill="none" xmlns="http://www.w3.org/2000/svg">
  <rect width="48" height="48" rx="4" fill="#F4F4F4" />
  <path
    d="M19.0618 17.2045L19.6991 17.3325L19.0618 17.2045ZM18.9019 18V18.65C19.2115 18.65 19.4782 18.4316 19.5392 18.1281L18.9019 18ZM28.5481 18L27.9108 18.1281C27.9718 18.4316 28.2385 18.65 28.5481 18.65V18ZM28.3882 17.2045L29.0255 17.0764V17.0764L28.3882 17.2045ZM19.6991 17.3325C19.7788 16.9356 20.1275 16.65 20.5324 16.65V15.35C19.5083 15.35 18.6263 16.0724 18.4246 17.0764L19.6991 17.3325ZM19.5392 18.1281L19.6991 17.3325L18.4246 17.0764L18.2647 17.8719L19.5392 18.1281ZM17.5 18.65H18.9019V17.35H17.5V18.65ZM15.15 21C15.15 19.7021 16.2021 18.65 17.5 18.65V17.35C15.4842 17.35 13.85 18.9842 13.85 21H15.15ZM15.15 29V21H13.85V29H15.15ZM17.5 31.35C16.2021 31.35 15.15 30.2979 15.15 29H13.85C13.85 31.0158 15.4842 32.65 17.5 32.65V31.35ZM30.5 31.35H17.5V32.65H30.5V31.35ZM32.85 29C32.85 30.2979 31.7979 31.35 30.5 31.35V32.65C32.5158 32.65 34.15 31.0158 34.15 29H32.85ZM32.85 21V29H34.15V21H32.85ZM30.5 18.65C31.7979 18.65 32.85 19.7021 32.85 21H34.15C34.15 18.9842 32.5158 17.35 30.5 17.35V18.65ZM28.5481 18.65H30.5V17.35H28.5481V18.65ZM27.751 17.3325L27.9108 18.1281L29.1853 17.8719L29.0255 17.0764L27.751 17.3325ZM26.9176 16.65C27.3225 16.65 27.6712 16.9356 27.751 17.3325L29.0255 17.0764C28.8237 16.0724 27.9417 15.35 26.9176 15.35V16.65ZM20.5324 16.65H26.9176V15.35H20.5324V16.65Z"
    fill="#8A8A8A"
  />
  <circle cx="24" cy="25" r="3" stroke="#8A8A8A" stroke-width="1.3" />
</svg>