<svg width="24" height="24" viewBox="0 0 24 24" fill="none" xmlns="http://www.w3.org/2000/svg">
<path d="M3.15039 10.77V10.14C3.15039 6.2 6.35039 3 10.2904 3H13.0104C16.9504 3 20.1504 6.2 20.1504 10.14V10.77" stroke="#313131" stroke-width="1.3" stroke-miterlimit="10"/>
<path d="M12.6504 21.76C16.2004 21.76 19.1504 19.16 19.6804 15.77" stroke="#313131" stroke-width="1.3" stroke-miterlimit="10" stroke-linecap="round"/>
<path d="M16.7804 7.27002H6.52039C5.48762 7.27002 4.65039 8.10725 4.65039 9.14002V17.4C4.65039 18.4328 5.48762 19.27 6.52039 19.27H16.7804C17.8132 19.27 18.6504 18.4328 18.6504 17.4V9.14002C18.6504 8.10725 17.8132 7.27002 16.7804 7.27002Z" stroke="#313131" stroke-width="1.3" stroke-miterlimit="10"/>
<path d="M3.02039 10.77H4.65039V15.77H3.02039C2.26039 15.77 1.65039 15.16 1.65039 14.4V12.14C1.65039 11.38 2.26039 10.77 3.02039 10.77Z" stroke="#313131" stroke-width="1.3" stroke-miterlimit="10"/>
<path d="M20.2804 15.77H18.6504V10.77H20.2804C21.0404 10.77 21.6504 11.38 21.6504 12.14V14.4C21.6504 15.16 21.0404 15.77 20.2804 15.77Z" stroke="#313131" stroke-width="1.3" stroke-miterlimit="10"/>
<path d="M12.6504 15.6201H10.6504" stroke="#313131" stroke-width="1.3" stroke-miterlimit="10" stroke-linecap="round"/>
<path d="M9.2998 11.8301V12.8301" stroke="#313131" stroke-width="1.3" stroke-miterlimit="10" stroke-linecap="round"/>
<path d="M14 11.8301V12.8301" stroke="#313131" stroke-width="1.3" stroke-miterlimit="10" stroke-linecap="round"/>
</svg>
