<svg width="24" height="24" viewBox="0 0 24 24" fill="none" xmlns="http://www.w3.org/2000/svg">
<path d="M20.5 15V10.14C20.5 6.2 17.3 3 13.36 3H10.64C6.7 3 3.5 6.2 3.5 10.14V15" stroke="white" stroke-width="1.3" stroke-miterlimit="10"/>
<path d="M13 21.7601C16.94 21.7601 20.14 18.5601 20.14 14.6201" stroke="white" stroke-width="1.3" stroke-miterlimit="10" stroke-linecap="round"/>
<path opacity="0.5" d="M17.13 7.27002H6.87C5.83723 7.27002 5 8.10725 5 9.14002V17.4C5 18.4328 5.83723 19.27 6.87 19.27H17.13C18.1628 19.27 19 18.4328 19 17.4V9.14002C19 8.10725 18.1628 7.27002 17.13 7.27002Z" fill="white"/>
<path d="M3.37 10.77H5V15.77H3.37C2.61 15.77 2 15.16 2 14.4V12.14C2 11.38 2.61 10.77 3.37 10.77Z" fill="white"/>
<path d="M20.63 15.77H19V10.77H20.63C21.39 10.77 22 11.38 22 12.14V14.4C22 15.16 21.39 15.77 20.63 15.77Z" fill="white"/>
<path d="M13 15.6201H11" stroke="white" stroke-width="1.3" stroke-miterlimit="10" stroke-linecap="round"/>
<path d="M9.65039 11.8301V12.8301" stroke="white" stroke-width="1.3" stroke-miterlimit="10" stroke-linecap="round"/>
<path d="M14.3506 11.8301V12.8301" stroke="white" stroke-width="1.3" stroke-miterlimit="10" stroke-linecap="round"/>
</svg>
