<svg width="32" height="32" viewBox="0 0 32 32" fill="none" xmlns="http://www.w3.org/2000/svg">
<rect width="32" height="32" rx="16" fill="#E7F7FE"/>
<path d="M13.3285 12.6505V13.3226C13.3285 13.6907 13.0319 13.9947 12.655 13.9947H11.9896C11.6208 13.9947 11.3161 14.2908 11.3161 14.6669V15.339C11.3161 15.7071 11.0195 16.0111 10.6426 16.0111H9.97719C9.60838 16.0111 9.30371 15.7151 9.30371 15.339V14.6589C9.30371 13.1866 10.5063 11.9863 11.9816 11.9863H12.655C13.0319 11.9863 13.3285 12.2824 13.3285 12.6505Z" fill="#3AB2F8"/>
<path d="M16.0107 22.0603V21.3774C16.0107 21.0079 16.3074 20.7107 16.6762 20.7107H17.3497C17.7185 20.7107 18.0231 20.4134 18.0231 20.0359V19.3611C18.0231 18.9916 18.3198 18.6943 18.6886 18.6943H19.3701C19.7389 18.6943 20.0356 18.9916 20.0356 19.3611V20.0359C20.0356 21.514 18.8329 22.719 17.3577 22.719H16.6842C16.3074 22.727 16.0107 22.4218 16.0107 22.0603Z" fill="#3AB2F8"/>
<path d="M16.7806 24.9997H12.2996C8.56103 24.9997 7.06738 23.506 7.06738 19.7674V15.2865C7.06738 11.5479 8.56103 10.0542 12.2996 10.0542H16.7806C20.5192 10.0542 22.0128 11.5479 22.0128 15.2865V19.7674C22.0128 23.506 20.5192 24.9997 16.7806 24.9997Z" stroke="#3AB2F8" stroke-width="1.3" stroke-linecap="round" stroke-linejoin="round"/>
<path d="M10.3057 10.0542C10.8691 7.95235 12.4165 7.06689 15.2875 7.06689H19.7684C23.507 7.06689 25.0007 8.56055 25.0007 12.2991V16.7801C25.0007 19.6511 24.1152 21.1984 22.0134 21.7619" stroke="#3AB2F8" stroke-width="1.3" stroke-linecap="round" stroke-linejoin="round"/>
</svg>
