<svg xmlns="http://www.w3.org/2000/svg" width="24" height="24" viewBox="0 0 24 24" fill="none">
  <path d="M21 7V17C21 20 19.5 22 16 22H8C4.5 22 3 20 3 17V7C3 4 4.5 2 8 2H16C19.5 2 21 4 21 7Z" stroke="#292D32" stroke-width="1.3" stroke-miterlimit="10" stroke-linecap="round" stroke-linejoin="round"/>
  <path d="M15.3482 11.5202L12.3807 14.6612C12.2687 14.7804 12.1602 15.0154 12.1385 15.178L12.0048 16.3491C11.9578 16.772 12.2614 17.0612 12.6807 16.9889L13.8446 16.7901C14.0072 16.7612 14.235 16.6419 14.347 16.519L17.3145 13.378C17.8278 12.8358 18.0591 12.2178 17.2603 11.4623C16.4651 10.7141 15.8615 10.978 15.3482 11.5202Z" stroke="#292D32" stroke-width="1.3" stroke-miterlimit="10" stroke-linecap="round" stroke-linejoin="round"/>
  <path d="M14.853 12.043C15.0085 13.0406 15.8181 13.8032 16.8229 13.9044" stroke="#292D32" stroke-width="1.3" stroke-miterlimit="10" stroke-linecap="round" stroke-linejoin="round"/>
  <path d="M7 5H17" stroke="#313131" stroke-width="1.3" stroke-miterlimit="10" stroke-linecap="round" stroke-linejoin="round"/>
  <path d="M7 8H17" stroke="#313131" stroke-width="1.3" stroke-miterlimit="10" stroke-linecap="round" stroke-linejoin="round"/>
  <path d="M6 17L7 15L8 17H10" stroke="#313131" stroke-width="1.3" stroke-linecap="round" stroke-linejoin="round"/>
</svg>