<svg xmlns="http://www.w3.org/2000/svg" width="80" height="80" viewBox="0 0 80 80" fill="none">
  <g clip-path="url(#clip0_5461_92047)">
    <rect width="80" height="80" rx="40" fill="#EFEFEF"/>
    <path opacity="0.6" d="M41.2147 37.7802V80.3344H16.6564C13.273 80.3344 10.5022 77.6219 10.5022 74.2969V31.0135C10.5022 23.3719 16.2189 19.901 23.1897 23.3135L36.1105 29.701C38.9105 31.0719 41.2147 34.7177 41.2147 37.7802Z" fill="#8A8A8A"/>
    <path d="M30.9189 44.0182H20.7981C19.6023 44.0182 18.6106 43.1588 18.6106 42.1224C18.6106 41.086 19.6023 40.2266 20.7981 40.2266H30.9189C32.1148 40.2266 33.1064 41.086 33.1064 42.1224C33.1064 43.1588 32.1439 44.0182 30.9189 44.0182Z" fill="#EFEFEF"/>
    <path d="M30.9189 55.6823H20.7981C19.6023 55.6823 18.6106 54.8228 18.6106 53.7865C18.6106 52.7501 19.6023 51.8906 20.7981 51.8906H30.9189C32.1148 51.8906 33.1064 52.7501 33.1064 53.7865C33.1064 54.8228 32.1439 55.6823 30.9189 55.6823Z" fill="#EFEFEF"/>
    <path d="M68.9229 60.0589V73.038C68.9229 77.063 65.6563 80.3297 61.6313 80.3297H41.2146V46.5547L42.5854 46.8464L54.3688 49.4714L55.7688 49.7922L61.7188 51.1339C63.1479 51.4255 64.4604 51.9214 65.5979 52.6505C65.5979 52.6797 65.6271 52.6797 65.6271 52.6797C65.9188 52.8839 66.2104 53.1172 66.4729 53.3797C67.8146 54.7214 68.6896 56.6755 68.8938 59.5339C68.8938 59.7089 68.9229 59.8839 68.9229 60.0589Z" fill="#8A8A8A"/>
  </g>
  <defs>
    <clipPath id="clip0_5461_92047">
      <rect width="80" height="80" rx="40" fill="white"/>
    </clipPath>
  </defs>
</svg>