<svg width="24" height="24" viewBox="0 0 24 24" fill="none" xmlns="http://www.w3.org/2000/svg">
<path d="M17 22.75H7C6.59 22.75 6.25 22.41 6.25 22C6.25 21.59 6.59 21.25 7 21.25H17C17.41 21.25 17.75 21.59 17.75 22C17.75 22.41 17.41 22.75 17 22.75Z" fill="white"/>
<path opacity="0.4" d="M18 19H6C3.79 19 2 17.21 2 15V6C2 3.79 3.79 2 6 2H18C20.21 2 22 3.79 22 6V15C22 17.21 20.21 19 18 19Z" fill="white"/>
<path d="M6.22353 13.088C5.65819 13.088 5.16486 12.9707 4.74353 12.736C4.32753 12.5013 4.00486 12.168 3.77553 11.736C3.54619 11.2987 3.43153 10.7787 3.43153 10.176C3.43153 9.57333 3.54619 9.056 3.77553 8.624C4.00486 8.192 4.32753 7.86133 4.74353 7.632C5.16486 7.39733 5.65819 7.28 6.22353 7.28C6.61286 7.28 6.97286 7.336 7.30353 7.448C7.63953 7.55467 7.91686 7.71467 8.13553 7.928L7.78353 8.768C7.54353 8.576 7.30086 8.44 7.05553 8.36C6.81019 8.27467 6.54619 8.232 6.26353 8.232C5.73019 8.232 5.31153 8.39733 5.00753 8.728C4.70353 9.05333 4.55153 9.53333 4.55153 10.168C4.55153 10.808 4.70353 11.296 5.00753 11.632C5.31153 11.9627 5.73019 12.128 6.26353 12.128C6.54619 12.128 6.81019 12.088 7.05553 12.008C7.30086 11.9227 7.54353 11.784 7.78353 11.592L8.13553 12.432C7.91686 12.6453 7.63953 12.808 7.30353 12.92C6.97286 13.032 6.61286 13.088 6.22353 13.088ZM8.83921 13V7.36H11.3592C11.9992 7.36 12.4899 7.50667 12.8312 7.8C13.1779 8.088 13.3512 8.50133 13.3512 9.04C13.3512 9.344 13.2899 9.60533 13.1672 9.824C13.0445 10.0427 12.8739 10.2187 12.6552 10.352C12.4365 10.4853 12.1859 10.5707 11.9032 10.608L11.9272 10.6L12.0472 10.616C12.1805 10.6427 12.3005 10.7013 12.4072 10.792C12.5192 10.8827 12.6259 11.0213 12.7272 11.208L13.6792 13H12.4952L11.5752 11.272C11.5112 11.1547 11.4392 11.064 11.3592 11C11.2845 10.9307 11.1965 10.8827 11.0952 10.856C10.9939 10.8293 10.8712 10.816 10.7272 10.816H9.91921V13H8.83921ZM9.91921 9.96H11.2472C11.5992 9.96 11.8605 9.888 12.0312 9.744C12.2019 9.6 12.2872 9.384 12.2872 9.096C12.2872 8.808 12.1992 8.59467 12.0232 8.456C11.8525 8.312 11.5859 8.24 11.2232 8.24H9.91921V9.96ZM14.2424 13V7.36H15.4024L17.2344 10.976H17.1784L19.0024 7.36H20.1464V13H19.1224V8.968H19.1464L17.5624 12.088H16.8264L15.2424 8.968H15.2744V13H14.2424Z" fill="white"/>
</svg>
