<svg width="32" height="32" viewBox="0 0 32 32" fill="none" xmlns="http://www.w3.org/2000/svg">
<circle cx="16" cy="16" r="16" fill="#F4F4F4"/>
<path d="M16 10.3496C14.2272 10.3456 12.4986 10.9026 11.0616 11.9408C9.62461 12.979 8.55294 14.4453 8 16.1296C8.54277 17.825 9.61009 19.304 11.048 20.3535C12.4858 21.4029 14.2199 21.9684 16 21.9684C17.7801 21.9684 19.5142 21.4029 20.952 20.3535C22.3899 19.304 23.4572 17.825 24 16.1296C23.4457 14.4461 22.3737 12.9807 20.937 11.9427C19.5003 10.9047 17.7724 10.3471 16 10.3496Z" stroke="#C2C2C2" stroke-width="1.3" stroke-linejoin="round"/>
<path d="M16 18C17.1046 18 18 17.1046 18 16C18 14.8954 17.1046 14 16 14C14.8954 14 14 14.8954 14 16C14 17.1046 14.8954 18 16 18Z" stroke="#C2C2C2" stroke-width="1.3" stroke-linejoin="round"/>
</svg>
