<svg width="24" height="24" viewBox="0 0 24 24" fill="none" xmlns="http://www.w3.org/2000/svg">
<path d="M12 5.00002C10.0056 4.9955 8.0609 5.62209 6.4443 6.79009C4.82769 7.95809 3.62206 9.60761 3 11.5025C3.61062 13.4098 4.81135 15.0737 6.42895 16.2543C8.04655 17.4349 9.99739 18.0711 12 18.0711C14.0026 18.0711 15.9534 17.4349 17.5711 16.2543C19.1887 15.0737 20.3894 13.4098 21 11.5025C20.3764 9.60855 19.1704 7.95999 17.5542 6.79224C15.9379 5.62448 13.994 4.99723 12 5.00002Z" stroke="#313131" stroke-width="1.3" stroke-linejoin="round"/>
<path d="M12 13.6061C13.2426 13.6061 14.25 12.5988 14.25 11.3561C14.25 10.1135 13.2426 9.10613 12 9.10613C10.7574 9.10613 9.75 10.1135 9.75 11.3561C9.75 12.5988 10.7574 13.6061 12 13.6061Z" stroke="#313131" stroke-width="1.3" stroke-linejoin="round"/>
</svg>
