<svg width="32" height="32" viewBox="0 0 32 32" fill="none" xmlns="http://www.w3.org/2000/svg">
<path opacity="0.4" d="M28 9.33073V22.6641C28 26.6641 26 29.3307 21.3333 29.3307H10.6667C6 29.3307 4 26.6641 4 22.6641V9.33073C4 5.33073 6 2.66406 10.6667 2.66406H21.3333C26 2.66406 28 5.33073 28 9.33073Z" fill="#017FFF"/>
<path d="M24.6667 12.3333H22C19.9734 12.3333 18.3334 10.6933 18.3334 8.66667V6C18.3334 5.45333 18.7867 5 19.3334 5C19.88 5 20.3334 5.45333 20.3334 6V8.66667C20.3334 9.58667 21.08 10.3333 22 10.3333H24.6667C25.2134 10.3333 25.6667 10.7867 25.6667 11.3333C25.6667 11.88 25.2134 12.3333 24.6667 12.3333Z" fill="#017FFF"/>
<path d="M16 18.3359H10.6666C10.12 18.3359 9.66663 17.8826 9.66663 17.3359C9.66663 16.7893 10.12 16.3359 10.6666 16.3359H16C16.5466 16.3359 17 16.7893 17 17.3359C17 17.8826 16.5466 18.3359 16 18.3359Z" fill="#017FFF"/>
<path d="M21.3333 23.6641H10.6666C10.12 23.6641 9.66663 23.2107 9.66663 22.6641C9.66663 22.1174 10.12 21.6641 10.6666 21.6641H21.3333C21.88 21.6641 22.3333 22.1174 22.3333 22.6641C22.3333 23.2107 21.88 23.6641 21.3333 23.6641Z" fill="#017FFF"/>
</svg>
