<svg width="32" height="32" viewBox="0 0 32 32" fill="none" xmlns="http://www.w3.org/2000/svg">
<path d="M28.0801 15.7608L27.8667 15.4674C27.4934 15.0141 27.0534 14.6541 26.5467 14.3874C25.8667 14.0008 25.0934 13.8008 24.2934 13.8008H7.69339C6.89339 13.8008 6.13339 14.0008 5.44006 14.3874C4.92006 14.6674 4.45339 15.0541 4.06673 15.5341C3.30673 16.5074 2.94673 17.7074 3.06673 18.9074L3.56006 25.1341C3.73339 27.0141 3.96006 29.3341 8.18673 29.3341H23.8134C28.0401 29.3341 28.2534 27.0141 28.4401 25.1208L28.9334 18.9208C29.0534 17.8008 28.7601 16.6808 28.0801 15.7608ZM19.1867 23.1208H12.8001C12.2801 23.1208 11.8667 22.6941 11.8667 22.1874C11.8667 21.6808 12.2801 21.2541 12.8001 21.2541H19.1867C19.7067 21.2541 20.1201 21.6808 20.1201 22.1874C20.1201 22.7074 19.7067 23.1208 19.1867 23.1208Z" fill="#3ABFF8"/>
<path opacity="0.4" d="M4.50671 15.0813C4.80005 14.8146 5.09338 14.5746 5.44005 14.388C6.12005 14.0013 6.89338 13.8013 7.69338 13.8013H24.3067C25.1067 13.8013 25.8667 14.0013 26.56 14.388C26.9067 14.5746 27.2134 14.8146 27.4934 15.0946V14.388V13.0946C27.4934 8.33464 26.04 6.8813 21.28 6.8813H18.1067C17.52 6.8813 17.5067 6.86797 17.16 6.41464L15.56 4.26797C14.8 3.2813 14.2 2.66797 12.2934 2.66797H10.72C5.96005 2.66797 4.50671 4.1213 4.50671 8.8813V14.4013V15.0813Z" fill="#3ABFF8"/>
</svg>
