<svg xmlns="http://www.w3.org/2000/svg" width="32" height="32" viewBox="0 0 32 32" fill="none">
  <path d="M28.08 15.7608L27.8667 15.4674C27.4933 15.0141 27.0533 14.6541 26.5467 14.3874C25.8667 14.0008 25.0933 13.8008 24.2933 13.8008H7.69333C6.89333 13.8008 6.13333 14.0008 5.44 14.3874C4.92 14.6674 4.45333 15.0541 4.06667 15.5341C3.30667 16.5074 2.94667 17.7074 3.06667 18.9074L3.56 25.1341C3.73333 27.0141 3.96 29.3341 8.18666 29.3341H23.8133C28.04 29.3341 28.2533 27.0141 28.44 25.1208L28.9333 18.9208C29.0533 17.8008 28.76 16.6808 28.08 15.7608ZM19.1867 23.1208H12.8C12.28 23.1208 11.8667 22.6941 11.8667 22.1874C11.8667 21.6808 12.28 21.2541 12.8 21.2541H19.1867C19.7067 21.2541 20.12 21.6808 20.12 22.1874C20.12 22.7074 19.7067 23.1208 19.1867 23.1208Z" fill="#419FFF"/>
  <path opacity="0.4" d="M4.50665 15.0813C4.79999 14.8146 5.09332 14.5746 5.43999 14.388C6.11999 14.0013 6.89332 13.8013 7.69332 13.8013H24.3067C25.1067 13.8013 25.8667 14.0013 26.56 14.388C26.9067 14.5746 27.2133 14.8146 27.4933 15.0946V14.388V13.0946C27.4933 8.33464 26.04 6.8813 21.28 6.8813H18.1067C17.52 6.8813 17.5067 6.86797 17.16 6.41464L15.56 4.26797C14.8 3.2813 14.2 2.66797 12.2933 2.66797H10.72C5.95999 2.66797 4.50665 4.1213 4.50665 8.8813V14.4013V15.0813Z" fill="#419FFF"/>
</svg>