<svg xmlns="http://www.w3.org/2000/svg" width="20" height="18" viewBox="0 0 20 18" fill="none">
  <path d="M10 12.5758C11.2867 12.5758 12.3297 11.4986 12.3297 10.1697C12.3297 8.8409 11.2867 7.76367 10 7.76367C8.71342 7.76367 7.67041 8.8409 7.67041 10.1697C7.67041 11.4986 8.71342 12.5758 10 12.5758Z" stroke="#FF4A4A" stroke-width="1.3" stroke-linejoin="round"/>
  <path fill-rule="evenodd" clip-rule="evenodd" d="M12.6351 2.79964C11.7799 2.57111 10.8948 2.45391 10.0002 2.4551C7.79328 2.45021 5.64363 3.16656 3.85883 4.49839C2.07403 5.83022 0.74634 7.70843 0.0619109 9.86174C0.0216735 9.98833 0.0211871 10.1242 0.0605172 10.2511C0.442437 11.4832 1.03455 12.6271 1.80254 13.6322L2.73112 12.7037C2.14636 11.9083 1.68359 11.0173 1.36491 10.0611C1.98516 8.24361 3.12703 6.66651 4.6363 5.54028C6.1988 4.37433 8.07572 3.7506 9.99836 3.7551L9.99989 3.1051L10.0008 3.7551C10.521 3.75435 11.0378 3.79952 11.5459 3.8889L12.6351 2.79964ZM4.08263 14.1806C4.25689 14.334 4.43709 14.4809 4.62293 14.621C6.18645 15.7996 8.06933 16.4328 9.99989 16.4328C11.9304 16.4328 13.8133 15.7996 15.3768 14.621C16.8872 13.4825 18.0248 11.8912 18.6348 10.0614C18.0131 8.2448 16.8709 6.6686 15.3619 5.54258C14.8407 5.15367 14.2846 4.825 13.7034 4.55977L14.6761 3.58708C15.185 3.84867 15.6745 4.15383 16.1393 4.50068C17.9236 5.83213 19.2517 7.70911 19.9377 9.86122C19.9781 9.98796 19.9786 10.124 19.9393 10.2511C19.2674 12.4184 17.9452 14.3129 16.1594 15.6591C14.3732 17.0055 12.2163 17.7328 9.99989 17.7328C7.78348 17.7328 5.6266 17.0055 3.84042 15.6591C3.60607 15.4824 3.37971 15.2964 3.16175 15.1014L4.08263 14.1806Z" fill="#FF4A4A"/>
  <line x1="16.989" y1="1.69463" x2="1.60086" y2="17.0828" stroke="#FF4A4A" stroke-width="1.3" stroke-linecap="round"/>
</svg>