<svg width="24" height="24" viewBox="0 0 24 24" fill="none" xmlns="http://www.w3.org/2000/svg">
<rect width="24" height="24" rx="12" fill="#FFF2D8"/>
<path d="M14.2852 9.08798C12.7237 6.79073 10.6382 5.56976 9.546 6.31787C9.42574 6.40256 9.32124 6.50766 9.23723 6.6284C9.23723 6.63723 6.70884 11.754 6.70884 11.754L5.29732 12.7103C5.08063 12.8574 4.89504 13.0457 4.75116 13.2646C4.60728 13.4834 4.50793 13.7285 4.45877 13.9857C4.40962 14.2429 4.41163 14.5074 4.46468 14.7638C4.51774 15.0203 4.62081 15.2638 4.768 15.4804L4.83151 15.5739C5.12903 16.0073 5.58541 16.306 6.10167 16.405C6.61793 16.5041 7.15245 16.3957 7.58928 16.1033L9.85654 19.4433C10.19 19.8544 10.8305 20.2637 11.6209 19.782C11.761 19.6912 11.8804 19.5721 11.9716 19.4323C12.0628 19.2925 12.1236 19.1352 12.1503 18.9704C12.1822 18.8065 12.1813 18.638 12.1477 18.4744C12.1141 18.3109 12.0484 18.1556 11.9544 18.0176L9.95711 15.0711C9.95711 15.0711 14.6787 14.6953 14.6963 14.6882C14.8437 14.6574 14.9835 14.5974 15.1074 14.5118C15.6685 14.1307 15.8696 13.3314 15.6755 12.2604C15.5009 11.2741 15.0051 10.1572 14.2852 9.08798ZM5.34496 15.2263L5.28144 15.1328C5.17988 14.9833 5.10882 14.8153 5.0723 14.6383C5.03578 14.4613 5.03453 14.2788 5.06862 14.1013C5.1027 13.9238 5.17146 13.7548 5.27096 13.6039C5.37045 13.453 5.49872 13.3232 5.64843 13.222L6.86764 12.3927L8.47677 14.7623L7.25757 15.5916C7.10803 15.6933 6.93992 15.7645 6.76284 15.8012C6.58577 15.8378 6.4032 15.8393 6.22557 15.8053C6.04795 15.7714 5.87875 15.7028 5.72765 15.6035C5.57654 15.5041 5.4465 15.376 5.34496 15.2263ZM11.4463 18.3652C11.5427 18.5087 11.5783 18.6846 11.5452 18.8543C11.5121 19.024 11.4131 19.1736 11.2698 19.2704C11.1261 19.3669 10.9499 19.4025 10.7799 19.3694C10.61 19.3364 10.46 19.2373 10.3629 19.0939L8.10272 15.7645L9.01139 15.1469L9.25135 15.1275L11.4463 18.3652ZM9.06079 14.5224L7.30697 11.9393L8.97963 8.52867C9.14196 9.48674 9.61658 10.6248 10.3753 11.7416C11.134 12.8585 12.0162 13.7195 12.8454 14.2242L9.06079 14.5224ZM14.2658 14.1112C13.4224 14.0565 12.0497 13.1055 10.887 11.3923C9.72421 9.67906 9.34663 8.05757 9.60599 7.25124C9.65283 7.09989 9.7463 6.9672 9.87305 6.87214C9.9998 6.77708 10.1533 6.7245 10.3118 6.72192C11.1481 6.72192 12.572 7.67822 13.7682 9.44086C14.4422 10.4325 14.9327 11.4699 15.0668 12.3768C15.3297 14.1112 14.2658 14.1112 14.2658 14.1112Z" fill="#FFAA00"/>
<path d="M12.0798 9.1541C11.8637 9.11166 11.6413 9.11273 11.4256 9.15727C11.2099 9.2018 11.0052 9.2889 10.8236 9.41347C10.7901 9.43664 10.7615 9.46617 10.7394 9.50039C10.7174 9.53461 10.7022 9.57284 10.695 9.6129C10.6877 9.65296 10.6883 9.69406 10.6969 9.73386C10.7055 9.77366 10.7219 9.81138 10.745 9.84486C10.7682 9.87834 10.7977 9.90693 10.832 9.929C10.8662 9.95106 10.9044 9.96617 10.9445 9.97347C10.9845 9.98076 11.0256 9.98009 11.0654 9.97149C11.1052 9.9629 11.143 9.94655 11.1764 9.92338C11.2915 9.84529 11.4208 9.79063 11.5569 9.76252C11.6931 9.7344 11.8335 9.73338 11.97 9.75951C12.1066 9.78564 12.2367 9.83842 12.3528 9.91482C12.469 9.99122 12.569 10.0898 12.6471 10.2048C12.7252 10.3198 12.7798 10.4491 12.8079 10.5853C12.836 10.7215 12.8371 10.8618 12.8109 10.9984C12.7848 11.135 12.732 11.265 12.6556 11.3812C12.5792 11.4974 12.4807 11.5973 12.3656 11.6754C12.3114 11.7129 12.2706 11.7667 12.2491 11.8291C12.2277 11.8914 12.2267 11.959 12.2465 12.0219C12.2662 12.0848 12.3055 12.1397 12.3587 12.1787C12.4119 12.2176 12.4762 12.2385 12.5421 12.2383C12.605 12.2395 12.6667 12.221 12.7185 12.1853C12.993 11.9994 13.206 11.7363 13.3308 11.4292C13.4555 11.1221 13.4863 10.7848 13.4192 10.4602C13.3521 10.1356 13.1902 9.8382 12.954 9.60569C12.7177 9.37317 12.4178 9.216 12.0922 9.1541H12.0798Z" fill="#FFAA00"/>
<path d="M14.6664 6.94122H14.6964C14.7728 6.94118 14.8464 6.91285 14.9031 6.86169C14.9598 6.81053 14.9955 6.74017 15.0034 6.6642L15.2416 4.34931C15.247 4.30837 15.2442 4.26677 15.2332 4.22695C15.2223 4.18714 15.2035 4.14992 15.1779 4.11751C15.1523 4.08509 15.1205 4.05813 15.0843 4.03823C15.0481 4.01833 15.0083 4.00589 14.9673 4.00164C14.9262 3.99739 14.8847 4.00142 14.8452 4.0135C14.8057 4.02557 14.7691 4.04544 14.7374 4.07194C14.7057 4.09843 14.6797 4.131 14.6608 4.16774C14.642 4.20447 14.6307 4.24461 14.6276 4.28579L14.3912 6.60245C14.3828 6.68387 14.407 6.76528 14.4587 6.82881C14.5103 6.89233 14.585 6.93276 14.6664 6.94122Z" fill="#FFAA00"/>
<path d="M18.6573 6.46504C18.6119 6.3967 18.5414 6.34907 18.4611 6.33255C18.3808 6.31602 18.2972 6.33193 18.2285 6.37682L16.0777 7.78835C16.0219 7.82522 15.9795 7.87925 15.957 7.94229C15.9345 8.00532 15.9332 8.07396 15.9531 8.13785C15.973 8.20175 16.0131 8.25745 16.0674 8.29656C16.1217 8.33568 16.1872 8.35609 16.2542 8.35472C16.3166 8.35616 16.378 8.33896 16.4306 8.30532L18.5814 6.89379C18.6481 6.84685 18.6936 6.7754 18.7078 6.69507C18.722 6.61473 18.7038 6.53204 18.6573 6.46504Z" fill="#FFAA00"/>
<path d="M19.3153 10.2336L16.8134 9.78369C16.7327 9.76918 16.6495 9.78733 16.5822 9.83415C16.5148 9.88098 16.4688 9.95263 16.4543 10.0333C16.4398 10.1141 16.458 10.1972 16.5048 10.2646C16.5516 10.3319 16.6233 10.3779 16.704 10.3924L19.2042 10.8423H19.2589C19.3375 10.8446 19.4141 10.8168 19.473 10.7645C19.5318 10.7123 19.5685 10.6395 19.5754 10.5611C19.5824 10.4827 19.5592 10.4046 19.5105 10.3427C19.4619 10.2809 19.3914 10.24 19.3136 10.2283L19.3153 10.2336Z" fill="#FFAA00"/>
</svg>
