<svg width="10" height="10" viewBox="0 0 10 10" fill="none" xmlns="http://www.w3.org/2000/svg">
<path d="M8.59146 3.52018C8.15396 1.59518 6.4748 0.728516 4.9998 0.728516C4.9998 0.728516 4.9998 0.728516 4.99563 0.728516C3.5248 0.728516 1.84146 1.59102 1.40396 3.51602C0.916462 5.66602 2.23313 7.48685 3.4248 8.63268C3.86646 9.05768 4.43313 9.27018 4.9998 9.27018C5.56646 9.27018 6.13313 9.05768 6.57063 8.63268C7.7623 7.48685 9.07896 5.67018 8.59146 3.52018ZM4.9998 5.60768C4.2748 5.60768 3.6873 5.02018 3.6873 4.29518C3.6873 3.57018 4.2748 2.98268 4.9998 2.98268C5.7248 2.98268 6.3123 3.57018 6.3123 4.29518C6.3123 5.02018 5.7248 5.60768 4.9998 5.60768Z" fill="#017FFF"/>
</svg>
