<svg width="24" height="25" viewBox="0 0 24 25" fill="none" xmlns="http://www.w3.org/2000/svg">
<path d="M12 22.9528C11.31 22.9528 10.66 22.6028 10.2 21.9928L8.7 19.9928C8.67 19.9528 8.55 19.9028 8.5 19.8928H8C3.83 19.8928 1.25 18.7628 1.25 13.1428V8.14282C1.25 3.72282 3.58 1.39282 8 1.39282H16C20.42 1.39282 22.75 3.72282 22.75 8.14282V13.1428C22.75 17.5628 20.42 19.8928 16 19.8928H15.5C15.42 19.8928 15.35 19.9328 15.3 19.9928L13.8 21.9928C13.34 22.6028 12.69 22.9528 12 22.9528ZM8 2.89282C4.42 2.89282 2.75 4.56282 2.75 8.14282V13.1428C2.75 17.6628 4.3 18.3928 8 18.3928H8.5C9.01 18.3928 9.59 18.6828 9.9 19.0928L11.4 21.0928C11.75 21.5528 12.25 21.5528 12.6 21.0928L14.1 19.0928C14.43 18.6528 14.95 18.3928 15.5 18.3928H16C19.58 18.3928 21.25 16.7228 21.25 13.1428V8.14282C21.25 4.56282 19.58 2.89282 16 2.89282H8Z" fill="#313131"/>
<path d="M17 8.89282H7C6.59 8.89282 6.25 8.55282 6.25 8.14282C6.25 7.73282 6.59 7.39282 7 7.39282H17C17.41 7.39282 17.75 7.73282 17.75 8.14282C17.75 8.55282 17.41 8.89282 17 8.89282Z" fill="#313131"/>
<path d="M13 13.8928H7C6.59 13.8928 6.25 13.5528 6.25 13.1428C6.25 12.7328 6.59 12.3928 7 12.3928H13C13.41 12.3928 13.75 12.7328 13.75 13.1428C13.75 13.5528 13.41 13.8928 13 13.8928Z" fill="#313131"/>
</svg>
