<svg width="24" height="25" viewBox="0 0 24 25" fill="none" xmlns="http://www.w3.org/2000/svg">
<path opacity="0.4" d="M2 13.1128V7.13282C2 4.37282 4.24 2.14282 7 2.14282H17C19.76 2.14282 22 4.37282 22 7.13282V14.1128C22 16.8628 19.76 19.0928 17 19.0928H15.5C15.19 19.0928 14.89 19.2428 14.7 19.4928L13.2 21.4828C12.54 22.3628 11.46 22.3628 10.8 21.4828L9.3 19.4928C9.14 19.2728 8.78 19.0928 8.5 19.0928H7C4.24 19.0928 2 16.8628 2 14.1128V13.1128Z" fill="white"/>
<path d="M17 8.89282H7C6.59 8.89282 6.25 8.55282 6.25 8.14282C6.25 7.73282 6.59 7.39282 7 7.39282H17C17.41 7.39282 17.75 7.73282 17.75 8.14282C17.75 8.55282 17.41 8.89282 17 8.89282Z" fill="white"/>
<path d="M13 13.8928H7C6.59 13.8928 6.25 13.5528 6.25 13.1428C6.25 12.7328 6.59 12.3928 7 12.3928H13C13.41 12.3928 13.75 12.7328 13.75 13.1428C13.75 13.5528 13.41 13.8928 13 13.8928Z" fill="white"/>
</svg>
