<svg width="24" height="24" viewBox="0 0 24 24" fill="none" xmlns="http://www.w3.org/2000/svg">
<path d="M14 5.5C14 4.675 13.325 4 12.5 4C11.675 4 11 4.675 11 5.5C11 6.325 11.675 7 12.5 7C13.325 7 14 6.325 14 5.5Z" fill="#C2C2C2"/>
<path d="M14 17.5C14 16.675 13.325 16 12.5 16C11.675 16 11 16.675 11 17.5C11 18.325 11.675 19 12.5 19C13.325 19 14 18.325 14 17.5Z" fill="#C2C2C2"/>
<path d="M14 11.5C14 10.675 13.325 10 12.5 10C11.675 10 11 10.675 11 11.5C11 12.325 11.675 13 12.5 13C13.325 13 14 12.325 14 11.5Z" fill="#C2C2C2"/>
</svg>
