<svg width="24" height="24" viewBox="0 0 24 24" fill="none" xmlns="http://www.w3.org/2000/svg">
<path d="M14 6.5C14 5.675 13.325 5 12.5 5C11.675 5 11 5.675 11 6.5C11 7.325 11.675 8 12.5 8C13.325 8 14 7.325 14 6.5Z" fill="#313131"/>
<path d="M14 18.5C14 17.675 13.325 17 12.5 17C11.675 17 11 17.675 11 18.5C11 19.325 11.675 20 12.5 20C13.325 20 14 19.325 14 18.5Z" fill="#313131"/>
<path d="M14 12.5C14 11.675 13.325 11 12.5 11C11.675 11 11 11.675 11 12.5C11 13.325 11.675 14 12.5 14C13.325 14 14 13.325 14 12.5Z" fill="#313131"/>
</svg>
