<svg xmlns="http://www.w3.org/2000/svg" width="24" height="24" viewBox="0 0 24 24" fill="none">
  <path opacity="0.4" d="M19.5 12C19.5 16.1421 16.1421 19.5 12 19.5C7.85786 19.5 4.5 16.1421 4.5 12C4.5 7.85786 7.85786 4.5 12 4.5C16.1421 4.5 19.5 7.85786 19.5 12Z" fill="#8A8A8A" stroke="#8A8A8A"/>
  <path d="M9.5 10.9453C9.5 9.56545 10.6201 8.44531 12 8.44531C13.3795 8.44531 14.4993 9.5648 14.5 10.9441C14.4927 12.2974 13.4372 13.3865 12.095 13.4373H12.0949H12.0949H12.0948H12.0948H12.0947H12.0947H12.0947H12.0946H12.0946H12.0945H12.0945H12.0944H12.0944H12.0944H12.0943H12.0943H12.0942H12.0942H12.0941H12.0941H12.0941H12.094H12.094H12.0939H12.0939H12.0938H12.0938H12.0937H12.0937H12.0937H12.0936H12.0936H12.0935H12.0935H12.0934H12.0934H12.0933H12.0933H12.0933H12.0932H12.0932H12.0931H12.0931H12.093H12.093H12.0929H12.0929H12.0929H12.0928H12.0928H12.0927H12.0927H12.0926H12.0926H12.0925H12.0925H12.0924H12.0924H12.0924H12.0923H12.0923H12.0922H12.0922H12.0921H12.0921H12.092H12.092H12.0919H12.0919H12.0919H12.0918H12.0918H12.0917H12.0917H12.0916H12.0916H12.0915H12.0915H12.0914H12.0914H12.0914H12.0913H12.0913H12.0912H12.0912H12.0911H12.0911H12.091H12.091H12.0909H12.0909H12.0908H12.0908H12.0908H12.0907H12.0907H12.0906H12.0906H12.0905H12.0905H12.0904H12.0904H12.0903H12.0903H12.0902H12.0902H12.0902H12.0901H12.0901H12.09H12.09H12.0899H12.0899H12.0898H12.0898H12.0897H12.0897H12.0896H12.0896H12.0895H12.0895H12.0895H12.0894H12.0894H12.0893H12.0893H12.0892H12.0892H12.0891H12.0891H12.089H12.089H12.0889H12.0889H12.0888H12.0888H12.0887H12.0887H12.0887H12.0886H12.0886H12.0885H12.0885H12.0884H12.0884H12.0883H12.0883H12.0882H12.0882H12.0881H12.0881H12.088H12.088H12.0879H12.0878H12.0877H12.0876H12.0875H12.0874H12.0873H12.0872H12.0871H12.0871H12.087H12.0869H12.0868H12.0867H12.0866H12.0865H12.0864H12.0863H12.0862H12.0861H12.086H12.0859H12.0858H12.0857H12.0856H12.0855H12.0854H12.0853H12.0852H12.0851H12.085H12.0849H12.0848H12.0847H12.0846H12.0845H12.0844H12.0843H12.0842H12.0841H12.084H12.0839H12.0838H12.0837H12.0836H12.0835H12.0834H12.0833H12.0832H12.0831H12.083H12.0829H12.0828H12.0827H12.0826H12.0825H12.0824H12.0823H12.0822H12.0821H12.082H12.0819H12.0818H12.0817H12.0816H12.0814H12.0813H12.0812H12.0811H12.081H12.0809H12.0808H12.0807H12.0806H12.0805H12.0804H12.0803H12.0802H12.0801H12.08H12.0799H12.0798H12.0797H12.0795H12.0794H12.0793H12.0792H12.0791H12.079H12.0789H12.0788H12.0787H12.0786H12.0785H12.0784H12.0783H12.0782H12.078H12.0779H12.0778H12.0777H12.0776H12.0775H12.0774H12.0773H12.0772H12.0771H12.077H12.0768H12.0767H12.0766H12.0765H12.0764H12.0763H12.0762H12.0761H12.076H12.0759H12.0757H12.0756H12.0755H12.0754H12.0753H12.0752H12.0751H12.075H12.0749H12.0747H12.0746H12.0745H12.0744H12.0743H12.0742H12.0741H12.074H12.0739H12.0737H12.0736H12.0735H12.0734H12.0733H12.0732H12.0731H12.073H12.0728H12.0727H12.0726H12.0725H12.0724H12.0723H12.0722H12.0721H12.0719H12.0718H12.0717H12.0716H12.0715H12.0714H12.0713H12.0711H12.071H12.0709H12.0708H12.0707H12.0706H12.0705H12.0703H12.0702H12.0701H12.07H12.0699H12.0698H12.0697H12.0695H12.0694H12.0693H12.0692H12.0691H12.069H12.0689H12.0687H12.0686H12.0685H12.0684H12.0683H12.0682H12.068H12.0679H12.0678H12.0677H12.0676H12.0675H12.0674H12.0672H12.0671H12.067H12.0669H12.0668H12.0667H12.0665H12.0664H12.0663H12.0662H12.0661H12.066H12.0658H12.0657H12.0656H12.0655H12.0654H12.0653H12.0651H12.065H12.0649H12.0648H12.0647H12.0646H12.0644H12.0643H12.0642H12.0641H12.064H12.0639H12.0637H12.0636H12.0635H12.0634H12.0633H12.0632H12.063H12.0629H12.0628H12.0627H12.0626H12.0625H12.0623H12.0622H12.0621H12.062H12.0619H12.0618H12.0616H12.0615H12.0614H12.0613H12.0612H12.0611H12.0609H12.0608H12.0607H12.0606H12.0605H12.0604H12.0602H12.0601H12.06H12.0599H12.0598H12.0596H12.0595H12.0594H12.0593H12.0592H12.0591H12.0589H12.0588H12.0587H12.0586H12.0585H12.0584H12.0582H12.0581H12.058H12.0579H12.0578H12.0577H12.0575H12.0574H12.0573H12.0572H12.0571H12.057H12.0568H12.0567H12.0566H12.0565H12.0564H12.0563H12.0561H12.056H12.0559H12.0558H12.0557H12.0556H12.0554H12.0553H12.0552H12.0551H12.055H12.0549H12.0547H12.0546H12.0545H12.0544H12.0543H12.0542H12.054H12.0539H12.0538H12.0537H12.0536H12.0535H12.0533H12.0532H12.0531H12.053H12.0529H12.0528H12.0526H12.0525H12.0524H12.0523H12.0522H12.0521H12.052H12.0518H12.0517H12.0516H12.0515H12.0514H12.0513H12.0511H12.051H12.0509H12.0508H12.0507H12.0506H12.0505H12.0503H12.0502H12.0501H12.05H12.0499H12.0498H12.0497H12.0495H12.0494H12.0493H12.0492H12.0491H12.049H12.0489H12.0487H12.0486H12.0485H12.0484H12.0483H12.0482H12.0481H12.0479H12.0478H12.0477H12.0476H12.0475H12.0474H12.0473H12.0472H12.047H12.0469H12.0468H12.0467H12.0466H12.0465H12.0464H12.0463H12.0461H12.046H12.0459H12.0458H12.0457H12.0456H12.0455H12.0454H12.0452H12.0451H12.045H12.0449H12.0448H12.0447H12.0446H12.0445H12.0444H12.0443H12.0441H12.044H12.0439H12.0438H12.0437H12.0436H12.0435H12.0434H12.0433H12.0432H12.043H12.0429H12.0428H12.0427H12.0426H12.0425H12.0424H12.0423H12.0422H12.0421H12.042H12.0418H12.0417H12.0416H12.0415H12.0414H12.0413H12.0412H12.0411H12.041H12.0409H12.0408H12.0407H12.0406H12.0405H12.0403H12.0402H12.0401H12.04H12.0399H12.0398H12.0397H12.0396H12.0395H12.0394H12.0393H12.0392H12.0391H12.039H12.0389H12.0388H12.0387H12.0386H12.0384H12.0383H12.0382H12.0381H12.038H12.0379H12.0378H12.0377H12.0376H12.0375H12.0374H12.0373H12.0372H12.0371H12.037H12.0369H12.0368H12.0367H12.0366H12.0365H12.0364H12.0363H12.0362H12.0361H12.036H12.0359H12.0358H12.0357H12.0356H12.0355H12.0354H12.0353H12.0352H12.0351H12.035H12.0349H12.0348H12.0347H12.0346H12.0345H12.0344H12.0343H12.0342H12.0341H12.034H12.0339H12.0338H12.0337H12.0336H12.0335H12.0334H12.0333H12.0332H12.0331H12.033H12.0329H12.0329H12.0328H12.0327H12.0326H12.0325H12.0324H12.0323H12.0322H12.0321H12.032H12.0319H12.0318H12.0317H12.0316H12.0315H12.0314H12.0313H12.0312H12.0311H12.031H12.0309H12.0308H12.0308H12.0307H12.0306H12.0305H12.0304H12.0303H12.0302H12.0301H12.03H12.0299H12.0297H12.0296H12.0295H12.0294H12.0293H12.0292H12.0291H12.029H12.0289H12.0288H12.0287H12.0286H12.0285H12.0284H12.0283H12.0282H12.0281H12.028H12.0279H12.0278H12.0276H12.0275H12.0274H12.0273H12.0272H12.0271H12.027H12.0269H12.0268H12.0267H12.0265H12.0264H12.0263H12.0262H12.0261H12.026H12.0259H12.0258H12.0256H12.0255H12.0254H12.0253H12.0252H12.0251H12.025H12.0248H12.0247H12.0246H12.0245H12.0244H12.0243H12.0241H12.024H12.0239H12.0238H12.0237H12.0235H12.0234H12.0233H12.0232H12.0231H12.0229H12.0228H12.0227H12.0226H12.0225H12.0223H12.0222H12.0221H12.022H12.0218H12.0217H12.0216H12.0215H12.0213H12.0212H12.0211H12.021H12.0208H12.0207H12.0206H12.0205H12.0203H12.0202H12.0201H12.02H12.0198H12.0197H12.0196H12.0195H12.0193H12.0192H12.0191H12.0189H12.0188H12.0187H12.0186H12.0184H12.0183H12.0182H12.018H12.0179H12.0178H12.0176H12.0175H12.0174H12.0172H12.0171H12.017H12.0168H12.0167H12.0166H12.0164H12.0163H12.0162H12.016H12.0159H12.0158H12.0156H12.0155H12.0154H12.0152H12.0151H12.015H12.0148H12.0147H12.0146H12.0144H12.0143H12.0141H12.014H12.0139H12.0137H12.0136H12.0135H12.0133H12.0132H12.013H12.0129H12.0128H12.0126H12.0125H12.0123H12.0122H12.0121H12.0119H12.0118H12.0116H12.0115H12.0114H12.0112H12.0111H12.0109H12.0108H12.0107H12.0105H12.0104H12.0102H12.0101H12.01H12.0098H12.0097H12.0095H12.0094H12.0092H12.0091H12.0089H12.0088H12.0087H12.0085H12.0084H12.0082H12.0081H12.0079H12.0078H12.0076H12.0075H12.0074H12.0072H12.0071H12.0069H12.0068H12.0066H12.0065H12.0063H12.0062H12.006H12.0059H12.0057H12.0056H12.0055H12.0053H12.0052H12.005H12.0049H12.0047H12.0046H12.0044H12.0043H12.0041H12.004H12.0038H12.0037H12.0035H12.0034H12.0032H12.0031H12.0029H12.0028H12.0026H12.0025H12.0023H12.0022H12.002H12.0019H12.0017H12.0016H12.0014H12.0013H12.0011H12.001H12.0008H12.0007H12.0005H12.0004H12.0002H12.0001H11.9999H11.9998H11.9996H11.9995H11.9993H11.9992H11.999H11.9988H11.9987H11.9985H11.9984H11.9982H11.9981H11.9979H11.9978H11.9976H11.9975H11.9973H11.9972H11.997H11.9969H11.9967H11.9966H11.9964H11.9962H11.9961H11.9959H11.9958H11.9956H11.9955H11.9953H11.9952H11.995H11.9949H11.9947H11.9945H11.9944H11.9942H11.9941H11.9939H11.9938H11.9936H11.9935H11.9933H11.9932H11.993H11.9928H11.9927H11.9925H11.9924H11.9922H11.9921H11.9919H11.9918H11.9916H11.9914H11.9913H11.9911H11.991H11.9908H11.9907H11.9905H11.9904H11.9902H11.99H11.9899H11.9897H11.9896H11.9894H11.9893H11.9891H11.989H11.9888H11.9886H11.9885H11.9883H11.9882H11.988H11.9879H11.9877H11.9875H11.9874H11.9872H11.9871H11.9869H11.9868H11.9866H11.9865H11.9863H11.9861H11.986H11.9858H11.9857H11.9855H11.9854H11.9852H11.985H11.9849H11.9847H11.9846H11.9844H11.9843H11.9841H11.984H11.9838H11.9836H11.9835H11.9833H11.9832H11.983H11.9829H11.9827H11.9826H11.9824H11.9822H11.9821H11.9819H11.9818H11.9816H11.9815H11.9813H11.9811H11.981H11.9808H11.9807H11.9805H11.9804H11.9802H11.9801H11.9799H11.9797H11.9796H11.9794H11.9793H11.9791H11.979H11.9788H11.9787H11.9785H11.9783H11.9782H11.978H11.9779H11.9777H11.9776H11.9774H11.9773H11.9771H11.977H11.9768H11.9766H11.9765H11.9763H11.9762H11.976H11.9759H11.9757H11.9756H11.9754H11.9753H11.9751H11.975H11.9748H11.9746H11.9745H11.9743H11.9742H11.974H11.9739H11.9737H11.9736H11.9734H11.9733H11.9731H11.973H11.9728H11.9727H11.9725H11.9724H11.9722H11.972H11.9719H11.9717H11.9716H11.9714H11.9713H11.9711H11.971H11.9708H11.9707H11.9705H11.9704H11.9702H11.9701H11.9699H11.9698H11.9696H11.9695H11.9693H11.9692H11.969H11.9689H11.9687H11.9686H11.9684H11.9683H11.9681H11.968H11.9678H11.9677H11.9675H11.9674C10.5488 13.3935 9.5 12.292 9.5 10.9453Z" fill="#8A8A8A" stroke="#8A8A8A"/>
  <path d="M15.6732 16.3899L15.6746 16.3908C16.2527 16.7762 16.6425 17.2392 16.8445 17.7236C15.5385 18.8284 13.8491 19.4988 12 19.4988C10.151 19.4988 8.46185 18.8286 7.15586 17.7239C7.3589 17.2407 7.75254 16.777 8.32634 16.3902C9.31944 15.7285 10.651 15.3828 12.006 15.3828C13.3616 15.3828 14.6888 15.7288 15.6732 16.3899Z" fill="#8A8A8A" stroke="#8A8A8A"/>
</svg>