<svg xmlns="http://www.w3.org/2000/svg" width="17" height="16" viewBox="0 0 17 16" fill="none">
  <path d="M9.86757 2.33977L11.0409 4.68643C11.2009 5.0131 11.6276 5.32643 11.9876 5.38643L14.1142 5.73977C15.4742 5.96643 15.7942 6.9531 14.8142 7.92643L13.1609 9.57977C12.8809 9.85977 12.7276 10.3998 12.8142 10.7864L13.2876 12.8331C13.6609 14.4531 12.8009 15.0798 11.3676 14.2331L9.37423 13.0531C9.01423 12.8398 8.4209 12.8398 8.05423 13.0531L6.0609 14.2331C4.63423 15.0798 3.76757 14.4464 4.1409 12.8331L4.61423 10.7864C4.7009 10.3998 4.54757 9.85977 4.26757 9.57977L2.61423 7.92643C1.6409 6.9531 1.95423 5.96643 3.31423 5.73977L5.4409 5.38643C5.79423 5.32643 6.2209 5.0131 6.3809 4.68643L7.55423 2.33977C8.19423 1.06643 9.23423 1.06643 9.86757 2.33977Z" fill="#E866C3"/>
</svg>