<svg width="49" height="48" viewBox="0 0 49 48" fill="none" xmlns="http://www.w3.org/2000/svg">
<rect x="0.666992" width="48" height="48" rx="8" fill="#FAE8F5"/>
<path d="M31.667 21C31.667 22.45 31.237 23.78 30.497 24.89C29.417 26.49 27.707 27.62 25.717 27.91C25.377 27.97 25.027 28 24.667 28C24.307 28 23.957 27.97 23.617 27.91C21.627 27.62 19.917 26.49 18.837 24.89C18.097 23.78 17.667 22.45 17.667 21C17.667 17.13 20.797 14 24.667 14C28.537 14 31.667 17.13 31.667 21Z" stroke="#E866C3" stroke-width="1.3" stroke-linecap="round" stroke-linejoin="round"/>
<path d="M33.9171 30.4704L32.2671 30.8604C31.8971 30.9504 31.6071 31.2304 31.5271 31.6004L31.1771 33.0704C30.9871 33.8704 29.9671 34.1104 29.4371 33.4804L24.6671 28.0004L19.8971 33.4904C19.3671 34.1204 18.3471 33.8804 18.1571 33.0804L17.8071 31.6104C17.7171 31.2404 17.4271 30.9504 17.0671 30.8704L15.4171 30.4804C14.6571 30.3004 14.3871 29.3504 14.9371 28.8004L18.8371 24.9004C19.9171 26.5004 21.6271 27.6304 23.6171 27.9204C23.9571 27.9804 24.3071 28.0104 24.6671 28.0104C25.0271 28.0104 25.3771 27.9804 25.7171 27.9204C27.7071 27.6304 29.4171 26.5004 30.4971 24.9004L34.3971 28.8004C34.9471 29.3404 34.6771 30.2904 33.9171 30.4704Z" stroke="#E866C3" stroke-width="1.3" stroke-linecap="round" stroke-linejoin="round"/>
<path d="M25.247 17.98L25.837 19.16C25.917 19.32 26.127 19.48 26.317 19.51L27.387 19.69C28.067 19.8 28.227 20.3 27.737 20.79L26.907 21.62C26.767 21.76 26.687 22.03 26.737 22.23L26.977 23.26C27.167 24.07 26.737 24.39 26.017 23.96L25.017 23.37C24.837 23.26 24.537 23.26 24.357 23.37L23.357 23.96C22.637 24.38 22.207 24.07 22.397 23.26L22.637 22.23C22.677 22.04 22.607 21.76 22.467 21.62L21.637 20.79C21.147 20.3 21.307 19.81 21.987 19.69L23.057 19.51C23.237 19.48 23.447 19.32 23.527 19.16L24.117 17.98C24.407 17.34 24.927 17.34 25.247 17.98Z" stroke="#E866C3" stroke-width="1.3" stroke-linecap="round" stroke-linejoin="round"/>
</svg>
