<svg width="24" height="25" viewBox="0 0 24 25" fill="none" xmlns="http://www.w3.org/2000/svg">
<path opacity="0.4" d="M12 16.4144V17.0244H2V16.4144C2 14.6544 2.43997 14.2144 4.21997 14.2144H9.78003C11.56 14.2144 12 14.6544 12 16.4144Z" fill="white"/>
<path d="M2 17.0244V18.5244V20.5144C2 22.2744 2.43997 22.7144 4.21997 22.7144H9.78003C11.56 22.7144 12 22.2744 12 20.5144V18.5244V17.0244H2Z" fill="white"/>
<g opacity="0.4">
<path fill-rule="evenodd" clip-rule="evenodd" d="M22 14.9644C22.4142 14.9644 22.75 15.3001 22.75 15.7144C22.75 19.9986 19.2842 23.4644 15 23.4644C14.7298 23.4644 14.4805 23.319 14.3474 23.0839C14.2142 22.8488 14.2179 22.5602 14.3569 22.3285L15.4069 20.5785C15.62 20.2233 16.0807 20.1081 16.4359 20.3212C16.791 20.5343 16.9062 20.995 16.6931 21.3502L16.4218 21.8024C19.1909 21.16 21.25 18.6809 21.25 15.7144C21.25 15.3001 21.5858 14.9644 22 14.9644Z" fill="white"/>
<path fill-rule="evenodd" clip-rule="evenodd" d="M7.57821 3.62629C4.8091 4.26872 2.75 6.74778 2.75 9.71436C2.75 10.1286 2.41421 10.4644 2 10.4644C1.58579 10.4644 1.25 10.1286 1.25 9.71436C1.25 5.43014 4.71579 1.96436 9 1.96436C9.2702 1.96436 9.51952 2.1097 9.65265 2.34483C9.78578 2.57996 9.78214 2.86853 9.64312 3.10022L8.59313 4.85022C8.38002 5.20541 7.91933 5.32059 7.56414 5.10748C7.20896 4.89437 7.09378 4.43367 7.30689 4.07849L7.57821 3.62629Z" fill="white"/>
</g>
<path opacity="0.4" d="M23 7.21436H14C14 9.69436 16.02 11.7144 18.5 11.7144C20.99 11.7144 23 9.69436 23 7.21436Z" fill="white"/>
<path d="M23 7.21436C23 4.72436 20.99 2.71436 18.5 2.71436C16.02 2.71436 14 4.72436 14 7.21436H23Z" fill="white"/>
</svg>
