<svg width="20" height="20" viewBox="0 0 20 20" fill="none" xmlns="http://www.w3.org/2000/svg">
<path d="M7.91627 12.0836L16.6663 3.33364M8.02259 12.357L10.2127 17.9887C10.4056 18.4848 10.5021 18.7329 10.6411 18.8053C10.7616 18.8681 10.9051 18.8682 11.0257 18.8055C11.1648 18.7333 11.2615 18.4853 11.4551 17.9894L16.947 3.9163C17.1217 3.46865 17.2091 3.24483 17.1613 3.10181C17.1198 2.9776 17.0223 2.88013 16.8981 2.83863C16.7551 2.79085 16.5313 2.8782 16.0836 3.05289L2.01048 8.54484C1.51459 8.73836 1.26664 8.83512 1.19438 8.97421C1.13174 9.09478 1.13183 9.23832 1.19461 9.35882C1.26703 9.49782 1.51509 9.59429 2.01121 9.78723L7.64288 11.9773C7.74359 12.0165 7.79394 12.0361 7.83634 12.0663C7.87392 12.0931 7.90679 12.126 7.9336 12.1636C7.96384 12.206 7.98342 12.2563 8.02259 12.357Z" stroke="white" stroke-width="1.5" stroke-linecap="round" stroke-linejoin="round"/>
</svg>
