<svg xmlns="http://www.w3.org/2000/svg" width="20" height="18" viewBox="0 0 20 18" fill="none">
  <path d="M18.8093 6.29856L13.6663 1.15574C13.5391 1.02849 13.3885 0.964844 13.2144 0.964844C13.0402 0.964844 12.8895 1.02849 12.7624 1.15574C12.6351 1.28306 12.5714 1.43375 12.5714 1.60783V4.17924H10.3214C5.54666 4.17924 2.61713 5.5286 1.53215 8.22727C1.17734 9.12448 0.999952 10.2396 0.999952 11.5722C0.999952 12.6837 1.4252 14.1937 2.27562 16.1022C2.29567 16.1492 2.33071 16.2294 2.38102 16.3432C2.4313 16.4569 2.47643 16.5574 2.51661 16.6445C2.55693 16.7315 2.60049 16.8051 2.64731 16.8653C2.7276 16.9792 2.82139 17.0363 2.92856 17.0363C3.029 17.0363 3.1077 17.0028 3.16466 16.9359C3.22148 16.869 3.24995 16.7852 3.24995 16.685C3.24995 16.6245 3.24157 16.5359 3.22479 16.4187C3.20804 16.3014 3.19963 16.2229 3.19963 16.1827C3.16611 15.7275 3.14936 15.3153 3.14936 14.9473C3.14936 14.271 3.20804 13.6649 3.32513 13.1293C3.44239 12.5935 3.60476 12.1299 3.8124 11.7381C4.02001 11.3461 4.28778 11.0082 4.61599 10.7236C4.94406 10.439 5.29725 10.2064 5.6756 10.0255C6.05402 9.84465 6.49932 9.70234 7.0116 9.59859C7.52385 9.4948 8.03944 9.42278 8.55848 9.38257C9.07752 9.34236 9.66513 9.32237 10.3214 9.32237H12.5714V11.8939C12.5714 12.0679 12.635 12.2187 12.7621 12.3458C12.8895 12.473 13.0401 12.5367 13.2141 12.5367C13.3882 12.5367 13.5389 12.473 13.6663 12.3458L18.8092 7.20284C18.9364 7.07559 19 6.92497 19 6.75086C19 6.57678 18.9364 6.42606 18.8093 6.29856Z" stroke="#313131" stroke-width="1.3" stroke-linejoin="round"/>
</svg>