<svg width="24" height="24" viewBox="0 0 24 24" fill="none" xmlns="http://www.w3.org/2000/svg">
<path d="M16.4258 13.7266C15.5574 13.7266 14.7922 14.1537 14.3115 14.8034L10.156 12.6755C10.225 12.4403 10.2734 12.1966 10.2734 11.9395C10.2734 11.5906 10.2019 11.259 10.0784 10.954L14.4274 8.33699C14.9113 8.905 15.6227 9.27344 16.4258 9.27344C17.8798 9.27344 19.0625 8.09069 19.0625 6.63672C19.0625 5.18274 17.8798 4 16.4258 4C14.9718 4 13.7891 5.18274 13.7891 6.63672C13.7891 6.97179 13.8581 7.28963 13.9725 7.58471L9.6106 10.2094C9.12702 9.65828 8.42589 9.30273 7.63672 9.30273C6.18274 9.30273 5 10.4855 5 11.9395C5 13.3934 6.18274 14.5762 7.63672 14.5762C8.51943 14.5762 9.29759 14.1365 9.77642 13.4686L13.9183 15.5895C13.842 15.8358 13.7891 16.0923 13.7891 16.3633C13.7891 17.8173 14.9718 19 16.4258 19C17.8798 19 19.0625 17.8173 19.0625 16.3633C19.0625 14.9093 17.8798 13.7266 16.4258 13.7266Z" fill="#8A8A8A"/>
</svg>
