<svg width="32" height="32" viewBox="0 0 32 32" fill="none" xmlns="http://www.w3.org/2000/svg">
<rect width="32" height="32" rx="16" fill="#E3F0FF"/>
<path d="M23.3411 13.7495L19.0553 9.46377C18.9492 9.35772 18.8237 9.30469 18.6786 9.30469C18.5335 9.30469 18.4079 9.35772 18.302 9.46377C18.1959 9.56987 18.1428 9.69544 18.1428 9.84051V11.9833H16.2678C12.2889 11.9833 9.84761 13.1078 8.94346 15.3567C8.64778 16.1044 8.49996 17.0336 8.49996 18.1441C8.49996 19.0704 8.85433 20.3287 9.56301 21.9192C9.57973 21.9583 9.60893 22.0251 9.65085 22.12C9.69275 22.2148 9.73036 22.2985 9.76385 22.3711C9.79744 22.4435 9.83374 22.5049 9.87276 22.5551C9.93967 22.65 10.0178 22.6976 10.1071 22.6976C10.1908 22.6976 10.2564 22.6697 10.3039 22.6139C10.3512 22.5581 10.375 22.4883 10.375 22.4048C10.375 22.3544 10.368 22.2806 10.354 22.1829C10.34 22.0852 10.333 22.0198 10.333 21.9862C10.3051 21.6069 10.2911 21.2634 10.2911 20.9567C10.2911 20.3931 10.34 19.8881 10.4376 19.4417C10.5353 18.9952 10.6706 18.6089 10.8437 18.2824C11.0167 17.9558 11.2398 17.6742 11.5133 17.437C11.7867 17.1998 12.081 17.0059 12.3963 16.8553C12.7117 16.7045 13.0828 16.5859 13.5097 16.4995C13.9365 16.413 14.3662 16.353 14.7987 16.3195C15.2313 16.2859 15.7209 16.2693 16.2678 16.2693H18.1428V18.4122C18.1428 18.5573 18.1958 18.6829 18.3018 18.7889C18.4079 18.8948 18.5334 18.9479 18.6784 18.9479C18.8235 18.9479 18.9491 18.8948 19.0553 18.7889L23.341 14.503C23.447 14.397 23.5 14.2715 23.5 14.1264C23.5 13.9813 23.447 13.8557 23.3411 13.7495Z" stroke="#3ABFF8" stroke-width="1.3" stroke-linejoin="round"/>
</svg>
