<svg width="24" height="24" viewBox="0 0 24 24" fill="none" xmlns="http://www.w3.org/2000/svg">
<path opacity="0.4" d="M8 22H16C18.76 22 21 19.76 21 17V7C21 4.24 18.76 2 16 2H8C5.24 2 3 4.24 3 7V17C3 19.76 5.24 22 8 22Z" fill="white"/>
<path d="M15 5.70996H9C7.97 5.70996 7.12 6.54996 7.12 7.58996V8.58996C7.12 9.61996 7.96 10.47 9 10.47H15C16.03 10.47 16.88 9.62996 16.88 8.58996V7.58996C16.88 6.54996 16.04 5.70996 15 5.70996Z" fill="white"/>
<path d="M8.16002 14.9198C8.02002 14.9198 7.89002 14.8898 7.77002 14.8398C7.65002 14.7898 7.54002 14.7198 7.45002 14.6298C7.26002 14.4398 7.15002 14.1898 7.15002 13.9198C7.15002 13.7898 7.18002 13.6598 7.23002 13.5398C7.28002 13.4098 7.35002 13.3098 7.45002 13.2098C7.68002 12.9798 8.03002 12.8698 8.35002 12.9398C8.41002 12.9498 8.48002 12.9698 8.54002 12.9998C8.60002 13.0198 8.66002 13.0498 8.71002 13.0898C8.77002 13.1198 8.82002 13.1698 8.86002 13.2098C8.95002 13.3098 9.03002 13.4098 9.08002 13.5398C9.13002 13.6598 9.15002 13.7898 9.15002 13.9198C9.15002 14.1898 9.05002 14.4398 8.86002 14.6298C8.67002 14.8198 8.42002 14.9198 8.16002 14.9198Z" fill="white"/>
<path d="M12.15 14.9201C11.89 14.9201 11.64 14.8201 11.45 14.6301C11.26 14.4401 11.15 14.1901 11.15 13.9201C11.15 13.6601 11.26 13.4001 11.45 13.2101C11.82 12.8401 12.49 12.8401 12.86 13.2101C12.95 13.3101 13.03 13.4101 13.08 13.5401C13.13 13.6601 13.15 13.7901 13.15 13.9201C13.15 14.1901 13.05 14.4401 12.86 14.6301C12.67 14.8201 12.42 14.9201 12.15 14.9201Z" fill="white"/>
<path d="M16.15 14.9201C15.89 14.9201 15.64 14.8201 15.45 14.6301C15.26 14.4401 15.15 14.1901 15.15 13.9201C15.15 13.6601 15.26 13.4001 15.45 13.2101C15.82 12.8401 16.49 12.8401 16.86 13.2101C17.05 13.4001 17.16 13.6601 17.16 13.9201C17.16 14.0501 17.13 14.1801 17.08 14.3001C17.03 14.4201 16.96 14.5301 16.86 14.6301C16.67 14.8201 16.42 14.9201 16.15 14.9201Z" fill="white"/>
<path d="M8.16002 18.9198C7.89002 18.9198 7.64002 18.8198 7.45002 18.6298C7.26002 18.4398 7.15002 18.1898 7.15002 17.9198C7.15002 17.6598 7.26002 17.3998 7.45002 17.2098C7.54002 17.1198 7.65002 17.0498 7.77002 16.9998C8.02002 16.8998 8.29002 16.8998 8.54002 16.9998C8.60002 17.0198 8.66002 17.0498 8.71002 17.0898C8.77002 17.1198 8.82002 17.1698 8.86002 17.2098C9.05002 17.3998 9.16002 17.6598 9.16002 17.9198C9.16002 18.1898 9.05002 18.4398 8.86002 18.6298C8.67002 18.8198 8.42002 18.9198 8.16002 18.9198Z" fill="white"/>
<path d="M12.15 18.9202C11.89 18.9202 11.64 18.8202 11.45 18.6302C11.26 18.4402 11.15 18.1902 11.15 17.9202C11.15 17.8502 11.16 17.7902 11.17 17.7202C11.19 17.6602 11.21 17.6002 11.23 17.5402C11.26 17.4802 11.29 17.4202 11.32 17.3602C11.36 17.3102 11.4 17.2602 11.45 17.2102C11.54 17.1202 11.65 17.0502 11.77 17.0002C12.14 16.8502 12.58 16.9302 12.86 17.2102C13.05 17.4002 13.15 17.6602 13.15 17.9202C13.15 18.1902 13.05 18.4402 12.86 18.6302C12.77 18.7202 12.66 18.7902 12.54 18.8402C12.42 18.8902 12.29 18.9202 12.15 18.9202Z" fill="white"/>
<path d="M16.15 18.9202C16.02 18.9202 15.89 18.8902 15.77 18.8402C15.65 18.7902 15.54 18.7202 15.45 18.6302C15.26 18.4402 15.16 18.1902 15.16 17.9202C15.16 17.6602 15.26 17.4002 15.45 17.2102C15.72 16.9302 16.17 16.8502 16.54 17.0002C16.66 17.0502 16.77 17.1202 16.86 17.2102C17.05 17.4002 17.15 17.6602 17.15 17.9202C17.15 18.1902 17.05 18.4402 16.86 18.6302C16.67 18.8202 16.42 18.9202 16.15 18.9202Z" fill="white"/>
</svg>
