<svg width="56" height="56" viewBox="0 0 56 56" fill="none" xmlns="http://www.w3.org/2000/svg">
<rect width="56" height="56" rx="8" fill="#E8FAF1"/>
<path d="M24.529 26.6189C24.4067 26.6067 24.2601 26.6067 24.1256 26.6189C21.2167 26.5211 18.9067 24.1378 18.9067 21.2044C18.9067 18.21 21.3267 15.7778 24.3334 15.7778C27.3278 15.7778 29.7601 18.21 29.7601 21.2044C29.7478 24.1378 27.4378 26.5211 24.529 26.6189Z" stroke="#48D58C" stroke-width="1.3" stroke-linecap="round" stroke-linejoin="round"/>
<path d="M33.3901 18.2222C35.7612 18.2222 37.6679 20.1411 37.6679 22.5C37.6679 24.81 35.8345 26.6922 33.549 26.7778C33.4512 26.7656 33.3412 26.7656 33.2312 26.7778" stroke="#48D58C" stroke-width="1.3" stroke-linecap="round" stroke-linejoin="round"/>
<path d="M18.4178 31.1289C15.46 33.1089 15.46 36.3355 18.4178 38.3033C21.7789 40.5522 27.2911 40.5522 30.6522 38.3033C33.61 36.3233 33.61 33.0966 30.6522 31.1289C27.3034 28.8922 21.7911 28.8922 18.4178 31.1289Z" stroke="#48D58C" stroke-width="1.3" stroke-linecap="round" stroke-linejoin="round"/>
<path d="M35.749 37.7777C36.629 37.5944 37.4601 37.24 38.1446 36.7144C40.0512 35.2844 40.0512 32.9255 38.1446 31.4955C37.4724 30.9822 36.6535 30.64 35.7857 30.4444" stroke="#48D58C" stroke-width="1.3" stroke-linecap="round" stroke-linejoin="round"/>
</svg>
