<svg width="24" height="24" viewBox="0 0 24 24" fill="none" xmlns="http://www.w3.org/2000/svg">
<path d="M12 21C16.95 21 21 16.95 21 12C21 7.05 16.95 3 12 3C7.05 3 3 7.05 3 12C3 16.95 7.05 21 12 21Z" stroke="#8A8A8A" stroke-width="1.3" stroke-linecap="round" stroke-linejoin="round"/>
<path d="M12 9.74023C11.7773 9.74023 11.5859 9.66797 11.4258 9.52344C11.2695 9.37891 11.1914 9.19531 11.1914 8.97266C11.1914 8.75 11.2695 8.56445 11.4258 8.41602C11.5859 8.26758 11.7773 8.19336 12 8.19336C12.2305 8.19336 12.4258 8.26758 12.5859 8.41602C12.7461 8.56445 12.8262 8.75 12.8262 8.97266C12.8262 9.18359 12.7461 9.36523 12.5859 9.51758C12.4258 9.66602 12.2305 9.74023 12 9.74023ZM12.6738 17H11.3145V11H12.6738V17Z" fill="#8A8A8A"/>
</svg>
