<svg width="24" height="24" viewBox="0 0 24 24" fill="none" xmlns="http://www.w3.org/2000/svg">
<path d="M19.5 6.98333C16.725 6.70833 13.9333 6.56667 11.15 6.56667C9.5 6.56667 7.85 6.65 6.2 6.81667L4.5 6.98333" stroke="#313131" stroke-width="1.3" stroke-linecap="round" stroke-linejoin="round"/>
<path d="M9.08334 6.14167L9.26668 5.05001C9.40001 4.25834 9.50001 3.66667 10.9083 3.66667H13.0917C14.5 3.66667 14.6083 4.29167 14.7333 5.05834L14.9167 6.14167" stroke="#313131" stroke-width="1.3" stroke-linecap="round" stroke-linejoin="round"/>
<path d="M17.7084 9.61667L17.1667 18.0083C17.075 19.3167 17 20.3333 14.675 20.3333H9.32502C7.00002 20.3333 6.92502 19.3167 6.83335 18.0083L6.29169 9.61667" stroke="#313131" stroke-width="1.3" stroke-linecap="round" stroke-linejoin="round"/>
<path d="M10.6083 15.75H13.3833" stroke="#313131" stroke-width="1.3" stroke-linecap="round" stroke-linejoin="round"/>
<path d="M9.91666 12.4167H14.0833" stroke="#313131" stroke-width="1.3" stroke-linecap="round" stroke-linejoin="round"/>
</svg>
