<svg width="32" height="32" viewBox="0 0 32 32" fill="none" xmlns="http://www.w3.org/2000/svg">
<circle cx="16" cy="16" r="16" fill="#FFF0F0"/>
<path d="M22.75 12.0476C22.735 12.0476 22.7125 12.0476 22.69 12.0476C18.7225 11.6501 14.7625 11.5001 10.84 11.8976L9.31 12.0476C8.995 12.0776 8.7175 11.8526 8.6875 11.5376C8.6575 11.2226 8.8825 10.9526 9.19 10.9226L10.72 10.7726C14.71 10.3676 18.7525 10.5251 22.8025 10.9226C23.11 10.9526 23.335 11.2301 23.305 11.5376C23.2825 11.8301 23.035 12.0476 22.75 12.0476Z" fill="#FF5C58"/>
<path d="M13.3751 11.29C13.3451 11.29 13.3151 11.29 13.2776 11.2825C12.9776 11.23 12.7676 10.9375 12.8201 10.6375L12.9851 9.655C13.1051 8.935 13.2701 7.9375 15.0176 7.9375H16.9826C18.7376 7.9375 18.9026 8.9725 19.0151 9.6625L19.1801 10.6375C19.2326 10.945 19.0226 11.2375 18.7226 11.2825C18.4151 11.335 18.1226 11.125 18.0776 10.825L17.9126 9.85C17.8076 9.1975 17.7851 9.07 16.9901 9.07H15.0251C14.2301 9.07 14.2151 9.175 14.1026 9.8425L13.9301 10.8175C13.8851 11.095 13.6451 11.29 13.3751 11.29Z" fill="#FF5C58"/>
<path d="M18.4075 24.0624H13.5925C10.975 24.0624 10.87 22.6149 10.7875 21.4449L10.3 13.8924C10.2775 13.5849 10.5175 13.3149 10.825 13.2924C11.14 13.2774 11.4025 13.5099 11.425 13.8174L11.9125 21.3699C11.995 22.5099 12.025 22.9374 13.5925 22.9374H18.4075C19.9825 22.9374 20.0125 22.5099 20.0875 21.3699L20.575 13.8174C20.5975 13.5099 20.8675 13.2774 21.175 13.2924C21.4825 13.3149 21.7225 13.5774 21.7 13.8924L21.2125 21.4449C21.13 22.6149 21.025 24.0624 18.4075 24.0624Z" fill="#FF5C58"/>
<path d="M17.2451 19.9375H14.7476C14.4401 19.9375 14.1851 19.6825 14.1851 19.375C14.1851 19.0675 14.4401 18.8125 14.7476 18.8125H17.2451C17.5526 18.8125 17.8076 19.0675 17.8076 19.375C17.8076 19.6825 17.5526 19.9375 17.2451 19.9375Z" fill="#FF5C58"/>
<path d="M17.875 16.9375H14.125C13.8175 16.9375 13.5625 16.6825 13.5625 16.375C13.5625 16.0675 13.8175 15.8125 14.125 15.8125H17.875C18.1825 15.8125 18.4375 16.0675 18.4375 16.375C18.4375 16.6825 18.1825 16.9375 17.875 16.9375Z" fill="#FF5C58"/>
</svg>
