<svg width="24" height="24" viewBox="0 0 24 24" fill="none" xmlns="http://www.w3.org/2000/svg">
<path d="M11.1667 3.6665H9.50008C5.33341 3.6665 3.66675 5.33317 3.66675 9.49984V14.4998C3.66675 18.6665 5.33341 20.3332 9.50008 20.3332H14.5001C18.6667 20.3332 20.3334 18.6665 20.3334 14.4998V12.8332" stroke="#313131" stroke-width="1.3" stroke-linecap="round" stroke-linejoin="round"/>
<path d="M15.3666 4.51688L8.7999 11.0835C8.5499 11.3335 8.2999 11.8252 8.2499 12.1835L7.89157 14.6919C7.75823 15.6002 8.3999 16.2335 9.30823 16.1085L11.8166 15.7502C12.1666 15.7002 12.6582 15.4502 12.9166 15.2002L19.4832 8.63354C20.6166 7.50021 21.1499 6.18354 19.4832 4.51688C17.8166 2.85021 16.4999 3.38354 15.3666 4.51688Z" stroke="#313131" stroke-width="1.3" stroke-miterlimit="10" stroke-linecap="round" stroke-linejoin="round"/>
<path d="M14.425 5.4585C14.9834 7.45016 16.5417 9.0085 18.5417 9.57516" stroke="#313131" stroke-width="1.3" stroke-miterlimit="10" stroke-linecap="round" stroke-linejoin="round"/>
</svg>
