<svg width="24" height="24" viewBox="0 0 24 24" fill="none" xmlns="http://www.w3.org/2000/svg">
<path d="M12 11.9987C14.5313 11.9987 16.5833 9.94667 16.5833 7.41536C16.5833 4.88406 14.5313 2.83203 12 2.83203C9.4687 2.83203 7.41667 4.88406 7.41667 7.41536C7.41667 9.94667 9.4687 11.9987 12 11.9987Z" stroke="#313131" stroke-width="1.3" stroke-linecap="round" stroke-linejoin="round"/>
<path d="M4.12575 21.4167C4.12575 17.8692 7.65491 15 11.9999 15C12.8799 15 13.7324 15.1192 14.5299 15.3392" stroke="#313131" stroke-width="1.3" stroke-linecap="round" stroke-linejoin="round"/>
<path d="M21.1667 17.4987C21.1667 17.792 21.13 18.0762 21.0567 18.3512C20.9742 18.7179 20.8275 19.0754 20.635 19.387C20.0025 20.4504 18.8383 21.1654 17.5 21.1654C16.5558 21.1654 15.7033 20.8078 15.0617 20.2212C14.7867 19.9828 14.5483 19.6987 14.365 19.387C14.0258 18.837 13.8333 18.1862 13.8333 17.4987C13.8333 16.5087 14.2275 15.6012 14.8692 14.9412C15.5383 14.2537 16.4733 13.832 17.5 13.832C18.5817 13.832 19.5625 14.2995 20.2225 15.0512C20.8092 15.702 21.1667 16.5637 21.1667 17.4987Z" stroke="#313131" stroke-width="1.3" stroke-miterlimit="10" stroke-linecap="round" stroke-linejoin="round"/>
<path d="M18.8657 17.4844H16.1341" stroke="#313131" stroke-width="1.3" stroke-miterlimit="10" stroke-linecap="round" stroke-linejoin="round"/>
<path d="M17.4999 16.1445V18.8854" stroke="#313131" stroke-width="1.3" stroke-miterlimit="10" stroke-linecap="round" stroke-linejoin="round"/>
</svg>
