<svg width="32" height="32" viewBox="0 0 32 32" fill="none" xmlns="http://www.w3.org/2000/svg">
<circle cx="16" cy="16" r="16" fill="#E7F7FE"/>
<path opacity="0.4" d="M26 10.25V15.35C26 16.62 25.58 17.69 24.83 18.43C24.09 19.18 23.02 19.6 21.75 19.6V21.41C21.75 22.09 20.99 22.5 20.43 22.12L19.46 21.48C19.55 21.17 19.59 20.83 19.59 20.47V16.4C19.59 14.36 18.23 13 16.19 13H9.39999C9.25999 13 9.13 13.01 9 13.02V10.25C9 7.7 10.7 6 13.25 6H21.75C24.3 6 26 7.7 26 10.25Z" fill="#3ABFF8"/>
<path d="M19.59 16.4V20.47C19.59 20.83 19.55 21.17 19.46 21.48C19.09 22.95 17.87 23.87 16.19 23.87H13.47L10.45 25.88C10 26.19 9.39999 25.86 9.39999 25.32V23.87C8.37999 23.87 7.53 23.53 6.94 22.94C6.34 22.34 6 21.49 6 20.47V16.4C6 14.5 7.18 13.19 9 13.02C9.13 13.01 9.25999 13 9.39999 13H16.19C18.23 13 19.59 14.36 19.59 16.4Z" fill="#3ABFF8"/>
</svg>
